<?xml version="1.0" encoding="UTF-8"?>
<svg width="26px" height="26px" viewBox="0 0 26 26" version="1.1" xmlns="http://www.w3.org/2000/svg" xmlns:xlink="http://www.w3.org/1999/xlink">
    <!-- Generator: Sketch 53.1 (72631) - https://sketchapp.com -->
    <title>否 (1)</title>
    <desc>Created with Sketch.</desc>
    <g id="Page-1" stroke="none" stroke-width="1" fill="none" fill-rule="evenodd">
        <g id="否-(1)" fill="#FF0000" fill-rule="nonzero">
            <polygon id="路径" points="7.64146341 15.278125 18.46 15.278125 18.46 19.7375 7.64146341 19.7375"></polygon>
            <path d="M24.5731707,0 L1.42682927,0 C0.640487805,0 0,0.634375 0,1.40625 L0,24.21875 C0,24.99375 0.643658537,25.625 1.42682927,25.625 L24.5731707,25.625 C25.3595122,25.625 26,24.990625 26,24.21875 L26,1.40625 C26,0.634375 25.3595122,0 24.5731707,0 Z M3.50365854,11.921875 C7.14682927,10.378125 10.2414634,8.4625 12.7812195,6.175 L4.27414634,6.175 L4.27414634,4.809375 L21.8273171,4.809375 L21.8273171,6.175 L14.6297561,6.175 C14.1795122,6.70625 13.6721951,7.2375 13.1078049,7.76875 L13.9353659,7.76875 L13.9353659,13.2875 L12.3753659,13.2875 L12.3753659,8.4125 C9.97512195,10.371875 7.34658537,12.003125 4.48341463,13.30625 C4.26780488,12.928125 3.94121951,12.465625 3.50365854,11.921875 L3.50365854,11.921875 Z M20.0168293,22.3375 L18.4568293,22.3375 L18.4568293,21.065625 L7.64146341,21.065625 L7.64146341,22.375 L6.08146341,22.375 L6.08146341,13.9125 L20.0168293,13.9125 L20.0168293,22.3375 L20.0168293,22.3375 Z M21.614878,13.26875 C19.4207317,11.7625 16.995122,10.296875 14.3380488,8.86875 L15.1656098,7.76875 C17.9495122,9.159375 20.4385366,10.55625 22.6326829,11.9625 L21.614878,13.26875 Z" id="形状"></path>
        </g>
    </g>
</svg>