<?xml version="1.0" encoding="UTF-8"?>
<svg width="26px" height="26px" viewBox="0 0 26 26" version="1.1" xmlns="http://www.w3.org/2000/svg" xmlns:xlink="http://www.w3.org/1999/xlink">
    <!-- Generator: Sketch 53.1 (72631) - https://sketchapp.com -->
    <title>是 (1)</title>
    <desc>Created with Sketch.</desc>
    <g id="Page-1" stroke="none" stroke-width="1" fill="none" fill-rule="evenodd">
        <g id="是-(1)">
            <path d="M3.71366666,0 L22.2863333,0 C24.336,0 26,1.664 26,3.71366666 L26,22.2863333 C26,24.336 24.336,26 22.2863333,26 L3.71366666,26 C1.6626652,26 2.51175237e-16,24.3373348 0,22.2863333 L0,3.71366666 C0,1.664 1.664,0 3.71366666,0 Z" id="路径" fill="#5AC226" fill-rule="nonzero"></path>
            <rect id="矩形" fill="#5AC226" x="0" y="0" width="26" height="26"></rect>
            <path d="M3.87833334,14.3086667 L3.87833334,12.3695 L22.2863333,12.3695 L22.2863333,14.3086667 L14.3931667,14.3086667 L14.3931667,16.0398333 L20.0806667,16.0398333 L20.0806667,17.9356667 L14.3931667,17.9356667 L14.3931667,19.9138333 C15.3248333,19.9961667 16.393,20.0373333 17.589,20.0373333 C19.4241667,20.0373333 20.969,19.9983333 22.2256667,19.9571667 L21.6298333,21.9786667 C20.189,21.9786667 18.889,21.957 17.7363333,21.9375 C14.313,21.9158333 11.9838333,21.6471667 10.7076667,21.1531667 C9.7175,20.7415 8.85083332,19.9376667 8.06866666,18.785 C7.32127381,20.1199796 6.32030954,21.2961126 5.122,22.2473333 L3.718,20.4555 C5.56833334,19.0081667 6.80766666,17.1123333 7.46633334,14.7225 L9.50733334,15.0713333 C9.32533334,15.7646667 9.10866668,16.445 8.8465,17.1123333 C9.63083334,18.33 10.5365,19.0905 11.5461667,19.422 C11.7498333,19.4826667 11.9795,19.5455 12.2265,19.6061667 L12.2265,14.3086667 L3.87833334,14.3086667 Z M19.565,3.757 L19.565,11.2775 L6.6625,11.2775 L6.6625,3.75483334 L19.565,3.75483334 L19.565,3.757 Z M17.4416667,6.6625 L17.4416667,5.5705 L8.80533334,5.5705 L8.80533334,6.6625 L17.4416667,6.6625 Z M17.4416667,8.3525 L8.80533334,8.3525 L8.80533334,9.464 L17.4416667,9.464 L17.4416667,8.35033334 L17.4416667,8.3525 Z" id="形状" fill="#FFFFFF" fill-rule="nonzero"></path>
        </g>
    </g>
</svg>