<?xml version="1.0" encoding="UTF-8"?>
<svg width="36px" height="47px" viewBox="0 0 36 47" version="1.1" xmlns="http://www.w3.org/2000/svg" xmlns:xlink="http://www.w3.org/1999/xlink">
    <!-- Generator: Sketch 53.1 (72631) - https://sketchapp.com -->
    <title>主-小路交叉口</title>
    <desc>Created with Sketch.</desc>
    <g id="Page-1" stroke="none" stroke-width="1" fill="none" fill-rule="evenodd">
        <g id="主-小路交叉口">
            <rect id="矩形" stroke="#979797" fill="#FFFFFF" x="0.5" y="0.5" width="35" height="15" rx="2"></rect>
            <path d="M7.256,5.944 L4.28,5.944 L4.28,5.376 L7.304,5.376 C7.168,4.952 7,4.544 6.808,4.152 L7.368,4 C7.568,4.456 7.72,4.872 7.832,5.256 L7.52,5.376 L10.816,5.376 L10.816,5.944 L7.84,5.944 L7.84,7.832 L10.432,7.832 L10.432,8.368 L7.84,8.368 L7.84,10.512 L11.096,10.512 L11.096,11.08 L4,11.08 L4,10.512 L7.256,10.512 L7.256,8.368 L4.664,8.368 L4.664,7.832 L7.256,7.832 L7.256,5.944 Z M11.904,8.208 L15.944,8.208 L15.944,8.752 L11.904,8.752 L11.904,8.208 Z M19.92,11.264 L18.696,11.264 L18.56,10.664 C18.96,10.696 19.344,10.712 19.704,10.712 C20,10.712 20.152,10.56 20.152,10.264 L20.152,4.136 L20.744,4.136 L20.744,10.416 C20.744,10.976 20.464,11.264 19.92,11.264 Z M18.008,5.992 L18.584,6.216 C18.2,7.816 17.696,9.032 17.072,9.864 L16.576,9.424 C17.216,8.576 17.688,7.432 18.008,5.992 Z M22.552,5.8 C23.184,7.232 23.672,8.48 24.008,9.544 L23.496,9.904 C23.136,8.768 22.648,7.512 22.032,6.128 L22.552,5.8 Z M24.992,4.336 L27.456,4.336 L27.456,6.848 L26.656,6.848 L26.656,8.136 L27.488,8.136 L27.488,8.68 L26.656,8.68 L26.656,10.168 C27.008,10.056 27.352,9.944 27.672,9.824 L27.672,10.4 C26.84,10.712 25.864,11 24.752,11.264 L24.592,10.704 L25.016,10.608 L25.016,7.704 L25.528,7.704 L25.528,10.48 C25.728,10.432 25.928,10.376 26.12,10.328 L26.12,6.848 L24.992,6.848 L24.992,4.336 Z M26.904,6.32 L26.904,4.864 L25.552,4.864 L25.552,6.32 L26.904,6.32 Z M31.272,8.36 L31.272,11.328 L30.72,11.328 L30.72,10.976 L28.704,10.976 L28.704,11.328 L28.152,11.328 L28.152,8.36 L31.272,8.36 Z M28.704,10.448 L30.72,10.448 L30.72,8.88 L28.704,8.88 L28.704,10.448 Z M28.968,4 L29.52,4.104 C29.456,4.304 29.384,4.496 29.304,4.688 L31.288,4.688 L31.288,5.104 C31.016,5.776 30.616,6.368 30.096,6.88 C30.624,7.312 31.264,7.648 32.008,7.88 L31.68,8.352 C30.888,8.096 30.224,7.728 29.688,7.248 C29.144,7.688 28.504,8.064 27.752,8.384 L27.408,7.92 C28.144,7.624 28.768,7.272 29.296,6.856 C29.008,6.544 28.768,6.208 28.568,5.84 C28.36,6.08 28.128,6.296 27.872,6.504 L27.528,6.048 C28.232,5.496 28.712,4.816 28.968,4 Z M28.896,5.4 C29.112,5.816 29.376,6.192 29.696,6.512 C30.104,6.112 30.432,5.68 30.68,5.2 L29.032,5.2 C28.984,5.264 28.944,5.336 28.896,5.4 Z" id="主-小路" fill="#000000" fill-rule="nonzero"></path>
            <g id="7交叉口" transform="translate(4.000000, 19.000000)" fill="#666666" fill-rule="nonzero">
                <path d="M27.1870968,14.9145161 L20.7741935,14.9145161 C20.3225806,14.9145161 19.9612903,14.5532258 19.9612903,14.1016129 C19.9612903,13.65 20.3225806,13.2887097 20.7741935,13.2887097 L27.1870968,13.2887097 C27.6387097,13.2887097 28,13.65 28,14.1016129 C28,14.5532258 27.6387097,14.9145161 27.1870968,14.9145161 Z M7.22580645,14.9145161 L0.812903226,14.9145161 C0.361290323,14.9145161 -3.55271368e-15,14.5532258 -3.55271368e-15,14.1016129 C-3.55271368e-15,13.65 0.361290323,13.2887097 0.812903226,13.2887097 L7.22580645,13.2887097 C7.67741935,13.2887097 8.03870968,13.65 8.03870968,14.1016129 C8.03870968,14.5532258 7.67741935,14.9145161 7.22580645,14.9145161 Z M14.8129032,0.824193548 L14.8129032,7.23709677 C14.8129032,7.68870968 14.4516129,8.05 14,8.05 C13.5483871,8.05 13.1870968,7.68870968 13.1870968,7.23709677 L13.1870968,0.824193548 C13.1870968,0.372580645 13.5483871,0.0112903226 14,0.0112903226 C14.4516129,0.0112903226 14.8129032,0.372580645 14.8129032,0.824193548 Z M14.8129032,20.6951613 L14.8129032,27.1080645 C14.8129032,27.5596774 14.4516129,27.9209677 14,27.9209677 C13.5483871,27.9209677 13.1870968,27.5596774 13.1870968,27.1080645 L13.1870968,20.6951613 C13.1870968,20.2435484 13.5483871,19.8822581 14,19.8822581 C14.4516129,19.8822581 14.8129032,20.2435484 14.8129032,20.6951613 Z" id="形状"></path>
            </g>
        </g>
    </g>
</svg>