<?xml version="1.0" encoding="UTF-8"?>
<svg width="32px" height="44px" viewBox="0 0 32 44" version="1.1" xmlns="http://www.w3.org/2000/svg" xmlns:xlink="http://www.w3.org/1999/xlink">
    <!-- Generator: Sketch 53.1 (72631) - https://sketchapp.com -->
    <title>主-乡交叉口</title>
    <desc>Created with Sketch.</desc>
    <g id="Page-1" stroke="none" stroke-width="1" fill="none" fill-rule="evenodd">
        <g id="主-乡交叉口">
            <rect id="矩形" stroke="#979797" fill="#FFFFFF" x="0.5" y="0.5" width="31" height="15" rx="2"></rect>
            <path d="M9.256,6.024 L6.28,6.024 L6.28,5.456 L9.304,5.456 C9.168,5.032 9,4.624 8.808,4.232 L9.368,4.08 C9.568,4.536 9.72,4.952 9.832,5.336 L9.52,5.456 L12.816,5.456 L12.816,6.024 L9.84,6.024 L9.84,7.912 L12.432,7.912 L12.432,8.448 L9.84,8.448 L9.84,10.592 L13.096,10.592 L13.096,11.16 L6,11.16 L6,10.592 L9.256,10.592 L9.256,8.448 L6.664,8.448 L6.664,7.912 L9.256,7.912 L9.256,6.024 Z M13.904,8.288 L17.944,8.288 L17.944,8.832 L13.904,8.832 L13.904,8.288 Z M24.728,7.152 L25.312,7.208 C25.136,8.376 24.6,9.312 23.72,10.016 C22.952,10.648 21.576,11.144 19.608,11.512 L19.36,10.936 C21.168,10.632 22.464,10.192 23.264,9.616 C23.576,9.384 23.84,9.12 24.056,8.832 C22.968,8.984 21.6,9.112 19.936,9.224 L19.76,8.712 C20.576,8.304 21.44,7.68 22.336,6.848 C21.44,6.944 20.544,7.016 19.664,7.056 L19.52,6.544 C20.456,5.824 21.264,4.976 21.952,4 L22.52,4.208 C21.904,5.08 21.184,5.848 20.368,6.512 C21.2,6.472 22.032,6.408 22.864,6.328 C23.24,5.944 23.624,5.52 24.016,5.064 L24.576,5.336 C23.224,6.88 22.016,7.976 20.952,8.632 C22.28,8.536 23.416,8.416 24.376,8.288 C24.536,7.944 24.656,7.568 24.728,7.152 Z" id="主-乡" fill="#000000" fill-rule="nonzero"></path>
            <g id="路口-(2)" transform="translate(3.000000, 18.000000)" fill="#000000" fill-rule="nonzero">
                <path d="M9.94,0.0071875 C9.3875,0.0071875 8.9396875,0.455 8.9396875,1.0075 L8.9396875,8.36875 C8.9396875,8.679375 8.6878125,8.93125 8.3771875,8.93125 L1.0003125,8.93125 C0.4478125,8.93125 0,9.3790625 0,9.9315625 L0,9.944375 C0,10.496875 0.4478125,10.9446875 1.0003125,10.9446875 L10.3775,10.9446875 C10.688125,10.9446875 10.94,10.6928125 10.94,10.3821875 L10.94,1.0071875 C10.9403125,0.455 10.4925,0.0071875 9.94,0.0071875 Z M24.8809375,8.9309375 L17.50375,8.9309375 C17.193125,8.9309375 16.94125,8.6790625 16.94125,8.3684375 L16.94125,1.0071875 C16.94125,0.4546875 16.4934375,0.006875 15.9409375,0.006875 C15.3884375,0.006875 14.940625,0.4546875 14.940625,1.0071875 L14.940625,10.38125 C14.940625,10.691875 15.1925,10.94375 15.503125,10.94375 L24.8803125,10.94375 C25.4328125,10.94375 25.880625,10.4959375 25.880625,9.9434375 L25.880625,9.930625 C25.8809375,9.37875 25.433125,8.9309375 24.8809375,8.9309375 L24.8809375,8.9309375 Z M10.3778125,14.9390625 L1.0003125,14.9390625 C0.4478125,14.9390625 0,15.386875 0,15.939375 L0,15.9521875 C0,16.5046875 0.4478125,16.9525 1.0003125,16.9525 L8.3771875,16.9525 C8.6878125,16.9525 8.9396875,17.204375 8.9396875,17.515 L8.9396875,24.87625 C8.9396875,25.42875 9.3875,25.8765625 9.94,25.8765625 C10.4925,25.8765625 10.9403125,25.42875 10.9403125,24.87625 L10.9403125,15.5015625 C10.9403125,15.190625 10.6884375,14.9390625 10.3778125,14.9390625 L10.3778125,14.9390625 Z M24.8809375,14.9390625 L15.5034375,14.9390625 C15.1928125,14.9390625 14.9409375,15.1909375 14.9409375,15.5015625 L14.9409375,24.875625 C14.9409375,25.428125 15.38875,25.8759375 15.94125,25.8759375 C16.49375,25.8759375 16.9415625,25.428125 16.9415625,24.875625 L16.9415625,17.514375 C16.9415625,17.20375 17.1934375,16.951875 17.5040625,16.951875 L24.8809375,16.951875 C25.4334375,16.951875 25.88125,16.5040625 25.88125,15.9515625 L25.88125,15.93875 C25.8809375,15.386875 25.433125,14.9390625 24.8809375,14.9390625 L24.8809375,14.9390625 Z" id="形状"></path>
            </g>
        </g>
    </g>
</svg>