<?xml version="1.0" encoding="UTF-8"?>
<svg width="32px" height="49px" viewBox="0 0 32 49" version="1.1" xmlns="http://www.w3.org/2000/svg" xmlns:xlink="http://www.w3.org/1999/xlink">
    <!-- Generator: Sketch 53.1 (72631) - https://sketchapp.com -->
    <title>主-支交叉口</title>
    <desc>Created with Sketch.</desc>
    <g id="Page-1" stroke="none" stroke-width="1" fill="none" fill-rule="evenodd">
        <g id="主-支交叉口">
            <rect id="矩形" stroke="#979797" fill="#FFFFFF" x="0.5" y="0.5" width="31" height="15" rx="2"></rect>
            <path d="M9.256,5.944 L6.28,5.944 L6.28,5.376 L9.304,5.376 C9.168,4.952 9,4.544 8.808,4.152 L9.368,4 C9.568,4.456 9.72,4.872 9.832,5.256 L9.52,5.376 L12.816,5.376 L12.816,5.944 L9.84,5.944 L9.84,7.832 L12.432,7.832 L12.432,8.368 L9.84,8.368 L9.84,10.512 L13.096,10.512 L13.096,11.08 L6,11.08 L6,10.512 L9.256,10.512 L9.256,8.368 L6.664,8.368 L6.664,7.832 L9.256,7.832 L9.256,5.944 Z M13.904,8.208 L17.944,8.208 L17.944,8.752 L13.904,8.752 L13.904,8.208 Z M21.992,4.016 L22.584,4.016 L22.584,5.064 L25.728,5.064 L25.728,5.624 L22.584,5.624 L22.584,6.848 L24.736,6.848 L24.736,7.36 C24.288,8.256 23.64,9.024 22.792,9.664 C23.192,9.888 23.632,10.104 24.112,10.296 C24.68,10.512 25.288,10.696 25.936,10.856 L25.6,11.36 C24.912,11.176 24.256,10.952 23.64,10.696 C23.152,10.488 22.704,10.256 22.304,10 C21.392,10.576 20.304,11.032 19.032,11.376 L18.704,10.864 C19.92,10.576 20.96,10.176 21.824,9.664 C21.408,9.352 21.04,8.992 20.728,8.592 C20.44,8.224 20.232,7.816 20.104,7.384 L19.488,7.384 L19.488,6.848 L21.992,6.848 L21.992,5.624 L18.88,5.624 L18.88,5.064 L21.992,5.064 L21.992,4.016 Z M22.296,9.352 C23.072,8.808 23.672,8.152 24.088,7.384 L20.672,7.384 C20.816,7.808 21.04,8.184 21.344,8.512 C21.624,8.832 21.944,9.112 22.296,9.352 Z" id="主-支" fill="#000000" fill-rule="nonzero"></path>
            <g id="通过十字路口能力" transform="translate(2.000000, 21.000000)" fill="#000000" fill-rule="nonzero">
                <path d="M14,0 C14.3568609,2.18514287e-17 14.6461538,0.289292928 14.6461538,0.64615384 L14.6461538,13.4615385 L27.3538462,13.4615385 C27.7107071,13.4615385 28,13.7508314 28,14.1076923 C28,14.4645532 27.7107071,14.7538462 27.3538462,14.7538462 L14.6461538,14.7538462 L14.6461538,27.3538462 C14.6461538,27.7107071 14.3568609,28 14,28 C13.6431391,28 13.3538462,27.7107071 13.3538462,27.3538462 L13.3538462,14.7538462 L0.64615384,14.7538462 C0.289292921,14.7538462 -1.36718744e-08,14.4645532 -1.36718745e-08,14.1076923 C-1.36718745e-08,13.7508314 0.289292921,13.4615385 0.64615384,13.4615385 L13.3538462,13.4615385 L13.3538462,0.64615384 C13.3538462,0.289292928 13.6431391,6.5554286e-17 14,0 Z" id="形状"></path>
            </g>
        </g>
    </g>
</svg>