<?xml version="1.0" encoding="UTF-8"?>
<svg width="32px" height="45px" viewBox="0 0 32 45" version="1.1" xmlns="http://www.w3.org/2000/svg" xmlns:xlink="http://www.w3.org/1999/xlink">
    <!-- Generator: Sketch 53.1 (72631) - https://sketchapp.com -->
    <title>主-次交叉口</title>
    <desc>Created with Sketch.</desc>
    <g id="Page-1" stroke="none" stroke-width="1" fill="none" fill-rule="evenodd">
        <g id="主-次交叉口">
            <g id="分组" transform="translate(3.000000, 20.000000)" fill="#122236" fill-rule="nonzero">
                <path d="M9.375,0 L9.375,5.20833333 C9.37500174,7.42854311 7.63409946,9.25878118 5.41666667,9.36979167 L5.20833333,9.375 L0,9.375 L0,7.29166667 L5.20833333,7.29166667 C6.29856746,7.2920117 7.20469083,6.45174691 7.28645833,5.36458333 L7.29166667,5.20833333 L7.29166667,0 L9.375,0 Z" id="路径"></path>
                <path d="M5.20833333,15.625 C7.42854311,15.6249983 9.25878118,17.3659005 9.36979167,19.5833333 L9.375,19.7916667 L9.375,25 L7.29166667,25 L7.29166667,19.7916667 C7.2920117,18.7014325 6.45174691,17.7953092 5.36458333,17.7135417 L5.20833333,17.7083333 L0,17.7083333 L0,15.625 L5.20833333,15.625 Z" id="路径"></path>
                <path d="M17.7083333,0 L17.7083333,5.20833333 C17.7079883,6.29856746 18.5482531,7.20469083 19.6354167,7.28645833 L19.7916667,7.29166667 L25,7.29166667 L25,9.375 L19.7916667,9.375 C17.5714569,9.37500174 15.7412188,7.63409946 15.6302083,5.41666667 L15.625,5.20833333 L15.625,0 L17.7083333,0 Z" id="路径"></path>
                <path d="M25,15.625 L25,17.7083333 L19.7916667,17.7083333 C18.7014325,17.7079883 17.7953092,18.5482531 17.7135417,19.6354167 L17.7083333,19.7916667 L17.7083333,25 L15.625,25 L15.625,19.7916667 C15.6249983,17.5714569 17.3659005,15.7412188 19.5833333,15.6302083 L19.7916667,15.625 L25,15.625 Z" id="路径"></path>
                <path d="M9.375,0 L9.375,5.20833333 C9.37500174,7.42854311 7.63409946,9.25878118 5.41666667,9.36979167 L5.20833333,9.375 L0,9.375 L0,7.29166667 L5.20833333,7.29166667 C6.29856746,7.2920117 7.20469083,6.45174691 7.28645833,5.36458333 L7.29166667,5.20833333 L7.29166667,0 L9.375,0 Z" id="路径"></path>
                <path d="M5.20833333,15.625 C7.42854311,15.6249983 9.25878118,17.3659005 9.36979167,19.5833333 L9.375,19.7916667 L9.375,25 L7.29166667,25 L7.29166667,19.7916667 C7.2920117,18.7014325 6.45174691,17.7953092 5.36458333,17.7135417 L5.20833333,17.7083333 L0,17.7083333 L0,15.625 L5.20833333,15.625 Z" id="路径"></path>
                <path d="M17.7083333,0 L17.7083333,5.20833333 C17.7079883,6.29856746 18.5482531,7.20469083 19.6354167,7.28645833 L19.7916667,7.29166667 L25,7.29166667 L25,9.375 L19.7916667,9.375 C17.5714569,9.37500174 15.7412188,7.63409946 15.6302083,5.41666667 L15.625,5.20833333 L15.625,0 L17.7083333,0 Z" id="路径"></path>
                <path d="M25,15.625 L25,17.7083333 L19.7916667,17.7083333 C18.7014325,17.7079883 17.7953092,18.5482531 17.7135417,19.6354167 L17.7083333,19.7916667 L17.7083333,25 L15.625,25 L15.625,19.7916667 C15.6249983,17.5714569 17.3659005,15.7412188 19.5833333,15.6302083 L19.7916667,15.625 L25,15.625 Z" id="路径"></path>
            </g>
            <rect id="矩形" stroke="#979797" fill="#FFFFFF" x="0.5" y="0.5" width="31" height="15" rx="2"></rect>
            <path d="M9.712,6.392 L6.736,6.392 L6.736,5.824 L9.76,5.824 C9.624,5.4 9.456,4.992 9.264,4.6 L9.824,4.448 C10.024,4.904 10.176,5.32 10.288,5.704 L9.976,5.824 L13.272,5.824 L13.272,6.392 L10.296,6.392 L10.296,8.28 L12.888,8.28 L12.888,8.816 L10.296,8.816 L10.296,10.96 L13.552,10.96 L13.552,11.528 L6.456,11.528 L6.456,10.96 L9.712,10.96 L9.712,8.816 L7.12,8.816 L7.12,8.28 L9.712,8.28 L9.712,6.392 Z M14.36,8.656 L18.4,8.656 L18.4,9.2 L14.36,9.2 L14.36,8.656 Z M22.624,6.232 C22.376,6.976 22.048,7.584 21.64,8.048 L21.16,7.712 C21.816,6.928 22.24,5.832 22.432,4.44 L23.008,4.528 C22.944,4.944 22.872,5.328 22.784,5.68 L26.144,5.68 L26.144,6.056 C25.976,6.736 25.76,7.408 25.488,8.072 L24.92,7.912 C25.168,7.416 25.368,6.856 25.528,6.232 L22.624,6.232 Z M23.448,6.776 L24.008,6.776 C24.008,7.208 23.984,7.608 23.944,7.976 C24.424,9.4 25.264,10.528 26.472,11.36 L26.096,11.8 C25.056,11.016 24.288,10.056 23.776,8.904 C23.728,9.104 23.672,9.288 23.608,9.464 C23.264,10.424 22.48,11.208 21.248,11.816 L20.872,11.36 C21.96,10.832 22.68,10.16 23.04,9.36 C23.296,8.68 23.432,7.816 23.448,6.776 Z M19.624,4.808 C20.248,5.432 20.728,5.976 21.064,6.44 L20.616,6.76 C20.256,6.264 19.768,5.704 19.16,5.096 L19.624,4.808 Z M20.6,8.24 L21.104,8.432 C20.656,9.536 20.16,10.576 19.608,11.544 L19.072,11.304 C19.664,10.304 20.168,9.28 20.6,8.24 Z" id="主-次" fill="#000000" fill-rule="nonzero"></path>
        </g>
    </g>
</svg>