<?xml version="1.0" encoding="UTF-8"?>
<svg width="36px" height="48px" viewBox="0 0 36 48" version="1.1" xmlns="http://www.w3.org/2000/svg" xmlns:xlink="http://www.w3.org/1999/xlink">
    <!-- Generator: Sketch 53.1 (72631) - https://sketchapp.com -->
    <title>主-其它交叉口</title>
    <desc>Created with Sketch.</desc>
    <g id="Page-1" stroke="none" stroke-width="1" fill="none" fill-rule="evenodd">
        <g id="主-其它交叉口">
            <rect id="矩形" stroke="#979797" fill="#FFFFFF" x="0.5" y="0.5" width="35" height="15" rx="2"></rect>
            <path d="M7.256,5.968 L4.28,5.968 L4.28,5.4 L7.304,5.4 C7.168,4.976 7,4.568 6.808,4.176 L7.368,4.024 C7.568,4.48 7.72,4.896 7.832,5.28 L7.52,5.4 L10.816,5.4 L10.816,5.968 L7.84,5.968 L7.84,7.856 L10.432,7.856 L10.432,8.392 L7.84,8.392 L7.84,10.536 L11.096,10.536 L11.096,11.104 L4,11.104 L4,10.536 L7.256,10.536 L7.256,8.392 L4.664,8.392 L4.664,7.856 L7.256,7.856 L7.256,5.968 Z M11.904,8.232 L15.944,8.232 L15.944,8.776 L11.904,8.776 L11.904,8.232 Z M16.864,4.744 L18.216,4.744 L18.216,4.008 L18.8,4.008 L18.8,4.744 L21.808,4.744 L21.808,4.008 L22.392,4.008 L22.392,4.744 L23.744,4.744 L23.744,5.288 L22.392,5.288 L22.392,8.952 L23.896,8.952 L23.896,9.488 L16.72,9.488 L16.72,8.952 L18.216,8.952 L18.216,5.288 L16.864,5.288 L16.864,4.744 Z M18.8,8.952 L21.808,8.952 L21.808,8.04 L18.8,8.04 L18.8,8.952 Z M18.8,7.544 L21.808,7.544 L21.808,6.656 L18.8,6.656 L18.8,7.544 Z M18.8,6.16 L21.808,6.16 L21.808,5.288 L18.8,5.288 L18.8,6.16 Z M19.216,9.68 L19.624,10.048 C18.968,10.544 18.16,10.976 17.2,11.352 L16.84,10.888 C17.784,10.536 18.576,10.136 19.216,9.68 Z M21.328,9.704 C22.224,10.024 23.04,10.408 23.776,10.864 L23.456,11.352 C22.672,10.84 21.864,10.432 21.04,10.136 L21.328,9.704 Z M31.648,4.904 L31.648,6.456 L31.064,6.456 L31.064,5.464 L25.464,5.464 L25.464,6.456 L24.88,6.456 L24.88,4.904 L28.056,4.904 C27.952,4.616 27.84,4.344 27.712,4.096 L28.336,4 C28.448,4.272 28.56,4.568 28.656,4.904 L31.648,4.904 Z M30.4,6.984 L30.792,7.44 C29.704,7.952 28.352,8.384 26.744,8.728 L26.744,10.152 C26.744,10.44 26.872,10.592 27.144,10.592 L30,10.592 C30.288,10.592 30.496,10.536 30.616,10.424 C30.784,10.28 30.896,9.872 30.944,9.2 L31.496,9.376 C31.416,10.216 31.256,10.728 31.032,10.912 C30.84,11.072 30.528,11.152 30.104,11.152 L26.968,11.152 C26.424,11.152 26.16,10.856 26.16,10.272 L26.16,6.176 L26.744,6.176 L26.744,8.16 C28.2,7.84 29.424,7.448 30.4,6.984 Z" id="主-其它" fill="#000000" fill-rule="nonzero"></path>
            <g id="交叉口分析" transform="translate(5.000000, 22.000000)" fill="#000000" fill-rule="nonzero">
                <path d="M23.6860625,6.48 C21.6797188,6.48 19.9945313,7.85209375 19.5166875,9.70865625 L11.1495938,9.70865625 L7.99740625,6.55678125 C8.39178125,5.90665625 8.61884375,5.14375 8.61884375,4.32778125 C8.61884375,1.9505 6.69146875,0.02284375 4.31440625,0.02284375 C1.93734375,0.02284375 0.0094375,1.9505 0.0094375,4.32778125 C0.0094375,6.705125 1.937375,8.63221875 4.31440625,8.63221875 C5.09496875,8.63221875 5.8270625,8.424375 6.458375,8.0610625 L9.69525,11.2975938 L9.69525,17.3777813 C7.83825,17.855625 6.466625,19.541125 6.466625,21.546625 C6.466625,23.9242188 8.3935,25.8521563 10.771625,25.8521563 C13.1486875,25.8521563 15.0760938,23.9242188 15.0760938,21.546625 C15.0760938,19.5410625 13.7040312,17.855625 11.8475,17.3777812 L11.8475,11.8608125 L19.5165625,11.8608125 C19.99425,13.7175 21.6795,15.0894375 23.6860625,15.0894375 C26.0630625,15.0894375 27.9904375,13.1623125 27.9904375,10.785 C27.9905,8.4076875 26.0630625,6.48 23.6860625,6.48 Z M4.3144375,6.48 C3.1256875,6.48 2.1616875,5.5163125 2.1616875,4.3278125 C2.1616875,3.139 3.12565625,2.17503125 4.3144375,2.17503125 C5.50271875,2.17503125 6.46665625,3.139 6.46665625,4.32778125 C6.46665625,5.5163125 5.50271875,6.48003125 4.3144375,6.48003125 L4.3144375,6.48 Z M12.9238437,21.546625 C12.9238437,22.7357188 11.959875,23.6993438 10.7716562,23.6993438 C9.58284375,23.6993438 8.61884375,22.7356875 8.61884375,21.546625 C8.61884375,20.358375 9.58284375,19.3944063 10.7716562,19.3944063 C11.959875,19.3944063 12.9238437,20.358375 12.9238437,21.546625 Z M23.6860312,12.9372187 C22.4972187,12.9372187 21.5332812,11.9734688 21.5332812,10.7850312 C21.5332812,9.59621875 22.49725,8.63221875 23.6860625,8.63221875 C24.8742812,8.63221875 25.83825,9.59621875 25.83825,10.7850312 C25.83825,11.9735 24.8743125,12.9372187 23.6860625,12.9372187 L23.6860312,12.9372187 Z" id="形状"></path>
            </g>
        </g>
    </g>
</svg>