<?xml version="1.0" encoding="UTF-8"?>
<svg width="36px" height="48px" viewBox="0 0 36 48" version="1.1" xmlns="http://www.w3.org/2000/svg" xmlns:xlink="http://www.w3.org/1999/xlink">
    <!-- Generator: Sketch 53.1 (72631) - https://sketchapp.com -->
    <title>乡-其它交叉口</title>
    <desc>Created with Sketch.</desc>
    <g id="Page-1" stroke="none" stroke-width="1" fill="none" fill-rule="evenodd">
        <g id="乡-其它交叉口">
            <rect id="矩形" stroke="#979797" fill="#FFFFFF" x="0.5" y="0.5" width="35" height="15" rx="2"></rect>
            <path d="M9.368,7.152 L9.952,7.208 C9.776,8.376 9.24,9.312 8.36,10.016 C7.592,10.648 6.216,11.144 4.248,11.512 L4,10.936 C5.808,10.632 7.104,10.192 7.904,9.616 C8.216,9.384 8.48,9.12 8.696,8.832 C7.608,8.984 6.24,9.112 4.576,9.224 L4.4,8.712 C5.216,8.304 6.08,7.68 6.976,6.848 C6.08,6.944 5.184,7.016 4.304,7.056 L4.16,6.544 C5.096,5.824 5.904,4.976 6.592,4 L7.16,4.208 C6.544,5.08 5.824,5.848 5.008,6.512 C5.84,6.472 6.672,6.408 7.504,6.328 C7.88,5.944 8.264,5.52 8.656,5.064 L9.216,5.336 C7.864,6.88 6.656,7.976 5.592,8.632 C6.92,8.536 8.056,8.416 9.016,8.288 C9.176,7.944 9.296,7.568 9.368,7.152 Z M11.304,8.288 L15.344,8.288 L15.344,8.832 L11.304,8.832 L11.304,8.288 Z M16.264,4.8 L17.616,4.8 L17.616,4.064 L18.2,4.064 L18.2,4.8 L21.208,4.8 L21.208,4.064 L21.792,4.064 L21.792,4.8 L23.144,4.8 L23.144,5.344 L21.792,5.344 L21.792,9.008 L23.296,9.008 L23.296,9.544 L16.12,9.544 L16.12,9.008 L17.616,9.008 L17.616,5.344 L16.264,5.344 L16.264,4.8 Z M18.2,9.008 L21.208,9.008 L21.208,8.096 L18.2,8.096 L18.2,9.008 Z M18.2,7.6 L21.208,7.6 L21.208,6.712 L18.2,6.712 L18.2,7.6 Z M18.2,6.216 L21.208,6.216 L21.208,5.344 L18.2,5.344 L18.2,6.216 Z M18.616,9.736 L19.024,10.104 C18.368,10.6 17.56,11.032 16.6,11.408 L16.24,10.944 C17.184,10.592 17.976,10.192 18.616,9.736 Z M20.728,9.76 C21.624,10.08 22.44,10.464 23.176,10.92 L22.856,11.408 C22.072,10.896 21.264,10.488 20.44,10.192 L20.728,9.76 Z M31.048,4.96 L31.048,6.512 L30.464,6.512 L30.464,5.52 L24.864,5.52 L24.864,6.512 L24.28,6.512 L24.28,4.96 L27.456,4.96 C27.352,4.672 27.24,4.4 27.112,4.152 L27.736,4.056 C27.848,4.328 27.96,4.624 28.056,4.96 L31.048,4.96 Z M29.8,7.04 L30.192,7.496 C29.104,8.008 27.752,8.44 26.144,8.784 L26.144,10.208 C26.144,10.496 26.272,10.648 26.544,10.648 L29.4,10.648 C29.688,10.648 29.896,10.592 30.016,10.48 C30.184,10.336 30.296,9.928 30.344,9.256 L30.896,9.432 C30.816,10.272 30.656,10.784 30.432,10.968 C30.24,11.128 29.928,11.208 29.504,11.208 L26.368,11.208 C25.824,11.208 25.56,10.912 25.56,10.328 L25.56,6.232 L26.144,6.232 L26.144,8.216 C27.6,7.896 28.824,7.504 29.8,7.04 Z" id="乡-其它" fill="#000000" fill-rule="nonzero"></path>
            <g id="交叉口分析" transform="translate(5.000000, 22.000000)" fill="#000000" fill-rule="nonzero">
                <path d="M23.6860625,6.48 C21.6797188,6.48 19.9945313,7.85209375 19.5166875,9.70865625 L11.1495938,9.70865625 L7.99740625,6.55678125 C8.39178125,5.90665625 8.61884375,5.14375 8.61884375,4.32778125 C8.61884375,1.9505 6.69146875,0.02284375 4.31440625,0.02284375 C1.93734375,0.02284375 0.0094375,1.9505 0.0094375,4.32778125 C0.0094375,6.705125 1.937375,8.63221875 4.31440625,8.63221875 C5.09496875,8.63221875 5.8270625,8.424375 6.458375,8.0610625 L9.69525,11.2975938 L9.69525,17.3777813 C7.83825,17.855625 6.466625,19.541125 6.466625,21.546625 C6.466625,23.9242188 8.3935,25.8521563 10.771625,25.8521563 C13.1486875,25.8521563 15.0760938,23.9242188 15.0760938,21.546625 C15.0760938,19.5410625 13.7040312,17.855625 11.8475,17.3777812 L11.8475,11.8608125 L19.5165625,11.8608125 C19.99425,13.7175 21.6795,15.0894375 23.6860625,15.0894375 C26.0630625,15.0894375 27.9904375,13.1623125 27.9904375,10.785 C27.9905,8.4076875 26.0630625,6.48 23.6860625,6.48 Z M4.3144375,6.48 C3.1256875,6.48 2.1616875,5.5163125 2.1616875,4.3278125 C2.1616875,3.139 3.12565625,2.17503125 4.3144375,2.17503125 C5.50271875,2.17503125 6.46665625,3.139 6.46665625,4.32778125 C6.46665625,5.5163125 5.50271875,6.48003125 4.3144375,6.48003125 L4.3144375,6.48 Z M12.9238437,21.546625 C12.9238437,22.7357188 11.959875,23.6993438 10.7716562,23.6993438 C9.58284375,23.6993438 8.61884375,22.7356875 8.61884375,21.546625 C8.61884375,20.358375 9.58284375,19.3944063 10.7716562,19.3944063 C11.959875,19.3944063 12.9238437,20.358375 12.9238437,21.546625 Z M23.6860312,12.9372187 C22.4972187,12.9372187 21.5332812,11.9734688 21.5332812,10.7850312 C21.5332812,9.59621875 22.49725,8.63221875 23.6860625,8.63221875 C24.8742812,8.63221875 25.83825,9.59621875 25.83825,10.7850312 C25.83825,11.9735 24.8743125,12.9372187 23.6860625,12.9372187 L23.6860312,12.9372187 Z" id="形状"></path>
            </g>
        </g>
    </g>
</svg>