<?xml version="1.0" encoding="UTF-8"?>
<svg width="32px" height="44px" viewBox="0 0 32 44" version="1.1" xmlns="http://www.w3.org/2000/svg" xmlns:xlink="http://www.w3.org/1999/xlink">
    <!-- Generator: Sketch 53.1 (72631) - https://sketchapp.com -->
    <title>乡-乡交叉口</title>
    <desc>Created with Sketch.</desc>
    <g id="Page-1" stroke="none" stroke-width="1" fill="none" fill-rule="evenodd">
        <g id="乡-乡交叉口">
            <rect id="矩形" stroke="#979797" fill="#FFFFFF" x="0.5" y="0.5" width="31" height="15" rx="2"></rect>
            <path d="M12.368,7.152 L12.952,7.208 C12.776,8.376 12.24,9.312 11.36,10.016 C10.592,10.648 9.216,11.144 7.248,11.512 L7,10.936 C8.808,10.632 10.104,10.192 10.904,9.616 C11.216,9.384 11.48,9.12 11.696,8.832 C10.608,8.984 9.24,9.112 7.576,9.224 L7.4,8.712 C8.216,8.304 9.08,7.68 9.976,6.848 C9.08,6.944 8.184,7.016 7.304,7.056 L7.16,6.544 C8.096,5.824 8.904,4.976 9.592,4 L10.16,4.208 C9.544,5.08 8.824,5.848 8.008,6.512 C8.84,6.472 9.672,6.408 10.504,6.328 C10.88,5.944 11.264,5.52 11.656,5.064 L12.216,5.336 C10.864,6.88 9.656,7.976 8.592,8.632 C9.92,8.536 11.056,8.416 12.016,8.288 C12.176,7.944 12.296,7.568 12.368,7.152 Z M14.304,8.288 L18.344,8.288 L18.344,8.832 L14.304,8.832 L14.304,8.288 Z M25.128,7.152 L25.712,7.208 C25.536,8.376 25,9.312 24.12,10.016 C23.352,10.648 21.976,11.144 20.008,11.512 L19.76,10.936 C21.568,10.632 22.864,10.192 23.664,9.616 C23.976,9.384 24.24,9.12 24.456,8.832 C23.368,8.984 22,9.112 20.336,9.224 L20.16,8.712 C20.976,8.304 21.84,7.68 22.736,6.848 C21.84,6.944 20.944,7.016 20.064,7.056 L19.92,6.544 C20.856,5.824 21.664,4.976 22.352,4 L22.92,4.208 C22.304,5.08 21.584,5.848 20.768,6.512 C21.6,6.472 22.432,6.408 23.264,6.328 C23.64,5.944 24.024,5.52 24.416,5.064 L24.976,5.336 C23.624,6.88 22.416,7.976 21.352,8.632 C22.68,8.536 23.816,8.416 24.776,8.288 C24.936,7.944 25.056,7.568 25.128,7.152 Z" id="乡-乡" fill="#000000" fill-rule="nonzero"></path>
            <g id="路口-(2)" transform="translate(3.000000, 18.000000)" fill="#000000" fill-rule="nonzero">
                <path d="M9.94,0.0071875 C9.3875,0.0071875 8.9396875,0.455 8.9396875,1.0075 L8.9396875,8.36875 C8.9396875,8.679375 8.6878125,8.93125 8.3771875,8.93125 L1.0003125,8.93125 C0.4478125,8.93125 0,9.3790625 0,9.9315625 L0,9.944375 C0,10.496875 0.4478125,10.9446875 1.0003125,10.9446875 L10.3775,10.9446875 C10.688125,10.9446875 10.94,10.6928125 10.94,10.3821875 L10.94,1.0071875 C10.9403125,0.455 10.4925,0.0071875 9.94,0.0071875 Z M24.8809375,8.9309375 L17.50375,8.9309375 C17.193125,8.9309375 16.94125,8.6790625 16.94125,8.3684375 L16.94125,1.0071875 C16.94125,0.4546875 16.4934375,0.006875 15.9409375,0.006875 C15.3884375,0.006875 14.940625,0.4546875 14.940625,1.0071875 L14.940625,10.38125 C14.940625,10.691875 15.1925,10.94375 15.503125,10.94375 L24.8803125,10.94375 C25.4328125,10.94375 25.880625,10.4959375 25.880625,9.9434375 L25.880625,9.930625 C25.8809375,9.37875 25.433125,8.9309375 24.8809375,8.9309375 L24.8809375,8.9309375 Z M10.3778125,14.9390625 L1.0003125,14.9390625 C0.4478125,14.9390625 0,15.386875 0,15.939375 L0,15.9521875 C0,16.5046875 0.4478125,16.9525 1.0003125,16.9525 L8.3771875,16.9525 C8.6878125,16.9525 8.9396875,17.204375 8.9396875,17.515 L8.9396875,24.87625 C8.9396875,25.42875 9.3875,25.8765625 9.94,25.8765625 C10.4925,25.8765625 10.9403125,25.42875 10.9403125,24.87625 L10.9403125,15.5015625 C10.9403125,15.190625 10.6884375,14.9390625 10.3778125,14.9390625 L10.3778125,14.9390625 Z M24.8809375,14.9390625 L15.5034375,14.9390625 C15.1928125,14.9390625 14.9409375,15.1909375 14.9409375,15.5015625 L14.9409375,24.875625 C14.9409375,25.428125 15.38875,25.8759375 15.94125,25.8759375 C16.49375,25.8759375 16.9415625,25.428125 16.9415625,24.875625 L16.9415625,17.514375 C16.9415625,17.20375 17.1934375,16.951875 17.5040625,16.951875 L24.8809375,16.951875 C25.4334375,16.951875 25.88125,16.5040625 25.88125,15.9515625 L25.88125,15.93875 C25.8809375,15.386875 25.433125,14.9390625 24.8809375,14.9390625 L24.8809375,14.9390625 Z" id="形状"></path>
            </g>
        </g>
    </g>
</svg>