<?xml version="1.0" encoding="UTF-8"?>
<svg width="36px" height="47px" viewBox="0 0 36 47" version="1.1" xmlns="http://www.w3.org/2000/svg" xmlns:xlink="http://www.w3.org/1999/xlink">
    <!-- Generator: Sketch 53.1 (72631) - https://sketchapp.com -->
    <title>乡-小路交叉口</title>
    <desc>Created with Sketch.</desc>
    <g id="Page-1" stroke="none" stroke-width="1" fill="none" fill-rule="evenodd">
        <g id="乡-小路交叉口">
            <rect id="矩形" stroke="#979797" fill="#FFFFFF" x="0.5" y="0.5" width="35" height="15" rx="2"></rect>
            <path d="M9.368,7.152 L9.952,7.208 C9.776,8.376 9.24,9.312 8.36,10.016 C7.592,10.648 6.216,11.144 4.248,11.512 L4,10.936 C5.808,10.632 7.104,10.192 7.904,9.616 C8.216,9.384 8.48,9.12 8.696,8.832 C7.608,8.984 6.24,9.112 4.576,9.224 L4.4,8.712 C5.216,8.304 6.08,7.68 6.976,6.848 C6.08,6.944 5.184,7.016 4.304,7.056 L4.16,6.544 C5.096,5.824 5.904,4.976 6.592,4 L7.16,4.208 C6.544,5.08 5.824,5.848 5.008,6.512 C5.84,6.472 6.672,6.408 7.504,6.328 C7.88,5.944 8.264,5.52 8.656,5.064 L9.216,5.336 C7.864,6.88 6.656,7.976 5.592,8.632 C6.92,8.536 8.056,8.416 9.016,8.288 C9.176,7.944 9.296,7.568 9.368,7.152 Z M11.304,8.288 L15.344,8.288 L15.344,8.832 L11.304,8.832 L11.304,8.288 Z M19.32,11.344 L18.096,11.344 L17.96,10.744 C18.36,10.776 18.744,10.792 19.104,10.792 C19.4,10.792 19.552,10.64 19.552,10.344 L19.552,4.216 L20.144,4.216 L20.144,10.496 C20.144,11.056 19.864,11.344 19.32,11.344 Z M17.408,6.072 L17.984,6.296 C17.6,7.896 17.096,9.112 16.472,9.944 L15.976,9.504 C16.616,8.656 17.088,7.512 17.408,6.072 Z M21.952,5.88 C22.584,7.312 23.072,8.56 23.408,9.624 L22.896,9.984 C22.536,8.848 22.048,7.592 21.432,6.208 L21.952,5.88 Z M24.392,4.416 L26.856,4.416 L26.856,6.928 L26.056,6.928 L26.056,8.216 L26.888,8.216 L26.888,8.76 L26.056,8.76 L26.056,10.248 C26.408,10.136 26.752,10.024 27.072,9.904 L27.072,10.48 C26.24,10.792 25.264,11.08 24.152,11.344 L23.992,10.784 L24.416,10.688 L24.416,7.784 L24.928,7.784 L24.928,10.56 C25.128,10.512 25.328,10.456 25.52,10.408 L25.52,6.928 L24.392,6.928 L24.392,4.416 Z M26.304,6.4 L26.304,4.944 L24.952,4.944 L24.952,6.4 L26.304,6.4 Z M30.672,8.44 L30.672,11.408 L30.12,11.408 L30.12,11.056 L28.104,11.056 L28.104,11.408 L27.552,11.408 L27.552,8.44 L30.672,8.44 Z M28.104,10.528 L30.12,10.528 L30.12,8.96 L28.104,8.96 L28.104,10.528 Z M28.368,4.08 L28.92,4.184 C28.856,4.384 28.784,4.576 28.704,4.768 L30.688,4.768 L30.688,5.184 C30.416,5.856 30.016,6.448 29.496,6.96 C30.024,7.392 30.664,7.728 31.408,7.96 L31.08,8.432 C30.288,8.176 29.624,7.808 29.088,7.328 C28.544,7.768 27.904,8.144 27.152,8.464 L26.808,8 C27.544,7.704 28.168,7.352 28.696,6.936 C28.408,6.624 28.168,6.288 27.968,5.92 C27.76,6.16 27.528,6.376 27.272,6.584 L26.928,6.128 C27.632,5.576 28.112,4.896 28.368,4.08 Z M28.296,5.48 C28.512,5.896 28.776,6.272 29.096,6.592 C29.504,6.192 29.832,5.76 30.08,5.28 L28.432,5.28 C28.384,5.344 28.344,5.416 28.296,5.48 Z" id="乡-小路" fill="#000000" fill-rule="nonzero"></path>
            <g id="7交叉口" transform="translate(4.000000, 19.000000)" fill="#666666" fill-rule="nonzero">
                <path d="M27.1870968,14.9145161 L20.7741935,14.9145161 C20.3225806,14.9145161 19.9612903,14.5532258 19.9612903,14.1016129 C19.9612903,13.65 20.3225806,13.2887097 20.7741935,13.2887097 L27.1870968,13.2887097 C27.6387097,13.2887097 28,13.65 28,14.1016129 C28,14.5532258 27.6387097,14.9145161 27.1870968,14.9145161 Z M7.22580645,14.9145161 L0.812903226,14.9145161 C0.361290323,14.9145161 -3.55271368e-15,14.5532258 -3.55271368e-15,14.1016129 C-3.55271368e-15,13.65 0.361290323,13.2887097 0.812903226,13.2887097 L7.22580645,13.2887097 C7.67741935,13.2887097 8.03870968,13.65 8.03870968,14.1016129 C8.03870968,14.5532258 7.67741935,14.9145161 7.22580645,14.9145161 Z M14.8129032,0.824193548 L14.8129032,7.23709677 C14.8129032,7.68870968 14.4516129,8.05 14,8.05 C13.5483871,8.05 13.1870968,7.68870968 13.1870968,7.23709677 L13.1870968,0.824193548 C13.1870968,0.372580645 13.5483871,0.0112903226 14,0.0112903226 C14.4516129,0.0112903226 14.8129032,0.372580645 14.8129032,0.824193548 Z M14.8129032,20.6951613 L14.8129032,27.1080645 C14.8129032,27.5596774 14.4516129,27.9209677 14,27.9209677 C13.5483871,27.9209677 13.1870968,27.5596774 13.1870968,27.1080645 L13.1870968,20.6951613 C13.1870968,20.2435484 13.5483871,19.8822581 14,19.8822581 C14.4516129,19.8822581 14.8129032,20.2435484 14.8129032,20.6951613 Z" id="形状"></path>
            </g>
        </g>
    </g>
</svg>