<?xml version="1.0" encoding="UTF-8"?>
<svg width="32px" height="49px" viewBox="0 0 32 49" version="1.1" xmlns="http://www.w3.org/2000/svg" xmlns:xlink="http://www.w3.org/1999/xlink">
    <!-- Generator: Sketch 53.1 (72631) - https://sketchapp.com -->
    <title>乡-支交叉口</title>
    <desc>Created with Sketch.</desc>
    <g id="Page-1" stroke="none" stroke-width="1" fill="none" fill-rule="evenodd">
        <g id="乡-支交叉口">
            <g id="分组-12">
                <rect id="矩形" stroke="#979797" fill="#FFFFFF" x="0.5" y="0.5" width="31" height="15" rx="2"></rect>
                <path d="M11.368,7.152 L11.952,7.208 C11.776,8.376 11.24,9.312 10.36,10.016 C9.592,10.648 8.216,11.144 6.248,11.512 L6,10.936 C7.808,10.632 9.104,10.192 9.904,9.616 C10.216,9.384 10.48,9.12 10.696,8.832 C9.608,8.984 8.24,9.112 6.576,9.224 L6.4,8.712 C7.216,8.304 8.08,7.68 8.976,6.848 C8.08,6.944 7.184,7.016 6.304,7.056 L6.16,6.544 C7.096,5.824 7.904,4.976 8.592,4 L9.16,4.208 C8.544,5.08 7.824,5.848 7.008,6.512 C7.84,6.472 8.672,6.408 9.504,6.328 C9.88,5.944 10.264,5.52 10.656,5.064 L11.216,5.336 C9.864,6.88 8.656,7.976 7.592,8.632 C8.92,8.536 10.056,8.416 11.016,8.288 C11.176,7.944 11.296,7.568 11.368,7.152 Z M13.304,8.288 L17.344,8.288 L17.344,8.832 L13.304,8.832 L13.304,8.288 Z M21.392,4.096 L21.984,4.096 L21.984,5.144 L25.128,5.144 L25.128,5.704 L21.984,5.704 L21.984,6.928 L24.136,6.928 L24.136,7.44 C23.688,8.336 23.04,9.104 22.192,9.744 C22.592,9.968 23.032,10.184 23.512,10.376 C24.08,10.592 24.688,10.776 25.336,10.936 L25,11.44 C24.312,11.256 23.656,11.032 23.04,10.776 C22.552,10.568 22.104,10.336 21.704,10.08 C20.792,10.656 19.704,11.112 18.432,11.456 L18.104,10.944 C19.32,10.656 20.36,10.256 21.224,9.744 C20.808,9.432 20.44,9.072 20.128,8.672 C19.84,8.304 19.632,7.896 19.504,7.464 L18.888,7.464 L18.888,6.928 L21.392,6.928 L21.392,5.704 L18.28,5.704 L18.28,5.144 L21.392,5.144 L21.392,4.096 Z M21.696,9.432 C22.472,8.888 23.072,8.232 23.488,7.464 L20.072,7.464 C20.216,7.888 20.44,8.264 20.744,8.592 C21.024,8.912 21.344,9.192 21.696,9.432 Z" id="乡-支" fill="#000000" fill-rule="nonzero"></path>
                <g id="通过十字路口能力" transform="translate(2.000000, 21.000000)" fill="#000000" fill-rule="nonzero">
                    <path d="M14,0 C14.3568609,2.18514287e-17 14.6461538,0.289292928 14.6461538,0.64615384 L14.6461538,13.4615385 L27.3538462,13.4615385 C27.7107071,13.4615385 28,13.7508314 28,14.1076923 C28,14.4645532 27.7107071,14.7538462 27.3538462,14.7538462 L14.6461538,14.7538462 L14.6461538,27.3538462 C14.6461538,27.7107071 14.3568609,28 14,28 C13.6431391,28 13.3538462,27.7107071 13.3538462,27.3538462 L13.3538462,14.7538462 L0.64615384,14.7538462 C0.289292921,14.7538462 -1.36718744e-08,14.4645532 -1.36718745e-08,14.1076923 C-1.36718745e-08,13.7508314 0.289292921,13.4615385 0.64615384,13.4615385 L13.3538462,13.4615385 L13.3538462,0.64615384 C13.3538462,0.289292928 13.6431391,6.5554286e-17 14,0 Z" id="形状"></path>
                </g>
            </g>
        </g>
    </g>
</svg>