<?xml version="1.0" encoding="UTF-8"?>
<svg width="28px" height="44px" viewBox="0 0 28 44" version="1.1" xmlns="http://www.w3.org/2000/svg" xmlns:xlink="http://www.w3.org/1999/xlink">
    <!-- Generator: Sketch 53.1 (72631) - https://sketchapp.com -->
    <title>其他</title>
    <desc>Created with Sketch.</desc>
    <g id="Page-1" stroke="none" stroke-width="1" fill="none" fill-rule="evenodd">
        <g id="其他">
            <rect id="矩形" stroke="#979797" fill="#FFFFFF" x="3.5" y="0.5" width="21" height="15" rx="2"></rect>
            <path d="M7.144,4.744 L8.496,4.744 L8.496,4.008 L9.08,4.008 L9.08,4.744 L12.088,4.744 L12.088,4.008 L12.672,4.008 L12.672,4.744 L14.024,4.744 L14.024,5.288 L12.672,5.288 L12.672,8.952 L14.176,8.952 L14.176,9.488 L7,9.488 L7,8.952 L8.496,8.952 L8.496,5.288 L7.144,5.288 L7.144,4.744 Z M9.08,8.952 L12.088,8.952 L12.088,8.04 L9.08,8.04 L9.08,8.952 Z M9.08,7.544 L12.088,7.544 L12.088,6.656 L9.08,6.656 L9.08,7.544 Z M9.08,6.16 L12.088,6.16 L12.088,5.288 L9.08,5.288 L9.08,6.16 Z M9.496,9.68 L9.904,10.048 C9.248,10.544 8.44,10.976 7.48,11.352 L7.12,10.888 C8.064,10.536 8.856,10.136 9.496,9.68 Z M11.608,9.704 C12.504,10.024 13.32,10.408 14.056,10.864 L13.736,11.352 C12.952,10.84 12.144,10.432 11.32,10.136 L11.608,9.704 Z M21.928,4.904 L21.928,6.456 L21.344,6.456 L21.344,5.464 L15.744,5.464 L15.744,6.456 L15.16,6.456 L15.16,4.904 L18.336,4.904 C18.232,4.616 18.12,4.344 17.992,4.096 L18.616,4 C18.728,4.272 18.84,4.568 18.936,4.904 L21.928,4.904 Z M20.68,6.984 L21.072,7.44 C19.984,7.952 18.632,8.384 17.024,8.728 L17.024,10.152 C17.024,10.44 17.152,10.592 17.424,10.592 L20.28,10.592 C20.568,10.592 20.776,10.536 20.896,10.424 C21.064,10.28 21.176,9.872 21.224,9.2 L21.776,9.376 C21.696,10.216 21.536,10.728 21.312,10.912 C21.12,11.072 20.808,11.152 20.384,11.152 L17.248,11.152 C16.704,11.152 16.44,10.856 16.44,10.272 L16.44,6.176 L17.024,6.176 L17.024,8.16 C18.48,7.84 19.704,7.448 20.68,6.984 Z" id="其它" fill="#000000" fill-rule="nonzero"></path>
            <g id="交叉口分析" transform="translate(0.000000, 18.000000)" fill="#000000" fill-rule="nonzero">
                <path d="M23.6860625,6.48 C21.6797188,6.48 19.9945313,7.85209375 19.5166875,9.70865625 L11.1495938,9.70865625 L7.99740625,6.55678125 C8.39178125,5.90665625 8.61884375,5.14375 8.61884375,4.32778125 C8.61884375,1.9505 6.69146875,0.02284375 4.31440625,0.02284375 C1.93734375,0.02284375 0.0094375,1.9505 0.0094375,4.32778125 C0.0094375,6.705125 1.937375,8.63221875 4.31440625,8.63221875 C5.09496875,8.63221875 5.8270625,8.424375 6.458375,8.0610625 L9.69525,11.2975938 L9.69525,17.3777813 C7.83825,17.855625 6.466625,19.541125 6.466625,21.546625 C6.466625,23.9242188 8.3935,25.8521563 10.771625,25.8521563 C13.1486875,25.8521563 15.0760938,23.9242188 15.0760938,21.546625 C15.0760938,19.5410625 13.7040312,17.855625 11.8475,17.3777812 L11.8475,11.8608125 L19.5165625,11.8608125 C19.99425,13.7175 21.6795,15.0894375 23.6860625,15.0894375 C26.0630625,15.0894375 27.9904375,13.1623125 27.9904375,10.785 C27.9905,8.4076875 26.0630625,6.48 23.6860625,6.48 Z M4.3144375,6.48 C3.1256875,6.48 2.1616875,5.5163125 2.1616875,4.3278125 C2.1616875,3.139 3.12565625,2.17503125 4.3144375,2.17503125 C5.50271875,2.17503125 6.46665625,3.139 6.46665625,4.32778125 C6.46665625,5.5163125 5.50271875,6.48003125 4.3144375,6.48003125 L4.3144375,6.48 Z M12.9238437,21.546625 C12.9238437,22.7357188 11.959875,23.6993438 10.7716562,23.6993438 C9.58284375,23.6993438 8.61884375,22.7356875 8.61884375,21.546625 C8.61884375,20.358375 9.58284375,19.3944063 10.7716562,19.3944063 C11.959875,19.3944063 12.9238437,20.358375 12.9238437,21.546625 Z M23.6860312,12.9372187 C22.4972187,12.9372187 21.5332812,11.9734688 21.5332812,10.7850312 C21.5332812,9.59621875 22.49725,8.63221875 23.6860625,8.63221875 C24.8742812,8.63221875 25.83825,9.59621875 25.83825,10.7850312 C25.83825,11.9735 24.8743125,12.9372187 23.6860625,12.9372187 L23.6860312,12.9372187 Z" id="形状"></path>
            </g>
        </g>
    </g>
</svg>