<?xml version="1.0" encoding="UTF-8"?>
<svg width="37px" height="49px" viewBox="0 0 37 49" version="1.1" xmlns="http://www.w3.org/2000/svg" xmlns:xlink="http://www.w3.org/1999/xlink">
    <!-- Generator: Sketch 53.1 (72631) - https://sketchapp.com -->
    <title>其它-支交叉口</title>
    <desc>Created with Sketch.</desc>
    <g id="Page-1" stroke="none" stroke-width="1" fill="none" fill-rule="evenodd">
        <g id="其它-支交叉口">
            <rect id="矩形" stroke="#979797" fill="#FFFFFF" x="0.5" y="0.5" width="36" height="15" rx="2"></rect>
            <path d="M5.144,4.744 L6.496,4.744 L6.496,4.008 L7.08,4.008 L7.08,4.744 L10.088,4.744 L10.088,4.008 L10.672,4.008 L10.672,4.744 L12.024,4.744 L12.024,5.288 L10.672,5.288 L10.672,8.952 L12.176,8.952 L12.176,9.488 L5,9.488 L5,8.952 L6.496,8.952 L6.496,5.288 L5.144,5.288 L5.144,4.744 Z M7.08,8.952 L10.088,8.952 L10.088,8.04 L7.08,8.04 L7.08,8.952 Z M7.08,7.544 L10.088,7.544 L10.088,6.656 L7.08,6.656 L7.08,7.544 Z M7.08,6.16 L10.088,6.16 L10.088,5.288 L7.08,5.288 L7.08,6.16 Z M7.496,9.68 L7.904,10.048 C7.248,10.544 6.44,10.976 5.48,11.352 L5.12,10.888 C6.064,10.536 6.856,10.136 7.496,9.68 Z M9.608,9.704 C10.504,10.024 11.32,10.408 12.056,10.864 L11.736,11.352 C10.952,10.84 10.144,10.432 9.32,10.136 L9.608,9.704 Z M19.928,4.904 L19.928,6.456 L19.344,6.456 L19.344,5.464 L13.744,5.464 L13.744,6.456 L13.16,6.456 L13.16,4.904 L16.336,4.904 C16.232,4.616 16.12,4.344 15.992,4.096 L16.616,4 C16.728,4.272 16.84,4.568 16.936,4.904 L19.928,4.904 Z M18.68,6.984 L19.072,7.44 C17.984,7.952 16.632,8.384 15.024,8.728 L15.024,10.152 C15.024,10.44 15.152,10.592 15.424,10.592 L18.28,10.592 C18.568,10.592 18.776,10.536 18.896,10.424 C19.064,10.28 19.176,9.872 19.224,9.2 L19.776,9.376 C19.696,10.216 19.536,10.728 19.312,10.912 C19.12,11.072 18.808,11.152 18.384,11.152 L15.248,11.152 C14.704,11.152 14.44,10.856 14.44,10.272 L14.44,6.176 L15.024,6.176 L15.024,8.16 C16.48,7.84 17.704,7.448 18.68,6.984 Z M20.904,8.232 L24.944,8.232 L24.944,8.776 L20.904,8.776 L20.904,8.232 Z M28.992,4.04 L29.584,4.04 L29.584,5.088 L32.728,5.088 L32.728,5.648 L29.584,5.648 L29.584,6.872 L31.736,6.872 L31.736,7.384 C31.288,8.28 30.64,9.048 29.792,9.688 C30.192,9.912 30.632,10.128 31.112,10.32 C31.68,10.536 32.288,10.72 32.936,10.88 L32.6,11.384 C31.912,11.2 31.256,10.976 30.64,10.72 C30.152,10.512 29.704,10.28 29.304,10.024 C28.392,10.6 27.304,11.056 26.032,11.4 L25.704,10.888 C26.92,10.6 27.96,10.2 28.824,9.688 C28.408,9.376 28.04,9.016 27.728,8.616 C27.44,8.248 27.232,7.84 27.104,7.408 L26.488,7.408 L26.488,6.872 L28.992,6.872 L28.992,5.648 L25.88,5.648 L25.88,5.088 L28.992,5.088 L28.992,4.04 Z M29.296,9.376 C30.072,8.832 30.672,8.176 31.088,7.408 L27.672,7.408 C27.816,7.832 28.04,8.208 28.344,8.536 C28.624,8.856 28.944,9.136 29.296,9.376 Z" id="其它-支" fill="#000000" fill-rule="nonzero"></path>
            <g id="通过十字路口能力" transform="translate(5.000000, 21.000000)" fill="#000000" fill-rule="nonzero">
                <path d="M14,0 C14.3568609,2.18514287e-17 14.6461538,0.289292928 14.6461538,0.64615384 L14.6461538,13.4615385 L27.3538462,13.4615385 C27.7107071,13.4615385 28,13.7508314 28,14.1076923 C28,14.4645532 27.7107071,14.7538462 27.3538462,14.7538462 L14.6461538,14.7538462 L14.6461538,27.3538462 C14.6461538,27.7107071 14.3568609,28 14,28 C13.6431391,28 13.3538462,27.7107071 13.3538462,27.3538462 L13.3538462,14.7538462 L0.64615384,14.7538462 C0.289292921,14.7538462 -1.36718744e-08,14.4645532 -1.36718745e-08,14.1076923 C-1.36718745e-08,13.7508314 0.289292921,13.4615385 0.64615384,13.4615385 L13.3538462,13.4615385 L13.3538462,0.64615384 C13.3538462,0.289292928 13.6431391,6.5554286e-17 14,0 Z" id="形状"></path>
            </g>
        </g>
    </g>
</svg>