<?xml version="1.0" encoding="UTF-8"?>
<svg width="42px" height="47px" viewBox="0 0 42 47" version="1.1" xmlns="http://www.w3.org/2000/svg" xmlns:xlink="http://www.w3.org/1999/xlink">
    <!-- Generator: Sketch 53.1 (72631) - https://sketchapp.com -->
    <title>其它-小路交叉口</title>
    <desc>Created with Sketch.</desc>
    <g id="Page-1" stroke="none" stroke-width="1" fill="none" fill-rule="evenodd">
        <g id="其它-小路交叉口">
            <rect id="矩形" stroke="#979797" fill="#FFFFFF" x="0.5" y="0.5" width="41" height="15" rx="2"></rect>
            <path d="M3.144,4.744 L4.496,4.744 L4.496,4.008 L5.08,4.008 L5.08,4.744 L8.088,4.744 L8.088,4.008 L8.672,4.008 L8.672,4.744 L10.024,4.744 L10.024,5.288 L8.672,5.288 L8.672,8.952 L10.176,8.952 L10.176,9.488 L3,9.488 L3,8.952 L4.496,8.952 L4.496,5.288 L3.144,5.288 L3.144,4.744 Z M5.08,8.952 L8.088,8.952 L8.088,8.04 L5.08,8.04 L5.08,8.952 Z M5.08,7.544 L8.088,7.544 L8.088,6.656 L5.08,6.656 L5.08,7.544 Z M5.08,6.16 L8.088,6.16 L8.088,5.288 L5.08,5.288 L5.08,6.16 Z M5.496,9.68 L5.904,10.048 C5.248,10.544 4.44,10.976 3.48,11.352 L3.12,10.888 C4.064,10.536 4.856,10.136 5.496,9.68 Z M7.608,9.704 C8.504,10.024 9.32,10.408 10.056,10.864 L9.736,11.352 C8.952,10.84 8.144,10.432 7.32,10.136 L7.608,9.704 Z M17.928,4.904 L17.928,6.456 L17.344,6.456 L17.344,5.464 L11.744,5.464 L11.744,6.456 L11.16,6.456 L11.16,4.904 L14.336,4.904 C14.232,4.616 14.12,4.344 13.992,4.096 L14.616,4 C14.728,4.272 14.84,4.568 14.936,4.904 L17.928,4.904 Z M16.68,6.984 L17.072,7.44 C15.984,7.952 14.632,8.384 13.024,8.728 L13.024,10.152 C13.024,10.44 13.152,10.592 13.424,10.592 L16.28,10.592 C16.568,10.592 16.776,10.536 16.896,10.424 C17.064,10.28 17.176,9.872 17.224,9.2 L17.776,9.376 C17.696,10.216 17.536,10.728 17.312,10.912 C17.12,11.072 16.808,11.152 16.384,11.152 L13.248,11.152 C12.704,11.152 12.44,10.856 12.44,10.272 L12.44,6.176 L13.024,6.176 L13.024,8.16 C14.48,7.84 15.704,7.448 16.68,6.984 Z M18.904,8.232 L22.944,8.232 L22.944,8.776 L18.904,8.776 L18.904,8.232 Z M26.92,11.288 L25.696,11.288 L25.56,10.688 C25.96,10.72 26.344,10.736 26.704,10.736 C27,10.736 27.152,10.584 27.152,10.288 L27.152,4.16 L27.744,4.16 L27.744,10.44 C27.744,11 27.464,11.288 26.92,11.288 Z M25.008,6.016 L25.584,6.24 C25.2,7.84 24.696,9.056 24.072,9.888 L23.576,9.448 C24.216,8.6 24.688,7.456 25.008,6.016 Z M29.552,5.824 C30.184,7.256 30.672,8.504 31.008,9.568 L30.496,9.928 C30.136,8.792 29.648,7.536 29.032,6.152 L29.552,5.824 Z M31.992,4.36 L34.456,4.36 L34.456,6.872 L33.656,6.872 L33.656,8.16 L34.488,8.16 L34.488,8.704 L33.656,8.704 L33.656,10.192 C34.008,10.08 34.352,9.968 34.672,9.848 L34.672,10.424 C33.84,10.736 32.864,11.024 31.752,11.288 L31.592,10.728 L32.016,10.632 L32.016,7.728 L32.528,7.728 L32.528,10.504 C32.728,10.456 32.928,10.4 33.12,10.352 L33.12,6.872 L31.992,6.872 L31.992,4.36 Z M33.904,6.344 L33.904,4.888 L32.552,4.888 L32.552,6.344 L33.904,6.344 Z M38.272,8.384 L38.272,11.352 L37.72,11.352 L37.72,11 L35.704,11 L35.704,11.352 L35.152,11.352 L35.152,8.384 L38.272,8.384 Z M35.704,10.472 L37.72,10.472 L37.72,8.904 L35.704,8.904 L35.704,10.472 Z M35.968,4.024 L36.52,4.128 C36.456,4.328 36.384,4.52 36.304,4.712 L38.288,4.712 L38.288,5.128 C38.016,5.8 37.616,6.392 37.096,6.904 C37.624,7.336 38.264,7.672 39.008,7.904 L38.68,8.376 C37.888,8.12 37.224,7.752 36.688,7.272 C36.144,7.712 35.504,8.088 34.752,8.408 L34.408,7.944 C35.144,7.648 35.768,7.296 36.296,6.88 C36.008,6.568 35.768,6.232 35.568,5.864 C35.36,6.104 35.128,6.32 34.872,6.528 L34.528,6.072 C35.232,5.52 35.712,4.84 35.968,4.024 Z M35.896,5.424 C36.112,5.84 36.376,6.216 36.696,6.536 C37.104,6.136 37.432,5.704 37.68,5.224 L36.032,5.224 C35.984,5.288 35.944,5.36 35.896,5.424 Z" id="其它-小路" fill="#000000" fill-rule="nonzero"></path>
            <g id="7交叉口" transform="translate(7.000000, 19.000000)" fill="#666666" fill-rule="nonzero">
                <path d="M27.1870968,14.9145161 L20.7741935,14.9145161 C20.3225806,14.9145161 19.9612903,14.5532258 19.9612903,14.1016129 C19.9612903,13.65 20.3225806,13.2887097 20.7741935,13.2887097 L27.1870968,13.2887097 C27.6387097,13.2887097 28,13.65 28,14.1016129 C28,14.5532258 27.6387097,14.9145161 27.1870968,14.9145161 Z M7.22580645,14.9145161 L0.812903226,14.9145161 C0.361290323,14.9145161 -3.55271368e-15,14.5532258 -3.55271368e-15,14.1016129 C-3.55271368e-15,13.65 0.361290323,13.2887097 0.812903226,13.2887097 L7.22580645,13.2887097 C7.67741935,13.2887097 8.03870968,13.65 8.03870968,14.1016129 C8.03870968,14.5532258 7.67741935,14.9145161 7.22580645,14.9145161 Z M14.8129032,0.824193548 L14.8129032,7.23709677 C14.8129032,7.68870968 14.4516129,8.05 14,8.05 C13.5483871,8.05 13.1870968,7.68870968 13.1870968,7.23709677 L13.1870968,0.824193548 C13.1870968,0.372580645 13.5483871,0.0112903226 14,0.0112903226 C14.4516129,0.0112903226 14.8129032,0.372580645 14.8129032,0.824193548 Z M14.8129032,20.6951613 L14.8129032,27.1080645 C14.8129032,27.5596774 14.4516129,27.9209677 14,27.9209677 C13.5483871,27.9209677 13.1870968,27.5596774 13.1870968,27.1080645 L13.1870968,20.6951613 C13.1870968,20.2435484 13.5483871,19.8822581 14,19.8822581 C14.4516129,19.8822581 14.8129032,20.2435484 14.8129032,20.6951613 Z" id="形状"></path>
            </g>
        </g>
    </g>
</svg>