<?xml version="1.0" encoding="UTF-8"?>
<svg width="42px" height="48px" viewBox="0 0 42 48" version="1.1" xmlns="http://www.w3.org/2000/svg" xmlns:xlink="http://www.w3.org/1999/xlink">
    <!-- Generator: Sketch 53.1 (72631) - https://sketchapp.com -->
    <title>其它-其它交叉口</title>
    <desc>Created with Sketch.</desc>
    <g id="Page-1" stroke="none" stroke-width="1" fill="none" fill-rule="evenodd">
        <g id="其它-其它交叉口">
            <rect id="矩形" stroke="#979797" fill="#FFFFFF" x="0.5" y="0.5" width="41" height="15" rx="2"></rect>
            <path d="M3.144,4.744 L4.496,4.744 L4.496,4.008 L5.08,4.008 L5.08,4.744 L8.088,4.744 L8.088,4.008 L8.672,4.008 L8.672,4.744 L10.024,4.744 L10.024,5.288 L8.672,5.288 L8.672,8.952 L10.176,8.952 L10.176,9.488 L3,9.488 L3,8.952 L4.496,8.952 L4.496,5.288 L3.144,5.288 L3.144,4.744 Z M5.08,8.952 L8.088,8.952 L8.088,8.04 L5.08,8.04 L5.08,8.952 Z M5.08,7.544 L8.088,7.544 L8.088,6.656 L5.08,6.656 L5.08,7.544 Z M5.08,6.16 L8.088,6.16 L8.088,5.288 L5.08,5.288 L5.08,6.16 Z M5.496,9.68 L5.904,10.048 C5.248,10.544 4.44,10.976 3.48,11.352 L3.12,10.888 C4.064,10.536 4.856,10.136 5.496,9.68 Z M7.608,9.704 C8.504,10.024 9.32,10.408 10.056,10.864 L9.736,11.352 C8.952,10.84 8.144,10.432 7.32,10.136 L7.608,9.704 Z M17.928,4.904 L17.928,6.456 L17.344,6.456 L17.344,5.464 L11.744,5.464 L11.744,6.456 L11.16,6.456 L11.16,4.904 L14.336,4.904 C14.232,4.616 14.12,4.344 13.992,4.096 L14.616,4 C14.728,4.272 14.84,4.568 14.936,4.904 L17.928,4.904 Z M16.68,6.984 L17.072,7.44 C15.984,7.952 14.632,8.384 13.024,8.728 L13.024,10.152 C13.024,10.44 13.152,10.592 13.424,10.592 L16.28,10.592 C16.568,10.592 16.776,10.536 16.896,10.424 C17.064,10.28 17.176,9.872 17.224,9.2 L17.776,9.376 C17.696,10.216 17.536,10.728 17.312,10.912 C17.12,11.072 16.808,11.152 16.384,11.152 L13.248,11.152 C12.704,11.152 12.44,10.856 12.44,10.272 L12.44,6.176 L13.024,6.176 L13.024,8.16 C14.48,7.84 15.704,7.448 16.68,6.984 Z M18.904,8.232 L22.944,8.232 L22.944,8.776 L18.904,8.776 L18.904,8.232 Z M23.864,4.744 L25.216,4.744 L25.216,4.008 L25.8,4.008 L25.8,4.744 L28.808,4.744 L28.808,4.008 L29.392,4.008 L29.392,4.744 L30.744,4.744 L30.744,5.288 L29.392,5.288 L29.392,8.952 L30.896,8.952 L30.896,9.488 L23.72,9.488 L23.72,8.952 L25.216,8.952 L25.216,5.288 L23.864,5.288 L23.864,4.744 Z M25.8,8.952 L28.808,8.952 L28.808,8.04 L25.8,8.04 L25.8,8.952 Z M25.8,7.544 L28.808,7.544 L28.808,6.656 L25.8,6.656 L25.8,7.544 Z M25.8,6.16 L28.808,6.16 L28.808,5.288 L25.8,5.288 L25.8,6.16 Z M26.216,9.68 L26.624,10.048 C25.968,10.544 25.16,10.976 24.2,11.352 L23.84,10.888 C24.784,10.536 25.576,10.136 26.216,9.68 Z M28.328,9.704 C29.224,10.024 30.04,10.408 30.776,10.864 L30.456,11.352 C29.672,10.84 28.864,10.432 28.04,10.136 L28.328,9.704 Z M38.648,4.904 L38.648,6.456 L38.064,6.456 L38.064,5.464 L32.464,5.464 L32.464,6.456 L31.88,6.456 L31.88,4.904 L35.056,4.904 C34.952,4.616 34.84,4.344 34.712,4.096 L35.336,4 C35.448,4.272 35.56,4.568 35.656,4.904 L38.648,4.904 Z M37.4,6.984 L37.792,7.44 C36.704,7.952 35.352,8.384 33.744,8.728 L33.744,10.152 C33.744,10.44 33.872,10.592 34.144,10.592 L37,10.592 C37.288,10.592 37.496,10.536 37.616,10.424 C37.784,10.28 37.896,9.872 37.944,9.2 L38.496,9.376 C38.416,10.216 38.256,10.728 38.032,10.912 C37.84,11.072 37.528,11.152 37.104,11.152 L33.968,11.152 C33.424,11.152 33.16,10.856 33.16,10.272 L33.16,6.176 L33.744,6.176 L33.744,8.16 C35.2,7.84 36.424,7.448 37.4,6.984 Z" id="其它-其它" fill="#000000" fill-rule="nonzero"></path>
            <g id="交叉口分析" transform="translate(7.000000, 22.000000)" fill="#000000" fill-rule="nonzero">
                <path d="M23.6860625,6.48 C21.6797188,6.48 19.9945313,7.85209375 19.5166875,9.70865625 L11.1495938,9.70865625 L7.99740625,6.55678125 C8.39178125,5.90665625 8.61884375,5.14375 8.61884375,4.32778125 C8.61884375,1.9505 6.69146875,0.02284375 4.31440625,0.02284375 C1.93734375,0.02284375 0.0094375,1.9505 0.0094375,4.32778125 C0.0094375,6.705125 1.937375,8.63221875 4.31440625,8.63221875 C5.09496875,8.63221875 5.8270625,8.424375 6.458375,8.0610625 L9.69525,11.2975938 L9.69525,17.3777813 C7.83825,17.855625 6.466625,19.541125 6.466625,21.546625 C6.466625,23.9242188 8.3935,25.8521563 10.771625,25.8521563 C13.1486875,25.8521563 15.0760938,23.9242188 15.0760938,21.546625 C15.0760938,19.5410625 13.7040312,17.855625 11.8475,17.3777812 L11.8475,11.8608125 L19.5165625,11.8608125 C19.99425,13.7175 21.6795,15.0894375 23.6860625,15.0894375 C26.0630625,15.0894375 27.9904375,13.1623125 27.9904375,10.785 C27.9905,8.4076875 26.0630625,6.48 23.6860625,6.48 Z M4.3144375,6.48 C3.1256875,6.48 2.1616875,5.5163125 2.1616875,4.3278125 C2.1616875,3.139 3.12565625,2.17503125 4.3144375,2.17503125 C5.50271875,2.17503125 6.46665625,3.139 6.46665625,4.32778125 C6.46665625,5.5163125 5.50271875,6.48003125 4.3144375,6.48003125 L4.3144375,6.48 Z M12.9238437,21.546625 C12.9238437,22.7357188 11.959875,23.6993438 10.7716562,23.6993438 C9.58284375,23.6993438 8.61884375,22.7356875 8.61884375,21.546625 C8.61884375,20.358375 9.58284375,19.3944063 10.7716562,19.3944063 C11.959875,19.3944063 12.9238437,20.358375 12.9238437,21.546625 Z M23.6860312,12.9372187 C22.4972187,12.9372187 21.5332812,11.9734688 21.5332812,10.7850312 C21.5332812,9.59621875 22.49725,8.63221875 23.6860625,8.63221875 C24.8742812,8.63221875 25.83825,9.59621875 25.83825,10.7850312 C25.83825,11.9735 24.8743125,12.9372187 23.6860625,12.9372187 L23.6860312,12.9372187 Z" id="形状"></path>
            </g>
        </g>
    </g>
</svg>