<?xml version="1.0" encoding="UTF-8"?>
<svg width="36px" height="48px" viewBox="0 0 36 48" version="1.1" xmlns="http://www.w3.org/2000/svg" xmlns:xlink="http://www.w3.org/1999/xlink">
    <!-- Generator: Sketch 53.1 (72631) - https://sketchapp.com -->
    <title>县-其它交叉口</title>
    <desc>Created with Sketch.</desc>
    <g id="Page-1" stroke="none" stroke-width="1" fill="none" fill-rule="evenodd">
        <g id="县-其它交叉口">
            <rect id="矩形" stroke="#979797" fill="#FFFFFF" x="0.5" y="0.5" width="35" height="15" rx="2"></rect>
            <path d="M4,8.584 L5.536,8.584 L5.536,4.352 L9.992,4.352 L9.992,8.584 L11.272,8.584 L11.272,9.136 L6.96,9.136 C6.616,9.728 6.208,10.24 5.744,10.688 C7.048,10.616 8.288,10.496 9.472,10.336 C9.248,10.08 9.008,9.816 8.752,9.544 L9.2,9.264 C9.896,9.952 10.432,10.56 10.8,11.08 L10.312,11.424 C10.168,11.216 10.016,11 9.84,10.776 C8.576,10.968 6.968,11.12 5.024,11.232 L4.856,10.72 C5,10.688 5.096,10.64 5.16,10.576 C5.624,10.112 6.016,9.632 6.32,9.136 L4,9.136 L4,8.584 Z M9.416,8.584 L9.416,7.696 L6.104,7.696 L6.104,8.584 L9.416,8.584 Z M6.104,7.168 L9.416,7.168 L9.416,6.312 L6.104,6.312 L6.104,7.168 Z M6.104,5.784 L9.416,5.784 L9.416,4.888 L6.104,4.888 L6.104,5.784 Z M12.008,8.232 L16.048,8.232 L16.048,8.776 L12.008,8.776 L12.008,8.232 Z M16.968,4.744 L18.32,4.744 L18.32,4.008 L18.904,4.008 L18.904,4.744 L21.912,4.744 L21.912,4.008 L22.496,4.008 L22.496,4.744 L23.848,4.744 L23.848,5.288 L22.496,5.288 L22.496,8.952 L24,8.952 L24,9.488 L16.824,9.488 L16.824,8.952 L18.32,8.952 L18.32,5.288 L16.968,5.288 L16.968,4.744 Z M18.904,8.952 L21.912,8.952 L21.912,8.04 L18.904,8.04 L18.904,8.952 Z M18.904,7.544 L21.912,7.544 L21.912,6.656 L18.904,6.656 L18.904,7.544 Z M18.904,6.16 L21.912,6.16 L21.912,5.288 L18.904,5.288 L18.904,6.16 Z M19.32,9.68 L19.728,10.048 C19.072,10.544 18.264,10.976 17.304,11.352 L16.944,10.888 C17.888,10.536 18.68,10.136 19.32,9.68 Z M21.432,9.704 C22.328,10.024 23.144,10.408 23.88,10.864 L23.56,11.352 C22.776,10.84 21.968,10.432 21.144,10.136 L21.432,9.704 Z M31.752,4.904 L31.752,6.456 L31.168,6.456 L31.168,5.464 L25.568,5.464 L25.568,6.456 L24.984,6.456 L24.984,4.904 L28.16,4.904 C28.056,4.616 27.944,4.344 27.816,4.096 L28.44,4 C28.552,4.272 28.664,4.568 28.76,4.904 L31.752,4.904 Z M30.504,6.984 L30.896,7.44 C29.808,7.952 28.456,8.384 26.848,8.728 L26.848,10.152 C26.848,10.44 26.976,10.592 27.248,10.592 L30.104,10.592 C30.392,10.592 30.6,10.536 30.72,10.424 C30.888,10.28 31,9.872 31.048,9.2 L31.6,9.376 C31.52,10.216 31.36,10.728 31.136,10.912 C30.944,11.072 30.632,11.152 30.208,11.152 L27.072,11.152 C26.528,11.152 26.264,10.856 26.264,10.272 L26.264,6.176 L26.848,6.176 L26.848,8.16 C28.304,7.84 29.528,7.448 30.504,6.984 Z" id="县-其它" fill="#000000" fill-rule="nonzero"></path>
            <g id="交叉口分析" transform="translate(5.000000, 22.000000)" fill="#000000" fill-rule="nonzero">
                <path d="M23.6860625,6.48 C21.6797188,6.48 19.9945313,7.85209375 19.5166875,9.70865625 L11.1495938,9.70865625 L7.99740625,6.55678125 C8.39178125,5.90665625 8.61884375,5.14375 8.61884375,4.32778125 C8.61884375,1.9505 6.69146875,0.02284375 4.31440625,0.02284375 C1.93734375,0.02284375 0.0094375,1.9505 0.0094375,4.32778125 C0.0094375,6.705125 1.937375,8.63221875 4.31440625,8.63221875 C5.09496875,8.63221875 5.8270625,8.424375 6.458375,8.0610625 L9.69525,11.2975938 L9.69525,17.3777813 C7.83825,17.855625 6.466625,19.541125 6.466625,21.546625 C6.466625,23.9242188 8.3935,25.8521563 10.771625,25.8521563 C13.1486875,25.8521563 15.0760938,23.9242188 15.0760938,21.546625 C15.0760938,19.5410625 13.7040312,17.855625 11.8475,17.3777812 L11.8475,11.8608125 L19.5165625,11.8608125 C19.99425,13.7175 21.6795,15.0894375 23.6860625,15.0894375 C26.0630625,15.0894375 27.9904375,13.1623125 27.9904375,10.785 C27.9905,8.4076875 26.0630625,6.48 23.6860625,6.48 Z M4.3144375,6.48 C3.1256875,6.48 2.1616875,5.5163125 2.1616875,4.3278125 C2.1616875,3.139 3.12565625,2.17503125 4.3144375,2.17503125 C5.50271875,2.17503125 6.46665625,3.139 6.46665625,4.32778125 C6.46665625,5.5163125 5.50271875,6.48003125 4.3144375,6.48003125 L4.3144375,6.48 Z M12.9238437,21.546625 C12.9238437,22.7357188 11.959875,23.6993438 10.7716562,23.6993438 C9.58284375,23.6993438 8.61884375,22.7356875 8.61884375,21.546625 C8.61884375,20.358375 9.58284375,19.3944063 10.7716562,19.3944063 C11.959875,19.3944063 12.9238437,20.358375 12.9238437,21.546625 Z M23.6860312,12.9372187 C22.4972187,12.9372187 21.5332812,11.9734688 21.5332812,10.7850312 C21.5332812,9.59621875 22.49725,8.63221875 23.6860625,8.63221875 C24.8742812,8.63221875 25.83825,9.59621875 25.83825,10.7850312 C25.83825,11.9735 24.8743125,12.9372187 23.6860625,12.9372187 L23.6860312,12.9372187 Z" id="形状"></path>
            </g>
        </g>
    </g>
</svg>