<?xml version="1.0" encoding="UTF-8"?>
<svg width="36px" height="47px" viewBox="0 0 36 47" version="1.1" xmlns="http://www.w3.org/2000/svg" xmlns:xlink="http://www.w3.org/1999/xlink">
    <!-- Generator: Sketch 53.1 (72631) - https://sketchapp.com -->
    <title>县-小路交叉口</title>
    <desc>Created with Sketch.</desc>
    <g id="Page-1" stroke="none" stroke-width="1" fill="none" fill-rule="evenodd">
        <g id="县-小路交叉口">
            <rect id="矩形" stroke="#979797" fill="#FFFFFF" x="0.5" y="0.5" width="35" height="15" rx="2"></rect>
            <path d="M4,8.56 L5.536,8.56 L5.536,4.328 L9.992,4.328 L9.992,8.56 L11.272,8.56 L11.272,9.112 L6.96,9.112 C6.616,9.704 6.208,10.216 5.744,10.664 C7.048,10.592 8.288,10.472 9.472,10.312 C9.248,10.056 9.008,9.792 8.752,9.52 L9.2,9.24 C9.896,9.928 10.432,10.536 10.8,11.056 L10.312,11.4 C10.168,11.192 10.016,10.976 9.84,10.752 C8.576,10.944 6.968,11.096 5.024,11.208 L4.856,10.696 C5,10.664 5.096,10.616 5.16,10.552 C5.624,10.088 6.016,9.608 6.32,9.112 L4,9.112 L4,8.56 Z M9.416,8.56 L9.416,7.672 L6.104,7.672 L6.104,8.56 L9.416,8.56 Z M6.104,7.144 L9.416,7.144 L9.416,6.288 L6.104,6.288 L6.104,7.144 Z M6.104,5.76 L9.416,5.76 L9.416,4.864 L6.104,4.864 L6.104,5.76 Z M12.008,8.208 L16.048,8.208 L16.048,8.752 L12.008,8.752 L12.008,8.208 Z M20.024,11.264 L18.8,11.264 L18.664,10.664 C19.064,10.696 19.448,10.712 19.808,10.712 C20.104,10.712 20.256,10.56 20.256,10.264 L20.256,4.136 L20.848,4.136 L20.848,10.416 C20.848,10.976 20.568,11.264 20.024,11.264 Z M18.112,5.992 L18.688,6.216 C18.304,7.816 17.8,9.032 17.176,9.864 L16.68,9.424 C17.32,8.576 17.792,7.432 18.112,5.992 Z M22.656,5.8 C23.288,7.232 23.776,8.48 24.112,9.544 L23.6,9.904 C23.24,8.768 22.752,7.512 22.136,6.128 L22.656,5.8 Z M25.096,4.336 L27.56,4.336 L27.56,6.848 L26.76,6.848 L26.76,8.136 L27.592,8.136 L27.592,8.68 L26.76,8.68 L26.76,10.168 C27.112,10.056 27.456,9.944 27.776,9.824 L27.776,10.4 C26.944,10.712 25.968,11 24.856,11.264 L24.696,10.704 L25.12,10.608 L25.12,7.704 L25.632,7.704 L25.632,10.48 C25.832,10.432 26.032,10.376 26.224,10.328 L26.224,6.848 L25.096,6.848 L25.096,4.336 Z M27.008,6.32 L27.008,4.864 L25.656,4.864 L25.656,6.32 L27.008,6.32 Z M31.376,8.36 L31.376,11.328 L30.824,11.328 L30.824,10.976 L28.808,10.976 L28.808,11.328 L28.256,11.328 L28.256,8.36 L31.376,8.36 Z M28.808,10.448 L30.824,10.448 L30.824,8.88 L28.808,8.88 L28.808,10.448 Z M29.072,4 L29.624,4.104 C29.56,4.304 29.488,4.496 29.408,4.688 L31.392,4.688 L31.392,5.104 C31.12,5.776 30.72,6.368 30.2,6.88 C30.728,7.312 31.368,7.648 32.112,7.88 L31.784,8.352 C30.992,8.096 30.328,7.728 29.792,7.248 C29.248,7.688 28.608,8.064 27.856,8.384 L27.512,7.92 C28.248,7.624 28.872,7.272 29.4,6.856 C29.112,6.544 28.872,6.208 28.672,5.84 C28.464,6.08 28.232,6.296 27.976,6.504 L27.632,6.048 C28.336,5.496 28.816,4.816 29.072,4 Z M29,5.4 C29.216,5.816 29.48,6.192 29.8,6.512 C30.208,6.112 30.536,5.68 30.784,5.2 L29.136,5.2 C29.088,5.264 29.048,5.336 29,5.4 Z" id="县-小路" fill="#000000" fill-rule="nonzero"></path>
            <g id="7交叉口" transform="translate(4.000000, 19.000000)" fill="#666666" fill-rule="nonzero">
                <path d="M27.1870968,14.9145161 L20.7741935,14.9145161 C20.3225806,14.9145161 19.9612903,14.5532258 19.9612903,14.1016129 C19.9612903,13.65 20.3225806,13.2887097 20.7741935,13.2887097 L27.1870968,13.2887097 C27.6387097,13.2887097 28,13.65 28,14.1016129 C28,14.5532258 27.6387097,14.9145161 27.1870968,14.9145161 Z M7.22580645,14.9145161 L0.812903226,14.9145161 C0.361290323,14.9145161 -3.55271368e-15,14.5532258 -3.55271368e-15,14.1016129 C-3.55271368e-15,13.65 0.361290323,13.2887097 0.812903226,13.2887097 L7.22580645,13.2887097 C7.67741935,13.2887097 8.03870968,13.65 8.03870968,14.1016129 C8.03870968,14.5532258 7.67741935,14.9145161 7.22580645,14.9145161 Z M14.8129032,0.824193548 L14.8129032,7.23709677 C14.8129032,7.68870968 14.4516129,8.05 14,8.05 C13.5483871,8.05 13.1870968,7.68870968 13.1870968,7.23709677 L13.1870968,0.824193548 C13.1870968,0.372580645 13.5483871,0.0112903226 14,0.0112903226 C14.4516129,0.0112903226 14.8129032,0.372580645 14.8129032,0.824193548 Z M14.8129032,20.6951613 L14.8129032,27.1080645 C14.8129032,27.5596774 14.4516129,27.9209677 14,27.9209677 C13.5483871,27.9209677 13.1870968,27.5596774 13.1870968,27.1080645 L13.1870968,20.6951613 C13.1870968,20.2435484 13.5483871,19.8822581 14,19.8822581 C14.4516129,19.8822581 14.8129032,20.2435484 14.8129032,20.6951613 Z" id="形状"></path>
            </g>
        </g>
    </g>
</svg>