<?xml version="1.0" encoding="UTF-8"?>
<svg width="32px" height="49px" viewBox="0 0 32 49" version="1.1" xmlns="http://www.w3.org/2000/svg" xmlns:xlink="http://www.w3.org/1999/xlink">
    <!-- Generator: Sketch 53.1 (72631) - https://sketchapp.com -->
    <title>县-支交叉口</title>
    <desc>Created with Sketch.</desc>
    <g id="Page-1" stroke="none" stroke-width="1" fill="none" fill-rule="evenodd">
        <g id="县-支交叉口">
            <rect id="矩形" stroke="#979797" fill="#FFFFFF" x="0.5" y="0.5" width="31" height="15" rx="2"></rect>
            <path d="M6,8.544 L7.536,8.544 L7.536,4.312 L11.992,4.312 L11.992,8.544 L13.272,8.544 L13.272,9.096 L8.96,9.096 C8.616,9.688 8.208,10.2 7.744,10.648 C9.048,10.576 10.288,10.456 11.472,10.296 C11.248,10.04 11.008,9.776 10.752,9.504 L11.2,9.224 C11.896,9.912 12.432,10.52 12.8,11.04 L12.312,11.384 C12.168,11.176 12.016,10.96 11.84,10.736 C10.576,10.928 8.968,11.08 7.024,11.192 L6.856,10.68 C7,10.648 7.096,10.6 7.16,10.536 C7.624,10.072 8.016,9.592 8.32,9.096 L6,9.096 L6,8.544 Z M11.416,8.544 L11.416,7.656 L8.104,7.656 L8.104,8.544 L11.416,8.544 Z M8.104,7.128 L11.416,7.128 L11.416,6.272 L8.104,6.272 L8.104,7.128 Z M8.104,5.744 L11.416,5.744 L11.416,4.848 L8.104,4.848 L8.104,5.744 Z M14.008,8.192 L18.048,8.192 L18.048,8.736 L14.008,8.736 L14.008,8.192 Z M22.096,4 L22.688,4 L22.688,5.048 L25.832,5.048 L25.832,5.608 L22.688,5.608 L22.688,6.832 L24.84,6.832 L24.84,7.344 C24.392,8.24 23.744,9.008 22.896,9.648 C23.296,9.872 23.736,10.088 24.216,10.28 C24.784,10.496 25.392,10.68 26.04,10.84 L25.704,11.344 C25.016,11.16 24.36,10.936 23.744,10.68 C23.256,10.472 22.808,10.24 22.408,9.984 C21.496,10.56 20.408,11.016 19.136,11.36 L18.808,10.848 C20.024,10.56 21.064,10.16 21.928,9.648 C21.512,9.336 21.144,8.976 20.832,8.576 C20.544,8.208 20.336,7.8 20.208,7.368 L19.592,7.368 L19.592,6.832 L22.096,6.832 L22.096,5.608 L18.984,5.608 L18.984,5.048 L22.096,5.048 L22.096,4 Z M22.4,9.336 C23.176,8.792 23.776,8.136 24.192,7.368 L20.776,7.368 C20.92,7.792 21.144,8.168 21.448,8.496 C21.728,8.816 22.048,9.096 22.4,9.336 Z" id="县-支" fill="#000000" fill-rule="nonzero"></path>
            <g id="通过十字路口能力" transform="translate(2.000000, 21.000000)" fill="#000000" fill-rule="nonzero">
                <path d="M14,0 C14.3568609,2.18514287e-17 14.6461538,0.289292928 14.6461538,0.64615384 L14.6461538,13.4615385 L27.3538462,13.4615385 C27.7107071,13.4615385 28,13.7508314 28,14.1076923 C28,14.4645532 27.7107071,14.7538462 27.3538462,14.7538462 L14.6461538,14.7538462 L14.6461538,27.3538462 C14.6461538,27.7107071 14.3568609,28 14,28 C13.6431391,28 13.3538462,27.7107071 13.3538462,27.3538462 L13.3538462,14.7538462 L0.64615384,14.7538462 C0.289292921,14.7538462 -1.36718744e-08,14.4645532 -1.36718745e-08,14.1076923 C-1.36718745e-08,13.7508314 0.289292921,13.4615385 0.64615384,13.4615385 L13.3538462,13.4615385 L13.3538462,0.64615384 C13.3538462,0.289292928 13.6431391,6.5554286e-17 14,0 Z" id="形状"></path>
            </g>
        </g>
    </g>
</svg>