<?xml version="1.0" encoding="UTF-8"?>
<svg width="32px" height="44px" viewBox="0 0 32 44" version="1.1" xmlns="http://www.w3.org/2000/svg" xmlns:xlink="http://www.w3.org/1999/xlink">
    <!-- Generator: Sketch 53.1 (72631) - https://sketchapp.com -->
    <title>县-乡交叉口</title>
    <desc>Created with Sketch.</desc>
    <g id="Page-1" stroke="none" stroke-width="1" fill="none" fill-rule="evenodd">
        <g id="县-乡交叉口">
            <rect id="矩形" stroke="#979797" fill="#FFFFFF" x="0.5" y="0.5" width="31" height="15" rx="2"></rect>
            <path d="M6,8.64 L7.536,8.64 L7.536,4.408 L11.992,4.408 L11.992,8.64 L13.272,8.64 L13.272,9.192 L8.96,9.192 C8.616,9.784 8.208,10.296 7.744,10.744 C9.048,10.672 10.288,10.552 11.472,10.392 C11.248,10.136 11.008,9.872 10.752,9.6 L11.2,9.32 C11.896,10.008 12.432,10.616 12.8,11.136 L12.312,11.48 C12.168,11.272 12.016,11.056 11.84,10.832 C10.576,11.024 8.968,11.176 7.024,11.288 L6.856,10.776 C7,10.744 7.096,10.696 7.16,10.632 C7.624,10.168 8.016,9.688 8.32,9.192 L6,9.192 L6,8.64 Z M11.416,8.64 L11.416,7.752 L8.104,7.752 L8.104,8.64 L11.416,8.64 Z M8.104,7.224 L11.416,7.224 L11.416,6.368 L8.104,6.368 L8.104,7.224 Z M8.104,5.84 L11.416,5.84 L11.416,4.944 L8.104,4.944 L8.104,5.84 Z M14.008,8.288 L18.048,8.288 L18.048,8.832 L14.008,8.832 L14.008,8.288 Z M24.832,7.152 L25.416,7.208 C25.24,8.376 24.704,9.312 23.824,10.016 C23.056,10.648 21.68,11.144 19.712,11.512 L19.464,10.936 C21.272,10.632 22.568,10.192 23.368,9.616 C23.68,9.384 23.944,9.12 24.16,8.832 C23.072,8.984 21.704,9.112 20.04,9.224 L19.864,8.712 C20.68,8.304 21.544,7.68 22.44,6.848 C21.544,6.944 20.648,7.016 19.768,7.056 L19.624,6.544 C20.56,5.824 21.368,4.976 22.056,4 L22.624,4.208 C22.008,5.08 21.288,5.848 20.472,6.512 C21.304,6.472 22.136,6.408 22.968,6.328 C23.344,5.944 23.728,5.52 24.12,5.064 L24.68,5.336 C23.328,6.88 22.12,7.976 21.056,8.632 C22.384,8.536 23.52,8.416 24.48,8.288 C24.64,7.944 24.76,7.568 24.832,7.152 Z" id="县-乡" fill="#000000" fill-rule="nonzero"></path>
            <g id="路口-(2)" transform="translate(3.000000, 18.000000)" fill="#000000" fill-rule="nonzero">
                <path d="M9.94,0.0071875 C9.3875,0.0071875 8.9396875,0.455 8.9396875,1.0075 L8.9396875,8.36875 C8.9396875,8.679375 8.6878125,8.93125 8.3771875,8.93125 L1.0003125,8.93125 C0.4478125,8.93125 0,9.3790625 0,9.9315625 L0,9.944375 C0,10.496875 0.4478125,10.9446875 1.0003125,10.9446875 L10.3775,10.9446875 C10.688125,10.9446875 10.94,10.6928125 10.94,10.3821875 L10.94,1.0071875 C10.9403125,0.455 10.4925,0.0071875 9.94,0.0071875 Z M24.8809375,8.9309375 L17.50375,8.9309375 C17.193125,8.9309375 16.94125,8.6790625 16.94125,8.3684375 L16.94125,1.0071875 C16.94125,0.4546875 16.4934375,0.006875 15.9409375,0.006875 C15.3884375,0.006875 14.940625,0.4546875 14.940625,1.0071875 L14.940625,10.38125 C14.940625,10.691875 15.1925,10.94375 15.503125,10.94375 L24.8803125,10.94375 C25.4328125,10.94375 25.880625,10.4959375 25.880625,9.9434375 L25.880625,9.930625 C25.8809375,9.37875 25.433125,8.9309375 24.8809375,8.9309375 L24.8809375,8.9309375 Z M10.3778125,14.9390625 L1.0003125,14.9390625 C0.4478125,14.9390625 0,15.386875 0,15.939375 L0,15.9521875 C0,16.5046875 0.4478125,16.9525 1.0003125,16.9525 L8.3771875,16.9525 C8.6878125,16.9525 8.9396875,17.204375 8.9396875,17.515 L8.9396875,24.87625 C8.9396875,25.42875 9.3875,25.8765625 9.94,25.8765625 C10.4925,25.8765625 10.9403125,25.42875 10.9403125,24.87625 L10.9403125,15.5015625 C10.9403125,15.190625 10.6884375,14.9390625 10.3778125,14.9390625 L10.3778125,14.9390625 Z M24.8809375,14.9390625 L15.5034375,14.9390625 C15.1928125,14.9390625 14.9409375,15.1909375 14.9409375,15.5015625 L14.9409375,24.875625 C14.9409375,25.428125 15.38875,25.8759375 15.94125,25.8759375 C16.49375,25.8759375 16.9415625,25.428125 16.9415625,24.875625 L16.9415625,17.514375 C16.9415625,17.20375 17.1934375,16.951875 17.5040625,16.951875 L24.8809375,16.951875 C25.4334375,16.951875 25.88125,16.5040625 25.88125,15.9515625 L25.88125,15.93875 C25.8809375,15.386875 25.433125,14.9390625 24.8809375,14.9390625 L24.8809375,14.9390625 Z" id="形状"></path>
            </g>
        </g>
    </g>
</svg>