<?xml version="1.0" encoding="UTF-8"?>
<svg width="32px" height="44px" viewBox="0 0 32 44" version="1.1" xmlns="http://www.w3.org/2000/svg" xmlns:xlink="http://www.w3.org/1999/xlink">
    <!-- Generator: Sketch 53.1 (72631) - https://sketchapp.com -->
    <title>国-乡交叉口</title>
    <desc>Created with Sketch.</desc>
    <g id="Page-1" stroke="none" stroke-width="1" fill="none" fill-rule="evenodd">
        <g id="国-乡交叉口">
            <rect id="矩形" stroke="#979797" fill="#FFFFFF" x="0.5" y="0.5" width="31" height="15" rx="2"></rect>
            <path d="M8.016,6.104 L11.976,6.104 L11.976,6.624 L10.296,6.624 L10.296,7.776 L11.728,7.776 L11.728,8.288 L10.296,8.288 L10.296,9.56 L12.208,9.56 L12.208,10.088 L7.8,10.088 L7.8,9.56 L9.704,9.56 L9.704,8.288 L8.272,8.288 L8.272,7.776 L9.704,7.776 L9.704,6.624 L8.016,6.624 L8.016,6.104 Z M13.288,4.832 L13.288,11.784 L12.704,11.784 L12.704,11.44 L7.296,11.44 L7.296,11.784 L6.712,11.784 L6.712,4.832 L13.288,4.832 Z M7.296,10.896 L12.704,10.896 L12.704,5.376 L7.296,5.376 L7.296,10.896 Z M11.24,8.456 C11.44,8.728 11.616,9.024 11.76,9.336 L11.312,9.544 C11.152,9.184 10.976,8.872 10.784,8.608 L11.24,8.456 Z M14.36,8.656 L18.4,8.656 L18.4,9.2 L14.36,9.2 L14.36,8.656 Z M25.184,7.52 L25.768,7.576 C25.592,8.744 25.056,9.68 24.176,10.384 C23.408,11.016 22.032,11.512 20.064,11.88 L19.816,11.304 C21.624,11 22.92,10.56 23.72,9.984 C24.032,9.752 24.296,9.488 24.512,9.2 C23.424,9.352 22.056,9.48 20.392,9.592 L20.216,9.08 C21.032,8.672 21.896,8.048 22.792,7.216 C21.896,7.312 21,7.384 20.12,7.424 L19.976,6.912 C20.912,6.192 21.72,5.344 22.408,4.368 L22.976,4.576 C22.36,5.448 21.64,6.216 20.824,6.88 C21.656,6.84 22.488,6.776 23.32,6.696 C23.696,6.312 24.08,5.888 24.472,5.432 L25.032,5.704 C23.68,7.248 22.472,8.344 21.408,9 C22.736,8.904 23.872,8.784 24.832,8.656 C24.992,8.312 25.112,7.936 25.184,7.52 Z" id="国-乡" fill="#000000" fill-rule="nonzero"></path>
            <g id="路口-(2)" transform="translate(3.000000, 18.000000)" fill="#000000" fill-rule="nonzero">
                <path d="M9.94,0.0071875 C9.3875,0.0071875 8.9396875,0.455 8.9396875,1.0075 L8.9396875,8.36875 C8.9396875,8.679375 8.6878125,8.93125 8.3771875,8.93125 L1.0003125,8.93125 C0.4478125,8.93125 0,9.3790625 0,9.9315625 L0,9.944375 C0,10.496875 0.4478125,10.9446875 1.0003125,10.9446875 L10.3775,10.9446875 C10.688125,10.9446875 10.94,10.6928125 10.94,10.3821875 L10.94,1.0071875 C10.9403125,0.455 10.4925,0.0071875 9.94,0.0071875 Z M24.8809375,8.9309375 L17.50375,8.9309375 C17.193125,8.9309375 16.94125,8.6790625 16.94125,8.3684375 L16.94125,1.0071875 C16.94125,0.4546875 16.4934375,0.006875 15.9409375,0.006875 C15.3884375,0.006875 14.940625,0.4546875 14.940625,1.0071875 L14.940625,10.38125 C14.940625,10.691875 15.1925,10.94375 15.503125,10.94375 L24.8803125,10.94375 C25.4328125,10.94375 25.880625,10.4959375 25.880625,9.9434375 L25.880625,9.930625 C25.8809375,9.37875 25.433125,8.9309375 24.8809375,8.9309375 L24.8809375,8.9309375 Z M10.3778125,14.9390625 L1.0003125,14.9390625 C0.4478125,14.9390625 0,15.386875 0,15.939375 L0,15.9521875 C0,16.5046875 0.4478125,16.9525 1.0003125,16.9525 L8.3771875,16.9525 C8.6878125,16.9525 8.9396875,17.204375 8.9396875,17.515 L8.9396875,24.87625 C8.9396875,25.42875 9.3875,25.8765625 9.94,25.8765625 C10.4925,25.8765625 10.9403125,25.42875 10.9403125,24.87625 L10.9403125,15.5015625 C10.9403125,15.190625 10.6884375,14.9390625 10.3778125,14.9390625 L10.3778125,14.9390625 Z M24.8809375,14.9390625 L15.5034375,14.9390625 C15.1928125,14.9390625 14.9409375,15.1909375 14.9409375,15.5015625 L14.9409375,24.875625 C14.9409375,25.428125 15.38875,25.8759375 15.94125,25.8759375 C16.49375,25.8759375 16.9415625,25.428125 16.9415625,24.875625 L16.9415625,17.514375 C16.9415625,17.20375 17.1934375,16.951875 17.5040625,16.951875 L24.8809375,16.951875 C25.4334375,16.951875 25.88125,16.5040625 25.88125,15.9515625 L25.88125,15.93875 C25.8809375,15.386875 25.433125,14.9390625 24.8809375,14.9390625 L24.8809375,14.9390625 Z" id="形状"></path>
            </g>
        </g>
    </g>
</svg>