<?xml version="1.0" encoding="UTF-8"?>
<svg width="32px" height="49px" viewBox="0 0 32 49" version="1.1" xmlns="http://www.w3.org/2000/svg" xmlns:xlink="http://www.w3.org/1999/xlink">
    <!-- Generator: Sketch 53.1 (72631) - https://sketchapp.com -->
    <title>国-快交叉口</title>
    <desc>Created with Sketch.</desc>
    <g id="Page-1" stroke="none" stroke-width="1" fill="none" fill-rule="evenodd">
        <g id="国-快交叉口">
            <path d="M31.0414378,32.129306 L23.6924613,32.129306 C23.5966051,32.129306 23.5167249,32.1612581 23.4208687,32.1772341 C23.117324,28.6305542 20.3694458,25.8027958 16.8547179,25.3874189 C16.8547179,25.3554668 16.870694,25.3075387 16.870694,25.2755866 L16.870694,17.9266101 C16.870694,17.4153769 16.455317,17 15.9440839,17 C15.4328507,17 15.0174738,17.4153769 15.0174738,17.9266101 L15.0174738,25.2755866 C15.0174738,25.3075387 15.0334498,25.3554668 15.0334498,25.3874189 C11.56665,25.8027958 8.80279581,28.6465302 8.51522716,32.1772341 C8.43534698,32.1612581 8.3554668,32.129306 8.27558662,32.129306 L0.926610085,32.129306 C0.415376935,32.129306 0,32.544683 0,33.0559161 C0,33.5671493 0.415376935,33.9825262 0.926610085,33.9825262 L8.27558662,33.9825262 C8.38741887,33.9825262 8.48327509,33.9505741 8.5791313,33.9186221 C9.07438842,37.2576136 11.7583625,39.8776835 15.129306,40.2611083 C15.0813779,40.3729406 15.0654019,40.4847728 15.0654019,40.6125811 L15.0654019,47.9615577 C15.0654019,48.4727908 15.4807788,48.8881677 15.992012,48.8881677 C16.5032451,48.8881677 16.9186221,48.4727908 16.9186221,47.9615577 L16.9186221,40.6125811 C16.9186221,40.4847728 16.88667,40.3729406 16.8547179,40.2611083 C20.2256615,39.8776835 22.9256116,37.2576136 23.4048927,33.902646 C23.5007489,33.9345981 23.6125811,33.9665502 23.7244134,33.9665502 L31.0733899,33.9665502 C31.5846231,33.9665502 32,33.5511732 32,33.0399401 C31.9680479,32.544683 31.552671,32.129306 31.0414378,32.129306 L31.0414378,32.129306 Z M15.9760359,39.1108337 C12.5092361,39.1108337 9.68147778,36.2990514 9.68147778,32.8162756 C9.68147778,29.3494758 12.4932601,26.5217174 15.9760359,26.5217174 C16.7588617,26.5217174 17.5097354,26.6655017 18.212681,26.9370944 C20.5771343,27.8317524 22.2705941,30.1323015 22.2705941,32.8162756 C22.2546181,36.2990514 19.4428357,39.1108337 15.9760359,39.1108337 Z" id="形状" fill="#666666" fill-rule="nonzero"></path>
            <rect id="矩形" stroke="#979797" fill="#FFFFFF" x="0.5" y="0.5" width="31" height="15" rx="2"></rect>
            <path d="M8.016,6.104 L11.976,6.104 L11.976,6.624 L10.296,6.624 L10.296,7.776 L11.728,7.776 L11.728,8.288 L10.296,8.288 L10.296,9.56 L12.208,9.56 L12.208,10.088 L7.8,10.088 L7.8,9.56 L9.704,9.56 L9.704,8.288 L8.272,8.288 L8.272,7.776 L9.704,7.776 L9.704,6.624 L8.016,6.624 L8.016,6.104 Z M13.288,4.832 L13.288,11.784 L12.704,11.784 L12.704,11.44 L7.296,11.44 L7.296,11.784 L6.712,11.784 L6.712,4.832 L13.288,4.832 Z M7.296,10.896 L12.704,10.896 L12.704,5.376 L7.296,5.376 L7.296,10.896 Z M11.24,8.456 C11.44,8.728 11.616,9.024 11.76,9.336 L11.312,9.544 C11.152,9.184 10.976,8.872 10.784,8.608 L11.24,8.456 Z M14.36,8.656 L18.4,8.656 L18.4,9.2 L14.36,9.2 L14.36,8.656 Z M21.976,5.688 L23.4,5.688 L23.4,4.48 L23.96,4.48 L23.96,5.688 L25.664,5.688 L25.664,8.104 L26.288,8.104 L26.288,8.664 L24.104,8.664 C24.6,9.752 25.392,10.632 26.472,11.304 L26.08,11.752 C24.992,11.008 24.192,10.072 23.688,8.936 C23.328,10.216 22.616,11.152 21.552,11.76 L21.2,11.288 C22.224,10.744 22.896,9.872 23.2,8.664 L21.648,8.664 L21.648,8.104 L23.312,8.104 C23.368,7.736 23.4,7.336 23.4,6.92 L23.4,6.224 L21.976,6.224 L21.976,5.688 Z M23.96,6.224 L23.96,6.8 C23.96,7.264 23.928,7.696 23.864,8.104 L25.104,8.104 L25.104,6.224 L23.96,6.224 Z M19.368,6.008 L19.824,6.04 C19.8,6.84 19.704,7.608 19.536,8.328 L19.064,8.192 C19.24,7.504 19.344,6.776 19.368,6.008 Z M21.384,5.832 C21.608,6.344 21.8,6.928 21.976,7.592 L21.504,7.704 C21.36,7.104 21.176,6.528 20.952,5.968 L21.384,5.832 Z M20.224,4.488 L20.792,4.488 L20.792,11.768 L20.224,11.768 L20.224,4.488 Z" id="国-快" fill="#000000" fill-rule="nonzero"></path>
        </g>
    </g>
</svg>