<?xml version="1.0" encoding="UTF-8"?>
<svg width="32px" height="46px" viewBox="0 0 32 46" version="1.1" xmlns="http://www.w3.org/2000/svg" xmlns:xlink="http://www.w3.org/1999/xlink">
    <!-- Generator: Sketch 53.1 (72631) - https://sketchapp.com -->
    <title>国-主交叉口</title>
    <desc>Created with Sketch.</desc>
    <g id="Page-1" stroke="none" stroke-width="1" fill="none" fill-rule="evenodd">
        <g id="国-主交叉口">
            <g id="分组-2" transform="translate(3.000000, 21.000000)" fill-rule="nonzero">
                <path d="M9.28571429,0 L9.28571429,5.15873015 C9.28571601,7.35779508 7.56139375,9.17060231 5.36507937,9.28055556 L5.15873015,9.28571429 L0,9.28571429 L0,7.22222223 L5.15873015,7.22222223 C6.2385811,7.22256397 7.13607472,6.3903017 7.21706348,5.31349206 L7.22222223,5.15873015 L7.22222223,0 L9.28571429,0 Z M5.15873015,15.4761905 C7.35779508,15.4761888 9.17060231,17.200511 9.28055556,19.3968254 L9.28571429,19.6031746 L9.28571429,24.7619048 L7.22222223,24.7619048 L7.22222223,19.6031746 C7.22256397,18.5233237 6.3903017,17.62583 5.31349206,17.5448413 L5.15873015,17.5396825 L0,17.5396825 L0,15.4761905 L5.15873015,15.4761905 Z M18.7777778,0 L18.7777778,5.15873015 C18.777436,6.2385811 19.6096983,7.13607472 20.6865079,7.21706348 L20.8412698,7.22222223 L26,7.22222223 L26,9.28571429 L20.8412698,9.28571429 C18.6422049,9.28571601 16.8293977,7.56139375 16.7194444,5.36507937 L16.7142857,5.15873015 L16.7142857,0 L18.7777778,0 Z M26,15.4761905 L26,17.5396825 L20.8412698,17.5396825 C19.7614189,17.5393408 18.8639253,18.3716031 18.7829365,19.4484127 L18.7777778,19.6031746 L18.7777778,24.7619048 L16.7142857,24.7619048 L16.7142857,19.6031746 C16.714284,17.4041097 18.4386062,15.5913025 20.6349206,15.4813492 L20.8412698,15.4761905 L26,15.4761905 Z" id="形状" fill="#122236"></path>
                <path d="M12.9001048,15.8403298 C11.2590301,15.8403298 9.92867626,14.5099759 9.92867626,12.8689013 C9.92867626,11.2278266 11.2590301,9.89747268 12.9001048,9.89747268 C14.5411795,9.89747268 15.8715334,11.2278266 15.8715334,12.8689013 C15.8715334,14.5099759 14.5411795,15.8403298 12.9001048,15.8403298 Z" id="形状" fill="#000000" transform="translate(12.900105, 12.868901) rotate(-45.000000) translate(-12.900105, -12.868901) "></path>
            </g>
            <rect id="矩形" stroke="#979797" fill="#FFFFFF" x="0.5" y="0.5" width="31" height="15" rx="2"></rect>
            <path d="M8.016,6.104 L11.976,6.104 L11.976,6.624 L10.296,6.624 L10.296,7.776 L11.728,7.776 L11.728,8.288 L10.296,8.288 L10.296,9.56 L12.208,9.56 L12.208,10.088 L7.8,10.088 L7.8,9.56 L9.704,9.56 L9.704,8.288 L8.272,8.288 L8.272,7.776 L9.704,7.776 L9.704,6.624 L8.016,6.624 L8.016,6.104 Z M13.288,4.832 L13.288,11.784 L12.704,11.784 L12.704,11.44 L7.296,11.44 L7.296,11.784 L6.712,11.784 L6.712,4.832 L13.288,4.832 Z M7.296,10.896 L12.704,10.896 L12.704,5.376 L7.296,5.376 L7.296,10.896 Z M11.24,8.456 C11.44,8.728 11.616,9.024 11.76,9.336 L11.312,9.544 C11.152,9.184 10.976,8.872 10.784,8.608 L11.24,8.456 Z M14.36,8.656 L18.4,8.656 L18.4,9.2 L14.36,9.2 L14.36,8.656 Z M22.472,6.392 L19.496,6.392 L19.496,5.824 L22.52,5.824 C22.384,5.4 22.216,4.992 22.024,4.6 L22.584,4.448 C22.784,4.904 22.936,5.32 23.048,5.704 L22.736,5.824 L26.032,5.824 L26.032,6.392 L23.056,6.392 L23.056,8.28 L25.648,8.28 L25.648,8.816 L23.056,8.816 L23.056,10.96 L26.312,10.96 L26.312,11.528 L19.216,11.528 L19.216,10.96 L22.472,10.96 L22.472,8.816 L19.88,8.816 L19.88,8.28 L22.472,8.28 L22.472,6.392 Z" id="国-主" fill="#000000" fill-rule="nonzero"></path>
        </g>
    </g>
</svg>