<?xml version="1.0" encoding="UTF-8"?>
<svg width="32px" height="45px" viewBox="0 0 32 45" version="1.1" xmlns="http://www.w3.org/2000/svg" xmlns:xlink="http://www.w3.org/1999/xlink">
    <!-- Generator: Sketch 53.1 (72631) - https://sketchapp.com -->
    <title>国-次交叉口</title>
    <desc>Created with Sketch.</desc>
    <g id="Page-1" stroke="none" stroke-width="1" fill="none" fill-rule="evenodd">
        <g id="国-次交叉口">
            <g id="分组" transform="translate(3.000000, 20.000000)" fill="#122236" fill-rule="nonzero">
                <path d="M9.375,0 L9.375,5.20833333 C9.37500174,7.42854311 7.63409946,9.25878118 5.41666667,9.36979167 L5.20833333,9.375 L0,9.375 L0,7.29166667 L5.20833333,7.29166667 C6.29856746,7.2920117 7.20469083,6.45174691 7.28645833,5.36458333 L7.29166667,5.20833333 L7.29166667,0 L9.375,0 Z" id="路径"></path>
                <path d="M5.20833333,15.625 C7.42854311,15.6249983 9.25878118,17.3659005 9.36979167,19.5833333 L9.375,19.7916667 L9.375,25 L7.29166667,25 L7.29166667,19.7916667 C7.2920117,18.7014325 6.45174691,17.7953092 5.36458333,17.7135417 L5.20833333,17.7083333 L0,17.7083333 L0,15.625 L5.20833333,15.625 Z" id="路径"></path>
                <path d="M17.7083333,0 L17.7083333,5.20833333 C17.7079883,6.29856746 18.5482531,7.20469083 19.6354167,7.28645833 L19.7916667,7.29166667 L25,7.29166667 L25,9.375 L19.7916667,9.375 C17.5714569,9.37500174 15.7412188,7.63409946 15.6302083,5.41666667 L15.625,5.20833333 L15.625,0 L17.7083333,0 Z" id="路径"></path>
                <path d="M25,15.625 L25,17.7083333 L19.7916667,17.7083333 C18.7014325,17.7079883 17.7953092,18.5482531 17.7135417,19.6354167 L17.7083333,19.7916667 L17.7083333,25 L15.625,25 L15.625,19.7916667 C15.6249983,17.5714569 17.3659005,15.7412188 19.5833333,15.6302083 L19.7916667,15.625 L25,15.625 Z" id="路径"></path>
                <path d="M9.375,0 L9.375,5.20833333 C9.37500174,7.42854311 7.63409946,9.25878118 5.41666667,9.36979167 L5.20833333,9.375 L0,9.375 L0,7.29166667 L5.20833333,7.29166667 C6.29856746,7.2920117 7.20469083,6.45174691 7.28645833,5.36458333 L7.29166667,5.20833333 L7.29166667,0 L9.375,0 Z" id="路径"></path>
                <path d="M5.20833333,15.625 C7.42854311,15.6249983 9.25878118,17.3659005 9.36979167,19.5833333 L9.375,19.7916667 L9.375,25 L7.29166667,25 L7.29166667,19.7916667 C7.2920117,18.7014325 6.45174691,17.7953092 5.36458333,17.7135417 L5.20833333,17.7083333 L0,17.7083333 L0,15.625 L5.20833333,15.625 Z" id="路径"></path>
                <path d="M17.7083333,0 L17.7083333,5.20833333 C17.7079883,6.29856746 18.5482531,7.20469083 19.6354167,7.28645833 L19.7916667,7.29166667 L25,7.29166667 L25,9.375 L19.7916667,9.375 C17.5714569,9.37500174 15.7412188,7.63409946 15.6302083,5.41666667 L15.625,5.20833333 L15.625,0 L17.7083333,0 Z" id="路径"></path>
                <path d="M25,15.625 L25,17.7083333 L19.7916667,17.7083333 C18.7014325,17.7079883 17.7953092,18.5482531 17.7135417,19.6354167 L17.7083333,19.7916667 L17.7083333,25 L15.625,25 L15.625,19.7916667 C15.6249983,17.5714569 17.3659005,15.7412188 19.5833333,15.6302083 L19.7916667,15.625 L25,15.625 Z" id="路径"></path>
            </g>
            <rect id="矩形" stroke="#979797" fill="#FFFFFF" x="0.5" y="0.5" width="31" height="15" rx="2"></rect>
            <path d="M7.016,6.104 L10.976,6.104 L10.976,6.624 L9.296,6.624 L9.296,7.776 L10.728,7.776 L10.728,8.288 L9.296,8.288 L9.296,9.56 L11.208,9.56 L11.208,10.088 L6.8,10.088 L6.8,9.56 L8.704,9.56 L8.704,8.288 L7.272,8.288 L7.272,7.776 L8.704,7.776 L8.704,6.624 L7.016,6.624 L7.016,6.104 Z M12.288,4.832 L12.288,11.784 L11.704,11.784 L11.704,11.44 L6.296,11.44 L6.296,11.784 L5.712,11.784 L5.712,4.832 L12.288,4.832 Z M6.296,10.896 L11.704,10.896 L11.704,5.376 L6.296,5.376 L6.296,10.896 Z M10.24,8.456 C10.44,8.728 10.616,9.024 10.76,9.336 L10.312,9.544 C10.152,9.184 9.976,8.872 9.784,8.608 L10.24,8.456 Z M13.36,8.656 L17.4,8.656 L17.4,9.2 L13.36,9.2 L13.36,8.656 Z M21.624,6.232 C21.376,6.976 21.048,7.584 20.64,8.048 L20.16,7.712 C20.816,6.928 21.24,5.832 21.432,4.44 L22.008,4.528 C21.944,4.944 21.872,5.328 21.784,5.68 L25.144,5.68 L25.144,6.056 C24.976,6.736 24.76,7.408 24.488,8.072 L23.92,7.912 C24.168,7.416 24.368,6.856 24.528,6.232 L21.624,6.232 Z M22.448,6.776 L23.008,6.776 C23.008,7.208 22.984,7.608 22.944,7.976 C23.424,9.4 24.264,10.528 25.472,11.36 L25.096,11.8 C24.056,11.016 23.288,10.056 22.776,8.904 C22.728,9.104 22.672,9.288 22.608,9.464 C22.264,10.424 21.48,11.208 20.248,11.816 L19.872,11.36 C20.96,10.832 21.68,10.16 22.04,9.36 C22.296,8.68 22.432,7.816 22.448,6.776 Z M18.624,4.808 C19.248,5.432 19.728,5.976 20.064,6.44 L19.616,6.76 C19.256,6.264 18.768,5.704 18.16,5.096 L18.624,4.808 Z M19.6,8.24 L20.104,8.432 C19.656,9.536 19.16,10.576 18.608,11.544 L18.072,11.304 C18.664,10.304 19.168,9.28 19.6,8.24 Z" id="国-次" fill="#000000" fill-rule="nonzero"></path>
        </g>
    </g>
</svg>