<?xml version="1.0" encoding="UTF-8"?>
<svg width="32px" height="49px" viewBox="0 0 32 49" version="1.1" xmlns="http://www.w3.org/2000/svg" xmlns:xlink="http://www.w3.org/1999/xlink">
    <!-- Generator: Sketch 53.1 (72631) - https://sketchapp.com -->
    <title>国-支交叉口</title>
    <desc>Created with Sketch.</desc>
    <g id="Page-1" stroke="none" stroke-width="1" fill="none" fill-rule="evenodd">
        <g id="国-支交叉口">
            <rect id="矩形" stroke="#979797" fill="#FFFFFF" x="0.5" y="0.5" width="31" height="15" rx="2"></rect>
            <path d="M8.016,6.104 L11.976,6.104 L11.976,6.624 L10.296,6.624 L10.296,7.776 L11.728,7.776 L11.728,8.288 L10.296,8.288 L10.296,9.56 L12.208,9.56 L12.208,10.088 L7.8,10.088 L7.8,9.56 L9.704,9.56 L9.704,8.288 L8.272,8.288 L8.272,7.776 L9.704,7.776 L9.704,6.624 L8.016,6.624 L8.016,6.104 Z M13.288,4.832 L13.288,11.784 L12.704,11.784 L12.704,11.44 L7.296,11.44 L7.296,11.784 L6.712,11.784 L6.712,4.832 L13.288,4.832 Z M7.296,10.896 L12.704,10.896 L12.704,5.376 L7.296,5.376 L7.296,10.896 Z M11.24,8.456 C11.44,8.728 11.616,9.024 11.76,9.336 L11.312,9.544 C11.152,9.184 10.976,8.872 10.784,8.608 L11.24,8.456 Z M14.36,8.656 L18.4,8.656 L18.4,9.2 L14.36,9.2 L14.36,8.656 Z M22.448,4.464 L23.04,4.464 L23.04,5.512 L26.184,5.512 L26.184,6.072 L23.04,6.072 L23.04,7.296 L25.192,7.296 L25.192,7.808 C24.744,8.704 24.096,9.472 23.248,10.112 C23.648,10.336 24.088,10.552 24.568,10.744 C25.136,10.96 25.744,11.144 26.392,11.304 L26.056,11.808 C25.368,11.624 24.712,11.4 24.096,11.144 C23.608,10.936 23.16,10.704 22.76,10.448 C21.848,11.024 20.76,11.48 19.488,11.824 L19.16,11.312 C20.376,11.024 21.416,10.624 22.28,10.112 C21.864,9.8 21.496,9.44 21.184,9.04 C20.896,8.672 20.688,8.264 20.56,7.832 L19.944,7.832 L19.944,7.296 L22.448,7.296 L22.448,6.072 L19.336,6.072 L19.336,5.512 L22.448,5.512 L22.448,4.464 Z M22.752,9.8 C23.528,9.256 24.128,8.6 24.544,7.832 L21.128,7.832 C21.272,8.256 21.496,8.632 21.8,8.96 C22.08,9.28 22.4,9.56 22.752,9.8 Z" id="国-支" fill="#000000" fill-rule="nonzero"></path>
            <g id="通过十字路口能力" transform="translate(2.000000, 21.000000)" fill="#000000" fill-rule="nonzero">
                <path d="M14,0 C14.3568609,2.18514287e-17 14.6461538,0.289292928 14.6461538,0.64615384 L14.6461538,13.4615385 L27.3538462,13.4615385 C27.7107071,13.4615385 28,13.7508314 28,14.1076923 C28,14.4645532 27.7107071,14.7538462 27.3538462,14.7538462 L14.6461538,14.7538462 L14.6461538,27.3538462 C14.6461538,27.7107071 14.3568609,28 14,28 C13.6431391,28 13.3538462,27.7107071 13.3538462,27.3538462 L13.3538462,14.7538462 L0.64615384,14.7538462 C0.289292921,14.7538462 -1.36718744e-08,14.4645532 -1.36718745e-08,14.1076923 C-1.36718745e-08,13.7508314 0.289292921,13.4615385 0.64615384,13.4615385 L13.3538462,13.4615385 L13.3538462,0.64615384 C13.3538462,0.289292928 13.6431391,6.5554286e-17 14,0 Z" id="形状"></path>
            </g>
        </g>
    </g>
</svg>