<?xml version="1.0" encoding="UTF-8"?>
<svg width="32px" height="45px" viewBox="0 0 32 45" version="1.1" xmlns="http://www.w3.org/2000/svg" xmlns:xlink="http://www.w3.org/1999/xlink">
    <!-- Generator: Sketch 53.1 (72631) - https://sketchapp.com -->
    <title>国-省交叉口</title>
    <desc>Created with Sketch.</desc>
    <g id="Page-1" stroke="none" stroke-width="1" fill="none" fill-rule="evenodd">
        <g id="国-省交叉口">
            <rect id="矩形" stroke="#979797" fill="#FFFFFF" x="0.5" y="0.5" width="31" height="15" rx="2"></rect>
            <path d="M8.016,6.104 L11.976,6.104 L11.976,6.624 L10.296,6.624 L10.296,7.776 L11.728,7.776 L11.728,8.288 L10.296,8.288 L10.296,9.56 L12.208,9.56 L12.208,10.088 L7.8,10.088 L7.8,9.56 L9.704,9.56 L9.704,8.288 L8.272,8.288 L8.272,7.776 L9.704,7.776 L9.704,6.624 L8.016,6.624 L8.016,6.104 Z M13.288,4.832 L13.288,11.784 L12.704,11.784 L12.704,11.44 L7.296,11.44 L7.296,11.784 L6.712,11.784 L6.712,4.832 L13.288,4.832 Z M7.296,10.896 L12.704,10.896 L12.704,5.376 L7.296,5.376 L7.296,10.896 Z M11.24,8.456 C11.44,8.728 11.616,9.024 11.76,9.336 L11.312,9.544 C11.152,9.184 10.976,8.872 10.784,8.608 L11.24,8.456 Z M14.36,8.656 L18.4,8.656 L18.4,9.2 L14.36,9.2 L14.36,8.656 Z M22.376,4.448 L22.944,4.448 L22.944,6.496 L22.376,6.496 L22.376,4.448 Z M20.552,7.968 C20.176,8.048 19.792,8.128 19.392,8.2 L19.152,7.68 C21.624,7.28 23.504,6.632 24.8,5.744 C24.512,5.512 24.208,5.28 23.88,5.048 L24.264,4.68 C25.104,5.264 25.808,5.848 26.384,6.424 L25.984,6.832 C25.76,6.584 25.496,6.336 25.208,6.088 C24.408,6.656 23.416,7.128 22.24,7.512 L25.424,7.512 L25.424,11.776 L24.864,11.776 L24.864,11.416 L21.112,11.416 L21.112,11.792 L20.552,11.792 L20.552,7.968 Z M21.112,10.904 L24.864,10.904 L24.864,10.216 L21.112,10.216 L21.112,10.904 Z M21.112,9.752 L24.864,9.752 L24.864,9.112 L21.112,9.112 L21.112,9.752 Z M21.112,8.648 L24.864,8.648 L24.864,8 L21.112,8 L21.112,8.648 Z M21.104,4.904 L21.512,5.264 C21.032,5.856 20.44,6.376 19.736,6.824 L19.4,6.392 C20.08,5.96 20.648,5.464 21.104,4.904 Z" id="国-省" fill="#000000" fill-rule="nonzero"></path>
            <g id="单点信号交叉口运行评价模型" transform="translate(3.000000, 19.000000)" fill="#000000" fill-rule="nonzero">
                <path d="M12.65625,0 L13.428125,0 L13.428125,6.896875 L12.65625,6.896875 L12.65625,0 Z M0,12.56875 L6.184375,12.56875 L6.184375,13.340625 L0,13.340625 L0,12.56875 Z M19.428125,12.56875 L25.9375,12.56875 L25.9375,13.340625 L19.428125,13.340625 L19.428125,12.56875 Z M9.96875,17.38125 L10.740625,17.38125 L10.740625,18.678125 L9.96875,18.678125 L9.96875,17.38125 Z M11.303125,17.38125 L12.075,17.38125 L12.075,18.678125 L11.303125,18.678125 L11.303125,17.38125 Z M12.65625,19.271875 L13.428125,19.271875 L13.428125,25.946875 L12.65625,25.946875 L12.65625,19.271875 Z M12.65625,17.38125 L13.428125,17.38125 L13.428125,18.678125 L12.65625,18.678125 L12.65625,17.38125 Z M13.940625,17.38125 L14.7125,17.38125 L14.7125,18.678125 L13.940625,18.678125 L13.940625,17.38125 Z M15.278125,17.38125 L16.05,17.38125 L16.05,18.678125 L15.278125,18.678125 L15.278125,17.38125 Z M9.9875,7.45 L10.759375,7.45 L10.759375,8.746875 L9.9875,8.746875 L9.9875,7.45 Z M11.321875,7.45 L12.09375,7.45 L12.09375,8.746875 L11.321875,8.746875 L11.321875,7.45 Z M12.65625,7.45 L13.428125,7.45 L13.428125,8.746875 L12.65625,8.746875 L12.65625,7.45 Z M13.95625,7.45 L14.728125,7.45 L14.728125,8.746875 L13.95625,8.746875 L13.95625,7.45 Z M15.29375,7.45 L16.065625,7.45 L16.065625,8.746875 L15.29375,8.746875 L15.29375,7.45 Z M17.203125,15.240625 L18.5,15.240625 L18.5,16.0125 L17.203125,16.0125 L17.203125,15.240625 Z M17.203125,13.90625 L18.5,13.90625 L18.5,14.678125 L17.203125,14.678125 L17.203125,13.90625 Z M17.203125,12.56875 L18.5,12.56875 L18.5,13.340625 L17.203125,13.340625 L17.203125,12.56875 Z M17.203125,11.26875 L18.5,11.26875 L18.5,12.040625 L17.203125,12.040625 L17.203125,11.26875 Z M17.203125,9.934375 L18.5,9.934375 L18.5,10.70625 L17.203125,10.70625 L17.203125,9.934375 Z M7.125,15.240625 L8.421875,15.240625 L8.421875,16.0125 L7.125,16.0125 L7.125,15.240625 Z M7.125,13.90625 L8.421875,13.90625 L8.421875,14.678125 L7.125,14.678125 L7.125,13.90625 Z M7.125,12.56875 L8.421875,12.56875 L8.421875,13.340625 L7.125,13.340625 L7.125,12.56875 Z M7.125,11.26875 L8.421875,11.26875 L8.421875,12.040625 L7.125,12.040625 L7.125,11.26875 Z M7.125,9.934375 L8.421875,9.934375 L8.421875,10.70625 L7.125,10.70625 L7.125,9.934375 Z M9.35625,0 L9.35625,8.146875 C9.35625,8.8125 8.8125,9.35625 8.146875,9.35625 L0,9.35625 L0,8.284375 L7.765625,8.284375 C8.053125,8.284375 8.284375,8.05 8.284375,7.765625 L8.284375,0 L9.35625,0 L9.35625,0 Z M9.35625,17.796875 L9.35625,25.94375 L8.284375,25.94375 L8.284375,18.178125 C8.284375,17.89375 8.053125,17.659375 7.765625,17.659375 L0,17.659375 L0,16.5875 L8.146875,16.5875 C8.8125,16.5875 9.35625,17.13125 9.35625,17.796875 L9.35625,17.796875 Z M25.9375,16.5875 L25.9375,17.659375 L18.171875,17.659375 C17.8875,17.659375 17.653125,17.89375 17.653125,18.178125 L17.653125,25.94375 L16.58125,25.94375 L16.58125,17.796875 C16.58125,17.13125 17.125,16.5875 17.790625,16.5875 L25.9375,16.5875 Z M25.9375,8.284375 L25.9375,9.35625 L17.790625,9.35625 C17.125,9.35625 16.58125,8.8125 16.58125,8.146875 L16.58125,0 L17.653125,0 L17.653125,7.765625 C17.653125,8.05 17.8875,8.284375 18.171875,8.284375 L25.9375,8.284375 Z" id="形状"></path>
            </g>
        </g>
    </g>
</svg>