<?xml version="1.0" encoding="UTF-8"?>
<svg width="36px" height="48px" viewBox="0 0 36 48" version="1.1" xmlns="http://www.w3.org/2000/svg" xmlns:xlink="http://www.w3.org/1999/xlink">
    <!-- Generator: Sketch 53.1 (72631) - https://sketchapp.com -->
    <title>国-小路交叉口</title>
    <desc>Created with Sketch.</desc>
    <g id="Page-1" stroke="none" stroke-width="1" fill="none" fill-rule="evenodd">
        <g id="国-小路交叉口">
            <rect id="矩形" stroke="#979797" fill="#FFFFFF" x="0.5" y="0.5" width="35" height="15" rx="2"></rect>
            <path d="M6.016,6.104 L9.976,6.104 L9.976,6.624 L8.296,6.624 L8.296,7.776 L9.728,7.776 L9.728,8.288 L8.296,8.288 L8.296,9.56 L10.208,9.56 L10.208,10.088 L5.8,10.088 L5.8,9.56 L7.704,9.56 L7.704,8.288 L6.272,8.288 L6.272,7.776 L7.704,7.776 L7.704,6.624 L6.016,6.624 L6.016,6.104 Z M11.288,4.832 L11.288,11.784 L10.704,11.784 L10.704,11.44 L5.296,11.44 L5.296,11.784 L4.712,11.784 L4.712,4.832 L11.288,4.832 Z M5.296,10.896 L10.704,10.896 L10.704,5.376 L5.296,5.376 L5.296,10.896 Z M9.24,8.456 C9.44,8.728 9.616,9.024 9.76,9.336 L9.312,9.544 C9.152,9.184 8.976,8.872 8.784,8.608 L9.24,8.456 Z M12.36,8.656 L16.4,8.656 L16.4,9.2 L12.36,9.2 L12.36,8.656 Z M20.376,11.712 L19.152,11.712 L19.016,11.112 C19.416,11.144 19.8,11.16 20.16,11.16 C20.456,11.16 20.608,11.008 20.608,10.712 L20.608,4.584 L21.2,4.584 L21.2,10.864 C21.2,11.424 20.92,11.712 20.376,11.712 Z M18.464,6.44 L19.04,6.664 C18.656,8.264 18.152,9.48 17.528,10.312 L17.032,9.872 C17.672,9.024 18.144,7.88 18.464,6.44 Z M23.008,6.248 C23.64,7.68 24.128,8.928 24.464,9.992 L23.952,10.352 C23.592,9.216 23.104,7.96 22.488,6.576 L23.008,6.248 Z M25.448,4.784 L27.912,4.784 L27.912,7.296 L27.112,7.296 L27.112,8.584 L27.944,8.584 L27.944,9.128 L27.112,9.128 L27.112,10.616 C27.464,10.504 27.808,10.392 28.128,10.272 L28.128,10.848 C27.296,11.16 26.32,11.448 25.208,11.712 L25.048,11.152 L25.472,11.056 L25.472,8.152 L25.984,8.152 L25.984,10.928 C26.184,10.88 26.384,10.824 26.576,10.776 L26.576,7.296 L25.448,7.296 L25.448,4.784 Z M27.36,6.768 L27.36,5.312 L26.008,5.312 L26.008,6.768 L27.36,6.768 Z M31.728,8.808 L31.728,11.776 L31.176,11.776 L31.176,11.424 L29.16,11.424 L29.16,11.776 L28.608,11.776 L28.608,8.808 L31.728,8.808 Z M29.16,10.896 L31.176,10.896 L31.176,9.328 L29.16,9.328 L29.16,10.896 Z M29.424,4.448 L29.976,4.552 C29.912,4.752 29.84,4.944 29.76,5.136 L31.744,5.136 L31.744,5.552 C31.472,6.224 31.072,6.816 30.552,7.328 C31.08,7.76 31.72,8.096 32.464,8.328 L32.136,8.8 C31.344,8.544 30.68,8.176 30.144,7.696 C29.6,8.136 28.96,8.512 28.208,8.832 L27.864,8.368 C28.6,8.072 29.224,7.72 29.752,7.304 C29.464,6.992 29.224,6.656 29.024,6.288 C28.816,6.528 28.584,6.744 28.328,6.952 L27.984,6.496 C28.688,5.944 29.168,5.264 29.424,4.448 Z M29.352,5.848 C29.568,6.264 29.832,6.64 30.152,6.96 C30.56,6.56 30.888,6.128 31.136,5.648 L29.488,5.648 C29.44,5.712 29.4,5.784 29.352,5.848 Z" id="国-小路" fill="#000000" fill-rule="nonzero"></path>
            <g id="7交叉口" transform="translate(4.000000, 20.000000)" fill="#666666" fill-rule="nonzero">
                <path d="M27.1870968,14.9145161 L20.7741935,14.9145161 C20.3225806,14.9145161 19.9612903,14.5532258 19.9612903,14.1016129 C19.9612903,13.65 20.3225806,13.2887097 20.7741935,13.2887097 L27.1870968,13.2887097 C27.6387097,13.2887097 28,13.65 28,14.1016129 C28,14.5532258 27.6387097,14.9145161 27.1870968,14.9145161 Z M7.22580645,14.9145161 L0.812903226,14.9145161 C0.361290323,14.9145161 -3.55271368e-15,14.5532258 -3.55271368e-15,14.1016129 C-3.55271368e-15,13.65 0.361290323,13.2887097 0.812903226,13.2887097 L7.22580645,13.2887097 C7.67741935,13.2887097 8.03870968,13.65 8.03870968,14.1016129 C8.03870968,14.5532258 7.67741935,14.9145161 7.22580645,14.9145161 Z M14.8129032,0.824193548 L14.8129032,7.23709677 C14.8129032,7.68870968 14.4516129,8.05 14,8.05 C13.5483871,8.05 13.1870968,7.68870968 13.1870968,7.23709677 L13.1870968,0.824193548 C13.1870968,0.372580645 13.5483871,0.0112903226 14,0.0112903226 C14.4516129,0.0112903226 14.8129032,0.372580645 14.8129032,0.824193548 Z M14.8129032,20.6951613 L14.8129032,27.1080645 C14.8129032,27.5596774 14.4516129,27.9209677 14,27.9209677 C13.5483871,27.9209677 13.1870968,27.5596774 13.1870968,27.1080645 L13.1870968,20.6951613 C13.1870968,20.2435484 13.5483871,19.8822581 14,19.8822581 C14.4516129,19.8822581 14.8129032,20.2435484 14.8129032,20.6951613 Z" id="形状"></path>
            </g>
        </g>
    </g>
</svg>