<?xml version="1.0" encoding="UTF-8"?>
<svg width="32px" height="47px" viewBox="0 0 32 47" version="1.1" xmlns="http://www.w3.org/2000/svg" xmlns:xlink="http://www.w3.org/1999/xlink">
    <!-- Generator: Sketch 53.1 (72631) - https://sketchapp.com -->
    <title>国-国交叉口</title>
    <desc>Created with Sketch.</desc>
    <g id="Page-1" stroke="none" stroke-width="1" fill="none" fill-rule="evenodd">
        <g id="国-国交叉口">
            <rect id="矩形" stroke="#979797" fill="#FFFFFF" x="0.5" y="0.5" width="31" height="15" rx="2"></rect>
            <path d="M8.016,6.104 L11.976,6.104 L11.976,6.624 L10.296,6.624 L10.296,7.776 L11.728,7.776 L11.728,8.288 L10.296,8.288 L10.296,9.56 L12.208,9.56 L12.208,10.088 L7.8,10.088 L7.8,9.56 L9.704,9.56 L9.704,8.288 L8.272,8.288 L8.272,7.776 L9.704,7.776 L9.704,6.624 L8.016,6.624 L8.016,6.104 Z M13.288,4.832 L13.288,11.784 L12.704,11.784 L12.704,11.44 L7.296,11.44 L7.296,11.784 L6.712,11.784 L6.712,4.832 L13.288,4.832 Z M7.296,10.896 L12.704,10.896 L12.704,5.376 L7.296,5.376 L7.296,10.896 Z M11.24,8.456 C11.44,8.728 11.616,9.024 11.76,9.336 L11.312,9.544 C11.152,9.184 10.976,8.872 10.784,8.608 L11.24,8.456 Z M14.36,8.656 L18.4,8.656 L18.4,9.2 L14.36,9.2 L14.36,8.656 Z M20.776,6.104 L24.736,6.104 L24.736,6.624 L23.056,6.624 L23.056,7.776 L24.488,7.776 L24.488,8.288 L23.056,8.288 L23.056,9.56 L24.968,9.56 L24.968,10.088 L20.56,10.088 L20.56,9.56 L22.464,9.56 L22.464,8.288 L21.032,8.288 L21.032,7.776 L22.464,7.776 L22.464,6.624 L20.776,6.624 L20.776,6.104 Z M26.048,4.832 L26.048,11.784 L25.464,11.784 L25.464,11.44 L20.056,11.44 L20.056,11.784 L19.472,11.784 L19.472,4.832 L26.048,4.832 Z M20.056,10.896 L25.464,10.896 L25.464,5.376 L20.056,5.376 L20.056,10.896 Z M24,8.456 C24.2,8.728 24.376,9.024 24.52,9.336 L24.072,9.544 C23.912,9.184 23.736,8.872 23.544,8.608 L24,8.456 Z" id="国-国" fill="#000000" fill-rule="nonzero"></path>
            <g id="十字路口" transform="translate(2.000000, 19.000000)" fill="#000000" fill-rule="nonzero">
                <path d="M14,8.75 C11.1050625,8.75 8.75,11.1050625 8.75,14 C8.75,16.8949375 11.1050625,19.25 14,19.25 C16.8949375,19.25 19.25,16.8949375 19.25,14 C19.25,11.1050625 16.8949375,8.75 14,8.75 Z M14,17.5 C12.0701875,17.5 10.5,15.9298125 10.5,14 C10.5,12.0701875 12.0701875,10.5 14,10.5 C15.9298125,10.5 17.5,12.0701875 17.5,14 C17.5,15.9298125 15.9298125,17.5 14,17.5 Z" id="形状"></path>
                <path d="M27.125,11.375 L22.341375,11.375 C21.4767305,8.65454339 19.3453904,6.5230402 16.625,5.6581875 L16.625,0.875 C16.625,0.391750844 16.2332492,2.95904766e-17 15.75,0 L12.25,0 C11.7667508,-2.95904766e-17 11.375,0.391750844 11.375,0.875 L11.375,5.6581875 C8.65460957,6.5230402 6.5232695,8.65454339 5.658625,11.375 L0.875,11.375 C0.391750844,11.375 5.91809532e-17,11.7667508 0,12.25 L0,15.75 C5.91809532e-17,16.2332492 0.391750844,16.625 0.875,16.625 L5.658625,16.625 C6.5130625,19.3353125 8.665125,21.4869375 11.375,22.3418125 L11.375,27.125 C11.375,27.6082492 11.7667508,28 12.25,28 L15.75,28 C16.2332492,28 16.625,27.6082492 16.625,27.125 L16.625,22.3418125 C19.334875,21.4869375 21.4869375,19.3353125 22.341375,16.625 L27.125,16.625 C27.6082492,16.625 28,16.2332492 28,15.75 L28,12.25 C28,11.7667508 27.6082492,11.375 27.125,11.375 Z M26.25,14.875 L21.672875,14.875 C21.2643504,14.8750655 20.9102382,15.1578105 20.81975,15.5561875 C20.227375,18.1615 18.1615,20.2278125 15.5561875,20.81975 C15.1578105,20.9102382 14.8750655,21.2643504 14.875,21.672875 L14.875,26.25 L13.125,26.25 L13.125,21.672875 C13.1249345,21.2643504 12.8421895,20.9102382 12.4438125,20.81975 C9.8385,20.227375 7.7721875,18.1615 7.18025,15.5561875 C7.0897618,15.1578105 6.73564963,14.8750655 6.327125,14.875 L1.75,14.875 L1.75,13.125 L6.327125,13.125 C6.73564963,13.1249345 7.0897618,12.8421895 7.18025,12.4438125 C7.772625,9.8380625 9.8385,7.7721875 12.4438125,7.1798125 C12.8420978,7.08917807 13.1247716,6.73515504 13.125,6.3266875 L13.125,1.75 L14.875,1.75 L14.875,6.3266875 C14.8750655,6.73521213 15.1578105,7.0893243 15.5561875,7.1798125 C18.1615,7.7721875 20.2278125,9.8380625 20.81975,12.4438125 C20.9102382,12.8421895 21.2643504,13.1249345 21.672875,13.125 L26.25,13.125 L26.25,14.875 Z" id="形状"></path>
            </g>
        </g>
    </g>
</svg>