<?xml version="1.0" encoding="UTF-8"?>
<svg width="32px" height="45px" viewBox="0 0 32 45" version="1.1" xmlns="http://www.w3.org/2000/svg" xmlns:xlink="http://www.w3.org/1999/xlink">
    <!-- Generator: Sketch 53.1 (72631) - https://sketchapp.com -->
    <title>快-次交叉口</title>
    <desc>Created with Sketch.</desc>
    <g id="Page-1" stroke="none" stroke-width="1" fill="none" fill-rule="evenodd">
        <g id="快-次交叉口">
            <g id="分组" transform="translate(3.000000, 20.000000)" fill="#122236" fill-rule="nonzero">
                <path d="M9.375,0 L9.375,5.20833333 C9.37500174,7.42854311 7.63409946,9.25878118 5.41666667,9.36979167 L5.20833333,9.375 L0,9.375 L0,7.29166667 L5.20833333,7.29166667 C6.29856746,7.2920117 7.20469083,6.45174691 7.28645833,5.36458333 L7.29166667,5.20833333 L7.29166667,0 L9.375,0 Z" id="路径"></path>
                <path d="M5.20833333,15.625 C7.42854311,15.6249983 9.25878118,17.3659005 9.36979167,19.5833333 L9.375,19.7916667 L9.375,25 L7.29166667,25 L7.29166667,19.7916667 C7.2920117,18.7014325 6.45174691,17.7953092 5.36458333,17.7135417 L5.20833333,17.7083333 L0,17.7083333 L0,15.625 L5.20833333,15.625 Z" id="路径"></path>
                <path d="M17.7083333,0 L17.7083333,5.20833333 C17.7079883,6.29856746 18.5482531,7.20469083 19.6354167,7.28645833 L19.7916667,7.29166667 L25,7.29166667 L25,9.375 L19.7916667,9.375 C17.5714569,9.37500174 15.7412188,7.63409946 15.6302083,5.41666667 L15.625,5.20833333 L15.625,0 L17.7083333,0 Z" id="路径"></path>
                <path d="M25,15.625 L25,17.7083333 L19.7916667,17.7083333 C18.7014325,17.7079883 17.7953092,18.5482531 17.7135417,19.6354167 L17.7083333,19.7916667 L17.7083333,25 L15.625,25 L15.625,19.7916667 C15.6249983,17.5714569 17.3659005,15.7412188 19.5833333,15.6302083 L19.7916667,15.625 L25,15.625 Z" id="路径"></path>
                <path d="M9.375,0 L9.375,5.20833333 C9.37500174,7.42854311 7.63409946,9.25878118 5.41666667,9.36979167 L5.20833333,9.375 L0,9.375 L0,7.29166667 L5.20833333,7.29166667 C6.29856746,7.2920117 7.20469083,6.45174691 7.28645833,5.36458333 L7.29166667,5.20833333 L7.29166667,0 L9.375,0 Z" id="路径"></path>
                <path d="M5.20833333,15.625 C7.42854311,15.6249983 9.25878118,17.3659005 9.36979167,19.5833333 L9.375,19.7916667 L9.375,25 L7.29166667,25 L7.29166667,19.7916667 C7.2920117,18.7014325 6.45174691,17.7953092 5.36458333,17.7135417 L5.20833333,17.7083333 L0,17.7083333 L0,15.625 L5.20833333,15.625 Z" id="路径"></path>
                <path d="M17.7083333,0 L17.7083333,5.20833333 C17.7079883,6.29856746 18.5482531,7.20469083 19.6354167,7.28645833 L19.7916667,7.29166667 L25,7.29166667 L25,9.375 L19.7916667,9.375 C17.5714569,9.37500174 15.7412188,7.63409946 15.6302083,5.41666667 L15.625,5.20833333 L15.625,0 L17.7083333,0 Z" id="路径"></path>
                <path d="M25,15.625 L25,17.7083333 L19.7916667,17.7083333 C18.7014325,17.7079883 17.7953092,18.5482531 17.7135417,19.6354167 L17.7083333,19.7916667 L17.7083333,25 L15.625,25 L15.625,19.7916667 C15.6249983,17.5714569 17.3659005,15.7412188 19.5833333,15.6302083 L19.7916667,15.625 L25,15.625 Z" id="路径"></path>
            </g>
            <rect id="矩形" stroke="#979797" fill="#FFFFFF" x="0.5" y="0.5" width="31" height="15" rx="2"></rect>
            <path d="M8.912,5.248 L10.336,5.248 L10.336,4.04 L10.896,4.04 L10.896,5.248 L12.6,5.248 L12.6,7.664 L13.224,7.664 L13.224,8.224 L11.04,8.224 C11.536,9.312 12.328,10.192 13.408,10.864 L13.016,11.312 C11.928,10.568 11.128,9.632 10.624,8.496 C10.264,9.776 9.552,10.712 8.488,11.32 L8.136,10.848 C9.16,10.304 9.832,9.432 10.136,8.224 L8.584,8.224 L8.584,7.664 L10.248,7.664 C10.304,7.296 10.336,6.896 10.336,6.48 L10.336,5.784 L8.912,5.784 L8.912,5.248 Z M10.896,5.784 L10.896,6.36 C10.896,6.824 10.864,7.256 10.8,7.664 L12.04,7.664 L12.04,5.784 L10.896,5.784 Z M6.304,5.568 L6.76,5.6 C6.736,6.4 6.64,7.168 6.472,7.888 L6,7.752 C6.176,7.064 6.28,6.336 6.304,5.568 Z M8.32,5.392 C8.544,5.904 8.736,6.488 8.912,7.152 L8.44,7.264 C8.296,6.664 8.112,6.088 7.888,5.528 L8.32,5.392 Z M7.16,4.048 L7.728,4.048 L7.728,11.328 L7.16,11.328 L7.16,4.048 Z M14.056,8.216 L18.096,8.216 L18.096,8.76 L14.056,8.76 L14.056,8.216 Z M22.32,5.792 C22.072,6.536 21.744,7.144 21.336,7.608 L20.856,7.272 C21.512,6.488 21.936,5.392 22.128,4 L22.704,4.088 C22.64,4.504 22.568,4.888 22.48,5.24 L25.84,5.24 L25.84,5.616 C25.672,6.296 25.456,6.968 25.184,7.632 L24.616,7.472 C24.864,6.976 25.064,6.416 25.224,5.792 L22.32,5.792 Z M23.144,6.336 L23.704,6.336 C23.704,6.768 23.68,7.168 23.64,7.536 C24.12,8.96 24.96,10.088 26.168,10.92 L25.792,11.36 C24.752,10.576 23.984,9.616 23.472,8.464 C23.424,8.664 23.368,8.848 23.304,9.024 C22.96,9.984 22.176,10.768 20.944,11.376 L20.568,10.92 C21.656,10.392 22.376,9.72 22.736,8.92 C22.992,8.24 23.128,7.376 23.144,6.336 Z M19.32,4.368 C19.944,4.992 20.424,5.536 20.76,6 L20.312,6.32 C19.952,5.824 19.464,5.264 18.856,4.656 L19.32,4.368 Z M20.296,7.8 L20.8,7.992 C20.352,9.096 19.856,10.136 19.304,11.104 L18.768,10.864 C19.36,9.864 19.864,8.84 20.296,7.8 Z" id="快-次" fill="#000000" fill-rule="nonzero"></path>
        </g>
    </g>
</svg>