<?xml version="1.0" encoding="UTF-8"?>
<svg width="32px" height="46px" viewBox="0 0 32 46" version="1.1" xmlns="http://www.w3.org/2000/svg" xmlns:xlink="http://www.w3.org/1999/xlink">
    <!-- Generator: Sketch 53.1 (72631) - https://sketchapp.com -->
    <title>快-主交叉口</title>
    <desc>Created with Sketch.</desc>
    <g id="Page-1" stroke="none" stroke-width="1" fill="none" fill-rule="evenodd">
        <g id="快-主交叉口">
            <g id="分组-2" transform="translate(3.000000, 21.000000)" fill-rule="nonzero">
                <path d="M9.28571429,0 L9.28571429,5.15873015 C9.28571601,7.35779508 7.56139375,9.17060231 5.36507937,9.28055556 L5.15873015,9.28571429 L0,9.28571429 L0,7.22222223 L5.15873015,7.22222223 C6.2385811,7.22256397 7.13607472,6.3903017 7.21706348,5.31349206 L7.22222223,5.15873015 L7.22222223,0 L9.28571429,0 Z M5.15873015,15.4761905 C7.35779508,15.4761888 9.17060231,17.200511 9.28055556,19.3968254 L9.28571429,19.6031746 L9.28571429,24.7619048 L7.22222223,24.7619048 L7.22222223,19.6031746 C7.22256397,18.5233237 6.3903017,17.62583 5.31349206,17.5448413 L5.15873015,17.5396825 L0,17.5396825 L0,15.4761905 L5.15873015,15.4761905 Z M18.7777778,0 L18.7777778,5.15873015 C18.777436,6.2385811 19.6096983,7.13607472 20.6865079,7.21706348 L20.8412698,7.22222223 L26,7.22222223 L26,9.28571429 L20.8412698,9.28571429 C18.6422049,9.28571601 16.8293977,7.56139375 16.7194444,5.36507937 L16.7142857,5.15873015 L16.7142857,0 L18.7777778,0 Z M26,15.4761905 L26,17.5396825 L20.8412698,17.5396825 C19.7614189,17.5393408 18.8639253,18.3716031 18.7829365,19.4484127 L18.7777778,19.6031746 L18.7777778,24.7619048 L16.7142857,24.7619048 L16.7142857,19.6031746 C16.714284,17.4041097 18.4386062,15.5913025 20.6349206,15.4813492 L20.8412698,15.4761905 L26,15.4761905 Z" id="形状" fill="#122236"></path>
                <path d="M12.9001048,15.8403298 C11.2590301,15.8403298 9.92867626,14.5099759 9.92867626,12.8689013 C9.92867626,11.2278266 11.2590301,9.89747268 12.9001048,9.89747268 C14.5411795,9.89747268 15.8715334,11.2278266 15.8715334,12.8689013 C15.8715334,14.5099759 14.5411795,15.8403298 12.9001048,15.8403298 Z" id="形状" fill="#000000" transform="translate(12.900105, 12.868901) rotate(-45.000000) translate(-12.900105, -12.868901) "></path>
            </g>
            <rect id="矩形" stroke="#979797" fill="#FFFFFF" x="0.5" y="0.5" width="31" height="15" rx="2"></rect>
            <path d="M9.216,5.688 L10.64,5.688 L10.64,4.48 L11.2,4.48 L11.2,5.688 L12.904,5.688 L12.904,8.104 L13.528,8.104 L13.528,8.664 L11.344,8.664 C11.84,9.752 12.632,10.632 13.712,11.304 L13.32,11.752 C12.232,11.008 11.432,10.072 10.928,8.936 C10.568,10.216 9.856,11.152 8.792,11.76 L8.44,11.288 C9.464,10.744 10.136,9.872 10.44,8.664 L8.888,8.664 L8.888,8.104 L10.552,8.104 C10.608,7.736 10.64,7.336 10.64,6.92 L10.64,6.224 L9.216,6.224 L9.216,5.688 Z M11.2,6.224 L11.2,6.8 C11.2,7.264 11.168,7.696 11.104,8.104 L12.344,8.104 L12.344,6.224 L11.2,6.224 Z M6.608,6.008 L7.064,6.04 C7.04,6.84 6.944,7.608 6.776,8.328 L6.304,8.192 C6.48,7.504 6.584,6.776 6.608,6.008 Z M8.624,5.832 C8.848,6.344 9.04,6.928 9.216,7.592 L8.744,7.704 C8.6,7.104 8.416,6.528 8.192,5.968 L8.624,5.832 Z M7.464,4.488 L8.032,4.488 L8.032,11.768 L7.464,11.768 L7.464,4.488 Z M14.36,8.656 L18.4,8.656 L18.4,9.2 L14.36,9.2 L14.36,8.656 Z M22.472,6.392 L19.496,6.392 L19.496,5.824 L22.52,5.824 C22.384,5.4 22.216,4.992 22.024,4.6 L22.584,4.448 C22.784,4.904 22.936,5.32 23.048,5.704 L22.736,5.824 L26.032,5.824 L26.032,6.392 L23.056,6.392 L23.056,8.28 L25.648,8.28 L25.648,8.816 L23.056,8.816 L23.056,10.96 L26.312,10.96 L26.312,11.528 L19.216,11.528 L19.216,10.96 L22.472,10.96 L22.472,8.816 L19.88,8.816 L19.88,8.28 L22.472,8.28 L22.472,6.392 Z" id="快-主" fill="#000000" fill-rule="nonzero"></path>
        </g>
    </g>
</svg>