<?xml version="1.0" encoding="UTF-8"?>
<svg width="32px" height="45px" viewBox="0 0 32 45" version="1.1" xmlns="http://www.w3.org/2000/svg" xmlns:xlink="http://www.w3.org/1999/xlink">
    <!-- Generator: Sketch 53.1 (72631) - https://sketchapp.com -->
    <title>快-省交叉口</title>
    <desc>Created with Sketch.</desc>
    <g id="Page-1" stroke="none" stroke-width="1" fill="none" fill-rule="evenodd">
        <g id="快-省交叉口">
            <rect id="矩形" stroke="#979797" fill="#FFFFFF" x="0.5" y="0.5" width="31" height="15" rx="2"></rect>
            <path d="M8.912,5.24 L10.336,5.24 L10.336,4.032 L10.896,4.032 L10.896,5.24 L12.6,5.24 L12.6,7.656 L13.224,7.656 L13.224,8.216 L11.04,8.216 C11.536,9.304 12.328,10.184 13.408,10.856 L13.016,11.304 C11.928,10.56 11.128,9.624 10.624,8.488 C10.264,9.768 9.552,10.704 8.488,11.312 L8.136,10.84 C9.16,10.296 9.832,9.424 10.136,8.216 L8.584,8.216 L8.584,7.656 L10.248,7.656 C10.304,7.288 10.336,6.888 10.336,6.472 L10.336,5.776 L8.912,5.776 L8.912,5.24 Z M10.896,5.776 L10.896,6.352 C10.896,6.816 10.864,7.248 10.8,7.656 L12.04,7.656 L12.04,5.776 L10.896,5.776 Z M6.304,5.56 L6.76,5.592 C6.736,6.392 6.64,7.16 6.472,7.88 L6,7.744 C6.176,7.056 6.28,6.328 6.304,5.56 Z M8.32,5.384 C8.544,5.896 8.736,6.48 8.912,7.144 L8.44,7.256 C8.296,6.656 8.112,6.08 7.888,5.52 L8.32,5.384 Z M7.16,4.04 L7.728,4.04 L7.728,11.32 L7.16,11.32 L7.16,4.04 Z M14.056,8.208 L18.096,8.208 L18.096,8.752 L14.056,8.752 L14.056,8.208 Z M22.072,4 L22.64,4 L22.64,6.048 L22.072,6.048 L22.072,4 Z M20.248,7.52 C19.872,7.6 19.488,7.68 19.088,7.752 L18.848,7.232 C21.32,6.832 23.2,6.184 24.496,5.296 C24.208,5.064 23.904,4.832 23.576,4.6 L23.96,4.232 C24.8,4.816 25.504,5.4 26.08,5.976 L25.68,6.384 C25.456,6.136 25.192,5.888 24.904,5.64 C24.104,6.208 23.112,6.68 21.936,7.064 L25.12,7.064 L25.12,11.328 L24.56,11.328 L24.56,10.968 L20.808,10.968 L20.808,11.344 L20.248,11.344 L20.248,7.52 Z M20.808,10.456 L24.56,10.456 L24.56,9.768 L20.808,9.768 L20.808,10.456 Z M20.808,9.304 L24.56,9.304 L24.56,8.664 L20.808,8.664 L20.808,9.304 Z M20.808,8.2 L24.56,8.2 L24.56,7.552 L20.808,7.552 L20.808,8.2 Z M20.8,4.456 L21.208,4.816 C20.728,5.408 20.136,5.928 19.432,6.376 L19.096,5.944 C19.776,5.512 20.344,5.016 20.8,4.456 Z" id="快-省" fill="#000000" fill-rule="nonzero"></path>
            <g id="单点信号交叉口运行评价模型" transform="translate(3.000000, 19.000000)" fill="#000000" fill-rule="nonzero">
                <path d="M12.65625,0 L13.428125,0 L13.428125,6.896875 L12.65625,6.896875 L12.65625,0 Z M0,12.56875 L6.184375,12.56875 L6.184375,13.340625 L0,13.340625 L0,12.56875 Z M19.428125,12.56875 L25.9375,12.56875 L25.9375,13.340625 L19.428125,13.340625 L19.428125,12.56875 Z M9.96875,17.38125 L10.740625,17.38125 L10.740625,18.678125 L9.96875,18.678125 L9.96875,17.38125 Z M11.303125,17.38125 L12.075,17.38125 L12.075,18.678125 L11.303125,18.678125 L11.303125,17.38125 Z M12.65625,19.271875 L13.428125,19.271875 L13.428125,25.946875 L12.65625,25.946875 L12.65625,19.271875 Z M12.65625,17.38125 L13.428125,17.38125 L13.428125,18.678125 L12.65625,18.678125 L12.65625,17.38125 Z M13.940625,17.38125 L14.7125,17.38125 L14.7125,18.678125 L13.940625,18.678125 L13.940625,17.38125 Z M15.278125,17.38125 L16.05,17.38125 L16.05,18.678125 L15.278125,18.678125 L15.278125,17.38125 Z M9.9875,7.45 L10.759375,7.45 L10.759375,8.746875 L9.9875,8.746875 L9.9875,7.45 Z M11.321875,7.45 L12.09375,7.45 L12.09375,8.746875 L11.321875,8.746875 L11.321875,7.45 Z M12.65625,7.45 L13.428125,7.45 L13.428125,8.746875 L12.65625,8.746875 L12.65625,7.45 Z M13.95625,7.45 L14.728125,7.45 L14.728125,8.746875 L13.95625,8.746875 L13.95625,7.45 Z M15.29375,7.45 L16.065625,7.45 L16.065625,8.746875 L15.29375,8.746875 L15.29375,7.45 Z M17.203125,15.240625 L18.5,15.240625 L18.5,16.0125 L17.203125,16.0125 L17.203125,15.240625 Z M17.203125,13.90625 L18.5,13.90625 L18.5,14.678125 L17.203125,14.678125 L17.203125,13.90625 Z M17.203125,12.56875 L18.5,12.56875 L18.5,13.340625 L17.203125,13.340625 L17.203125,12.56875 Z M17.203125,11.26875 L18.5,11.26875 L18.5,12.040625 L17.203125,12.040625 L17.203125,11.26875 Z M17.203125,9.934375 L18.5,9.934375 L18.5,10.70625 L17.203125,10.70625 L17.203125,9.934375 Z M7.125,15.240625 L8.421875,15.240625 L8.421875,16.0125 L7.125,16.0125 L7.125,15.240625 Z M7.125,13.90625 L8.421875,13.90625 L8.421875,14.678125 L7.125,14.678125 L7.125,13.90625 Z M7.125,12.56875 L8.421875,12.56875 L8.421875,13.340625 L7.125,13.340625 L7.125,12.56875 Z M7.125,11.26875 L8.421875,11.26875 L8.421875,12.040625 L7.125,12.040625 L7.125,11.26875 Z M7.125,9.934375 L8.421875,9.934375 L8.421875,10.70625 L7.125,10.70625 L7.125,9.934375 Z M9.35625,0 L9.35625,8.146875 C9.35625,8.8125 8.8125,9.35625 8.146875,9.35625 L0,9.35625 L0,8.284375 L7.765625,8.284375 C8.053125,8.284375 8.284375,8.05 8.284375,7.765625 L8.284375,0 L9.35625,0 L9.35625,0 Z M9.35625,17.796875 L9.35625,25.94375 L8.284375,25.94375 L8.284375,18.178125 C8.284375,17.89375 8.053125,17.659375 7.765625,17.659375 L0,17.659375 L0,16.5875 L8.146875,16.5875 C8.8125,16.5875 9.35625,17.13125 9.35625,17.796875 L9.35625,17.796875 Z M25.9375,16.5875 L25.9375,17.659375 L18.171875,17.659375 C17.8875,17.659375 17.653125,17.89375 17.653125,18.178125 L17.653125,25.94375 L16.58125,25.94375 L16.58125,17.796875 C16.58125,17.13125 17.125,16.5875 17.790625,16.5875 L25.9375,16.5875 Z M25.9375,8.284375 L25.9375,9.35625 L17.790625,9.35625 C17.125,9.35625 16.58125,8.8125 16.58125,8.146875 L16.58125,0 L17.653125,0 L17.653125,7.765625 C17.653125,8.05 17.8875,8.284375 18.171875,8.284375 L25.9375,8.284375 Z" id="形状"></path>
            </g>
        </g>
    </g>
</svg>