<?xml version="1.0" encoding="UTF-8"?>
<svg width="32px" height="49px" viewBox="0 0 32 49" version="1.1" xmlns="http://www.w3.org/2000/svg" xmlns:xlink="http://www.w3.org/1999/xlink">
    <!-- Generator: Sketch 53.1 (72631) - https://sketchapp.com -->
    <title>快-县交叉口</title>
    <desc>Created with Sketch.</desc>
    <g id="Page-1" stroke="none" stroke-width="1" fill="none" fill-rule="evenodd">
        <g id="快-县交叉口" transform="translate(-3.000000, 0.000000)">
            <rect id="矩形" stroke="#979797" fill="#FFFFFF" x="3.5" y="0.5" width="31" height="15" rx="2"></rect>
            <path d="M11.912,5.208 L13.336,5.208 L13.336,4 L13.896,4 L13.896,5.208 L15.6,5.208 L15.6,7.624 L16.224,7.624 L16.224,8.184 L14.04,8.184 C14.536,9.272 15.328,10.152 16.408,10.824 L16.016,11.272 C14.928,10.528 14.128,9.592 13.624,8.456 C13.264,9.736 12.552,10.672 11.488,11.28 L11.136,10.808 C12.16,10.264 12.832,9.392 13.136,8.184 L11.584,8.184 L11.584,7.624 L13.248,7.624 C13.304,7.256 13.336,6.856 13.336,6.44 L13.336,5.744 L11.912,5.744 L11.912,5.208 Z M13.896,5.744 L13.896,6.32 C13.896,6.784 13.864,7.216 13.8,7.624 L15.04,7.624 L15.04,5.744 L13.896,5.744 Z M9.304,5.528 L9.76,5.56 C9.736,6.36 9.64,7.128 9.472,7.848 L9,7.712 C9.176,7.024 9.28,6.296 9.304,5.528 Z M11.32,5.352 C11.544,5.864 11.736,6.448 11.912,7.112 L11.44,7.224 C11.296,6.624 11.112,6.048 10.888,5.488 L11.32,5.352 Z M10.16,4.008 L10.728,4.008 L10.728,11.288 L10.16,11.288 L10.16,4.008 Z M17.056,8.176 L21.096,8.176 L21.096,8.72 L17.056,8.72 L17.056,8.176 Z M21.808,8.528 L23.344,8.528 L23.344,4.296 L27.8,4.296 L27.8,8.528 L29.08,8.528 L29.08,9.08 L24.768,9.08 C24.424,9.672 24.016,10.184 23.552,10.632 C24.856,10.56 26.096,10.44 27.28,10.28 C27.056,10.024 26.816,9.76 26.56,9.488 L27.008,9.208 C27.704,9.896 28.24,10.504 28.608,11.024 L28.12,11.368 C27.976,11.16 27.824,10.944 27.648,10.72 C26.384,10.912 24.776,11.064 22.832,11.176 L22.664,10.664 C22.808,10.632 22.904,10.584 22.968,10.52 C23.432,10.056 23.824,9.576 24.128,9.08 L21.808,9.08 L21.808,8.528 Z M27.224,8.528 L27.224,7.64 L23.912,7.64 L23.912,8.528 L27.224,8.528 Z M23.912,7.112 L27.224,7.112 L27.224,6.256 L23.912,6.256 L23.912,7.112 Z M23.912,5.728 L27.224,5.728 L27.224,4.832 L23.912,4.832 L23.912,5.728 Z" id="快-县" fill="#000000" fill-rule="nonzero"></path>
            <path d="M18.3660198,29.9075581 C18.5334491,30.0780585 18.762383,30.1741071 19.0013453,30.1741071 C19.2403075,30.1741071 19.4692414,30.0780585 19.6366707,29.9075581 L19.6480448,29.8945591 L20.4864794,29.0561245 L26.9957215,22.5371331 C27.2508104,22.2797909 27.3267359,21.8945892 27.1883799,21.5596968 C27.0500239,21.2248044 26.7243609,21.0055132 26.362021,21.0032528 C26.1239226,21.0018952 25.8953828,21.0968271 25.7283204,21.2664823 L19.2044544,27.7757244 L19.0013453,27.9788336 L12.2857442,21.2632325 C12.1182635,21.0941987 11.8899971,20.9993803 11.6520437,21.000003 C11.4120082,20.9995717 11.1816327,21.094512 11.0115972,21.263938 C10.8415618,21.4333639 10.745795,21.6633971 10.7453644,21.9034326 C10.7453644,22.1422889 10.8379822,22.3697712 11.0085939,22.5403829 L18.3676447,29.9075581 L18.3660198,29.9075581 Z M19.6366707,38.1001689 C19.4703025,37.9281185 19.2406697,37.8318019 19.0013453,37.8336897 C18.7630094,37.8327598 18.5344354,37.9282921 18.3676447,38.098544 L17.5162111,38.9483527 L11.3173198,45.1553684 C11.0628832,45.4147994 10.9882778,45.8012501 11.1278619,46.1367478 C11.2674459,46.4722455 11.5941513,46.6917306 11.9575198,46.6941234 C12.1956182,46.6954809 12.424158,46.600549 12.5912204,46.4308939 L18.9980955,40.0272685 L25.4049707,46.4341437 C25.57206,46.6040438 25.8003754,46.6997326 26.0386712,46.6997326 C26.2769671,46.6997326 26.5052824,46.6040438 26.6723718,46.4341437 L26.6837459,46.4211447 C27.0345883,46.0702483 27.0345883,45.5013901 26.6837459,45.1504938 L19.6350458,38.098544 L19.6366707,38.1001689 Z M14.9066647,34.6391889 C15.2564255,34.2884793 15.2564255,33.7208725 14.9066647,33.3701629 L14.8936658,33.3571639 C14.8770904,33.3401265 14.8597401,33.3238606 14.8416698,33.3084177 L7.54273928,26.012737 C7.37289479,25.8435187 7.14256268,25.7490466 6.90281184,25.7502667 C6.66306099,25.7514868 6.43370234,25.8482983 6.26558892,26.0192364 C6.09568878,26.1863258 6,26.4146412 6,26.652937 C6,26.8912328 6.09568878,27.1195482 6.26558892,27.2866376 L12.9763153,33.997364 L12.7732062,34.202098 L6.58081433,40.4091137 C6.32457618,40.6663099 6.24792103,41.0522583 6.38642148,41.3878556 C6.52492192,41.7234528 6.85146494,41.9430019 7.21451489,41.9446189 C7.45189323,41.9455604 7.67989316,41.8520219 7.84821545,41.6846392 L14.0487317,35.4938722 L14.9066647,34.6408138 L14.9066647,34.6391889 Z M31.7484757,26.5993162 C31.5882079,26.4374449 31.3700496,26.346101 31.1422608,26.3454912 C30.914472,26.3448813 30.6958278,26.4350557 30.5346954,26.5960664 L24.2480609,32.869702 L23.4274999,33.6967624 C23.0985891,34.0307185 23.0985891,34.5668374 23.4274999,34.9007935 L23.4372492,34.9105427 L24.2448112,35.7229793 L30.2292193,41.6960133 C30.389546,41.8591564 30.6088702,41.9507794 30.8376057,41.9501678 C31.0663413,41.9495562 31.2851724,41.8567616 31.4446244,41.6927636 C31.6071081,41.533488 31.6989346,41.315707 31.6995455,41.0881783 C31.7001563,40.8606496 31.6095004,40.6423787 31.4478742,40.482233 L25.2668564,34.2947158 L31.7501006,27.8114716 C32.0839331,27.4761114 32.0832061,26.9337802 31.7484757,26.5993162 L31.7484757,26.5993162 Z M12.1200072,40.1767569 L11.5366777,40.7617112 C11.3032538,40.9962597 11.3032538,41.3753465 11.5366777,41.609895 C11.7712262,41.8433189 12.150313,41.8433189 12.3848615,41.609895 L12.9698159,41.0249407 C13.2032397,40.7903922 13.2032397,40.4113054 12.9698159,40.1767569 C12.7350797,39.9422529 12.3547433,39.9422529 12.1200072,40.1767569 L12.1200072,40.1767569 Z M14.7165546,37.5769597 L14.1316002,38.1619141 C13.8981764,38.3964626 13.8981764,38.7755494 14.1316002,39.0100979 C14.3663364,39.2446019 14.7466727,39.2446019 14.9814089,39.0100979 L15.5647384,38.4251435 C15.7970862,38.1907851 15.7970862,37.812943 15.5647384,37.5785846 C15.3301899,37.3451607 14.9511031,37.3451607 14.7165546,37.5785846 L14.7165546,37.5769597 Z M24.0238284,29.9693033 C24.2572523,29.7347548 24.2572523,29.3556679 24.0238284,29.1211194 C23.78947,28.8887716 23.4116279,28.8887716 23.1772695,29.1211194 L22.5923151,29.702824 C22.3599672,29.9371825 22.3599672,30.3150246 22.5923151,30.549383 C22.8268636,30.7828069 23.2059504,30.7828069 23.4404989,30.549383 L24.0254533,29.9693033 L24.0238284,29.9693033 Z M25.9720514,26.3360867 L25.387097,26.9194162 C25.1536732,27.1539647 25.1536732,27.5330515 25.387097,27.7676 C25.6216455,28.0010239 26.0007324,28.0010239 26.2352809,27.7676 L26.8202352,27.1826457 C27.0525831,26.9482873 27.0525831,26.5704451 26.8202352,26.3360867 C26.5856867,26.1026629 26.2065999,26.1026629 25.9720514,26.3360867 L25.9720514,26.3360867 Z M26.503385,40.4351117 C26.2688365,40.2016878 25.8897496,40.2016878 25.6552011,40.4351117 C25.4217773,40.6696602 25.4217773,41.048747 25.6552011,41.2832955 L26.2401555,41.8682499 C26.4745139,42.1005977 26.852356,42.1005977 27.0867144,41.8682499 C27.3212184,41.6335137 27.3212184,41.2531774 27.0867144,41.0184412 L26.5017601,40.4351117 L26.503385,40.4351117 Z M23.0489045,38.6834984 L23.6338588,39.2684527 C23.8682172,39.5008006 24.2460594,39.5008006 24.4804178,39.2684527 C24.7138416,39.0339042 24.7138416,38.6548174 24.4804178,38.4202689 L23.8970883,37.8353145 C23.6625398,37.6018907 23.283453,37.6018907 23.0489045,37.8353145 C22.8154806,38.069863 22.8154806,38.4489499 23.0489045,38.6834984 Z M15.6606059,29.5972073 L15.0756516,29.0122529 C14.8414856,28.780977 14.4648834,28.780977 14.2307175,29.0122529 C13.9972936,29.2468014 13.9972936,29.6258882 14.2307175,29.8604367 L14.8124221,30.4453911 C15.0469706,30.678815 15.4260574,30.678815 15.6606059,30.4453911 C15.7739296,30.3333667 15.8377045,30.180647 15.8377045,30.0212992 C15.8377045,29.8619514 15.7739296,29.7092317 15.6606059,29.5972073 L15.6606059,29.5972073 Z M11.4359355,26.23047 C11.2035877,26.4648284 11.2035877,26.8426705 11.4359355,27.0770289 L12.0208899,27.6619833 C12.2554384,27.8954071 12.6345252,27.8954071 12.8690737,27.6619833 C13.1024976,27.4274348 13.1024976,27.048348 12.8690737,26.8137995 L12.2841194,26.2288451 C12.0497609,25.9964972 11.6719188,25.9964972 11.4375604,26.2288451 L11.4359355,26.23047 Z" id="形状" fill="#262626" fill-rule="nonzero" transform="translate(19.000000, 33.849866) rotate(-45.000000) translate(-19.000000, -33.849866) "></path>
        </g>
    </g>
</svg>