<?xml version="1.0" encoding="UTF-8"?>
<svg width="36px" height="48px" viewBox="0 0 36 48" version="1.1" xmlns="http://www.w3.org/2000/svg" xmlns:xlink="http://www.w3.org/1999/xlink">
    <!-- Generator: Sketch 53.1 (72631) - https://sketchapp.com -->
    <title>快-其它交叉口</title>
    <desc>Created with Sketch.</desc>
    <g id="Page-1" stroke="none" stroke-width="1" fill="none" fill-rule="evenodd">
        <g id="快-其它交叉口">
            <rect id="矩形" stroke="#979797" fill="#FFFFFF" x="0.5" y="0.5" width="35" height="15" rx="2"></rect>
            <path d="M7.216,5.688 L8.64,5.688 L8.64,4.48 L9.2,4.48 L9.2,5.688 L10.904,5.688 L10.904,8.104 L11.528,8.104 L11.528,8.664 L9.344,8.664 C9.84,9.752 10.632,10.632 11.712,11.304 L11.32,11.752 C10.232,11.008 9.432,10.072 8.928,8.936 C8.568,10.216 7.856,11.152 6.792,11.76 L6.44,11.288 C7.464,10.744 8.136,9.872 8.44,8.664 L6.888,8.664 L6.888,8.104 L8.552,8.104 C8.608,7.736 8.64,7.336 8.64,6.92 L8.64,6.224 L7.216,6.224 L7.216,5.688 Z M9.2,6.224 L9.2,6.8 C9.2,7.264 9.168,7.696 9.104,8.104 L10.344,8.104 L10.344,6.224 L9.2,6.224 Z M4.608,6.008 L5.064,6.04 C5.04,6.84 4.944,7.608 4.776,8.328 L4.304,8.192 C4.48,7.504 4.584,6.776 4.608,6.008 Z M6.624,5.832 C6.848,6.344 7.04,6.928 7.216,7.592 L6.744,7.704 C6.6,7.104 6.416,6.528 6.192,5.968 L6.624,5.832 Z M5.464,4.488 L6.032,4.488 L6.032,11.768 L5.464,11.768 L5.464,4.488 Z M12.36,8.656 L16.4,8.656 L16.4,9.2 L12.36,9.2 L12.36,8.656 Z M17.32,5.168 L18.672,5.168 L18.672,4.432 L19.256,4.432 L19.256,5.168 L22.264,5.168 L22.264,4.432 L22.848,4.432 L22.848,5.168 L24.2,5.168 L24.2,5.712 L22.848,5.712 L22.848,9.376 L24.352,9.376 L24.352,9.912 L17.176,9.912 L17.176,9.376 L18.672,9.376 L18.672,5.712 L17.32,5.712 L17.32,5.168 Z M19.256,9.376 L22.264,9.376 L22.264,8.464 L19.256,8.464 L19.256,9.376 Z M19.256,7.968 L22.264,7.968 L22.264,7.08 L19.256,7.08 L19.256,7.968 Z M19.256,6.584 L22.264,6.584 L22.264,5.712 L19.256,5.712 L19.256,6.584 Z M19.672,10.104 L20.08,10.472 C19.424,10.968 18.616,11.4 17.656,11.776 L17.296,11.312 C18.24,10.96 19.032,10.56 19.672,10.104 Z M21.784,10.128 C22.68,10.448 23.496,10.832 24.232,11.288 L23.912,11.776 C23.128,11.264 22.32,10.856 21.496,10.56 L21.784,10.128 Z M32.104,5.328 L32.104,6.88 L31.52,6.88 L31.52,5.888 L25.92,5.888 L25.92,6.88 L25.336,6.88 L25.336,5.328 L28.512,5.328 C28.408,5.04 28.296,4.768 28.168,4.52 L28.792,4.424 C28.904,4.696 29.016,4.992 29.112,5.328 L32.104,5.328 Z M30.856,7.408 L31.248,7.864 C30.16,8.376 28.808,8.808 27.2,9.152 L27.2,10.576 C27.2,10.864 27.328,11.016 27.6,11.016 L30.456,11.016 C30.744,11.016 30.952,10.96 31.072,10.848 C31.24,10.704 31.352,10.296 31.4,9.624 L31.952,9.8 C31.872,10.64 31.712,11.152 31.488,11.336 C31.296,11.496 30.984,11.576 30.56,11.576 L27.424,11.576 C26.88,11.576 26.616,11.28 26.616,10.696 L26.616,6.6 L27.2,6.6 L27.2,8.584 C28.656,8.264 29.88,7.872 30.856,7.408 Z" id="快-其它" fill="#000000" fill-rule="nonzero"></path>
            <g id="交叉口分析" transform="translate(5.000000, 22.000000)" fill="#000000" fill-rule="nonzero">
                <path d="M23.6860625,6.48 C21.6797188,6.48 19.9945313,7.85209375 19.5166875,9.70865625 L11.1495938,9.70865625 L7.99740625,6.55678125 C8.39178125,5.90665625 8.61884375,5.14375 8.61884375,4.32778125 C8.61884375,1.9505 6.69146875,0.02284375 4.31440625,0.02284375 C1.93734375,0.02284375 0.0094375,1.9505 0.0094375,4.32778125 C0.0094375,6.705125 1.937375,8.63221875 4.31440625,8.63221875 C5.09496875,8.63221875 5.8270625,8.424375 6.458375,8.0610625 L9.69525,11.2975938 L9.69525,17.3777813 C7.83825,17.855625 6.466625,19.541125 6.466625,21.546625 C6.466625,23.9242188 8.3935,25.8521563 10.771625,25.8521563 C13.1486875,25.8521563 15.0760938,23.9242188 15.0760938,21.546625 C15.0760938,19.5410625 13.7040312,17.855625 11.8475,17.3777812 L11.8475,11.8608125 L19.5165625,11.8608125 C19.99425,13.7175 21.6795,15.0894375 23.6860625,15.0894375 C26.0630625,15.0894375 27.9904375,13.1623125 27.9904375,10.785 C27.9905,8.4076875 26.0630625,6.48 23.6860625,6.48 Z M4.3144375,6.48 C3.1256875,6.48 2.1616875,5.5163125 2.1616875,4.3278125 C2.1616875,3.139 3.12565625,2.17503125 4.3144375,2.17503125 C5.50271875,2.17503125 6.46665625,3.139 6.46665625,4.32778125 C6.46665625,5.5163125 5.50271875,6.48003125 4.3144375,6.48003125 L4.3144375,6.48 Z M12.9238437,21.546625 C12.9238437,22.7357188 11.959875,23.6993438 10.7716562,23.6993438 C9.58284375,23.6993438 8.61884375,22.7356875 8.61884375,21.546625 C8.61884375,20.358375 9.58284375,19.3944063 10.7716562,19.3944063 C11.959875,19.3944063 12.9238437,20.358375 12.9238437,21.546625 Z M23.6860312,12.9372187 C22.4972187,12.9372187 21.5332812,11.9734688 21.5332812,10.7850312 C21.5332812,9.59621875 22.49725,8.63221875 23.6860625,8.63221875 C24.8742812,8.63221875 25.83825,9.59621875 25.83825,10.7850312 C25.83825,11.9735 24.8743125,12.9372187 23.6860625,12.9372187 L23.6860312,12.9372187 Z" id="形状"></path>
            </g>
        </g>
    </g>
</svg>