<?xml version="1.0" encoding="UTF-8"?>
<svg width="36px" height="47px" viewBox="0 0 36 47" version="1.1" xmlns="http://www.w3.org/2000/svg" xmlns:xlink="http://www.w3.org/1999/xlink">
    <!-- Generator: Sketch 53.1 (72631) - https://sketchapp.com -->
    <title>支-小路交叉口</title>
    <desc>Created with Sketch.</desc>
    <g id="Page-1" stroke="none" stroke-width="1" fill="none" fill-rule="evenodd">
        <g id="支-小路交叉口">
            <rect id="矩形" stroke="#979797" fill="#FFFFFF" x="0.5" y="0.5" width="35" height="15" rx="2"></rect>
            <path d="M7.288,4.016 L7.88,4.016 L7.88,5.064 L11.024,5.064 L11.024,5.624 L7.88,5.624 L7.88,6.848 L10.032,6.848 L10.032,7.36 C9.584,8.256 8.936,9.024 8.088,9.664 C8.488,9.888 8.928,10.104 9.408,10.296 C9.976,10.512 10.584,10.696 11.232,10.856 L10.896,11.36 C10.208,11.176 9.552,10.952 8.936,10.696 C8.448,10.488 8,10.256 7.6,10 C6.688,10.576 5.6,11.032 4.328,11.376 L4,10.864 C5.216,10.576 6.256,10.176 7.12,9.664 C6.704,9.352 6.336,8.992 6.024,8.592 C5.736,8.224 5.528,7.816 5.4,7.384 L4.784,7.384 L4.784,6.848 L7.288,6.848 L7.288,5.624 L4.176,5.624 L4.176,5.064 L7.288,5.064 L7.288,4.016 Z M7.592,9.352 C8.368,8.808 8.968,8.152 9.384,7.384 L5.968,7.384 C6.112,7.808 6.336,8.184 6.64,8.512 C6.92,8.832 7.24,9.112 7.592,9.352 Z M11.96,8.208 L16,8.208 L16,8.752 L11.96,8.752 L11.96,8.208 Z M19.976,11.264 L18.752,11.264 L18.616,10.664 C19.016,10.696 19.4,10.712 19.76,10.712 C20.056,10.712 20.208,10.56 20.208,10.264 L20.208,4.136 L20.8,4.136 L20.8,10.416 C20.8,10.976 20.52,11.264 19.976,11.264 Z M18.064,5.992 L18.64,6.216 C18.256,7.816 17.752,9.032 17.128,9.864 L16.632,9.424 C17.272,8.576 17.744,7.432 18.064,5.992 Z M22.608,5.8 C23.24,7.232 23.728,8.48 24.064,9.544 L23.552,9.904 C23.192,8.768 22.704,7.512 22.088,6.128 L22.608,5.8 Z M25.048,4.336 L27.512,4.336 L27.512,6.848 L26.712,6.848 L26.712,8.136 L27.544,8.136 L27.544,8.68 L26.712,8.68 L26.712,10.168 C27.064,10.056 27.408,9.944 27.728,9.824 L27.728,10.4 C26.896,10.712 25.92,11 24.808,11.264 L24.648,10.704 L25.072,10.608 L25.072,7.704 L25.584,7.704 L25.584,10.48 C25.784,10.432 25.984,10.376 26.176,10.328 L26.176,6.848 L25.048,6.848 L25.048,4.336 Z M26.96,6.32 L26.96,4.864 L25.608,4.864 L25.608,6.32 L26.96,6.32 Z M31.328,8.36 L31.328,11.328 L30.776,11.328 L30.776,10.976 L28.76,10.976 L28.76,11.328 L28.208,11.328 L28.208,8.36 L31.328,8.36 Z M28.76,10.448 L30.776,10.448 L30.776,8.88 L28.76,8.88 L28.76,10.448 Z M29.024,4 L29.576,4.104 C29.512,4.304 29.44,4.496 29.36,4.688 L31.344,4.688 L31.344,5.104 C31.072,5.776 30.672,6.368 30.152,6.88 C30.68,7.312 31.32,7.648 32.064,7.88 L31.736,8.352 C30.944,8.096 30.28,7.728 29.744,7.248 C29.2,7.688 28.56,8.064 27.808,8.384 L27.464,7.92 C28.2,7.624 28.824,7.272 29.352,6.856 C29.064,6.544 28.824,6.208 28.624,5.84 C28.416,6.08 28.184,6.296 27.928,6.504 L27.584,6.048 C28.288,5.496 28.768,4.816 29.024,4 Z M28.952,5.4 C29.168,5.816 29.432,6.192 29.752,6.512 C30.16,6.112 30.488,5.68 30.736,5.2 L29.088,5.2 C29.04,5.264 29,5.336 28.952,5.4 Z" id="支-小路" fill="#000000" fill-rule="nonzero"></path>
            <g id="7交叉口" transform="translate(4.000000, 19.000000)" fill="#666666" fill-rule="nonzero">
                <path d="M27.1870968,14.9145161 L20.7741935,14.9145161 C20.3225806,14.9145161 19.9612903,14.5532258 19.9612903,14.1016129 C19.9612903,13.65 20.3225806,13.2887097 20.7741935,13.2887097 L27.1870968,13.2887097 C27.6387097,13.2887097 28,13.65 28,14.1016129 C28,14.5532258 27.6387097,14.9145161 27.1870968,14.9145161 Z M7.22580645,14.9145161 L0.812903226,14.9145161 C0.361290323,14.9145161 -3.55271368e-15,14.5532258 -3.55271368e-15,14.1016129 C-3.55271368e-15,13.65 0.361290323,13.2887097 0.812903226,13.2887097 L7.22580645,13.2887097 C7.67741935,13.2887097 8.03870968,13.65 8.03870968,14.1016129 C8.03870968,14.5532258 7.67741935,14.9145161 7.22580645,14.9145161 Z M14.8129032,0.824193548 L14.8129032,7.23709677 C14.8129032,7.68870968 14.4516129,8.05 14,8.05 C13.5483871,8.05 13.1870968,7.68870968 13.1870968,7.23709677 L13.1870968,0.824193548 C13.1870968,0.372580645 13.5483871,0.0112903226 14,0.0112903226 C14.4516129,0.0112903226 14.8129032,0.372580645 14.8129032,0.824193548 Z M14.8129032,20.6951613 L14.8129032,27.1080645 C14.8129032,27.5596774 14.4516129,27.9209677 14,27.9209677 C13.5483871,27.9209677 13.1870968,27.5596774 13.1870968,27.1080645 L13.1870968,20.6951613 C13.1870968,20.2435484 13.5483871,19.8822581 14,19.8822581 C14.4516129,19.8822581 14.8129032,20.2435484 14.8129032,20.6951613 Z" id="形状"></path>
            </g>
        </g>
    </g>
</svg>