<?xml version="1.0" encoding="UTF-8"?>
<svg width="32px" height="48px" viewBox="0 0 32 48" version="1.1" xmlns="http://www.w3.org/2000/svg" xmlns:xlink="http://www.w3.org/1999/xlink">
    <!-- Generator: Sketch 53.1 (72631) - https://sketchapp.com -->
    <title>支-支交叉口</title>
    <desc>Created with Sketch.</desc>
    <g id="Page-1" stroke="none" stroke-width="1" fill="none" fill-rule="evenodd">
        <g id="支-支交叉口">
            <rect id="矩形" stroke="#979797" fill="#FFFFFF" x="0.5" y="0.5" width="31" height="15" rx="2"></rect>
            <path d="M9.288,4 L9.88,4 L9.88,5.048 L13.024,5.048 L13.024,5.608 L9.88,5.608 L9.88,6.832 L12.032,6.832 L12.032,7.344 C11.584,8.24 10.936,9.008 10.088,9.648 C10.488,9.872 10.928,10.088 11.408,10.28 C11.976,10.496 12.584,10.68 13.232,10.84 L12.896,11.344 C12.208,11.16 11.552,10.936 10.936,10.68 C10.448,10.472 10,10.24 9.6,9.984 C8.688,10.56 7.6,11.016 6.328,11.36 L6,10.848 C7.216,10.56 8.256,10.16 9.12,9.648 C8.704,9.336 8.336,8.976 8.024,8.576 C7.736,8.208 7.528,7.8 7.4,7.368 L6.784,7.368 L6.784,6.832 L9.288,6.832 L9.288,5.608 L6.176,5.608 L6.176,5.048 L9.288,5.048 L9.288,4 Z M9.592,9.336 C10.368,8.792 10.968,8.136 11.384,7.368 L7.968,7.368 C8.112,7.792 8.336,8.168 8.64,8.496 C8.92,8.816 9.24,9.096 9.592,9.336 Z M13.96,8.192 L18,8.192 L18,8.736 L13.96,8.736 L13.96,8.192 Z M22.048,4 L22.64,4 L22.64,5.048 L25.784,5.048 L25.784,5.608 L22.64,5.608 L22.64,6.832 L24.792,6.832 L24.792,7.344 C24.344,8.24 23.696,9.008 22.848,9.648 C23.248,9.872 23.688,10.088 24.168,10.28 C24.736,10.496 25.344,10.68 25.992,10.84 L25.656,11.344 C24.968,11.16 24.312,10.936 23.696,10.68 C23.208,10.472 22.76,10.24 22.36,9.984 C21.448,10.56 20.36,11.016 19.088,11.36 L18.76,10.848 C19.976,10.56 21.016,10.16 21.88,9.648 C21.464,9.336 21.096,8.976 20.784,8.576 C20.496,8.208 20.288,7.8 20.16,7.368 L19.544,7.368 L19.544,6.832 L22.048,6.832 L22.048,5.608 L18.936,5.608 L18.936,5.048 L22.048,5.048 L22.048,4 Z M22.352,9.336 C23.128,8.792 23.728,8.136 24.144,7.368 L20.728,7.368 C20.872,7.792 21.096,8.168 21.4,8.496 C21.68,8.816 22,9.096 22.352,9.336 Z" id="支-支" fill="#000000" fill-rule="nonzero"></path>
            <g id="通过十字路口能力" transform="translate(2.000000, 20.000000)" fill="#000000" fill-rule="nonzero">
                <path d="M14,0 C14.3568609,2.18514287e-17 14.6461538,0.289292928 14.6461538,0.64615384 L14.6461538,13.4615385 L27.3538462,13.4615385 C27.7107071,13.4615385 28,13.7508314 28,14.1076923 C28,14.4645532 27.7107071,14.7538462 27.3538462,14.7538462 L14.6461538,14.7538462 L14.6461538,27.3538462 C14.6461538,27.7107071 14.3568609,28 14,28 C13.6431391,28 13.3538462,27.7107071 13.3538462,27.3538462 L13.3538462,14.7538462 L0.64615384,14.7538462 C0.289292921,14.7538462 -1.36718744e-08,14.4645532 -1.36718745e-08,14.1076923 C-1.36718745e-08,13.7508314 0.289292921,13.4615385 0.64615384,13.4615385 L13.3538462,13.4615385 L13.3538462,0.64615384 C13.3538462,0.289292928 13.6431391,6.5554286e-17 14,0 Z" id="形状"></path>
            </g>
        </g>
    </g>
</svg>