<?xml version="1.0" encoding="UTF-8"?>
<svg width="32px" height="44px" viewBox="0 0 32 44" version="1.1" xmlns="http://www.w3.org/2000/svg" xmlns:xlink="http://www.w3.org/1999/xlink">
    <!-- Generator: Sketch 53.1 (72631) - https://sketchapp.com -->
    <title>次-乡交叉口</title>
    <desc>Created with Sketch.</desc>
    <g id="Page-1" stroke="none" stroke-width="1" fill="none" fill-rule="evenodd">
        <g id="次-乡交叉口">
            <rect id="矩形" stroke="#979797" fill="#FFFFFF" x="0.5" y="0.5" width="31" height="15" rx="2"></rect>
            <path d="M9.552,5.864 C9.304,6.608 8.976,7.216 8.568,7.68 L8.088,7.344 C8.744,6.56 9.168,5.464 9.36,4.072 L9.936,4.16 C9.872,4.576 9.8,4.96 9.712,5.312 L13.072,5.312 L13.072,5.688 C12.904,6.368 12.688,7.04 12.416,7.704 L11.848,7.544 C12.096,7.048 12.296,6.488 12.456,5.864 L9.552,5.864 Z M10.376,6.408 L10.936,6.408 C10.936,6.84 10.912,7.24 10.872,7.608 C11.352,9.032 12.192,10.16 13.4,10.992 L13.024,11.432 C11.984,10.648 11.216,9.688 10.704,8.536 C10.656,8.736 10.6,8.92 10.536,9.096 C10.192,10.056 9.408,10.84 8.176,11.448 L7.8,10.992 C8.888,10.464 9.608,9.792 9.968,8.992 C10.224,8.312 10.36,7.448 10.376,6.408 Z M6.552,4.44 C7.176,5.064 7.656,5.608 7.992,6.072 L7.544,6.392 C7.184,5.896 6.696,5.336 6.088,4.728 L6.552,4.44 Z M7.528,7.872 L8.032,8.064 C7.584,9.168 7.088,10.208 6.536,11.176 L6,10.936 C6.592,9.936 7.096,8.912 7.528,7.872 Z M14.048,8.288 L18.088,8.288 L18.088,8.832 L14.048,8.832 L14.048,8.288 Z M24.872,7.152 L25.456,7.208 C25.28,8.376 24.744,9.312 23.864,10.016 C23.096,10.648 21.72,11.144 19.752,11.512 L19.504,10.936 C21.312,10.632 22.608,10.192 23.408,9.616 C23.72,9.384 23.984,9.12 24.2,8.832 C23.112,8.984 21.744,9.112 20.08,9.224 L19.904,8.712 C20.72,8.304 21.584,7.68 22.48,6.848 C21.584,6.944 20.688,7.016 19.808,7.056 L19.664,6.544 C20.6,5.824 21.408,4.976 22.096,4 L22.664,4.208 C22.048,5.08 21.328,5.848 20.512,6.512 C21.344,6.472 22.176,6.408 23.008,6.328 C23.384,5.944 23.768,5.52 24.16,5.064 L24.72,5.336 C23.368,6.88 22.16,7.976 21.096,8.632 C22.424,8.536 23.56,8.416 24.52,8.288 C24.68,7.944 24.8,7.568 24.872,7.152 Z" id="次-乡" fill="#000000" fill-rule="nonzero"></path>
            <g id="路口-(2)" transform="translate(3.000000, 18.000000)" fill="#000000" fill-rule="nonzero">
                <path d="M9.94,0.0071875 C9.3875,0.0071875 8.9396875,0.455 8.9396875,1.0075 L8.9396875,8.36875 C8.9396875,8.679375 8.6878125,8.93125 8.3771875,8.93125 L1.0003125,8.93125 C0.4478125,8.93125 0,9.3790625 0,9.9315625 L0,9.944375 C0,10.496875 0.4478125,10.9446875 1.0003125,10.9446875 L10.3775,10.9446875 C10.688125,10.9446875 10.94,10.6928125 10.94,10.3821875 L10.94,1.0071875 C10.9403125,0.455 10.4925,0.0071875 9.94,0.0071875 Z M24.8809375,8.9309375 L17.50375,8.9309375 C17.193125,8.9309375 16.94125,8.6790625 16.94125,8.3684375 L16.94125,1.0071875 C16.94125,0.4546875 16.4934375,0.006875 15.9409375,0.006875 C15.3884375,0.006875 14.940625,0.4546875 14.940625,1.0071875 L14.940625,10.38125 C14.940625,10.691875 15.1925,10.94375 15.503125,10.94375 L24.8803125,10.94375 C25.4328125,10.94375 25.880625,10.4959375 25.880625,9.9434375 L25.880625,9.930625 C25.8809375,9.37875 25.433125,8.9309375 24.8809375,8.9309375 L24.8809375,8.9309375 Z M10.3778125,14.9390625 L1.0003125,14.9390625 C0.4478125,14.9390625 0,15.386875 0,15.939375 L0,15.9521875 C0,16.5046875 0.4478125,16.9525 1.0003125,16.9525 L8.3771875,16.9525 C8.6878125,16.9525 8.9396875,17.204375 8.9396875,17.515 L8.9396875,24.87625 C8.9396875,25.42875 9.3875,25.8765625 9.94,25.8765625 C10.4925,25.8765625 10.9403125,25.42875 10.9403125,24.87625 L10.9403125,15.5015625 C10.9403125,15.190625 10.6884375,14.9390625 10.3778125,14.9390625 L10.3778125,14.9390625 Z M24.8809375,14.9390625 L15.5034375,14.9390625 C15.1928125,14.9390625 14.9409375,15.1909375 14.9409375,15.5015625 L14.9409375,24.875625 C14.9409375,25.428125 15.38875,25.8759375 15.94125,25.8759375 C16.49375,25.8759375 16.9415625,25.428125 16.9415625,24.875625 L16.9415625,17.514375 C16.9415625,17.20375 17.1934375,16.951875 17.5040625,16.951875 L24.8809375,16.951875 C25.4334375,16.951875 25.88125,16.5040625 25.88125,15.9515625 L25.88125,15.93875 C25.8809375,15.386875 25.433125,14.9390625 24.8809375,14.9390625 L24.8809375,14.9390625 Z" id="形状"></path>
            </g>
        </g>
    </g>
</svg>