<?xml version="1.0" encoding="UTF-8"?>
<svg width="36px" height="47px" viewBox="0 0 36 47" version="1.1" xmlns="http://www.w3.org/2000/svg" xmlns:xlink="http://www.w3.org/1999/xlink">
    <!-- Generator: Sketch 53.1 (72631) - https://sketchapp.com -->
    <title>次-小路交叉口</title>
    <desc>Created with Sketch.</desc>
    <g id="Page-1" stroke="none" stroke-width="1" fill="none" fill-rule="evenodd">
        <g id="次-小路交叉口">
            <rect id="矩形" stroke="#979797" fill="#FFFFFF" x="0.5" y="0.5" width="35" height="15" rx="2"></rect>
            <path d="M7.552,5.792 C7.304,6.536 6.976,7.144 6.568,7.608 L6.088,7.272 C6.744,6.488 7.168,5.392 7.36,4 L7.936,4.088 C7.872,4.504 7.8,4.888 7.712,5.24 L11.072,5.24 L11.072,5.616 C10.904,6.296 10.688,6.968 10.416,7.632 L9.848,7.472 C10.096,6.976 10.296,6.416 10.456,5.792 L7.552,5.792 Z M8.376,6.336 L8.936,6.336 C8.936,6.768 8.912,7.168 8.872,7.536 C9.352,8.96 10.192,10.088 11.4,10.92 L11.024,11.36 C9.984,10.576 9.216,9.616 8.704,8.464 C8.656,8.664 8.6,8.848 8.536,9.024 C8.192,9.984 7.408,10.768 6.176,11.376 L5.8,10.92 C6.888,10.392 7.608,9.72 7.968,8.92 C8.224,8.24 8.36,7.376 8.376,6.336 Z M4.552,4.368 C5.176,4.992 5.656,5.536 5.992,6 L5.544,6.32 C5.184,5.824 4.696,5.264 4.088,4.656 L4.552,4.368 Z M5.528,7.8 L6.032,7.992 C5.584,9.096 5.088,10.136 4.536,11.104 L4,10.864 C4.592,9.864 5.096,8.84 5.528,7.8 Z M12.048,8.216 L16.088,8.216 L16.088,8.76 L12.048,8.76 L12.048,8.216 Z M20.064,11.272 L18.84,11.272 L18.704,10.672 C19.104,10.704 19.488,10.72 19.848,10.72 C20.144,10.72 20.296,10.568 20.296,10.272 L20.296,4.144 L20.888,4.144 L20.888,10.424 C20.888,10.984 20.608,11.272 20.064,11.272 Z M18.152,6 L18.728,6.224 C18.344,7.824 17.84,9.04 17.216,9.872 L16.72,9.432 C17.36,8.584 17.832,7.44 18.152,6 Z M22.696,5.808 C23.328,7.24 23.816,8.488 24.152,9.552 L23.64,9.912 C23.28,8.776 22.792,7.52 22.176,6.136 L22.696,5.808 Z M25.136,4.344 L27.6,4.344 L27.6,6.856 L26.8,6.856 L26.8,8.144 L27.632,8.144 L27.632,8.688 L26.8,8.688 L26.8,10.176 C27.152,10.064 27.496,9.952 27.816,9.832 L27.816,10.408 C26.984,10.72 26.008,11.008 24.896,11.272 L24.736,10.712 L25.16,10.616 L25.16,7.712 L25.672,7.712 L25.672,10.488 C25.872,10.44 26.072,10.384 26.264,10.336 L26.264,6.856 L25.136,6.856 L25.136,4.344 Z M27.048,6.328 L27.048,4.872 L25.696,4.872 L25.696,6.328 L27.048,6.328 Z M31.416,8.368 L31.416,11.336 L30.864,11.336 L30.864,10.984 L28.848,10.984 L28.848,11.336 L28.296,11.336 L28.296,8.368 L31.416,8.368 Z M28.848,10.456 L30.864,10.456 L30.864,8.888 L28.848,8.888 L28.848,10.456 Z M29.112,4.008 L29.664,4.112 C29.6,4.312 29.528,4.504 29.448,4.696 L31.432,4.696 L31.432,5.112 C31.16,5.784 30.76,6.376 30.24,6.888 C30.768,7.32 31.408,7.656 32.152,7.888 L31.824,8.36 C31.032,8.104 30.368,7.736 29.832,7.256 C29.288,7.696 28.648,8.072 27.896,8.392 L27.552,7.928 C28.288,7.632 28.912,7.28 29.44,6.864 C29.152,6.552 28.912,6.216 28.712,5.848 C28.504,6.088 28.272,6.304 28.016,6.512 L27.672,6.056 C28.376,5.504 28.856,4.824 29.112,4.008 Z M29.04,5.408 C29.256,5.824 29.52,6.2 29.84,6.52 C30.248,6.12 30.576,5.688 30.824,5.208 L29.176,5.208 C29.128,5.272 29.088,5.344 29.04,5.408 Z" id="次-小路" fill="#000000" fill-rule="nonzero"></path>
            <g id="7交叉口" transform="translate(4.000000, 19.000000)" fill="#666666" fill-rule="nonzero">
                <path d="M27.1870968,14.9145161 L20.7741935,14.9145161 C20.3225806,14.9145161 19.9612903,14.5532258 19.9612903,14.1016129 C19.9612903,13.65 20.3225806,13.2887097 20.7741935,13.2887097 L27.1870968,13.2887097 C27.6387097,13.2887097 28,13.65 28,14.1016129 C28,14.5532258 27.6387097,14.9145161 27.1870968,14.9145161 Z M7.22580645,14.9145161 L0.812903226,14.9145161 C0.361290323,14.9145161 -3.55271368e-15,14.5532258 -3.55271368e-15,14.1016129 C-3.55271368e-15,13.65 0.361290323,13.2887097 0.812903226,13.2887097 L7.22580645,13.2887097 C7.67741935,13.2887097 8.03870968,13.65 8.03870968,14.1016129 C8.03870968,14.5532258 7.67741935,14.9145161 7.22580645,14.9145161 Z M14.8129032,0.824193548 L14.8129032,7.23709677 C14.8129032,7.68870968 14.4516129,8.05 14,8.05 C13.5483871,8.05 13.1870968,7.68870968 13.1870968,7.23709677 L13.1870968,0.824193548 C13.1870968,0.372580645 13.5483871,0.0112903226 14,0.0112903226 C14.4516129,0.0112903226 14.8129032,0.372580645 14.8129032,0.824193548 Z M14.8129032,20.6951613 L14.8129032,27.1080645 C14.8129032,27.5596774 14.4516129,27.9209677 14,27.9209677 C13.5483871,27.9209677 13.1870968,27.5596774 13.1870968,27.1080645 L13.1870968,20.6951613 C13.1870968,20.2435484 13.5483871,19.8822581 14,19.8822581 C14.4516129,19.8822581 14.8129032,20.2435484 14.8129032,20.6951613 Z" id="形状"></path>
            </g>
        </g>
    </g>
</svg>