<?xml version="1.0" encoding="UTF-8"?>
<svg width="32px" height="49px" viewBox="0 0 32 49" version="1.1" xmlns="http://www.w3.org/2000/svg" xmlns:xlink="http://www.w3.org/1999/xlink">
    <!-- Generator: Sketch 53.1 (72631) - https://sketchapp.com -->
    <title>次-县交叉口</title>
    <desc>Created with Sketch.</desc>
    <g id="Page-1" stroke="none" stroke-width="1" fill="none" fill-rule="evenodd">
        <g id="次-县交叉口" transform="translate(-3.000000, 0.000000)">
            <rect id="矩形" stroke="#979797" fill="#FFFFFF" x="3.5" y="0.5" width="31" height="15" rx="2"></rect>
            <path d="M12.552,5.792 C12.304,6.536 11.976,7.144 11.568,7.608 L11.088,7.272 C11.744,6.488 12.168,5.392 12.36,4 L12.936,4.088 C12.872,4.504 12.8,4.888 12.712,5.24 L16.072,5.24 L16.072,5.616 C15.904,6.296 15.688,6.968 15.416,7.632 L14.848,7.472 C15.096,6.976 15.296,6.416 15.456,5.792 L12.552,5.792 Z M13.376,6.336 L13.936,6.336 C13.936,6.768 13.912,7.168 13.872,7.536 C14.352,8.96 15.192,10.088 16.4,10.92 L16.024,11.36 C14.984,10.576 14.216,9.616 13.704,8.464 C13.656,8.664 13.6,8.848 13.536,9.024 C13.192,9.984 12.408,10.768 11.176,11.376 L10.8,10.92 C11.888,10.392 12.608,9.72 12.968,8.92 C13.224,8.24 13.36,7.376 13.376,6.336 Z M9.552,4.368 C10.176,4.992 10.656,5.536 10.992,6 L10.544,6.32 C10.184,5.824 9.696,5.264 9.088,4.656 L9.552,4.368 Z M10.528,7.8 L11.032,7.992 C10.584,9.096 10.088,10.136 9.536,11.104 L9,10.864 C9.592,9.864 10.096,8.84 10.528,7.8 Z M17.048,8.216 L21.088,8.216 L21.088,8.76 L17.048,8.76 L17.048,8.216 Z M21.8,8.568 L23.336,8.568 L23.336,4.336 L27.792,4.336 L27.792,8.568 L29.072,8.568 L29.072,9.12 L24.76,9.12 C24.416,9.712 24.008,10.224 23.544,10.672 C24.848,10.6 26.088,10.48 27.272,10.32 C27.048,10.064 26.808,9.8 26.552,9.528 L27,9.248 C27.696,9.936 28.232,10.544 28.6,11.064 L28.112,11.408 C27.968,11.2 27.816,10.984 27.64,10.76 C26.376,10.952 24.768,11.104 22.824,11.216 L22.656,10.704 C22.8,10.672 22.896,10.624 22.96,10.56 C23.424,10.096 23.816,9.616 24.12,9.12 L21.8,9.12 L21.8,8.568 Z M27.216,8.568 L27.216,7.68 L23.904,7.68 L23.904,8.568 L27.216,8.568 Z M23.904,7.152 L27.216,7.152 L27.216,6.296 L23.904,6.296 L23.904,7.152 Z M23.904,5.768 L27.216,5.768 L27.216,4.872 L23.904,4.872 L23.904,5.768 Z" id="次-县" fill="#000000" fill-rule="nonzero"></path>
            <path d="M18.3660198,29.9075581 C18.5334491,30.0780585 18.762383,30.1741071 19.0013453,30.1741071 C19.2403075,30.1741071 19.4692414,30.0780585 19.6366707,29.9075581 L19.6480448,29.8945591 L20.4864794,29.0561245 L26.9957215,22.5371331 C27.2508104,22.2797909 27.3267359,21.8945892 27.1883799,21.5596968 C27.0500239,21.2248044 26.7243609,21.0055132 26.362021,21.0032528 C26.1239226,21.0018952 25.8953828,21.0968271 25.7283204,21.2664823 L19.2044544,27.7757244 L19.0013453,27.9788336 L12.2857442,21.2632325 C12.1182635,21.0941987 11.8899971,20.9993803 11.6520437,21.000003 C11.4120082,20.9995717 11.1816327,21.094512 11.0115972,21.263938 C10.8415618,21.4333639 10.745795,21.6633971 10.7453644,21.9034326 C10.7453644,22.1422889 10.8379822,22.3697712 11.0085939,22.5403829 L18.3676447,29.9075581 L18.3660198,29.9075581 Z M19.6366707,38.1001689 C19.4703025,37.9281185 19.2406697,37.8318019 19.0013453,37.8336897 C18.7630094,37.8327598 18.5344354,37.9282921 18.3676447,38.098544 L17.5162111,38.9483527 L11.3173198,45.1553684 C11.0628832,45.4147994 10.9882778,45.8012501 11.1278619,46.1367478 C11.2674459,46.4722455 11.5941513,46.6917306 11.9575198,46.6941234 C12.1956182,46.6954809 12.424158,46.600549 12.5912204,46.4308939 L18.9980955,40.0272685 L25.4049707,46.4341437 C25.57206,46.6040438 25.8003754,46.6997326 26.0386712,46.6997326 C26.2769671,46.6997326 26.5052824,46.6040438 26.6723718,46.4341437 L26.6837459,46.4211447 C27.0345883,46.0702483 27.0345883,45.5013901 26.6837459,45.1504938 L19.6350458,38.098544 L19.6366707,38.1001689 Z M14.9066647,34.6391889 C15.2564255,34.2884793 15.2564255,33.7208725 14.9066647,33.3701629 L14.8936658,33.3571639 C14.8770904,33.3401265 14.8597401,33.3238606 14.8416698,33.3084177 L7.54273928,26.012737 C7.37289479,25.8435187 7.14256268,25.7490466 6.90281184,25.7502667 C6.66306099,25.7514868 6.43370234,25.8482983 6.26558892,26.0192364 C6.09568878,26.1863258 6,26.4146412 6,26.652937 C6,26.8912328 6.09568878,27.1195482 6.26558892,27.2866376 L12.9763153,33.997364 L12.7732062,34.202098 L6.58081433,40.4091137 C6.32457618,40.6663099 6.24792103,41.0522583 6.38642148,41.3878556 C6.52492192,41.7234528 6.85146494,41.9430019 7.21451489,41.9446189 C7.45189323,41.9455604 7.67989316,41.8520219 7.84821545,41.6846392 L14.0487317,35.4938722 L14.9066647,34.6408138 L14.9066647,34.6391889 Z M31.7484757,26.5993162 C31.5882079,26.4374449 31.3700496,26.346101 31.1422608,26.3454912 C30.914472,26.3448813 30.6958278,26.4350557 30.5346954,26.5960664 L24.2480609,32.869702 L23.4274999,33.6967624 C23.0985891,34.0307185 23.0985891,34.5668374 23.4274999,34.9007935 L23.4372492,34.9105427 L24.2448112,35.7229793 L30.2292193,41.6960133 C30.389546,41.8591564 30.6088702,41.9507794 30.8376057,41.9501678 C31.0663413,41.9495562 31.2851724,41.8567616 31.4446244,41.6927636 C31.6071081,41.533488 31.6989346,41.315707 31.6995455,41.0881783 C31.7001563,40.8606496 31.6095004,40.6423787 31.4478742,40.482233 L25.2668564,34.2947158 L31.7501006,27.8114716 C32.0839331,27.4761114 32.0832061,26.9337802 31.7484757,26.5993162 L31.7484757,26.5993162 Z M12.1200072,40.1767569 L11.5366777,40.7617112 C11.3032538,40.9962597 11.3032538,41.3753465 11.5366777,41.609895 C11.7712262,41.8433189 12.150313,41.8433189 12.3848615,41.609895 L12.9698159,41.0249407 C13.2032397,40.7903922 13.2032397,40.4113054 12.9698159,40.1767569 C12.7350797,39.9422529 12.3547433,39.9422529 12.1200072,40.1767569 L12.1200072,40.1767569 Z M14.7165546,37.5769597 L14.1316002,38.1619141 C13.8981764,38.3964626 13.8981764,38.7755494 14.1316002,39.0100979 C14.3663364,39.2446019 14.7466727,39.2446019 14.9814089,39.0100979 L15.5647384,38.4251435 C15.7970862,38.1907851 15.7970862,37.812943 15.5647384,37.5785846 C15.3301899,37.3451607 14.9511031,37.3451607 14.7165546,37.5785846 L14.7165546,37.5769597 Z M24.0238284,29.9693033 C24.2572523,29.7347548 24.2572523,29.3556679 24.0238284,29.1211194 C23.78947,28.8887716 23.4116279,28.8887716 23.1772695,29.1211194 L22.5923151,29.702824 C22.3599672,29.9371825 22.3599672,30.3150246 22.5923151,30.549383 C22.8268636,30.7828069 23.2059504,30.7828069 23.4404989,30.549383 L24.0254533,29.9693033 L24.0238284,29.9693033 Z M25.9720514,26.3360867 L25.387097,26.9194162 C25.1536732,27.1539647 25.1536732,27.5330515 25.387097,27.7676 C25.6216455,28.0010239 26.0007324,28.0010239 26.2352809,27.7676 L26.8202352,27.1826457 C27.0525831,26.9482873 27.0525831,26.5704451 26.8202352,26.3360867 C26.5856867,26.1026629 26.2065999,26.1026629 25.9720514,26.3360867 L25.9720514,26.3360867 Z M26.503385,40.4351117 C26.2688365,40.2016878 25.8897496,40.2016878 25.6552011,40.4351117 C25.4217773,40.6696602 25.4217773,41.048747 25.6552011,41.2832955 L26.2401555,41.8682499 C26.4745139,42.1005977 26.852356,42.1005977 27.0867144,41.8682499 C27.3212184,41.6335137 27.3212184,41.2531774 27.0867144,41.0184412 L26.5017601,40.4351117 L26.503385,40.4351117 Z M23.0489045,38.6834984 L23.6338588,39.2684527 C23.8682172,39.5008006 24.2460594,39.5008006 24.4804178,39.2684527 C24.7138416,39.0339042 24.7138416,38.6548174 24.4804178,38.4202689 L23.8970883,37.8353145 C23.6625398,37.6018907 23.283453,37.6018907 23.0489045,37.8353145 C22.8154806,38.069863 22.8154806,38.4489499 23.0489045,38.6834984 Z M15.6606059,29.5972073 L15.0756516,29.0122529 C14.8414856,28.780977 14.4648834,28.780977 14.2307175,29.0122529 C13.9972936,29.2468014 13.9972936,29.6258882 14.2307175,29.8604367 L14.8124221,30.4453911 C15.0469706,30.678815 15.4260574,30.678815 15.6606059,30.4453911 C15.7739296,30.3333667 15.8377045,30.180647 15.8377045,30.0212992 C15.8377045,29.8619514 15.7739296,29.7092317 15.6606059,29.5972073 L15.6606059,29.5972073 Z M11.4359355,26.23047 C11.2035877,26.4648284 11.2035877,26.8426705 11.4359355,27.0770289 L12.0208899,27.6619833 C12.2554384,27.8954071 12.6345252,27.8954071 12.8690737,27.6619833 C13.1024976,27.4274348 13.1024976,27.048348 12.8690737,26.8137995 L12.2841194,26.2288451 C12.0497609,25.9964972 11.6719188,25.9964972 11.4375604,26.2288451 L11.4359355,26.23047 Z" id="形状" fill="#262626" fill-rule="nonzero" transform="translate(19.000000, 33.849866) rotate(-45.000000) translate(-19.000000, -33.849866) "></path>
        </g>
    </g>
</svg>