<?xml version="1.0" encoding="UTF-8"?>
<svg width="32px" height="45px" viewBox="0 0 32 45" version="1.1" xmlns="http://www.w3.org/2000/svg" xmlns:xlink="http://www.w3.org/1999/xlink">
    <!-- Generator: Sketch 53.1 (72631) - https://sketchapp.com -->
    <title>次-省交叉口</title>
    <desc>Created with Sketch.</desc>
    <g id="Page-1" stroke="none" stroke-width="1" fill="none" fill-rule="evenodd">
        <g id="次-省交叉口">
            <rect id="矩形" stroke="#979797" fill="#FFFFFF" x="0.5" y="0.5" width="31" height="15" rx="2"></rect>
            <path d="M9.552,5.792 C9.304,6.536 8.976,7.144 8.568,7.608 L8.088,7.272 C8.744,6.488 9.168,5.392 9.36,4 L9.936,4.088 C9.872,4.504 9.8,4.888 9.712,5.24 L13.072,5.24 L13.072,5.616 C12.904,6.296 12.688,6.968 12.416,7.632 L11.848,7.472 C12.096,6.976 12.296,6.416 12.456,5.792 L9.552,5.792 Z M10.376,6.336 L10.936,6.336 C10.936,6.768 10.912,7.168 10.872,7.536 C11.352,8.96 12.192,10.088 13.4,10.92 L13.024,11.36 C11.984,10.576 11.216,9.616 10.704,8.464 C10.656,8.664 10.6,8.848 10.536,9.024 C10.192,9.984 9.408,10.768 8.176,11.376 L7.8,10.92 C8.888,10.392 9.608,9.72 9.968,8.92 C10.224,8.24 10.36,7.376 10.376,6.336 Z M6.552,4.368 C7.176,4.992 7.656,5.536 7.992,6 L7.544,6.32 C7.184,5.824 6.696,5.264 6.088,4.656 L6.552,4.368 Z M7.528,7.8 L8.032,7.992 C7.584,9.096 7.088,10.136 6.536,11.104 L6,10.864 C6.592,9.864 7.096,8.84 7.528,7.8 Z M14.048,8.216 L18.088,8.216 L18.088,8.76 L14.048,8.76 L14.048,8.216 Z M22.064,4.008 L22.632,4.008 L22.632,6.056 L22.064,6.056 L22.064,4.008 Z M20.24,7.528 C19.864,7.608 19.48,7.688 19.08,7.76 L18.84,7.24 C21.312,6.84 23.192,6.192 24.488,5.304 C24.2,5.072 23.896,4.84 23.568,4.608 L23.952,4.24 C24.792,4.824 25.496,5.408 26.072,5.984 L25.672,6.392 C25.448,6.144 25.184,5.896 24.896,5.648 C24.096,6.216 23.104,6.688 21.928,7.072 L25.112,7.072 L25.112,11.336 L24.552,11.336 L24.552,10.976 L20.8,10.976 L20.8,11.352 L20.24,11.352 L20.24,7.528 Z M20.8,10.464 L24.552,10.464 L24.552,9.776 L20.8,9.776 L20.8,10.464 Z M20.8,9.312 L24.552,9.312 L24.552,8.672 L20.8,8.672 L20.8,9.312 Z M20.8,8.208 L24.552,8.208 L24.552,7.56 L20.8,7.56 L20.8,8.208 Z M20.792,4.464 L21.2,4.824 C20.72,5.416 20.128,5.936 19.424,6.384 L19.088,5.952 C19.768,5.52 20.336,5.024 20.792,4.464 Z" id="次-省" fill="#000000" fill-rule="nonzero"></path>
            <g id="单点信号交叉口运行评价模型" transform="translate(3.000000, 19.000000)" fill="#000000" fill-rule="nonzero">
                <path d="M12.65625,0 L13.428125,0 L13.428125,6.896875 L12.65625,6.896875 L12.65625,0 Z M0,12.56875 L6.184375,12.56875 L6.184375,13.340625 L0,13.340625 L0,12.56875 Z M19.428125,12.56875 L25.9375,12.56875 L25.9375,13.340625 L19.428125,13.340625 L19.428125,12.56875 Z M9.96875,17.38125 L10.740625,17.38125 L10.740625,18.678125 L9.96875,18.678125 L9.96875,17.38125 Z M11.303125,17.38125 L12.075,17.38125 L12.075,18.678125 L11.303125,18.678125 L11.303125,17.38125 Z M12.65625,19.271875 L13.428125,19.271875 L13.428125,25.946875 L12.65625,25.946875 L12.65625,19.271875 Z M12.65625,17.38125 L13.428125,17.38125 L13.428125,18.678125 L12.65625,18.678125 L12.65625,17.38125 Z M13.940625,17.38125 L14.7125,17.38125 L14.7125,18.678125 L13.940625,18.678125 L13.940625,17.38125 Z M15.278125,17.38125 L16.05,17.38125 L16.05,18.678125 L15.278125,18.678125 L15.278125,17.38125 Z M9.9875,7.45 L10.759375,7.45 L10.759375,8.746875 L9.9875,8.746875 L9.9875,7.45 Z M11.321875,7.45 L12.09375,7.45 L12.09375,8.746875 L11.321875,8.746875 L11.321875,7.45 Z M12.65625,7.45 L13.428125,7.45 L13.428125,8.746875 L12.65625,8.746875 L12.65625,7.45 Z M13.95625,7.45 L14.728125,7.45 L14.728125,8.746875 L13.95625,8.746875 L13.95625,7.45 Z M15.29375,7.45 L16.065625,7.45 L16.065625,8.746875 L15.29375,8.746875 L15.29375,7.45 Z M17.203125,15.240625 L18.5,15.240625 L18.5,16.0125 L17.203125,16.0125 L17.203125,15.240625 Z M17.203125,13.90625 L18.5,13.90625 L18.5,14.678125 L17.203125,14.678125 L17.203125,13.90625 Z M17.203125,12.56875 L18.5,12.56875 L18.5,13.340625 L17.203125,13.340625 L17.203125,12.56875 Z M17.203125,11.26875 L18.5,11.26875 L18.5,12.040625 L17.203125,12.040625 L17.203125,11.26875 Z M17.203125,9.934375 L18.5,9.934375 L18.5,10.70625 L17.203125,10.70625 L17.203125,9.934375 Z M7.125,15.240625 L8.421875,15.240625 L8.421875,16.0125 L7.125,16.0125 L7.125,15.240625 Z M7.125,13.90625 L8.421875,13.90625 L8.421875,14.678125 L7.125,14.678125 L7.125,13.90625 Z M7.125,12.56875 L8.421875,12.56875 L8.421875,13.340625 L7.125,13.340625 L7.125,12.56875 Z M7.125,11.26875 L8.421875,11.26875 L8.421875,12.040625 L7.125,12.040625 L7.125,11.26875 Z M7.125,9.934375 L8.421875,9.934375 L8.421875,10.70625 L7.125,10.70625 L7.125,9.934375 Z M9.35625,0 L9.35625,8.146875 C9.35625,8.8125 8.8125,9.35625 8.146875,9.35625 L0,9.35625 L0,8.284375 L7.765625,8.284375 C8.053125,8.284375 8.284375,8.05 8.284375,7.765625 L8.284375,0 L9.35625,0 L9.35625,0 Z M9.35625,17.796875 L9.35625,25.94375 L8.284375,25.94375 L8.284375,18.178125 C8.284375,17.89375 8.053125,17.659375 7.765625,17.659375 L0,17.659375 L0,16.5875 L8.146875,16.5875 C8.8125,16.5875 9.35625,17.13125 9.35625,17.796875 L9.35625,17.796875 Z M25.9375,16.5875 L25.9375,17.659375 L18.171875,17.659375 C17.8875,17.659375 17.653125,17.89375 17.653125,18.178125 L17.653125,25.94375 L16.58125,25.94375 L16.58125,17.796875 C16.58125,17.13125 17.125,16.5875 17.790625,16.5875 L25.9375,16.5875 Z M25.9375,8.284375 L25.9375,9.35625 L17.790625,9.35625 C17.125,9.35625 16.58125,8.8125 16.58125,8.146875 L16.58125,0 L17.653125,0 L17.653125,7.765625 C17.653125,8.05 17.8875,8.284375 18.171875,8.284375 L25.9375,8.284375 Z" id="形状"></path>
            </g>
        </g>
    </g>
</svg>