<?xml version="1.0" encoding="UTF-8"?>
<svg width="36px" height="48px" viewBox="0 0 36 48" version="1.1" xmlns="http://www.w3.org/2000/svg" xmlns:xlink="http://www.w3.org/1999/xlink">
    <!-- Generator: Sketch 53.1 (72631) - https://sketchapp.com -->
    <title>次-其它交叉口</title>
    <desc>Created with Sketch.</desc>
    <g id="Page-1" stroke="none" stroke-width="1" fill="none" fill-rule="evenodd">
        <g id="次-其它交叉口">
            <rect id="矩形" stroke="#979797" fill="#FFFFFF" x="0.5" y="0.5" width="35" height="15" rx="2"></rect>
            <path d="M7.552,5.808 C7.304,6.552 6.976,7.16 6.568,7.624 L6.088,7.288 C6.744,6.504 7.168,5.408 7.36,4.016 L7.936,4.104 C7.872,4.52 7.8,4.904 7.712,5.256 L11.072,5.256 L11.072,5.632 C10.904,6.312 10.688,6.984 10.416,7.648 L9.848,7.488 C10.096,6.992 10.296,6.432 10.456,5.808 L7.552,5.808 Z M8.376,6.352 L8.936,6.352 C8.936,6.784 8.912,7.184 8.872,7.552 C9.352,8.976 10.192,10.104 11.4,10.936 L11.024,11.376 C9.984,10.592 9.216,9.632 8.704,8.48 C8.656,8.68 8.6,8.864 8.536,9.04 C8.192,10 7.408,10.784 6.176,11.392 L5.8,10.936 C6.888,10.408 7.608,9.736 7.968,8.936 C8.224,8.256 8.36,7.392 8.376,6.352 Z M4.552,4.384 C5.176,5.008 5.656,5.552 5.992,6.016 L5.544,6.336 C5.184,5.84 4.696,5.28 4.088,4.672 L4.552,4.384 Z M5.528,7.816 L6.032,8.008 C5.584,9.112 5.088,10.152 4.536,11.12 L4,10.88 C4.592,9.88 5.096,8.856 5.528,7.816 Z M12.048,8.232 L16.088,8.232 L16.088,8.776 L12.048,8.776 L12.048,8.232 Z M17.008,4.744 L18.36,4.744 L18.36,4.008 L18.944,4.008 L18.944,4.744 L21.952,4.744 L21.952,4.008 L22.536,4.008 L22.536,4.744 L23.888,4.744 L23.888,5.288 L22.536,5.288 L22.536,8.952 L24.04,8.952 L24.04,9.488 L16.864,9.488 L16.864,8.952 L18.36,8.952 L18.36,5.288 L17.008,5.288 L17.008,4.744 Z M18.944,8.952 L21.952,8.952 L21.952,8.04 L18.944,8.04 L18.944,8.952 Z M18.944,7.544 L21.952,7.544 L21.952,6.656 L18.944,6.656 L18.944,7.544 Z M18.944,6.16 L21.952,6.16 L21.952,5.288 L18.944,5.288 L18.944,6.16 Z M19.36,9.68 L19.768,10.048 C19.112,10.544 18.304,10.976 17.344,11.352 L16.984,10.888 C17.928,10.536 18.72,10.136 19.36,9.68 Z M21.472,9.704 C22.368,10.024 23.184,10.408 23.92,10.864 L23.6,11.352 C22.816,10.84 22.008,10.432 21.184,10.136 L21.472,9.704 Z M31.792,4.904 L31.792,6.456 L31.208,6.456 L31.208,5.464 L25.608,5.464 L25.608,6.456 L25.024,6.456 L25.024,4.904 L28.2,4.904 C28.096,4.616 27.984,4.344 27.856,4.096 L28.48,4 C28.592,4.272 28.704,4.568 28.8,4.904 L31.792,4.904 Z M30.544,6.984 L30.936,7.44 C29.848,7.952 28.496,8.384 26.888,8.728 L26.888,10.152 C26.888,10.44 27.016,10.592 27.288,10.592 L30.144,10.592 C30.432,10.592 30.64,10.536 30.76,10.424 C30.928,10.28 31.04,9.872 31.088,9.2 L31.64,9.376 C31.56,10.216 31.4,10.728 31.176,10.912 C30.984,11.072 30.672,11.152 30.248,11.152 L27.112,11.152 C26.568,11.152 26.304,10.856 26.304,10.272 L26.304,6.176 L26.888,6.176 L26.888,8.16 C28.344,7.84 29.568,7.448 30.544,6.984 Z" id="次-其它" fill="#000000" fill-rule="nonzero"></path>
            <g id="交叉口分析" transform="translate(5.000000, 22.000000)" fill="#000000" fill-rule="nonzero">
                <path d="M23.6860625,6.48 C21.6797188,6.48 19.9945313,7.85209375 19.5166875,9.70865625 L11.1495938,9.70865625 L7.99740625,6.55678125 C8.39178125,5.90665625 8.61884375,5.14375 8.61884375,4.32778125 C8.61884375,1.9505 6.69146875,0.02284375 4.31440625,0.02284375 C1.93734375,0.02284375 0.0094375,1.9505 0.0094375,4.32778125 C0.0094375,6.705125 1.937375,8.63221875 4.31440625,8.63221875 C5.09496875,8.63221875 5.8270625,8.424375 6.458375,8.0610625 L9.69525,11.2975938 L9.69525,17.3777813 C7.83825,17.855625 6.466625,19.541125 6.466625,21.546625 C6.466625,23.9242188 8.3935,25.8521563 10.771625,25.8521563 C13.1486875,25.8521563 15.0760938,23.9242188 15.0760938,21.546625 C15.0760938,19.5410625 13.7040312,17.855625 11.8475,17.3777812 L11.8475,11.8608125 L19.5165625,11.8608125 C19.99425,13.7175 21.6795,15.0894375 23.6860625,15.0894375 C26.0630625,15.0894375 27.9904375,13.1623125 27.9904375,10.785 C27.9905,8.4076875 26.0630625,6.48 23.6860625,6.48 Z M4.3144375,6.48 C3.1256875,6.48 2.1616875,5.5163125 2.1616875,4.3278125 C2.1616875,3.139 3.12565625,2.17503125 4.3144375,2.17503125 C5.50271875,2.17503125 6.46665625,3.139 6.46665625,4.32778125 C6.46665625,5.5163125 5.50271875,6.48003125 4.3144375,6.48003125 L4.3144375,6.48 Z M12.9238437,21.546625 C12.9238437,22.7357188 11.959875,23.6993438 10.7716562,23.6993438 C9.58284375,23.6993438 8.61884375,22.7356875 8.61884375,21.546625 C8.61884375,20.358375 9.58284375,19.3944063 10.7716562,19.3944063 C11.959875,19.3944063 12.9238437,20.358375 12.9238437,21.546625 Z M23.6860312,12.9372187 C22.4972187,12.9372187 21.5332812,11.9734688 21.5332812,10.7850312 C21.5332812,9.59621875 22.49725,8.63221875 23.6860625,8.63221875 C24.8742812,8.63221875 25.83825,9.59621875 25.83825,10.7850312 C25.83825,11.9735 24.8743125,12.9372187 23.6860625,12.9372187 L23.6860312,12.9372187 Z" id="形状"></path>
            </g>
        </g>
    </g>
</svg>