<?xml version="1.0" encoding="UTF-8"?>
<svg width="32px" height="49px" viewBox="0 0 32 49" version="1.1" xmlns="http://www.w3.org/2000/svg" xmlns:xlink="http://www.w3.org/1999/xlink">
    <!-- Generator: Sketch 53.1 (72631) - https://sketchapp.com -->
    <title>次-支交叉口</title>
    <desc>Created with Sketch.</desc>
    <g id="Page-1" stroke="none" stroke-width="1" fill="none" fill-rule="evenodd">
        <g id="次-支交叉口">
            <rect id="矩形" stroke="#979797" fill="#FFFFFF" x="0.5" y="0.5" width="31" height="15" rx="2"></rect>
            <path d="M9.552,5.792 C9.304,6.536 8.976,7.144 8.568,7.608 L8.088,7.272 C8.744,6.488 9.168,5.392 9.36,4 L9.936,4.088 C9.872,4.504 9.8,4.888 9.712,5.24 L13.072,5.24 L13.072,5.616 C12.904,6.296 12.688,6.968 12.416,7.632 L11.848,7.472 C12.096,6.976 12.296,6.416 12.456,5.792 L9.552,5.792 Z M10.376,6.336 L10.936,6.336 C10.936,6.768 10.912,7.168 10.872,7.536 C11.352,8.96 12.192,10.088 13.4,10.92 L13.024,11.36 C11.984,10.576 11.216,9.616 10.704,8.464 C10.656,8.664 10.6,8.848 10.536,9.024 C10.192,9.984 9.408,10.768 8.176,11.376 L7.8,10.92 C8.888,10.392 9.608,9.72 9.968,8.92 C10.224,8.24 10.36,7.376 10.376,6.336 Z M6.552,4.368 C7.176,4.992 7.656,5.536 7.992,6 L7.544,6.32 C7.184,5.824 6.696,5.264 6.088,4.656 L6.552,4.368 Z M7.528,7.8 L8.032,7.992 C7.584,9.096 7.088,10.136 6.536,11.104 L6,10.864 C6.592,9.864 7.096,8.84 7.528,7.8 Z M14.048,8.216 L18.088,8.216 L18.088,8.76 L14.048,8.76 L14.048,8.216 Z M22.136,4.024 L22.728,4.024 L22.728,5.072 L25.872,5.072 L25.872,5.632 L22.728,5.632 L22.728,6.856 L24.88,6.856 L24.88,7.368 C24.432,8.264 23.784,9.032 22.936,9.672 C23.336,9.896 23.776,10.112 24.256,10.304 C24.824,10.52 25.432,10.704 26.08,10.864 L25.744,11.368 C25.056,11.184 24.4,10.96 23.784,10.704 C23.296,10.496 22.848,10.264 22.448,10.008 C21.536,10.584 20.448,11.04 19.176,11.384 L18.848,10.872 C20.064,10.584 21.104,10.184 21.968,9.672 C21.552,9.36 21.184,9 20.872,8.6 C20.584,8.232 20.376,7.824 20.248,7.392 L19.632,7.392 L19.632,6.856 L22.136,6.856 L22.136,5.632 L19.024,5.632 L19.024,5.072 L22.136,5.072 L22.136,4.024 Z M22.44,9.36 C23.216,8.816 23.816,8.16 24.232,7.392 L20.816,7.392 C20.96,7.816 21.184,8.192 21.488,8.52 C21.768,8.84 22.088,9.12 22.44,9.36 Z" id="次-支" fill="#000000" fill-rule="nonzero"></path>
            <g id="通过十字路口能力" transform="translate(2.000000, 21.000000)" fill="#000000" fill-rule="nonzero">
                <path d="M14,0 C14.3568609,2.18514287e-17 14.6461538,0.289292928 14.6461538,0.64615384 L14.6461538,13.4615385 L27.3538462,13.4615385 C27.7107071,13.4615385 28,13.7508314 28,14.1076923 C28,14.4645532 27.7107071,14.7538462 27.3538462,14.7538462 L14.6461538,14.7538462 L14.6461538,27.3538462 C14.6461538,27.7107071 14.3568609,28 14,28 C13.6431391,28 13.3538462,27.7107071 13.3538462,27.3538462 L13.3538462,14.7538462 L0.64615384,14.7538462 C0.289292921,14.7538462 -1.36718744e-08,14.4645532 -1.36718745e-08,14.1076923 C-1.36718745e-08,13.7508314 0.289292921,13.4615385 0.64615384,13.4615385 L13.3538462,13.4615385 L13.3538462,0.64615384 C13.3538462,0.289292928 13.6431391,6.5554286e-17 14,0 Z" id="形状"></path>
            </g>
        </g>
    </g>
</svg>