<?xml version="1.0" encoding="UTF-8"?>
<svg width="32px" height="45px" viewBox="0 0 32 45" version="1.1" xmlns="http://www.w3.org/2000/svg" xmlns:xlink="http://www.w3.org/1999/xlink">
    <!-- Generator: Sketch 53.1 (72631) - https://sketchapp.com -->
    <title>次-次交叉口</title>
    <desc>Created with Sketch.</desc>
    <g id="Page-1" stroke="none" stroke-width="1" fill="none" fill-rule="evenodd">
        <g id="次-次交叉口">
            <g id="分组" transform="translate(3.000000, 20.000000)" fill="#122236" fill-rule="nonzero">
                <path d="M9.375,0 L9.375,5.20833333 C9.37500174,7.42854311 7.63409946,9.25878118 5.41666667,9.36979167 L5.20833333,9.375 L0,9.375 L0,7.29166667 L5.20833333,7.29166667 C6.29856746,7.2920117 7.20469083,6.45174691 7.28645833,5.36458333 L7.29166667,5.20833333 L7.29166667,0 L9.375,0 Z" id="路径"></path>
                <path d="M5.20833333,15.625 C7.42854311,15.6249983 9.25878118,17.3659005 9.36979167,19.5833333 L9.375,19.7916667 L9.375,25 L7.29166667,25 L7.29166667,19.7916667 C7.2920117,18.7014325 6.45174691,17.7953092 5.36458333,17.7135417 L5.20833333,17.7083333 L0,17.7083333 L0,15.625 L5.20833333,15.625 Z" id="路径"></path>
                <path d="M17.7083333,0 L17.7083333,5.20833333 C17.7079883,6.29856746 18.5482531,7.20469083 19.6354167,7.28645833 L19.7916667,7.29166667 L25,7.29166667 L25,9.375 L19.7916667,9.375 C17.5714569,9.37500174 15.7412188,7.63409946 15.6302083,5.41666667 L15.625,5.20833333 L15.625,0 L17.7083333,0 Z" id="路径"></path>
                <path d="M25,15.625 L25,17.7083333 L19.7916667,17.7083333 C18.7014325,17.7079883 17.7953092,18.5482531 17.7135417,19.6354167 L17.7083333,19.7916667 L17.7083333,25 L15.625,25 L15.625,19.7916667 C15.6249983,17.5714569 17.3659005,15.7412188 19.5833333,15.6302083 L19.7916667,15.625 L25,15.625 Z" id="路径"></path>
                <path d="M9.375,0 L9.375,5.20833333 C9.37500174,7.42854311 7.63409946,9.25878118 5.41666667,9.36979167 L5.20833333,9.375 L0,9.375 L0,7.29166667 L5.20833333,7.29166667 C6.29856746,7.2920117 7.20469083,6.45174691 7.28645833,5.36458333 L7.29166667,5.20833333 L7.29166667,0 L9.375,0 Z" id="路径"></path>
                <path d="M5.20833333,15.625 C7.42854311,15.6249983 9.25878118,17.3659005 9.36979167,19.5833333 L9.375,19.7916667 L9.375,25 L7.29166667,25 L7.29166667,19.7916667 C7.2920117,18.7014325 6.45174691,17.7953092 5.36458333,17.7135417 L5.20833333,17.7083333 L0,17.7083333 L0,15.625 L5.20833333,15.625 Z" id="路径"></path>
                <path d="M17.7083333,0 L17.7083333,5.20833333 C17.7079883,6.29856746 18.5482531,7.20469083 19.6354167,7.28645833 L19.7916667,7.29166667 L25,7.29166667 L25,9.375 L19.7916667,9.375 C17.5714569,9.37500174 15.7412188,7.63409946 15.6302083,5.41666667 L15.625,5.20833333 L15.625,0 L17.7083333,0 Z" id="路径"></path>
                <path d="M25,15.625 L25,17.7083333 L19.7916667,17.7083333 C18.7014325,17.7079883 17.7953092,18.5482531 17.7135417,19.6354167 L17.7083333,19.7916667 L17.7083333,25 L15.625,25 L15.625,19.7916667 C15.6249983,17.5714569 17.3659005,15.7412188 19.5833333,15.6302083 L19.7916667,15.625 L25,15.625 Z" id="路径"></path>
            </g>
            <rect id="矩形" stroke="#979797" fill="#FFFFFF" x="0.5" y="0.5" width="31" height="15" rx="2"></rect>
            <path d="M9.552,5.792 C9.304,6.536 8.976,7.144 8.568,7.608 L8.088,7.272 C8.744,6.488 9.168,5.392 9.36,4 L9.936,4.088 C9.872,4.504 9.8,4.888 9.712,5.24 L13.072,5.24 L13.072,5.616 C12.904,6.296 12.688,6.968 12.416,7.632 L11.848,7.472 C12.096,6.976 12.296,6.416 12.456,5.792 L9.552,5.792 Z M10.376,6.336 L10.936,6.336 C10.936,6.768 10.912,7.168 10.872,7.536 C11.352,8.96 12.192,10.088 13.4,10.92 L13.024,11.36 C11.984,10.576 11.216,9.616 10.704,8.464 C10.656,8.664 10.6,8.848 10.536,9.024 C10.192,9.984 9.408,10.768 8.176,11.376 L7.8,10.92 C8.888,10.392 9.608,9.72 9.968,8.92 C10.224,8.24 10.36,7.376 10.376,6.336 Z M6.552,4.368 C7.176,4.992 7.656,5.536 7.992,6 L7.544,6.32 C7.184,5.824 6.696,5.264 6.088,4.656 L6.552,4.368 Z M7.528,7.8 L8.032,7.992 C7.584,9.096 7.088,10.136 6.536,11.104 L6,10.864 C6.592,9.864 7.096,8.84 7.528,7.8 Z M14.048,8.216 L18.088,8.216 L18.088,8.76 L14.048,8.76 L14.048,8.216 Z M22.312,5.792 C22.064,6.536 21.736,7.144 21.328,7.608 L20.848,7.272 C21.504,6.488 21.928,5.392 22.12,4 L22.696,4.088 C22.632,4.504 22.56,4.888 22.472,5.24 L25.832,5.24 L25.832,5.616 C25.664,6.296 25.448,6.968 25.176,7.632 L24.608,7.472 C24.856,6.976 25.056,6.416 25.216,5.792 L22.312,5.792 Z M23.136,6.336 L23.696,6.336 C23.696,6.768 23.672,7.168 23.632,7.536 C24.112,8.96 24.952,10.088 26.16,10.92 L25.784,11.36 C24.744,10.576 23.976,9.616 23.464,8.464 C23.416,8.664 23.36,8.848 23.296,9.024 C22.952,9.984 22.168,10.768 20.936,11.376 L20.56,10.92 C21.648,10.392 22.368,9.72 22.728,8.92 C22.984,8.24 23.12,7.376 23.136,6.336 Z M19.312,4.368 C19.936,4.992 20.416,5.536 20.752,6 L20.304,6.32 C19.944,5.824 19.456,5.264 18.848,4.656 L19.312,4.368 Z M20.288,7.8 L20.792,7.992 C20.344,9.096 19.848,10.136 19.296,11.104 L18.76,10.864 C19.352,9.864 19.856,8.84 20.288,7.8 Z" id="次-次" fill="#000000" fill-rule="nonzero"></path>
        </g>
    </g>
</svg>