<?xml version="1.0" encoding="UTF-8"?>
<svg width="32px" height="49px" viewBox="0 0 32 49" version="1.1" xmlns="http://www.w3.org/2000/svg" xmlns:xlink="http://www.w3.org/1999/xlink">
    <!-- Generator: Sketch 53.1 (72631) - https://sketchapp.com -->
    <title>省-支交叉口</title>
    <desc>Created with Sketch.</desc>
    <g id="Page-1" stroke="none" stroke-width="1" fill="none" fill-rule="evenodd">
        <g id="省-支交叉口">
            <rect id="矩形" stroke="#979797" fill="#FFFFFF" x="0.5" y="0.5" width="31" height="15" rx="2"></rect>
            <path d="M9.224,4 L9.792,4 L9.792,6.048 L9.224,6.048 L9.224,4 Z M7.4,7.52 C7.024,7.6 6.64,7.68 6.24,7.752 L6,7.232 C8.472,6.832 10.352,6.184 11.648,5.296 C11.36,5.064 11.056,4.832 10.728,4.6 L11.112,4.232 C11.952,4.816 12.656,5.4 13.232,5.976 L12.832,6.384 C12.608,6.136 12.344,5.888 12.056,5.64 C11.256,6.208 10.264,6.68 9.088,7.064 L12.272,7.064 L12.272,11.328 L11.712,11.328 L11.712,10.968 L7.96,10.968 L7.96,11.344 L7.4,11.344 L7.4,7.52 Z M7.96,10.456 L11.712,10.456 L11.712,9.768 L7.96,9.768 L7.96,10.456 Z M7.96,9.304 L11.712,9.304 L11.712,8.664 L7.96,8.664 L7.96,9.304 Z M7.96,8.2 L11.712,8.2 L11.712,7.552 L7.96,7.552 L7.96,8.2 Z M7.952,4.456 L8.36,4.816 C7.88,5.408 7.288,5.928 6.584,6.376 L6.248,5.944 C6.928,5.512 7.496,5.016 7.952,4.456 Z M13.968,8.208 L18.008,8.208 L18.008,8.752 L13.968,8.752 L13.968,8.208 Z M22.056,4.016 L22.648,4.016 L22.648,5.064 L25.792,5.064 L25.792,5.624 L22.648,5.624 L22.648,6.848 L24.8,6.848 L24.8,7.36 C24.352,8.256 23.704,9.024 22.856,9.664 C23.256,9.888 23.696,10.104 24.176,10.296 C24.744,10.512 25.352,10.696 26,10.856 L25.664,11.36 C24.976,11.176 24.32,10.952 23.704,10.696 C23.216,10.488 22.768,10.256 22.368,10 C21.456,10.576 20.368,11.032 19.096,11.376 L18.768,10.864 C19.984,10.576 21.024,10.176 21.888,9.664 C21.472,9.352 21.104,8.992 20.792,8.592 C20.504,8.224 20.296,7.816 20.168,7.384 L19.552,7.384 L19.552,6.848 L22.056,6.848 L22.056,5.624 L18.944,5.624 L18.944,5.064 L22.056,5.064 L22.056,4.016 Z M22.36,9.352 C23.136,8.808 23.736,8.152 24.152,7.384 L20.736,7.384 C20.88,7.808 21.104,8.184 21.408,8.512 C21.688,8.832 22.008,9.112 22.36,9.352 Z" id="省-支" fill="#000000" fill-rule="nonzero"></path>
            <g id="通过十字路口能力" transform="translate(2.000000, 21.000000)" fill="#000000" fill-rule="nonzero">
                <path d="M14,0 C14.3568609,2.18514287e-17 14.6461538,0.289292928 14.6461538,0.64615384 L14.6461538,13.4615385 L27.3538462,13.4615385 C27.7107071,13.4615385 28,13.7508314 28,14.1076923 C28,14.4645532 27.7107071,14.7538462 27.3538462,14.7538462 L14.6461538,14.7538462 L14.6461538,27.3538462 C14.6461538,27.7107071 14.3568609,28 14,28 C13.6431391,28 13.3538462,27.7107071 13.3538462,27.3538462 L13.3538462,14.7538462 L0.64615384,14.7538462 C0.289292921,14.7538462 -1.36718744e-08,14.4645532 -1.36718745e-08,14.1076923 C-1.36718745e-08,13.7508314 0.289292921,13.4615385 0.64615384,13.4615385 L13.3538462,13.4615385 L13.3538462,0.64615384 C13.3538462,0.289292928 13.6431391,6.5554286e-17 14,0 Z" id="形状"></path>
            </g>
        </g>
    </g>
</svg>