<?xml version="1.0" encoding="UTF-8"?>
<svg width="32px" height="44px" viewBox="0 0 32 44" version="1.1" xmlns="http://www.w3.org/2000/svg" xmlns:xlink="http://www.w3.org/1999/xlink">
    <!-- Generator: Sketch 53.1 (72631) - https://sketchapp.com -->
    <title>省-乡交叉口</title>
    <desc>Created with Sketch.</desc>
    <g id="Page-1" stroke="none" stroke-width="1" fill="none" fill-rule="evenodd">
        <g id="省-乡交叉口">
            <rect id="矩形" stroke="#979797" fill="#FFFFFF" x="0.5" y="0.5" width="31" height="15" rx="2"></rect>
            <path d="M9.224,4.08 L9.792,4.08 L9.792,6.128 L9.224,6.128 L9.224,4.08 Z M7.4,7.6 C7.024,7.68 6.64,7.76 6.24,7.832 L6,7.312 C8.472,6.912 10.352,6.264 11.648,5.376 C11.36,5.144 11.056,4.912 10.728,4.68 L11.112,4.312 C11.952,4.896 12.656,5.48 13.232,6.056 L12.832,6.464 C12.608,6.216 12.344,5.968 12.056,5.72 C11.256,6.288 10.264,6.76 9.088,7.144 L12.272,7.144 L12.272,11.408 L11.712,11.408 L11.712,11.048 L7.96,11.048 L7.96,11.424 L7.4,11.424 L7.4,7.6 Z M7.96,10.536 L11.712,10.536 L11.712,9.848 L7.96,9.848 L7.96,10.536 Z M7.96,9.384 L11.712,9.384 L11.712,8.744 L7.96,8.744 L7.96,9.384 Z M7.96,8.28 L11.712,8.28 L11.712,7.632 L7.96,7.632 L7.96,8.28 Z M7.952,4.536 L8.36,4.896 C7.88,5.488 7.288,6.008 6.584,6.456 L6.248,6.024 C6.928,5.592 7.496,5.096 7.952,4.536 Z M13.968,8.288 L18.008,8.288 L18.008,8.832 L13.968,8.832 L13.968,8.288 Z M24.792,7.152 L25.376,7.208 C25.2,8.376 24.664,9.312 23.784,10.016 C23.016,10.648 21.64,11.144 19.672,11.512 L19.424,10.936 C21.232,10.632 22.528,10.192 23.328,9.616 C23.64,9.384 23.904,9.12 24.12,8.832 C23.032,8.984 21.664,9.112 20,9.224 L19.824,8.712 C20.64,8.304 21.504,7.68 22.4,6.848 C21.504,6.944 20.608,7.016 19.728,7.056 L19.584,6.544 C20.52,5.824 21.328,4.976 22.016,4 L22.584,4.208 C21.968,5.08 21.248,5.848 20.432,6.512 C21.264,6.472 22.096,6.408 22.928,6.328 C23.304,5.944 23.688,5.52 24.08,5.064 L24.64,5.336 C23.288,6.88 22.08,7.976 21.016,8.632 C22.344,8.536 23.48,8.416 24.44,8.288 C24.6,7.944 24.72,7.568 24.792,7.152 Z" id="省-乡" fill="#000000" fill-rule="nonzero"></path>
            <g id="路口-(2)" transform="translate(3.000000, 18.000000)" fill="#000000" fill-rule="nonzero">
                <path d="M9.94,0.0071875 C9.3875,0.0071875 8.9396875,0.455 8.9396875,1.0075 L8.9396875,8.36875 C8.9396875,8.679375 8.6878125,8.93125 8.3771875,8.93125 L1.0003125,8.93125 C0.4478125,8.93125 0,9.3790625 0,9.9315625 L0,9.944375 C0,10.496875 0.4478125,10.9446875 1.0003125,10.9446875 L10.3775,10.9446875 C10.688125,10.9446875 10.94,10.6928125 10.94,10.3821875 L10.94,1.0071875 C10.9403125,0.455 10.4925,0.0071875 9.94,0.0071875 Z M24.8809375,8.9309375 L17.50375,8.9309375 C17.193125,8.9309375 16.94125,8.6790625 16.94125,8.3684375 L16.94125,1.0071875 C16.94125,0.4546875 16.4934375,0.006875 15.9409375,0.006875 C15.3884375,0.006875 14.940625,0.4546875 14.940625,1.0071875 L14.940625,10.38125 C14.940625,10.691875 15.1925,10.94375 15.503125,10.94375 L24.8803125,10.94375 C25.4328125,10.94375 25.880625,10.4959375 25.880625,9.9434375 L25.880625,9.930625 C25.8809375,9.37875 25.433125,8.9309375 24.8809375,8.9309375 L24.8809375,8.9309375 Z M10.3778125,14.9390625 L1.0003125,14.9390625 C0.4478125,14.9390625 0,15.386875 0,15.939375 L0,15.9521875 C0,16.5046875 0.4478125,16.9525 1.0003125,16.9525 L8.3771875,16.9525 C8.6878125,16.9525 8.9396875,17.204375 8.9396875,17.515 L8.9396875,24.87625 C8.9396875,25.42875 9.3875,25.8765625 9.94,25.8765625 C10.4925,25.8765625 10.9403125,25.42875 10.9403125,24.87625 L10.9403125,15.5015625 C10.9403125,15.190625 10.6884375,14.9390625 10.3778125,14.9390625 L10.3778125,14.9390625 Z M24.8809375,14.9390625 L15.5034375,14.9390625 C15.1928125,14.9390625 14.9409375,15.1909375 14.9409375,15.5015625 L14.9409375,24.875625 C14.9409375,25.428125 15.38875,25.8759375 15.94125,25.8759375 C16.49375,25.8759375 16.9415625,25.428125 16.9415625,24.875625 L16.9415625,17.514375 C16.9415625,17.20375 17.1934375,16.951875 17.5040625,16.951875 L24.8809375,16.951875 C25.4334375,16.951875 25.88125,16.5040625 25.88125,15.9515625 L25.88125,15.93875 C25.8809375,15.386875 25.433125,14.9390625 24.8809375,14.9390625 L24.8809375,14.9390625 Z" id="形状"></path>
            </g>
        </g>
    </g>
</svg>