<?xml version="1.0" encoding="UTF-8"?>
<svg width="32px" height="45px" viewBox="0 0 32 45" version="1.1" xmlns="http://www.w3.org/2000/svg" xmlns:xlink="http://www.w3.org/1999/xlink">
    <!-- Generator: Sketch 53.1 (72631) - https://sketchapp.com -->
    <title>省-省交叉口</title>
    <desc>Created with Sketch.</desc>
    <g id="Page-1" stroke="none" stroke-width="1" fill="none" fill-rule="evenodd">
        <g id="省-省交叉口">
            <rect id="矩形" stroke="#979797" fill="#FFFFFF" x="0.5" y="0.5" width="31" height="15" rx="2"></rect>
            <path d="M9.224,4 L9.792,4 L9.792,6.048 L9.224,6.048 L9.224,4 Z M7.4,7.52 C7.024,7.6 6.64,7.68 6.24,7.752 L6,7.232 C8.472,6.832 10.352,6.184 11.648,5.296 C11.36,5.064 11.056,4.832 10.728,4.6 L11.112,4.232 C11.952,4.816 12.656,5.4 13.232,5.976 L12.832,6.384 C12.608,6.136 12.344,5.888 12.056,5.64 C11.256,6.208 10.264,6.68 9.088,7.064 L12.272,7.064 L12.272,11.328 L11.712,11.328 L11.712,10.968 L7.96,10.968 L7.96,11.344 L7.4,11.344 L7.4,7.52 Z M7.96,10.456 L11.712,10.456 L11.712,9.768 L7.96,9.768 L7.96,10.456 Z M7.96,9.304 L11.712,9.304 L11.712,8.664 L7.96,8.664 L7.96,9.304 Z M7.96,8.2 L11.712,8.2 L11.712,7.552 L7.96,7.552 L7.96,8.2 Z M7.952,4.456 L8.36,4.816 C7.88,5.408 7.288,5.928 6.584,6.376 L6.248,5.944 C6.928,5.512 7.496,5.016 7.952,4.456 Z M13.968,8.208 L18.008,8.208 L18.008,8.752 L13.968,8.752 L13.968,8.208 Z M21.984,4 L22.552,4 L22.552,6.048 L21.984,6.048 L21.984,4 Z M20.16,7.52 C19.784,7.6 19.4,7.68 19,7.752 L18.76,7.232 C21.232,6.832 23.112,6.184 24.408,5.296 C24.12,5.064 23.816,4.832 23.488,4.6 L23.872,4.232 C24.712,4.816 25.416,5.4 25.992,5.976 L25.592,6.384 C25.368,6.136 25.104,5.888 24.816,5.64 C24.016,6.208 23.024,6.68 21.848,7.064 L25.032,7.064 L25.032,11.328 L24.472,11.328 L24.472,10.968 L20.72,10.968 L20.72,11.344 L20.16,11.344 L20.16,7.52 Z M20.72,10.456 L24.472,10.456 L24.472,9.768 L20.72,9.768 L20.72,10.456 Z M20.72,9.304 L24.472,9.304 L24.472,8.664 L20.72,8.664 L20.72,9.304 Z M20.72,8.2 L24.472,8.2 L24.472,7.552 L20.72,7.552 L20.72,8.2 Z M20.712,4.456 L21.12,4.816 C20.64,5.408 20.048,5.928 19.344,6.376 L19.008,5.944 C19.688,5.512 20.256,5.016 20.712,4.456 Z" id="省-省" fill="#000000" fill-rule="nonzero"></path>
            <g id="单点信号交叉口运行评价模型" transform="translate(3.000000, 19.000000)" fill="#000000" fill-rule="nonzero">
                <path d="M12.65625,0 L13.428125,0 L13.428125,6.896875 L12.65625,6.896875 L12.65625,0 Z M0,12.56875 L6.184375,12.56875 L6.184375,13.340625 L0,13.340625 L0,12.56875 Z M19.428125,12.56875 L25.9375,12.56875 L25.9375,13.340625 L19.428125,13.340625 L19.428125,12.56875 Z M9.96875,17.38125 L10.740625,17.38125 L10.740625,18.678125 L9.96875,18.678125 L9.96875,17.38125 Z M11.303125,17.38125 L12.075,17.38125 L12.075,18.678125 L11.303125,18.678125 L11.303125,17.38125 Z M12.65625,19.271875 L13.428125,19.271875 L13.428125,25.946875 L12.65625,25.946875 L12.65625,19.271875 Z M12.65625,17.38125 L13.428125,17.38125 L13.428125,18.678125 L12.65625,18.678125 L12.65625,17.38125 Z M13.940625,17.38125 L14.7125,17.38125 L14.7125,18.678125 L13.940625,18.678125 L13.940625,17.38125 Z M15.278125,17.38125 L16.05,17.38125 L16.05,18.678125 L15.278125,18.678125 L15.278125,17.38125 Z M9.9875,7.45 L10.759375,7.45 L10.759375,8.746875 L9.9875,8.746875 L9.9875,7.45 Z M11.321875,7.45 L12.09375,7.45 L12.09375,8.746875 L11.321875,8.746875 L11.321875,7.45 Z M12.65625,7.45 L13.428125,7.45 L13.428125,8.746875 L12.65625,8.746875 L12.65625,7.45 Z M13.95625,7.45 L14.728125,7.45 L14.728125,8.746875 L13.95625,8.746875 L13.95625,7.45 Z M15.29375,7.45 L16.065625,7.45 L16.065625,8.746875 L15.29375,8.746875 L15.29375,7.45 Z M17.203125,15.240625 L18.5,15.240625 L18.5,16.0125 L17.203125,16.0125 L17.203125,15.240625 Z M17.203125,13.90625 L18.5,13.90625 L18.5,14.678125 L17.203125,14.678125 L17.203125,13.90625 Z M17.203125,12.56875 L18.5,12.56875 L18.5,13.340625 L17.203125,13.340625 L17.203125,12.56875 Z M17.203125,11.26875 L18.5,11.26875 L18.5,12.040625 L17.203125,12.040625 L17.203125,11.26875 Z M17.203125,9.934375 L18.5,9.934375 L18.5,10.70625 L17.203125,10.70625 L17.203125,9.934375 Z M7.125,15.240625 L8.421875,15.240625 L8.421875,16.0125 L7.125,16.0125 L7.125,15.240625 Z M7.125,13.90625 L8.421875,13.90625 L8.421875,14.678125 L7.125,14.678125 L7.125,13.90625 Z M7.125,12.56875 L8.421875,12.56875 L8.421875,13.340625 L7.125,13.340625 L7.125,12.56875 Z M7.125,11.26875 L8.421875,11.26875 L8.421875,12.040625 L7.125,12.040625 L7.125,11.26875 Z M7.125,9.934375 L8.421875,9.934375 L8.421875,10.70625 L7.125,10.70625 L7.125,9.934375 Z M9.35625,0 L9.35625,8.146875 C9.35625,8.8125 8.8125,9.35625 8.146875,9.35625 L0,9.35625 L0,8.284375 L7.765625,8.284375 C8.053125,8.284375 8.284375,8.05 8.284375,7.765625 L8.284375,0 L9.35625,0 L9.35625,0 Z M9.35625,17.796875 L9.35625,25.94375 L8.284375,25.94375 L8.284375,18.178125 C8.284375,17.89375 8.053125,17.659375 7.765625,17.659375 L0,17.659375 L0,16.5875 L8.146875,16.5875 C8.8125,16.5875 9.35625,17.13125 9.35625,17.796875 L9.35625,17.796875 Z M25.9375,16.5875 L25.9375,17.659375 L18.171875,17.659375 C17.8875,17.659375 17.653125,17.89375 17.653125,18.178125 L17.653125,25.94375 L16.58125,25.94375 L16.58125,17.796875 C16.58125,17.13125 17.125,16.5875 17.790625,16.5875 L25.9375,16.5875 Z M25.9375,8.284375 L25.9375,9.35625 L17.790625,9.35625 C17.125,9.35625 16.58125,8.8125 16.58125,8.146875 L16.58125,0 L17.653125,0 L17.653125,7.765625 C17.653125,8.05 17.8875,8.284375 18.171875,8.284375 L25.9375,8.284375 Z" id="形状"></path>
            </g>
        </g>
    </g>
</svg>