<?xml version="1.0" encoding="UTF-8"?>
<svg width="36px" height="48px" viewBox="0 0 36 48" version="1.1" xmlns="http://www.w3.org/2000/svg" xmlns:xlink="http://www.w3.org/1999/xlink">
    <!-- Generator: Sketch 53.1 (72631) - https://sketchapp.com -->
    <title>省-其它交叉口</title>
    <desc>Created with Sketch.</desc>
    <g id="Page-1" stroke="none" stroke-width="1" fill="none" fill-rule="evenodd">
        <g id="省-其它交叉口">
            <rect id="矩形" stroke="#979797" fill="#FFFFFF" x="0.5" y="0.5" width="35" height="15" rx="2"></rect>
            <path d="M7.224,4.024 L7.792,4.024 L7.792,6.072 L7.224,6.072 L7.224,4.024 Z M5.4,7.544 C5.024,7.624 4.64,7.704 4.24,7.776 L4,7.256 C6.472,6.856 8.352,6.208 9.648,5.32 C9.36,5.088 9.056,4.856 8.728,4.624 L9.112,4.256 C9.952,4.84 10.656,5.424 11.232,6 L10.832,6.408 C10.608,6.16 10.344,5.912 10.056,5.664 C9.256,6.232 8.264,6.704 7.088,7.088 L10.272,7.088 L10.272,11.352 L9.712,11.352 L9.712,10.992 L5.96,10.992 L5.96,11.368 L5.4,11.368 L5.4,7.544 Z M5.96,10.48 L9.712,10.48 L9.712,9.792 L5.96,9.792 L5.96,10.48 Z M5.96,9.328 L9.712,9.328 L9.712,8.688 L5.96,8.688 L5.96,9.328 Z M5.96,8.224 L9.712,8.224 L9.712,7.576 L5.96,7.576 L5.96,8.224 Z M5.952,4.48 L6.36,4.84 C5.88,5.432 5.288,5.952 4.584,6.4 L4.248,5.968 C4.928,5.536 5.496,5.04 5.952,4.48 Z M11.968,8.232 L16.008,8.232 L16.008,8.776 L11.968,8.776 L11.968,8.232 Z M16.928,4.744 L18.28,4.744 L18.28,4.008 L18.864,4.008 L18.864,4.744 L21.872,4.744 L21.872,4.008 L22.456,4.008 L22.456,4.744 L23.808,4.744 L23.808,5.288 L22.456,5.288 L22.456,8.952 L23.96,8.952 L23.96,9.488 L16.784,9.488 L16.784,8.952 L18.28,8.952 L18.28,5.288 L16.928,5.288 L16.928,4.744 Z M18.864,8.952 L21.872,8.952 L21.872,8.04 L18.864,8.04 L18.864,8.952 Z M18.864,7.544 L21.872,7.544 L21.872,6.656 L18.864,6.656 L18.864,7.544 Z M18.864,6.16 L21.872,6.16 L21.872,5.288 L18.864,5.288 L18.864,6.16 Z M19.28,9.68 L19.688,10.048 C19.032,10.544 18.224,10.976 17.264,11.352 L16.904,10.888 C17.848,10.536 18.64,10.136 19.28,9.68 Z M21.392,9.704 C22.288,10.024 23.104,10.408 23.84,10.864 L23.52,11.352 C22.736,10.84 21.928,10.432 21.104,10.136 L21.392,9.704 Z M31.712,4.904 L31.712,6.456 L31.128,6.456 L31.128,5.464 L25.528,5.464 L25.528,6.456 L24.944,6.456 L24.944,4.904 L28.12,4.904 C28.016,4.616 27.904,4.344 27.776,4.096 L28.4,4 C28.512,4.272 28.624,4.568 28.72,4.904 L31.712,4.904 Z M30.464,6.984 L30.856,7.44 C29.768,7.952 28.416,8.384 26.808,8.728 L26.808,10.152 C26.808,10.44 26.936,10.592 27.208,10.592 L30.064,10.592 C30.352,10.592 30.56,10.536 30.68,10.424 C30.848,10.28 30.96,9.872 31.008,9.2 L31.56,9.376 C31.48,10.216 31.32,10.728 31.096,10.912 C30.904,11.072 30.592,11.152 30.168,11.152 L27.032,11.152 C26.488,11.152 26.224,10.856 26.224,10.272 L26.224,6.176 L26.808,6.176 L26.808,8.16 C28.264,7.84 29.488,7.448 30.464,6.984 Z" id="省-其它" fill="#000000" fill-rule="nonzero"></path>
            <g id="交叉口分析" transform="translate(5.000000, 22.000000)" fill="#000000" fill-rule="nonzero">
                <path d="M23.6860625,6.48 C21.6797188,6.48 19.9945313,7.85209375 19.5166875,9.70865625 L11.1495938,9.70865625 L7.99740625,6.55678125 C8.39178125,5.90665625 8.61884375,5.14375 8.61884375,4.32778125 C8.61884375,1.9505 6.69146875,0.02284375 4.31440625,0.02284375 C1.93734375,0.02284375 0.0094375,1.9505 0.0094375,4.32778125 C0.0094375,6.705125 1.937375,8.63221875 4.31440625,8.63221875 C5.09496875,8.63221875 5.8270625,8.424375 6.458375,8.0610625 L9.69525,11.2975938 L9.69525,17.3777813 C7.83825,17.855625 6.466625,19.541125 6.466625,21.546625 C6.466625,23.9242188 8.3935,25.8521563 10.771625,25.8521563 C13.1486875,25.8521563 15.0760938,23.9242188 15.0760938,21.546625 C15.0760938,19.5410625 13.7040312,17.855625 11.8475,17.3777812 L11.8475,11.8608125 L19.5165625,11.8608125 C19.99425,13.7175 21.6795,15.0894375 23.6860625,15.0894375 C26.0630625,15.0894375 27.9904375,13.1623125 27.9904375,10.785 C27.9905,8.4076875 26.0630625,6.48 23.6860625,6.48 Z M4.3144375,6.48 C3.1256875,6.48 2.1616875,5.5163125 2.1616875,4.3278125 C2.1616875,3.139 3.12565625,2.17503125 4.3144375,2.17503125 C5.50271875,2.17503125 6.46665625,3.139 6.46665625,4.32778125 C6.46665625,5.5163125 5.50271875,6.48003125 4.3144375,6.48003125 L4.3144375,6.48 Z M12.9238437,21.546625 C12.9238437,22.7357188 11.959875,23.6993438 10.7716562,23.6993438 C9.58284375,23.6993438 8.61884375,22.7356875 8.61884375,21.546625 C8.61884375,20.358375 9.58284375,19.3944063 10.7716562,19.3944063 C11.959875,19.3944063 12.9238437,20.358375 12.9238437,21.546625 Z M23.6860312,12.9372187 C22.4972187,12.9372187 21.5332812,11.9734688 21.5332812,10.7850312 C21.5332812,9.59621875 22.49725,8.63221875 23.6860625,8.63221875 C24.8742812,8.63221875 25.83825,9.59621875 25.83825,10.7850312 C25.83825,11.9735 24.8743125,12.9372187 23.6860625,12.9372187 L23.6860312,12.9372187 Z" id="形状"></path>
            </g>
        </g>
    </g>
</svg>