<?xml version="1.0" encoding="UTF-8"?>
<svg width="32px" height="49px" viewBox="0 0 32 49" version="1.1" xmlns="http://www.w3.org/2000/svg" xmlns:xlink="http://www.w3.org/1999/xlink">
    <!-- Generator: Sketch 53.1 (72631) - https://sketchapp.com -->
    <title>高-快交叉口</title>
    <desc>Created with Sketch.</desc>
    <g id="Page-1" stroke="none" stroke-width="1" fill="none" fill-rule="evenodd">
        <g id="高-快交叉口">
            <path d="M31.0414378,32.129306 L23.6924613,32.129306 C23.5966051,32.129306 23.5167249,32.1612581 23.4208687,32.1772341 C23.117324,28.6305542 20.3694458,25.8027958 16.8547179,25.3874189 C16.8547179,25.3554668 16.870694,25.3075387 16.870694,25.2755866 L16.870694,17.9266101 C16.870694,17.4153769 16.455317,17 15.9440839,17 C15.4328507,17 15.0174738,17.4153769 15.0174738,17.9266101 L15.0174738,25.2755866 C15.0174738,25.3075387 15.0334498,25.3554668 15.0334498,25.3874189 C11.56665,25.8027958 8.80279581,28.6465302 8.51522716,32.1772341 C8.43534698,32.1612581 8.3554668,32.129306 8.27558662,32.129306 L0.926610085,32.129306 C0.415376935,32.129306 0,32.544683 0,33.0559161 C0,33.5671493 0.415376935,33.9825262 0.926610085,33.9825262 L8.27558662,33.9825262 C8.38741887,33.9825262 8.48327509,33.9505741 8.5791313,33.9186221 C9.07438842,37.2576136 11.7583625,39.8776835 15.129306,40.2611083 C15.0813779,40.3729406 15.0654019,40.4847728 15.0654019,40.6125811 L15.0654019,47.9615577 C15.0654019,48.4727908 15.4807788,48.8881677 15.992012,48.8881677 C16.5032451,48.8881677 16.9186221,48.4727908 16.9186221,47.9615577 L16.9186221,40.6125811 C16.9186221,40.4847728 16.88667,40.3729406 16.8547179,40.2611083 C20.2256615,39.8776835 22.9256116,37.2576136 23.4048927,33.902646 C23.5007489,33.9345981 23.6125811,33.9665502 23.7244134,33.9665502 L31.0733899,33.9665502 C31.5846231,33.9665502 32,33.5511732 32,33.0399401 C31.9680479,32.544683 31.552671,32.129306 31.0414378,32.129306 L31.0414378,32.129306 Z M15.9760359,39.1108337 C12.5092361,39.1108337 9.68147778,36.2990514 9.68147778,32.8162756 C9.68147778,29.3494758 12.4932601,26.5217174 15.9760359,26.5217174 C16.7588617,26.5217174 17.5097354,26.6655017 18.212681,26.9370944 C20.5771343,27.8317524 22.2705941,30.1323015 22.2705941,32.8162756 C22.2546181,36.2990514 19.4428357,39.1108337 15.9760359,39.1108337 Z" id="形状" fill="#666666" fill-rule="nonzero"></path>
            <rect id="矩形" stroke="#979797" fill="#FFFFFF" x="0.5" y="0.5" width="31" height="15" rx="2"></rect>
            <path d="M9.104,4.416 C9.192,4.632 9.28,4.872 9.36,5.136 L12.528,5.136 L12.528,5.664 L5.464,5.664 L5.464,5.136 L8.744,5.136 C8.664,4.912 8.568,4.712 8.472,4.528 L9.104,4.416 Z M11.248,11.776 L10.576,11.776 L10.44,11.256 L11.08,11.28 C11.408,11.28 11.576,11.152 11.576,10.896 L11.576,8.72 L6.424,8.72 L6.424,11.8 L5.872,11.8 L5.872,8.216 L12.128,8.216 L12.128,11.016 C12.128,11.52 11.832,11.776 11.248,11.776 Z M6.768,6.184 L11.24,6.184 L11.24,7.736 L6.768,7.736 L6.768,6.184 Z M10.68,7.288 L10.68,6.632 L7.328,6.632 L7.328,7.288 L10.68,7.288 Z M7.432,9.232 L10.576,9.232 L10.576,10.832 L7.432,10.832 L7.432,9.232 Z M10.064,10.4 L10.064,9.664 L7.952,9.664 L7.952,10.4 L10.064,10.4 Z M13.36,8.656 L17.4,8.656 L17.4,9.2 L13.36,9.2 L13.36,8.656 Z M20.976,5.688 L22.4,5.688 L22.4,4.48 L22.96,4.48 L22.96,5.688 L24.664,5.688 L24.664,8.104 L25.288,8.104 L25.288,8.664 L23.104,8.664 C23.6,9.752 24.392,10.632 25.472,11.304 L25.08,11.752 C23.992,11.008 23.192,10.072 22.688,8.936 C22.328,10.216 21.616,11.152 20.552,11.76 L20.2,11.288 C21.224,10.744 21.896,9.872 22.2,8.664 L20.648,8.664 L20.648,8.104 L22.312,8.104 C22.368,7.736 22.4,7.336 22.4,6.92 L22.4,6.224 L20.976,6.224 L20.976,5.688 Z M22.96,6.224 L22.96,6.8 C22.96,7.264 22.928,7.696 22.864,8.104 L24.104,8.104 L24.104,6.224 L22.96,6.224 Z M18.368,6.008 L18.824,6.04 C18.8,6.84 18.704,7.608 18.536,8.328 L18.064,8.192 C18.24,7.504 18.344,6.776 18.368,6.008 Z M20.384,5.832 C20.608,6.344 20.8,6.928 20.976,7.592 L20.504,7.704 C20.36,7.104 20.176,6.528 19.952,5.968 L20.384,5.832 Z M19.224,4.488 L19.792,4.488 L19.792,11.768 L19.224,11.768 L19.224,4.488 Z" id="高-快" fill="#000000" fill-rule="nonzero"></path>
        </g>
    </g>
</svg>