<?xml version="1.0" encoding="UTF-8"?>
<svg width="32px" height="46px" viewBox="0 0 32 46" version="1.1" xmlns="http://www.w3.org/2000/svg" xmlns:xlink="http://www.w3.org/1999/xlink">
    <!-- Generator: Sketch 53.1 (72631) - https://sketchapp.com -->
    <title>高-主交叉口</title>
    <desc>Created with Sketch.</desc>
    <g id="Page-1" stroke="none" stroke-width="1" fill="none" fill-rule="evenodd">
        <g id="高-主交叉口">
            <g id="分组-2" transform="translate(3.000000, 21.000000)" fill-rule="nonzero">
                <path d="M9.28571429,0 L9.28571429,5.15873015 C9.28571601,7.35779508 7.56139375,9.17060231 5.36507937,9.28055556 L5.15873015,9.28571429 L0,9.28571429 L0,7.22222223 L5.15873015,7.22222223 C6.2385811,7.22256397 7.13607472,6.3903017 7.21706348,5.31349206 L7.22222223,5.15873015 L7.22222223,0 L9.28571429,0 Z M5.15873015,15.4761905 C7.35779508,15.4761888 9.17060231,17.200511 9.28055556,19.3968254 L9.28571429,19.6031746 L9.28571429,24.7619048 L7.22222223,24.7619048 L7.22222223,19.6031746 C7.22256397,18.5233237 6.3903017,17.62583 5.31349206,17.5448413 L5.15873015,17.5396825 L0,17.5396825 L0,15.4761905 L5.15873015,15.4761905 Z M18.7777778,0 L18.7777778,5.15873015 C18.777436,6.2385811 19.6096983,7.13607472 20.6865079,7.21706348 L20.8412698,7.22222223 L26,7.22222223 L26,9.28571429 L20.8412698,9.28571429 C18.6422049,9.28571601 16.8293977,7.56139375 16.7194444,5.36507937 L16.7142857,5.15873015 L16.7142857,0 L18.7777778,0 Z M26,15.4761905 L26,17.5396825 L20.8412698,17.5396825 C19.7614189,17.5393408 18.8639253,18.3716031 18.7829365,19.4484127 L18.7777778,19.6031746 L18.7777778,24.7619048 L16.7142857,24.7619048 L16.7142857,19.6031746 C16.714284,17.4041097 18.4386062,15.5913025 20.6349206,15.4813492 L20.8412698,15.4761905 L26,15.4761905 Z" id="形状" fill="#122236"></path>
                <path d="M12.9001048,15.8403298 C11.2590301,15.8403298 9.92867626,14.5099759 9.92867626,12.8689013 C9.92867626,11.2278266 11.2590301,9.89747268 12.9001048,9.89747268 C14.5411795,9.89747268 15.8715334,11.2278266 15.8715334,12.8689013 C15.8715334,14.5099759 14.5411795,15.8403298 12.9001048,15.8403298 Z" id="形状" fill="#000000" transform="translate(12.900105, 12.868901) rotate(-45.000000) translate(-12.900105, -12.868901) "></path>
            </g>
            <rect id="矩形" stroke="#979797" fill="#FFFFFF" x="0.5" y="0.5" width="31" height="15" rx="2"></rect>
            <path d="M9.104,4.416 C9.192,4.632 9.28,4.872 9.36,5.136 L12.528,5.136 L12.528,5.664 L5.464,5.664 L5.464,5.136 L8.744,5.136 C8.664,4.912 8.568,4.712 8.472,4.528 L9.104,4.416 Z M11.248,11.776 L10.576,11.776 L10.44,11.256 L11.08,11.28 C11.408,11.28 11.576,11.152 11.576,10.896 L11.576,8.72 L6.424,8.72 L6.424,11.8 L5.872,11.8 L5.872,8.216 L12.128,8.216 L12.128,11.016 C12.128,11.52 11.832,11.776 11.248,11.776 Z M6.768,6.184 L11.24,6.184 L11.24,7.736 L6.768,7.736 L6.768,6.184 Z M10.68,7.288 L10.68,6.632 L7.328,6.632 L7.328,7.288 L10.68,7.288 Z M7.432,9.232 L10.576,9.232 L10.576,10.832 L7.432,10.832 L7.432,9.232 Z M10.064,10.4 L10.064,9.664 L7.952,9.664 L7.952,10.4 L10.064,10.4 Z M13.36,8.656 L17.4,8.656 L17.4,9.2 L13.36,9.2 L13.36,8.656 Z M21.472,6.392 L18.496,6.392 L18.496,5.824 L21.52,5.824 C21.384,5.4 21.216,4.992 21.024,4.6 L21.584,4.448 C21.784,4.904 21.936,5.32 22.048,5.704 L21.736,5.824 L25.032,5.824 L25.032,6.392 L22.056,6.392 L22.056,8.28 L24.648,8.28 L24.648,8.816 L22.056,8.816 L22.056,10.96 L25.312,10.96 L25.312,11.528 L18.216,11.528 L18.216,10.96 L21.472,10.96 L21.472,8.816 L18.88,8.816 L18.88,8.28 L21.472,8.28 L21.472,6.392 Z" id="高-主" fill="#000000" fill-rule="nonzero"></path>
        </g>
    </g>
</svg>