<?xml version="1.0" encoding="UTF-8"?>
<svg width="36px" height="48px" viewBox="0 0 36 48" version="1.1" xmlns="http://www.w3.org/2000/svg" xmlns:xlink="http://www.w3.org/1999/xlink">
    <!-- Generator: Sketch 53.1 (72631) - https://sketchapp.com -->
    <title>高-其它交叉口</title>
    <desc>Created with Sketch.</desc>
    <g id="Page-1" stroke="none" stroke-width="1" fill="none" fill-rule="evenodd">
        <g id="高-其它交叉口">
            <rect id="矩形" stroke="#979797" fill="#FFFFFF" x="0.5" y="0.5" width="35" height="15" rx="2"></rect>
            <path d="M7.104,4.416 C7.192,4.632 7.28,4.872 7.36,5.136 L10.528,5.136 L10.528,5.664 L3.464,5.664 L3.464,5.136 L6.744,5.136 C6.664,4.912 6.568,4.712 6.472,4.528 L7.104,4.416 Z M9.248,11.776 L8.576,11.776 L8.44,11.256 L9.08,11.28 C9.408,11.28 9.576,11.152 9.576,10.896 L9.576,8.72 L4.424,8.72 L4.424,11.8 L3.872,11.8 L3.872,8.216 L10.128,8.216 L10.128,11.016 C10.128,11.52 9.832,11.776 9.248,11.776 Z M4.768,6.184 L9.24,6.184 L9.24,7.736 L4.768,7.736 L4.768,6.184 Z M8.68,7.288 L8.68,6.632 L5.328,6.632 L5.328,7.288 L8.68,7.288 Z M5.432,9.232 L8.576,9.232 L8.576,10.832 L5.432,10.832 L5.432,9.232 Z M8.064,10.4 L8.064,9.664 L5.952,9.664 L5.952,10.4 L8.064,10.4 Z M11.36,8.656 L15.4,8.656 L15.4,9.2 L11.36,9.2 L11.36,8.656 Z M16.32,5.168 L17.672,5.168 L17.672,4.432 L18.256,4.432 L18.256,5.168 L21.264,5.168 L21.264,4.432 L21.848,4.432 L21.848,5.168 L23.2,5.168 L23.2,5.712 L21.848,5.712 L21.848,9.376 L23.352,9.376 L23.352,9.912 L16.176,9.912 L16.176,9.376 L17.672,9.376 L17.672,5.712 L16.32,5.712 L16.32,5.168 Z M18.256,9.376 L21.264,9.376 L21.264,8.464 L18.256,8.464 L18.256,9.376 Z M18.256,7.968 L21.264,7.968 L21.264,7.08 L18.256,7.08 L18.256,7.968 Z M18.256,6.584 L21.264,6.584 L21.264,5.712 L18.256,5.712 L18.256,6.584 Z M18.672,10.104 L19.08,10.472 C18.424,10.968 17.616,11.4 16.656,11.776 L16.296,11.312 C17.24,10.96 18.032,10.56 18.672,10.104 Z M20.784,10.128 C21.68,10.448 22.496,10.832 23.232,11.288 L22.912,11.776 C22.128,11.264 21.32,10.856 20.496,10.56 L20.784,10.128 Z M31.104,5.328 L31.104,6.88 L30.52,6.88 L30.52,5.888 L24.92,5.888 L24.92,6.88 L24.336,6.88 L24.336,5.328 L27.512,5.328 C27.408,5.04 27.296,4.768 27.168,4.52 L27.792,4.424 C27.904,4.696 28.016,4.992 28.112,5.328 L31.104,5.328 Z M29.856,7.408 L30.248,7.864 C29.16,8.376 27.808,8.808 26.2,9.152 L26.2,10.576 C26.2,10.864 26.328,11.016 26.6,11.016 L29.456,11.016 C29.744,11.016 29.952,10.96 30.072,10.848 C30.24,10.704 30.352,10.296 30.4,9.624 L30.952,9.8 C30.872,10.64 30.712,11.152 30.488,11.336 C30.296,11.496 29.984,11.576 29.56,11.576 L26.424,11.576 C25.88,11.576 25.616,11.28 25.616,10.696 L25.616,6.6 L26.2,6.6 L26.2,8.584 C27.656,8.264 28.88,7.872 29.856,7.408 Z" id="高-其它" fill="#000000" fill-rule="nonzero"></path>
            <g id="交叉口分析" transform="translate(5.000000, 22.000000)" fill="#000000" fill-rule="nonzero">
                <path d="M23.6860625,6.48 C21.6797188,6.48 19.9945313,7.85209375 19.5166875,9.70865625 L11.1495938,9.70865625 L7.99740625,6.55678125 C8.39178125,5.90665625 8.61884375,5.14375 8.61884375,4.32778125 C8.61884375,1.9505 6.69146875,0.02284375 4.31440625,0.02284375 C1.93734375,0.02284375 0.0094375,1.9505 0.0094375,4.32778125 C0.0094375,6.705125 1.937375,8.63221875 4.31440625,8.63221875 C5.09496875,8.63221875 5.8270625,8.424375 6.458375,8.0610625 L9.69525,11.2975938 L9.69525,17.3777813 C7.83825,17.855625 6.466625,19.541125 6.466625,21.546625 C6.466625,23.9242188 8.3935,25.8521563 10.771625,25.8521563 C13.1486875,25.8521563 15.0760938,23.9242188 15.0760938,21.546625 C15.0760938,19.5410625 13.7040312,17.855625 11.8475,17.3777812 L11.8475,11.8608125 L19.5165625,11.8608125 C19.99425,13.7175 21.6795,15.0894375 23.6860625,15.0894375 C26.0630625,15.0894375 27.9904375,13.1623125 27.9904375,10.785 C27.9905,8.4076875 26.0630625,6.48 23.6860625,6.48 Z M4.3144375,6.48 C3.1256875,6.48 2.1616875,5.5163125 2.1616875,4.3278125 C2.1616875,3.139 3.12565625,2.17503125 4.3144375,2.17503125 C5.50271875,2.17503125 6.46665625,3.139 6.46665625,4.32778125 C6.46665625,5.5163125 5.50271875,6.48003125 4.3144375,6.48003125 L4.3144375,6.48 Z M12.9238437,21.546625 C12.9238437,22.7357188 11.959875,23.6993438 10.7716562,23.6993438 C9.58284375,23.6993438 8.61884375,22.7356875 8.61884375,21.546625 C8.61884375,20.358375 9.58284375,19.3944063 10.7716562,19.3944063 C11.959875,19.3944063 12.9238437,20.358375 12.9238437,21.546625 Z M23.6860312,12.9372187 C22.4972187,12.9372187 21.5332812,11.9734688 21.5332812,10.7850312 C21.5332812,9.59621875 22.49725,8.63221875 23.6860625,8.63221875 C24.8742812,8.63221875 25.83825,9.59621875 25.83825,10.7850312 C25.83825,11.9735 24.8743125,12.9372187 23.6860625,12.9372187 L23.6860312,12.9372187 Z" id="形状"></path>
            </g>
        </g>
    </g>
</svg>