<?xml version="1.0" encoding="UTF-8"?>
<svg width="32px" height="47px" viewBox="0 0 32 47" version="1.1" xmlns="http://www.w3.org/2000/svg" xmlns:xlink="http://www.w3.org/1999/xlink">
    <!-- Generator: Sketch 53.1 (72631) - https://sketchapp.com -->
    <title>高-国交叉口</title>
    <desc>Created with Sketch.</desc>
    <g id="Page-1" stroke="none" stroke-width="1" fill="none" fill-rule="evenodd">
        <g id="高-国交叉口">
            <rect id="矩形" stroke="#979797" fill="#FFFFFF" x="0.5" y="0.5" width="31" height="15" rx="2"></rect>
            <path d="M9.104,4.416 C9.192,4.632 9.28,4.872 9.36,5.136 L12.528,5.136 L12.528,5.664 L5.464,5.664 L5.464,5.136 L8.744,5.136 C8.664,4.912 8.568,4.712 8.472,4.528 L9.104,4.416 Z M11.248,11.776 L10.576,11.776 L10.44,11.256 L11.08,11.28 C11.408,11.28 11.576,11.152 11.576,10.896 L11.576,8.72 L6.424,8.72 L6.424,11.8 L5.872,11.8 L5.872,8.216 L12.128,8.216 L12.128,11.016 C12.128,11.52 11.832,11.776 11.248,11.776 Z M6.768,6.184 L11.24,6.184 L11.24,7.736 L6.768,7.736 L6.768,6.184 Z M10.68,7.288 L10.68,6.632 L7.328,6.632 L7.328,7.288 L10.68,7.288 Z M7.432,9.232 L10.576,9.232 L10.576,10.832 L7.432,10.832 L7.432,9.232 Z M10.064,10.4 L10.064,9.664 L7.952,9.664 L7.952,10.4 L10.064,10.4 Z M13.36,8.656 L17.4,8.656 L17.4,9.2 L13.36,9.2 L13.36,8.656 Z M19.776,6.104 L23.736,6.104 L23.736,6.624 L22.056,6.624 L22.056,7.776 L23.488,7.776 L23.488,8.288 L22.056,8.288 L22.056,9.56 L23.968,9.56 L23.968,10.088 L19.56,10.088 L19.56,9.56 L21.464,9.56 L21.464,8.288 L20.032,8.288 L20.032,7.776 L21.464,7.776 L21.464,6.624 L19.776,6.624 L19.776,6.104 Z M25.048,4.832 L25.048,11.784 L24.464,11.784 L24.464,11.44 L19.056,11.44 L19.056,11.784 L18.472,11.784 L18.472,4.832 L25.048,4.832 Z M19.056,10.896 L24.464,10.896 L24.464,5.376 L19.056,5.376 L19.056,10.896 Z M23,8.456 C23.2,8.728 23.376,9.024 23.52,9.336 L23.072,9.544 C22.912,9.184 22.736,8.872 22.544,8.608 L23,8.456 Z" id="高-国" fill="#000000" fill-rule="nonzero"></path>
            <g id="十字路口" transform="translate(2.000000, 19.000000)" fill="#000000" fill-rule="nonzero">
                <path d="M14,8.75 C11.1050625,8.75 8.75,11.1050625 8.75,14 C8.75,16.8949375 11.1050625,19.25 14,19.25 C16.8949375,19.25 19.25,16.8949375 19.25,14 C19.25,11.1050625 16.8949375,8.75 14,8.75 Z M14,17.5 C12.0701875,17.5 10.5,15.9298125 10.5,14 C10.5,12.0701875 12.0701875,10.5 14,10.5 C15.9298125,10.5 17.5,12.0701875 17.5,14 C17.5,15.9298125 15.9298125,17.5 14,17.5 Z" id="形状"></path>
                <path d="M27.125,11.375 L22.341375,11.375 C21.4767305,8.65454339 19.3453904,6.5230402 16.625,5.6581875 L16.625,0.875 C16.625,0.391750844 16.2332492,2.95904766e-17 15.75,0 L12.25,0 C11.7667508,-2.95904766e-17 11.375,0.391750844 11.375,0.875 L11.375,5.6581875 C8.65460957,6.5230402 6.5232695,8.65454339 5.658625,11.375 L0.875,11.375 C0.391750844,11.375 5.91809532e-17,11.7667508 0,12.25 L0,15.75 C5.91809532e-17,16.2332492 0.391750844,16.625 0.875,16.625 L5.658625,16.625 C6.5130625,19.3353125 8.665125,21.4869375 11.375,22.3418125 L11.375,27.125 C11.375,27.6082492 11.7667508,28 12.25,28 L15.75,28 C16.2332492,28 16.625,27.6082492 16.625,27.125 L16.625,22.3418125 C19.334875,21.4869375 21.4869375,19.3353125 22.341375,16.625 L27.125,16.625 C27.6082492,16.625 28,16.2332492 28,15.75 L28,12.25 C28,11.7667508 27.6082492,11.375 27.125,11.375 Z M26.25,14.875 L21.672875,14.875 C21.2643504,14.8750655 20.9102382,15.1578105 20.81975,15.5561875 C20.227375,18.1615 18.1615,20.2278125 15.5561875,20.81975 C15.1578105,20.9102382 14.8750655,21.2643504 14.875,21.672875 L14.875,26.25 L13.125,26.25 L13.125,21.672875 C13.1249345,21.2643504 12.8421895,20.9102382 12.4438125,20.81975 C9.8385,20.227375 7.7721875,18.1615 7.18025,15.5561875 C7.0897618,15.1578105 6.73564963,14.8750655 6.327125,14.875 L1.75,14.875 L1.75,13.125 L6.327125,13.125 C6.73564963,13.1249345 7.0897618,12.8421895 7.18025,12.4438125 C7.772625,9.8380625 9.8385,7.7721875 12.4438125,7.1798125 C12.8420978,7.08917807 13.1247716,6.73515504 13.125,6.3266875 L13.125,1.75 L14.875,1.75 L14.875,6.3266875 C14.8750655,6.73521213 15.1578105,7.0893243 15.5561875,7.1798125 C18.1615,7.7721875 20.2278125,9.8380625 20.81975,12.4438125 C20.9102382,12.8421895 21.2643504,13.1249345 21.672875,13.125 L26.25,13.125 L26.25,14.875 Z" id="形状"></path>
            </g>
        </g>
    </g>
</svg>