<?xml version="1.0" encoding="UTF-8"?>
<svg width="32px" height="44px" viewBox="0 0 32 44" version="1.1" xmlns="http://www.w3.org/2000/svg" xmlns:xlink="http://www.w3.org/1999/xlink">
    <!-- Generator: Sketch 53.1 (72631) - https://sketchapp.com -->
    <title>高-乡交叉口</title>
    <desc>Created with Sketch.</desc>
    <g id="Page-1" stroke="none" stroke-width="1" fill="none" fill-rule="evenodd">
        <g id="高-乡交叉口">
            <rect id="矩形" stroke="#979797" fill="#FFFFFF" x="0.5" y="0.5" width="31" height="15" rx="2"></rect>
            <path d="M9.104,4.416 C9.192,4.632 9.28,4.872 9.36,5.136 L12.528,5.136 L12.528,5.664 L5.464,5.664 L5.464,5.136 L8.744,5.136 C8.664,4.912 8.568,4.712 8.472,4.528 L9.104,4.416 Z M11.248,11.776 L10.576,11.776 L10.44,11.256 L11.08,11.28 C11.408,11.28 11.576,11.152 11.576,10.896 L11.576,8.72 L6.424,8.72 L6.424,11.8 L5.872,11.8 L5.872,8.216 L12.128,8.216 L12.128,11.016 C12.128,11.52 11.832,11.776 11.248,11.776 Z M6.768,6.184 L11.24,6.184 L11.24,7.736 L6.768,7.736 L6.768,6.184 Z M10.68,7.288 L10.68,6.632 L7.328,6.632 L7.328,7.288 L10.68,7.288 Z M7.432,9.232 L10.576,9.232 L10.576,10.832 L7.432,10.832 L7.432,9.232 Z M10.064,10.4 L10.064,9.664 L7.952,9.664 L7.952,10.4 L10.064,10.4 Z M13.36,8.656 L17.4,8.656 L17.4,9.2 L13.36,9.2 L13.36,8.656 Z M24.184,7.52 L24.768,7.576 C24.592,8.744 24.056,9.68 23.176,10.384 C22.408,11.016 21.032,11.512 19.064,11.88 L18.816,11.304 C20.624,11 21.92,10.56 22.72,9.984 C23.032,9.752 23.296,9.488 23.512,9.2 C22.424,9.352 21.056,9.48 19.392,9.592 L19.216,9.08 C20.032,8.672 20.896,8.048 21.792,7.216 C20.896,7.312 20,7.384 19.12,7.424 L18.976,6.912 C19.912,6.192 20.72,5.344 21.408,4.368 L21.976,4.576 C21.36,5.448 20.64,6.216 19.824,6.88 C20.656,6.84 21.488,6.776 22.32,6.696 C22.696,6.312 23.08,5.888 23.472,5.432 L24.032,5.704 C22.68,7.248 21.472,8.344 20.408,9 C21.736,8.904 22.872,8.784 23.832,8.656 C23.992,8.312 24.112,7.936 24.184,7.52 Z" id="高-乡" fill="#000000" fill-rule="nonzero"></path>
            <g id="路口-(2)" transform="translate(3.000000, 18.000000)" fill="#000000" fill-rule="nonzero">
                <path d="M9.94,0.0071875 C9.3875,0.0071875 8.9396875,0.455 8.9396875,1.0075 L8.9396875,8.36875 C8.9396875,8.679375 8.6878125,8.93125 8.3771875,8.93125 L1.0003125,8.93125 C0.4478125,8.93125 0,9.3790625 0,9.9315625 L0,9.944375 C0,10.496875 0.4478125,10.9446875 1.0003125,10.9446875 L10.3775,10.9446875 C10.688125,10.9446875 10.94,10.6928125 10.94,10.3821875 L10.94,1.0071875 C10.9403125,0.455 10.4925,0.0071875 9.94,0.0071875 Z M24.8809375,8.9309375 L17.50375,8.9309375 C17.193125,8.9309375 16.94125,8.6790625 16.94125,8.3684375 L16.94125,1.0071875 C16.94125,0.4546875 16.4934375,0.006875 15.9409375,0.006875 C15.3884375,0.006875 14.940625,0.4546875 14.940625,1.0071875 L14.940625,10.38125 C14.940625,10.691875 15.1925,10.94375 15.503125,10.94375 L24.8803125,10.94375 C25.4328125,10.94375 25.880625,10.4959375 25.880625,9.9434375 L25.880625,9.930625 C25.8809375,9.37875 25.433125,8.9309375 24.8809375,8.9309375 L24.8809375,8.9309375 Z M10.3778125,14.9390625 L1.0003125,14.9390625 C0.4478125,14.9390625 0,15.386875 0,15.939375 L0,15.9521875 C0,16.5046875 0.4478125,16.9525 1.0003125,16.9525 L8.3771875,16.9525 C8.6878125,16.9525 8.9396875,17.204375 8.9396875,17.515 L8.9396875,24.87625 C8.9396875,25.42875 9.3875,25.8765625 9.94,25.8765625 C10.4925,25.8765625 10.9403125,25.42875 10.9403125,24.87625 L10.9403125,15.5015625 C10.9403125,15.190625 10.6884375,14.9390625 10.3778125,14.9390625 L10.3778125,14.9390625 Z M24.8809375,14.9390625 L15.5034375,14.9390625 C15.1928125,14.9390625 14.9409375,15.1909375 14.9409375,15.5015625 L14.9409375,24.875625 C14.9409375,25.428125 15.38875,25.8759375 15.94125,25.8759375 C16.49375,25.8759375 16.9415625,25.428125 16.9415625,24.875625 L16.9415625,17.514375 C16.9415625,17.20375 17.1934375,16.951875 17.5040625,16.951875 L24.8809375,16.951875 C25.4334375,16.951875 25.88125,16.5040625 25.88125,15.9515625 L25.88125,15.93875 C25.8809375,15.386875 25.433125,14.9390625 24.8809375,14.9390625 L24.8809375,14.9390625 Z" id="形状"></path>
            </g>
        </g>
    </g>
</svg>