<?xml version="1.0" encoding="UTF-8"?>
<svg width="32px" height="42px" viewBox="0 0 32 42" version="1.1" xmlns="http://www.w3.org/2000/svg" xmlns:xlink="http://www.w3.org/1999/xlink">
    <!-- Generator: Sketch 53.1 (72631) - https://sketchapp.com -->
    <title>高-高交叉口</title>
    <desc>Created with Sketch.</desc>
    <g id="Page-1" stroke="none" stroke-width="1" fill="none" fill-rule="evenodd">
        <g id="高-高交叉口">
            <rect id="矩形" stroke="#979797" fill="#FFFFFF" x="0.5" y="0.5" width="31" height="15" rx="2"></rect>
            <path d="M9.104,4.416 C9.192,4.632 9.28,4.872 9.36,5.136 L12.528,5.136 L12.528,5.664 L5.464,5.664 L5.464,5.136 L8.744,5.136 C8.664,4.912 8.568,4.712 8.472,4.528 L9.104,4.416 Z M11.248,11.776 L10.576,11.776 L10.44,11.256 L11.08,11.28 C11.408,11.28 11.576,11.152 11.576,10.896 L11.576,8.72 L6.424,8.72 L6.424,11.8 L5.872,11.8 L5.872,8.216 L12.128,8.216 L12.128,11.016 C12.128,11.52 11.832,11.776 11.248,11.776 Z M6.768,6.184 L11.24,6.184 L11.24,7.736 L6.768,7.736 L6.768,6.184 Z M10.68,7.288 L10.68,6.632 L7.328,6.632 L7.328,7.288 L10.68,7.288 Z M7.432,9.232 L10.576,9.232 L10.576,10.832 L7.432,10.832 L7.432,9.232 Z M10.064,10.4 L10.064,9.664 L7.952,9.664 L7.952,10.4 L10.064,10.4 Z M13.36,8.656 L17.4,8.656 L17.4,9.2 L13.36,9.2 L13.36,8.656 Z M21.864,4.416 C21.952,4.632 22.04,4.872 22.12,5.136 L25.288,5.136 L25.288,5.664 L18.224,5.664 L18.224,5.136 L21.504,5.136 C21.424,4.912 21.328,4.712 21.232,4.528 L21.864,4.416 Z M24.008,11.776 L23.336,11.776 L23.2,11.256 L23.84,11.28 C24.168,11.28 24.336,11.152 24.336,10.896 L24.336,8.72 L19.184,8.72 L19.184,11.8 L18.632,11.8 L18.632,8.216 L24.888,8.216 L24.888,11.016 C24.888,11.52 24.592,11.776 24.008,11.776 Z M19.528,6.184 L24,6.184 L24,7.736 L19.528,7.736 L19.528,6.184 Z M23.44,7.288 L23.44,6.632 L20.088,6.632 L20.088,7.288 L23.44,7.288 Z M20.192,9.232 L23.336,9.232 L23.336,10.832 L20.192,10.832 L20.192,9.232 Z M22.824,10.4 L22.824,9.664 L20.712,9.664 L20.712,10.4 L22.824,10.4 Z" id="高-高" fill="#000000" fill-rule="nonzero"></path>
            <g id="8通道(干线)信号交叉口运行评价模型" transform="translate(2.000000, 19.000000)" fill="#000000" fill-rule="nonzero">
                <path d="M8.65879733,7.05612472 C8.71804009,7.02494432 8.77728285,7.0155902 8.83652561,7.02806236 C8.87394209,7.03741648 8.90512249,7.05612472 8.92694878,7.08418708 C9.04855234,7.23697105 9.1701559,7.38663697 9.29175947,7.53942094 C9.29487751,7.54253898 9.29799555,7.54565702 9.30111359,7.5518931 L9.32917595,7.51447661 C9.32917595,7.51759465 9.33229399,7.51759465 9.33229399,7.52071269 C9.32917595,7.5363029 9.32605791,7.5518931 9.32293987,7.57060134 C9.32293987,7.57683742 9.32293987,7.5830735 9.32605791,7.58930958 C9.34476615,7.6142539 9.36971047,7.63919822 9.38530067,7.66726058 C9.42583519,7.74521158 9.42583519,7.82628062 9.37282851,7.91046771 C9.36659243,7.91670379 9.36035635,7.92605791 9.35723831,7.93229399 C9.31046771,7.96971047 9.26681514,8.00712695 9.22004454,8.04142539 C9.20757238,8.04766147 9.19821826,8.05389755 9.1857461,8.05701559 C9.10155902,8.08819599 9.0298441,8.07260579 8.9674833,8.02271715 C8.93942094,8.00089087 8.92071269,7.97282851 8.89888641,7.94788419 C8.88953229,7.93853007 8.88329621,7.93229399 8.86770601,7.93541203 C8.85523385,7.93541203 8.83964365,7.93541203 8.82717149,7.93229399 C8.82717149,7.92917595 8.82405345,7.92917595 8.82405345,7.92605791 C8.83652561,7.91982183 8.85211581,7.91358575 8.86458797,7.90423163 L8.85523385,7.89487751 C8.73363029,7.74521158 8.61514477,7.59242762 8.4935412,7.44276169 C8.45612472,7.39599109 8.4467706,7.33986637 8.4623608,7.27750557 C8.47483296,7.23073497 8.49665924,7.19020045 8.53095768,7.15278396 C8.53095768,7.15278396 8.53407572,7.14966592 8.53407572,7.14654788 C8.56837416,7.11848552 8.59955457,7.0935412 8.63385301,7.06547884 C8.64320713,7.0623608 8.65256125,7.05924276 8.65879733,7.05612472 L8.65879733,7.05612472 Z M8.90824053,7.7545657 C8.94253898,7.8169265 8.97683742,7.88240535 9.01113586,7.94476615 C9.10155902,7.93229399 9.26993318,7.79821826 9.31670379,7.70155902 C9.2636971,7.65478842 9.20757238,7.60489978 9.1545657,7.55812918 C9.08908686,7.64855234 9.01113586,7.71403118 8.90824053,7.7545657 L8.90824053,7.7545657 Z M8.68062361,7.48017817 C8.74922049,7.39599109 8.83028953,7.33363029 8.92383073,7.28374165 L8.85835189,7.14342984 C8.73051225,7.19331849 8.63073497,7.27438753 8.55278396,7.38663697 C8.59955457,7.42093541 8.64008909,7.44899777 8.68062361,7.48017817 Z M8.9986637,7.25567929 L9.0454343,7.36792873 C9.06414254,7.41469933 9.09532294,7.45523385 9.13273942,7.48953229 C9.16703786,7.52383073 9.2013363,7.55501114 9.2325167,7.58619154 C9.23875278,7.59242762 9.24498886,7.59554566 9.25434298,7.59242762 C9.2636971,7.58930958 9.27305122,7.58930958 9.28240535,7.58619154 C9.29175947,7.5830735 9.29487751,7.57995546 9.28864143,7.57060134 C9.28864143,7.5674833 9.28552339,7.5674833 9.28552339,7.56436526 C9.1857461,7.43964365 9.08596882,7.31492205 8.9830735,7.19020045 C8.97995546,7.18708241 8.97683742,7.18396437 8.97683742,7.18084633 L8.97371938,7.18084633 C8.97995546,7.20890869 8.98930958,7.23385301 8.9986637,7.25567929 L8.9986637,7.25567929 Z M8.60267261,7.53006682 C8.69933185,7.64855234 8.79287305,7.76703786 8.88953229,7.88552339 C8.89888641,7.89799555 8.89888641,7.89799555 8.90824053,7.88240535 C8.92071269,7.86057906 8.92383073,7.84498886 8.91135857,7.82316258 C8.88329621,7.78262806 8.85523385,7.7389755 8.83028953,7.69532294 C8.80222717,7.65167038 8.76792873,7.62048998 8.72427617,7.59242762 C8.68062361,7.56124722 8.63385301,7.53318486 8.58708241,7.50200445 C8.58396437,7.49888641 8.58084633,7.49888641 8.57772829,7.49576837 L8.57461024,7.49888641 C8.58708241,7.50824053 8.59643653,7.52071269 8.60267261,7.53006682 Z M8.69933185,7.05612472 C8.69621381,7.05612472 8.68997773,7.05924276 8.68685969,7.05924276 C8.62761693,7.09665924 8.5714922,7.13719376 8.5247216,7.19020045 C8.51848552,7.19643653 8.51536748,7.20579065 8.51536748,7.21514477 C8.51536748,7.22761693 8.51536748,7.24320713 8.51224944,7.25879733 C8.58396437,7.18396437 8.66503341,7.11848552 8.75545657,7.0623608 C8.73363029,7.0623608 8.71804009,7.05924276 8.69933185,7.05612472 Z M9.19198218,8.03518931 C9.19510022,8.03518931 9.19821826,8.03207127 9.2013363,8.03207127 C9.25122494,7.99153675 9.30423163,7.95100223 9.35412027,7.91046771 C9.35723831,7.90734967 9.36035635,7.90423163 9.36035635,7.90111359 C9.36347439,7.88864143 9.36659243,7.87616927 9.36971047,7.86057906 C9.29799555,7.91982183 9.22628062,7.97594655 9.15144766,8.03518931 L9.19198218,8.03518931 Z M15.552784,15.0227171 C15.6120267,14.9915367 15.6712695,14.9821826 15.7305122,14.9946548 C15.7679287,15.0040089 15.7991091,15.0227171 15.8209354,15.0507795 C15.942539,15.2035635 16.0641425,15.3532294 16.1857461,15.5060134 C16.1888641,15.5091314 16.1919822,15.5122494 16.1951002,15.5184855 L16.2231626,15.481069 C16.2231626,15.4841871 16.2262806,15.4841871 16.2262806,15.4873051 C16.2231626,15.5028953 16.2200445,15.5184855 16.2169265,15.5371938 C16.2169265,15.5434298 16.2169265,15.5496659 16.2200445,15.555902 C16.2387528,15.5808463 16.2636971,15.6057906 16.2792873,15.633853 C16.3198218,15.711804 16.3198218,15.7928731 16.2668151,15.8770601 C16.2605791,15.8832962 16.254343,15.8926503 16.2512249,15.8988864 C16.2044543,15.9363029 16.1608018,15.9737194 16.1140312,16.0080178 C16.101559,16.0142539 16.0922049,16.02049 16.0797327,16.023608 C15.9955457,16.0547884 15.9238307,16.0391982 15.8614699,15.9893096 C15.8334076,15.9674833 15.8146993,15.9394209 15.7928731,15.9144766 C15.7835189,15.9051225 15.7772829,15.8988864 15.7616927,15.9020045 C15.7492205,15.9020045 15.7336303,15.9020045 15.7211581,15.8988864 C15.7211581,15.8957684 15.7180401,15.8957684 15.7180401,15.8926503 C15.7305122,15.8864143 15.7461024,15.8801782 15.7585746,15.8708241 L15.7492205,15.8614699 C15.6276169,15.711804 15.5091314,15.55902 15.3875278,15.4093541 C15.3501114,15.3625835 15.3407572,15.3064588 15.3563474,15.244098 C15.3688196,15.1973274 15.3906459,15.1567929 15.4249443,15.1193764 C15.4249443,15.1193764 15.4280624,15.1162584 15.4280624,15.1131403 C15.4623608,15.085078 15.4935412,15.0601336 15.5278396,15.0320713 C15.5371938,15.0289532 15.5465479,15.0258352 15.552784,15.0227171 L15.552784,15.0227171 Z M15.8022272,15.7242762 C15.8365256,15.786637 15.8708241,15.8521158 15.9051225,15.9144766 C15.9955457,15.9020045 16.1639198,15.7679287 16.2106904,15.6712695 C16.1576837,15.6244989 16.101559,15.5746102 16.0485523,15.5278396 C15.9830735,15.6151448 15.9051225,15.6806236 15.8022272,15.7242762 L15.8022272,15.7242762 Z M15.5746102,15.4467706 C15.6432071,15.3625835 15.7242762,15.3002227 15.8178174,15.2503341 L15.7523385,15.1100223 C15.6244989,15.1599109 15.5247216,15.24098 15.4467706,15.3532294 C15.4935412,15.3875278 15.5340757,15.4187082 15.5746102,15.4467706 Z M15.8926503,15.2253898 L15.9394209,15.3376392 C15.9581292,15.3844098 15.9893096,15.4249443 16.0267261,15.4592428 C16.0610245,15.4935412 16.0953229,15.5247216 16.1265033,15.555902 C16.1327394,15.5621381 16.1389755,15.5652561 16.1483296,15.5621381 C16.1576837,15.55902 16.1670379,15.55902 16.176392,15.555902 C16.1857461,15.552784 16.1888641,15.5496659 16.1826281,15.5403118 C16.1826281,15.5371938 16.17951,15.5371938 16.17951,15.5340757 C16.0797327,15.4093541 15.9799555,15.2846325 15.8770601,15.1599109 C15.8739421,15.1567929 15.8708241,15.1536748 15.8708241,15.1505568 L15.867706,15.1505568 C15.8739421,15.1755011 15.8832962,15.2004454 15.8926503,15.2253898 L15.8926503,15.2253898 Z M15.4966592,15.4966592 C15.5933185,15.6151448 15.6868597,15.7336303 15.7835189,15.8521158 C15.7928731,15.864588 15.7928731,15.864588 15.8022272,15.8489978 C15.8146993,15.8271715 15.8178174,15.8115813 15.8053452,15.789755 C15.7772829,15.7492205 15.7492205,15.7055679 15.7242762,15.6619154 C15.6962138,15.6182628 15.6619154,15.5870824 15.6182628,15.55902 C15.5746102,15.5278396 15.5278396,15.4997773 15.481069,15.4685969 C15.477951,15.4654788 15.474833,15.4654788 15.4717149,15.4623608 L15.4685969,15.4654788 C15.481069,15.477951 15.4904232,15.4873051 15.4966592,15.4966592 L15.4966592,15.4966592 Z M15.5933185,15.0258352 C15.5902004,15.0258352 15.5839644,15.0289532 15.5808463,15.0289532 C15.5216036,15.0663697 15.4654788,15.1069042 15.4187082,15.1599109 C15.4124722,15.166147 15.4093541,15.1755011 15.4093541,15.1848552 C15.4093541,15.1973274 15.4093541,15.2129176 15.4062361,15.2285078 C15.477951,15.1536748 15.55902,15.088196 15.6494432,15.0320713 C15.6276169,15.0289532 15.6120267,15.0258352 15.5933185,15.0258352 Z M16.0859688,16.0017817 C16.0890869,16.0017817 16.0922049,15.9986637 16.0953229,15.9986637 C16.1452116,15.9581292 16.1982183,15.9175947 16.2481069,15.8770601 C16.2512249,15.8739421 16.254343,15.8708241 16.254343,15.867706 C16.257461,15.8552339 16.2605791,15.8427617 16.2636971,15.8271715 C16.1919822,15.8864143 16.1202673,15.942539 16.0454343,16.0017817 L16.0859688,16.0017817 L16.0859688,16.0017817 Z M16.8873051,12.2195991 C16.8342984,12.2570156 16.7750557,12.2757238 16.7126949,12.2694878 C16.6752784,12.2663697 16.64098,12.2507795 16.6160356,12.2258352 C16.4757238,12.0917595 16.332294,11.9576837 16.1919822,11.823608 L16.1826281,11.8142539 C16.1732739,11.8267261 16.1670379,11.8423163 16.1576837,11.8547884 L16.1514477,11.8485523 C16.1514477,11.8329621 16.1545657,11.8142539 16.1514477,11.7986637 C16.1514477,11.7924276 16.1483296,11.7861915 16.1452116,11.7830735 C16.1233853,11.7612472 16.0953229,11.7394209 16.0766147,11.7144766 C16.023608,11.6427617 16.0142539,11.5616927 16.0579065,11.4743875 C16.0610245,11.4650334 16.0672606,11.4587973 16.0703786,11.4494432 C16.1109131,11.4057906 16.1514477,11.3652561 16.1919822,11.3216036 C16.2013363,11.3153675 16.2106904,11.3060134 16.2231626,11.3028953 C16.3011136,11.2623608 16.3759465,11.2654788 16.4445434,11.3060134 C16.4726058,11.3216036 16.4975501,11.3496659 16.5224944,11.3714922 C16.5318486,11.3808463 16.5412027,11.3839644 16.5536748,11.3808463 C16.566147,11.3777283 16.5817372,11.3777283 16.5942094,11.3777283 L16.6004454,11.3839644 C16.5879733,11.3933185 16.5755011,11.3995546 16.563029,11.4089087 L16.5723831,11.4182628 C16.7126949,11.5492205 16.8530067,11.6832962 16.9933185,11.8142539 C17.036971,11.8547884 17.0556793,11.9109131 17.0463252,11.9732739 C17.0400891,12.0200445 17.0244989,12.0668151 16.9933185,12.1073497 C16.9933185,12.1104677 16.9902004,12.1104677 16.9902004,12.1135857 C16.9621381,12.1447661 16.9309577,12.1759465 16.9028953,12.2071269 C16.8997773,12.210245 16.8935412,12.2164811 16.8873051,12.2195991 L16.8873051,12.2195991 Z M16.5412027,11.5585746 C16.4975501,11.4993318 16.4570156,11.4400891 16.413363,11.3839644 C16.3229399,11.4089087 16.176392,11.5648107 16.1452116,11.667706 C16.2044543,11.7082405 16.2668151,11.7487751 16.3260579,11.7861915 C16.3790646,11.6926503 16.4476615,11.6146993 16.5412027,11.5585746 L16.5412027,11.5585746 Z M16.8062361,11.8017817 C16.7501114,11.8922049 16.6783964,11.9670379 16.5910913,12.0293987 L16.6752784,12.1603563 C16.7937639,12.0948775 16.8841871,12.0013363 16.9434298,11.8766147 C16.8966592,11.8516704 16.8530067,11.8267261 16.8062361,11.8017817 L16.8062361,11.8017817 Z M16.5224944,12.0668151 C16.5037862,12.0325167 16.4819599,11.9982183 16.4632517,11.9608018 C16.4383073,11.9171492 16.4008909,11.8828508 16.3603563,11.8516704 L16.2481069,11.7674833 C16.2418708,11.7612472 16.2356347,11.7612472 16.2262806,11.7643653 L16.1982183,11.7737194 C16.1888641,11.7768374 16.1857461,11.7830735 16.1951002,11.7893096 L16.2013363,11.7955457 C16.3167038,11.9046771 16.4351893,12.0169265 16.5505568,12.1260579 L16.5599109,12.135412 L16.563029,12.132294 C16.5474388,12.1135857 16.5349666,12.0886414 16.5224944,12.0668151 L16.5224944,12.0668151 Z M16.877951,11.742539 C16.7657016,11.6365256 16.6565702,11.5336303 16.5443207,11.4276169 C16.5318486,11.4151448 16.5318486,11.4182628 16.5256125,11.433853 C16.5162584,11.4556793 16.5162584,11.4743875 16.5318486,11.4899777 C16.566147,11.5273942 16.5973274,11.5679287 16.6316258,11.6053452 C16.6628062,11.6427617 16.7064588,11.6708241 16.7501114,11.6926503 C16.8,11.7175947 16.8467706,11.7394209 16.8966592,11.7643653 C16.8997773,11.7643653 16.9028953,11.7674833 16.9060134,11.7674833 L16.9060134,11.7643653 C16.8935412,11.7612472 16.8841871,11.7518931 16.877951,11.742539 L16.877951,11.742539 Z M16.8467706,12.2227171 C16.8498886,12.2227171 16.8561247,12.2195991 16.8592428,12.2164811 C16.9122494,12.1728285 16.9621381,12.1229399 17.0026726,12.0668151 C17.0089087,12.057461 17.0120267,12.0512249 17.0089087,12.0418708 C17.0057906,12.0293987 17.0057906,12.0138085 17.0057906,11.9982183 C16.9434298,12.0824053 16.8717149,12.1572383 16.7906459,12.2258352 C16.8093541,12.2227171 16.8280624,12.2227171 16.8467706,12.2227171 Z M16.2231626,11.3216036 C16.2200445,11.3216036 16.2169265,11.3247216 16.2138085,11.3278396 C16.1701559,11.3746102 16.1233853,11.4213808 16.0797327,11.4681514 C16.0766147,11.4712695 16.0766147,11.4743875 16.0734967,11.4775056 C16.0734967,11.4899777 16.0703786,11.5055679 16.0703786,11.5180401 C16.1327394,11.4494432 16.1951002,11.3839644 16.2605791,11.3153675 C16.2481069,11.3184855 16.2356347,11.3216036 16.2231626,11.3216036 L16.2231626,11.3216036 Z M13.0178174,9.01737194 C12.9648107,9.05478842 12.9055679,9.07349666 12.8432071,9.06726058 C12.8057906,9.06414254 12.7714922,9.04855234 12.7465479,9.02360802 C12.6062361,8.88953229 12.4628062,8.75545657 12.3224944,8.62138085 L12.3131403,8.61202673 C12.3037862,8.62449889 12.2975501,8.64008909 12.288196,8.65256125 L12.2819599,8.64632517 C12.2819599,8.63073497 12.285078,8.61202673 12.2819599,8.59643653 C12.2819599,8.59020045 12.2788419,8.58396437 12.2757238,8.58084633 C12.2538976,8.55902004 12.2258352,8.53719376 12.2071269,8.51224944 C12.1541203,8.44053452 12.1447661,8.35946548 12.1884187,8.27216036 C12.1915367,8.26280624 12.1977728,8.25657016 12.2008909,8.24721604 C12.2414254,8.20356347 12.2819599,8.16302895 12.3224944,8.11937639 C12.3318486,8.11314031 12.3412027,8.10378619 12.3536748,8.10066815 C12.4316258,8.06013363 12.5064588,8.06325167 12.5750557,8.10378619 C12.603118,8.11937639 12.6280624,8.14743875 12.6530067,8.16926503 C12.6623608,8.17861915 12.6717149,8.18173719 12.6841871,8.17861915 C12.6966592,8.17550111 12.7122494,8.17550111 12.7247216,8.17550111 L12.7309577,8.18173719 C12.7184855,8.19109131 12.7060134,8.19732739 12.6935412,8.20668151 L12.7028953,8.21603563 C12.8432071,8.34699332 12.9835189,8.48106904 13.1238307,8.61202673 C13.1674833,8.65256125 13.1861915,8.70868597 13.1768374,8.77104677 C13.1706013,8.81781737 13.1550111,8.86458797 13.1238307,8.90512249 C13.1238307,8.90824053 13.1207127,8.90824053 13.1207127,8.91135857 C13.0926503,8.94253898 13.0614699,8.97371938 13.0334076,9.00489978 C13.0302895,9.00801782 13.0240535,9.01113586 13.0178174,9.01737194 L13.0178174,9.01737194 Z M12.6717149,8.35634744 C12.6280624,8.29710468 12.5875278,8.23786192 12.5438753,8.18173719 C12.4534521,8.20668151 12.3069042,8.36258352 12.2757238,8.46547884 C12.3349666,8.50601336 12.3973274,8.54654788 12.4565702,8.58396437 C12.5095768,8.49042316 12.5781737,8.41247216 12.6717149,8.35634744 L12.6717149,8.35634744 Z M12.9367483,8.59643653 C12.8806236,8.68685969 12.8089087,8.76169265 12.7216036,8.82405345 L12.8057906,8.95501114 C12.9242762,8.88953229 13.0146993,8.79599109 13.0739421,8.67126949 C13.0271715,8.64632517 12.9804009,8.62138085 12.9367483,8.59643653 L12.9367483,8.59643653 Z M12.6530067,8.86146993 C12.6342984,8.82717149 12.6124722,8.79287305 12.5937639,8.75545657 C12.5688196,8.71180401 12.5314031,8.67750557 12.4908686,8.64632517 L12.3786192,8.56213808 C12.3723831,8.555902 12.366147,8.555902 12.3567929,8.55902004 L12.3287305,8.56837416 C12.3193764,8.5714922 12.3162584,8.57772829 12.3256125,8.58396437 L12.3318486,8.59020045 C12.447216,8.69933185 12.5657016,8.81158129 12.681069,8.92071269 L12.6904232,8.93006682 L12.6935412,8.92694878 C12.677951,8.90824053 12.6654788,8.88641425 12.6530067,8.86146993 Z M13.0053452,8.5403118 C12.8930958,8.43429844 12.7839644,8.33140312 12.6717149,8.22538976 C12.6592428,8.21291759 12.6592428,8.21603563 12.6530067,8.23162584 C12.6436526,8.25345212 12.6436526,8.27216036 12.6592428,8.28775056 C12.6935412,8.32516704 12.7247216,8.36570156 12.75902,8.40311804 C12.7902004,8.44053452 12.833853,8.46859688 12.8775056,8.49042316 C12.9273942,8.51536748 12.9741648,8.53719376 13.0240535,8.56213808 C13.0271715,8.56213808 13.0302895,8.56525612 13.0334076,8.56525612 L13.0334076,8.56213808 C13.0240535,8.555902 13.0146993,8.54654788 13.0053452,8.5403118 Z M12.9741648,9.02048998 C12.9772829,9.02048998 12.9835189,9.01737194 12.986637,9.0142539 C13.0396437,8.97060134 13.0895323,8.92071269 13.1300668,8.86458797 C13.1363029,8.85523385 13.1394209,8.84899777 13.1363029,8.83964365 C13.1331849,8.82717149 13.1331849,8.81158129 13.1331849,8.79599109 C13.0708241,8.88017817 12.9991091,8.95501114 12.9180401,9.02360802 C12.9398664,9.02048998 12.9585746,9.02048998 12.9741648,9.02048998 Z M12.3536748,8.11937639 C12.3505568,8.11937639 12.3474388,8.12249443 12.3443207,8.12561247 C12.3006682,8.17238307 12.2538976,8.21915367 12.210245,8.26592428 C12.2071269,8.26904232 12.2071269,8.27216036 12.2040089,8.2752784 C12.2040089,8.28775056 12.2008909,8.30334076 12.2008909,8.31581292 C12.2632517,8.24721604 12.3256125,8.18173719 12.3910913,8.11314031 C12.3786192,8.11625835 12.366147,8.11625835 12.3536748,8.11937639 Z M14.230735,4.43073497 C14.230735,4.43073497 14.230735,4.42761693 14.230735,4.43073497 C14.2182628,4.38396437 14.1995546,4.34966592 14.1714922,4.32160356 L14.1683742,4.31848552 C14.1309577,4.28106904 14.0904232,4.26547884 14.0405345,4.27171492 C13.8815145,4.29042316 13.7193764,4.31224944 13.5572383,4.33095768 L13.5447661,4.33095768 C13.5478842,4.31536748 13.5478842,4.30601336 13.5510022,4.2935412 L13.5447661,4.2935412 C13.535412,4.30289532 13.5260579,4.31224944 13.5260579,4.32160356 C13.5198218,4.33407572 13.5104677,4.33719376 13.5042316,4.33719376 C13.4761693,4.34342984 13.4449889,4.34342984 13.4169265,4.355902 C13.3951002,4.36525612 13.3701559,4.37461024 13.3545657,4.39643653 C13.3265033,4.41826281 13.3046771,4.45256125 13.298441,4.49933185 C13.2953229,4.50868597 13.2953229,4.51804009 13.2953229,4.53051225 C13.301559,4.58040089 13.3077951,4.62717149 13.3140312,4.67706013 C13.3171492,4.68329621 13.3202673,4.69265033 13.3233853,4.69888641 C13.3514477,4.76124722 13.3982183,4.79554566 13.454343,4.80801782 L13.4605791,4.80801782 C13.4699332,4.81113586 13.4792873,4.8142539 13.4886414,4.8142539 C13.5167038,4.81737194 13.5416481,4.80801782 13.5728285,4.80801782 C13.5759465,4.80801782 13.5821826,4.81113586 13.5884187,4.8142539 C13.5977728,4.82360802 13.6071269,4.83296214 13.6195991,4.83919822 L13.6258352,4.83919822 C13.6195991,4.82672606 13.6164811,4.8142539 13.610245,4.80178174 C13.6164811,4.80178174 13.6195991,4.80178174 13.6227171,4.7986637 C13.691314,4.78930958 13.7599109,4.77995546 13.8285078,4.77371938 L13.8378619,4.77371938 C13.9282851,4.76124722 14.0218263,4.7518931 14.1091314,4.73942094 C14.1403118,4.7363029 14.1683742,4.72071269 14.1933185,4.69888641 C14.2276169,4.66146993 14.2463252,4.61158129 14.2494432,4.55857461 C14.2525612,4.55233853 14.2525612,4.54298441 14.2525612,4.53986637 C14.236971,4.50244989 14.236971,4.46815145 14.230735,4.43073497 L14.230735,4.43073497 Z M13.5447661,4.36268003 C13.6726058,4.34268003 13.8004454,4.3293467 13.925167,4.3093467 C13.9376392,4.3093467 13.9469933,4.30601336 13.9594655,4.30601336 C13.9563474,4.3093467 13.9532294,4.3093467 13.9501114,4.31268003 C13.9314031,4.32268003 13.9064588,4.33268003 13.8846325,4.34601336 L13.8815145,4.34601336 C13.8628062,4.35601336 13.844098,4.36601336 13.8285078,4.37268003 C13.7910913,4.39268003 13.7505568,4.40268003 13.7069042,4.40268003 C13.6632517,4.40268003 13.6195991,4.40268003 13.5790646,4.40601336 C13.5603563,4.40601336 13.5478842,4.39601336 13.5385301,4.3793467 C13.535412,4.36601336 13.532294,4.36601336 13.5447661,4.36268003 L13.5447661,4.36268003 Z M13.3515451,4.68953229 C13.3515451,4.68953229 13.3452951,4.68641425 13.3452951,4.68329621 C13.3327951,4.63028953 13.3140451,4.57416481 13.3077951,4.52115813 C13.3077951,4.51804009 13.3077951,4.51180401 13.3140451,4.51180401 C13.3202951,4.49933185 13.3390451,4.49309577 13.3515451,4.48374165 C13.3702951,4.56169265 13.3890451,4.63964365 13.4077951,4.71447661 L13.3515451,4.68953229 Z M13.4481069,4.42138085 C13.5073497,4.42449889 13.5697105,4.42761693 13.6320713,4.43385301 C13.6164811,4.52115813 13.6289532,4.60846325 13.6632517,4.69265033 C13.6071269,4.71135857 13.5478842,4.72694878 13.4886414,4.74565702 C13.4387528,4.66770601 13.4169265,4.49309577 13.4481069,4.42138085 L13.4481069,4.42138085 Z M14.0124722,4.7342442 L14.003118,4.7342442 C13.8690423,4.75514253 13.7349666,4.77255781 13.6040089,4.79345613 L13.5977728,4.79345613 C13.5884187,4.79693919 13.5853007,4.78997308 13.5884187,4.78300697 C13.5915367,4.77255781 13.5946548,4.76210864 13.5946548,4.75862559 C13.5977728,4.74817642 13.6040089,4.74469337 13.610245,4.74121031 C13.6507795,4.73076115 13.688196,4.72031199 13.7256125,4.70986282 C13.769265,4.6959306 13.8097996,4.68896449 13.8503341,4.69941366 C13.8846325,4.70637977 13.9158129,4.71334588 13.9501114,4.72031199 C13.9688196,4.72031199 13.9937639,4.72727809 14.0124722,4.7342442 Z M14.0904232,4.66770601 C14.0467706,4.66146993 14.003118,4.65523385 13.9625835,4.64899777 C13.9688196,4.56169265 13.9594655,4.47438753 13.9314031,4.39020045 C13.9719376,4.3714922 14.0124722,4.35902004 14.0530067,4.3403118 C14.0966592,4.44320713 14.1122494,4.55233853 14.0904232,4.66770601 L14.0904232,4.66770601 Z M14.2573762,4.58975501 C14.2430905,4.60222717 14.2288048,4.61158129 14.214519,4.62405345 C14.2097571,4.53674833 14.1954714,4.45256125 14.1621381,4.36525612 C14.1811857,4.3714922 14.1907095,4.38084633 14.2097571,4.38396437 C14.2192809,4.38708241 14.2240428,4.39331849 14.2288048,4.40267261 C14.2573762,4.45879733 14.2621381,4.51804009 14.2621381,4.57728285 C14.2621381,4.58040089 14.2573762,4.58663697 14.2573762,4.58975501 L14.2573762,4.58975501 Z M19.2289532,6.28285078 C19.2570156,6.34521158 19.2663697,6.41069042 19.2507795,6.47305122 C19.2414254,6.51358575 19.2195991,6.54476615 19.1884187,6.56659243 C19.0231626,6.68819599 18.8579065,6.81291759 18.6926503,6.93452116 C18.6895323,6.9376392 18.6832962,6.94075724 18.6801782,6.94387528 C18.6926503,6.95634744 18.7051225,6.96570156 18.7175947,6.97505568 C18.7144766,6.97505568 18.7144766,6.97817372 18.7113586,6.97817372 C18.6957684,6.97505568 18.6770601,6.9688196 18.6614699,6.9688196 C18.6552339,6.9688196 18.6489978,6.9688196 18.6427617,6.97193764 C18.6146993,6.99064588 18.589755,7.0155902 18.5585746,7.0311804 C18.4743875,7.07171492 18.3902004,7.06859688 18.3028953,7.00623608 C18.2966592,7 18.2873051,6.99376392 18.281069,6.98752784 L18.1688196,6.83786192 C18.1625835,6.82538976 18.1563474,6.81291759 18.1532294,6.80044543 C18.125167,6.71002227 18.1438753,6.63207127 18.196882,6.56971047 C18.2187082,6.54164811 18.2530067,6.52293987 18.281069,6.50111359 C18.2904232,6.49175947 18.2966592,6.48552339 18.2966592,6.46993318 C18.2966592,6.45434298 18.2997773,6.44187082 18.2997773,6.42628062 C18.3028953,6.42628062 18.3028953,6.42316258 18.3060134,6.42316258 C18.3122494,6.43875278 18.3184855,6.45122494 18.3278396,6.46681514 C18.3309577,6.4636971 18.3340757,6.46057906 18.3403118,6.45746102 C18.5055679,6.33585746 18.667706,6.2142539 18.8329621,6.09265033 C18.8859688,6.05211581 18.9420935,6.04587973 19.0075724,6.06458797 C19.057461,6.08017817 19.0979955,6.10512249 19.135412,6.14253898 C19.135412,6.14565702 19.1385301,6.14565702 19.1416481,6.14565702 C19.1697105,6.1830735 19.1946548,6.21737194 19.2227171,6.25478842 C19.2227171,6.26414254 19.2258352,6.27349666 19.2289532,6.28285078 L19.2289532,6.28285078 Z M18.4775056,6.51670379 C18.4089087,6.55100223 18.3403118,6.58530067 18.2717149,6.61648107 C18.281069,6.71314031 18.4151448,6.89710468 18.5180401,6.94699332 C18.5710468,6.8908686 18.6240535,6.83474388 18.6770601,6.78173719 C18.586637,6.71314031 18.5180401,6.62583519 18.4775056,6.51670379 Z M18.7799555,6.28908686 C18.8641425,6.36391982 18.9296214,6.45122494 18.976392,6.55412027 C19.0262806,6.53229399 19.0761693,6.51358575 19.1260579,6.49175947 C19.0792873,6.3545657 18.9982183,6.2454343 18.8797327,6.16124722 C18.8454343,6.20178174 18.8142539,6.2454343 18.7799555,6.28908686 L18.7799555,6.28908686 Z M19.0044543,6.63207127 C18.9639198,6.64766147 18.9233853,6.66013363 18.8828508,6.67572383 C18.8329621,6.69443207 18.7893096,6.72561247 18.7518931,6.76302895 C18.7144766,6.79732739 18.6801782,6.83162584 18.6427617,6.86592428 C18.6365256,6.87216036 18.6334076,6.87839644 18.6365256,6.88775056 C18.6396437,6.89710468 18.6396437,6.9064588 18.6427617,6.91893096 C18.6458797,6.92828508 18.6489978,6.93140312 18.6583519,6.92516704 C18.6614699,6.92516704 18.6614699,6.922049 18.664588,6.922049 C18.8017817,6.82227171 18.9358575,6.71937639 19.0730512,6.61959911 C19.0761693,6.61648107 19.0792873,6.61336303 19.0824053,6.61336303 L19.0824053,6.61024499 C19.054343,6.61336303 19.0293987,6.62271715 19.0044543,6.63207127 L19.0044543,6.63207127 Z M18.7300668,6.20489978 C18.5991091,6.30155902 18.4712695,6.39821826 18.3403118,6.49487751 C18.3278396,6.50423163 18.3278396,6.50734967 18.3434298,6.51670379 C18.3652561,6.52917595 18.3839644,6.53541203 18.4057906,6.51982183 C18.4494432,6.49175947 18.4993318,6.4636971 18.5461024,6.43875278 C18.5928731,6.41380846 18.6271715,6.37327394 18.6583519,6.33273942 C18.6926503,6.28596882 18.7269488,6.23919822 18.7581292,6.19242762 C18.7612472,6.18930958 18.7612472,6.18619154 18.7643653,6.1830735 L18.7612472,6.17995546 C18.7518931,6.18619154 18.742539,6.19554566 18.7300668,6.20489978 L18.7300668,6.20489978 Z M19.2258352,6.3233853 C19.2258352,6.32026726 19.2227171,6.31403118 19.2227171,6.3077951 C19.1884187,6.24231626 19.1447661,6.1830735 19.0917595,6.13006682 C19.0855234,6.12383073 19.0761693,6.11759465 19.0668151,6.11759465 C19.0512249,6.11759465 19.0387528,6.11447661 19.0200445,6.11447661 C19.0979955,6.19554566 19.1603563,6.28285078 19.2164811,6.37951002 L19.2258352,6.3233853 L19.2258352,6.3233853 Z M18.1719376,6.80668151 C18.1719376,6.80979955 18.1719376,6.81603563 18.1750557,6.81915367 C18.2155902,6.8752784 18.2561247,6.92828508 18.2966592,6.9844098 C18.2997773,6.98752784 18.3028953,6.99064588 18.3060134,6.99064588 C18.3184855,6.99376392 18.3340757,6.99688196 18.3496659,7 C18.2904232,6.922049 18.2342984,6.844098 18.1750557,6.76302895 C18.1750557,6.77861915 18.1719376,6.79109131 18.1719376,6.80668151 L18.1719376,6.80668151 Z M7.08418708,5.99599109 C6.95011136,6.12071269 6.82227171,6.25167038 6.70066815,6.38886414 L3.09309577,2.19510022 L3.5077951,1.83964365 L7.08418708,5.99599109 Z M18.7737194,19.5844098 C18.3995546,19.3786192 17.9848552,19.1697105 17.5265033,18.9732739 L12.7434298,13.4075724 L12.3848552,12.9928731 L12.1011136,12.6623608 L11.742539,12.2476615 L11.6864143,12.1790646 L11.3278396,11.7643653 L11.3247216,11.7612472 L10.9256125,11.2966592 L10.5701559,10.885078 L7.76080178,7.62048998 C7.88552339,7.48953229 8.01959911,7.36169265 8.15991091,7.24632517 L11.0285078,10.5826281 L11.3902004,10.9973274 L11.7893096,11.4619154 L11.7924276,11.4650334 L12.1510022,11.8797327 L12.2040089,11.9420935 L12.5625835,12.3567929 L12.5625835,12.3599109 L12.8400891,12.6841871 L13.1986637,13.0988864 L18.7737194,19.5844098 Z M10.8320713,4.2311804 C10.6262806,4.27483296 10.423608,4.32160356 10.2271715,4.37461024 L7.02494432,0.891759465 L7.42405345,0.523830735 L10.8320713,4.2311804 L10.8320713,4.2311804 Z M20.610245,15.6837416 L16.2792873,10.969265 L15.9082405,10.5670379 L15.6432071,10.2770601 L15.2721604,9.87171492 L15.247216,9.84365256 L14.8730512,9.43830735 L14.4552339,8.97995546 L14.081069,8.57461024 L11.3247216,5.57193764 C11.5741648,5.5064588 11.7861915,5.46280624 11.9483296,5.44721604 L14.5394209,8.27216036 L14.9135857,8.67750557 L15.3314031,9.13273942 L15.7055679,9.53808463 L15.7242762,9.55991091 L16.0953229,9.96525612 L16.3572383,10.2521158 L16.7282851,10.654343 L20.1924276,14.4271715 C20.3171492,14.8512249 20.457461,15.2721604 20.610245,15.6837416 L20.610245,15.6837416 Z M24.5919822,19.213363 L25.1064588,19.9242762 L24.6200445,20.3233853 C24.5701559,20.2610245 24.5826281,20.1986637 24.1336303,19.518931 C24.1336303,19.518931 24.1305122,19.518931 24.1305122,19.5158129 C23.7158129,18.8922049 23.1982183,18.0721604 22.6993318,17.1585746 C22.6993318,17.1554566 22.6962138,17.1523385 22.6930958,17.1492205 C21.701559,15.325167 20.7910913,13.145657 20.9563474,11.4930958 C21.3024499,8.00400891 27.4761693,3.89755011 27.7069042,3.72293987 L27.9844098,4.17817372 C27.9314031,4.21870824 21.8200445,8.2908686 21.4957684,11.5429844 C21.2712695,13.8316258 23.3759465,17.3799555 24.5826281,19.2040089 L24.5919822,19.213363 L24.5919822,19.213363 Z M8.81469933,4.86726058 C8.64008909,4.94209354 8.46859688,5.02316258 8.3064588,5.11670379 L5.07616927,1.52783964 L5.48151448,1.16302895 L8.81469933,4.86726058 L8.81469933,4.86726058 Z M23.4726058,21.1465479 L23.0672606,21.5113586 L14.6142539,12.1167038 L14.2463252,11.7113586 L13.9719376,11.4057906 L13.6040089,10.9973274 L13.5603563,10.9505568 L13.1893096,10.5389755 L12.7777283,10.0806236 L12.4097996,9.67216036 L9.42583519,6.36391982 C9.59420935,6.27037862 9.75946548,6.1830735 9.92783964,6.10512249 L12.8681514,9.37282851 L13.2360802,9.78129176 L13.6476615,10.2396437 L14.0155902,10.6512249 L14.0530067,10.6917595 L14.4209354,11.1002227 L14.6922049,11.4026726 L15.0601336,11.8080178 L23.4726058,21.1465479 Z M5.72160356,14.7296214 L0.311804009,18.3028953 L0.0124721604,17.8476615 L5.4908686,14.230735 C5.51893096,14.3055679 5.5532294,14.3772829 5.58752784,14.4489978 C5.6311804,14.542539 5.677951,14.6391982 5.72160356,14.7296214 Z" id="形状"></path>
                <path d="M10.5701559,10.885078 L10.9287305,11.2997773 L6.9532294,13.918931 C6.87839644,13.7536748 6.80979955,13.5790646 6.75367483,13.3982183 L10.5701559,10.885078 Z M26.0668151,1.54966592 L18.8423163,6.08641425 L18.8111359,6.10824053 L18.7924276,6.12071269 L18.7768374,6.13006682 L18.3122494,6.43563474 L18.2966592,6.44498886 L14.9135857,8.67750557 L14.5394209,8.26904232 L20.8596882,4.1064588 L25.6084633,1.17238307 L25.742539,1.11937639 L26.0668151,1.54966592 Z M6.28285078,15.7367483 L0.957238307,19.2414254 L0.657906459,18.7861915 L6.00846325,15.2659243 C6.09888641,15.4311804 6.18930958,15.5870824 6.28285078,15.7367483 Z M11.3278396,11.7643653 L11.6864143,12.1790646 L7.51135857,14.9291759 C7.40846325,14.7826281 7.31180401,14.6298441 7.22138085,14.464588 L11.3278396,11.7643653 L11.3278396,11.7643653 Z M26.5625835,2.17951002 L26.6405345,2.2636971 L17.9755011,8.04142539 L15.7055679,9.53808463 L15.3314031,9.13273942 L18.4868597,7.05612472 L18.4899777,7.05300668 L18.8797327,6.79109131 L18.9077951,6.77550111 L26.4004454,1.98619154 L26.5625835,2.17951002 Z M6.68819599,16.3198218 L1.4155902,19.8619154 L1.11002227,19.4097996 L6.37327394,15.8739421 C6.47616927,16.0298441 6.58218263,16.17951 6.68819599,16.3198218 L6.68819599,16.3198218 Z M11.742539,12.2476615 L12.1011136,12.6623608 L7.94476615,15.4685969 C7.82316258,15.3345212 7.70467706,15.1942094 7.5986637,15.0445434 L11.742539,12.2476615 L11.742539,12.2476615 Z" id="形状"></path>
                <path d="M26.9242762,2.59420935 L16.098441,9.96525612 L15.7242762,9.55991091 L17.9755011,8.04142539 L26.5625835,2.17951002 L26.6405345,2.2636971 L26.9242762,2.59420935 Z M7.36169265,16.9777283 L2.0610245,20.8347439 L1.75233853,20.3888641 L6.9688196,16.5942094 C7.0935412,16.7314031 7.22449889,16.8592428 7.36169265,16.9777283 Z M12.3848552,12.9928731 L12.7434298,13.4075724 L8.73051225,16.1732739 C8.57772829,16.0610245 8.4311804,15.942539 8.29398664,15.8146993 L12.3848552,12.9928731 Z M27.3888641,3.30824053 L27.37951,3.31447661 C27.376392,3.31447661 27.3701559,3.32071269 27.3576837,3.33006682 C27.3514477,3.3363029 27.3420935,3.33942094 27.3358575,3.34565702 C27.3265033,3.3518931 27.3171492,3.36124722 27.3046771,3.36436526 L25.9857461,4.28106904 C25.9732739,4.28730512 25.9608018,4.29665924 25.9483296,4.30601336 L21.8761693,7.11224944 C21.8761693,7.11536748 21.8761693,7.11536748 21.8730512,7.11536748 L16.7314031,10.657461 L16.3603563,10.2552339 L25.5273942,3.93184855 C25.5398664,3.92249443 25.5461024,3.91314031 25.5554566,3.91002227 L27.0146993,2.90289532 C27.0427617,2.88418708 27.064588,2.87171492 27.0770601,2.8623608 L27.2329621,3.08685969 L27.2454343,3.10244989 L27.3888641,3.30824053 Z" id="形状"></path>
                <path d="M18.7768374,19.5844098 C20.1643653,20.3483296 22.1193764,21.9260579 22.1848552,21.9853007 L21.8169265,22.3875278 C21.8106904,22.3812918 20.4293987,21.311804 19.9959911,21 C19.9959911,21 19.9928731,21 19.9928731,20.996882 C19.9928731,20.996882 19.989755,20.996882 19.989755,20.9937639 C19.6124722,20.7256125 19.0855234,20.3857461 18.4400891,20.0334076 C17.267706,19.3942094 15.6930958,18.7363029 13.84098,18.4525612 C11.5336303,18.1002227 9.644098,17.5701559 8.26592428,16.4975501 C8.11625835,16.3821826 7.97282851,16.2636971 7.83563474,16.1327394 C7.71403118,16.02049 7.60178174,15.9051225 7.48953229,15.7804009 C7.36792873,15.6463252 7.25256125,15.5028953 7.14654788,15.3532294 C7.11224944,15.3126949 7.08418708,15.2721604 7.05612472,15.2316258 C6.9532294,15.085078 6.85657016,14.932294 6.76302895,14.7701559 C6.66636971,14.5955457 6.57282851,14.4146993 6.49175947,14.2244989 C6.41380846,14.0623608 6.34209354,13.8908686 6.27973274,13.7131403 C6.07394209,13.142539 5.91804009,12.5064588 5.81826281,11.7893096 C5.59688196,10.1991091 6.03028953,8.76481069 7.10289532,7.53318486 C7.19955457,7.42093541 7.29933185,7.31492205 7.40222717,7.20890869 C7.53006682,7.08106904 7.66414254,6.9532294 7.80445434,6.83786192 C8.20044543,6.49799555 8.62449889,6.20178174 9.05478842,5.95545657 C9.22004454,5.85879733 9.38218263,5.76837416 9.54743875,5.68730512 C10.0244989,5.444098 10.4922049,5.25701559 10.9100223,5.12605791 C11.125167,5.06057906 11.3247216,5.00757238 11.5055679,4.9701559 C11.7394209,4.92026726 11.9420935,4.89532294 12.1073497,4.89532294 C12.3848552,4.89532294 12.8556793,4.86414254 13.4481069,4.81113586 L13.454343,4.81113586 C13.4636971,4.8142539 13.4730512,4.81737194 13.4824053,4.81737194 C13.5104677,4.82048998 13.535412,4.81113586 13.5665924,4.81113586 C13.5697105,4.81113586 13.5759465,4.8142539 13.5821826,4.81737194 C13.5915367,4.82672606 13.6008909,4.83608018 13.613363,4.84231626 L13.6195991,4.84231626 C13.613363,4.8298441 13.610245,4.81737194 13.6040089,4.80489978 C13.610245,4.80489978 13.613363,4.80489978 13.6164811,4.80178174 C13.685078,4.79242762 13.7536748,4.7830735 13.8222717,4.77683742 L13.8316258,4.77683742 C15.9269488,4.57728285 19.0730512,4.1532294 20.1269488,3.81024499 C21.7701559,3.27394209 25.5679287,0.972828508 25.6115813,0.944766147 L25.745657,1.12249443 L20.8596882,4.1064588 C20.6507795,4.19688196 20.4605791,4.27171492 20.2922049,4.32783964 C18.7799555,4.82360802 13.4200445,5.43786192 12.1042316,5.43786192 C12.057461,5.43786192 12.0044543,5.44097996 11.9452116,5.44721604 C11.7830735,5.46592428 11.5710468,5.5064588 11.3216036,5.57193764 C10.9224944,5.68106904 10.4391982,5.85567929 9.9247216,6.10512249 C9.75946548,6.18619154 9.59420935,6.27037862 9.42271715,6.36391982 C8.98930958,6.60712695 8.55902004,6.90022272 8.15679287,7.24632517 C8.01959911,7.36481069 7.88552339,7.48953229 7.75768374,7.62048998 C7.67037862,7.7077951 7.58930958,7.79510022 7.50824053,7.88552339 C6.54476615,8.99554566 6.15501114,10.2832962 6.3545657,11.7113586 C6.44187082,12.3349666 6.57282851,12.8962138 6.74743875,13.3982183 C6.80356347,13.5790646 6.87216036,13.7536748 6.94699332,13.918931 C7.02806236,14.1091314 7.11536748,14.2899777 7.21514477,14.464588 C7.30244989,14.6267261 7.40222717,14.7826281 7.50512249,14.9291759 C7.53318486,14.9697105 7.55812918,15.010245 7.59242762,15.0476615 C7.69844098,15.1973274 7.8169265,15.3376392 7.93853007,15.4717149 C8.05077951,15.5933185 8.16302895,15.708686 8.28775056,15.8178174 C8.42494432,15.942539 8.57461024,16.0641425 8.72427617,16.176392 C9.99955457,17.108686 11.742539,17.5826281 13.9158129,17.9162584 C15.2846325,18.125167 16.4975501,18.5242762 17.5202673,18.9732739 C17.9848552,19.1697105 18.3995546,19.3786192 18.7768374,19.5844098 L18.7768374,19.5844098 Z" id="路径"></path>
                <path d="M13.6040089,4.81969456 C13.610245,4.83874218 13.613363,4.8577898 13.6195991,4.87683742 L13.613363,4.87683742 C13.6008909,4.8625517 13.5915367,4.84826599 13.5821826,4.83874218 C13.5759465,4.83398027 13.5697105,4.82921837 13.5665924,4.82921837 C13.5385301,4.82921837 13.5135857,4.84350408 13.4824053,4.83874218 C13.4730512,4.83874218 13.4636971,4.83398027 13.454343,4.82921837 C13.5728285,4.81493265 13.6944321,4.80064694 13.8191537,4.77683742 C13.7505568,4.79112313 13.6819599,4.80540885 13.613363,4.81493265 C13.613363,4.81969456 13.610245,4.81969456 13.6040089,4.81969456 Z M25.823608,1.50601336 C25.664588,1.61202673 22.786637,3.26458797 20.8596882,4.1064588 L25.6084633,1.17550111 L25.823608,1.50601336 L25.823608,1.50601336 Z M14.1652561,4.32160356 C14.0717149,4.33095768 13.9750557,4.33719376 13.8846325,4.34654788 L13.8815145,4.34654788 C13.763029,4.355902 13.6538976,4.36525612 13.5385301,4.37772829 C13.4761693,4.38396437 13.4138085,4.39020045 13.3483296,4.39643653 C13.3670379,4.37772829 13.3888641,4.36525612 13.4106904,4.355902 C13.4356347,4.34342984 13.4668151,4.34342984 13.4979955,4.33719376 C13.5073497,4.33719376 13.5167038,4.33407572 13.5198218,4.32160356 C13.5229399,4.3091314 13.532294,4.30289532 13.5385301,4.2935412 L13.5447661,4.2935412 C13.5416481,4.30601336 13.5416481,4.31536748 13.5385301,4.33095768 L13.5510022,4.33095768 C13.7131403,4.31224944 13.8752784,4.29042316 14.0342984,4.27171492 C14.0904232,4.26547884 14.1309577,4.28418708 14.1652561,4.32160356 L14.1652561,4.32160356 Z" id="形状"></path>
                <path d="M21.1434298,22.3625835 C21.3180401,22.5340757 21.3679287,22.6026726 21.3991091,22.6556793 L21,23.0017817 C20.9937639,22.9924276 18.9233853,20.7474388 14.3461024,19.6623608 C10.5732739,18.7674833 8.68374165,18.2155902 7.40222717,17.0899777 C7.26503341,16.9683742 7.13407572,16.8405345 7.00623608,16.7033408 C6.89398664,16.5817372 6.78485523,16.4570156 6.68195991,16.3229399 C6.57282851,16.1826281 6.46681514,16.0329621 6.36391982,15.8770601 C6.33585746,15.8334076 6.30467706,15.786637 6.2766147,15.7398664 C6.1830735,15.5902004 6.08953229,15.4342984 5.99910913,15.2721604 C5.90556793,15.1006682 5.80890869,14.9229399 5.71536748,14.7358575 C5.66859688,14.6454343 5.62494432,14.5487751 5.57817372,14.4552339 C5.54387528,14.3835189 5.50957684,14.311804 5.48151448,14.236971 C4.32160356,11.6022272 4.8610245,8.41870824 6.69443207,6.39198218 C6.81603563,6.25478842 6.94387528,6.12694878 7.077951,5.99910913 C7.26191537,5.82761693 7.45835189,5.66547884 7.66414254,5.51581292 C7.8636971,5.36926503 8.07572383,5.23830735 8.30022272,5.11670379 C8.4623608,5.02628062 8.63385301,4.94209354 8.80846325,4.86726058 C9.2481069,4.67082405 9.722049,4.50868597 10.2178174,4.37461024 C10.4142539,4.32160356 10.6169265,4.27483296 10.8227171,4.2311804 C12.3224944,3.90066815 14.003118,3.77906459 15.6525612,3.65746102 C16.4819599,3.59821826 17.2614699,3.5389755 18.0160356,3.45790646 C21.3554566,3.09309577 25.125167,0.034298441 25.1625835,0.00935412027 L25.4868597,0.442761693 C25.3309577,0.564365256 21.5612472,3.6169265 18.0783964,3.99732739 C17.3175947,4.08151448 16.5287305,4.14075724 15.6962138,4.2 C15.1848552,4.23741648 14.6703786,4.27483296 14.15902,4.32160356 C14.1216036,4.28418708 14.081069,4.26859688 14.0311804,4.27483296 C13.8721604,4.2935412 13.7100223,4.31536748 13.5478842,4.33407572 L13.535412,4.33407572 C13.5385301,4.31848552 13.5385301,4.3091314 13.5416481,4.29665924 L13.535412,4.29665924 C13.5260579,4.30601336 13.5167038,4.31536748 13.5167038,4.3247216 C13.5104677,4.33719376 13.5011136,4.3403118 13.4948775,4.3403118 C13.4668151,4.34654788 13.4356347,4.34654788 13.4075724,4.35902004 C13.3857461,4.36837416 13.3608018,4.37772829 13.3452116,4.39955457 C12.6249443,4.47438753 11.9202673,4.56792873 11.2530067,4.69888641 C11.044098,4.73942094 10.8383073,4.78619154 10.6387528,4.83296214 C10.1273942,4.9545657 9.64097996,5.10734967 9.19198218,5.29443207 C9.01113586,5.36926503 8.83964365,5.45033408 8.67438753,5.53452116 C8.42806236,5.65924276 8.20044543,5.79955457 7.98530067,5.95545657 C7.79198218,6.09576837 7.60801782,6.24855234 7.43340757,6.41069042 C7.29933185,6.53541203 7.17461024,6.66948775 7.05300668,6.80668151 C5.41291759,8.65879733 4.92650334,11.5336303 5.94298441,13.9314031 C5.98040089,14.0280624 6.02405345,14.1216036 6.06770601,14.2182628 C6.10200445,14.2930958 6.1363029,14.3648107 6.17371938,14.4334076 C6.26414254,14.623608 6.36080178,14.8013363 6.45434298,14.9728285 C6.54476615,15.1380846 6.63830735,15.2939866 6.72873051,15.4405345 C6.75679287,15.4873051 6.78485523,15.5278396 6.81603563,15.5714922 C6.91581292,15.7273942 7.02182628,15.8739421 7.13407572,16.0142539 C7.23697105,16.1452116 7.34610245,16.2730512 7.45835189,16.3884187 C7.58619154,16.5224944 7.72026726,16.647216 7.86681514,16.7657016 C9.07037862,17.7634744 10.8757238,18.274833 14.4708241,19.1291759 C16.8623608,19.6966592 18.2935412,20.3358575 19.1260579,20.844098 L19.1291759,20.844098 C19.1291759,20.847216 19.132294,20.847216 19.132294,20.847216 C19.5625835,21.1091314 20.9750557,22.1942094 21.1434298,22.3625835 Z" id="路径"></path>
                <path d="M21.7140312,16.8873051 C22.6962138,19.0044543 23.9839644,20.6351893 24.0057906,20.6663697 L23.6004454,20.9781737 C23.485078,20.8160356 21.6516704,18.4619154 20.613363,15.6899777 L20.610245,15.6837416 C20.454343,15.2721604 20.3171492,14.8512249 20.1955457,14.4271715 C19.7683742,12.9273942 19.596882,11.3870824 19.989755,10.0587973 C20.2797327,9.0766147 20.996882,8.06013363 21.8699332,7.1091314 C21.8730512,7.1091314 21.8730512,7.1091314 21.8730512,7.10601336 L25.9452116,4.29977728 C24.1273942,5.62806236 21.1465479,8.06636971 20.5104677,10.2115813 C20.0552339,11.7518931 20.4481069,13.6507795 21.0997773,15.4093541 C21.2868597,15.9175947 21.4988864,16.413363 21.7140312,16.8873051 Z" id="路径"></path>
                <path d="M27.37951,3.31447661 C27.376392,3.31447661 27.3701559,3.32071269 27.3576837,3.33006682 C27.3514477,3.3363029 27.3420935,3.33942094 27.3358575,3.34565702 C27.3265033,3.3518931 27.3171492,3.36124722 27.3046771,3.36436526 C27.1175947,3.48596882 26.6280624,3.81024499 25.9857461,4.28106904 C25.9732739,4.28730512 25.9608018,4.29665924 25.9483296,4.30601336 L21.8761693,7.11224944 C23.0329621,5.85567929 24.4610245,4.71447661 25.5305122,3.93184855 C25.5429844,3.92249443 25.5492205,3.91314031 25.5585746,3.91002227 C26.2694878,3.38930958 26.8213808,3.02761693 27.0178174,2.90289532 C27.0458797,2.88418708 27.067706,2.87171492 27.0801782,2.8623608 C27.0832962,2.85924276 27.0864143,2.85924276 27.0895323,2.85612472 L27.2360802,3.08685969 L27.2485523,3.10244989 L27.37951,3.31447661 L27.37951,3.31447661 Z" id="路径"></path>
            </g>
        </g>
    </g>
</svg>