<?xml version="1.0" encoding="UTF-8"?>
<svg width="37px" height="26px" viewBox="0 0 37 26" version="1.1" xmlns="http://www.w3.org/2000/svg" xmlns:xlink="http://www.w3.org/1999/xlink">
    <!-- Generator: Sketch 53.1 (72631) - https://sketchapp.com -->
    <title>东向西</title>
    <desc>Created with Sketch.</desc>
    <g id="Page-1" stroke="none" stroke-width="1" fill="none" fill-rule="evenodd">
        <g id="东向西" transform="translate(21.000000, 13.000000) scale(-1, -1) rotate(-270.000000) translate(-21.000000, -13.000000) translate(13.727273, -3.000000)">
            <g id="箭-头" transform="translate(7.272727, 6.909091) rotate(-90.000000) translate(-7.272727, -6.909091) translate(0.727273, 0.000000)">
                <path d="M2.52187099,16.543741 L2.52187099,-3.05491147 L15.2021992,6.74441478 L2.52187099,16.543741 Z" id="路径" stroke="#2EB074" stroke-width="3" fill-rule="nonzero"></path>
                <rect id="矩形" fill="#FFFFFF" x="0" y="4.36363636" width="8" height="5.81818182"></rect>
            </g>
            <g id="县乡村内部道路-copy-4" transform="translate(6.909091, 19.272727) rotate(-90.000000) translate(-6.909091, -19.272727) translate(-5.818182, 14.545455)">
                <path d="M0.917482517,2.6013986 L22.2881119,2.6013986 C22.7804196,2.6013986 23.1832168,2.1986014 23.1832168,1.70629371 C23.1832168,1.21398601 22.7804196,0.811188811 22.2881119,0.811188811 L0.917482517,0.811188811 C0.425174825,0.811188811 0.0223776224,1.21398601 0.0223776224,1.70629371 C0.0223776224,2.1986014 0.425174825,2.6013986 0.917482517,2.6013986 Z M22.3552448,7.21118881 L0.984615385,7.21118881 C0.492307692,7.21118881 0.0895104895,7.61398601 0.0895104895,8.10629371 C0.0895104895,8.5986014 0.492307692,9.0013986 0.984615385,9.0013986 L22.3552448,9.0013986 C22.8475524,9.0013986 23.2503497,8.5986014 23.2503497,8.10629371 C23.2503497,7.61398601 22.8475524,7.21118881 22.3552448,7.21118881 Z M4.18461538,4.01118881 C3.69230769,4.01118881 3.28951049,4.41398601 3.28951049,4.90629371 C3.28951049,5.3986014 3.69230769,5.8013986 4.18461538,5.8013986 L5.84055944,5.8013986 C6.33286713,5.8013986 6.73566434,5.3986014 6.73566434,4.90629371 C6.73566434,4.41398601 6.33286713,4.01118881 5.84055944,4.01118881 L4.18461538,4.01118881 L4.18461538,4.01118881 Z M10.8083916,4.01118881 C10.3160839,4.01118881 9.91328671,4.41398601 9.91328671,4.90629371 C9.91328671,5.3986014 10.3160839,5.8013986 10.8083916,5.8013986 L12.4643357,5.8013986 C12.9566434,5.8013986 13.3594406,5.3986014 13.3594406,4.90629371 C13.3594406,4.41398601 12.9566434,4.01118881 12.4643357,4.01118881 L10.8083916,4.01118881 L10.8083916,4.01118881 Z M17.4321678,4.01118881 C16.9398601,4.01118881 16.5370629,4.41398601 16.5370629,4.90629371 C16.5370629,5.3986014 16.9398601,5.8013986 17.4321678,5.8013986 L19.0881119,5.8013986 C19.5804196,5.8013986 19.9832168,5.3986014 19.9832168,4.90629371 C19.9832168,4.41398601 19.5804196,4.01118881 19.0881119,4.01118881 L17.4321678,4.01118881 Z" id="形状" fill="#2EB074" fill-rule="nonzero"></path>
                <polygon id="矩形" fill="#FFFFFF" points="22.5673255 0.351521702 25.079803 1.3083585 25.331891 8.61905328 22.5673255 9.45454545"></polygon>
            </g>
        </g>
    </g>
</svg>