<?xml version="1.0" encoding="UTF-8"?>
<svg width="26px" height="26px" viewBox="0 0 26 26" version="1.1" xmlns="http://www.w3.org/2000/svg" xmlns:xlink="http://www.w3.org/1999/xlink">
    <!-- Generator: Sketch 53.1 (72631) - https://sketchapp.com -->
    <title>内环</title>
    <desc>Created with Sketch.</desc>
    <defs>
        <path d="M8.518,12.643 C8.14,13.534 7.483,14.299 6.547,14.929 L5.917,14.164 C6.88,13.498 7.51,12.688 7.798,11.734 C7.87,11.464 7.933,11.167 7.987,10.861 L5.782,10.861 L5.782,16.936 L4.837,16.936 L4.837,9.952 L8.104,9.952 C8.14,9.52 8.158,9.07 8.158,8.584 L9.121,8.584 C9.121,9.07 9.103,9.529 9.067,9.952 L12.163,9.952 L12.163,15.766 C12.163,16.468 11.839,16.828 11.2,16.828 L9.787,16.828 L9.535,15.892 L10.894,15.937 C11.11,15.937 11.218,15.811 11.218,15.559 L11.218,10.861 L8.968,10.861 C8.923,11.158 8.869,11.437 8.806,11.707 C9.688,12.517 10.435,13.327 11.047,14.119 L10.318,14.848 C9.868,14.155 9.265,13.417 8.518,12.643 Z M20.261,11.482 C20.972,12.382 21.521,13.174 21.917,13.84 L21.125,14.389 C20.747,13.687 20.243,12.904 19.613,12.049 L19.613,16.927 L18.695,16.927 L18.695,12.562 C18.227,13.264 17.669,13.912 17.03,14.488 L16.454,13.741 C17.687,12.661 18.56,11.365 19.064,9.853 L16.877,9.853 L16.877,8.953 L21.539,8.953 L21.539,9.853 L19.964,9.853 C19.856,10.195 19.739,10.519 19.613,10.843 L19.613,11.887 L20.261,11.482 Z M13.736,11.788 L14.636,11.788 L14.636,10.114 L13.601,10.114 L13.601,9.214 L16.607,9.214 L16.607,10.114 L15.554,10.114 L15.554,11.788 L16.481,11.788 L16.481,12.679 L15.554,12.679 L15.554,14.452 C15.914,14.335 16.274,14.209 16.634,14.074 L16.634,14.974 C15.716,15.316 14.735,15.604 13.7,15.838 L13.466,14.938 C13.862,14.875 14.249,14.794 14.636,14.704 L14.636,12.679 L13.736,12.679 L13.736,11.788 Z" id="path-1"></path>
    </defs>
    <g id="Page-1" stroke="none" stroke-width="1" fill="none" fill-rule="evenodd">
        <g id="内环" fill="#2EB074" fill-rule="nonzero">
            <g id="其他">
                <g id="内环-">
                    <path d="M26,13 C26,5.82029825 20.1797017,2.88657986e-14 13,2.84217094e-14 C5.82029825,2.79776202e-14 2.93098879e-14,5.82029825 2.84217094e-14,13 C2.93098879e-14,20.1797017 5.82029825,26 13,26 C20.1797017,26 26,20.1797017 26,13 Z M2,13 C2,6.92486775 6.92486775,2 13,2 C19.0751322,2 24,6.92486775 24,13 C24,19.0751322 19.0751322,24 13,24 C6.92486775,24 2,19.0751322 2,13 Z" id="形状"></path>
                </g>
                <g id="内环">
                    <use xlink:href="#path-1"></use>
                    <use xlink:href="#path-1"></use>
                </g>
            </g>
        </g>
    </g>
</svg>