<?xml version="1.0" encoding="UTF-8"?>
<svg width="36px" height="36px" viewBox="0 0 36 36" version="1.1" xmlns="http://www.w3.org/2000/svg" xmlns:xlink="http://www.w3.org/1999/xlink">
    <!-- Generator: Sketch 53.1 (72631) - https://sketchapp.com -->
    <title>外环</title>
    <desc>Created with Sketch.</desc>
    <defs>
        <path d="M12.58,12.62 L13.534,12.62 L13.534,15.275 C14.254,15.788 14.992,16.373 15.739,17.021 L15.154,17.903 C14.524,17.246 13.984,16.724 13.534,16.328 L13.534,20.936 L12.58,20.936 L12.58,12.62 Z M9.205,16.148 C9.646,16.373 10.06,16.643 10.438,16.949 C10.78,16.265 11.014,15.509 11.149,14.69 L9.619,14.69 C9.187,15.689 8.62,16.517 7.9,17.174 L7.252,16.364 C8.251,15.437 8.926,14.186 9.277,12.611 L10.222,12.773 C10.141,13.124 10.051,13.457 9.952,13.781 L12.067,13.781 L12.067,14.618 C11.761,17.336 10.447,19.388 8.125,20.774 L7.477,19.973 C8.539,19.37 9.385,18.614 10.006,17.696 C9.574,17.354 9.142,17.084 8.71,16.877 L9.205,16.148 Z M23.261,15.482 C23.972,16.382 24.521,17.174 24.917,17.84 L24.125,18.389 C23.747,17.687 23.243,16.904 22.613,16.049 L22.613,20.927 L21.695,20.927 L21.695,16.562 C21.227,17.264 20.669,17.912 20.03,18.488 L19.454,17.741 C20.687,16.661 21.56,15.365 22.064,13.853 L19.877,13.853 L19.877,12.953 L24.539,12.953 L24.539,13.853 L22.964,13.853 C22.856,14.195 22.739,14.519 22.613,14.843 L22.613,15.887 L23.261,15.482 Z M16.736,15.788 L17.636,15.788 L17.636,14.114 L16.601,14.114 L16.601,13.214 L19.607,13.214 L19.607,14.114 L18.554,14.114 L18.554,15.788 L19.481,15.788 L19.481,16.679 L18.554,16.679 L18.554,18.452 C18.914,18.335 19.274,18.209 19.634,18.074 L19.634,18.974 C18.716,19.316 17.735,19.604 16.7,19.838 L16.466,18.938 C16.862,18.875 17.249,18.794 17.636,18.704 L17.636,16.679 L16.736,16.679 L16.736,15.788 Z" id="path-1"></path>
    </defs>
    <g id="Page-1" stroke="none" stroke-width="1" fill="none" fill-rule="evenodd">
        <g id="外环" transform="translate(2.000000, 2.000000)" fill="#2EB074" fill-rule="nonzero">
            <g id="形状" stroke="#2EB074" stroke-width="2">
                <path d="M20.9898305,0.51525425 L21.1525424,0 C26.3050847,1.65423728 30.3457627,5.72203391 32,10.8474576 L31.4847457,11.0101695 C29.8847457,6.04745762 25.9525424,2.11525425 20.9898305,0.51525425 Z M0.51525425,11.0101695 L0,10.8474576 C1.65423728,5.69491525 5.69491525,1.65423728 10.8474576,0 L11.0101695,0.51525425 C6.04745762,2.11525425 2.11525425,6.04745762 0.51525425,11.0101695 Z M0.51525425,20.9898305 C2.11525425,25.979661 6.04745762,29.8847457 11.0101695,31.4847457 L10.8474576,32 C5.69491525,30.3457627 1.65423728,26.3050847 0,21.1525424 L0.51525425,20.9898305 Z M31.4847457,20.9898305 L32,21.1525424 C30.3457627,26.3050847 26.3050847,30.3457627 21.1525424,32 L20.9898305,31.4847457 C25.9525424,29.8847457 29.8847457,25.9525424 31.4847457,20.9898305 L31.4847457,20.9898305 Z"></path>
            </g>
            <g>
                <use xlink:href="#path-1"></use>
                <use xlink:href="#path-1"></use>
            </g>
        </g>
    </g>
</svg>