<?xml version="1.0" encoding="UTF-8"?>
<svg width="33px" height="20px" viewBox="0 0 33 20" version="1.1" xmlns="http://www.w3.org/2000/svg" xmlns:xlink="http://www.w3.org/1999/xlink">
    <!-- Generator: Sketch 53.1 (72631) - https://sketchapp.com -->
    <title>其他</title>
    <desc>Created with Sketch.</desc>
    <defs>
        <path d="M5.594,3.322 L7.07,3.322 L7.07,2.593 L8.015,2.593 L8.015,3.322 L10.985,3.322 L10.985,2.593 L11.93,2.593 L11.93,3.322 L13.406,3.322 L13.406,4.204 L11.93,4.204 L11.93,8.02 L13.577,8.02 L13.577,8.893 L5.432,8.893 L5.432,8.02 L7.07,8.02 L7.07,4.204 L5.594,4.204 L5.594,3.322 Z M8.015,8.02 L10.985,8.02 L10.985,7.246 L8.015,7.246 L8.015,8.02 Z M8.015,6.454 L10.985,6.454 L10.985,5.725 L8.015,5.725 L8.015,6.454 Z M8.015,4.933 L10.985,4.933 L10.985,4.204 L8.015,4.204 L8.015,4.933 Z M8.123,8.938 L8.789,9.532 C8.069,10.054 7.187,10.522 6.143,10.927 L5.549,10.153 C6.566,9.811 7.421,9.406 8.123,8.938 Z M10.751,8.983 C11.741,9.298 12.641,9.676 13.451,10.108 L12.929,10.927 C12.065,10.405 11.183,9.991 10.274,9.694 L10.751,8.983 Z M16.929,2.521 L17.775,2.926 C17.577,3.574 17.316,4.204 16.992,4.807 L16.992,10.954 L16.065,10.954 L16.065,6.247 C15.831,6.553 15.579,6.85 15.318,7.138 L15.012,6.175 C15.876,5.14 16.515,3.925 16.929,2.521 Z M22.131,10.765 L19.089,10.765 C18.333,10.765 17.955,10.369 17.955,9.586 L17.955,6.31 L17.262,6.517 L17.262,5.563 L17.955,5.347 L17.955,3.439 L18.891,3.439 L18.891,5.05 L19.926,4.726 L19.926,2.593 L20.862,2.593 L20.862,4.429 L22.824,3.817 C22.824,5.833 22.77,7.057 22.68,7.489 C22.581,7.912 22.176,8.128 21.465,8.128 L21.375,8.128 L21.096,7.219 C21.312,7.219 21.501,7.228 21.663,7.228 C21.762,7.228 21.825,7.129 21.843,6.94 C21.861,6.769 21.879,6.157 21.879,5.104 L20.862,5.419 L20.862,8.956 L19.926,8.956 L19.926,5.707 L18.891,6.022 L18.891,9.46 C18.891,9.73 19.035,9.874 19.323,9.874 L21.969,9.874 C22.158,9.874 22.293,9.811 22.383,9.703 C22.455,9.577 22.509,9.163 22.536,8.452 L23.418,8.758 C23.355,9.703 23.238,10.279 23.076,10.477 C22.905,10.666 22.59,10.765 22.131,10.765 Z" id="path-1"></path>
    </defs>
    <g id="Page-1" stroke="none" stroke-width="1" fill="none" fill-rule="evenodd">
        <g id="其他" transform="translate(0.000000, -2.000000)" fill-rule="nonzero">
            <g transform="translate(0.000000, 12.000000)" fill="#2EB074" id="形状">
                <path d="M0.257154639,6.43724301 L0.257154639,4.3862268 L26.1089249,4.3862268 L26.1089249,6.43724301 L0.257154639,6.43724301 Z M32.0806598,4.81868159 L26.482592,9.11375082 C26.3981384,9.18613965 26.2774904,9.19820443 26.1689072,9.14994522 C26.0687455,9.09852818 26.0041563,8.99703092 26,8.88451957 L26,0.294381134 C26,0.185797917 26.060324,0.0772147005 26.1689072,0.0289555253 C26.2654256,-0.0193036912 26.3860736,-0.00723886647 26.482592,0.065149917 L32.0806598,4.36021915 C32.1530486,4.42054315 32.2013078,4.50499676 32.2013078,4.58945037 C32.2013078,4.67390398 32.1530486,4.75835759 32.0806598,4.81868159 Z"></path>
            </g>
            <g>
                <use fill="#FFFFFF" xlink:href="#path-1"></use>
                <use fill="#2EB074" xlink:href="#path-1"></use>
            </g>
        </g>
    </g>
</svg>