<?xml version="1.0" encoding="UTF-8"?>
<svg width="31px" height="28px" viewBox="0 0 31 28" version="1.1" xmlns="http://www.w3.org/2000/svg" xmlns:xlink="http://www.w3.org/1999/xlink">
    <!-- Generator: Sketch 53.1 (72631) - https://sketchapp.com -->
    <title>交叉口（多进多出）</title>
    <desc>Created with Sketch.</desc>
    <g id="Page-1" stroke="none" stroke-width="1" fill="none" fill-rule="evenodd">
        <g id="交叉口（多进多出）" transform="translate(0.000000, -0.000000)" fill="#4897FD" fill-rule="nonzero">
            <path d="M31,8.68181068 L31,9.51944638 L21.2400483,9.51944638 C20.6492159,9.51944638 20.1668275,9.04079741 20.1668275,8.44622564 L20.1668275,0.0261761158 L21.0680338,0.0261761158 L21.0680338,7.96757666 C21.0680338,8.36395784 21.3896261,8.68181068 21.7822678,8.68181068 L31,8.68181068 Z M20.204222,11.4340423 L21.1054282,11.4340423 L21.1054282,12.271678 L20.204222,12.271678 L20.204222,11.4340423 Z M20.204222,14.1563583 L21.1054282,14.1563583 L21.1054282,14.993994 L20.204222,14.993994 L20.204222,14.1563583 Z M20.204222,16.8749349 L21.1054282,16.8749349 L21.1054282,17.7125706 L20.204222,17.7125706 L20.204222,16.8749349 Z M20.204222,10.0766237 L21.1054282,10.0766237 L21.1054282,10.9142594 L20.204222,10.9142594 L20.204222,10.0766237 Z M20.204222,12.7952003 L21.1054282,12.7952003 L21.1054282,13.632836 L20.204222,13.632836 L20.204222,12.7952003 Z M20.204222,15.5137769 L21.1054282,15.5137769 L21.1054282,16.3514126 L20.204222,16.3514126 L20.204222,15.5137769 Z M20.4098914,21.7025586 L20.1668275,21.7025586 L20.1668275,21.3884452 L20.4098914,21.7025586 Z M10.7546441,0.0261761158 L10.7546441,6.19881912 L10.5489747,6.19881912 L10.7546441,6.46058028 L10.7546441,8.44996508 C10.7546441,9.04079741 10.2759952,9.52318583 9.6814234,9.52318583 L0,9.52318583 L0,8.68555012 L9.13546441,8.68555012 C9.5318456,8.68555012 9.84969843,8.36395784 9.84969843,7.97131611 L9.84969843,0.0261761158 L10.7546441,0.0261761158 Z M11.3679131,8.23307726 L12.2691194,8.23307726 L12.2691194,9.07071297 L11.3679131,9.07071297 L11.3679131,8.23307726 Z" id="形状"></path>
            <polygon id="路径" points="10.7546441 6.19881912 10.7546441 6.45684084 10.5527141 6.19881912"></polygon>
            <polygon id="路径" points="9.85343788 11.4639578 10.7546441 11.4639578 10.7546441 12.3015935 9.85343788 12.3015935"></polygon>
            <polygon id="路径" points="9.85343788 14.1713161 10.7546441 14.1713161 10.7546441 15.0089518 9.85343788 15.0089518"></polygon>
            <polygon id="路径" points="9.85343788 16.8749349 10.7546441 16.8749349 10.7546441 17.7125706 9.85343788 17.7125706"></polygon>
            <polygon id="路径" points="9.85343788 10.0766237 10.7546441 10.0766237 10.7546441 10.9142594 9.85343788 10.9142594"></polygon>
            <polygon id="路径" points="9.85343788 12.817637 10.7546441 12.817637 10.7546441 13.6552727 9.85343788 13.6552727"></polygon>
            <polygon id="路径" points="9.85343788 15.5212558 10.7546441 15.5212558 10.7546441 16.3588915 9.85343788 16.3588915"></polygon>
            <polygon id="路径" points="14.2323281 8.23307726 15.1335344 8.23307726 15.1335344 9.07071297 14.2323281 9.07071297"></polygon>
            <polygon id="路径" points="17.1004825 8.23307726 18.0016888 8.23307726 18.0016888 9.07071297 17.1004825 9.07071297"></polygon>
            <polygon id="路径" points="12.8001206 8.23307726 13.7013269 8.23307726 13.7013269 9.07071297 12.8001206 9.07071297"></polygon>
            <polygon id="路径" points="15.668275 8.23307726 16.5694813 8.23307726 16.5694813 9.07071297 15.668275 9.07071297"></polygon>
            <polygon id="路径" points="18.53269 8.23307726 19.4338963 8.23307726 19.4338963 9.07071297 18.53269 9.07071297"></polygon>
            <path d="M10.7546441,27.5947432 L9.84969843,27.5947432 L9.84969843,19.8403149 C9.84969843,19.4439337 9.52810615,19.1260809 9.13546441,19.1260809 L0,19.1260809 L0,18.2847057 L9.6814234,18.2847057 C10.2759952,18.2847057 10.7546441,18.7670942 10.7546441,19.3579265 L10.7546441,27.5947432 Z" id="路径"></path>
            <polygon id="路径" points="12.8001206 18.538988 13.7013269 18.538988 13.7013269 19.3766237 12.8001206 19.3766237"></polygon>
            <polygon id="路径" points="15.668275 18.538988 16.5694813 18.538988 16.5694813 19.3766237 15.668275 19.3766237"></polygon>
            <polygon id="路径" points="18.53269 18.538988 19.4338963 18.538988 19.4338963 19.3766237 18.53269 19.3766237"></polygon>
            <polygon id="路径" points="11.3679131 18.538988 12.2691194 18.538988 12.2691194 19.3766237 11.3679131 19.3766237"></polygon>
            <polygon id="路径" points="14.2323281 18.538988 15.1335344 18.538988 15.1335344 19.3766237 14.2323281 19.3766237"></polygon>
            <polygon id="路径" points="17.1004825 18.538988 18.0016888 18.538988 18.0016888 19.3766237 17.1004825 19.3766237"></polygon>
            <path d="M31,19.1260809 L21.7822678,19.1260809 C21.3858866,19.1260809 21.0680338,19.4476732 21.0680338,19.8403149 L21.0680338,27.5947432 L20.1668275,27.5947432 L20.1668275,21.7025586 L20.4098914,21.7025586 L20.1668275,21.3921846 L20.1668275,19.3616659 C20.1668275,18.7708336 20.6454765,18.2884452 21.2400483,18.2884452 L31,18.2884452 L31,19.1260809 Z" id="路径"></path>
            <path d="M8.29034982,15.1005682 L6.53201377,15.5137769" id="路径"></path>
            <polygon id="路径" points="6.87242488 16.8194334 6.87242488 15.9253439 0.815789474 15.9253439 0.815789474 14.7625106 6.87242488 14.7625106 6.87242488 13.8684211 9.10613905 15.3413432"></polygon>
            <polygon id="路径" points="14.2277874 21.8158794 14.2277874 22.1705283 13.771575 22.1705283 13.771575 27.6486978 12.8703688 27.6486978 12.8703688 22.1705283 12.1785714 22.1705283 13.3228416 20.5112782"></polygon>
            <polygon id="路径" points="14.4922331 1.3046012 14.4922331 1.65925007 13.9771478 1.65925007 13.9771478 7.13741961 12.9596433 7.13741961 12.9596433 1.65925007 12.1785714 1.65925007 13.4705066 0"></polygon>
            <polygon id="路径" transform="translate(17.340397, 23.963447) scale(1, -1) translate(-17.340397, -23.963447) " points="18.3650053 21.699338 18.3650053 22.0539869 17.908793 22.0539869 17.908793 27.5321564 17.0075868 27.5321564 17.0075868 22.0539869 16.3157895 22.0539869 17.4600596 20.3947368"></polygon>
            <polygon id="路径" transform="translate(16.948184, 3.568710) scale(1, -1) translate(-16.948184, -3.568710) " points="18.1050151 1.3046012 18.1050151 1.65925007 17.5899298 1.65925007 17.5899298 7.13741961 16.5724253 7.13741961 16.5724253 1.65925007 15.7913534 1.65925007 17.0832886 0"></polygon>
            <polygon id="路径" points="20.4098914 21.7025586 20.1668275 21.7025586 20.1668275 21.3884452"></polygon>
            <polygon id="路径" points="29.8343055 11.3633502 29.8343055 12.4312599 24.1457812 12.4312599 24.1457812 13.2523639 22.1428571 11.8996782 24.1457812 10.5469925 24.1457812 11.3633502"></polygon>
            <polygon id="路径" points="8.50723782 11.4216208 8.50723782 12.4895306 2.81871357 12.4895306 2.81871357 13.3106346 0.815789474 11.9579489 2.81871357 10.6052632 2.81871357 11.4216208"></polygon>
            <polygon id="路径" transform="translate(26.687829, 15.221107) scale(-1, 1) translate(-26.687829, -15.221107) " points="30.5335536 14.6847788 30.5335536 15.7526887 24.8450294 15.7526887 24.8450294 16.5737927 22.8421053 15.2211069 24.8450294 13.8684211 24.8450294 14.6847788"></polygon>
            <polygon id="路径" points="10.7546441 5.75008571 10.7546441 6.00810742 10.5527141 5.75008571"></polygon>
        </g>
    </g>
</svg>