<?xml version="1.0" encoding="UTF-8"?>
<svg width="17px" height="26px" viewBox="0 0 17 26" version="1.1" xmlns="http://www.w3.org/2000/svg" xmlns:xlink="http://www.w3.org/1999/xlink">
    <!-- Generator: Sketch 53.1 (72631) - https://sketchapp.com -->
    <title>合流路口</title>
    <desc>Created with Sketch.</desc>
    <g id="Page-1" stroke="none" stroke-width="1" fill="none" fill-rule="evenodd">
        <g id="合流路口" fill="#4897FD" fill-rule="nonzero">
            <g id="路段-copy">
                <path d="M0.832033268,0.026001053 L0.832033268,0.026001053 C1.38672211,0.026001053 1.66406655,0.248223272 1.66406658,0.692667709 L1.66406658,19.3593344 C1.66406658,19.8037788 1.38672214,20.026001 0.832033268,20.0260011 L0.832033268,20.0260011 C0.277344423,20.0260011 -2.84217094e-14,19.8037788 -2.84217094e-14,19.3593344 L-2.84217094e-14,0.692667709 C-2.84217094e-14,0.248223272 0.277344423,0.026001053 0.832033268,0.026001053 Z" id="路径"></path>
                <path d="M15.800832,0.026001053 L15.800832,0.026001053 C16.3555209,0.026001053 16.6328653,0.248223272 16.6328653,0.692667709 L16.6328653,19.3593344 C16.6328653,19.8037788 16.3555209,20.026001 15.800832,20.0260011 L15.800832,20.0260011 C15.2461432,20.0260011 14.9687988,19.8037788 14.9687988,19.3593344 L14.9687988,0.692667709 C14.9687988,0.248223272 15.2461432,0.026001053 15.800832,0.026001053 Z" id="路径"></path>
            </g>
            <g transform="translate(2.000000, 6.000000)" id="路径">
                <path d="M7.46717779,0.195133777 L12.1911778,4.92046711 C12.3185229,5.04773998 12.3889764,5.22110857 12.3865111,5.40113378 L12.3385111,8.77113378 C12.337495,8.82452508 12.3047213,8.87216003 12.2552202,8.89219271 C12.2057192,8.9122254 12.1490405,8.90079113 12.1111778,8.86313378 L8.42251112,5.17313378 L8.42251112,18.9678004 C8.42251112,19.3359903 8.12403429,19.6344671 7.75584445,19.6344671 L6.24517779,19.6344671 C5.87698795,19.6344671 5.57851112,19.3359903 5.57851112,18.9678004 L5.57851112,5.16646711 L1.91051112,8.83980044 C1.87238846,8.87769789 1.81523707,8.88899637 1.76556162,8.86845608 C1.71588618,8.8479158 1.68340348,8.79955454 1.68317779,8.74580044 L1.69784445,5.30313378 C1.6985855,5.12758829 1.76853604,4.95941952 1.89251112,4.83513378 L6.52584445,0.195133777 C6.65074912,0.0701936285 6.82017749,6.21724894e-15 6.99684445,6.21724894e-15 C7.17351141,6.21724894e-15 7.34293979,0.0701936285 7.46784445,0.195133777 L7.46717779,0.195133777 Z"></path>
                <path d="M5.55384445,8.13646711 L6.88451112,8.20913378 C6.76784445,10.3531338 6.19851112,12.4531338 5.18117779,14.5044671 C4.24784445,16.3864671 3.08917779,17.7311338 1.23051112,18.9511338 L0.82651112,19.2018004 C0.765393932,19.2396846 0.691567434,19.2512812 0.6217786,19.2339595 C0.551989766,19.2166378 0.492153952,19.1718661 0.455844453,19.1098004 L0.0298444531,18.3818004 C-0.0302966429,18.2791461 0.00328033995,18.1472153 0.105177786,18.0858004 C1.95451112,16.9678004 3.09717779,15.7058004 3.98651112,13.9124671 C4.80784445,12.2564671 5.30917779,10.5764671 5.49317779,8.86980044 L5.55317779,8.13646711 L5.55384445,8.13646711 Z"></path>
            </g>
        </g>
    </g>
</svg>