<?xml version="1.0" encoding="UTF-8"?>
<svg width="20px" height="31px" viewBox="0 0 20 31" version="1.1" xmlns="http://www.w3.org/2000/svg" xmlns:xlink="http://www.w3.org/1999/xlink">
    <!-- Generator: Sketch 53.1 (72631) - https://sketchapp.com -->
    <title>分流路口</title>
    <desc>Created with Sketch.</desc>
    <g id="Page-1" stroke="none" stroke-width="1" fill="none" fill-rule="evenodd">
        <g id="分流路口" fill="#4897FD" fill-rule="nonzero">
            <g id="路段-copy-2" transform="translate(2.000000, 11.000000)">
                <path d="M0.832033268,0.026001053 L0.832033268,0.026001053 C1.38672211,0.026001053 1.66406655,0.248223272 1.66406658,0.692667709 L1.66406658,19.3593344 C1.66406658,19.8037788 1.38672214,20.026001 0.832033268,20.0260011 L0.832033268,20.0260011 C0.277344423,20.0260011 0,19.8037788 0,19.3593344 L0,0.692667709 C0,0.248223272 0.277344423,0.026001053 0.832033268,0.026001053 Z" id="路径"></path>
                <path d="M14.800832,0.026001053 L14.800832,0.026001053 C15.3555209,0.026001053 15.6328653,0.248223272 15.6328653,0.692667709 L15.6328653,19.3593344 C15.6328653,19.8037788 15.3555209,20.026001 14.800832,20.0260011 L14.800832,20.0260011 C14.2461432,20.0260011 13.9687988,19.8037788 13.9687988,19.3593344 L13.9687988,0.692667709 C13.9687988,0.248223272 14.2461432,0.026001053 14.800832,0.026001053 Z" id="路径"></path>
            </g>
            <g id="形状">
                <path d="M10.6709957,8.33333333 C10.6709957,7.77229437 10.7236364,7.18770563 10.9979221,6.91480519 L13.3944589,4.56813853 C13.6687446,4.29385281 13.685368,4.12761905 13.4609524,3.90320346 L11.2666667,1.75878788 C10.9064935,1.39861472 11.4425974,0.802943723 12.0077922,0.747532468 L19.4148918,0.0216450216 C19.7473593,-0.0102164502 20.0008658,0.244675325 19.9828571,0.592380952 L19.2611255,8.01748918 C19.2057143,8.58268398 18.5352381,9.04398268 18.1764502,8.68242424 L16.1608658,6.50060606 C15.9364502,6.27619048 15.595671,6.22632035 15.3227706,6.50060606 L11.67671,10.1563636 C11.4065801,10.3974026 10.8954113,10.9044156 10.6709957,10.68 L10.6709957,8.33333333 Z M9.31341991,8.33333333 C9.31341991,7.77229437 9.26077922,7.18770563 8.98649351,6.91480519 L6.58995671,4.56813853 C6.315671,4.29385281 6.29904762,4.12761905 6.5234632,3.90320346 L8.71774892,1.75878788 C9.07792208,1.39861472 8.54181818,0.802943723 7.97662338,0.747532468 L0.56952381,0.0216450216 C0.237056277,-0.0102164502 -0.0164502165,0.244675325 0.00155844156,0.592380952 L0.723290043,8.01748918 C0.778701299,8.58268398 1.44917749,9.04398268 1.80796537,8.68242424 L3.82354978,6.50060606 C4.04796537,6.27619048 4.38874459,6.22632035 4.66164502,6.50060606 L8.30770563,10.1549784 C8.5778355,10.3960173 9.08900433,10.9030303 9.31341991,10.6786147 L9.31341991,8.33333333 Z"></path>
                <path d="M9.28571429,18.030303 L6.51515152,18.030303 L6.51515152,8.33333333 L9.28571429,8.33333333 L9.28571429,18.030303 Z M13.4415584,18.030303 L10.6709957,18.030303 L10.6709957,8.33333333 L13.4415584,8.33333333 L13.4415584,18.030303 Z"></path>
            </g>
        </g>
    </g>
</svg>