<?xml version="1.0" encoding="UTF-8"?>
<svg width="38px" height="27px" viewBox="0 0 38 27" version="1.1" xmlns="http://www.w3.org/2000/svg" xmlns:xlink="http://www.w3.org/1999/xlink">
    <!-- Generator: Sketch 53.1 (72631) - https://sketchapp.com -->
    <title> 悬挂</title>
    <desc>Created with Sketch.</desc>
    <g id="Page-1" stroke="none" stroke-width="1" fill="none" fill-rule="evenodd">
        <g id="-悬挂" fill="#4897FD" fill-rule="nonzero">
            <g transform="translate(0.000000, 0.000000)">
                <path d="M13.65,2.26485497e-14 C14.35,2.26485497e-14 14.7,0.311111106 14.7,0.933333319 L14.7,10.2666666 C14.7,10.8888888 14.35,11.2 13.65,11.2 C12.95,11.2 12.6,10.8888889 12.6,10.2666666 L12.6,0.933333319 C12.6,0.311111106 12.95,2.26485497e-14 13.65,2.26485497e-14 Z" id="路径"></path>
                <g id="分组-4" transform="translate(0.000000, 9.800000)">
                    <path d="M12.4544,16.7104 L0.964693333,16.7104 C0.431907917,16.7104 -8.17124146e-14,16.2784921 -8.17124146e-14,15.7457067 L-8.17124146e-14,0.964693333 C-8.17124146e-14,0.431907917 0.431907917,2.39808173e-14 0.964693333,2.39808173e-14 L26.4379733,2.39808173e-14 C26.9707587,2.39808173e-14 27.4026667,0.431907917 27.4026667,0.964693333 L27.4026667,15.7546667 C27.4026667,16.2874521 26.9707587,16.71936 26.4379733,16.71936 L14.9661867,16.71936 L12.4544,16.7104 Z M25.1895467,2.23104 L2.23104,2.23104 L2.23104,14.4942933 L25.1746133,14.4942933 L25.1895467,2.23104 Z" id="形状"></path>
                    <path d="M5.39093333,5.91957333 C5.21279143,6.04381529 5.09644426,6.23845215 5.07136,6.45418667 C5.03350338,6.70059355 5.11261752,6.95057014 5.28534959,7.13032861 C5.45808167,7.31008708 5.70470689,7.39910026 5.95242667,7.37109333 C6.14741821,7.35558347 6.33782236,7.30393128 6.51392,7.21877333 L7.63093333,6.45418667 C7.77824672,6.36907879 7.94233888,6.31709928 8.11178667,6.30186667 C8.2813109,6.3167175 8.44548393,6.36872261 8.59264,6.45418667 L9.47072,7.06645333 C9.91473482,7.38860855 10.4430088,7.57438662 10.9909333,7.60106667 C11.551599,7.62789256 12.1008216,7.4362535 12.5230933,7.06645333 L13.4011733,6.45418667 C13.5484867,6.36907879 13.7125789,6.31709928 13.8820267,6.30186667 C14.0515509,6.3167175 14.2157239,6.36872261 14.36288,6.45418667 L15.24096,7.06645333 C15.6849748,7.38860855 16.2132488,7.57438662 16.7611733,7.60106667 C17.3041769,7.61514192 17.8372609,7.45385521 18.2813867,7.14112 L19.1594667,6.52885333 C19.3073735,6.44509913 19.4711664,6.39321442 19.64032,6.37653333 C19.8096184,6.39250542 19.9735563,6.44443606 20.1211733,6.52885333 L20.9992533,7.14112 C21.1710063,7.2373872 21.36389,7.28971203 21.5607467,7.29344 C21.8303302,7.29100315 22.0884195,7.18391216 22.2805333,6.99477333 C22.4439323,6.84276319 22.5055032,6.61042016 22.4388267,6.39744 C22.4327904,6.17570846 22.3116964,5.97313067 22.1192533,5.86282667 L21.2411733,5.26549333 C20.7971585,4.94333812 20.2688846,4.75756005 19.72096,4.73088 C19.1681589,4.69649485 18.6231559,4.87495664 18.19776,5.22965333 L17.31968,5.82698667 C17.1723666,5.91209455 17.0082744,5.96407405 16.8388267,5.97930667 C16.6693024,5.96445584 16.5051294,5.91245072 16.3579733,5.82698667 L15.4798933,5.22965333 C15.0358785,4.90749812 14.5076046,4.72172005 13.95968,4.69504 C13.4030796,4.67133361 12.8587093,4.86277228 12.4394667,5.22965333 L11.5613867,5.82698667 C11.4140733,5.91209455 11.2499811,5.96407405 11.0805333,5.97930667 C10.9110091,5.96445584 10.7468361,5.91245072 10.59968,5.82698667 L9.7216,5.22965333 C9.27758518,4.90749812 8.74931122,4.72172005 8.20138667,4.69504 C7.60313356,4.65006934 7.00728421,4.80903268 6.51093333,5.14602667 L5.39093333,5.91957333 Z M5.22965333,11.2507733 C5.40164886,11.4682896 5.67397398,11.5812876 5.94944,11.54944 C6.14309081,11.5405202 6.3334372,11.495971 6.51093333,11.4180267 L7.62794667,10.5757867 C7.7758535,10.4920325 7.9396464,10.4401478 8.1088,10.4234667 C8.27809841,10.4394387 8.44203632,10.4913694 8.58965333,10.5757867 L9.46773333,11.1880533 C9.91242172,11.5080807 10.4406407,11.6917639 10.9879467,11.7166933 C11.5508521,11.7418491 12.1014428,11.5468929 12.5230933,11.17312 L13.4011733,10.5608533 C13.5490802,10.4770991 13.7128731,10.4252144 13.8820267,10.4085333 C14.0513251,10.4245054 14.215263,10.4764361 14.36288,10.5608533 L15.24096,11.17312 C15.6797622,11.4957551 16.2025427,11.6845369 16.74624,11.7166933 C17.3254731,11.7279765 17.8908761,11.5391572 18.3470933,11.18208 L19.2251733,10.5698133 C19.3727903,10.4853961 19.5367283,10.4334654 19.7060267,10.4174933 C19.8751803,10.4341744 20.0389732,10.4860591 20.18688,10.5698133 L21.06496,11.18208 C21.2212781,11.3116867 21.4260669,11.3672411 21.6264533,11.3344 C21.8960369,11.3319631 22.1541262,11.2248722 22.34624,11.0357333 C22.509639,10.8837232 22.5712099,10.6513802 22.5045333,10.4384 C22.4990809,10.2164991 22.3778287,10.0136566 22.18496,9.90378667 L21.3038933,9.30645333 C20.86673,8.96770074 20.3384796,8.76700721 19.7866667,8.73002667 C19.2300662,8.70632028 18.6856959,8.89775895 18.2664533,9.26464 L17.3704533,9.86197333 C17.2237371,9.9459884 17.0608592,9.99790572 16.8925867,10.0142933 C16.7232883,9.99832125 16.5593503,9.94639061 16.4117333,9.86197333 L15.5306667,9.26464 C15.0894828,8.94139125 14.5627668,8.75543037 14.0164267,8.73002667 C13.4693933,8.71241464 12.9359361,8.90232543 12.5230933,9.26165333 L11.6270933,9.85898667 C11.4803771,9.94300173 11.3174992,9.99491905 11.1492267,10.0113067 C10.9799283,9.99533458 10.8159903,9.94340394 10.6683733,9.85898667 L9.77237333,9.26165333 C9.28582408,8.9173645 8.70483874,8.73169952 8.1088,8.73002667 C7.54367195,8.7281064 6.98959629,8.88656168 6.51093333,9.18698667 L5.39093333,10.0292267 C5.01949307,10.3292341 4.94855882,10.867809 5.22965333,11.25376 L5.22965333,11.2507733 Z" id="形状"></path>
                </g>
            </g>
            <path d="M36.376,7.632 L36.376,10.6 L37.56,10.6 L37.56,11.256 L35.976,11.256 C36.28,11.512 36.616,11.832 36.992,12.216 L36.496,12.712 C36.36,12.56 36.232,12.416 36.104,12.288 C34.648,12.4 33.064,12.496 31.344,12.56 L31.2,11.944 C31.256,11.928 31.304,11.904 31.336,11.88 C31.56,11.792 31.84,11.584 32.176,11.256 L30.44,11.256 L30.44,10.6 L31.656,10.6 L31.656,7.632 L36.376,7.632 Z M32.424,10.6 L35.608,10.6 L35.608,10.192 L32.424,10.192 L32.424,10.6 Z M32.424,9.64 L35.608,9.64 L35.608,9.224 L32.424,9.224 L32.424,9.64 Z M32.424,8.672 L35.608,8.672 L35.608,8.248 L32.424,8.248 L32.424,8.672 Z M35.232,11.256 L33.048,11.256 C32.808,11.504 32.584,11.712 32.376,11.872 C33.424,11.832 34.464,11.776 35.504,11.712 C35.368,11.584 35.24,11.472 35.112,11.368 L35.232,11.256 Z M31.04,12.848 L31.784,13 C31.592,13.616 31.328,14.144 30.984,14.592 L30.328,14.184 C30.664,13.768 30.896,13.32 31.04,12.848 Z M35.12,14.712 L33.152,14.712 C32.544,14.712 32.24,14.44 32.24,13.896 L32.24,12.872 L33.016,12.872 L33.016,13.736 C33.016,13.928 33.136,14.032 33.376,14.032 L34.976,14.032 C35.12,14.032 35.224,14 35.28,13.944 C35.36,13.872 35.416,13.664 35.448,13.312 L36.168,13.552 C36.104,14.112 35.992,14.448 35.816,14.56 C35.664,14.656 35.432,14.712 35.12,14.712 Z M34.216,12.552 C34.544,12.872 34.792,13.16 34.968,13.408 L34.376,13.816 C34.2,13.544 33.952,13.248 33.64,12.92 L34.216,12.552 Z M36.688,12.72 C37.128,13.232 37.464,13.672 37.696,14.04 L37.064,14.488 C36.824,14.072 36.496,13.608 36.08,13.104 L36.688,12.72 Z M33.328,19.328 L34.88,19.328 L34.88,18.44 L35.624,18.44 L35.624,19.328 L37.208,19.328 L37.208,20.048 L35.624,20.048 L35.624,21.064 L37.568,21.064 L37.568,21.792 L32.96,21.792 L32.96,21.064 L34.88,21.064 L34.88,20.048 L33.328,20.048 L33.328,19.328 Z M33.256,22.928 L34.864,22.928 L34.864,22.056 L35.616,22.056 L35.616,22.928 L37.248,22.928 L37.248,23.656 L35.616,23.656 L35.616,24.816 L37.664,24.816 L37.664,25.544 L32.752,25.544 L32.752,24.816 L34.864,24.816 L34.864,23.656 L33.256,23.656 L33.256,22.928 Z M31.264,25.736 L30.592,25.736 L30.432,25.024 C30.632,25.056 30.824,25.072 31.008,25.072 C31.184,25.072 31.28,24.968 31.28,24.76 L31.28,23.088 C31.024,23.184 30.768,23.272 30.52,23.352 L30.336,22.608 C30.656,22.536 30.968,22.448 31.28,22.344 L31.28,20.576 L30.432,20.576 L30.432,19.848 L31.28,19.848 L31.28,18.448 L32.032,18.448 L32.032,19.848 L32.912,19.848 L32.912,20.576 L32.032,20.576 L32.032,22.048 C32.288,21.928 32.544,21.8 32.8,21.664 L32.8,22.408 C32.544,22.536 32.288,22.664 32.032,22.776 L32.032,24.952 C32.032,25.472 31.776,25.736 31.264,25.736 Z" id="悬挂"></path>
        </g>
    </g>
</svg>