<?xml version="1.0" encoding="UTF-8"?>
<svg width="25px" height="20px" viewBox="0 0 25 20" version="1.1" xmlns="http://www.w3.org/2000/svg" xmlns:xlink="http://www.w3.org/1999/xlink">
    <!-- Generator: Sketch 53.1 (72631) - https://sketchapp.com -->
    <title>一进一出</title>
    <desc>Created with Sketch.</desc>
    <g id="Page-1" stroke="none" stroke-width="1" fill="none" fill-rule="evenodd">
        <g id="一进一出" fill="#4897FD" fill-rule="nonzero">
            <path d="M16.5929135,14.1040278 L19.1417716,10.6471389 C19.3337959,10.3868287 19.6450555,10.3869282 19.8369893,10.6473611 C20.028923,10.9077941 20.0288497,11.3299398 19.8368254,11.59025 L16.9402765,15.51825 C16.7483257,15.7785046 16.4371735,15.7785046 16.2452227,15.51825 L13.3486738,11.59025 C13.1566495,11.3298171 13.1566495,10.9075718 13.3486738,10.6471389 C13.5406981,10.3867059 13.852031,10.3867059 14.0440553,10.6471389 L16.5929135,14.1040278 L16.5929135,14.1040278 Z" id="路径"></path>
            <path d="M16.101362,1.68402778 C16.101362,1.31583795 16.3214371,1.01736111 16.5929135,1.01736111 C16.8643898,1.01736111 17.0844649,1.31583795 17.0844649,1.68402778 L17.0844649,15.0471389 C17.0844649,15.4153287 16.8643898,15.7138055 16.5929135,15.7138055 C16.3214371,15.7138055 16.101362,15.4153287 16.101362,15.0471389 L16.101362,1.68358334 L16.101362,1.68402778 Z" id="路径"></path>
            <path d="M8.40038915,5.98713887 L5.85153097,9.44402778 C5.72737157,9.61249835 5.54637408,9.67833595 5.3767185,9.6167402 C5.20706292,9.55514445 5.07452396,9.3754732 5.02902777,9.14540687 C4.98353159,8.91534055 5.03199012,8.6698317 5.15614952,8.50136113 L8.05269841,4.57291666 C8.24464918,4.31266203 8.5558014,4.31266203 8.74775217,4.57291666 L11.6446288,8.50136113 C11.8365626,8.76179407 11.8364892,9.18393979 11.6444649,9.44425 C11.4524406,9.7045602 11.1411811,9.70446071 10.9492473,9.44402778 L8.40038915,5.98713887 Z" id="路径"></path>
            <path d="M8.8919406,19.0173611 C8.89194061,19.2555382 8.79825143,19.4756229 8.64616488,19.5947114 C8.49407833,19.7137999 8.30669997,19.7137999 8.15461342,19.5947114 C8.00252686,19.4756229 7.90883769,19.2555382 7.9088377,19.0173611 L7.9088377,5.04402778 C7.90883771,4.67583796 8.12891279,4.37736115 8.40038915,4.37736115 C8.67186551,4.37736115 8.89194059,4.67583796 8.8919406,5.04402778 L8.8919406,19.0173611 Z" id="路径"></path>
            <path d="M0.832033268,0 L0.832033268,0 C1.38672211,0 1.66406655,0.222222219 1.66406658,0.666666656 L1.66406658,19.3333333 C1.66406658,19.7777777 1.38672214,20 0.832033268,20 L0.832033268,20 C0.277344423,20 0,19.7777778 0,19.3333333 L0,0.666666656 C0,0.222222219 0.277344423,0 0.832033268,0 Z" id="路径"></path>
            <path d="M23.8320333,0 L23.8320333,0 C24.3867221,0 24.6640665,0.222222219 24.6640666,0.666666656 L24.6640666,19.3333333 C24.6640666,19.7777777 24.3867221,20 23.8320333,20 L23.8320333,20 C23.2773444,20 23,19.7777778 23,19.3333333 L23,0.666666656 C23,0.222222219 23.2773444,0 23.8320333,0 Z" id="路径"></path>
        </g>
    </g>
</svg>