<?xml version="1.0" encoding="UTF-8"?>
<svg width="37px" height="27px" viewBox="0 0 37 27" version="1.1" xmlns="http://www.w3.org/2000/svg" xmlns:xlink="http://www.w3.org/1999/xlink">
    <!-- Generator: Sketch 53.1 (72631) - https://sketchapp.com -->
    <title>其它</title>
    <desc>Created with Sketch.</desc>
    <g id="Page-1" stroke="none" stroke-width="1" fill="none" fill-rule="evenodd">
        <g id="其它" fill="#4897FD" fill-rule="nonzero">
            <g transform="translate(0.000000, -0.000000)">
                <path d="M6.94874233,1.73049145 C7.0988622,1.86895819 7.23253059,2.02798929 7.36345705,2.18427848 C7.44845644,2.28641483 7.53139938,2.38992214 7.61297137,2.49548589 C7.56841524,2.43722019 7.52317364,2.37963996 7.47861751,2.32137425 C8.22030566,3.28241565 8.83038187,4.34490793 9.36436993,5.43276292 C9.58440865,5.8817516 9.7907378,6.33759506 9.9854138,6.79892235 L9.89904346,6.59327868 C10.157469,7.20609681 10.6139979,8.45503934 10.6139979,8.45503934 C10.6139979,8.45503934 11.0431077,8.60653018 10.3343226,8.35495942 C8.64735901,7.75585088 6.90212976,7.31851535 5.13702163,7.02170299 C3.7256206,6.78452729 2.30050999,6.62892358 0.87060103,6.56654501 C0.42092688,6.54666612 -0.009553862,6.9757759 0.0110105046,7.42613553 C0.032945829,7.90871267 0.388709372,8.26447621 0.87060103,8.28572606 C1.86934377,8.32891123 2.86603007,8.417338 3.85723254,8.55100639 L3.62896807,8.52015984 C4.90875716,8.69358599 6.17894954,8.94035839 7.42994851,9.26527539 C8.34369186,9.50245108 9.24715304,9.77938455 10.1334772,10.104987 C10.465249,10.2270023 10.7942789,10.3551868 11.1198814,10.4929681 L10.9142377,10.4065977 C11.1329055,10.4991374 11.3529442,10.593048 11.5647572,10.6999827 C11.879392,10.8590138 12.2337846,10.85353 12.5196292,10.6328058 C12.7862805,10.4264766 12.9254327,10.0618019 12.8274093,9.72934459 C12.2159621,7.65577096 11.4393145,5.61098744 10.4069833,3.70878352 C9.86408404,2.70866982 9.24304016,1.73940268 8.49998105,0.8750138 C8.39373182,0.750942122 8.28474068,0.626184964 8.16478187,0.515137384 C7.83506653,0.2094138 7.27160288,0.164172194 6.94874233,0.515137384 C6.64301874,0.847594645 6.5957207,1.4042035 6.94874233,1.73049145 Z M20.8077545,1.31783316 C21.084688,1.84702286 21.3355732,2.39060762 21.5802892,2.93556334 C21.7180704,3.24265788 21.8524243,3.55112338 21.9833508,3.86095984 L21.8969804,3.65531617 C22.6523782,5.44921442 23.306325,7.29658002 23.7381767,9.1967275 C23.8677322,9.76704593 23.9753524,10.3421627 24.0541825,10.9220779 L24.0233359,10.6938134 C24.1782542,11.858442 24.1960766,13.0429495 24.2255522,14.2158039 C24.2570842,15.4668029 24.2680519,16.7184873 24.2701083,17.9701718 C24.2721648,19.1807275 24.263939,20.3905977 24.2502295,21.6011535 C24.2392618,22.5292919 24.2248667,23.4581158 24.2063588,24.3862542 C24.1981331,24.8085092 24.1789396,25.2314496 24.1782542,25.6537046 C24.1782542,25.6598739 24.1782542,25.6653578 24.1775687,25.6715271 C24.1659156,26.1212012 24.5813158,26.551682 25.0371592,26.5311176 C25.5128816,26.5098678 25.8844111,26.1534187 25.8967497,25.6715271 C25.920056,24.7838319 25.9365075,23.8961368 25.9502171,23.0077561 C25.9810636,21.0692218 25.9968297,19.1300021 25.987233,17.1914678 C25.9817491,16.1515963 25.9694105,15.1117248 25.9419913,14.0725388 C25.9166286,13.1162958 25.8994917,12.1531979 25.8035246,11.2010678 C25.5663489,8.85467353 24.8815555,6.57408527 24.0343036,4.38192379 C23.5256783,3.0664898 22.967013,1.761338 22.3219773,0.50554068 C22.3123806,0.48703275 22.3034694,0.46852482 22.2938727,0.450702369 C22.0848016,0.051753656 21.4952898,-0.101108136 21.1175909,0.142236869 C20.709731,0.403404325 20.5842884,0.891465294 20.8077545,1.31783316 L20.8077545,1.31783316 Z M1.1084622,17.0269528 C2.12434192,17.0269528 3.14364902,17.0845331 4.15541586,17.1715889 C4.64621874,17.2140886 5.13702163,17.266185 5.6250826,17.3313055 L5.39681813,17.3004589 C6.49701174,17.4492078 7.62668095,17.6418274 8.65558476,18.0750501 L8.44994109,17.9886797 C9.19162925,18.3046855 9.89698702,18.726255 10.5358533,19.2163724 C10.4775876,19.1718163 10.4200074,19.1265747 10.3617417,19.0820185 C10.9094393,19.50633 11.4091535,19.9902781 11.8341504,20.5386612 C11.7895942,20.4803955 11.7443526,20.4228152 11.6997965,20.3645495 C12.0199151,20.7806352 12.2961631,21.2303094 12.5004358,21.7142575 L12.4140655,21.5086138 C12.6937409,22.1796976 12.8164416,22.9104181 12.9130941,23.627429 L12.8822476,23.3991646 C12.9638196,24.0099263 13.0234562,24.6261718 13.0481335,25.2417318 C13.0570447,25.4679399 13.1379312,25.6872931 13.2997042,25.8497516 C13.4491386,25.999186 13.6931691,26.1109191 13.907724,26.1013223 C14.3580836,26.0814435 14.7865079,25.722938 14.7673145,25.2417318 C14.752234,24.8654039 14.7213874,24.489076 14.6843716,24.1141191 C14.6075979,23.3333586 14.508889,22.5436869 14.312842,21.7828054 C13.955022,20.3905977 13.0858348,19.1677034 12.0151168,18.2265409 C10.7853677,17.1455407 9.3198138,16.3606674 7.72676087,15.9802266 C6.35374665,15.6525677 4.9334344,15.5010768 3.52683172,15.4030533 C2.73578908,15.348215 1.93857714,15.3036589 1.14547806,15.3077718 L1.10777673,15.3077718 C0.658102575,15.3077718 0.227621833,15.7032931 0.2481862,16.1673623 C0.270121524,16.6328025 0.626570546,17.0269528 1.1084622,17.0269528 L1.1084622,17.0269528 Z M18.3194661,13.4885108 C18.4613602,14.5496321 18.5251098,15.6237775 18.4449088,16.6924391 C18.4291427,16.9021957 18.5518435,17.1558229 18.6964795,17.3004589 C18.8459139,17.4498933 19.0899444,17.5616264 19.3044993,17.5520297 C19.5265944,17.5417475 19.7576008,17.4690867 19.9125191,17.3004589 C20.0736066,17.1256618 20.1462674,16.9303003 20.1640898,16.6924391 C20.2442908,15.6237775 20.1805413,14.5496321 20.0386472,13.4885108 C20.0071151,13.2506496 19.96393,13.0573446 19.7870764,12.880491 C19.637642,12.7310566 19.3936115,12.6193236 19.1790566,12.6289203 C18.9569615,12.6392025 18.7259551,12.7118632 18.5710369,12.880491 C18.4291427,13.0354093 18.2899905,13.2691576 18.3194661,13.4885108 Z M16.9066941,7.96012358 C17.2597158,8.98217261 17.575036,10.0179312 17.835518,11.0680849 C17.9438237,11.5047349 18.4593038,11.8090875 18.8932119,11.6685644 C19.345628,11.5218719 19.6095374,11.0790525 19.4936915,10.6108704 C19.2332095,9.56071679 18.9178892,8.52495819 18.5648676,7.50290917 C18.4915213,7.28972523 18.3688206,7.10533141 18.1700317,6.98948548 C17.9856379,6.88186529 17.7141883,6.83593821 17.5078591,6.90311514 C17.0869751,7.03883996 16.7497195,7.50565108 16.9066941,7.96012358 L16.9066941,7.96012358 Z M14.5507032,2.41665582 C15.0524737,3.36741504 15.4904947,4.35450463 15.9079514,5.34433615 L15.8215811,5.13869248 C15.8695646,5.25316746 15.9175481,5.36832791 15.9655316,5.48348836 C16.0546439,5.69941421 16.1506109,5.87421133 16.3603675,5.99691205 C16.5447613,6.10453223 16.8162109,6.15045932 17.0225401,6.08328239 C17.2302402,6.01610546 17.4310855,5.88723543 17.5359637,5.68844655 C17.6360437,5.4985689 17.7087044,5.23465953 17.6223341,5.02627394 C17.1630632,3.91442719 16.6763732,2.81149166 16.132103,1.73803172 C16.0998855,1.67496766 16.067668,1.61121813 16.034765,1.54883955 C15.824323,1.15057631 15.2368676,0.996343563 14.8584832,1.24037405 C14.4540507,1.5015415 14.3258661,1.99028795 14.5507032,2.41665582 L14.5507032,2.41665582 Z M9.09771864,13.9128222 C9.42263563,14.0293537 9.74481071,14.1541108 10.0628729,14.2877792 L9.85722925,14.2014089 C10.9443988,14.6606797 11.9856412,15.2241434 12.948739,15.9068803 C13.1214797,16.0295811 13.4148647,16.0474035 13.6109116,15.9932507 C13.810386,15.9384124 14.0263118,15.7841796 14.1243353,15.5984148 C14.2298991,15.3989405 14.2826809,15.1569664 14.2107057,14.9362422 C14.1380449,14.7127761 14.0071184,14.5585434 13.8158698,14.4228185 C12.5100325,13.4967366 11.0588737,12.7954917 9.55424758,12.2553343 C9.35340227,12.183359 9.07029949,12.2375118 8.89207497,12.3417046 C8.71385046,12.4458974 8.5438517,12.6508556 8.49723913,12.8551283 C8.38756251,13.3377055 8.64393162,13.7496783 9.09771864,13.9128222 L9.09771864,13.9128222 Z M2.01603625,12.6803312 C2.61377384,12.6631942 3.21699526,12.7050084 3.81130546,12.7571048 C4.15610134,12.7879514 4.50089722,12.8263382 4.84432214,12.8722653 L4.61605767,12.8414187 C5.25286756,12.9271036 5.88625005,13.0381512 6.51414871,13.175247 C6.73967127,13.2246014 6.97341957,13.2074645 7.17632132,13.0888766 C7.35454583,12.9846838 7.52454459,12.7797256 7.57115716,12.5754529 C7.66986612,12.1415448 7.44091617,11.6205808 6.97067765,11.517759 C5.44411617,11.1853018 3.86888568,10.9748597 2.30462286,10.9604647 C2.20865582,10.9597792 2.1120033,10.9590937 2.01603625,10.9618356 C1.56704758,10.9748597 1.13519588,11.3477602 1.15644573,11.8214262 C1.17701009,12.2752132 1.53483007,12.6947263 2.01603625,12.6803312 L2.01603625,12.6803312 Z" id="形状"></path>
                <path d="M15.449366,18.351298 C16.3761941,19.0187098 17.0745051,19.8940876 17.9123692,20.8129925 C18.0350699,20.9473464 18.1570852,21.0817003 18.2797859,21.2160541 C18.5999045,21.5670193 19.1695375,21.5224632 19.4958254,21.2160541 C19.850218,20.8829114 20.2046106,20.5504541 20.5590032,20.2173114 L22.2555634,18.623573 C22.3864899,18.5008723 22.5174164,18.3774861 22.6483428,18.2547853 C22.9766872,17.9463198 22.9828565,17.3465258 22.6483428,17.0387458 C22.2960067,16.7158852 21.7832685,16.7097159 21.4323033,17.0387458 C21.0779107,17.3718885 20.7235181,17.7043458 20.3691255,18.0374885 C19.8913468,18.4864772 19.4128825,18.9354659 18.9351037,19.3844545 C18.9357892,19.4132447 18.82954,19.2686086 18.4963972,18.9032484 L16.9019733,17.1545917 C16.7792726,17.0202379 16.6572574,16.885884 16.5345566,16.7515301 C16.2308895,16.4183874 15.6228697,16.4204438 15.3185171,16.7515301 C14.9915437,17.1086646 14.9949711,17.6124916 15.3185171,17.9682552 L15.449366,18.351298 Z" id="路径"></path>
            </g>
            <path d="M29.536,2.096 L30.856,2.096 L30.856,1.424 L31.632,1.424 L31.632,2.096 L34.368,2.096 L34.368,1.424 L35.144,1.424 L35.144,2.096 L36.464,2.096 L36.464,2.808 L35.144,2.808 L35.144,6.28 L36.616,6.28 L36.616,6.984 L29.392,6.984 L29.392,6.28 L30.856,6.28 L30.856,2.808 L29.536,2.808 L29.536,2.096 Z M31.632,6.28 L34.368,6.28 L34.368,5.528 L31.632,5.528 L31.632,6.28 Z M31.632,4.88 L34.368,4.88 L34.368,4.168 L31.632,4.168 L31.632,4.88 Z M31.632,3.52 L34.368,3.52 L34.368,2.808 L31.632,2.808 L31.632,3.52 Z M31.816,7.072 L32.352,7.552 C31.712,8.032 30.928,8.448 29.984,8.808 L29.504,8.192 C30.416,7.872 31.192,7.496 31.816,7.072 Z M34.088,7.104 C34.968,7.392 35.776,7.744 36.496,8.152 L36.08,8.808 C35.304,8.328 34.512,7.952 33.704,7.68 L34.088,7.104 Z M36.44,13.24 L36.44,14.872 L35.664,14.872 L35.664,13.976 L30.336,13.976 L30.336,14.872 L29.56,14.872 L29.56,13.24 L32.672,13.24 C32.576,12.976 32.464,12.736 32.344,12.512 L33.176,12.384 C33.28,12.64 33.376,12.92 33.472,13.24 L36.44,13.24 Z M35.096,15.36 L35.616,15.968 C34.528,16.464 33.2,16.88 31.648,17.216 L31.648,18.456 C31.648,18.728 31.768,18.864 32.016,18.864 L34.744,18.864 C34.992,18.864 35.176,18.808 35.288,18.696 C35.432,18.568 35.528,18.184 35.576,17.56 L36.304,17.792 C36.208,18.664 36.056,19.184 35.832,19.36 C35.624,19.52 35.312,19.6 34.88,19.6 L31.776,19.6 C31.168,19.6 30.872,19.272 30.872,18.624 L30.872,14.616 L31.648,14.616 L31.648,16.464 C33.024,16.16 34.168,15.792 35.096,15.36 Z"></path>
        </g>
    </g>
</svg>