<?xml version="1.0" encoding="UTF-8"?>
<svg width="72px" height="44px" viewBox="0 0 72 44" version="1.1" xmlns="http://www.w3.org/2000/svg" xmlns:xlink="http://www.w3.org/1999/xlink">
    <!-- Generator: Sketch 53.1 (72631) - https://sketchapp.com -->
    <title>高速公路</title>
    <desc>Created with Sketch.</desc>
    <g id="Page-1" stroke="none" stroke-width="1" fill="none" fill-rule="evenodd">
        <g id="高速公路">
            <g transform="translate(25.000000, 21.000000)" fill="#FCAB60" fill-rule="nonzero" id="形状" stroke="#FCAA5E">
                <path d="M4.96284199,0.518349415 L5.5225,0.586097475 L5.5225,0.0210789375 L5.0225,0.0210789375 L4.94790565,0.515483309 C4.95288726,0.51623492 4.95786763,0.517192106 4.96284199,0.518349415 Z M11.6174815,1.48528947 C11.6385155,1.48313691 11.6605646,1.48192106 11.6835526,1.48192106 L12.1835526,1.48192106 L12.1835526,0.980236844 L11.6835526,0.980236844 L11.3581576,1.35986571 L11.5044858,1.48528947 L11.6174815,1.48528947 Z M11.6080998,8.9421316 C11.4396298,8.96151886 11.3465,9.04364137 11.3465,9.09981578 L11.3465,14.4067632 C11.3465,14.4696788 11.4705361,14.5695 11.6835526,14.5695 C11.8958719,14.5695 12.0197632,14.469568 12.0197632,14.4067632 L12.0198505,9.09552424 C12.020918,9.03840987 11.9021244,8.94213158 11.6894474,8.94213159 L11.6080998,8.9421316 Z M11.6156042,17.3623421 C11.6370722,17.3601545 11.6597328,17.3589737 11.6835526,17.3589737 L12.1835526,17.3589737 L12.1835526,16.8572895 L11.6835526,16.8572895 L11.3581576,17.2369183 L11.5044858,17.3623421 L11.6156042,17.3623421 Z M22.7081219,21.5537333 L22.3779373,21.7848637 L22.3838321,21.7932847 L22.7288444,21.551775 L23.2875526,21.4989737 L23.2875526,21.4981316 L22.7875526,21.4981316 L22.7688058,21.5112544 L22.387256,21.5840571 L22.7081219,21.5537333 Z"></path>
            </g>
            <g id="分组-6">
                <rect id="矩形" stroke="#A19F9D" fill="#FFFFFF" x="0.5" y="0.5" width="71" height="16" rx="2"></rect>
                <g id="分组-3" transform="translate(5.000000, 4.000000)" fill="#000000" fill-rule="nonzero">
                    <path d="M2.944,2.288 L3.8,2.288 L3.8,6.032 L4.648,6.032 L4.648,6.776 L3.8,6.776 L3.8,8 L2.912,8 L2.912,6.776 L0.152,6.776 L0.152,5.888 L2.944,2.288 Z M2.888,3.472 L0.912,6.032 L2.912,6.032 L2.912,3.472 L2.888,3.472 Z M7.01600001,2.288 L7.72000001,2.288 L7.72000001,8 L6.78400001,8 L6.78400001,3.416 C6.44000001,3.728 6.00800001,3.96 5.48000001,4.112 L5.48000001,3.184 C5.73600001,3.12 6.00800001,3.008 6.29600001,2.848 C6.58400001,2.672 6.82400001,2.488 7.01600001,2.288 Z M11.2,2.176 C11.864,2.176 12.384,2.448 12.76,3.008 C13.112,3.536 13.288,4.248 13.288,5.144 C13.288,6.04 13.112,6.752 12.76,7.28 C12.384,7.832 11.864,8.112 11.2,8.112 C10.528,8.112 10.008,7.832 9.64000003,7.28 C9.28800003,6.752 9.11200003,6.04 9.11200003,5.144 C9.11200003,4.248 9.28800003,3.536 9.64000003,3.008 C10.008,2.448 10.528,2.176 11.2,2.176 Z M11.2,2.968 C10.744,2.968 10.424,3.216 10.24,3.728 C10.112,4.072 10.048,4.544 10.048,5.144 C10.048,5.736 10.112,6.208 10.24,6.56 C10.424,7.064 10.744,7.32 11.2,7.32 C11.648,7.32 11.968,7.064 12.16,6.56 C12.288,6.208 12.352,5.736 12.352,5.144 C12.352,4.544 12.288,4.072 12.16,3.728 C11.968,3.216 11.648,2.968 11.2,2.968 Z M16.36,2.176 C17.024,2.176 17.544,2.448 17.92,3.008 C18.272,3.536 18.448,4.248 18.448,5.144 C18.448,6.04 18.272,6.752 17.92,7.28 C17.544,7.832 17.024,8.112 16.36,8.112 C15.688,8.112 15.168,7.832 14.8,7.28 C14.448,6.752 14.272,6.04 14.272,5.144 C14.272,4.248 14.448,3.536 14.8,3.008 C15.168,2.448 15.688,2.176 16.36,2.176 Z M16.36,2.968 C15.904,2.968 15.584,3.216 15.4,3.728 C15.272,4.072 15.208,4.544 15.208,5.144 C15.208,5.736 15.272,6.208 15.4,6.56 C15.584,7.064 15.904,7.32 16.36,7.32 C16.808,7.32 17.128,7.064 17.32,6.56 C17.448,6.208 17.512,5.736 17.512,5.144 C17.512,4.544 17.448,4.072 17.32,3.728 C17.128,3.216 16.808,2.968 16.36,2.968 Z M21.5200001,2.176 C22.1840001,2.176 22.7040001,2.448 23.0800001,3.008 C23.4320001,3.536 23.6080001,4.248 23.6080001,5.144 C23.6080001,6.04 23.4320001,6.752 23.0800001,7.28 C22.7040001,7.832 22.1840001,8.112 21.5200001,8.112 C20.8480001,8.112 20.3280001,7.832 19.9600001,7.28 C19.6080001,6.752 19.4320001,6.04 19.4320001,5.144 C19.4320001,4.248 19.6080001,3.536 19.9600001,3.008 C20.3280001,2.448 20.8480001,2.176 21.5200001,2.176 Z M21.5200001,2.968 C21.0640001,2.968 20.7440001,3.216 20.5600001,3.728 C20.4320001,4.072 20.3680001,4.544 20.3680001,5.144 C20.3680001,5.736 20.4320001,6.208 20.5600001,6.56 C20.7440001,7.064 21.0640001,7.32 21.5200001,7.32 C21.9680001,7.32 22.2880001,7.064 22.4800001,6.56 C22.6080001,6.208 22.6720001,5.736 22.6720001,5.144 C22.6720001,4.544 22.6080001,4.072 22.4800001,3.728 C22.2880001,3.216 21.9680001,2.968 21.5200001,2.968 Z M26.2800001,2.992 C26.4560001,2.992 26.6000001,3.048 26.7280001,3.176 C26.8480001,3.296 26.9120001,3.448 26.9120001,3.624 C26.9120001,3.8 26.8480001,3.944 26.7280001,4.064 C26.6000001,4.184 26.4560001,4.248 26.2800001,4.248 C26.1040001,4.248 25.9520001,4.184 25.8320001,4.064 C25.7120001,3.944 25.6560001,3.8 25.6560001,3.624 C25.6560001,3.448 25.7120001,3.296 25.8320001,3.176 C25.9520001,3.048 26.1040001,2.992 26.2800001,2.992 Z M26.2800001,5.92 C26.4560001,5.92 26.6000001,5.976 26.7280001,6.104 C26.8480001,6.224 26.9120001,6.376 26.9120001,6.552 C26.9120001,6.728 26.8480001,6.872 26.7280001,6.992 C26.6000001,7.112 26.4560001,7.176 26.2800001,7.176 C26.1040001,7.176 25.9520001,7.112 25.8320001,6.992 C25.7120001,6.872 25.6560001,6.728 25.6560001,6.552 C25.6560001,6.376 25.7120001,6.224 25.8320001,6.104 C25.9520001,5.976 26.1040001,5.92 26.2800001,5.92 Z" id="41000："></path>
                    <path d="M34.104,0.416 C34.192,0.632 34.28,0.872 34.36,1.136 L37.528,1.136 L37.528,1.664 L30.464,1.664 L30.464,1.136 L33.744,1.136 C33.664,0.912 33.568,0.712 33.472,0.528 L34.104,0.416 Z M36.248,7.776 L35.576,7.776 L35.44,7.256 L36.08,7.28 C36.408,7.28 36.576,7.152 36.576,6.896 L36.576,4.72 L31.424,4.72 L31.424,7.8 L30.872,7.8 L30.872,4.216 L37.128,4.216 L37.128,7.016 C37.128,7.52 36.832,7.776 36.248,7.776 Z M31.768,2.184 L36.24,2.184 L36.24,3.736 L31.768,3.736 L31.768,2.184 Z M35.68,3.288 L35.68,2.632 L32.328,2.632 L32.328,3.288 L35.68,3.288 Z M32.432,5.232 L35.576,5.232 L35.576,6.832 L32.432,6.832 L32.432,5.232 Z M35.064,6.4 L35.064,5.664 L32.952,5.664 L32.952,6.4 L35.064,6.4 Z M40.792,1.12 L42.832,1.12 L42.832,0.472 L43.368,0.472 L43.368,1.12 L45.376,1.12 L45.376,1.648 L43.368,1.648 L43.368,2.328 L45.112,2.328 L45.112,4.368 L43.368,4.368 L43.368,6.816 L42.832,6.816 L42.832,4.6 C42.424,5.312 41.792,5.92 40.936,6.424 L40.576,5.968 C41.456,5.52 42.08,4.984 42.456,4.368 L41.088,4.368 L41.088,2.328 L42.832,2.328 L42.832,1.648 L40.792,1.648 L40.792,1.12 Z M44.584,3.856 L44.584,2.832 L43.368,2.832 L43.368,3.856 L44.584,3.856 Z M42.832,3.856 L42.832,2.832 L41.624,2.832 L41.624,3.856 L42.832,3.856 Z M44,4.608 C44.568,5.064 45.048,5.52 45.44,5.984 L45.056,6.368 C44.704,5.92 44.232,5.456 43.624,4.96 L44,4.608 Z M38.968,0.592 C39.52,1.008 39.984,1.424 40.36,1.84 L39.952,2.24 C39.616,1.84 39.16,1.416 38.576,0.968 L38.968,0.592 Z M43.632,7.656 C43.192,7.656 42.712,7.648 42.2,7.64 C41.688,7.632 41.264,7.584 40.944,7.496 C40.624,7.4 40.344,7.2 40.096,6.912 C39.984,6.776 39.88,6.712 39.784,6.712 C39.592,6.712 39.28,7.08 38.848,7.816 L38.416,7.424 C38.832,6.752 39.208,6.344 39.528,6.2 L39.528,3.768 L38.392,3.768 L38.392,3.24 L40.064,3.24 L40.064,6.232 C40.128,6.28 40.192,6.336 40.264,6.416 C40.456,6.648 40.664,6.816 40.888,6.92 C41.136,7.032 41.496,7.096 41.976,7.112 C42.4,7.12 42.928,7.128 43.552,7.128 C43.936,7.128 44.32,7.12 44.712,7.112 C45.104,7.104 45.408,7.096 45.616,7.08 L45.472,7.656 L43.632,7.656 Z M48.552,0.544 L49.08,0.752 C48.488,2.432 47.712,3.712 46.736,4.592 L46.288,4.2 C47.288,3.288 48.04,2.072 48.552,0.544 Z M51.28,4.784 C51.904,5.648 52.432,6.576 52.88,7.56 L52.344,7.8 C52.224,7.528 52.104,7.272 51.984,7.032 C50.576,7.256 49,7.416 47.256,7.528 L47.152,6.968 C47.792,6.632 48.592,5.368 49.56,3.176 L50.12,3.368 C49.432,4.888 48.744,6.08 48.056,6.944 C49.36,6.864 50.584,6.728 51.728,6.544 C51.416,5.968 51.096,5.44 50.76,4.96 L51.28,4.784 Z M51.16,0.488 C51.624,1.976 52.424,3.192 53.568,4.136 L53.16,4.608 C51.968,3.616 51.136,2.328 50.672,0.76 L51.16,0.488 Z M54.608,0.784 L57.072,0.784 L57.072,3.296 L56.272,3.296 L56.272,4.584 L57.104,4.584 L57.104,5.128 L56.272,5.128 L56.272,6.616 C56.624,6.504 56.968,6.392 57.288,6.272 L57.288,6.848 C56.456,7.16 55.48,7.448 54.368,7.712 L54.208,7.152 L54.632,7.056 L54.632,4.152 L55.144,4.152 L55.144,6.928 C55.344,6.88 55.544,6.824 55.736,6.776 L55.736,3.296 L54.608,3.296 L54.608,0.784 Z M56.52,2.768 L56.52,1.312 L55.168,1.312 L55.168,2.768 L56.52,2.768 Z M60.888,4.808 L60.888,7.776 L60.336,7.776 L60.336,7.424 L58.32,7.424 L58.32,7.776 L57.768,7.776 L57.768,4.808 L60.888,4.808 Z M58.32,6.896 L60.336,6.896 L60.336,5.328 L58.32,5.328 L58.32,6.896 Z M58.584,0.448 L59.136,0.552 C59.072,0.752 59,0.944 58.92,1.136 L60.904,1.136 L60.904,1.552 C60.632,2.224 60.232,2.816 59.712,3.328 C60.24,3.76 60.88,4.096 61.624,4.328 L61.296,4.8 C60.504,4.544 59.84,4.176 59.304,3.696 C58.76,4.136 58.12,4.512 57.368,4.832 L57.024,4.368 C57.76,4.072 58.384,3.72 58.912,3.304 C58.624,2.992 58.384,2.656 58.184,2.288 C57.976,2.528 57.744,2.744 57.488,2.952 L57.144,2.496 C57.848,1.944 58.328,1.264 58.584,0.448 Z M58.512,1.848 C58.728,2.264 58.992,2.64 59.312,2.96 C59.72,2.56 60.048,2.128 60.296,1.648 L58.648,1.648 C58.6,1.712 58.56,1.784 58.512,1.848 Z" id="高速公路"></path>
                </g>
            </g>
        </g>
    </g>
</svg>