<?xml version="1.0" encoding="UTF-8"?>
<svg width="57px" height="56px" viewBox="0 0 57 56" version="1.1" xmlns="http://www.w3.org/2000/svg" xmlns:xlink="http://www.w3.org/1999/xlink">
    <!-- Generator: Sketch 53.1 (72631) - https://sketchapp.com -->
    <title>国道</title>
    <desc>Created with Sketch.</desc>
    <g id="Page-1" stroke="none" stroke-width="1" fill="none" fill-rule="evenodd">
        <g id="国道">
            <g transform="translate(11.000000, 20.000000)">
                <rect id="矩形" stroke="#EFC174" fill="#FBCF64" x="0.5" y="21.5" width="33" height="14"></rect>
                <path d="M27.628125,28.3 C27.628125,28.925 27.115625,29.440625 26.4875,29.440625 L24.38125,29.440625 C23.753125,29.440625 23.240625,28.928125 23.240625,28.3 C23.240625,27.671875 23.753125,27.159375 24.38125,27.159375 L26.4875,27.159375 C27.115625,27.1625 27.628125,27.675 27.628125,28.3 Z" id="路径" fill="#FFFFFF" fill-rule="nonzero"></path>
                <path d="M19.196875,28.3 C19.196875,28.925 18.684375,29.440625 18.05625,29.440625 L15.95,29.440625 C15.321875,29.440625 14.809375,28.928125 14.809375,28.3 C14.809375,27.671875 15.321875,27.159375 15.95,27.159375 L18.05625,27.159375 C18.684375,27.1625 19.196875,27.675 19.196875,28.3 Z" id="路径" fill="#FFFFFF" fill-rule="nonzero"></path>
                <path d="M10.765625,28.3 C10.765625,28.925 10.253125,29.440625 9.625,29.440625 L7.51875,29.440625 C6.89375,29.440625 6.378125,28.928125 6.378125,28.3 C6.378125,27.671875 6.890625,27.159375 7.51875,27.159375 L9.625,27.159375 C10.253125,27.1625 10.765625,27.675 10.765625,28.3 L10.765625,28.3 Z" id="路径" fill="#FFFFFF" fill-rule="nonzero"></path>
                <path d="M18.0875,10.390625 C18.0875,10.8053965 18.4233075,11.140625 18.840625,11.140625 L20.48125,11.140625 C21.4480174,11.140625 22.23125,11.9238576 22.23125,12.890625 L22.23125,13.259375 C22.23125,13.8700097 21.9134361,14.4348788 21.3932987,14.7539542 C20.9603994,15.0203537 20.4800541,15.2555573 19.9549372,15.459033 C19.1389368,15.7800823 18.3176341,15.940625 17.49375,15.940625 C15.8225483,15.940625 14.4481599,15.3506098 13.407424,14.1789204 C12.3716979,13.0128711 11.865625,11.3052941 11.865625,9.06875 C11.865625,6.98268368 12.3695064,5.37465963 13.3965923,4.2717485 C14.4263461,3.16597267 15.8160814,2.6125 17.528125,2.6125 C18.6712741,2.6125 19.6429967,2.89650166 20.4304132,3.47205909 C20.9520944,3.85533506 21.3666814,4.33219913 21.6656972,4.89505937 C21.8191147,5.18131405 22.1443598,5.33714937 22.4636398,5.2774015 L23.6590247,5.05209617 C24.1343382,4.96414445 24.4034236,4.45071708 24.2038874,4.01248055 C23.8050947,3.13169381 23.2158971,2.40128951 22.4356596,1.81971025 C21.2811345,0.959589014 19.6499888,0.521875 17.528125,0.521875 C15.8938763,0.521875 14.5436619,0.80255413 13.4717771,1.35747599 C12.0541043,2.08395976 10.9850614,3.12160326 10.2526746,4.48091305 C9.51202802,5.85555313 9.140625,7.43030192 9.140625,9.2125 C9.140625,10.8551842 9.47465631,12.371746 10.1414468,13.761885 C10.7976776,15.1300092 11.7734736,16.1779514 13.0737666,16.911375 C14.3873571,17.6522991 15.9344733,18.025 17.721875,18.025 C19.1266388,18.025 20.5187512,17.7571998 21.9076747,17.219764 C22.0266955,17.1748005 22.1486841,17.1255892 22.3031046,17.0609487 C23.8613597,16.4058683 24.875,14.8739521 24.875,13.178125 L24.875,9.871875 C24.875,9.45739237 24.5394826,9.121875 24.125,9.121875 L18.8375,9.121875 C18.4230174,9.121875 18.0875,9.45739237 18.0875,9.871875 L18.0875,10.390625 Z" id="路径" stroke="#EFC174" fill="#FBCF64" fill-rule="nonzero"></path>
            </g>
            <g id="分组-5">
                <rect id="矩形" stroke="#A19F9D" fill="#FFFFFF" x="0.5" y="0.5" width="56" height="16" rx="2"></rect>
                <g id="分组-3" transform="translate(4.000000, 4.000000)" fill="#000000" fill-rule="nonzero">
                    <path d="M2.944,1.288 L3.8,1.288 L3.8,5.032 L4.648,5.032 L4.648,5.776 L3.8,5.776 L3.8,7 L2.912,7 L2.912,5.776 L0.152,5.776 L0.152,4.888 L2.944,1.288 Z M2.888,2.472 L0.912,5.032 L2.912,5.032 L2.912,2.472 L2.888,2.472 Z M7.64800001,1.176 C8.20000001,1.176 8.65600001,1.336 9.01600001,1.656 C9.36800001,1.976 9.54400001,2.384 9.54400001,2.896 C9.54400001,3.392 9.35200001,3.84 8.98400001,4.248 C8.76000001,4.488 8.36000001,4.792 7.80000001,5.168 C7.21600001,5.552 6.86400001,5.888 6.73600001,6.176 L9.55200001,6.176 L9.55200001,7 L5.56800001,7 C5.56800001,6.416 5.75200001,5.912 6.13600001,5.48 C6.34400001,5.24 6.78400001,4.888 7.44800001,4.432 C7.81600001,4.176 8.07200001,3.96 8.23200001,3.792 C8.48000001,3.512 8.60800001,3.208 8.60800001,2.888 C8.60800001,2.576 8.52000001,2.344 8.36000001,2.192 C8.19200001,2.04 7.94400001,1.968 7.61600001,1.968 C7.26400001,1.968 7.00000001,2.088 6.82400001,2.328 C6.64800001,2.552 6.55200001,2.896 6.53600001,3.344 L5.60000001,3.344 C5.60800001,2.704 5.79200001,2.192 6.16000001,1.8 C6.53600001,1.384 7.03200001,1.176 7.64800001,1.176 Z M12.72,1.176 C13.384,1.176 13.904,1.448 14.28,2.008 C14.632,2.536 14.808,3.248 14.808,4.144 C14.808,5.04 14.632,5.752 14.28,6.28 C13.904,6.832 13.384,7.112 12.72,7.112 C12.048,7.112 11.528,6.832 11.16,6.28 C10.808,5.752 10.632,5.04 10.632,4.144 C10.632,3.248 10.808,2.536 11.16,2.008 C11.528,1.448 12.048,1.176 12.72,1.176 Z M12.72,1.968 C12.264,1.968 11.944,2.216 11.76,2.728 C11.632,3.072 11.568,3.544 11.568,4.144 C11.568,4.736 11.632,5.208 11.76,5.56 C11.944,6.064 12.264,6.32 12.72,6.32 C13.168,6.32 13.488,6.064 13.68,5.56 C13.808,5.208 13.872,4.736 13.872,4.144 C13.872,3.544 13.808,3.072 13.68,2.728 C13.488,2.216 13.168,1.968 12.72,1.968 Z M17.88,1.176 C18.544,1.176 19.064,1.448 19.44,2.008 C19.792,2.536 19.968,3.248 19.968,4.144 C19.968,5.04 19.792,5.752 19.44,6.28 C19.064,6.832 18.544,7.112 17.88,7.112 C17.208,7.112 16.688,6.832 16.32,6.28 C15.968,5.752 15.792,5.04 15.792,4.144 C15.792,3.248 15.968,2.536 16.32,2.008 C16.688,1.448 17.208,1.176 17.88,1.176 Z M17.88,1.968 C17.424,1.968 17.104,2.216 16.92,2.728 C16.792,3.072 16.728,3.544 16.728,4.144 C16.728,4.736 16.792,5.208 16.92,5.56 C17.104,6.064 17.424,6.32 17.88,6.32 C18.328,6.32 18.648,6.064 18.84,5.56 C18.968,5.208 19.032,4.736 19.032,4.144 C19.032,3.544 18.968,3.072 18.84,2.728 C18.648,2.216 18.328,1.968 17.88,1.968 Z M23.0400001,1.176 C23.7040001,1.176 24.2240001,1.448 24.6000001,2.008 C24.9520001,2.536 25.1280001,3.248 25.1280001,4.144 C25.1280001,5.04 24.9520001,5.752 24.6000001,6.28 C24.2240001,6.832 23.7040001,7.112 23.0400001,7.112 C22.3680001,7.112 21.8480001,6.832 21.4800001,6.28 C21.1280001,5.752 20.9520001,5.04 20.9520001,4.144 C20.9520001,3.248 21.1280001,2.536 21.4800001,2.008 C21.8480001,1.448 22.3680001,1.176 23.0400001,1.176 Z M23.0400001,1.968 C22.5840001,1.968 22.2640001,2.216 22.0800001,2.728 C21.9520001,3.072 21.8880001,3.544 21.8880001,4.144 C21.8880001,4.736 21.9520001,5.208 22.0800001,5.56 C22.2640001,6.064 22.5840001,6.32 23.0400001,6.32 C23.4880001,6.32 23.8080001,6.064 24.0000001,5.56 C24.1280001,5.208 24.1920001,4.736 24.1920001,4.144 C24.1920001,3.544 24.1280001,3.072 24.0000001,2.728 C23.8080001,2.216 23.4880001,1.968 23.0400001,1.968 Z M27.8000001,1.992 C27.9760001,1.992 28.1200001,2.048 28.2480001,2.176 C28.3680001,2.296 28.4320001,2.448 28.4320001,2.624 C28.4320001,2.8 28.3680001,2.944 28.2480001,3.064 C28.1200001,3.184 27.9760001,3.248 27.8000001,3.248 C27.6240001,3.248 27.4720001,3.184 27.3520001,3.064 C27.2320001,2.944 27.1760001,2.8 27.1760001,2.624 C27.1760001,2.448 27.2320001,2.296 27.3520001,2.176 C27.4720001,2.048 27.6240001,1.992 27.8000001,1.992 Z M27.8000001,4.92 C27.9760001,4.92 28.1200001,4.976 28.2480001,5.104 C28.3680001,5.224 28.4320001,5.376 28.4320001,5.552 C28.4320001,5.728 28.3680001,5.872 28.2480001,5.992 C28.1200001,6.112 27.9760001,6.176 27.8000001,6.176 C27.6240001,6.176 27.4720001,6.112 27.3520001,5.992 C27.2320001,5.872 27.1760001,5.728 27.1760001,5.552 C27.1760001,5.376 27.2320001,5.224 27.3520001,5.104 C27.4720001,4.976 27.6240001,4.92 27.8000001,4.92 Z" id="42000："></path>
                    <path d="M34.016,2.104 L37.976,2.104 L37.976,2.624 L36.296,2.624 L36.296,3.776 L37.728,3.776 L37.728,4.288 L36.296,4.288 L36.296,5.56 L38.208,5.56 L38.208,6.088 L33.8,6.088 L33.8,5.56 L35.704,5.56 L35.704,4.288 L34.272,4.288 L34.272,3.776 L35.704,3.776 L35.704,2.624 L34.016,2.624 L34.016,2.104 Z M39.288,0.832 L39.288,7.784 L38.704,7.784 L38.704,7.44 L33.296,7.44 L33.296,7.784 L32.712,7.784 L32.712,0.832 L39.288,0.832 Z M33.296,6.896 L38.704,6.896 L38.704,1.376 L33.296,1.376 L33.296,6.896 Z M37.24,4.456 C37.44,4.728 37.616,5.024 37.76,5.336 L37.312,5.544 C37.152,5.184 36.976,4.872 36.784,4.608 L37.24,4.456 Z M42.624,1.352 L43.952,1.352 C43.824,1.104 43.68,0.872 43.52,0.656 L44.056,0.456 C44.232,0.712 44.4,1.008 44.544,1.352 L45.488,1.352 C45.68,1.064 45.856,0.76 46,0.44 L46.56,0.632 C46.424,0.904 46.28,1.144 46.12,1.352 L47.48,1.352 L47.48,1.888 L45.24,1.888 C45.184,2.112 45.112,2.328 45.032,2.536 L46.936,2.536 L46.936,6.392 L43.144,6.392 L43.144,2.536 L44.424,2.536 C44.512,2.32 44.576,2.104 44.624,1.888 L42.624,1.888 L42.624,1.352 Z M46.392,5.88 L46.392,5.216 L43.688,5.216 L43.688,5.88 L46.392,5.88 Z M43.688,4.752 L46.392,4.752 L46.392,4.144 L43.688,4.144 L43.688,4.752 Z M43.688,3.68 L46.392,3.68 L46.392,3.048 L43.688,3.048 L43.688,3.68 Z M40.968,0.592 C41.52,1.008 41.984,1.424 42.36,1.84 L41.952,2.24 C41.616,1.84 41.16,1.416 40.576,0.968 L40.968,0.592 Z M45.632,7.656 C45.2,7.656 44.728,7.648 44.216,7.64 C43.704,7.632 43.288,7.584 42.968,7.496 C42.648,7.4 42.368,7.2 42.128,6.912 C42.016,6.776 41.912,6.712 41.816,6.712 C41.624,6.712 41.304,7.072 40.848,7.808 L40.416,7.424 C40.856,6.736 41.24,6.328 41.568,6.2 L41.568,3.768 L40.392,3.768 L40.392,3.24 L42.104,3.24 L42.104,6.232 C42.168,6.28 42.232,6.344 42.296,6.416 C42.488,6.648 42.696,6.816 42.912,6.92 C43.16,7.032 43.52,7.096 43.992,7.112 C44.408,7.12 44.928,7.128 45.552,7.128 C45.928,7.128 46.312,7.12 46.704,7.112 C47.088,7.104 47.392,7.096 47.6,7.08 L47.464,7.656 L45.632,7.656 Z" id="国道"></path>
                </g>
            </g>
        </g>
    </g>
</svg>