<?xml version="1.0" encoding="UTF-8"?>
<svg width="79px" height="43px" viewBox="0 0 79 43" version="1.1" xmlns="http://www.w3.org/2000/svg" xmlns:xlink="http://www.w3.org/1999/xlink">
    <!-- Generator: Sketch 53.1 (72631) - https://sketchapp.com -->
    <title>城市快速路</title>
    <desc>Created with Sketch.</desc>
    <g id="Page-1" stroke="none" stroke-width="1" fill="none" fill-rule="evenodd">
        <g id="城市快速路">
            <g transform="translate(26.000000, 21.000000)" fill-rule="nonzero" id="路径" stroke="#C3C3C3">
                <polygon points="27.9914277 0.56412786 24.0024492 3.55300427 4.00040819 3.55300427 0 0.555555556 0 20.5575966 4.01469537 18.3402275 23.9510154 18.3345126 28 20.5547392"></polygon>
            </g>
            <g id="分组-5">
                <rect id="矩形" stroke="#A19F9D" fill="#FFFFFF" x="0.5" y="0.5" width="78" height="16" rx="2"></rect>
                <g id="分组-3" transform="translate(4.000000, 4.000000)" fill="#000000" fill-rule="nonzero">
                    <path d="M2.944,1.288 L3.8,1.288 L3.8,5.032 L4.648,5.032 L4.648,5.776 L3.8,5.776 L3.8,7 L2.912,7 L2.912,5.776 L0.152,5.776 L0.152,4.888 L2.944,1.288 Z M2.888,2.472 L0.912,5.032 L2.912,5.032 L2.912,2.472 L2.888,2.472 Z M7.61600001,1.176 C8.19200001,1.176 8.66400001,1.312 9.01600001,1.592 C9.36000001,1.872 9.53600001,2.256 9.53600001,2.752 C9.53600001,3.376 9.21600001,3.792 8.58400001,4 C8.92000001,4.104 9.18400001,4.256 9.36000001,4.464 C9.55200001,4.68 9.64800001,4.96 9.64800001,5.296 C9.64800001,5.824 9.46400001,6.256 9.09600001,6.592 C8.71200001,6.936 8.20800001,7.112 7.58400001,7.112 C6.99200001,7.112 6.51200001,6.96 6.15200001,6.656 C5.75200001,6.32 5.52800001,5.824 5.48000001,5.184 L6.43200001,5.184 C6.44800001,5.552 6.56000001,5.84 6.78400001,6.04 C6.98400001,6.224 7.24800001,6.32 7.57600001,6.32 C7.93600001,6.32 8.22400001,6.216 8.43200001,6.016 C8.61600001,5.832 8.71200001,5.608 8.71200001,5.336 C8.71200001,5.008 8.60800001,4.768 8.41600001,4.616 C8.22400001,4.456 7.94400001,4.384 7.57600001,4.384 L7.17600001,4.384 L7.17600001,3.68 L7.57600001,3.68 C7.91200001,3.68 8.16800001,3.608 8.34400001,3.464 C8.51200001,3.32 8.60000001,3.104 8.60000001,2.824 C8.60000001,2.544 8.52000001,2.336 8.36800001,2.192 C8.20000001,2.048 7.95200001,1.976 7.62400001,1.976 C7.28800001,1.976 7.03200001,2.056 6.84800001,2.224 C6.65600001,2.392 6.54400001,2.648 6.51200001,2.992 L5.59200001,2.992 C5.64000001,2.416 5.84800001,1.968 6.23200001,1.648 C6.59200001,1.328 7.05600001,1.176 7.61600001,1.176 Z M12.72,1.176 C13.384,1.176 13.904,1.448 14.28,2.008 C14.632,2.536 14.808,3.248 14.808,4.144 C14.808,5.04 14.632,5.752 14.28,6.28 C13.904,6.832 13.384,7.112 12.72,7.112 C12.048,7.112 11.528,6.832 11.16,6.28 C10.808,5.752 10.632,5.04 10.632,4.144 C10.632,3.248 10.808,2.536 11.16,2.008 C11.528,1.448 12.048,1.176 12.72,1.176 Z M12.72,1.968 C12.264,1.968 11.944,2.216 11.76,2.728 C11.632,3.072 11.568,3.544 11.568,4.144 C11.568,4.736 11.632,5.208 11.76,5.56 C11.944,6.064 12.264,6.32 12.72,6.32 C13.168,6.32 13.488,6.064 13.68,5.56 C13.808,5.208 13.872,4.736 13.872,4.144 C13.872,3.544 13.808,3.072 13.68,2.728 C13.488,2.216 13.168,1.968 12.72,1.968 Z M17.88,1.176 C18.544,1.176 19.064,1.448 19.44,2.008 C19.792,2.536 19.968,3.248 19.968,4.144 C19.968,5.04 19.792,5.752 19.44,6.28 C19.064,6.832 18.544,7.112 17.88,7.112 C17.208,7.112 16.688,6.832 16.32,6.28 C15.968,5.752 15.792,5.04 15.792,4.144 C15.792,3.248 15.968,2.536 16.32,2.008 C16.688,1.448 17.208,1.176 17.88,1.176 Z M17.88,1.968 C17.424,1.968 17.104,2.216 16.92,2.728 C16.792,3.072 16.728,3.544 16.728,4.144 C16.728,4.736 16.792,5.208 16.92,5.56 C17.104,6.064 17.424,6.32 17.88,6.32 C18.328,6.32 18.648,6.064 18.84,5.56 C18.968,5.208 19.032,4.736 19.032,4.144 C19.032,3.544 18.968,3.072 18.84,2.728 C18.648,2.216 18.328,1.968 17.88,1.968 Z M23.0400001,1.176 C23.7040001,1.176 24.2240001,1.448 24.6000001,2.008 C24.9520001,2.536 25.1280001,3.248 25.1280001,4.144 C25.1280001,5.04 24.9520001,5.752 24.6000001,6.28 C24.2240001,6.832 23.7040001,7.112 23.0400001,7.112 C22.3680001,7.112 21.8480001,6.832 21.4800001,6.28 C21.1280001,5.752 20.9520001,5.04 20.9520001,4.144 C20.9520001,3.248 21.1280001,2.536 21.4800001,2.008 C21.8480001,1.448 22.3680001,1.176 23.0400001,1.176 Z M23.0400001,1.968 C22.5840001,1.968 22.2640001,2.216 22.0800001,2.728 C21.9520001,3.072 21.8880001,3.544 21.8880001,4.144 C21.8880001,4.736 21.9520001,5.208 22.0800001,5.56 C22.2640001,6.064 22.5840001,6.32 23.0400001,6.32 C23.4880001,6.32 23.8080001,6.064 24.0000001,5.56 C24.1280001,5.208 24.1920001,4.736 24.1920001,4.144 C24.1920001,3.544 24.1280001,3.072 24.0000001,2.728 C23.8080001,2.216 23.4880001,1.968 23.0400001,1.968 Z M27.8000001,1.992 C27.9760001,1.992 28.1200001,2.048 28.2480001,2.176 C28.3680001,2.296 28.4320001,2.448 28.4320001,2.624 C28.4320001,2.8 28.3680001,2.944 28.2480001,3.064 C28.1200001,3.184 27.9760001,3.248 27.8000001,3.248 C27.6240001,3.248 27.4720001,3.184 27.3520001,3.064 C27.2320001,2.944 27.1760001,2.8 27.1760001,2.624 C27.1760001,2.448 27.2320001,2.296 27.3520001,2.176 C27.4720001,2.048 27.6240001,1.992 27.8000001,1.992 Z M27.8000001,4.92 C27.9760001,4.92 28.1200001,4.976 28.2480001,5.104 C28.3680001,5.224 28.4320001,5.376 28.4320001,5.552 C28.4320001,5.728 28.3680001,5.872 28.2480001,5.992 C28.1200001,6.112 27.9760001,6.176 27.8000001,6.176 C27.6240001,6.176 27.4720001,6.112 27.3520001,5.992 C27.2320001,5.872 27.1760001,5.728 27.1760001,5.552 C27.1760001,5.376 27.2320001,5.224 27.3520001,5.104 C27.4720001,4.976 27.6240001,4.92 27.8000001,4.92 Z" id="43000："></path>
                    <path d="M32.352,2.528 L33.072,2.528 L33.072,0.504 L33.632,0.504 L33.632,2.528 L34.344,2.528 L34.344,3.072 L33.632,3.072 L33.632,5.504 C33.856,5.392 34.072,5.272 34.288,5.144 L34.288,5.704 C33.712,6.04 33.088,6.328 32.416,6.552 L32.272,6.008 C32.544,5.936 32.816,5.848 33.072,5.752 L33.072,3.072 L32.352,3.072 L32.352,2.528 Z M35.336,3.848 L35.336,3.864 C35.304,5.464 34.936,6.752 34.232,7.712 L33.808,7.336 C34.424,6.504 34.744,5.352 34.776,3.864 L34.776,1.688 L37.096,1.688 C37.08,1.304 37.08,0.896 37.08,0.472 L37.608,0.472 C37.608,0.904 37.616,1.312 37.632,1.688 L39.432,1.688 L39.432,2.208 L37.648,2.208 C37.696,3.2 37.768,3.992 37.88,4.568 C37.904,4.728 37.936,4.872 37.968,5.016 C38.264,4.416 38.496,3.728 38.672,2.952 L39.144,3.152 C38.904,4.16 38.576,5.024 38.16,5.728 C38.24,6 38.336,6.224 38.432,6.408 C38.624,6.784 38.784,6.976 38.896,6.976 C39.008,6.968 39.104,6.576 39.192,5.808 L39.672,6.072 C39.512,7.144 39.288,7.68 39,7.68 C38.728,7.68 38.448,7.44 38.152,6.96 C38.024,6.76 37.912,6.528 37.808,6.256 C37.352,6.88 36.816,7.352 36.208,7.68 L35.864,7.24 C36.56,6.88 37.144,6.352 37.608,5.648 C37.52,5.376 37.448,5.08 37.384,4.76 C37.248,4.08 37.16,3.232 37.112,2.208 L35.336,2.208 L35.336,3.36 L36.72,3.36 C36.72,4.8 36.656,5.68 36.544,6 C36.432,6.304 36.224,6.464 35.928,6.48 L35.384,6.48 L35.24,6.008 L35.792,6.008 C35.968,5.992 36.072,5.856 36.12,5.608 C36.168,5.352 36.192,4.768 36.2,3.848 L35.336,3.848 Z M38.568,0.408 C38.784,0.72 38.968,1.048 39.128,1.4 L38.704,1.584 C38.528,1.2 38.344,0.864 38.144,0.576 L38.568,0.408 Z M40.416,1.384 L43.648,1.384 C43.52,1.048 43.376,0.752 43.232,0.48 L43.848,0.384 C43.976,0.68 44.104,1.016 44.232,1.384 L47.504,1.384 L47.504,1.936 L44.256,1.936 L44.256,2.984 L46.856,2.984 L46.856,5.888 C46.856,6.368 46.608,6.616 46.128,6.616 L45.328,6.616 L45.184,6.064 L45.944,6.096 C46.168,6.096 46.28,5.984 46.28,5.76 L46.28,3.536 L44.256,3.536 L44.256,7.784 L43.664,7.784 L43.664,3.536 L41.736,3.536 L41.736,6.672 L41.168,6.672 L41.168,2.984 L43.664,2.984 L43.664,1.936 L40.416,1.936 L40.416,1.384 Z M51.136,1.688 L52.56,1.688 L52.56,0.48 L53.12,0.48 L53.12,1.688 L54.824,1.688 L54.824,4.104 L55.448,4.104 L55.448,4.664 L53.264,4.664 C53.76,5.752 54.552,6.632 55.632,7.304 L55.24,7.752 C54.152,7.008 53.352,6.072 52.848,4.936 C52.488,6.216 51.776,7.152 50.712,7.76 L50.36,7.288 C51.384,6.744 52.056,5.872 52.36,4.664 L50.808,4.664 L50.808,4.104 L52.472,4.104 C52.528,3.736 52.56,3.336 52.56,2.92 L52.56,2.224 L51.136,2.224 L51.136,1.688 Z M53.12,2.224 L53.12,2.8 C53.12,3.264 53.088,3.696 53.024,4.104 L54.264,4.104 L54.264,2.224 L53.12,2.224 Z M48.528,2.008 L48.984,2.04 C48.96,2.84 48.864,3.608 48.696,4.328 L48.224,4.192 C48.4,3.504 48.504,2.776 48.528,2.008 Z M50.544,1.832 C50.768,2.344 50.96,2.928 51.136,3.592 L50.664,3.704 C50.52,3.104 50.336,2.528 50.112,1.968 L50.544,1.832 Z M49.384,0.488 L49.952,0.488 L49.952,7.768 L49.384,7.768 L49.384,0.488 Z M58.712,1.12 L60.752,1.12 L60.752,0.472 L61.288,0.472 L61.288,1.12 L63.296,1.12 L63.296,1.648 L61.288,1.648 L61.288,2.328 L63.032,2.328 L63.032,4.368 L61.288,4.368 L61.288,6.816 L60.752,6.816 L60.752,4.6 C60.344,5.312 59.712,5.92 58.856,6.424 L58.496,5.968 C59.376,5.52 60,4.984 60.376,4.368 L59.008,4.368 L59.008,2.328 L60.752,2.328 L60.752,1.648 L58.712,1.648 L58.712,1.12 Z M62.504,3.856 L62.504,2.832 L61.288,2.832 L61.288,3.856 L62.504,3.856 Z M60.752,3.856 L60.752,2.832 L59.544,2.832 L59.544,3.856 L60.752,3.856 Z M61.92,4.608 C62.488,5.064 62.968,5.52 63.36,5.984 L62.976,6.368 C62.624,5.92 62.152,5.456 61.544,4.96 L61.92,4.608 Z M56.888,0.592 C57.44,1.008 57.904,1.424 58.28,1.84 L57.872,2.24 C57.536,1.84 57.08,1.416 56.496,0.968 L56.888,0.592 Z M61.552,7.656 C61.112,7.656 60.632,7.648 60.12,7.64 C59.608,7.632 59.184,7.584 58.864,7.496 C58.544,7.4 58.264,7.2 58.016,6.912 C57.904,6.776 57.8,6.712 57.704,6.712 C57.512,6.712 57.2,7.08 56.768,7.816 L56.336,7.424 C56.752,6.752 57.128,6.344 57.448,6.2 L57.448,3.768 L56.312,3.768 L56.312,3.24 L57.984,3.24 L57.984,6.232 C58.048,6.28 58.112,6.336 58.184,6.416 C58.376,6.648 58.584,6.816 58.808,6.92 C59.056,7.032 59.416,7.096 59.896,7.112 C60.32,7.12 60.848,7.128 61.472,7.128 C61.856,7.128 62.24,7.12 62.632,7.112 C63.024,7.104 63.328,7.096 63.536,7.08 L63.392,7.656 L61.552,7.656 Z M64.568,0.784 L67.032,0.784 L67.032,3.296 L66.232,3.296 L66.232,4.584 L67.064,4.584 L67.064,5.128 L66.232,5.128 L66.232,6.616 C66.584,6.504 66.928,6.392 67.248,6.272 L67.248,6.848 C66.416,7.16 65.44,7.448 64.328,7.712 L64.168,7.152 L64.592,7.056 L64.592,4.152 L65.104,4.152 L65.104,6.928 C65.304,6.88 65.504,6.824 65.696,6.776 L65.696,3.296 L64.568,3.296 L64.568,0.784 Z M66.48,2.768 L66.48,1.312 L65.128,1.312 L65.128,2.768 L66.48,2.768 Z M70.848,4.808 L70.848,7.776 L70.296,7.776 L70.296,7.424 L68.28,7.424 L68.28,7.776 L67.728,7.776 L67.728,4.808 L70.848,4.808 Z M68.28,6.896 L70.296,6.896 L70.296,5.328 L68.28,5.328 L68.28,6.896 Z M68.544,0.448 L69.096,0.552 C69.032,0.752 68.96,0.944 68.88,1.136 L70.864,1.136 L70.864,1.552 C70.592,2.224 70.192,2.816 69.672,3.328 C70.2,3.76 70.84,4.096 71.584,4.328 L71.256,4.8 C70.464,4.544 69.8,4.176 69.264,3.696 C68.72,4.136 68.08,4.512 67.328,4.832 L66.984,4.368 C67.72,4.072 68.344,3.72 68.872,3.304 C68.584,2.992 68.344,2.656 68.144,2.288 C67.936,2.528 67.704,2.744 67.448,2.952 L67.104,2.496 C67.808,1.944 68.288,1.264 68.544,0.448 Z M68.472,1.848 C68.688,2.264 68.952,2.64 69.272,2.96 C69.68,2.56 70.008,2.128 70.256,1.648 L68.608,1.648 C68.56,1.712 68.52,1.784 68.472,1.848 Z" id="城市快速路"></path>
                </g>
            </g>
        </g>
    </g>
</svg>