<?xml version="1.0" encoding="UTF-8"?>
<svg width="80px" height="48px" viewBox="0 0 80 48" version="1.1" xmlns="http://www.w3.org/2000/svg" xmlns:xlink="http://www.w3.org/1999/xlink">
    <!-- Generator: Sketch 53.1 (72631) - https://sketchapp.com -->
    <title>城市主干道</title>
    <desc>Created with Sketch.</desc>
    <g id="Page-1" stroke="none" stroke-width="1" fill="none" fill-rule="evenodd">
        <g id="城市主干道">
            <g transform="translate(28.000000, 21.000000)" fill="#FBCF64" fill-rule="nonzero" id="路径" stroke="#EFC178">
                <polygon points="25 12.7427184 18.3569016 12.7427184 18.3569016 5.11159772 12.5 0 6.64441748 5.11159772 6.64441748 12.7427184 0 12.7427184 0 17.062843 6.64309835 17.062843 6.64309835 26.3494618 18.3542634 26.3494618 18.3542634 17.062843 24.9986809 17.062843"></polygon>
            </g>
            <g id="分组-5">
                <rect id="矩形" stroke="#A19F9D" fill="#FFFFFF" x="0.5" y="0.5" width="79" height="16" rx="2"></rect>
                <g id="分组-3" transform="translate(5.000000, 4.000000)" fill="#000000" fill-rule="nonzero">
                    <path d="M2.944,1.288 L3.8,1.288 L3.8,5.032 L4.648,5.032 L4.648,5.776 L3.8,5.776 L3.8,7 L2.912,7 L2.912,5.776 L0.152,5.776 L0.152,4.888 L2.944,1.288 Z M2.888,2.472 L0.912,5.032 L2.912,5.032 L2.912,2.472 L2.888,2.472 Z M8.10400001,1.288 L8.96000001,1.288 L8.96000001,5.032 L9.80800001,5.032 L9.80800001,5.776 L8.96000001,5.776 L8.96000001,7 L8.07200001,7 L8.07200001,5.776 L5.31200001,5.776 L5.31200001,4.888 L8.10400001,1.288 Z M8.04800001,2.472 L6.07200001,5.032 L8.07200001,5.032 L8.07200001,2.472 L8.04800001,2.472 Z M12.72,1.176 C13.384,1.176 13.904,1.448 14.28,2.008 C14.632,2.536 14.808,3.248 14.808,4.144 C14.808,5.04 14.632,5.752 14.28,6.28 C13.904,6.832 13.384,7.112 12.72,7.112 C12.048,7.112 11.528,6.832 11.16,6.28 C10.808,5.752 10.632,5.04 10.632,4.144 C10.632,3.248 10.808,2.536 11.16,2.008 C11.528,1.448 12.048,1.176 12.72,1.176 Z M12.72,1.968 C12.264,1.968 11.944,2.216 11.76,2.728 C11.632,3.072 11.568,3.544 11.568,4.144 C11.568,4.736 11.632,5.208 11.76,5.56 C11.944,6.064 12.264,6.32 12.72,6.32 C13.168,6.32 13.488,6.064 13.68,5.56 C13.808,5.208 13.872,4.736 13.872,4.144 C13.872,3.544 13.808,3.072 13.68,2.728 C13.488,2.216 13.168,1.968 12.72,1.968 Z M17.88,1.176 C18.544,1.176 19.064,1.448 19.44,2.008 C19.792,2.536 19.968,3.248 19.968,4.144 C19.968,5.04 19.792,5.752 19.44,6.28 C19.064,6.832 18.544,7.112 17.88,7.112 C17.208,7.112 16.688,6.832 16.32,6.28 C15.968,5.752 15.792,5.04 15.792,4.144 C15.792,3.248 15.968,2.536 16.32,2.008 C16.688,1.448 17.208,1.176 17.88,1.176 Z M17.88,1.968 C17.424,1.968 17.104,2.216 16.92,2.728 C16.792,3.072 16.728,3.544 16.728,4.144 C16.728,4.736 16.792,5.208 16.92,5.56 C17.104,6.064 17.424,6.32 17.88,6.32 C18.328,6.32 18.648,6.064 18.84,5.56 C18.968,5.208 19.032,4.736 19.032,4.144 C19.032,3.544 18.968,3.072 18.84,2.728 C18.648,2.216 18.328,1.968 17.88,1.968 Z M23.0400001,1.176 C23.7040001,1.176 24.2240001,1.448 24.6000001,2.008 C24.9520001,2.536 25.1280001,3.248 25.1280001,4.144 C25.1280001,5.04 24.9520001,5.752 24.6000001,6.28 C24.2240001,6.832 23.7040001,7.112 23.0400001,7.112 C22.3680001,7.112 21.8480001,6.832 21.4800001,6.28 C21.1280001,5.752 20.9520001,5.04 20.9520001,4.144 C20.9520001,3.248 21.1280001,2.536 21.4800001,2.008 C21.8480001,1.448 22.3680001,1.176 23.0400001,1.176 Z M23.0400001,1.968 C22.5840001,1.968 22.2640001,2.216 22.0800001,2.728 C21.9520001,3.072 21.8880001,3.544 21.8880001,4.144 C21.8880001,4.736 21.9520001,5.208 22.0800001,5.56 C22.2640001,6.064 22.5840001,6.32 23.0400001,6.32 C23.4880001,6.32 23.8080001,6.064 24.0000001,5.56 C24.1280001,5.208 24.1920001,4.736 24.1920001,4.144 C24.1920001,3.544 24.1280001,3.072 24.0000001,2.728 C23.8080001,2.216 23.4880001,1.968 23.0400001,1.968 Z M27.8000001,1.992 C27.9760001,1.992 28.1200001,2.048 28.2480001,2.176 C28.3680001,2.296 28.4320001,2.448 28.4320001,2.624 C28.4320001,2.8 28.3680001,2.944 28.2480001,3.064 C28.1200001,3.184 27.9760001,3.248 27.8000001,3.248 C27.6240001,3.248 27.4720001,3.184 27.3520001,3.064 C27.2320001,2.944 27.1760001,2.8 27.1760001,2.624 C27.1760001,2.448 27.2320001,2.296 27.3520001,2.176 C27.4720001,2.048 27.6240001,1.992 27.8000001,1.992 Z M27.8000001,4.92 C27.9760001,4.92 28.1200001,4.976 28.2480001,5.104 C28.3680001,5.224 28.4320001,5.376 28.4320001,5.552 C28.4320001,5.728 28.3680001,5.872 28.2480001,5.992 C28.1200001,6.112 27.9760001,6.176 27.8000001,6.176 C27.6240001,6.176 27.4720001,6.112 27.3520001,5.992 C27.2320001,5.872 27.1760001,5.728 27.1760001,5.552 C27.1760001,5.376 27.2320001,5.224 27.3520001,5.104 C27.4720001,4.976 27.6240001,4.92 27.8000001,4.92 Z" id="44000："></path>
                    <path d="M32.352,2.528 L33.072,2.528 L33.072,0.504 L33.632,0.504 L33.632,2.528 L34.344,2.528 L34.344,3.072 L33.632,3.072 L33.632,5.504 C33.856,5.392 34.072,5.272 34.288,5.144 L34.288,5.704 C33.712,6.04 33.088,6.328 32.416,6.552 L32.272,6.008 C32.544,5.936 32.816,5.848 33.072,5.752 L33.072,3.072 L32.352,3.072 L32.352,2.528 Z M35.336,3.848 L35.336,3.864 C35.304,5.464 34.936,6.752 34.232,7.712 L33.808,7.336 C34.424,6.504 34.744,5.352 34.776,3.864 L34.776,1.688 L37.096,1.688 C37.08,1.304 37.08,0.896 37.08,0.472 L37.608,0.472 C37.608,0.904 37.616,1.312 37.632,1.688 L39.432,1.688 L39.432,2.208 L37.648,2.208 C37.696,3.2 37.768,3.992 37.88,4.568 C37.904,4.728 37.936,4.872 37.968,5.016 C38.264,4.416 38.496,3.728 38.672,2.952 L39.144,3.152 C38.904,4.16 38.576,5.024 38.16,5.728 C38.24,6 38.336,6.224 38.432,6.408 C38.624,6.784 38.784,6.976 38.896,6.976 C39.008,6.968 39.104,6.576 39.192,5.808 L39.672,6.072 C39.512,7.144 39.288,7.68 39,7.68 C38.728,7.68 38.448,7.44 38.152,6.96 C38.024,6.76 37.912,6.528 37.808,6.256 C37.352,6.88 36.816,7.352 36.208,7.68 L35.864,7.24 C36.56,6.88 37.144,6.352 37.608,5.648 C37.52,5.376 37.448,5.08 37.384,4.76 C37.248,4.08 37.16,3.232 37.112,2.208 L35.336,2.208 L35.336,3.36 L36.72,3.36 C36.72,4.8 36.656,5.68 36.544,6 C36.432,6.304 36.224,6.464 35.928,6.48 L35.384,6.48 L35.24,6.008 L35.792,6.008 C35.968,5.992 36.072,5.856 36.12,5.608 C36.168,5.352 36.192,4.768 36.2,3.848 L35.336,3.848 Z M38.568,0.408 C38.784,0.72 38.968,1.048 39.128,1.4 L38.704,1.584 C38.528,1.2 38.344,0.864 38.144,0.576 L38.568,0.408 Z M40.016,1.384 L43.248,1.384 C43.12,1.048 42.976,0.752 42.832,0.48 L43.448,0.384 C43.576,0.68 43.704,1.016 43.832,1.384 L47.104,1.384 L47.104,1.936 L43.856,1.936 L43.856,2.984 L46.456,2.984 L46.456,5.888 C46.456,6.368 46.208,6.616 45.728,6.616 L44.928,6.616 L44.784,6.064 L45.544,6.096 C45.768,6.096 45.88,5.984 45.88,5.76 L45.88,3.536 L43.856,3.536 L43.856,7.784 L43.264,7.784 L43.264,3.536 L41.336,3.536 L41.336,6.672 L40.768,6.672 L40.768,2.984 L43.264,2.984 L43.264,1.936 L40.016,1.936 L40.016,1.384 Z M50.832,2.392 L47.856,2.392 L47.856,1.824 L50.88,1.824 C50.744,1.4 50.576,0.992 50.384,0.6 L50.944,0.448 C51.144,0.904 51.296,1.32 51.408,1.704 L51.096,1.824 L54.392,1.824 L54.392,2.392 L51.416,2.392 L51.416,4.28 L54.008,4.28 L54.008,4.816 L51.416,4.816 L51.416,6.96 L54.672,6.96 L54.672,7.528 L47.576,7.528 L47.576,6.96 L50.832,6.96 L50.832,4.816 L48.24,4.816 L48.24,4.28 L50.832,4.28 L50.832,2.392 Z M55.736,0.888 L61.648,0.888 L61.648,1.432 L58.992,1.432 L58.992,3.688 L62.24,3.688 L62.24,4.248 L58.992,4.248 L58.992,7.792 L58.4,7.792 L58.4,4.248 L55.128,4.248 L55.128,3.688 L58.4,3.688 L58.4,1.432 L55.736,1.432 L55.736,0.888 Z M64.904,1.352 L66.232,1.352 C66.104,1.104 65.96,0.872 65.8,0.656 L66.336,0.456 C66.512,0.712 66.68,1.008 66.824,1.352 L67.768,1.352 C67.96,1.064 68.136,0.76 68.28,0.44 L68.84,0.632 C68.704,0.904 68.56,1.144 68.4,1.352 L69.76,1.352 L69.76,1.888 L67.52,1.888 C67.464,2.112 67.392,2.328 67.312,2.536 L69.216,2.536 L69.216,6.392 L65.424,6.392 L65.424,2.536 L66.704,2.536 C66.792,2.32 66.856,2.104 66.904,1.888 L64.904,1.888 L64.904,1.352 Z M68.672,5.88 L68.672,5.216 L65.968,5.216 L65.968,5.88 L68.672,5.88 Z M65.968,4.752 L68.672,4.752 L68.672,4.144 L65.968,4.144 L65.968,4.752 Z M65.968,3.68 L68.672,3.68 L68.672,3.048 L65.968,3.048 L65.968,3.68 Z M63.248,0.592 C63.8,1.008 64.264,1.424 64.64,1.84 L64.232,2.24 C63.896,1.84 63.44,1.416 62.856,0.968 L63.248,0.592 Z M67.912,7.656 C67.48,7.656 67.008,7.648 66.496,7.64 C65.984,7.632 65.568,7.584 65.248,7.496 C64.928,7.4 64.648,7.2 64.408,6.912 C64.296,6.776 64.192,6.712 64.096,6.712 C63.904,6.712 63.584,7.072 63.128,7.808 L62.696,7.424 C63.136,6.736 63.52,6.328 63.848,6.2 L63.848,3.768 L62.672,3.768 L62.672,3.24 L64.384,3.24 L64.384,6.232 C64.448,6.28 64.512,6.344 64.576,6.416 C64.768,6.648 64.976,6.816 65.192,6.92 C65.44,7.032 65.8,7.096 66.272,7.112 C66.688,7.12 67.208,7.128 67.832,7.128 C68.208,7.128 68.592,7.12 68.984,7.112 C69.368,7.104 69.672,7.096 69.88,7.08 L69.744,7.656 L67.912,7.656 Z" id="城市主干道"></path>
                </g>
            </g>
        </g>
    </g>
</svg>