<?xml version="1.0" encoding="UTF-8"?>
<svg width="87px" height="52px" viewBox="0 0 87 52" version="1.1" xmlns="http://www.w3.org/2000/svg" xmlns:xlink="http://www.w3.org/1999/xlink">
    <!-- Generator: Sketch 53.1 (72631) - https://sketchapp.com -->
    <title>城市普通道路</title>
    <desc>Created with Sketch.</desc>
    <g id="Page-1" stroke="none" stroke-width="1" fill="none" fill-rule="evenodd">
        <g id="城市普通道路">
            <g transform="translate(32.000000, 21.000000)" fill-rule="nonzero" id="路径">
                <polygon stroke-opacity="0.475387893" stroke="#979797" fill="#FFFFFF" points="0.0117073171 29.9707317 23.9882927 29.9707317 23.9882927 0 0.0117073171 0"></polygon>
                <polygon fill-opacity="0.577851836" fill="#979797" points="10.5014634 20.9795122 13.4985366 20.9795122 13.4985366 26.9736585 10.5014634 26.9736585"></polygon>
                <polygon fill-opacity="0.577851836" fill="#979797" points="10.5014634 11.9882927 13.4985366 11.9882927 13.4985366 17.982439 10.5014634 17.982439"></polygon>
                <polygon fill-opacity="0.577851836" fill="#979797" points="10.5014634 2.99707317 13.4985366 2.99707317 13.4985366 8.99121951 10.5014634 8.99121951"></polygon>
            </g>
            <g id="分组-5">
                <rect id="矩形" stroke="#979797" fill="#FFFFFF" x="0.5" y="0.5" width="86" height="16" rx="2"></rect>
                <g id="分组-3" transform="translate(4.000000, 4.000000)" fill="#000000" fill-rule="nonzero">
                    <path d="M2.944,1.288 L3.8,1.288 L3.8,5.032 L4.648,5.032 L4.648,5.776 L3.8,5.776 L3.8,7 L2.912,7 L2.912,5.776 L0.152,5.776 L0.152,4.888 L2.944,1.288 Z M2.888,2.472 L0.912,5.032 L2.912,5.032 L2.912,2.472 L2.888,2.472 Z M5.40000001,1.288 L9.26400001,1.288 L9.26400001,2.04 L7.26400001,7 L6.27200001,7 L8.32000001,2.136 L5.40000001,2.136 L5.40000001,1.288 Z M12.344,1.176 C13.008,1.176 13.528,1.448 13.904,2.008 C14.256,2.536 14.432,3.248 14.432,4.144 C14.432,5.04 14.256,5.752 13.904,6.28 C13.528,6.832 13.008,7.112 12.344,7.112 C11.672,7.112 11.152,6.832 10.784,6.28 C10.432,5.752 10.256,5.04 10.256,4.144 C10.256,3.248 10.432,2.536 10.784,2.008 C11.152,1.448 11.672,1.176 12.344,1.176 Z M12.344,1.968 C11.888,1.968 11.568,2.216 11.384,2.728 C11.256,3.072 11.192,3.544 11.192,4.144 C11.192,4.736 11.256,5.208 11.384,5.56 C11.568,6.064 11.888,6.32 12.344,6.32 C12.792,6.32 13.112,6.064 13.304,5.56 C13.432,5.208 13.496,4.736 13.496,4.144 C13.496,3.544 13.432,3.072 13.304,2.728 C13.112,2.216 12.792,1.968 12.344,1.968 Z M17.504,1.176 C18.168,1.176 18.688,1.448 19.064,2.008 C19.416,2.536 19.592,3.248 19.592,4.144 C19.592,5.04 19.416,5.752 19.064,6.28 C18.688,6.832 18.168,7.112 17.504,7.112 C16.832,7.112 16.312,6.832 15.944,6.28 C15.592,5.752 15.416,5.04 15.416,4.144 C15.416,3.248 15.592,2.536 15.944,2.008 C16.312,1.448 16.832,1.176 17.504,1.176 Z M17.504,1.968 C17.048,1.968 16.728,2.216 16.544,2.728 C16.416,3.072 16.352,3.544 16.352,4.144 C16.352,4.736 16.416,5.208 16.544,5.56 C16.728,6.064 17.048,6.32 17.504,6.32 C17.952,6.32 18.272,6.064 18.464,5.56 C18.592,5.208 18.656,4.736 18.656,4.144 C18.656,3.544 18.592,3.072 18.464,2.728 C18.272,2.216 17.952,1.968 17.504,1.968 Z M22.6640001,1.176 C23.3280001,1.176 23.8480001,1.448 24.2240001,2.008 C24.5760001,2.536 24.7520001,3.248 24.7520001,4.144 C24.7520001,5.04 24.5760001,5.752 24.2240001,6.28 C23.8480001,6.832 23.3280001,7.112 22.6640001,7.112 C21.9920001,7.112 21.4720001,6.832 21.1040001,6.28 C20.7520001,5.752 20.5760001,5.04 20.5760001,4.144 C20.5760001,3.248 20.7520001,2.536 21.1040001,2.008 C21.4720001,1.448 21.9920001,1.176 22.6640001,1.176 Z M22.6640001,1.968 C22.2080001,1.968 21.8880001,2.216 21.7040001,2.728 C21.5760001,3.072 21.5120001,3.544 21.5120001,4.144 C21.5120001,4.736 21.5760001,5.208 21.7040001,5.56 C21.8880001,6.064 22.2080001,6.32 22.6640001,6.32 C23.1120001,6.32 23.4320001,6.064 23.6240001,5.56 C23.7520001,5.208 23.8160001,4.736 23.8160001,4.144 C23.8160001,3.544 23.7520001,3.072 23.6240001,2.728 C23.4320001,2.216 23.1120001,1.968 22.6640001,1.968 Z M27.4240001,1.992 C27.6000001,1.992 27.7440001,2.048 27.8720001,2.176 C27.9920001,2.296 28.0560001,2.448 28.0560001,2.624 C28.0560001,2.8 27.9920001,2.944 27.8720001,3.064 C27.7440001,3.184 27.6000001,3.248 27.4240001,3.248 C27.2480001,3.248 27.0960001,3.184 26.9760001,3.064 C26.8560001,2.944 26.8000001,2.8 26.8000001,2.624 C26.8000001,2.448 26.8560001,2.296 26.9760001,2.176 C27.0960001,2.048 27.2480001,1.992 27.4240001,1.992 Z M27.4240001,4.92 C27.6000001,4.92 27.7440001,4.976 27.8720001,5.104 C27.9920001,5.224 28.0560001,5.376 28.0560001,5.552 C28.0560001,5.728 27.9920001,5.872 27.8720001,5.992 C27.7440001,6.112 27.6000001,6.176 27.4240001,6.176 C27.2480001,6.176 27.0960001,6.112 26.9760001,5.992 C26.8560001,5.872 26.8000001,5.728 26.8000001,5.552 C26.8000001,5.376 26.8560001,5.224 26.9760001,5.104 C27.0960001,4.976 27.2480001,4.92 27.4240001,4.92 Z" id="47000："></path>
                    <path d="M32.352,2.528 L33.072,2.528 L33.072,0.504 L33.632,0.504 L33.632,2.528 L34.344,2.528 L34.344,3.072 L33.632,3.072 L33.632,5.504 C33.856,5.392 34.072,5.272 34.288,5.144 L34.288,5.704 C33.712,6.04 33.088,6.328 32.416,6.552 L32.272,6.008 C32.544,5.936 32.816,5.848 33.072,5.752 L33.072,3.072 L32.352,3.072 L32.352,2.528 Z M35.336,3.848 L35.336,3.864 C35.304,5.464 34.936,6.752 34.232,7.712 L33.808,7.336 C34.424,6.504 34.744,5.352 34.776,3.864 L34.776,1.688 L37.096,1.688 C37.08,1.304 37.08,0.896 37.08,0.472 L37.608,0.472 C37.608,0.904 37.616,1.312 37.632,1.688 L39.432,1.688 L39.432,2.208 L37.648,2.208 C37.696,3.2 37.768,3.992 37.88,4.568 C37.904,4.728 37.936,4.872 37.968,5.016 C38.264,4.416 38.496,3.728 38.672,2.952 L39.144,3.152 C38.904,4.16 38.576,5.024 38.16,5.728 C38.24,6 38.336,6.224 38.432,6.408 C38.624,6.784 38.784,6.976 38.896,6.976 C39.008,6.968 39.104,6.576 39.192,5.808 L39.672,6.072 C39.512,7.144 39.288,7.68 39,7.68 C38.728,7.68 38.448,7.44 38.152,6.96 C38.024,6.76 37.912,6.528 37.808,6.256 C37.352,6.88 36.816,7.352 36.208,7.68 L35.864,7.24 C36.56,6.88 37.144,6.352 37.608,5.648 C37.52,5.376 37.448,5.08 37.384,4.76 C37.248,4.08 37.16,3.232 37.112,2.208 L35.336,2.208 L35.336,3.36 L36.72,3.36 C36.72,4.8 36.656,5.68 36.544,6 C36.432,6.304 36.224,6.464 35.928,6.48 L35.384,6.48 L35.24,6.008 L35.792,6.008 C35.968,5.992 36.072,5.856 36.12,5.608 C36.168,5.352 36.192,4.768 36.2,3.848 L35.336,3.848 Z M38.568,0.408 C38.784,0.72 38.968,1.048 39.128,1.4 L38.704,1.584 C38.528,1.2 38.344,0.864 38.144,0.576 L38.568,0.408 Z M40.416,1.384 L43.648,1.384 C43.52,1.048 43.376,0.752 43.232,0.48 L43.848,0.384 C43.976,0.68 44.104,1.016 44.232,1.384 L47.504,1.384 L47.504,1.936 L44.256,1.936 L44.256,2.984 L46.856,2.984 L46.856,5.888 C46.856,6.368 46.608,6.616 46.128,6.616 L45.328,6.616 L45.184,6.064 L45.944,6.096 C46.168,6.096 46.28,5.984 46.28,5.76 L46.28,3.536 L44.256,3.536 L44.256,7.784 L43.664,7.784 L43.664,3.536 L41.736,3.536 L41.736,6.672 L41.168,6.672 L41.168,2.984 L43.664,2.984 L43.664,1.936 L40.416,1.936 L40.416,1.384 Z M50.872,1.864 L48.704,1.864 L48.704,1.328 L50.408,1.328 C50.28,1.048 50.144,0.792 50,0.56 L50.6,0.464 C50.744,0.72 50.888,1.008 51.016,1.328 L52.696,1.328 C52.888,1.032 53.064,0.728 53.216,0.408 L53.768,0.6 C53.632,0.872 53.488,1.112 53.328,1.328 L55.136,1.328 L55.136,1.864 L52.96,1.864 L52.96,3.432 L55.44,3.432 L55.44,3.976 L48.4,3.976 L48.4,3.432 L50.872,3.432 L50.872,1.864 Z M52.408,1.864 L51.424,1.864 L51.424,3.432 L52.408,3.432 L52.408,1.864 Z M54.272,2.072 L54.736,2.288 C54.56,2.656 54.328,3.008 54.048,3.344 L53.592,3.112 C53.88,2.76 54.104,2.416 54.272,2.072 Z M49.712,2.088 C49.92,2.416 50.096,2.768 50.248,3.136 L49.76,3.352 C49.6,2.936 49.416,2.576 49.208,2.256 L49.712,2.088 Z M54.36,4.56 L54.36,7.792 L53.808,7.792 L53.808,7.416 L50.016,7.416 L50.016,7.792 L49.464,7.792 L49.464,4.56 L54.36,4.56 Z M50.016,6.928 L53.808,6.928 L53.808,6.232 L50.016,6.232 L50.016,6.928 Z M50.016,5.768 L53.808,5.768 L53.808,5.04 L50.016,5.04 L50.016,5.768 Z M56.888,0.592 C57.44,1.008 57.904,1.424 58.28,1.84 L57.872,2.24 C57.536,1.84 57.08,1.416 56.496,0.968 L56.888,0.592 Z M61.568,7.656 C61.128,7.656 60.648,7.648 60.136,7.64 C59.616,7.632 59.192,7.584 58.872,7.496 C58.552,7.4 58.264,7.2 58.016,6.912 C57.904,6.776 57.8,6.712 57.704,6.712 C57.512,6.712 57.192,7.08 56.752,7.816 L56.32,7.424 C56.744,6.752 57.12,6.344 57.448,6.2 L57.448,3.768 L56.312,3.768 L56.312,3.24 L57.984,3.24 L57.984,6.232 C58.048,6.28 58.112,6.336 58.184,6.416 C58.376,6.648 58.584,6.816 58.808,6.92 C59.064,7.032 59.424,7.096 59.904,7.112 C60.328,7.12 60.856,7.128 61.488,7.128 C61.856,7.128 62.24,7.12 62.632,7.112 C63.016,7.104 63.312,7.096 63.52,7.08 L63.384,7.656 L61.568,7.656 Z M60.136,1.36 C60.472,1.56 60.784,1.76 61.056,1.96 C61.472,1.744 61.856,1.504 62.208,1.232 L58.656,1.232 L58.656,0.744 L62.984,0.744 L62.984,1.16 C62.504,1.576 61.984,1.936 61.424,2.24 L61.552,2.344 L63.136,2.344 L63.136,5.92 C63.136,6.328 62.912,6.536 62.464,6.536 L61.8,6.536 L61.672,6.048 L62.304,6.072 C62.496,6.072 62.592,5.976 62.592,5.8 L62.592,5.2 L61.248,5.2 L61.248,6.576 L60.712,6.576 L60.712,5.2 L59.376,5.2 L59.376,6.6 L58.832,6.6 L58.832,2.344 L60.832,2.344 C60.528,2.128 60.176,1.912 59.784,1.704 L60.136,1.36 Z M59.376,4.024 L59.376,4.728 L60.712,4.728 L60.712,4.024 L59.376,4.024 Z M61.248,4.024 L61.248,4.728 L62.592,4.728 L62.592,4.024 L61.248,4.024 Z M62.592,3.544 L62.592,2.824 L61.248,2.824 L61.248,3.544 L62.592,3.544 Z M60.712,3.544 L60.712,2.824 L59.376,2.824 L59.376,3.544 L60.712,3.544 Z M66.504,1.352 L67.832,1.352 C67.704,1.104 67.56,0.872 67.4,0.656 L67.936,0.456 C68.112,0.712 68.28,1.008 68.424,1.352 L69.368,1.352 C69.56,1.064 69.736,0.76 69.88,0.44 L70.44,0.632 C70.304,0.904 70.16,1.144 70,1.352 L71.36,1.352 L71.36,1.888 L69.12,1.888 C69.064,2.112 68.992,2.328 68.912,2.536 L70.816,2.536 L70.816,6.392 L67.024,6.392 L67.024,2.536 L68.304,2.536 C68.392,2.32 68.456,2.104 68.504,1.888 L66.504,1.888 L66.504,1.352 Z M70.272,5.88 L70.272,5.216 L67.568,5.216 L67.568,5.88 L70.272,5.88 Z M67.568,4.752 L70.272,4.752 L70.272,4.144 L67.568,4.144 L67.568,4.752 Z M67.568,3.68 L70.272,3.68 L70.272,3.048 L67.568,3.048 L67.568,3.68 Z M64.848,0.592 C65.4,1.008 65.864,1.424 66.24,1.84 L65.832,2.24 C65.496,1.84 65.04,1.416 64.456,0.968 L64.848,0.592 Z M69.512,7.656 C69.08,7.656 68.608,7.648 68.096,7.64 C67.584,7.632 67.168,7.584 66.848,7.496 C66.528,7.4 66.248,7.2 66.008,6.912 C65.896,6.776 65.792,6.712 65.696,6.712 C65.504,6.712 65.184,7.072 64.728,7.808 L64.296,7.424 C64.736,6.736 65.12,6.328 65.448,6.2 L65.448,3.768 L64.272,3.768 L64.272,3.24 L65.984,3.24 L65.984,6.232 C66.048,6.28 66.112,6.344 66.176,6.416 C66.368,6.648 66.576,6.816 66.792,6.92 C67.04,7.032 67.4,7.096 67.872,7.112 C68.288,7.12 68.808,7.128 69.432,7.128 C69.808,7.128 70.192,7.12 70.584,7.112 C70.968,7.104 71.272,7.096 71.48,7.08 L71.344,7.656 L69.512,7.656 Z M72.528,0.784 L74.992,0.784 L74.992,3.296 L74.192,3.296 L74.192,4.584 L75.024,4.584 L75.024,5.128 L74.192,5.128 L74.192,6.616 C74.544,6.504 74.888,6.392 75.208,6.272 L75.208,6.848 C74.376,7.16 73.4,7.448 72.288,7.712 L72.128,7.152 L72.552,7.056 L72.552,4.152 L73.064,4.152 L73.064,6.928 C73.264,6.88 73.464,6.824 73.656,6.776 L73.656,3.296 L72.528,3.296 L72.528,0.784 Z M74.44,2.768 L74.44,1.312 L73.088,1.312 L73.088,2.768 L74.44,2.768 Z M78.808,4.808 L78.808,7.776 L78.256,7.776 L78.256,7.424 L76.24,7.424 L76.24,7.776 L75.688,7.776 L75.688,4.808 L78.808,4.808 Z M76.24,6.896 L78.256,6.896 L78.256,5.328 L76.24,5.328 L76.24,6.896 Z M76.504,0.448 L77.056,0.552 C76.992,0.752 76.92,0.944 76.84,1.136 L78.824,1.136 L78.824,1.552 C78.552,2.224 78.152,2.816 77.632,3.328 C78.16,3.76 78.8,4.096 79.544,4.328 L79.216,4.8 C78.424,4.544 77.76,4.176 77.224,3.696 C76.68,4.136 76.04,4.512 75.288,4.832 L74.944,4.368 C75.68,4.072 76.304,3.72 76.832,3.304 C76.544,2.992 76.304,2.656 76.104,2.288 C75.896,2.528 75.664,2.744 75.408,2.952 L75.064,2.496 C75.768,1.944 76.248,1.264 76.504,0.448 Z M76.432,1.848 C76.648,2.264 76.912,2.64 77.232,2.96 C77.64,2.56 77.968,2.128 78.216,1.648 L76.568,1.648 C76.52,1.712 76.48,1.784 76.432,1.848 Z" id="城市普通道路"></path>
                </g>
            </g>
        </g>
    </g>
</svg>