<?xml version="1.0" encoding="UTF-8"?>
<svg width="41px" height="30px" viewBox="0 0 41 30" version="1.1" xmlns="http://www.w3.org/2000/svg" xmlns:xlink="http://www.w3.org/1999/xlink">
    <!-- Generator: Sketch 53.1 (72631) - https://sketchapp.com -->
    <title>小路</title>
    <desc>Created with Sketch.</desc>
    <g id="Page-1" stroke="none" stroke-width="1" fill="none" fill-rule="evenodd">
        <g id="小路">
            <g transform="translate(5.000000, 24.000000)" fill="#979797" fill-opacity="0.740248033" fill-rule="nonzero" id="形状" stroke="#FFFFFF">
                <path d="M32,3.66666667 L32,5.44444446 L0,5.44444446 L0,3.66666667 L32,3.66666667 Z M0,0.111111125 L32,0.111111125 L32,1.88888887 L0,1.88888887 L0,0.111111125 Z"></path>
            </g>
            <g id="分组-5">
                <rect id="矩形" stroke="#979797" fill="#FFFFFF" x="0.5" y="0.5" width="40" height="16" rx="2"></rect>
                <g id="分组-3" transform="translate(5.000000, 4.000000)" fill="#000000" fill-rule="nonzero">
                    <path d="M2.944,1.288 L3.8,1.288 L3.8,5.032 L4.648,5.032 L4.648,5.776 L3.8,5.776 L3.8,7 L2.912,7 L2.912,5.776 L0.152,5.776 L0.152,4.888 L2.944,1.288 Z M2.888,2.472 L0.912,5.032 L2.912,5.032 L2.912,2.472 L2.888,2.472 Z M7.49600001,1.176 C8.19200001,1.176 8.72800001,1.424 9.09600001,1.928 C9.46400001,2.424 9.64800001,3.104 9.64800001,3.984 C9.64800001,4.912 9.44800001,5.672 9.06400001,6.248 C8.67200001,6.824 8.14400001,7.112 7.48800001,7.112 C6.36000001,7.112 5.72800001,6.592 5.59200001,5.552 L6.50400001,5.552 C6.61600001,6.08 6.94400001,6.344 7.49600001,6.344 C7.87200001,6.344 8.17600001,6.152 8.40800001,5.784 C8.62400001,5.432 8.73600001,4.992 8.73600001,4.464 L8.73600001,4.392 L8.69600001,4.392 C8.52800001,4.624 8.32800001,4.8 8.09600001,4.912 C7.87200001,5.016 7.61600001,5.072 7.32800001,5.072 C6.76800001,5.072 6.31200001,4.888 5.97600001,4.52 C5.64000001,4.168 5.48000001,3.712 5.48000001,3.152 C5.48000001,2.576 5.67200001,2.104 6.05600001,1.736 C6.44000001,1.36 6.92000001,1.176 7.49600001,1.176 Z M7.52800001,1.952 C7.19200001,1.952 6.92000001,2.064 6.71200001,2.288 C6.50400001,2.512 6.40800001,2.8 6.40800001,3.152 C6.40800001,3.504 6.50400001,3.784 6.71200001,3.992 C6.90400001,4.2 7.17600001,4.312 7.52800001,4.312 C7.87200001,4.312 8.14400001,4.2 8.34400001,3.992 C8.53600001,3.776 8.64000001,3.488 8.64000001,3.12 C8.64000001,2.752 8.53600001,2.472 8.32800001,2.264 C8.12000001,2.056 7.84800001,1.952 7.52800001,1.952 Z M12.32,1.992 C12.496,1.992 12.64,2.048 12.768,2.176 C12.888,2.296 12.952,2.448 12.952,2.624 C12.952,2.8 12.888,2.944 12.768,3.064 C12.64,3.184 12.496,3.248 12.32,3.248 C12.144,3.248 11.992,3.184 11.872,3.064 C11.752,2.944 11.696,2.8 11.696,2.624 C11.696,2.448 11.752,2.296 11.872,2.176 C11.992,2.048 12.144,1.992 12.32,1.992 Z M12.32,4.92 C12.496,4.92 12.64,4.976 12.768,5.104 C12.888,5.224 12.952,5.376 12.952,5.552 C12.952,5.728 12.888,5.872 12.768,5.992 C12.64,6.112 12.496,6.176 12.32,6.176 C12.144,6.176 11.992,6.112 11.872,5.992 C11.752,5.872 11.696,5.728 11.696,5.552 C11.696,5.376 11.752,5.224 11.872,5.104 C11.992,4.976 12.144,4.92 12.32,4.92 Z" id="49："></path>
                    <path d="M18.616,7.712 L17.392,7.712 L17.256,7.112 C17.656,7.144 18.04,7.16 18.4,7.16 C18.696,7.16 18.848,7.008 18.848,6.712 L18.848,0.584 L19.44,0.584 L19.44,6.864 C19.44,7.424 19.16,7.712 18.616,7.712 Z M16.704,2.44 L17.28,2.664 C16.896,4.264 16.392,5.48 15.768,6.312 L15.272,5.872 C15.912,5.024 16.384,3.88 16.704,2.44 Z M21.248,2.248 C21.88,3.68 22.368,4.928 22.704,5.992 L22.192,6.352 C21.832,5.216 21.344,3.96 20.728,2.576 L21.248,2.248 Z M23.688,0.784 L26.152,0.784 L26.152,3.296 L25.352,3.296 L25.352,4.584 L26.184,4.584 L26.184,5.128 L25.352,5.128 L25.352,6.616 C25.704,6.504 26.048,6.392 26.368,6.272 L26.368,6.848 C25.536,7.16 24.56,7.448 23.448,7.712 L23.288,7.152 L23.712,7.056 L23.712,4.152 L24.224,4.152 L24.224,6.928 C24.424,6.88 24.624,6.824 24.816,6.776 L24.816,3.296 L23.688,3.296 L23.688,0.784 Z M25.6,2.768 L25.6,1.312 L24.248,1.312 L24.248,2.768 L25.6,2.768 Z M29.968,4.808 L29.968,7.776 L29.416,7.776 L29.416,7.424 L27.4,7.424 L27.4,7.776 L26.848,7.776 L26.848,4.808 L29.968,4.808 Z M27.4,6.896 L29.416,6.896 L29.416,5.328 L27.4,5.328 L27.4,6.896 Z M27.664,0.448 L28.216,0.552 C28.152,0.752 28.08,0.944 28,1.136 L29.984,1.136 L29.984,1.552 C29.712,2.224 29.312,2.816 28.792,3.328 C29.32,3.76 29.96,4.096 30.704,4.328 L30.376,4.8 C29.584,4.544 28.92,4.176 28.384,3.696 C27.84,4.136 27.2,4.512 26.448,4.832 L26.104,4.368 C26.84,4.072 27.464,3.72 27.992,3.304 C27.704,2.992 27.464,2.656 27.264,2.288 C27.056,2.528 26.824,2.744 26.568,2.952 L26.224,2.496 C26.928,1.944 27.408,1.264 27.664,0.448 Z M27.592,1.848 C27.808,2.264 28.072,2.64 28.392,2.96 C28.8,2.56 29.128,2.128 29.376,1.648 L27.728,1.648 C27.68,1.712 27.64,1.784 27.592,1.848 Z" id="小路"></path>
                </g>
            </g>
        </g>
    </g>
</svg>