<?xml version="1.0" encoding="UTF-8"?>
<svg width="53px" height="53px" viewBox="0 0 53 53" version="1.1" xmlns="http://www.w3.org/2000/svg" xmlns:xlink="http://www.w3.org/1999/xlink">
    <!-- Generator: Sketch 53.1 (72631) - https://sketchapp.com -->
    <title>省道</title>
    <desc>Created with Sketch.</desc>
    <g id="Page-1" stroke="none" stroke-width="1" fill="none" fill-rule="evenodd">
        <g id="省道">
            <g transform="translate(10.000000, 19.000000)" fill-rule="nonzero" id="路径">
                <polygon stroke="#D7BD76" fill="#FFEEC0" points="0 20.134375 0 32.53125 32.00625 32.53125 32.00625 20.134375"></polygon>
                <path d="M2.3625,22.215625 L29.5625,22.215625 C30.1875,22.215625 30.703125,22.728125 30.703125,23.35625 C30.703125,23.98125 30.190625,24.496875 29.5625,24.496875 L2.3625,24.496875 C1.734375,24.496875 1.221875,23.984375 1.221875,23.35625 C1.221875,22.728125 1.734375,22.215625 2.3625,22.215625 Z" stroke="#FFEEC0" fill="#D7BD76"></path>
                <path d="M26.628125,26.425 C26.628125,27.05 26.115625,27.565625 25.4875,27.565625 L23.38125,27.565625 C22.753125,27.565625 22.240625,27.053125 22.240625,26.425 C22.240625,25.796875 22.753125,25.284375 23.38125,25.284375 L25.4875,25.284375 C26.115625,25.2875 26.628125,25.8 26.628125,26.425 Z" stroke="#FFEEC0" fill="#D7BD76"></path>
                <path d="M18.196875,26.425 C18.196875,27.05 17.684375,27.565625 17.05625,27.565625 L14.95,27.565625 C14.321875,27.565625 13.809375,27.053125 13.809375,26.425 C13.809375,25.796875 14.321875,25.284375 14.95,25.284375 L17.05625,25.284375 C17.684375,25.2875 18.196875,25.8 18.196875,26.425 Z" stroke="#FFEEC0" fill="#D7BD76"></path>
                <path d="M9.765625,26.425 C9.765625,27.05 9.253125,27.565625 8.625,27.565625 L6.51875,27.565625 C5.89375,27.565625 5.378125,27.053125 5.378125,26.425 C5.378125,25.796875 5.890625,25.284375 6.51875,25.284375 L8.625,25.284375 C9.253125,25.2875 9.765625,25.8 9.765625,26.425 L9.765625,26.425 Z" stroke="#FFEEC0" fill="#D7BD76"></path>
                <path d="M29.646875,30.6375 L2.446875,30.6375 C1.821875,30.6375 1.30625,30.125 1.30625,29.496875 C1.30625,28.871875 1.81875,28.35625 2.446875,28.35625 L29.646875,28.35625 C30.275,28.35625 30.7875,28.86875 30.7875,29.496875 C30.784375,30.125 30.271875,30.6375 29.646875,30.6375 Z" stroke="#FFEEC0" fill="#D7BD76"></path>
                <path d="M10.7149859,12.6881825 L10.7142067,12.6882592 C9.85868042,12.7717803 9.31918118,13.6489355 9.63341158,14.4434913 C9.97915204,15.3136048 10.4760127,16.0246295 11.1267591,16.5840446 C12.2378937,17.5434005 13.8596834,18.03125 16.0125,18.03125 C17.5014651,18.03125 18.7368631,17.8248554 19.721844,17.4203282 C20.6738917,17.0200679 21.3980331,16.4223527 21.9089957,15.616604 C22.4276702,14.7986943 22.684375,13.9319629 22.684375,13.003125 C22.684375,11.9587538 22.4690733,11.1003707 22.0441701,10.417193 C21.6119094,9.72218555 21.0210143,9.1782537 20.25721,8.77654853 C19.4653748,8.35855375 18.2024701,7.94213653 16.4754781,7.53343557 C14.6468165,7.10067402 13.4886365,6.68271498 12.9495002,6.23219693 C12.4812617,5.83724792 12.234375,5.33700589 12.234375,4.7625 C12.234375,4.14041941 12.504208,3.6215942 13.0155424,3.24857289 C13.7040866,2.7484724 14.6273401,2.50625 15.775,2.50625 C16.8950084,2.50625 17.7631901,2.73485931 18.3759384,3.21981582 C18.709975,3.48858086 18.977962,3.84054972 19.181162,4.27281529 C19.4075932,4.75769841 19.8925429,5.0572074 20.4182834,5.03474441 L20.4975427,5.03169995 C21.4521704,4.9911733 22.0327294,3.95959507 21.5709329,3.1216008 C21.3145525,2.65391783 20.9767596,2.23817273 20.5535472,1.87138851 C19.5209588,0.975340728 17.9443742,0.515625 15.809375,0.515625 C14.4953943,0.515625 13.3871924,0.711016551 12.4841028,1.0972253 C11.5979583,1.47618739 10.9307817,2.01678227 10.4724222,2.72237812 C10.0076628,3.43782594 9.778125,4.19370574 9.778125,5.00625 C9.778125,6.27981461 10.2646426,7.34433166 11.2586586,8.23386318 C11.9650506,8.86679042 13.2540625,9.42536224 15.1239191,9.88981056 C16.6703544,10.2748152 17.6257616,10.532427 18.0635341,10.6848428 C18.7590271,10.9307242 19.2671611,11.2337735 19.5813171,11.611556 C19.9048866,12.0006585 20.06875,12.47679 20.06875,13.0125 C20.06875,13.8273491 19.7044108,14.5395984 19.0038663,15.1252356 C18.3113146,15.7005299 17.3216659,15.978125 16.053125,15.978125 C14.8425904,15.978125 13.8547168,15.6641634 13.1107264,15.0279939 C12.6529961,14.6392863 12.2944403,14.1229661 12.0342907,13.4866532 C11.8171799,12.9574456 11.2799868,12.6321309 10.7149859,12.6881825 Z M10.6166537,11.6930288 C10.6167835,11.6930161 10.6169134,11.6930035 10.6170433,11.6929908 L10.6162641,11.6930675 C10.616394,11.6930546 10.6165238,11.6930417 10.6166537,11.6930288 Z" stroke="#D2B272" fill="#FBF0BF"></path>
            </g>
            <g id="分组-5">
                <rect id="矩形" stroke="#979797" fill="#FFFFFF" x="0.5" y="0.5" width="52" height="16" rx="2"></rect>
                <g id="分组-3" transform="translate(4.000000, 4.000000)" fill="#000000" fill-rule="nonzero">
                    <path d="M0.736,1.288 L4.216,1.288 L4.216,2.112 L1.488,2.112 L1.328,3.68 L1.352,3.68 C1.528,3.504 1.728,3.376 1.96,3.296 C2.168,3.216 2.4,3.176 2.656,3.176 C3.192,3.176 3.632,3.352 3.968,3.704 C4.304,4.056 4.48,4.544 4.48,5.16 C4.48,5.752 4.256,6.232 3.808,6.608 C3.392,6.944 2.904,7.112 2.336,7.112 C1.816,7.112 1.368,6.968 1,6.688 C0.584,6.376 0.36,5.952 0.32,5.424 L1.24,5.424 C1.28,5.736 1.4,5.968 1.608,6.12 C1.784,6.248 2.032,6.32 2.344,6.32 C2.68,6.32 2.968,6.216 3.2,6.008 C3.424,5.8 3.544,5.52 3.544,5.168 C3.544,4.784 3.44,4.48 3.248,4.264 C3.056,4.04 2.768,3.936 2.4,3.936 C2.152,3.936 1.936,3.976 1.76,4.064 C1.56,4.16 1.408,4.304 1.296,4.504 L0.424,4.504 L0.736,1.288 Z M7.01600001,1.288 L7.72000001,1.288 L7.72000001,7 L6.78400001,7 L6.78400001,2.416 C6.44000001,2.728 6.00800001,2.96 5.48000001,3.112 L5.48000001,2.184 C5.73600001,2.12 6.00800001,2.008 6.29600001,1.848 C6.58400001,1.672 6.82400001,1.488 7.01600001,1.288 Z M11.2,1.176 C11.864,1.176 12.384,1.448 12.76,2.008 C13.112,2.536 13.288,3.248 13.288,4.144 C13.288,5.04 13.112,5.752 12.76,6.28 C12.384,6.832 11.864,7.112 11.2,7.112 C10.528,7.112 10.008,6.832 9.64000003,6.28 C9.28800003,5.752 9.11200003,5.04 9.11200003,4.144 C9.11200003,3.248 9.28800003,2.536 9.64000003,2.008 C10.008,1.448 10.528,1.176 11.2,1.176 Z M11.2,1.968 C10.744,1.968 10.424,2.216 10.24,2.728 C10.112,3.072 10.048,3.544 10.048,4.144 C10.048,4.736 10.112,5.208 10.24,5.56 C10.424,6.064 10.744,6.32 11.2,6.32 C11.648,6.32 11.968,6.064 12.16,5.56 C12.288,5.208 12.352,4.736 12.352,4.144 C12.352,3.544 12.288,3.072 12.16,2.728 C11.968,2.216 11.648,1.968 11.2,1.968 Z M16.36,1.176 C17.024,1.176 17.544,1.448 17.92,2.008 C18.272,2.536 18.448,3.248 18.448,4.144 C18.448,5.04 18.272,5.752 17.92,6.28 C17.544,6.832 17.024,7.112 16.36,7.112 C15.688,7.112 15.168,6.832 14.8,6.28 C14.448,5.752 14.272,5.04 14.272,4.144 C14.272,3.248 14.448,2.536 14.8,2.008 C15.168,1.448 15.688,1.176 16.36,1.176 Z M16.36,1.968 C15.904,1.968 15.584,2.216 15.4,2.728 C15.272,3.072 15.208,3.544 15.208,4.144 C15.208,4.736 15.272,5.208 15.4,5.56 C15.584,6.064 15.904,6.32 16.36,6.32 C16.808,6.32 17.128,6.064 17.32,5.56 C17.448,5.208 17.512,4.736 17.512,4.144 C17.512,3.544 17.448,3.072 17.32,2.728 C17.128,2.216 16.808,1.968 16.36,1.968 Z M21.5200001,1.176 C22.1840001,1.176 22.7040001,1.448 23.0800001,2.008 C23.4320001,2.536 23.6080001,3.248 23.6080001,4.144 C23.6080001,5.04 23.4320001,5.752 23.0800001,6.28 C22.7040001,6.832 22.1840001,7.112 21.5200001,7.112 C20.8480001,7.112 20.3280001,6.832 19.9600001,6.28 C19.6080001,5.752 19.4320001,5.04 19.4320001,4.144 C19.4320001,3.248 19.6080001,2.536 19.9600001,2.008 C20.3280001,1.448 20.8480001,1.176 21.5200001,1.176 Z M21.5200001,1.968 C21.0640001,1.968 20.7440001,2.216 20.5600001,2.728 C20.4320001,3.072 20.3680001,3.544 20.3680001,4.144 C20.3680001,4.736 20.4320001,5.208 20.5600001,5.56 C20.7440001,6.064 21.0640001,6.32 21.5200001,6.32 C21.9680001,6.32 22.2880001,6.064 22.4800001,5.56 C22.6080001,5.208 22.6720001,4.736 22.6720001,4.144 C22.6720001,3.544 22.6080001,3.072 22.4800001,2.728 C22.2880001,2.216 21.9680001,1.968 21.5200001,1.968 Z M26.2800001,1.992 C26.4560001,1.992 26.6000001,2.048 26.7280001,2.176 C26.8480001,2.296 26.9120001,2.448 26.9120001,2.624 C26.9120001,2.8 26.8480001,2.944 26.7280001,3.064 C26.6000001,3.184 26.4560001,3.248 26.2800001,3.248 C26.1040001,3.248 25.9520001,3.184 25.8320001,3.064 C25.7120001,2.944 25.6560001,2.8 25.6560001,2.624 C25.6560001,2.448 25.7120001,2.296 25.8320001,2.176 C25.9520001,2.048 26.1040001,1.992 26.2800001,1.992 Z M26.2800001,4.92 C26.4560001,4.92 26.6000001,4.976 26.7280001,5.104 C26.8480001,5.224 26.9120001,5.376 26.9120001,5.552 C26.9120001,5.728 26.8480001,5.872 26.7280001,5.992 C26.6000001,6.112 26.4560001,6.176 26.2800001,6.176 C26.1040001,6.176 25.9520001,6.112 25.8320001,5.992 C25.7120001,5.872 25.6560001,5.728 25.6560001,5.552 C25.6560001,5.376 25.7120001,5.224 25.8320001,5.104 C25.9520001,4.976 26.1040001,4.92 26.2800001,4.92 Z" id="51000："></path>
                    <path d="M32.616,0.448 L33.184,0.448 L33.184,2.496 L32.616,2.496 L32.616,0.448 Z M30.792,3.968 C30.416,4.048 30.032,4.128 29.632,4.2 L29.392,3.68 C31.864,3.28 33.744,2.632 35.04,1.744 C34.752,1.512 34.448,1.28 34.12,1.048 L34.504,0.68 C35.344,1.264 36.048,1.848 36.624,2.424 L36.224,2.832 C36,2.584 35.736,2.336 35.448,2.088 C34.648,2.656 33.656,3.128 32.48,3.512 L35.664,3.512 L35.664,7.776 L35.104,7.776 L35.104,7.416 L31.352,7.416 L31.352,7.792 L30.792,7.792 L30.792,3.968 Z M31.352,6.904 L35.104,6.904 L35.104,6.216 L31.352,6.216 L31.352,6.904 Z M31.352,5.752 L35.104,5.752 L35.104,5.112 L31.352,5.112 L31.352,5.752 Z M31.352,4.648 L35.104,4.648 L35.104,4 L31.352,4 L31.352,4.648 Z M31.344,0.904 L31.752,1.264 C31.272,1.856 30.68,2.376 29.976,2.824 L29.64,2.392 C30.32,1.96 30.888,1.464 31.344,0.904 Z M39.624,1.352 L40.952,1.352 C40.824,1.104 40.68,0.872 40.52,0.656 L41.056,0.456 C41.232,0.712 41.4,1.008 41.544,1.352 L42.488,1.352 C42.68,1.064 42.856,0.76 43,0.44 L43.56,0.632 C43.424,0.904 43.28,1.144 43.12,1.352 L44.48,1.352 L44.48,1.888 L42.24,1.888 C42.184,2.112 42.112,2.328 42.032,2.536 L43.936,2.536 L43.936,6.392 L40.144,6.392 L40.144,2.536 L41.424,2.536 C41.512,2.32 41.576,2.104 41.624,1.888 L39.624,1.888 L39.624,1.352 Z M43.392,5.88 L43.392,5.216 L40.688,5.216 L40.688,5.88 L43.392,5.88 Z M40.688,4.752 L43.392,4.752 L43.392,4.144 L40.688,4.144 L40.688,4.752 Z M40.688,3.68 L43.392,3.68 L43.392,3.048 L40.688,3.048 L40.688,3.68 Z M37.968,0.592 C38.52,1.008 38.984,1.424 39.36,1.84 L38.952,2.24 C38.616,1.84 38.16,1.416 37.576,0.968 L37.968,0.592 Z M42.632,7.656 C42.2,7.656 41.728,7.648 41.216,7.64 C40.704,7.632 40.288,7.584 39.968,7.496 C39.648,7.4 39.368,7.2 39.128,6.912 C39.016,6.776 38.912,6.712 38.816,6.712 C38.624,6.712 38.304,7.072 37.848,7.808 L37.416,7.424 C37.856,6.736 38.24,6.328 38.568,6.2 L38.568,3.768 L37.392,3.768 L37.392,3.24 L39.104,3.24 L39.104,6.232 C39.168,6.28 39.232,6.344 39.296,6.416 C39.488,6.648 39.696,6.816 39.912,6.92 C40.16,7.032 40.52,7.096 40.992,7.112 C41.408,7.12 41.928,7.128 42.552,7.128 C42.928,7.128 43.312,7.12 43.704,7.112 C44.088,7.104 44.392,7.096 44.6,7.08 L44.464,7.656 L42.632,7.656 Z" id="省道"></path>
                </g>
            </g>
        </g>
    </g>
</svg>