<?xml version="1.0" encoding="UTF-8"?>
<svg width="55px" height="53px" viewBox="0 0 55 53" version="1.1" xmlns="http://www.w3.org/2000/svg" xmlns:xlink="http://www.w3.org/1999/xlink">
    <!-- Generator: Sketch 53.1 (72631) - https://sketchapp.com -->
    <title>县道</title>
    <desc>Created with Sketch.</desc>
    <g id="Page-1" stroke="none" stroke-width="1" fill="none" fill-rule="evenodd">
        <g id="县道">
            <g transform="translate(11.000000, 20.000000)" fill-rule="nonzero" id="路径">
                <polygon stroke-opacity="0.74456403" stroke="#979797" points="0 19.696875 0 32.09375 32.00625 32.09375 32.00625 19.696875"></polygon>
                <path d="M2.3625,20.778125 L29.5625,20.778125 C30.1875,20.778125 30.703125,21.290625 30.703125,21.91875 C30.703125,22.54375 30.190625,23.059375 29.5625,23.059375 L2.3625,23.059375 C1.734375,23.059375 1.221875,22.546875 1.221875,21.91875 C1.221875,21.290625 1.734375,20.778125 2.3625,20.778125 Z" stroke="#FFFFFF" fill-opacity="0.740248033" fill="#979797"></path>
                <path d="M26.628125,25.9875 C26.628125,26.6125 26.115625,27.128125 25.4875,27.128125 L23.38125,27.128125 C22.753125,27.128125 22.240625,26.615625 22.240625,25.9875 C22.240625,25.359375 22.753125,24.846875 23.38125,24.846875 L25.4875,24.846875 C26.115625,24.85 26.628125,25.3625 26.628125,25.9875 Z" stroke="#FFFFFF" fill-opacity="0.740248033" fill="#979797"></path>
                <path d="M18.196875,25.9875 C18.196875,26.6125 17.684375,27.128125 17.05625,27.128125 L14.95,27.128125 C14.321875,27.128125 13.809375,26.615625 13.809375,25.9875 C13.809375,25.359375 14.321875,24.846875 14.95,24.846875 L17.05625,24.846875 C17.684375,24.85 18.196875,25.3625 18.196875,25.9875 Z" stroke="#FFFFFF" fill-opacity="0.740248033" fill="#979797"></path>
                <path d="M9.765625,25.9875 C9.765625,26.6125 9.253125,27.128125 8.625,27.128125 L6.51875,27.128125 C5.89375,27.128125 5.378125,26.615625 5.378125,25.9875 C5.378125,25.359375 5.890625,24.846875 6.51875,24.846875 L8.625,24.846875 C9.253125,24.85 9.765625,25.3625 9.765625,25.9875 L9.765625,25.9875 Z" stroke="#FFFFFF" fill-opacity="0.740248033" fill="#979797"></path>
                <path d="M29.646875,31.2 L2.446875,31.2 C1.821875,31.2 1.30625,30.6875 1.30625,30.059375 C1.30625,29.434375 1.81875,28.91875 2.446875,28.91875 L29.646875,28.91875 C30.275,28.91875 30.7875,29.43125 30.7875,30.059375 C30.784375,30.6875 30.271875,31.2 29.646875,31.2 Z" stroke="#FFFFFF" fill-opacity="0.740248033" fill="#979797"></path>
                <path d="M9.06539965,16.6048141 C8.84198384,16.9474769 9.08839102,17.4015321 9.5,17.403125 L11.403125,17.403125 C11.5774357,17.403125 11.740897,17.3140038 11.8356802,17.167091 L14.6607294,12.7732644 C15.2575659,11.8453702 16.6111841,11.8453702 17.2084779,12.7739768 L20.0253292,17.16965 C20.1173928,17.3147672 20.279454,17.403125 20.45625,17.403125 L22.36875,17.403125 C22.7787985,17.403125 23.0228021,16.9473447 22.796051,16.6048383 L18.091573,9.52466613 C17.761768,9.02299091 17.7565262,8.3756271 18.0788716,7.87108679 L22.2857873,1.29817447 C22.5053478,0.956986898 22.2587073,0.50625 21.853125,0.50625 L20.0875,0.50625 C19.9087544,0.50625 19.7416026,0.599890039 19.6485074,0.751363955 L17.2859135,4.61714249 C16.6981579,5.57807635 15.3070648,5.58625925 14.7101841,4.6303174 L12.287749,0.748167719 C12.194398,0.597856728 12.0298532,0.50625 11.853125,0.50625 L10.05625,0.50625 C9.64934154,0.50625 9.40405367,0.957763493 9.62593666,1.30009733 L13.7945765,7.73742727 C14.1205065,8.24029075 14.1178764,8.88861721 13.7901714,9.38953759 L9.06539965,16.6048141 Z" stroke-opacity="0.74456403" stroke="#979797"></path>
            </g>
            <g id="分组-5">
                <rect id="矩形" stroke="#979797" fill="#FFFFFF" x="0.5" y="0.5" width="54" height="16" rx="2"></rect>
                <g id="分组-3" transform="translate(4.000000, 4.000000)" fill="#000000" fill-rule="nonzero">
                    <path d="M0.736,1.288 L4.216,1.288 L4.216,2.112 L1.488,2.112 L1.328,3.68 L1.352,3.68 C1.528,3.504 1.728,3.376 1.96,3.296 C2.168,3.216 2.4,3.176 2.656,3.176 C3.192,3.176 3.632,3.352 3.968,3.704 C4.304,4.056 4.48,4.544 4.48,5.16 C4.48,5.752 4.256,6.232 3.808,6.608 C3.392,6.944 2.904,7.112 2.336,7.112 C1.816,7.112 1.368,6.968 1,6.688 C0.584,6.376 0.36,5.952 0.32,5.424 L1.24,5.424 C1.28,5.736 1.4,5.968 1.608,6.12 C1.784,6.248 2.032,6.32 2.344,6.32 C2.68,6.32 2.968,6.216 3.2,6.008 C3.424,5.8 3.544,5.52 3.544,5.168 C3.544,4.784 3.44,4.48 3.248,4.264 C3.056,4.04 2.768,3.936 2.4,3.936 C2.152,3.936 1.936,3.976 1.76,4.064 C1.56,4.16 1.408,4.304 1.296,4.504 L0.424,4.504 L0.736,1.288 Z M7.64800001,1.176 C8.20000001,1.176 8.65600001,1.336 9.01600001,1.656 C9.36800001,1.976 9.54400001,2.384 9.54400001,2.896 C9.54400001,3.392 9.35200001,3.84 8.98400001,4.248 C8.76000001,4.488 8.36000001,4.792 7.80000001,5.168 C7.21600001,5.552 6.86400001,5.888 6.73600001,6.176 L9.55200001,6.176 L9.55200001,7 L5.56800001,7 C5.56800001,6.416 5.75200001,5.912 6.13600001,5.48 C6.34400001,5.24 6.78400001,4.888 7.44800001,4.432 C7.81600001,4.176 8.07200001,3.96 8.23200001,3.792 C8.48000001,3.512 8.60800001,3.208 8.60800001,2.888 C8.60800001,2.576 8.52000001,2.344 8.36000001,2.192 C8.19200001,2.04 7.94400001,1.968 7.61600001,1.968 C7.26400001,1.968 7.00000001,2.088 6.82400001,2.328 C6.64800001,2.552 6.55200001,2.896 6.53600001,3.344 L5.60000001,3.344 C5.60800001,2.704 5.79200001,2.192 6.16000001,1.8 C6.53600001,1.384 7.03200001,1.176 7.64800001,1.176 Z M12.72,1.176 C13.384,1.176 13.904,1.448 14.28,2.008 C14.632,2.536 14.808,3.248 14.808,4.144 C14.808,5.04 14.632,5.752 14.28,6.28 C13.904,6.832 13.384,7.112 12.72,7.112 C12.048,7.112 11.528,6.832 11.16,6.28 C10.808,5.752 10.632,5.04 10.632,4.144 C10.632,3.248 10.808,2.536 11.16,2.008 C11.528,1.448 12.048,1.176 12.72,1.176 Z M12.72,1.968 C12.264,1.968 11.944,2.216 11.76,2.728 C11.632,3.072 11.568,3.544 11.568,4.144 C11.568,4.736 11.632,5.208 11.76,5.56 C11.944,6.064 12.264,6.32 12.72,6.32 C13.168,6.32 13.488,6.064 13.68,5.56 C13.808,5.208 13.872,4.736 13.872,4.144 C13.872,3.544 13.808,3.072 13.68,2.728 C13.488,2.216 13.168,1.968 12.72,1.968 Z M17.88,1.176 C18.544,1.176 19.064,1.448 19.44,2.008 C19.792,2.536 19.968,3.248 19.968,4.144 C19.968,5.04 19.792,5.752 19.44,6.28 C19.064,6.832 18.544,7.112 17.88,7.112 C17.208,7.112 16.688,6.832 16.32,6.28 C15.968,5.752 15.792,5.04 15.792,4.144 C15.792,3.248 15.968,2.536 16.32,2.008 C16.688,1.448 17.208,1.176 17.88,1.176 Z M17.88,1.968 C17.424,1.968 17.104,2.216 16.92,2.728 C16.792,3.072 16.728,3.544 16.728,4.144 C16.728,4.736 16.792,5.208 16.92,5.56 C17.104,6.064 17.424,6.32 17.88,6.32 C18.328,6.32 18.648,6.064 18.84,5.56 C18.968,5.208 19.032,4.736 19.032,4.144 C19.032,3.544 18.968,3.072 18.84,2.728 C18.648,2.216 18.328,1.968 17.88,1.968 Z M23.0400001,1.176 C23.7040001,1.176 24.2240001,1.448 24.6000001,2.008 C24.9520001,2.536 25.1280001,3.248 25.1280001,4.144 C25.1280001,5.04 24.9520001,5.752 24.6000001,6.28 C24.2240001,6.832 23.7040001,7.112 23.0400001,7.112 C22.3680001,7.112 21.8480001,6.832 21.4800001,6.28 C21.1280001,5.752 20.9520001,5.04 20.9520001,4.144 C20.9520001,3.248 21.1280001,2.536 21.4800001,2.008 C21.8480001,1.448 22.3680001,1.176 23.0400001,1.176 Z M23.0400001,1.968 C22.5840001,1.968 22.2640001,2.216 22.0800001,2.728 C21.9520001,3.072 21.8880001,3.544 21.8880001,4.144 C21.8880001,4.736 21.9520001,5.208 22.0800001,5.56 C22.2640001,6.064 22.5840001,6.32 23.0400001,6.32 C23.4880001,6.32 23.8080001,6.064 24.0000001,5.56 C24.1280001,5.208 24.1920001,4.736 24.1920001,4.144 C24.1920001,3.544 24.1280001,3.072 24.0000001,2.728 C23.8080001,2.216 23.4880001,1.968 23.0400001,1.968 Z M27.8000001,1.992 C27.9760001,1.992 28.1200001,2.048 28.2480001,2.176 C28.3680001,2.296 28.4320001,2.448 28.4320001,2.624 C28.4320001,2.8 28.3680001,2.944 28.2480001,3.064 C28.1200001,3.184 27.9760001,3.248 27.8000001,3.248 C27.6240001,3.248 27.4720001,3.184 27.3520001,3.064 C27.2320001,2.944 27.1760001,2.8 27.1760001,2.624 C27.1760001,2.448 27.2320001,2.296 27.3520001,2.176 C27.4720001,2.048 27.6240001,1.992 27.8000001,1.992 Z M27.8000001,4.92 C27.9760001,4.92 28.1200001,4.976 28.2480001,5.104 C28.3680001,5.224 28.4320001,5.376 28.4320001,5.552 C28.4320001,5.728 28.3680001,5.872 28.2480001,5.992 C28.1200001,6.112 27.9760001,6.176 27.8000001,6.176 C27.6240001,6.176 27.4720001,6.112 27.3520001,5.992 C27.2320001,5.872 27.1760001,5.728 27.1760001,5.552 C27.1760001,5.376 27.2320001,5.224 27.3520001,5.104 C27.4720001,4.976 27.6240001,4.92 27.8000001,4.92 Z" id="52000："></path>
                    <path d="M31.352,5.008 L32.888,5.008 L32.888,0.776 L37.344,0.776 L37.344,5.008 L38.624,5.008 L38.624,5.56 L34.312,5.56 C33.968,6.152 33.56,6.664 33.096,7.112 C34.4,7.04 35.64,6.92 36.824,6.76 C36.6,6.504 36.36,6.24 36.104,5.968 L36.552,5.688 C37.248,6.376 37.784,6.984 38.152,7.504 L37.664,7.848 C37.52,7.64 37.368,7.424 37.192,7.2 C35.928,7.392 34.32,7.544 32.376,7.656 L32.208,7.144 C32.352,7.112 32.448,7.064 32.512,7 C32.976,6.536 33.368,6.056 33.672,5.56 L31.352,5.56 L31.352,5.008 Z M36.768,5.008 L36.768,4.12 L33.456,4.12 L33.456,5.008 L36.768,5.008 Z M33.456,3.592 L36.768,3.592 L36.768,2.736 L33.456,2.736 L33.456,3.592 Z M33.456,2.208 L36.768,2.208 L36.768,1.312 L33.456,1.312 L33.456,2.208 Z M41.624,1.352 L42.952,1.352 C42.824,1.104 42.68,0.872 42.52,0.656 L43.056,0.456 C43.232,0.712 43.4,1.008 43.544,1.352 L44.488,1.352 C44.68,1.064 44.856,0.76 45,0.44 L45.56,0.632 C45.424,0.904 45.28,1.144 45.12,1.352 L46.48,1.352 L46.48,1.888 L44.24,1.888 C44.184,2.112 44.112,2.328 44.032,2.536 L45.936,2.536 L45.936,6.392 L42.144,6.392 L42.144,2.536 L43.424,2.536 C43.512,2.32 43.576,2.104 43.624,1.888 L41.624,1.888 L41.624,1.352 Z M45.392,5.88 L45.392,5.216 L42.688,5.216 L42.688,5.88 L45.392,5.88 Z M42.688,4.752 L45.392,4.752 L45.392,4.144 L42.688,4.144 L42.688,4.752 Z M42.688,3.68 L45.392,3.68 L45.392,3.048 L42.688,3.048 L42.688,3.68 Z M39.968,0.592 C40.52,1.008 40.984,1.424 41.36,1.84 L40.952,2.24 C40.616,1.84 40.16,1.416 39.576,0.968 L39.968,0.592 Z M44.632,7.656 C44.2,7.656 43.728,7.648 43.216,7.64 C42.704,7.632 42.288,7.584 41.968,7.496 C41.648,7.4 41.368,7.2 41.128,6.912 C41.016,6.776 40.912,6.712 40.816,6.712 C40.624,6.712 40.304,7.072 39.848,7.808 L39.416,7.424 C39.856,6.736 40.24,6.328 40.568,6.2 L40.568,3.768 L39.392,3.768 L39.392,3.24 L41.104,3.24 L41.104,6.232 C41.168,6.28 41.232,6.344 41.296,6.416 C41.488,6.648 41.696,6.816 41.912,6.92 C42.16,7.032 42.52,7.096 42.992,7.112 C43.408,7.12 43.928,7.128 44.552,7.128 C44.928,7.128 45.312,7.12 45.704,7.112 C46.088,7.104 46.392,7.096 46.6,7.08 L46.464,7.656 L44.632,7.656 Z" id="县道"></path>
                </g>
            </g>
        </g>
    </g>
</svg>