<?xml version="1.0" encoding="UTF-8"?>
<svg width="54px" height="53px" viewBox="0 0 54 53" version="1.1" xmlns="http://www.w3.org/2000/svg" xmlns:xlink="http://www.w3.org/1999/xlink">
    <!-- Generator: Sketch 53.1 (72631) - https://sketchapp.com -->
    <title>乡道</title>
    <desc>Created with Sketch.</desc>
    <g id="Page-1" stroke="none" stroke-width="1" fill="none" fill-rule="evenodd">
        <g id="乡道">
            <g transform="translate(11.000000, 20.000000)" fill-rule="nonzero" id="路径">
                <polygon stroke-opacity="0.74456403" stroke="#979797" points="0 19.665625 0 32.0625 32.00625 32.0625 32.00625 19.665625"></polygon>
                <path d="M2.3625,20.746875 L29.5625,20.746875 C30.1875,20.746875 30.703125,21.259375 30.703125,21.8875 C30.703125,22.5125 30.190625,23.028125 29.5625,23.028125 L2.3625,23.028125 C1.734375,23.028125 1.221875,22.515625 1.221875,21.8875 C1.221875,21.259375 1.734375,20.746875 2.3625,20.746875 Z" stroke="#FFFFFF" fill-opacity="0.740248033" fill="#979797"></path>
                <path d="M26.628125,25.95625 C26.628125,26.58125 26.115625,27.096875 25.4875,27.096875 L23.38125,27.096875 C22.753125,27.096875 22.240625,26.584375 22.240625,25.95625 C22.240625,25.328125 22.753125,24.815625 23.38125,24.815625 L25.4875,24.815625 C26.115625,24.81875 26.628125,25.33125 26.628125,25.95625 Z" stroke="#FFFFFF" fill-opacity="0.740248033" fill="#979797"></path>
                <path d="M18.196875,25.95625 C18.196875,26.58125 17.684375,27.096875 17.05625,27.096875 L14.95,27.096875 C14.321875,27.096875 13.809375,26.584375 13.809375,25.95625 C13.809375,25.328125 14.321875,24.815625 14.95,24.815625 L17.05625,24.815625 C17.684375,24.81875 18.196875,25.33125 18.196875,25.95625 Z" stroke="#FFFFFF" fill-opacity="0.740248033" fill="#979797"></path>
                <path d="M9.765625,25.95625 C9.765625,26.58125 9.253125,27.096875 8.625,27.096875 L6.51875,27.096875 C5.89375,27.096875 5.378125,26.584375 5.378125,25.95625 C5.378125,25.328125 5.890625,24.815625 6.51875,24.815625 L8.625,24.815625 C9.253125,24.81875 9.765625,25.33125 9.765625,25.95625 L9.765625,25.95625 Z" stroke="#FFFFFF" fill-opacity="0.740248033" fill="#979797"></path>
                <path d="M29.646875,31.16875 L2.446875,31.16875 C1.821875,31.16875 1.30625,30.65625 1.30625,30.028125 C1.30625,29.403125 1.81875,28.8875 2.446875,28.8875 L29.646875,28.8875 C30.275,28.8875 30.7875,29.4 30.7875,30.028125 C30.784375,30.65625 30.271875,31.16875 29.646875,31.16875 Z" stroke="#FFFFFF" fill-opacity="0.740248033" fill="#979797"></path>
                <path d="M15.01875,16.6875 C15.01875,17.0803913 15.3389273,17.4 15.734375,17.4 L16.909375,17.4 C17.3019826,17.4 17.621875,17.0801076 17.621875,16.6875 L17.621875,10.74375 C17.621875,10.4190761 17.7136942,10.1016764 17.8869969,9.82617435 L23.098704,1.59930504 C23.3990493,1.12206927 23.0587295,0.503125 22.496875,0.503125 L21.234375,0.503125 C20.982801,0.503125 20.7486528,0.638444401 20.6195039,0.857989165 L17.8790091,5.56089057 C17.2218582,6.68995534 15.5934638,6.69623047 14.9265023,5.57432179 L12.1183761,0.852390233 C11.9931806,0.638287798 11.7613585,0.50625 11.509375,0.50625 L10.165625,0.50625 C9.6040981,0.50625 9.26380825,1.1244764 9.56318964,1.59834401 L14.7544804,9.80564944 C14.9266283,10.0793204 15.01875,10.3966287 15.01875,10.71875 L15.01875,16.6875 Z" stroke-opacity="0.74456403" stroke="#979797"></path>
            </g>
            <g id="分组-5">
                <rect id="矩形" stroke="#979797" fill="#FFFFFF" x="0.5" y="0.5" width="53" height="16" rx="2"></rect>
                <g id="分组-3" transform="translate(4.000000, 4.000000)" fill="#000000" fill-rule="nonzero">
                    <path d="M0.736,1.288 L4.216,1.288 L4.216,2.112 L1.488,2.112 L1.328,3.68 L1.352,3.68 C1.528,3.504 1.728,3.376 1.96,3.296 C2.168,3.216 2.4,3.176 2.656,3.176 C3.192,3.176 3.632,3.352 3.968,3.704 C4.304,4.056 4.48,4.544 4.48,5.16 C4.48,5.752 4.256,6.232 3.808,6.608 C3.392,6.944 2.904,7.112 2.336,7.112 C1.816,7.112 1.368,6.968 1,6.688 C0.584,6.376 0.36,5.952 0.32,5.424 L1.24,5.424 C1.28,5.736 1.4,5.968 1.608,6.12 C1.784,6.248 2.032,6.32 2.344,6.32 C2.68,6.32 2.968,6.216 3.2,6.008 C3.424,5.8 3.544,5.52 3.544,5.168 C3.544,4.784 3.44,4.48 3.248,4.264 C3.056,4.04 2.768,3.936 2.4,3.936 C2.152,3.936 1.936,3.976 1.76,4.064 C1.56,4.16 1.408,4.304 1.296,4.504 L0.424,4.504 L0.736,1.288 Z M7.61600001,1.176 C8.19200001,1.176 8.66400001,1.312 9.01600001,1.592 C9.36000001,1.872 9.53600001,2.256 9.53600001,2.752 C9.53600001,3.376 9.21600001,3.792 8.58400001,4 C8.92000001,4.104 9.18400001,4.256 9.36000001,4.464 C9.55200001,4.68 9.64800001,4.96 9.64800001,5.296 C9.64800001,5.824 9.46400001,6.256 9.09600001,6.592 C8.71200001,6.936 8.20800001,7.112 7.58400001,7.112 C6.99200001,7.112 6.51200001,6.96 6.15200001,6.656 C5.75200001,6.32 5.52800001,5.824 5.48000001,5.184 L6.43200001,5.184 C6.44800001,5.552 6.56000001,5.84 6.78400001,6.04 C6.98400001,6.224 7.24800001,6.32 7.57600001,6.32 C7.93600001,6.32 8.22400001,6.216 8.43200001,6.016 C8.61600001,5.832 8.71200001,5.608 8.71200001,5.336 C8.71200001,5.008 8.60800001,4.768 8.41600001,4.616 C8.22400001,4.456 7.94400001,4.384 7.57600001,4.384 L7.17600001,4.384 L7.17600001,3.68 L7.57600001,3.68 C7.91200001,3.68 8.16800001,3.608 8.34400001,3.464 C8.51200001,3.32 8.60000001,3.104 8.60000001,2.824 C8.60000001,2.544 8.52000001,2.336 8.36800001,2.192 C8.20000001,2.048 7.95200001,1.976 7.62400001,1.976 C7.28800001,1.976 7.03200001,2.056 6.84800001,2.224 C6.65600001,2.392 6.54400001,2.648 6.51200001,2.992 L5.59200001,2.992 C5.64000001,2.416 5.84800001,1.968 6.23200001,1.648 C6.59200001,1.328 7.05600001,1.176 7.61600001,1.176 Z M12.72,1.176 C13.384,1.176 13.904,1.448 14.28,2.008 C14.632,2.536 14.808,3.248 14.808,4.144 C14.808,5.04 14.632,5.752 14.28,6.28 C13.904,6.832 13.384,7.112 12.72,7.112 C12.048,7.112 11.528,6.832 11.16,6.28 C10.808,5.752 10.632,5.04 10.632,4.144 C10.632,3.248 10.808,2.536 11.16,2.008 C11.528,1.448 12.048,1.176 12.72,1.176 Z M12.72,1.968 C12.264,1.968 11.944,2.216 11.76,2.728 C11.632,3.072 11.568,3.544 11.568,4.144 C11.568,4.736 11.632,5.208 11.76,5.56 C11.944,6.064 12.264,6.32 12.72,6.32 C13.168,6.32 13.488,6.064 13.68,5.56 C13.808,5.208 13.872,4.736 13.872,4.144 C13.872,3.544 13.808,3.072 13.68,2.728 C13.488,2.216 13.168,1.968 12.72,1.968 Z M17.88,1.176 C18.544,1.176 19.064,1.448 19.44,2.008 C19.792,2.536 19.968,3.248 19.968,4.144 C19.968,5.04 19.792,5.752 19.44,6.28 C19.064,6.832 18.544,7.112 17.88,7.112 C17.208,7.112 16.688,6.832 16.32,6.28 C15.968,5.752 15.792,5.04 15.792,4.144 C15.792,3.248 15.968,2.536 16.32,2.008 C16.688,1.448 17.208,1.176 17.88,1.176 Z M17.88,1.968 C17.424,1.968 17.104,2.216 16.92,2.728 C16.792,3.072 16.728,3.544 16.728,4.144 C16.728,4.736 16.792,5.208 16.92,5.56 C17.104,6.064 17.424,6.32 17.88,6.32 C18.328,6.32 18.648,6.064 18.84,5.56 C18.968,5.208 19.032,4.736 19.032,4.144 C19.032,3.544 18.968,3.072 18.84,2.728 C18.648,2.216 18.328,1.968 17.88,1.968 Z M23.0400001,1.176 C23.7040001,1.176 24.2240001,1.448 24.6000001,2.008 C24.9520001,2.536 25.1280001,3.248 25.1280001,4.144 C25.1280001,5.04 24.9520001,5.752 24.6000001,6.28 C24.2240001,6.832 23.7040001,7.112 23.0400001,7.112 C22.3680001,7.112 21.8480001,6.832 21.4800001,6.28 C21.1280001,5.752 20.9520001,5.04 20.9520001,4.144 C20.9520001,3.248 21.1280001,2.536 21.4800001,2.008 C21.8480001,1.448 22.3680001,1.176 23.0400001,1.176 Z M23.0400001,1.968 C22.5840001,1.968 22.2640001,2.216 22.0800001,2.728 C21.9520001,3.072 21.8880001,3.544 21.8880001,4.144 C21.8880001,4.736 21.9520001,5.208 22.0800001,5.56 C22.2640001,6.064 22.5840001,6.32 23.0400001,6.32 C23.4880001,6.32 23.8080001,6.064 24.0000001,5.56 C24.1280001,5.208 24.1920001,4.736 24.1920001,4.144 C24.1920001,3.544 24.1280001,3.072 24.0000001,2.728 C23.8080001,2.216 23.4880001,1.968 23.0400001,1.968 Z M27.8000001,1.992 C27.9760001,1.992 28.1200001,2.048 28.2480001,2.176 C28.3680001,2.296 28.4320001,2.448 28.4320001,2.624 C28.4320001,2.8 28.3680001,2.944 28.2480001,3.064 C28.1200001,3.184 27.9760001,3.248 27.8000001,3.248 C27.6240001,3.248 27.4720001,3.184 27.3520001,3.064 C27.2320001,2.944 27.1760001,2.8 27.1760001,2.624 C27.1760001,2.448 27.2320001,2.296 27.3520001,2.176 C27.4720001,2.048 27.6240001,1.992 27.8000001,1.992 Z M27.8000001,4.92 C27.9760001,4.92 28.1200001,4.976 28.2480001,5.104 C28.3680001,5.224 28.4320001,5.376 28.4320001,5.552 C28.4320001,5.728 28.3680001,5.872 28.2480001,5.992 C28.1200001,6.112 27.9760001,6.176 27.8000001,6.176 C27.6240001,6.176 27.4720001,6.112 27.3520001,5.992 C27.2320001,5.872 27.1760001,5.728 27.1760001,5.552 C27.1760001,5.376 27.2320001,5.224 27.3520001,5.104 C27.4720001,4.976 27.6240001,4.92 27.8000001,4.92 Z" id="53000："></path>
                    <path d="M36.424,3.52 L37.008,3.576 C36.832,4.744 36.296,5.68 35.416,6.384 C34.648,7.016 33.272,7.512 31.304,7.88 L31.056,7.304 C32.864,7 34.16,6.56 34.96,5.984 C35.272,5.752 35.536,5.488 35.752,5.2 C34.664,5.352 33.296,5.48 31.632,5.592 L31.456,5.08 C32.272,4.672 33.136,4.048 34.032,3.216 C33.136,3.312 32.24,3.384 31.36,3.424 L31.216,2.912 C32.152,2.192 32.96,1.344 33.648,0.368 L34.216,0.576 C33.6,1.448 32.88,2.216 32.064,2.88 C32.896,2.84 33.728,2.776 34.56,2.696 C34.936,2.312 35.32,1.888 35.712,1.432 L36.272,1.704 C34.92,3.248 33.712,4.344 32.648,5 C33.976,4.904 35.112,4.784 36.072,4.656 C36.232,4.312 36.352,3.936 36.424,3.52 Z M40.624,1.352 L41.952,1.352 C41.824,1.104 41.68,0.872 41.52,0.656 L42.056,0.456 C42.232,0.712 42.4,1.008 42.544,1.352 L43.488,1.352 C43.68,1.064 43.856,0.76 44,0.44 L44.56,0.632 C44.424,0.904 44.28,1.144 44.12,1.352 L45.48,1.352 L45.48,1.888 L43.24,1.888 C43.184,2.112 43.112,2.328 43.032,2.536 L44.936,2.536 L44.936,6.392 L41.144,6.392 L41.144,2.536 L42.424,2.536 C42.512,2.32 42.576,2.104 42.624,1.888 L40.624,1.888 L40.624,1.352 Z M44.392,5.88 L44.392,5.216 L41.688,5.216 L41.688,5.88 L44.392,5.88 Z M41.688,4.752 L44.392,4.752 L44.392,4.144 L41.688,4.144 L41.688,4.752 Z M41.688,3.68 L44.392,3.68 L44.392,3.048 L41.688,3.048 L41.688,3.68 Z M38.968,0.592 C39.52,1.008 39.984,1.424 40.36,1.84 L39.952,2.24 C39.616,1.84 39.16,1.416 38.576,0.968 L38.968,0.592 Z M43.632,7.656 C43.2,7.656 42.728,7.648 42.216,7.64 C41.704,7.632 41.288,7.584 40.968,7.496 C40.648,7.4 40.368,7.2 40.128,6.912 C40.016,6.776 39.912,6.712 39.816,6.712 C39.624,6.712 39.304,7.072 38.848,7.808 L38.416,7.424 C38.856,6.736 39.24,6.328 39.568,6.2 L39.568,3.768 L38.392,3.768 L38.392,3.24 L40.104,3.24 L40.104,6.232 C40.168,6.28 40.232,6.344 40.296,6.416 C40.488,6.648 40.696,6.816 40.912,6.92 C41.16,7.032 41.52,7.096 41.992,7.112 C42.408,7.12 42.928,7.128 43.552,7.128 C43.928,7.128 44.312,7.12 44.704,7.112 C45.088,7.104 45.392,7.096 45.6,7.08 L45.464,7.656 L43.632,7.656 Z" id="乡道"></path>
                </g>
            </g>
        </g>
    </g>
</svg>