<?xml version="1.0" encoding="UTF-8"?>
<svg width="97px" height="34px" viewBox="0 0 97 34" version="1.1" xmlns="http://www.w3.org/2000/svg" xmlns:xlink="http://www.w3.org/1999/xlink">
    <!-- Generator: Sketch 53.1 (72631) - https://sketchapp.com -->
    <title>县乡村内部道路</title>
    <desc>Created with Sketch.</desc>
    <g id="Page-1" stroke="none" stroke-width="1" fill="none" fill-rule="evenodd">
        <g id="县乡村内部道路">
            <g transform="translate(33.000000, 21.000000)" fill="#979797" fill-opacity="0.740248033" fill-rule="nonzero" id="形状" stroke="#FFFFFF">
                <path d="M1.26153846,3.57692308 L30.6461538,3.57692308 C31.3230769,3.57692308 31.8769231,3.02307692 31.8769231,2.34615385 C31.8769231,1.66923077 31.3230769,1.11538462 30.6461538,1.11538462 L1.26153846,1.11538462 C0.584615385,1.11538462 0.0307692308,1.66923077 0.0307692308,2.34615385 C0.0307692308,3.02307692 0.584615385,3.57692308 1.26153846,3.57692308 Z M30.7384615,9.91538462 L1.35384615,9.91538462 C0.676923077,9.91538462 0.123076923,10.4692308 0.123076923,11.1461538 C0.123076923,11.8230769 0.676923077,12.3769231 1.35384615,12.3769231 L30.7384615,12.3769231 C31.4153846,12.3769231 31.9692308,11.8230769 31.9692308,11.1461538 C31.9692308,10.4692308 31.4153846,9.91538462 30.7384615,9.91538462 Z M5.75384615,5.51538462 C5.07692308,5.51538462 4.52307692,6.06923077 4.52307692,6.74615385 C4.52307692,7.42307692 5.07692308,7.97692308 5.75384615,7.97692308 L8.03076923,7.97692308 C8.70769231,7.97692308 9.26153846,7.42307692 9.26153846,6.74615385 C9.26153846,6.06923077 8.70769231,5.51538462 8.03076923,5.51538462 L5.75384615,5.51538462 L5.75384615,5.51538462 Z M14.8615385,5.51538462 C14.1846154,5.51538462 13.6307692,6.06923077 13.6307692,6.74615385 C13.6307692,7.42307692 14.1846154,7.97692308 14.8615385,7.97692308 L17.1384615,7.97692308 C17.8153846,7.97692308 18.3692308,7.42307692 18.3692308,6.74615385 C18.3692308,6.06923077 17.8153846,5.51538462 17.1384615,5.51538462 L14.8615385,5.51538462 L14.8615385,5.51538462 Z M23.9692308,5.51538462 C23.2923077,5.51538462 22.7384615,6.06923077 22.7384615,6.74615385 C22.7384615,7.42307692 23.2923077,7.97692308 23.9692308,7.97692308 L26.2461538,7.97692308 C26.9230769,7.97692308 27.4769231,7.42307692 27.4769231,6.74615385 C27.4769231,6.06923077 26.9230769,5.51538462 26.2461538,5.51538462 L23.9692308,5.51538462 Z"></path>
            </g>
            <g id="分组-5">
                <rect id="矩形" stroke="#979797" fill="#FFFFFF" x="0.5" y="0.5" width="96" height="16" rx="2"></rect>
                <g id="分组-3" transform="translate(5.000000, 4.000000)" fill="#000000" fill-rule="nonzero">
                    <path d="M0.736,1.288 L4.216,1.288 L4.216,2.112 L1.488,2.112 L1.328,3.68 L1.352,3.68 C1.528,3.504 1.728,3.376 1.96,3.296 C2.168,3.216 2.4,3.176 2.656,3.176 C3.192,3.176 3.632,3.352 3.968,3.704 C4.304,4.056 4.48,4.544 4.48,5.16 C4.48,5.752 4.256,6.232 3.808,6.608 C3.392,6.944 2.904,7.112 2.336,7.112 C1.816,7.112 1.368,6.968 1,6.688 C0.584,6.376 0.36,5.952 0.32,5.424 L1.24,5.424 C1.28,5.736 1.4,5.968 1.608,6.12 C1.784,6.248 2.032,6.32 2.344,6.32 C2.68,6.32 2.968,6.216 3.2,6.008 C3.424,5.8 3.544,5.52 3.544,5.168 C3.544,4.784 3.44,4.48 3.248,4.264 C3.056,4.04 2.768,3.936 2.4,3.936 C2.152,3.936 1.936,3.976 1.76,4.064 C1.56,4.16 1.408,4.304 1.296,4.504 L0.424,4.504 L0.736,1.288 Z M8.10400001,1.288 L8.96000001,1.288 L8.96000001,5.032 L9.80800001,5.032 L9.80800001,5.776 L8.96000001,5.776 L8.96000001,7 L8.07200001,7 L8.07200001,5.776 L5.31200001,5.776 L5.31200001,4.888 L8.10400001,1.288 Z M8.04800001,2.472 L6.07200001,5.032 L8.07200001,5.032 L8.07200001,2.472 L8.04800001,2.472 Z M12.72,1.176 C13.384,1.176 13.904,1.448 14.28,2.008 C14.632,2.536 14.808,3.248 14.808,4.144 C14.808,5.04 14.632,5.752 14.28,6.28 C13.904,6.832 13.384,7.112 12.72,7.112 C12.048,7.112 11.528,6.832 11.16,6.28 C10.808,5.752 10.632,5.04 10.632,4.144 C10.632,3.248 10.808,2.536 11.16,2.008 C11.528,1.448 12.048,1.176 12.72,1.176 Z M12.72,1.968 C12.264,1.968 11.944,2.216 11.76,2.728 C11.632,3.072 11.568,3.544 11.568,4.144 C11.568,4.736 11.632,5.208 11.76,5.56 C11.944,6.064 12.264,6.32 12.72,6.32 C13.168,6.32 13.488,6.064 13.68,5.56 C13.808,5.208 13.872,4.736 13.872,4.144 C13.872,3.544 13.808,3.072 13.68,2.728 C13.488,2.216 13.168,1.968 12.72,1.968 Z M17.88,1.176 C18.544,1.176 19.064,1.448 19.44,2.008 C19.792,2.536 19.968,3.248 19.968,4.144 C19.968,5.04 19.792,5.752 19.44,6.28 C19.064,6.832 18.544,7.112 17.88,7.112 C17.208,7.112 16.688,6.832 16.32,6.28 C15.968,5.752 15.792,5.04 15.792,4.144 C15.792,3.248 15.968,2.536 16.32,2.008 C16.688,1.448 17.208,1.176 17.88,1.176 Z M17.88,1.968 C17.424,1.968 17.104,2.216 16.92,2.728 C16.792,3.072 16.728,3.544 16.728,4.144 C16.728,4.736 16.792,5.208 16.92,5.56 C17.104,6.064 17.424,6.32 17.88,6.32 C18.328,6.32 18.648,6.064 18.84,5.56 C18.968,5.208 19.032,4.736 19.032,4.144 C19.032,3.544 18.968,3.072 18.84,2.728 C18.648,2.216 18.328,1.968 17.88,1.968 Z M23.0400001,1.176 C23.7040001,1.176 24.2240001,1.448 24.6000001,2.008 C24.9520001,2.536 25.1280001,3.248 25.1280001,4.144 C25.1280001,5.04 24.9520001,5.752 24.6000001,6.28 C24.2240001,6.832 23.7040001,7.112 23.0400001,7.112 C22.3680001,7.112 21.8480001,6.832 21.4800001,6.28 C21.1280001,5.752 20.9520001,5.04 20.9520001,4.144 C20.9520001,3.248 21.1280001,2.536 21.4800001,2.008 C21.8480001,1.448 22.3680001,1.176 23.0400001,1.176 Z M23.0400001,1.968 C22.5840001,1.968 22.2640001,2.216 22.0800001,2.728 C21.9520001,3.072 21.8880001,3.544 21.8880001,4.144 C21.8880001,4.736 21.9520001,5.208 22.0800001,5.56 C22.2640001,6.064 22.5840001,6.32 23.0400001,6.32 C23.4880001,6.32 23.8080001,6.064 24.0000001,5.56 C24.1280001,5.208 24.1920001,4.736 24.1920001,4.144 C24.1920001,3.544 24.1280001,3.072 24.0000001,2.728 C23.8080001,2.216 23.4880001,1.968 23.0400001,1.968 Z M27.8000001,1.992 C27.9760001,1.992 28.1200001,2.048 28.2480001,2.176 C28.3680001,2.296 28.4320001,2.448 28.4320001,2.624 C28.4320001,2.8 28.3680001,2.944 28.2480001,3.064 C28.1200001,3.184 27.9760001,3.248 27.8000001,3.248 C27.6240001,3.248 27.4720001,3.184 27.3520001,3.064 C27.2320001,2.944 27.1760001,2.8 27.1760001,2.624 C27.1760001,2.448 27.2320001,2.296 27.3520001,2.176 C27.4720001,2.048 27.6240001,1.992 27.8000001,1.992 Z M27.8000001,4.92 C27.9760001,4.92 28.1200001,4.976 28.2480001,5.104 C28.3680001,5.224 28.4320001,5.376 28.4320001,5.552 C28.4320001,5.728 28.3680001,5.872 28.2480001,5.992 C28.1200001,6.112 27.9760001,6.176 27.8000001,6.176 C27.6240001,6.176 27.4720001,6.112 27.3520001,5.992 C27.2320001,5.872 27.1760001,5.728 27.1760001,5.552 C27.1760001,5.376 27.2320001,5.224 27.3520001,5.104 C27.4720001,4.976 27.6240001,4.92 27.8000001,4.92 Z" id="54000："></path>
                    <path d="M32.352,5.008 L33.888,5.008 L33.888,0.776 L38.344,0.776 L38.344,5.008 L39.624,5.008 L39.624,5.56 L35.312,5.56 C34.968,6.152 34.56,6.664 34.096,7.112 C35.4,7.04 36.64,6.92 37.824,6.76 C37.6,6.504 37.36,6.24 37.104,5.968 L37.552,5.688 C38.248,6.376 38.784,6.984 39.152,7.504 L38.664,7.848 C38.52,7.64 38.368,7.424 38.192,7.2 C36.928,7.392 35.32,7.544 33.376,7.656 L33.208,7.144 C33.352,7.112 33.448,7.064 33.512,7 C33.976,6.536 34.368,6.056 34.672,5.56 L32.352,5.56 L32.352,5.008 Z M37.768,5.008 L37.768,4.12 L34.456,4.12 L34.456,5.008 L37.768,5.008 Z M34.456,3.592 L37.768,3.592 L37.768,2.736 L34.456,2.736 L34.456,3.592 Z M34.456,2.208 L37.768,2.208 L37.768,1.312 L34.456,1.312 L34.456,2.208 Z M46.384,3.52 L46.968,3.576 C46.792,4.744 46.256,5.68 45.376,6.384 C44.608,7.016 43.232,7.512 41.264,7.88 L41.016,7.304 C42.824,7 44.12,6.56 44.92,5.984 C45.232,5.752 45.496,5.488 45.712,5.2 C44.624,5.352 43.256,5.48 41.592,5.592 L41.416,5.08 C42.232,4.672 43.096,4.048 43.992,3.216 C43.096,3.312 42.2,3.384 41.32,3.424 L41.176,2.912 C42.112,2.192 42.92,1.344 43.608,0.368 L44.176,0.576 C43.56,1.448 42.84,2.216 42.024,2.88 C42.856,2.84 43.688,2.776 44.52,2.696 C44.896,2.312 45.28,1.888 45.672,1.432 L46.232,1.704 C44.88,3.248 43.672,4.344 42.608,5 C43.936,4.904 45.072,4.784 46.032,4.656 C46.192,4.312 46.312,3.936 46.384,3.52 Z M48.4,2.032 L49.68,2.032 L49.68,0.472 L50.256,0.472 L50.256,2.032 L51.2,2.032 L51.2,2.584 L50.256,2.584 L50.256,3.096 C50.648,3.488 51.04,3.928 51.44,4.424 L51.104,4.92 C50.776,4.384 50.496,3.952 50.256,3.632 L50.256,7.76 L49.68,7.76 L49.68,3.632 C49.376,4.488 48.976,5.264 48.472,5.96 L48.216,5.32 C48.88,4.52 49.36,3.608 49.648,2.584 L48.4,2.584 L48.4,2.032 Z M52.192,3.496 C52.72,4.208 53.128,4.832 53.408,5.368 L52.944,5.704 C52.64,5.128 52.232,4.488 51.72,3.792 L52.192,3.496 Z M53.888,7.704 L52.528,7.704 L52.408,7.144 C52.856,7.16 53.28,7.176 53.688,7.176 C53.928,7.176 54.048,7.04 54.048,6.776 L54.048,2.632 L51.592,2.632 L51.592,2.08 L54.048,2.08 L54.048,0.512 L54.624,0.512 L54.624,2.08 L55.48,2.08 L55.48,2.632 L54.624,2.632 L54.624,6.928 C54.624,7.44 54.376,7.704 53.888,7.704 Z M59.856,3.744 C59.528,4.656 58.904,5.408 57.976,6.016 L57.592,5.544 C58.488,4.952 59.08,4.216 59.368,3.328 C59.456,3.016 59.528,2.68 59.584,2.312 L57.304,2.312 L57.304,7.792 L56.72,7.792 L56.72,1.752 L59.648,1.752 C59.688,1.344 59.712,0.904 59.712,0.44 L60.296,0.44 C60.296,0.912 60.272,1.352 60.24,1.752 L63.048,1.752 L63.048,6.904 C63.048,7.44 62.784,7.712 62.272,7.712 L61.016,7.712 L60.856,7.136 L62.08,7.168 C62.336,7.168 62.464,7.032 62.464,6.776 L62.464,2.312 L60.176,2.312 C60.136,2.616 60.088,2.904 60.024,3.168 C60.856,3.952 61.552,4.728 62.12,5.488 L61.688,5.928 C61.224,5.24 60.608,4.512 59.856,3.744 Z M65.344,2.096 C65.536,2.464 65.72,2.912 65.88,3.44 L66.72,3.44 C66.952,3 67.152,2.528 67.312,2.032 L67.848,2.216 C67.68,2.672 67.496,3.08 67.288,3.44 L68.256,3.44 L68.256,4 L64.248,4 L64.248,3.44 L65.328,3.44 C65.184,3.024 65.016,2.64 64.816,2.288 L65.344,2.096 Z M68.624,0.8 L71.248,0.8 L71.248,1.232 C71,2.072 70.736,2.856 70.448,3.576 C71.048,4.328 71.352,4.952 71.36,5.432 C71.36,5.928 71.256,6.272 71.048,6.464 C70.824,6.656 70.384,6.76 69.728,6.76 L69.544,6.152 C69.768,6.168 69.952,6.184 70.104,6.184 C70.392,6.168 70.576,6.112 70.656,6.016 C70.736,5.912 70.776,5.72 70.784,5.432 C70.776,4.96 70.456,4.344 69.832,3.576 C70.096,2.944 70.36,2.192 70.616,1.328 L69.184,1.328 L69.184,7.784 L68.624,7.784 L68.624,0.8 Z M64.4,1.24 L66.008,1.24 C65.912,0.976 65.816,0.736 65.712,0.52 L66.304,0.416 C66.392,0.656 66.48,0.936 66.568,1.24 L68.2,1.24 L68.2,1.8 L64.4,1.8 L64.4,1.24 Z M67.888,4.728 L67.888,7.744 L67.32,7.744 L67.32,7.296 L65.272,7.296 L65.272,7.744 L64.704,7.744 L64.704,4.728 L67.888,4.728 Z M65.272,6.752 L67.32,6.752 L67.32,5.272 L65.272,5.272 L65.272,6.752 Z M74.464,1.352 L75.792,1.352 C75.664,1.104 75.52,0.872 75.36,0.656 L75.896,0.456 C76.072,0.712 76.24,1.008 76.384,1.352 L77.328,1.352 C77.52,1.064 77.696,0.76 77.84,0.44 L78.4,0.632 C78.264,0.904 78.12,1.144 77.96,1.352 L79.32,1.352 L79.32,1.888 L77.08,1.888 C77.024,2.112 76.952,2.328 76.872,2.536 L78.776,2.536 L78.776,6.392 L74.984,6.392 L74.984,2.536 L76.264,2.536 C76.352,2.32 76.416,2.104 76.464,1.888 L74.464,1.888 L74.464,1.352 Z M78.232,5.88 L78.232,5.216 L75.528,5.216 L75.528,5.88 L78.232,5.88 Z M75.528,4.752 L78.232,4.752 L78.232,4.144 L75.528,4.144 L75.528,4.752 Z M75.528,3.68 L78.232,3.68 L78.232,3.048 L75.528,3.048 L75.528,3.68 Z M72.808,0.592 C73.36,1.008 73.824,1.424 74.2,1.84 L73.792,2.24 C73.456,1.84 73,1.416 72.416,0.968 L72.808,0.592 Z M77.472,7.656 C77.04,7.656 76.568,7.648 76.056,7.64 C75.544,7.632 75.128,7.584 74.808,7.496 C74.488,7.4 74.208,7.2 73.968,6.912 C73.856,6.776 73.752,6.712 73.656,6.712 C73.464,6.712 73.144,7.072 72.688,7.808 L72.256,7.424 C72.696,6.736 73.08,6.328 73.408,6.2 L73.408,3.768 L72.232,3.768 L72.232,3.24 L73.944,3.24 L73.944,6.232 C74.008,6.28 74.072,6.344 74.136,6.416 C74.328,6.648 74.536,6.816 74.752,6.92 C75,7.032 75.36,7.096 75.832,7.112 C76.248,7.12 76.768,7.128 77.392,7.128 C77.768,7.128 78.152,7.12 78.544,7.112 C78.928,7.104 79.232,7.096 79.44,7.08 L79.304,7.656 L77.472,7.656 Z M80.488,0.784 L82.952,0.784 L82.952,3.296 L82.152,3.296 L82.152,4.584 L82.984,4.584 L82.984,5.128 L82.152,5.128 L82.152,6.616 C82.504,6.504 82.848,6.392 83.168,6.272 L83.168,6.848 C82.336,7.16 81.36,7.448 80.248,7.712 L80.088,7.152 L80.512,7.056 L80.512,4.152 L81.024,4.152 L81.024,6.928 C81.224,6.88 81.424,6.824 81.616,6.776 L81.616,3.296 L80.488,3.296 L80.488,0.784 Z M82.4,2.768 L82.4,1.312 L81.048,1.312 L81.048,2.768 L82.4,2.768 Z M86.768,4.808 L86.768,7.776 L86.216,7.776 L86.216,7.424 L84.2,7.424 L84.2,7.776 L83.648,7.776 L83.648,4.808 L86.768,4.808 Z M84.2,6.896 L86.216,6.896 L86.216,5.328 L84.2,5.328 L84.2,6.896 Z M84.464,0.448 L85.016,0.552 C84.952,0.752 84.88,0.944 84.8,1.136 L86.784,1.136 L86.784,1.552 C86.512,2.224 86.112,2.816 85.592,3.328 C86.12,3.76 86.76,4.096 87.504,4.328 L87.176,4.8 C86.384,4.544 85.72,4.176 85.184,3.696 C84.64,4.136 84,4.512 83.248,4.832 L82.904,4.368 C83.64,4.072 84.264,3.72 84.792,3.304 C84.504,2.992 84.264,2.656 84.064,2.288 C83.856,2.528 83.624,2.744 83.368,2.952 L83.024,2.496 C83.728,1.944 84.208,1.264 84.464,0.448 Z M84.392,1.848 C84.608,2.264 84.872,2.64 85.192,2.96 C85.6,2.56 85.928,2.128 86.176,1.648 L84.528,1.648 C84.48,1.712 84.44,1.784 84.392,1.848 Z" id="县乡村内部道路"></path>
                </g>
            </g>
        </g>
    </g>
</svg>