<?xml version="1.0" encoding="UTF-8"?>
<svg width="32px" height="32px" viewBox="0 0 32 32" version="1.1" xmlns="http://www.w3.org/2000/svg" xmlns:xlink="http://www.w3.org/1999/xlink">
    <!-- Generator: Sketch 53.1 (72631) - https://sketchapp.com -->
    <title>环形交叉口</title>
    <desc>Created with Sketch.</desc>
    <g id="Page-1" stroke="none" stroke-width="1" fill="none" fill-rule="evenodd">
        <g id="环形交叉口" fill="#4897FD" fill-rule="nonzero">
            <path d="M16,10 C12.6915,10 10,12.6915 10,16 C10,19.3085 12.6915,22 16,22 C19.3085,22 22,19.3085 22,16 C22,12.6915 19.3085,10 16,10 Z M16,20 C13.7945,20 12,18.2055 12,16 C12,13.7945 13.7945,12 16,12 C18.2055,12 20,13.7945 20,16 C20,18.2055 18.2055,20 16,20 Z" id="形状"></path>
            <path d="M31,13 L25.533,13 C24.5448349,9.89090673 22.1090176,7.45490309 19,6.4665 L19,1 C19,0.44771525 18.5522847,3.38176876e-17 18,0 L14,0 C13.4477153,-3.38176876e-17 13,0.44771525 13,1 L13,6.4665 C9.89098237,7.45490309 7.45516514,9.89090673 6.467,13 L1,13 C0.44771525,13 6.76353751e-17,13.4477153 0,14 L0,18 C6.76353751e-17,18.5522847 0.44771525,19 1,19 L6.467,19 C7.4435,22.0975 9.903,24.5565 13,25.5335 L13,31 C13,31.5522847 13.4477153,32 14,32 L18,32 C18.5522847,32 19,31.5522847 19,31 L19,25.5335 C22.097,24.5565 24.5565,22.0975 25.533,19 L31,19 C31.5522847,19 32,18.5522847 32,18 L32,14 C32,13.4477153 31.5522847,13 31,13 Z M30,17 L24.769,17 C24.3021147,17.0000749 23.8974151,17.323212 23.794,17.7785 C23.117,20.756 20.756,23.1175 17.7785,23.794 C17.323212,23.8974151 17.0000749,24.3021147 17,24.769 L17,30 L15,30 L15,24.769 C14.9999251,24.3021147 14.676788,23.8974151 14.2215,23.794 C11.244,23.117 8.8825,20.756 8.206,17.7785 C8.10258491,17.323212 7.69788529,17.0000749 7.231,17 L2,17 L2,15 L7.231,15 C7.69788529,14.9999251 8.10258491,14.676788 8.206,14.2215 C8.883,11.2435 11.244,8.8825 14.2215,8.2055 C14.6766832,8.1019178 14.9997389,7.69732004 15,7.2305 L15,2 L17,2 L17,7.2305 C17.0000749,7.69738529 17.323212,8.10208491 17.7785,8.2055 C20.756,8.8825 23.1175,11.2435 23.794,14.2215 C23.8974151,14.676788 24.3021147,14.9999251 24.769,15 L30,15 L30,17 Z" id="形状"></path>
        </g>
    </g>
</svg>