<?xml version="1.0" encoding="UTF-8"?>
<svg width="26px" height="30px" viewBox="0 0 26 30" version="1.1" xmlns="http://www.w3.org/2000/svg" xmlns:xlink="http://www.w3.org/1999/xlink">
    <!-- Generator: Sketch 53.1 (72631) - https://sketchapp.com -->
    <title>路段</title>
    <desc>Created with Sketch.</desc>
    <g id="Page-1" stroke="none" stroke-width="1" fill="none" fill-rule="evenodd">
        <g id="路段" fill="#4897FD" fill-rule="nonzero">
            <path d="M12.9921922,0.0312312468 L12.9921922,0.0312312468 C13.6584584,0.0312312468 13.9915916,0.364364375 13.9915916,1.03063063 L13.9915916,5.02822821 C13.9915916,5.69449447 13.6584585,6.02762761 12.9921922,6.02762764 L12.9921922,6.02762764 C12.3259259,6.02762764 11.9927928,5.6944945 11.9927928,5.02822821 L11.9927928,1.03063063 C11.9927928,0.364364375 12.3259259,0.0312312468 12.9921922,0.0312312468 Z" id="路径"></path>
            <path d="M12.9921922,16.0216216 L12.9921922,16.0216216 C13.6584584,16.0216216 13.9915916,16.3547547 13.9915916,17.021021 L13.9915916,21.0186186 C13.9915916,21.6848849 13.6584585,22.018018 12.9921922,22.018018 L12.9921922,22.018018 C12.3259259,22.018018 11.9927928,21.6848849 11.9927928,21.0186186 L11.9927928,17.021021 C11.9927928,16.3547547 12.3259259,16.0216216 12.9921922,16.0216216 Z" id="路径"></path>
            <path d="M12.9921922,8.02642641 L12.9921922,8.02642641 C13.6584584,8.02642641 13.9915916,8.35955955 13.9915916,9.02582584 L13.9915916,13.0234234 C13.9915916,13.6896897 13.6584585,14.0228228 12.9921922,14.0228228 L12.9921922,14.0228228 C12.3259259,14.0228228 11.9927928,13.6896897 11.9927928,13.0234234 L11.9927928,9.02582584 C11.9927928,8.35955959 12.3259259,8.02642644 12.9921922,8.02642641 Z" id="路径"></path>
            <path d="M12.9921922,24.0168168 L12.9921922,24.0168168 C13.6584584,24.0168168 13.9915916,24.34995 13.9915916,25.0162162 L13.9915916,29.0138138 C13.9915916,29.6800801 13.6584585,30.0132132 12.9921922,30.0132132 L12.9921922,30.0132132 C12.3259259,30.0132132 11.9927928,29.6800801 11.9927928,29.0138138 L11.9927928,25.0162162 C11.9927928,24.34995 12.3259259,24.0168168 12.9921922,24.0168168 Z" id="路径"></path>
            <path d="M0.999399384,0.0312312468 L0.999399384,0.0312312468 C1.66566564,0.0312312468 1.99879878,0.364364375 1.99879881,1.03063063 L1.99879881,29.0138138 C1.99879881,29.6800801 1.66566567,30.0132132 0.999399384,30.0132132 L0.999399384,30.0132132 C0.333133128,30.0132132 -2.84217094e-14,29.6800801 -2.84217094e-14,29.0138138 L-2.84217094e-14,1.03063063 C-2.84217094e-14,0.364364375 0.333133128,0.0312312468 0.999399384,0.0312312468 Z" id="路径"></path>
            <path d="M24.984985,0.0312312468 L24.984985,0.0312312468 C25.6512512,0.0312312468 25.9843844,0.364364375 25.9843844,1.03063063 L25.9843844,29.0138138 C25.9843844,29.6800801 25.6512513,30.0132132 24.984985,30.0132132 L24.984985,30.0132132 C24.3187187,30.0132132 23.9855856,29.6800801 23.9855856,29.0138138 L23.9855856,1.03063063 C23.9855856,0.364364375 24.3187187,0.0312312468 24.984985,0.0312312468 Z" id="路径"></path>
        </g>
    </g>
</svg>