<?xml version="1.0" encoding="UTF-8"?>
<svg width="29px" height="30px" viewBox="0 0 29 30" version="1.1" xmlns="http://www.w3.org/2000/svg" xmlns:xlink="http://www.w3.org/1999/xlink">
    <!-- Generator: Sketch 53.1 (72631) - https://sketchapp.com -->
    <title>斜交路口</title>
    <desc>Created with Sketch.</desc>
    <g id="Page-1" stroke="none" stroke-width="1" fill="none" fill-rule="evenodd">
        <g id="斜交路口" fill="#4897FD" fill-rule="nonzero">
            <path d="M13.9681875,23.6052187 L7.6850625,29.88975 L5.59115625,27.7944375 L13.9681875,19.416 L22.346625,27.7944375 L20.2527188,29.88975 L13.9681875,23.6052187 Z M22.6151562,14.95825 L28.8996875,21.2428125 L26.804375,23.3367187 L18.4259375,14.9582812 L26.804375,6.57984375 L28.8996875,8.67515625 L22.6151562,14.9582812 L22.6151562,14.95825 Z M8.404375,17.0535625 L2.11984375,23.3366875 L0.0259375,21.2428125 L6.3090625,14.9582812 L0.0259375,8.67515625 L2.11984375,6.57984375 L10.4996875,14.9582812 L8.40575,17.0535937 L8.404375,17.0535625 Z M11.8742812,8.40521875 L5.59115625,2.12209375 L7.6850625,0.02959375 L13.9681875,6.31271875 L20.2527187,0.02959375 L22.346625,2.12346875 L13.9681875,10.5019062 L11.8742812,8.408 L11.8742812,8.40521875 Z" id="形状"></path>
        </g>
    </g>
</svg>