<?xml version="1.0" encoding="UTF-8"?>
<svg width="35px" height="34px" viewBox="0 0 35 34" version="1.1" xmlns="http://www.w3.org/2000/svg" xmlns:xlink="http://www.w3.org/1999/xlink">
    <!-- Generator: Sketch 53.1 (72631) - https://sketchapp.com -->
    <title>其他 </title>
    <desc>Created with Sketch.</desc>
    <g id="Page-1" stroke="none" stroke-width="1" fill="none" fill-rule="evenodd">
        <g id="其他-" fill="#4897FD" fill-rule="nonzero">
            <g id="其他">
                <path d="M10.536,14.096 L11.856,14.096 L11.856,13.424 L12.632,13.424 L12.632,14.096 L15.368,14.096 L15.368,13.424 L16.144,13.424 L16.144,14.096 L17.464,14.096 L17.464,14.808 L16.144,14.808 L16.144,18.28 L17.616,18.28 L17.616,18.984 L10.392,18.984 L10.392,18.28 L11.856,18.28 L11.856,14.808 L10.536,14.808 L10.536,14.096 Z M12.632,18.28 L15.368,18.28 L15.368,17.528 L12.632,17.528 L12.632,18.28 Z M12.632,16.88 L15.368,16.88 L15.368,16.168 L12.632,16.168 L12.632,16.88 Z M12.632,15.52 L15.368,15.52 L15.368,14.808 L12.632,14.808 L12.632,15.52 Z M12.816,19.072 L13.352,19.552 C12.712,20.032 11.928,20.448 10.984,20.808 L10.504,20.192 C11.416,19.872 12.192,19.496 12.816,19.072 Z M15.088,19.104 C15.968,19.392 16.776,19.744 17.496,20.152 L17.08,20.808 C16.304,20.328 15.512,19.952 14.704,19.68 L15.088,19.104 Z M19.92,13.376 L20.608,13.696 C20.424,14.28 20.192,14.84 19.904,15.376 L19.904,20.84 L19.16,20.84 L19.16,16.552 C18.936,16.848 18.696,17.136 18.44,17.424 L18.192,16.648 C18.976,15.704 19.552,14.616 19.92,13.376 Z M24.504,20.672 L21.792,20.672 C21.152,20.672 20.832,20.336 20.832,19.68 L20.832,16.68 L20.176,16.88 L20.176,16.104 L20.832,15.896 L20.832,14.176 L21.592,14.176 L21.592,15.656 L22.592,15.344 L22.592,13.432 L23.344,13.432 L23.344,15.104 L25.096,14.552 C25.096,16.312 25.048,17.384 24.968,17.76 C24.888,18.128 24.536,18.312 23.928,18.312 L23.832,18.312 L23.608,17.576 C23.784,17.584 23.944,17.592 24.088,17.592 C24.2,17.592 24.264,17.504 24.288,17.328 C24.304,17.168 24.32,16.592 24.328,15.592 L23.344,15.896 L23.344,19.056 L22.592,19.056 L22.592,16.128 L21.592,16.44 L21.592,19.576 C21.592,19.816 21.72,19.944 21.976,19.944 L24.376,19.944 C24.552,19.944 24.688,19.888 24.768,19.784 C24.84,19.672 24.888,19.296 24.912,18.64 L25.632,18.88 C25.576,19.72 25.48,20.232 25.336,20.408 C25.176,20.584 24.904,20.672 24.504,20.672 Z"></path>
                <g id="掉头口-copy">
                    <polygon id="路径" points="12 0 13 0 13 12.5 12 12.5"></polygon>
                    <polygon id="路径" points="23 0 24 0 24 12.5 23 12.5"></polygon>
                    <polygon id="路径" points="12 21.5 13 21.5 13 34 12 34"></polygon>
                    <polygon id="路径" points="23 21.5 24 21.5 24 34 23 34"></polygon>
                    <polygon id="路径" points="0 22 12 22 12 23 0 23"></polygon>
                    <polygon id="路径" points="0 12 12 12 12 13 0 13"></polygon>
                    <polygon id="路径" points="23 22 35 22 35 23 23 23"></polygon>
                    <polygon id="路径" points="23 12 35 12 35 13 23 13"></polygon>
                </g>
            </g>
        </g>
    </g>
</svg>