<?xml version="1.0" encoding="UTF-8"?>
<svg width="28px" height="28px" viewBox="0 0 28 28" version="1.1" xmlns="http://www.w3.org/2000/svg" xmlns:xlink="http://www.w3.org/1999/xlink">
    <!-- Generator: Sketch 53.1 (72631) - https://sketchapp.com -->
    <title>标准路口</title>
    <desc>Created with Sketch.</desc>
    <g id="Page-1" stroke="none" stroke-width="1" fill="none" fill-rule="evenodd">
        <g id="标准路口" fill="#4897FD" fill-rule="nonzero">
            <path d="M21.971875,9.16875 C20.13125,9.16875 18.325,7.41875 18.325,5.6375 L18.325,0.01875 L9.175,0.01875 L9.175,5.509375 C9.175,7.35625 7.34375,9.171875 5.48125,9.171875 L0.021875,9.171875 L0.021875,18.325 L5.471875,18.325 C7.340625,18.325 9.175,20.15625 9.175,22.01875 L9.175,27.475 L18.328125,27.475 L18.328125,21.940625 C18.328125,20.215625 20.2125,18.321875 21.925,18.321875 L27.478125,18.321875 L27.478125,9.16875 L21.971875,9.16875 Z M9.175,17.40625 L6.428125,17.40625 L6.428125,15.575 L9.175,15.575 L9.175,17.40625 Z M9.175,14.6625 L6.428125,14.6625 L6.428125,12.83125 L9.175,12.83125 L9.175,14.6625 Z M9.175,11.915625 L6.428125,11.915625 L6.428125,10.084375 L9.175,10.084375 L9.175,11.915625 Z M11.91875,21.06875 L10.0875,21.06875 L10.0875,18.321875 L11.91875,18.321875 L11.91875,21.06875 Z M11.91875,9.16875 L10.0875,9.16875 L10.0875,6.425 L11.91875,6.425 L11.91875,9.16875 Z M14.665625,21.06875 L12.834375,21.06875 L12.834375,18.321875 L14.665625,18.321875 L14.665625,21.06875 Z M14.665625,9.16875 L12.834375,9.16875 L12.834375,6.425 L14.665625,6.425 L14.665625,9.16875 Z M17.409375,21.06875 L15.578125,21.06875 L15.578125,18.321875 L17.409375,18.321875 L17.409375,21.06875 Z M17.409375,9.16875 L15.578125,9.16875 L15.578125,6.425 L17.409375,6.425 L17.409375,9.16875 Z M21.071875,17.40625 L18.325,17.40625 L18.325,15.575 L21.071875,15.575 L21.071875,17.40625 Z M21.071875,14.6625 L18.325,14.6625 L18.325,12.83125 L21.071875,12.83125 L21.071875,14.6625 Z M21.071875,11.915625 L18.325,11.915625 L18.325,10.084375 L21.071875,10.084375 L21.071875,11.915625 Z" id="形状"></path>
        </g>
    </g>
</svg>