<?xml version="1.0" encoding="UTF-8"?>
<svg width="21px" height="32px" viewBox="0 0 21 32" version="1.1" xmlns="http://www.w3.org/2000/svg" xmlns:xlink="http://www.w3.org/1999/xlink">
    <!-- Generator: Sketch 53.1 (72631) - https://sketchapp.com -->
    <title>路段行人过街-东西</title>
    <desc>Created with Sketch.</desc>
    <g id="Page-1" stroke="none" stroke-width="1" fill="none" fill-rule="evenodd">
        <g id="路段行人过街-东西" fill="#4897FD" fill-rule="nonzero">
            <path d="M3.56018519,20.7407408 L4.15277778,20.7407408 L4.15277778,22.5185185 L3.56018519,22.5185185 L3.56018519,20.7407408 Z M3.56018519,23.1111111 L4.15277778,23.1111111 L4.15277778,24.8888889 L3.56018519,24.8888889 L3.56018519,23.1111111 Z M3.56018519,25.4814815 L4.15277778,25.4814815 L4.15277778,27.2592592 L3.56018519,27.2592592 L3.56018519,25.4814815 Z M3.56018519,27.8518518 L4.15277778,27.8518518 L4.15277778,29.6296296 L3.56018519,29.6296296 L3.56018519,27.8518518 Z M3.56018519,30.2222222 L4.15277778,30.2222222 L4.15277778,32 L3.56018519,32 L3.56018519,30.2222222 Z" id="形状"></path>
            <path d="M6.52314816,20.7407408 L7.11574075,20.7407408 L7.11574075,22.5185185 L6.52314816,22.5185185 L6.52314816,20.7407408 Z M6.52314816,23.1111111 L7.11574075,23.1111111 L7.11574075,24.8888889 L6.52314816,24.8888889 L6.52314816,23.1111111 Z M6.52314816,25.4814815 L7.11574075,25.4814815 L7.11574075,27.2592592 L6.52314816,27.2592592 L6.52314816,25.4814815 Z M6.52314816,27.8518518 L7.11574075,27.8518518 L7.11574075,29.6296296 L6.52314816,29.6296296 L6.52314816,27.8518518 Z M6.52314816,30.2222222 L7.11574075,30.2222222 L7.11574075,32 L6.52314816,32 L6.52314816,30.2222222 Z" id="形状"></path>
            <polygon id="路径" points="14.2268518 32 13.6342592 32 13.6342592 21.3333333 14.2268518 21.3333333"></polygon>
            <polygon id="路径" points="10.6712963 32 10.0787037 32 10.0787037 21.3333333 10.6712963 21.3333333"></polygon>
            <polygon id="路径" points="17.1898148 32 16.5972222 32 16.5972222 21.3333333 17.1898148 21.3333333"></polygon>
            <polygon id="路径" points="0.597222219 32 0.004629625 32 0.004629625 20.7407408 0.597222219 20.7407408"></polygon>
            <polygon id="路径" points="20.7453704 32 20.1527778 32 20.1527778 20.7407408 20.7453704 20.7407408"></polygon>
            <polygon id="路径" points="20.1527778 20.7407408 20.1527778 21.3333333 10.0787037 21.3333333 10.0787037 20.7407408 20.1527778 20.7407408"></polygon>
            <path d="M17.1898148,11.2592592 L16.5972222,11.2592592 L16.5972222,9.48148147 L17.1898148,9.48148147 L17.1898148,11.2592592 Z M17.1898148,8.88888887 L16.5972222,8.88888887 L16.5972222,7.11111112 L17.1898148,7.11111112 L17.1898148,8.88888887 Z M17.1898148,6.51851853 L16.5972222,6.51851853 L16.5972222,4.74074075 L17.1898148,4.74074075 L17.1898148,6.51851853 L17.1898148,6.51851853 Z M17.1898148,4.14814816 L16.5972222,4.14814816 L16.5972222,2.37037037 L17.1898148,2.37037037 L17.1898148,4.14814816 L17.1898148,4.14814816 Z M17.1898148,1.77777778 L16.5972222,1.77777778 L16.5972222,0 L17.1898148,0 L17.1898148,1.77777778 L17.1898148,1.77777778 Z" id="形状"></path>
            <path d="M14.2268518,11.2592592 L13.6342592,11.2592592 L13.6342592,9.48148147 L14.2268518,9.48148147 L14.2268518,11.2592592 Z M14.2268518,8.88888887 L13.6342592,8.88888887 L13.6342592,7.11111112 L14.2268518,7.11111112 L14.2268518,8.88888887 Z M14.2268518,6.51851853 L13.6342592,6.51851853 L13.6342592,4.74074075 L14.2268518,4.74074075 L14.2268518,6.51851853 L14.2268518,6.51851853 Z M14.2268518,4.14814816 L13.6342592,4.14814816 L13.6342592,2.37037037 L14.2268518,2.37037037 L14.2268518,4.14814816 L14.2268518,4.14814816 Z M14.2268518,1.77777778 L13.6342592,1.77777778 L13.6342592,0 L14.2268518,0 L14.2268518,1.77777778 L14.2268518,1.77777778 Z" id="形状"></path>
            <polygon id="路径" points="6.52314816 0 7.11574075 0 7.11574075 10.6666667 6.52314816 10.6666667"></polygon>
            <polygon id="路径" points="10.0787037 0 10.6712963 0 10.6712963 10.6666667 10.0787037 10.6666667"></polygon>
            <polygon id="路径" points="3.56018519 0 4.15277778 0 4.15277778 10.6666667 3.56018519 10.6666667"></polygon>
            <polygon id="路径" points="20.1527778 0 20.7453704 0 20.7453704 11.2592592 20.1527778 11.2592592"></polygon>
            <polygon id="路径" points="0.004629625 0 0.597222219 0 0.597222219 11.2592592 0.004629625 11.2592592"></polygon>
            <polygon id="路径" points="0.597222219 11.2592592 0.597222219 10.6666667 10.6712963 10.6666667 10.6712963 11.2592592"></polygon>
            <path d="M12.4490741,13.6296296 L13.6342592,13.6296296 L13.6342592,18.3703704 L12.4490741,18.3703704 L12.4490741,13.6296296 Z M10.6712963,13.6296296 L11.8564815,13.6296296 L11.8564815,18.3703704 L10.6712963,18.3703704 L10.6712963,13.6296296 Z M8.89351853,13.6296296 L10.0787037,13.6296296 L10.0787037,18.3703704 L8.89351853,18.3703704 L8.89351853,13.6296296 Z M7.11574075,13.6296296 L8.30092594,13.6296296 L8.30092594,18.3703704 L7.11574075,18.3703704 L7.11574075,13.6296296 Z M5.33796297,13.6296296 L6.52314816,13.6296296 L6.52314816,18.3703704 L5.33796297,18.3703704 L5.33796297,13.6296296 Z M3.56018519,13.6296296 L4.74537037,13.6296296 L4.74537037,18.3703704 L3.56018519,18.3703704 L3.56018519,13.6296296 Z M1.78240741,13.6296296 L2.96759259,13.6296296 L2.96759259,18.3703704 L1.78240741,18.3703704 L1.78240741,13.6296296 Z M0.004629625,13.6296296 L1.18981481,13.6296296 L1.18981481,18.3703704 L0.004629625,18.3703704 L0.004629625,13.6296296 Z M14.2268518,13.6296296 L15.412037,13.6296296 L15.412037,18.3703704 L14.2268518,18.3703704 L14.2268518,13.6296296 Z M16.0046296,13.6296296 L17.1898148,13.6296296 L17.1898148,18.3703704 L16.0046296,18.3703704 L16.0046296,13.6296296 Z M17.7824074,13.6296296 L18.9675926,13.6296296 L18.9675926,18.3703704 L17.7824074,18.3703704 L17.7824074,13.6296296 Z M19.5601852,13.6296296 L20.7453704,13.6296296 L20.7453704,18.3703704 L19.5601852,18.3703704 L19.5601852,13.6296296 Z" id="形状"></path>
        </g>
    </g>
</svg>