<?xml version="1.0" encoding="UTF-8"?>
<svg width="35px" height="34px" viewBox="0 0 35 34" version="1.1" xmlns="http://www.w3.org/2000/svg" xmlns:xlink="http://www.w3.org/1999/xlink">
    <!-- Generator: Sketch 53.1 (72631) - https://sketchapp.com -->
    <title>虚拟路口</title>
    <desc>Created with Sketch.</desc>
    <g id="Page-1" stroke="none" stroke-width="1" fill="none" fill-rule="evenodd">
        <g id="虚拟路口" fill="#4897FD">
            <g fill-rule="nonzero" id="掉头口-copy-3">
                <g>
                    <polygon id="路径" points="12 0 13 0 13 12.5 12 12.5"></polygon>
                    <polygon id="路径" points="23 0 24 0 24 12.5 23 12.5"></polygon>
                    <polygon id="路径" points="12 21.5 13 21.5 13 34 12 34"></polygon>
                    <polygon id="路径" points="23 21.5 24 21.5 24 34 23 34"></polygon>
                    <polygon id="路径" points="0 22 12 22 12 23 0 23"></polygon>
                    <polygon id="路径" points="0 12 12 12 12 13 0 13"></polygon>
                    <polygon id="路径" points="23 22 35 22 35 23 23 23"></polygon>
                    <polygon id="路径" points="23 12 35 12 35 13 23 13"></polygon>
                </g>
            </g>
            <text id="其它" font-family="PingFangSC-Medium, PingFang SC" font-size="8" font-weight="400" letter-spacing="-0.0399999991">
                <tspan x="14" y="20">虚</tspan>
            </text>
            <path d="M20.578125,16.3242188 C20.968752,16.4700528 21.2942695,16.5794267 21.5546875,16.6523438 C21.4192702,17.2773469 21.2213555,17.6158852 20.9609375,17.6679688 C20.7630198,17.7356774 20.4348981,17.7721354 19.9765625,17.7773438 L18.15625,17.7773438 C17.4010379,17.7773438 17.0078127,17.4570345 16.9765625,16.8164062 L15.84375,16.8789062 L15.84375,18.1289062 L16.4140625,17.8242188 C16.5911467,18.1158869 16.8515608,18.5742156 17.1953125,19.1992188 L17.1953125,17.9570312 L18.2578125,17.9570312 L18.2578125,19.9648438 L18.9140625,19.9648438 L18.9140625,17.9570312 L19.9765625,17.9570312 L19.9765625,19.2929688 C20.1901052,18.9075502 20.427082,18.4362007 20.6875,17.8789062 C20.7031251,17.8789062 20.9739557,18.0065091 21.5,18.2617188 C21.1562483,18.917972 20.8854177,19.4049463 20.6875,19.7226562 L19.9765625,19.3632812 L19.9765625,19.9648438 L21.75,19.9648438 L21.75,20.7929688 L15.6640625,20.7929688 L15.6640625,19.9648438 L17.1953125,19.9648438 L17.1953125,19.3242188 C16.7161434,19.5794284 16.4713542,19.7044271 16.4609375,19.6992188 C16.3619787,19.5013011 16.1510433,19.1002634 15.828125,18.4960938 C15.7604163,19.5638074 15.4843774,20.4335904 15,21.1054688 C14.7343737,20.8815093 14.4375016,20.6497408 14.109375,20.4101562 C14.5781273,19.7747364 14.8125,18.878912 14.8125,17.7226562 L14.8125,14.8242188 L17.203125,14.8242188 L17.203125,13.3320312 L18.265625,13.3320312 L18.265625,13.7773438 L21.2890625,13.7773438 L21.2890625,14.5117188 L18.265625,14.5117188 L18.265625,14.8242188 L21.8828125,14.8242188 L21.703125,16.3007812 L20.625,16.1757812 L20.703125,15.6523438 L15.84375,15.6523438 L15.84375,16.1757812 L16.9765625,16.1132812 L16.9765625,15.7929688 L18.0078125,15.7929688 L18.0078125,16.0585938 L20.0078125,15.9492188 L20.0390625,16.6289062 L18.0078125,16.7539062 C18.0182292,16.9518239 18.1536445,17.0507812 18.4140625,17.0507812 L19.859375,17.0507812 C20.250002,17.0507812 20.4661456,16.9856777 20.5078125,16.8554688 C20.5390627,16.7044263 20.5624999,16.5273448 20.578125,16.3242188 Z" id="虚" fill-rule="nonzero"></path>
        </g>
    </g>
</svg>