<?xml version="1.0" encoding="UTF-8"?>
<svg width="46px" height="9px" viewBox="0 0 46 9" version="1.1" xmlns="http://www.w3.org/2000/svg" xmlns:xlink="http://www.w3.org/1999/xlink">
    <!-- Generator: Sketch 53.1 (72631) - https://sketchapp.com -->
    <title>末端路口（真）</title>
    <desc>Created with Sketch.</desc>
    <g id="Page-1" stroke="none" stroke-width="1" fill="none" fill-rule="evenodd">
        <g id="末端路口（真）" fill="#4897FD" fill-rule="nonzero">
            <polygon id="矩形" points="0 3 27 3 27 5 0 5"></polygon>
            <polygon id="矩形" points="19 1.13686838e-13 27 1.13686838e-13 27 8 19 8"></polygon>
            <path d="M29.4960938,8.359375 C28.5455682,7.29947387 28.0703125,6.06250707 28.0703125,4.6484375 C28.0703125,3.20311777 28.5481723,1.97135926 29.5039062,0.953125 L30.5429688,0.953125 C29.6158808,2.06510973 29.1523438,3.2942641 29.1523438,4.640625 C29.1523438,5.99219426 29.6132766,7.2317652 30.5351562,8.359375 L29.4960938,8.359375 Z M33.1553125,5.91796875 L34.0225,5.91796875 L34.0225,1.96484375 L36.4053125,1.96484375 L36.4053125,1.58984375 L33.24125,1.58984375 L33.24125,0.83984375 L36.4053125,0.83984375 L36.4053125,0.33203125 L37.4834375,0.33203125 L37.4834375,0.83984375 L40.6475,0.83984375 L40.6475,1.58984375 L37.4834375,1.58984375 L37.4834375,1.96484375 L39.8896875,1.96484375 L39.8896875,5.91796875 L40.788125,5.91796875 L40.788125,6.66015625 L33.1553125,6.66015625 L33.1553125,5.91796875 Z M37.819375,6.72265625 C38.543337,6.84244852 39.4599945,6.99869695 40.569375,7.19140625 L40.24125,8.10546875 C39.2777035,7.88671766 38.3454212,7.67838641 37.444375,7.48046875 L37.819375,6.72265625 Z M36.0303125,6.69140625 L36.444375,7.44921875 C35.5589539,7.66796984 34.6839627,7.88150938 33.819375,8.08984375 C33.6683326,7.76692547 33.5251048,7.47526172 33.3896875,7.21484375 C34.2855253,7.06380133 35.1657248,6.88932391 36.0303125,6.69140625 Z M35.0771875,4.96484375 L38.835,4.96484375 L38.835,4.60546875 L35.0771875,4.60546875 L35.0771875,4.96484375 Z M38.835,2.68359375 L35.0771875,2.68359375 L35.0771875,3.03515625 L38.835,3.03515625 L38.835,2.68359375 Z M35.0771875,3.99609375 L38.835,3.99609375 L38.835,3.64453125 L35.0771875,3.64453125 L35.0771875,3.99609375 Z M35.0771875,5.91796875 L38.835,5.91796875 L38.835,5.57421875 L35.0771875,5.57421875 L35.0771875,5.91796875 Z M44.4082813,8.359375 L43.3692188,8.359375 C44.2963067,7.25520281 44.7598438,6.02604844 44.7598438,4.671875 C44.7598438,3.3255141 44.2989109,2.08594316 43.3770313,0.953125 L44.4160938,0.953125 C45.3666193,2.00781777 45.841875,3.24738871 45.841875,4.671875 C45.841875,6.11979891 45.3640152,7.34895328 44.4082813,8.359375 Z" id="（真）"></path>
        </g>
    </g>
</svg>