<?xml version="1.0" encoding="UTF-8"?>
<svg width="46px" height="9px" viewBox="0 0 46 9" version="1.1" xmlns="http://www.w3.org/2000/svg" xmlns:xlink="http://www.w3.org/1999/xlink">
    <!-- Generator: Sketch 53.1 (72631) - https://sketchapp.com -->
    <title>末端路口（假）</title>
    <desc>Created with Sketch.</desc>
    <g id="Page-1" stroke="none" stroke-width="1" fill="none" fill-rule="evenodd">
        <g id="末端路口（假）" fill="#4897FD" fill-rule="nonzero">
            <polygon id="矩形" points="0 3 27 3 27 5 0 5"></polygon>
            <polygon id="矩形" points="19 1.13686838e-13 27 1.13686838e-13 27 8 19 8"></polygon>
            <path d="M29.4960938,8.359375 C28.5455682,7.29947387 28.0703125,6.06250707 28.0703125,4.6484375 C28.0703125,3.20311777 28.5481723,1.97135926 29.5039062,0.953125 L30.5429688,0.953125 C29.6158808,2.06510973 29.1523438,3.2942641 29.1523438,4.640625 C29.1523438,5.99219426 29.6132766,7.2317652 30.5351562,8.359375 L29.4960938,8.359375 Z M34.2334375,0.36328125 L35.2021875,0.58984375 C35.0954161,1.0455752 34.9730215,1.49218531 34.835,1.9296875 L34.835,8.03515625 L33.86625,8.03515625 L33.86625,4.3515625 C33.7099992,4.66666824 33.5459384,4.97525891 33.3740625,5.27734375 C33.3219789,4.94921711 33.2334381,4.49088836 33.1084375,3.90234375 C33.60844,2.83463008 33.9834363,1.65495437 34.2334375,0.36328125 Z M37.49125,5.01171875 L36.335,5.01171875 L36.335,5.54296875 L37.67875,5.54296875 L37.67875,6.46484375 L36.335,6.46484375 L36.335,8.04296875 L35.36625,8.04296875 L35.36625,0.62109375 L37.7959375,0.62109375 L37.7959375,3.43359375 L36.335,3.43359375 L36.335,4.08984375 L37.49125,4.08984375 L37.49125,5.01171875 Z M36.9678125,2.51171875 L36.9678125,1.54296875 L36.335,1.54296875 L36.335,2.51171875 L36.9678125,2.51171875 Z M38.038125,0.68359375 L40.46,0.68359375 L40.46,3.36328125 L38.038125,3.36328125 L38.038125,2.44140625 L39.475625,2.44140625 L39.475625,1.60546875 L38.038125,1.60546875 L38.038125,0.68359375 Z M37.631875,3.84765625 L40.5225,3.84765625 L40.5225,4.53515625 C40.4131245,5.3112018 40.1553145,5.98307008 39.7490625,6.55078125 C40.0537515,6.80859504 40.4209354,7.02734285 40.850625,7.20703125 C40.6735408,7.47265758 40.4600013,7.75390477 40.21,8.05078125 C39.7907271,7.81640508 39.4261474,7.54687652 39.11625,7.2421875 C38.7490607,7.56770996 38.311565,7.84505094 37.80375,8.07421875 C37.6579159,7.87109273 37.4391681,7.63932422 37.1475,7.37890625 C37.6969819,7.128905 38.1514045,6.83984539 38.5107813,6.51171875 C38.1722379,5.99088281 37.9495839,5.39453461 37.8428125,4.72265625 L37.631875,4.72265625 L37.631875,3.84765625 Z M39.4990625,4.72265625 L38.7021875,4.72265625 C38.7751045,5.12109574 38.9092178,5.48046715 39.1045313,5.80078125 C39.3076573,5.47265461 39.4391664,5.1132832 39.4990625,4.72265625 Z M44.4082813,8.359375 L43.3692188,8.359375 C44.2963067,7.25520281 44.7598438,6.02604844 44.7598438,4.671875 C44.7598438,3.3255141 44.2989109,2.08594316 43.3770313,0.953125 L44.4160938,0.953125 C45.3666193,2.00781777 45.841875,3.24738871 45.841875,4.671875 C45.841875,6.11979891 45.3640152,7.34895328 44.4082813,8.359375 Z" id="（假）"></path>
        </g>
    </g>
</svg>