<?xml version="1.0" encoding="UTF-8"?>
<svg width="35px" height="34px" viewBox="0 0 35 34" version="1.1" xmlns="http://www.w3.org/2000/svg" xmlns:xlink="http://www.w3.org/1999/xlink">
    <!-- Generator: Sketch 53.1 (72631) - https://sketchapp.com -->
    <title>其他 2</title>
    <desc>Created with Sketch.</desc>
    <g id="Page-1" stroke="none" stroke-width="1" fill="none" fill-rule="evenodd">
        <g id="其他-2" fill="#4897FD" fill-rule="nonzero">
            <g id="其他">
                <path d="M10.528,14.064 L11.84,14.064 L11.84,13.416 L12.68,13.416 L12.68,14.064 L15.32,14.064 L15.32,13.416 L16.16,13.416 L16.16,14.064 L17.472,14.064 L17.472,14.848 L16.16,14.848 L16.16,18.24 L17.624,18.24 L17.624,19.016 L10.384,19.016 L10.384,18.24 L11.84,18.24 L11.84,14.848 L10.528,14.848 L10.528,14.064 Z M12.68,18.24 L15.32,18.24 L15.32,17.552 L12.68,17.552 L12.68,18.24 Z M12.68,16.848 L15.32,16.848 L15.32,16.2 L12.68,16.2 L12.68,16.848 Z M12.68,15.496 L15.32,15.496 L15.32,14.848 L12.68,14.848 L12.68,15.496 Z M12.776,19.056 L13.368,19.584 C12.728,20.048 11.944,20.464 11.016,20.824 L10.488,20.136 C11.392,19.832 12.152,19.472 12.776,19.056 Z M15.112,19.096 C15.992,19.376 16.792,19.712 17.512,20.096 L17.048,20.824 C16.28,20.36 15.496,19.992 14.688,19.728 L15.112,19.096 Z M19.888,13.352 L20.64,13.712 C20.464,14.288 20.232,14.848 19.944,15.384 L19.944,20.848 L19.12,20.848 L19.12,16.664 C18.912,16.936 18.688,17.2 18.456,17.456 L18.184,16.6 C18.952,15.68 19.52,14.6 19.888,13.352 Z M24.512,20.68 L21.808,20.68 C21.136,20.68 20.8,20.328 20.8,19.632 L20.8,16.72 L20.184,16.904 L20.184,16.056 L20.8,15.864 L20.8,14.168 L21.632,14.168 L21.632,15.6 L22.552,15.312 L22.552,13.416 L23.384,13.416 L23.384,15.048 L25.128,14.504 C25.128,16.296 25.08,17.384 25,17.768 C24.912,18.144 24.552,18.336 23.92,18.336 L23.84,18.336 L23.592,17.528 C23.784,17.528 23.952,17.536 24.096,17.536 C24.184,17.536 24.24,17.448 24.256,17.28 C24.272,17.128 24.288,16.584 24.288,15.648 L23.384,15.928 L23.384,19.072 L22.552,19.072 L22.552,16.184 L21.632,16.464 L21.632,19.52 C21.632,19.76 21.76,19.888 22.016,19.888 L24.368,19.888 C24.536,19.888 24.656,19.832 24.736,19.736 C24.8,19.624 24.848,19.256 24.872,18.624 L25.656,18.896 C25.6,19.736 25.496,20.248 25.352,20.424 C25.2,20.592 24.92,20.68 24.512,20.68 Z"></path>
                <g id="掉头口-copy-4">
                    <polygon id="路径" points="12 0 13 0 13 12.5 12 12.5"></polygon>
                    <polygon id="路径" points="23 0 24 0 24 12.5 23 12.5"></polygon>
                    <polygon id="路径" points="12 21.5 13 21.5 13 34 12 34"></polygon>
                    <polygon id="路径" points="23 21.5 24 21.5 24 34 23 34"></polygon>
                    <polygon id="路径" points="0 22 12 22 12 23 0 23"></polygon>
                    <polygon id="路径" points="0 12 12 12 12 13 0 13"></polygon>
                    <polygon id="路径" points="23 22 35 22 35 23 23 23"></polygon>
                    <polygon id="路径" points="23 12 35 12 35 13 23 13"></polygon>
                </g>
            </g>
        </g>
    </g>
</svg>