<svg xmlns="http://www.w3.org/2000/svg" xmlns:xlink="http://www.w3.org/1999/xlink" width="250" height="250" viewBox="0 0 250 250" fill="none"><g opacity="1"  transform="translate(0 0)  rotate(0)"><mask id="bg-mask-0" fill="white"><use transform="translate(0 0)  rotate(0)" xlink:href="#path_0"></use></mask><g mask="url(#bg-mask-0)" ><g opacity="1"  transform="translate(31.25048828125 36.457763671875)  rotate(0)"><g opacity="1"  transform="translate(-0.000244140625 0)  rotate(0)"><path  id="路径 5" style="fill:#36AA5F; opacity:1;" d="M182.29,31.2506h-130.2103v-5.2084l4.9411,1.647l-52.07996,156.2498c-0.02695,0.08067 -0.05587,0.16067 -0.08676,0.24c-0.03089,0.08 -0.0637,0.15867 -0.09845,0.236c-0.03475,0.078 -0.07139,0.155 -0.10992,0.231c-0.03853,0.076 -0.0789,0.151 -0.12111,0.225c-0.04221,0.074 -0.08621,0.147 -0.132,0.219c-0.04579,0.072 -0.09332,0.14267 -0.14259,0.212c-0.04927,0.07 -0.10021,0.13833 -0.15283,0.205c-0.05262,0.06733 -0.10685,0.13333 -0.1627,0.198c-0.05585,0.064 -0.11324,0.12667 -0.17218,0.188c-0.05894,0.062 -0.11936,0.12233 -0.18125,0.181c-0.06189,0.05867 -0.12518,0.11567 -0.18987,0.171c-0.06469,0.05533 -0.13071,0.10933 -0.19804,0.162c-0.06734,0.052 -0.13592,0.10233 -0.20574,0.151c-0.06982,0.04933 -0.1408,0.09667 -0.21293,0.142c-0.07213,0.04533 -0.14534,0.089 -0.21962,0.131c-0.07427,0.04133 -0.14953,0.08133 -0.22577,0.12c-0.07624,0.038 -0.15337,0.074 -0.23138,0.108c-0.07802,0.03467 -0.15683,0.067 -0.23644,0.097c-0.07961,0.03067 -0.15991,0.05933 -0.24092,0.086c-0.08101,0.02667 -0.16262,0.051 -0.24483,0.073c-0.08221,0.02267 -0.16493,0.04333 -0.24814,0.062c-0.08322,0.01867 -0.16684,0.035 -0.25086,0.049c-0.08402,0.01467 -0.16834,0.027 -0.25297,0.037c-0.08462,0.01 -0.16945,0.018 -0.25447,0.024c-0.08502,0.006 -0.17014,0.01 -0.25536,0.012c-0.08522,0.002 -0.17043,0.002 -0.25564,0c-0.08521,-0.00267 -0.17031,-0.00733 -0.2553,-0.014c-0.08499,-0.006 -0.16977,-0.01433 -0.25434,-0.025c-0.08457,-0.01067 -0.16883,-0.02367 -0.25277,-0.039c-0.08394,-0.01467 -0.16748,-0.03133 -0.25059,-0.05c-0.08311,-0.01933 -0.16572,-0.04033 -0.24781,-0.063c-0.08209,-0.02267 -0.16356,-0.04767 -0.24443,-0.075c-0.08087,-0.02667 -0.16102,-0.05567 -0.24046,-0.087c-0.07945,-0.03067 -0.15809,-0.06333 -0.23592,-0.098c-0.07783,-0.03467 -0.15477,-0.07133 -0.2308,-0.11c-0.07603,-0.03867 -0.15108,-0.079 -0.22513,-0.121c-0.07405,-0.042 -0.14703,-0.086 -0.21892,-0.132c-0.07189,-0.046 -0.14262,-0.09367 -0.21217,-0.143c-0.06956,-0.04933 -0.13787,-0.1 -0.20493,-0.152c-0.06705,-0.05267 -0.13278,-0.107 -0.19718,-0.163c-0.06439,-0.056 -0.12738,-0.11333 -0.18895,-0.172c-0.06158,-0.05933 -0.12167,-0.12 -0.18028,-0.182c-0.05861,-0.06133 -0.11567,-0.12433 -0.17117,-0.189c-0.05551,-0.06533 -0.10939,-0.13167 -0.16165,-0.199c-0.05227,-0.06733 -0.10285,-0.13567 -0.15174,-0.205c-0.04889,-0.07 -0.09605,-0.141 -0.14146,-0.213c-0.04541,-0.072 -0.08902,-0.14533 -0.13084,-0.22c-0.04181,-0.074 -0.08178,-0.14933 -0.1199,-0.226c-0.03812,-0.076 -0.07435,-0.153 -0.10869,-0.231c-0.03433,-0.078 -0.06673,-0.15667 -0.09719,-0.236c-0.03047,-0.08 -0.05896,-0.16033 -0.08549,-0.241c-0.02652,-0.08133 -0.05104,-0.163 -0.07355,-0.245c-0.02251,-0.082 -0.043,-0.16467 -0.06146,-0.248c-0.01845,-0.08333 -0.03485,-0.167 -0.0492,-0.251c-0.01435,-0.084 -0.02663,-0.16833 -0.03684,-0.253c-0.01021,-0.08467 -0.01833,-0.16967 -0.02438,-0.255c-0.00604,-0.08467 -0.00999,-0.16967 -0.01186,-0.255c-0.00187,-0.08533 -0.00164,-0.17067 0.00068,-0.256c0.00232,-0.08467 0.00673,-0.16967 0.01323,-0.255c0.00649,-0.08467 0.01507,-0.16933 0.02573,-0.254c0.01066,-0.08467 0.02339,-0.169 0.03818,-0.253c0.0148,-0.084 0.03165,-0.16767 0.05054,-0.251c0.0189,-0.08267 0.03983,-0.165 0.06278,-0.247c0.02295,-0.08267 0.04791,-0.16433 0.07486,-0.245l52.08003,-156.2497c0.04287,-0.12867 0.09067,-0.25543 0.1434,-0.3803c0.0528,-0.12493 0.1104,-0.2476 0.1728,-0.368c0.06233,-0.1204 0.12927,-0.2382 0.2008,-0.3534c0.0716,-0.11513 0.14757,-0.22733 0.2279,-0.3366c0.08033,-0.10927 0.1648,-0.21523 0.2534,-0.3179c0.0886,-0.10267 0.18107,-0.2017 0.2774,-0.2971c0.09633,-0.0954 0.19623,-0.18693 0.2997,-0.2746c0.10347,-0.0876 0.2102,-0.17103 0.3202,-0.2503c0.11,-0.07933 0.22293,-0.15423 0.3388,-0.2247c0.11587,-0.07047 0.2343,-0.1363 0.3553,-0.1975c0.121,-0.0612 0.2442,-0.1176 0.3696,-0.1692c0.1254,-0.0516 0.25263,-0.09823 0.3817,-0.1399c0.129,-0.04167 0.25947,-0.07823 0.3914,-0.1097c0.13187,-0.03147 0.26477,-0.05773 0.3987,-0.0788c0.134,-0.02113 0.2686,-0.03697 0.4038,-0.0475c0.13513,-0.0106 0.2705,-0.0159 0.4061,-0.0159h130.2103c0.08533,0 0.17033,0.0021 0.255,0.0063c0.08533,0.0042 0.17033,0.01047 0.255,0.0188c0.08467,0.00833 0.16933,0.01877 0.254,0.0313c0.084,0.01247 0.168,0.02703 0.252,0.0437c0.08333,0.0166 0.16633,0.03527 0.249,0.056c0.08267,0.02073 0.165,0.04347 0.247,0.0682c0.08133,0.02473 0.162,0.05147 0.242,0.0802c0.08067,0.02867 0.16033,0.05933 0.239,0.092c0.07867,0.0326 0.15667,0.06713 0.234,0.1036c0.07667,0.0364 0.15267,0.0747 0.228,0.1149c0.07533,0.0402 0.14933,0.0822 0.222,0.126c0.07333,0.0438 0.14533,0.0894 0.216,0.1368c0.07133,0.04733 0.141,0.0964 0.209,0.1472c0.06867,0.05073 0.136,0.10313 0.202,0.1572c0.066,0.05413 0.13033,0.1098 0.193,0.167c0.06333,0.05727 0.12533,0.11603 0.186,0.1763c0.06,0.06027 0.11867,0.12197 0.176,0.1851c0.05733,0.0632 0.113,0.12773 0.167,0.1936c0.054,0.06587 0.10633,0.13303 0.157,0.2015c0.05067,0.06847 0.09967,0.13813 0.147,0.209c0.04733,0.07093 0.093,0.14293 0.137,0.216c0.044,0.07313 0.086,0.14727 0.126,0.2224c0.04,0.0752 0.07833,0.15133 0.115,0.2284c0.03667,0.07707 0.07133,0.15497 0.104,0.2337c0.032,0.07873 0.06267,0.15823 0.092,0.2385c0.02867,0.08027 0.05533,0.16117 0.08,0.2427c0.02467,0.0816 0.04733,0.16373 0.068,0.2464c0.02067,0.08267 0.03933,0.1658 0.056,0.2494c0.01667,0.0836 0.03133,0.16757 0.044,0.2519c0.012,0.08433 0.02233,0.1689 0.031,0.2537c0.008,0.08487 0.01433,0.16987 0.019,0.255c0.004,0.08513 0.006,0.1703 0.006,0.2555c0,0.08527 -0.002,0.17047 -0.006,0.2556c-0.00467,0.08513 -0.011,0.1701 -0.019,0.2549c-0.00867,0.08487 -0.019,0.16947 -0.031,0.2538c-0.01267,0.08427 -0.02733,0.1682 -0.044,0.2518c-0.01667,0.0836 -0.03533,0.16677 -0.056,0.2495c-0.02067,0.08267 -0.04333,0.16477 -0.068,0.2463c-0.02467,0.0816 -0.05133,0.16253 -0.08,0.2428c-0.02933,0.0802 -0.06,0.1597 -0.092,0.2385c-0.03267,0.07873 -0.06733,0.15663 -0.104,0.2337c-0.03667,0.07707 -0.075,0.15317 -0.115,0.2283c-0.04,0.0752 -0.082,0.14933 -0.126,0.2224c-0.044,0.07313 -0.08967,0.14513 -0.137,0.216c-0.04733,0.07087 -0.09633,0.14053 -0.147,0.209c-0.05067,0.06847 -0.103,0.13567 -0.157,0.2016c-0.054,0.06587 -0.10967,0.13037 -0.167,0.1935c-0.05733,0.0632 -0.116,0.12493 -0.176,0.1852c-0.06067,0.06027 -0.12267,0.11903 -0.186,0.1763c-0.06267,0.0572 -0.127,0.11283 -0.193,0.1669c-0.066,0.05407 -0.13333,0.1065 -0.202,0.1573c-0.068,0.0508 -0.13767,0.09987 -0.209,0.1472c-0.07067,0.04733 -0.14267,0.09293 -0.216,0.1368c-0.07267,0.0438 -0.14667,0.0858 -0.222,0.126c-0.07533,0.04013 -0.15133,0.07843 -0.228,0.1149c-0.07733,0.03647 -0.15533,0.071 -0.234,0.1036c-0.07867,0.0326 -0.15833,0.06327 -0.239,0.092c-0.08,0.02873 -0.16067,0.05547 -0.242,0.0802c-0.082,0.02473 -0.16433,0.04747 -0.247,0.0682c-0.08267,0.02067 -0.16567,0.03933 -0.249,0.056c-0.084,0.0166 -0.168,0.03117 -0.252,0.0437c-0.08467,0.01253 -0.16933,0.02297 -0.254,0.0313c-0.08467,0.00833 -0.16967,0.0146 -0.255,0.0188c-0.08467,0.0042 -0.16967,0.0063 -0.255,0.0063z"></path><path id="路径 6" fill-rule="evenodd" style="fill:#DCDCDC" opacity="1" d="M26.0439 52.0801L78.124 52.0801L78.124 0L26.0439 0L26.0439 52.0801Z"></path><path  id="路径 6" style="fill:#36AA5F; opacity:1;" d="M83.3323,-5.20834v62.49674h-62.4967v-62.49674zM31.2523,46.8717h41.6634v-41.66336h-41.6634z"></path><path  id="路径 7" style="fill:#36AA5F; opacity:1;" d="M22.3611,48.3972l52.0801,-52.08005l7.3657,7.3657l-52.0801,52.08005z"></path><path  id="路径 8" style="fill:#36AA5F; opacity:1;" d="M29.7268,-3.68285l52.0801,52.08005l-7.3657,7.3657l-52.0801,-52.08005z"></path></g></g><g opacity="1"  transform="translate(99 110)  rotate(0)"><mask id="bg-mask-1" fill="white"><use transform="translate(0 0)  rotate(0)" xlink:href="#path_1"></use></mask><g mask="url(#bg-mask-1)" ><path id="路径 1" fill-rule="evenodd" style="fill:#000000" opacity="1" d="M90.0068,65.22l35.1502,32.11c1.86,1.67 2.98,4.02 3.11,6.52c0.14,2.51 -0.73,4.97 -2.4,6.83l-5.6,6.23c-1.66,1.86 -4,2.97 -6.48,3.09h-0.47c-2.31,0.02 -4.55,-0.84 -6.27,-2.39l-38.1402,-34.85c-2.28,-2.08 -5.75,-2.08 -8.02,0l-38.05,34.65c-3.85,3.48 -9.76,3.17 -13.22996,-0.68l-5.58,-6.24c-3.46,-3.87 -3.16,-9.84 0.67,-13.33l35.14996,-31.98c1.26,-1.13 1.97,-2.76 1.96,-4.46c0.02,-1.71 -0.7,-3.34 -1.96,-4.47l-36.76996,-33.58c-3.82,-3.5 -4.12,-9.46 -0.66,-13.33l5.6,-6.22c3.47996,-3.85 9.38996,-4.15 13.22996,-0.66l39.69,36.23c2.27,2.09 5.75,2.09 8.02,0l39.8802,-36.27c3.84,-3.48 9.75,-3.17 13.22,0.68l5.59,6.24c1.66,1.86 2.53,4.31 2.4,6.81c-0.13,2.5 -1.24,4.85 -3.08,6.52l-36.9602,33.6c-1.25,1.14 -1.96,2.77 -1.96,4.47c0,1.71 0.71,3.33 1.96,4.48zM124.897,104.03c-0.07,-1.59 -0.78,-3.09 -1.96,-4.16l-35.1902,-32.13c-1.96,-1.79 -3.08,-4.33 -3.08,-7c0,-2.66 1.12,-5.2 3.08,-6.99l36.9702,-33.6c2.45,-2.24 2.64,-6.04 0.44,-8.52l-5.6,-6.24c-2.22,-2.47 -6,-2.66 -8.46,-0.43l-39.8802,36.26c-3.56,3.25 -8.99,3.25 -12.55,0l-39.69,-36.24c-2.45,-2.24 -6.24,-2.05 -8.46,0.43l-5.59996,6.22c-1.06,1.18 -1.62,2.75 -1.54,4.35c0.08,1.6 0.79,3.1 1.97,4.17l36.76996,33.54c1.96,1.8 3.08,4.34 3.08,7.01c0,2.67 -1.12,5.21 -3.08,7.01l-35.14996,31.94c-2.45,2.23 -2.64,6.04 -0.44,8.52l5.57996,6.24c2.22,2.47 6.01,2.66 8.46,0.43l38.07,-34.61c3.56,-3.26 8.99,-3.26 12.55,0l38.1202,34.79c1.18,1.08 2.73,1.64 4.32,1.56c1.58,-0.08 3.08,-0.79 4.14,-1.98l5.6,-6.22c1.06,-1.19 1.61,-2.75 1.53,-4.35z"></path><path id="路径 2" fill-rule="evenodd" style="fill:#36AA5F" opacity="1" d="M119.253 20.7779C121.883 18.4579 122.153 14.4179 119.843 11.7679C118.723 10.5079 117.143 9.74788 115.463 9.65788C113.793 9.57788 112.143 10.1679 110.903 11.3079L99.2926 21.6979L83.2126 36.1079L64.8326 52.5479L19.1626 10.8479C17.5026 9.31788 15.1526 8.80788 13.0126 9.49788C10.8726 10.1879 9.26258 11.9779 8.78258 14.1979C8.31258 16.4079 9.04258 18.7079 10.7026 20.2379L55.3726 61.0279L13.7826 98.2979C11.9726 99.7679 11.1026 102.118 11.5326 104.428C11.9726 106.728 13.6226 108.608 15.8426 109.298C18.0626 109.998 20.4826 109.408 22.1426 107.758L64.7626 69.5979L79.7326 83.2379L95.7326 97.8379L107.283 108.358C109.853 110.708 113.833 110.518 116.163 107.928C118.503 105.328 118.303 101.318 115.733 98.9679L74.2126 61.1279L119.253 20.7779Z"></path></g></g></g></g><defs><rect id="path_0" x="0" y="0" width="250" height="250" /><rect id="path_1" x="0" y="0" width="130" height="120" /></defs></svg>