<svg xmlns="http://www.w3.org/2000/svg" xmlns:xlink="http://www.w3.org/1999/xlink" width="250" height="250" viewBox="0 0 250 250" fill="none"><g opacity="1"  transform="translate(0 0)  rotate(0)"><mask id="bg-mask-0" fill="white"><use transform="translate(0 0)  rotate(0)" xlink:href="#path_0"></use></mask><g mask="url(#bg-mask-0)" ><g opacity="1"  transform="translate(31.25048828125 36.457763671875)  rotate(0)"><g opacity="1"  transform="translate(-0.000244140625 0)  rotate(0)"><path  id="路径 5" style="fill:#36AA5F; opacity:1;" d="M182.29,31.2506h-130.2103v-5.2084l4.9411,1.647l-52.07996,156.2498c-0.02695,0.08067 -0.05587,0.16067 -0.08676,0.24c-0.03089,0.08 -0.0637,0.15867 -0.09845,0.236c-0.03475,0.078 -0.07139,0.155 -0.10992,0.231c-0.03853,0.076 -0.0789,0.151 -0.12111,0.225c-0.04221,0.074 -0.08621,0.147 -0.132,0.219c-0.04579,0.072 -0.09332,0.14267 -0.14259,0.212c-0.04927,0.07 -0.10021,0.13833 -0.15283,0.205c-0.05262,0.06733 -0.10685,0.13333 -0.1627,0.198c-0.05585,0.064 -0.11324,0.12667 -0.17218,0.188c-0.05894,0.062 -0.11936,0.12233 -0.18125,0.181c-0.06189,0.05867 -0.12518,0.11567 -0.18987,0.171c-0.06469,0.05533 -0.13071,0.10933 -0.19804,0.162c-0.06734,0.052 -0.13592,0.10233 -0.20574,0.151c-0.06982,0.04933 -0.1408,0.09667 -0.21293,0.142c-0.07213,0.04533 -0.14534,0.089 -0.21962,0.131c-0.07427,0.04133 -0.14953,0.08133 -0.22577,0.12c-0.07624,0.038 -0.15337,0.074 -0.23138,0.108c-0.07802,0.03467 -0.15683,0.067 -0.23644,0.097c-0.07961,0.03067 -0.15991,0.05933 -0.24092,0.086c-0.08101,0.02667 -0.16262,0.051 -0.24483,0.073c-0.08221,0.02267 -0.16493,0.04333 -0.24814,0.062c-0.08322,0.01867 -0.16684,0.035 -0.25086,0.049c-0.08402,0.01467 -0.16834,0.027 -0.25297,0.037c-0.08462,0.01 -0.16945,0.018 -0.25447,0.024c-0.08502,0.006 -0.17014,0.01 -0.25536,0.012c-0.08522,0.002 -0.17043,0.002 -0.25564,0c-0.08521,-0.00267 -0.17031,-0.00733 -0.2553,-0.014c-0.08499,-0.006 -0.16977,-0.01433 -0.25434,-0.025c-0.08457,-0.01067 -0.16883,-0.02367 -0.25277,-0.039c-0.08394,-0.01467 -0.16748,-0.03133 -0.25059,-0.05c-0.08311,-0.01933 -0.16572,-0.04033 -0.24781,-0.063c-0.08209,-0.02267 -0.16356,-0.04767 -0.24443,-0.075c-0.08087,-0.02667 -0.16102,-0.05567 -0.24046,-0.087c-0.07945,-0.03067 -0.15809,-0.06333 -0.23592,-0.098c-0.07783,-0.03467 -0.15477,-0.07133 -0.2308,-0.11c-0.07603,-0.03867 -0.15108,-0.079 -0.22513,-0.121c-0.07405,-0.042 -0.14703,-0.086 -0.21892,-0.132c-0.07189,-0.046 -0.14262,-0.09367 -0.21217,-0.143c-0.06956,-0.04933 -0.13787,-0.1 -0.20493,-0.152c-0.06705,-0.05267 -0.13278,-0.107 -0.19718,-0.163c-0.06439,-0.056 -0.12738,-0.11333 -0.18895,-0.172c-0.06158,-0.05933 -0.12167,-0.12 -0.18028,-0.182c-0.05861,-0.06133 -0.11567,-0.12433 -0.17117,-0.189c-0.05551,-0.06533 -0.10939,-0.13167 -0.16165,-0.199c-0.05227,-0.06733 -0.10285,-0.13567 -0.15174,-0.205c-0.04889,-0.07 -0.09605,-0.141 -0.14146,-0.213c-0.04541,-0.072 -0.08902,-0.14533 -0.13084,-0.22c-0.04181,-0.074 -0.08178,-0.14933 -0.1199,-0.226c-0.03812,-0.076 -0.07435,-0.153 -0.10869,-0.231c-0.03433,-0.078 -0.06673,-0.15667 -0.09719,-0.236c-0.03047,-0.08 -0.05896,-0.16033 -0.08549,-0.241c-0.02652,-0.08133 -0.05104,-0.163 -0.07355,-0.245c-0.02251,-0.082 -0.043,-0.16467 -0.06146,-0.248c-0.01845,-0.08333 -0.03485,-0.167 -0.0492,-0.251c-0.01435,-0.084 -0.02663,-0.16833 -0.03684,-0.253c-0.01021,-0.08467 -0.01833,-0.16967 -0.02438,-0.255c-0.00604,-0.08467 -0.00999,-0.16967 -0.01186,-0.255c-0.00187,-0.08533 -0.00164,-0.17067 0.00068,-0.256c0.00232,-0.08467 0.00673,-0.16967 0.01323,-0.255c0.00649,-0.08467 0.01507,-0.16933 0.02573,-0.254c0.01066,-0.08467 0.02339,-0.169 0.03818,-0.253c0.0148,-0.084 0.03165,-0.16767 0.05054,-0.251c0.0189,-0.08267 0.03983,-0.165 0.06278,-0.247c0.02295,-0.08267 0.04791,-0.16433 0.07486,-0.245l52.08003,-156.2497c0.04287,-0.12867 0.09067,-0.25543 0.1434,-0.3803c0.0528,-0.12493 0.1104,-0.2476 0.1728,-0.368c0.06233,-0.1204 0.12927,-0.2382 0.2008,-0.3534c0.0716,-0.11513 0.14757,-0.22733 0.2279,-0.3366c0.08033,-0.10927 0.1648,-0.21523 0.2534,-0.3179c0.0886,-0.10267 0.18107,-0.2017 0.2774,-0.2971c0.09633,-0.0954 0.19623,-0.18693 0.2997,-0.2746c0.10347,-0.0876 0.2102,-0.17103 0.3202,-0.2503c0.11,-0.07933 0.22293,-0.15423 0.3388,-0.2247c0.11587,-0.07047 0.2343,-0.1363 0.3553,-0.1975c0.121,-0.0612 0.2442,-0.1176 0.3696,-0.1692c0.1254,-0.0516 0.25263,-0.09823 0.3817,-0.1399c0.129,-0.04167 0.25947,-0.07823 0.3914,-0.1097c0.13187,-0.03147 0.26477,-0.05773 0.3987,-0.0788c0.134,-0.02113 0.2686,-0.03697 0.4038,-0.0475c0.13513,-0.0106 0.2705,-0.0159 0.4061,-0.0159h130.2103c0.08533,0 0.17033,0.0021 0.255,0.0063c0.08533,0.0042 0.17033,0.01047 0.255,0.0188c0.08467,0.00833 0.16933,0.01877 0.254,0.0313c0.084,0.01247 0.168,0.02703 0.252,0.0437c0.08333,0.0166 0.16633,0.03527 0.249,0.056c0.08267,0.02073 0.165,0.04347 0.247,0.0682c0.08133,0.02473 0.162,0.05147 0.242,0.0802c0.08067,0.02867 0.16033,0.05933 0.239,0.092c0.07867,0.0326 0.15667,0.06713 0.234,0.1036c0.07667,0.0364 0.15267,0.0747 0.228,0.1149c0.07533,0.0402 0.14933,0.0822 0.222,0.126c0.07333,0.0438 0.14533,0.0894 0.216,0.1368c0.07133,0.04733 0.141,0.0964 0.209,0.1472c0.06867,0.05073 0.136,0.10313 0.202,0.1572c0.066,0.05413 0.13033,0.1098 0.193,0.167c0.06333,0.05727 0.12533,0.11603 0.186,0.1763c0.06,0.06027 0.11867,0.12197 0.176,0.1851c0.05733,0.0632 0.113,0.12773 0.167,0.1936c0.054,0.06587 0.10633,0.13303 0.157,0.2015c0.05067,0.06847 0.09967,0.13813 0.147,0.209c0.04733,0.07093 0.093,0.14293 0.137,0.216c0.044,0.07313 0.086,0.14727 0.126,0.2224c0.04,0.0752 0.07833,0.15133 0.115,0.2284c0.03667,0.07707 0.07133,0.15497 0.104,0.2337c0.032,0.07873 0.06267,0.15823 0.092,0.2385c0.02867,0.08027 0.05533,0.16117 0.08,0.2427c0.02467,0.0816 0.04733,0.16373 0.068,0.2464c0.02067,0.08267 0.03933,0.1658 0.056,0.2494c0.01667,0.0836 0.03133,0.16757 0.044,0.2519c0.012,0.08433 0.02233,0.1689 0.031,0.2537c0.008,0.08487 0.01433,0.16987 0.019,0.255c0.004,0.08513 0.006,0.1703 0.006,0.2555c0,0.08527 -0.002,0.17047 -0.006,0.2556c-0.00467,0.08513 -0.011,0.1701 -0.019,0.2549c-0.00867,0.08487 -0.019,0.16947 -0.031,0.2538c-0.01267,0.08427 -0.02733,0.1682 -0.044,0.2518c-0.01667,0.0836 -0.03533,0.16677 -0.056,0.2495c-0.02067,0.08267 -0.04333,0.16477 -0.068,0.2463c-0.02467,0.0816 -0.05133,0.16253 -0.08,0.2428c-0.02933,0.0802 -0.06,0.1597 -0.092,0.2385c-0.03267,0.07873 -0.06733,0.15663 -0.104,0.2337c-0.03667,0.07707 -0.075,0.15317 -0.115,0.2283c-0.04,0.0752 -0.082,0.14933 -0.126,0.2224c-0.044,0.07313 -0.08967,0.14513 -0.137,0.216c-0.04733,0.07087 -0.09633,0.14053 -0.147,0.209c-0.05067,0.06847 -0.103,0.13567 -0.157,0.2016c-0.054,0.06587 -0.10967,0.13037 -0.167,0.1935c-0.05733,0.0632 -0.116,0.12493 -0.176,0.1852c-0.06067,0.06027 -0.12267,0.11903 -0.186,0.1763c-0.06267,0.0572 -0.127,0.11283 -0.193,0.1669c-0.066,0.05407 -0.13333,0.1065 -0.202,0.1573c-0.068,0.0508 -0.13767,0.09987 -0.209,0.1472c-0.07067,0.04733 -0.14267,0.09293 -0.216,0.1368c-0.07267,0.0438 -0.14667,0.0858 -0.222,0.126c-0.07533,0.04013 -0.15133,0.07843 -0.228,0.1149c-0.07733,0.03647 -0.15533,0.071 -0.234,0.1036c-0.07867,0.0326 -0.15833,0.06327 -0.239,0.092c-0.08,0.02873 -0.16067,0.05547 -0.242,0.0802c-0.082,0.02473 -0.16433,0.04747 -0.247,0.0682c-0.08267,0.02067 -0.16567,0.03933 -0.249,0.056c-0.084,0.0166 -0.168,0.03117 -0.252,0.0437c-0.08467,0.01253 -0.16933,0.02297 -0.254,0.0313c-0.08467,0.00833 -0.16967,0.0146 -0.255,0.0188c-0.08467,0.0042 -0.16967,0.0063 -0.255,0.0063z"></path><path id="路径 6" fill-rule="evenodd" style="fill:#DCDCDC" opacity="1" d="M26.0439 52.0801L78.124 52.0801L78.124 0L26.0439 0L26.0439 52.0801Z"></path><path  id="路径 6" style="fill:#36AA5F; opacity:1;" d="M83.3323,-5.20834v62.49674h-62.4967v-62.49674zM31.2523,46.8717h41.6634v-41.66336h-41.6634z"></path><path  id="路径 7" style="fill:#36AA5F; opacity:1;" d="M22.3611,48.3972l52.0801,-52.08005l7.3657,7.3657l-52.0801,52.08005z"></path><path  id="路径 8" style="fill:#36AA5F; opacity:1;" d="M29.7268,-3.68285l52.0801,52.08005l-7.3657,7.3657l-52.0801,-52.08005z"></path></g></g><g opacity="1"  transform="translate(103 84)  rotate(0)"><path id="路径 1" fill-rule="evenodd" style="fill:#3DA6F4" opacity="1" d="M59.0597 82.4858C57.8797 82.2458 56.9197 81.3858 56.5397 80.2458C56.1597 79.1059 56.4197 77.8459 57.2197 76.9459C58.0197 76.0459 59.2397 75.6459 60.4197 75.8859C61.5996 76.1259 62.5596 76.9859 62.9396 78.1259C63.3196 79.2659 63.0596 80.5258 62.2596 81.4258C61.4596 82.3258 60.2397 82.7258 59.0597 82.4858Z"></path><path id="路径 2" fill-rule="evenodd" style="fill:#36AA5F" opacity="1" d="M27.1826,120.989c-1.97,-16 8.0399,-30.1301 20.5199,-32.0701c0.32,-0.05 0.53,-0.34 0.5,-0.6499l-1.31,-10.71c-0.35,-2.84 1.66,-5.41 4.5,-5.76l12.03,-1.48c0.78,-0.1 1.5,0.47 1.6,1.25l1.84,14.9699l0.4,3.2601l6.56,53.25c0.86,7.31 2.42,12.04 -12.5,13.87c-14.05,1.72 -30.0999,-3.14 -34.1399,-35.93zM61.1225,133.369l-3.59,-29.11c-0.07,-0.5 -0.51,-0.87 -1.03,-0.8l-6.09,0.75c-6.39,0.78 -11.61,8.03 -10.39,17.86c1.92,15.64 8.11,21.43 15.14,20.57c7.47,-0.93 6.4,-5.63 5.96,-9.27z"></path><path id="路径 3" fill-rule="evenodd" style="fill:#F5FDFF" opacity="1" d="M41.5433 1.42001C41.4333 0.490003 42.3133 -0.220001 43.2033 0.0600003C47.1433 1.36001 55.9233 4.99003 56.7533 11.7501C57.8334 20.4801 64.2234 72.4904 64.2234 72.4904L50.4933 74.2004L41.5433 1.42001Z"></path><path id="路径 4" fill-rule="evenodd" style="fill:#C5E0E8" opacity="1" d="M54.6098,12.747v0l7.14,57.81l-2.82,0.34l-8.02,-64.36001c3.79,2.75 3.7,6.20001 3.7,6.21001zM54.6098,12.747z"></path><path id="路径 5" fill-rule="evenodd" style="fill:#333333" opacity="1" d="M44.8469,3.88256l8.2399,66.99974l7.8,-0.96l-7.11,-57.7898c-0.49,-4.01996 -5.4699,-6.78995 -8.9299,-8.24994zM43.1869,0.08257c3.94,1.29 12.7199,4.92998 13.5499,11.67993c1.08,8.74 7.47,60.7498 7.47,60.7498l-13.73,1.69l-8.9299,-72.77973c-0.1,-0.78 0.51,-1.41 1.24,-1.41c0.14,0 0.27,0.02 0.4,0.07z"></path><path id="路径 6" fill-rule="evenodd" style="fill:#00541D" opacity="1" d="M62.236,73.4902l-10.5,1.3c-0.58,0.06 -1.09,0.36 -1.46,0.83c-0.36,0.46 -0.51,1.03 -0.45,1.61l1.32,10.6999c0.23,1.93 -1.08,3.66 -2.99,3.96c-5.25,0.81 -10.21,4.26 -13.65,9.4599c-3.67,5.54 -5.2099,12.4 -4.37,19.31c2.79,22.59 11.44,33.58 26.45,33.58c1.4,0 2.86,-0.1 4.37,-0.28c6.7,-0.83 9.0299,-2.19 9.7899,-3.19c0.85,-1.09 0.67,-2.94 0.25,-6.07c-0.05,-0.42 -0.12,-0.83 -0.17,-1.28l-6.5499,-53.2599l-0.4,-3.25zM37.066,122.42c-1.48,-12.07 5.44,-20.26 13,-21.19l6.09,-0.74c0.17,-0.02 0.31,-0.04 0.48,-0.04c1.96,0 3.64,1.48 3.87,3.42l3.58,29.12c0.02,0.2 0.05,0.4 0.09,0.6c0.31,2.42 0.74,5.76 -1.36,8.5c-1.5,1.92 -3.87,3.07 -7.26,3.49c-0.6,0.08 -1.18,0.11 -1.73,0.11c-5.19,0 -14.27,-3.02 -16.76,-23.27zM65.006,71.5802l1.84,14.98l0.4,3.2499l6.5599,53.2599c0.89,7.27 2.45,12 -12.4899,13.84c-1.56,0.2 -3.14,0.3 -4.73,0.3c-12.72,0 -25.81,-7.07 -29.3999,-36.22c-1.98,-16.01 8.0299,-30.1299 20.5199,-32.0799c0.31,-0.05 0.53,-0.33 0.5,-0.64l-1.31,-10.7099c-0.35,-2.84 1.66,-5.41 4.49,-5.76l12.04,-1.48c0.05,0.02 0.1,0.02 0.17,0.02c0.71,0 1.32,0.53 1.41,1.24zM53.826,142.72c0.45,0 0.88,-0.03 1.33,-0.08c7.47,-0.92 6.39,-5.61 5.96,-9.27l-3.58,-29.12c-0.05,-0.46 -0.45,-0.81 -0.92,-0.81h-0.11l-6.1,0.75c-6.39,0.78 -11.6,8.03 -10.39,17.86c1.81,14.64 7.36,20.67 13.81,20.67z"></path><path id="路径 7" fill-rule="evenodd" style="fill:#36AA5F" opacity="1" d="M61.5297,93.2108l-2.44,-2.17l-11.2699,-10.05c-0.58,-0.51 -0.65,-1.42 -0.11,-2l8.0499,-9.05c1.89,-2.14 5.16,-2.33 7.3,-0.43l8.05,7.17c0.24,0.21 0.6,0.18 0.82,-0.04c8.7,-9.16 25.99,-9.36 38.0503,1.37c24.65,21.96 19.52,37.9302 10.12,48.5102c-10.01,11.22 -13.01,7.25 -18.49,2.37zM111.84,113.321c4.7,-5.28 3.45,-13.6802 -8.3,-24.1602c-7.3903,-6.57 -16.3203,-6.41 -20.6103,-1.61l-4.08,4.58c-0.33,0.39 -0.3,0.97 0.08,1.3l21.9203,19.5202c2.74,2.44 5.99,6 10.99,0.37z"></path><path id="路径 8" fill-rule="evenodd" style="fill:#FFF188" opacity="1" d="M59.0597 82.4858C57.8797 82.2458 56.9197 81.3858 56.5397 80.2458C56.1597 79.1059 56.4197 77.8459 57.2197 76.9459C58.0197 76.0459 59.2397 75.6459 60.4197 75.8859C61.5996 76.1259 62.5596 76.9859 62.9396 78.1259C63.3196 79.2659 63.0596 80.5258 62.2596 81.4258C61.4596 82.3258 60.2397 82.7258 59.0597 82.4858Z"></path><path id="路径 9" fill-rule="evenodd" style="fill:#333333" opacity="1" d="M59.7422,78.0553c-0.18,0 -0.55,0.05 -0.85,0.38c-0.41,0.4701 -0.38,1.2001 0.1,1.6101c0.27,0.24 0.57,0.29 0.75,0.29c0.1801,0 0.5501,-0.05 0.8501,-0.39c0.26,-0.3 0.29,-0.64 0.28,-0.81c-0.02,-0.18 -0.07,-0.51 -0.38,-0.7801c-0.27,-0.25 -0.55,-0.3 -0.7501,-0.3zM61.9823,76.6653c1.39,1.24 1.51,3.3701 0.28,4.7601c-0.66,0.75 -1.59,1.13 -2.5201,1.13c-0.8,0 -1.6,-0.28 -2.24,-0.85c-1.4,-1.24 -1.51,-3.37 -0.28,-4.7601c0.66,-0.75 1.59,-1.13 2.52,-1.13c0.8001,0 1.5901,0.28 2.2401,0.85z"></path><path id="路径 10" fill-rule="evenodd" style="fill:#F5FDFF" opacity="1" d="M49.0336 80.8748C49.0336 80.8748 9.8837 46.0348 3.31371 40.1748C-1.76628 35.6348 0.243713 26.3548 1.40371 22.3749C1.66372 21.4949 2.76371 21.1749 3.46371 21.7949L58.2136 70.5548L49.0336 80.8748Z"></path><path id="路径 11" fill-rule="evenodd" style="fill:#C5E0E8" opacity="1" d="M50.7097 75.6188L48.8197 77.7388L5.33972 38.9888C5.34972 38.9888 2.42972 37.1188 2.32972 32.4188L50.7097 75.6188Z"></path><path id="路径 12" fill-rule="evenodd" style="fill:#333333" opacity="1" d="M3.59372,25.9084c-0.76,3.67 -1.31,9.37 1.68999,12.04l43.49989,38.7099l5.23,-5.87zM3.46372,21.7984l54.74988,48.7499l-9.2,10.33c0,0 -39.13989,-34.8499 -45.71988,-40.7099c-5.07999,-4.53 -3.07,-13.81 -1.91,-17.79c0.19,-0.57 0.7,-0.9 1.23,-0.9c0.3,0 0.6,0.1 0.85,0.32z"></path><path id="路径 13" fill-rule="evenodd" style="fill:#00541D" opacity="1" d="M59.6277,71.1818c-0.63,0 -1.22,0.27 -1.65,0.73l-7.02,7.89l10.11,9l2.44,2.17l40.0803,35.6902c0.33,0.29 0.65,0.59 0.94,0.87c2.23,2.01 3.67,3.25 5,3.25c1.26,0 3.72,-1.08 8.32,-6.26c5.16,-5.79 7.44,-11.6 6.97,-17.76c-0.63,-8.2202 -6.31,-17.1302 -16.85,-26.5302c-5.36,-4.77 -12.0703,-7.39 -18.9103,-7.39c-5.99,0 -11.45,2.14 -14.99,5.86c-0.66,0.72 -1.61,1.11 -2.59,1.11c-0.86,0 -1.71,-0.31 -2.36,-0.89l-8.05,-7.17c-0.5,-0.47 -1.06,-0.57 -1.44,-0.57zM99.2977,115.572c-0.14,-0.13 -0.29,-0.28 -0.44,-0.41l-21.92,-19.5102c-0.78,-0.69 -1.24,-1.64 -1.29,-2.69c-0.07,-1.04 0.28,-2.04 0.98,-2.82l4.08,-4.58c2.57,-2.89 6.36,-4.48 10.66,-4.48c4.9,0 9.9103,2.07 14.1403,5.84c17.02,15.1702 11.66,24.9002 8.57,28.3902c-2.41,2.69 -4.81,3.98 -7.4,3.98c-3.26,0 -5.63,-2.14 -7.3803,-3.72zM63.0577,69.5218l8.06,7.17c0.11,0.1 0.24,0.15 0.38,0.15c0.15,0 0.31,-0.06 0.43,-0.18c4.22,-4.45 10.46,-6.79 17.15,-6.79c7.09,0 14.6903,2.62 20.8803,8.15c24.67,21.95 19.54,37.9202 10.15,48.4902c-4.77,5.35 -7.94,7.26 -10.55,7.26c-2.87,0 -5.06,-2.31 -7.93,-4.86l-40.0803,-35.6802l-2.44,-2.18l-11.27,-10.04c-0.58,-0.51 -0.65,-1.43 -0.12,-2.01l8.06,-9.05c1.01,-1.16 2.42,-1.74 3.85,-1.74c1.23,0 2.45,0.43 3.43,1.31zM106.678,116.322c1.49,0 3.2,-0.8 5.16,-3c4.7,-5.28 3.45,-13.6802 -8.3,-24.1602c-3.9403,-3.5 -8.3003,-5.1 -12.1703,-5.1c-3.4,0 -6.43,1.23 -8.43,3.49l-4.09,4.58c-0.33,0.38 -0.3,0.97 0.08,1.3l21.9203,19.5202c1.66,1.48 3.52,3.37 5.83,3.37z"></path></g></g></g><defs><rect id="path_0" x="0" y="0" width="250" height="250" /></defs></svg>