<?xml version="1.0" encoding="UTF-8"?>
<svg width="19px" height="19px" viewBox="0 0 19 19" version="1.1" xmlns="http://www.w3.org/2000/svg" xmlns:xlink="http://www.w3.org/1999/xlink">
    <!-- Generator: Sketch 53.1 (72631) - https://sketchapp.com -->
    <title>否 </title>
    <desc>Created with Sketch.</desc>
    <g id="Page-1" stroke="none" stroke-width="1" fill="none" fill-rule="evenodd">
        <g id="否-" fill="#F86666" fill-rule="nonzero">
            <path d="M11.92175,9.09375 L17.57975,14.74975 C18.3612329,15.5312329 18.3612329,16.7982671 17.57975,17.57975 C16.7982671,18.3612329 15.5312329,18.3612329 14.74975,17.57975 L9.09375,11.92175 L3.43775,17.57975 C2.65626708,18.3612329 1.38923293,18.3612329 0.607750021,17.57975 C-0.173732892,16.7982671 -0.173732901,15.5312329 0.60775,14.74975 L6.26575,9.09375 L0.60775,3.43775 C0.10221919,2.93221919 -0.0952130651,2.19539198 0.0898240536,1.50482405 C0.274861172,0.814256125 0.814256125,0.274861172 1.50482405,0.0898240536 C2.19539198,-0.0952130651 2.93221919,0.10221919 3.43775,0.60775 L9.09375,6.26575 L14.74975,0.60775 C15.2552808,0.10221919 15.992108,-0.0952130651 16.6826759,0.0898240536 C17.3732439,0.274861172 17.9126388,0.814256125 18.0976759,1.50482405 C18.2827131,2.19539198 18.0852808,2.93221919 17.57975,3.43775 L11.92175,9.09375 Z" id="路径"></path>
        </g>
    </g>
</svg>