<?xml version="1.0" encoding="UTF-8"?>
<svg width="22px" height="6px" viewBox="0 0 22 6" version="1.1" xmlns="http://www.w3.org/2000/svg" xmlns:xlink="http://www.w3.org/1999/xlink">
    <!-- Generator: Sketch 53.1 (72631) - https://sketchapp.com -->
    <title>其它</title>
    <desc>Created with Sketch.</desc>
    <g id="Page-1" stroke="none" stroke-width="1" fill="none" fill-rule="evenodd">
        <g id="其它" fill="#33C2F6" fill-rule="nonzero">
            <path d="M0.0075,2.70083334 C0.00749998573,3.65830513 0.518305097,4.54304556 1.34749999,5.02178146 C2.17669488,5.50051736 3.19830512,5.50051736 4.02750001,5.02178146 C4.8566949,4.54304556 5.36750001,3.65830513 5.3675,2.70083334 C5.36750002,1.74336155 4.85669491,0.858621118 4.02750002,0.379885215 C3.19830512,-0.0988506885 2.17669488,-0.0988506885 1.34749998,0.379885215 C0.51830509,0.858621118 0.00749997982,1.74336155 0.0075,2.70083334 L0.0075,2.70083334 Z" id="路径"></path>
            <path d="M8.02083334,2.70083334 C8.02083334,4.18095647 9.22071021,5.38083334 10.7008333,5.38083334 C12.1809565,5.38083334 13.3808333,4.18095647 13.3808333,2.70083334 C13.3808333,1.22071021 12.1809565,0.0208333437 10.7008333,0.0208333437 C9.22071021,0.0208333437 8.02083334,1.22071021 8.02083334,2.70083334 Z" id="路径"></path>
            <path d="M16.0075,2.70083334 C16.0075,4.18095647 17.2073769,5.38083334 18.6875,5.38083334 C20.1676231,5.38083334 21.3675,4.18095647 21.3675,2.70083334 C21.3675,1.22071021 20.1676231,0.0208333437 18.6875,0.0208333437 C17.2073769,0.0208333437 16.0075,1.22071021 16.0075,2.70083334 Z" id="路径"></path>
        </g>
    </g>
</svg>