<?xml version="1.0" encoding="UTF-8"?>
<svg width="50px" height="9px" viewBox="0 0 50 9" version="1.1" xmlns="http://www.w3.org/2000/svg" xmlns:xlink="http://www.w3.org/1999/xlink">
    <!-- Generator: Sketch 53.1 (72631) - https://sketchapp.com -->
    <title>1:上下线分离</title>
    <desc>Created with Sketch.</desc>
    <g id="Page-1" stroke="none" stroke-width="1" fill="none" fill-rule="evenodd">
        <path d="M4.49609375,7 L0.71875,7 L0.71875,5.99609375 L1.98046875,5.99609375 L1.98046875,2.125 L0.68359375,2.41796875 L0.68359375,1.3828125 L3.2421875,0.84375 L3.2421875,5.99609375 L4.49609375,5.99609375 L4.49609375,7 Z M5.68421876,3.2890625 C5.68421876,3.0963532 5.75843677,2.93750063 5.90687501,2.8125 C6.05531326,2.68749937 6.23239482,2.625 6.43812501,2.625 C6.64645939,2.625 6.82223888,2.68749937 6.96546876,2.8125 C7.10869865,2.93750063 7.18031251,3.0963532 7.18031251,3.2890625 C7.18031251,3.48958434 7.10869865,3.65169209 6.96546876,3.77539062 C6.82223888,3.89908916 6.64125111,3.9609375 6.42250001,3.9609375 C6.21416564,3.9609375 6.03903718,3.89713605 5.89710939,3.76953125 C5.7551816,3.64192645 5.68421876,3.4817718 5.68421876,3.2890625 Z M5.68421876,6.43359375 C5.68421876,6.23828027 5.75843677,6.07812563 5.90687501,5.953125 C6.05531326,5.82812437 6.23239482,5.765625 6.43812501,5.765625 C6.64645939,5.765625 6.82223888,5.82942645 6.96546876,5.95703125 C7.10869865,6.08463605 7.18031251,6.24348863 7.18031251,6.43359375 C7.18031251,6.63411559 7.10869865,6.79622334 6.96546876,6.91992188 C6.82223888,7.04362041 6.64125111,7.10546875 6.42250001,7.10546875 C6.219374,7.10546875 6.04554761,7.0416673 5.90101564,6.9140625 C5.75648367,6.7864577 5.68421876,6.62630305 5.68421876,6.43359375 Z M8.16531253,6.55078125 L11.06375,6.55078125 L11.06375,0.40234375 L12.329375,0.40234375 L12.329375,2.56640625 L15.22,2.56640625 L15.22,3.68359375 L12.329375,3.68359375 L12.329375,6.55078125 L15.7278125,6.55078125 L15.7278125,7.65234375 L8.16531253,7.65234375 L8.16531253,6.55078125 Z M21.345625,2.78515625 C22.1893793,3.38932594 23.035725,4.01692383 23.8846875,4.66796875 L23.08,5.65234375 C22.1945789,4.88671492 21.3872954,4.23307562 20.658125,3.69140625 L20.658125,8.02734375 L19.3925,8.02734375 L19.3925,1.91796875 L16.5175,1.91796875 L16.5175,0.81640625 L24.064375,0.81640625 L24.064375,1.91796875 L20.658125,1.91796875 L20.658125,3.47265625 L21.345625,2.78515625 Z M24.9400001,7.66015625 L24.7368751,6.56640625 C25.6743797,6.44661398 26.6353076,6.30859453 27.6196876,6.15234375 C27.6066667,6.31640707 27.5988542,6.49218656 27.5962501,6.6796875 C28.1952114,6.49218656 28.7537995,6.26302219 29.2720313,5.9921875 C29.1548432,5.62239398 29.0610942,5.18359629 28.9907813,4.67578125 L27.6743751,4.83203125 L27.5415626,3.88671875 L28.8892188,3.7265625 L28.8423438,2.9453125 L27.8150001,3.05078125 L27.7681251,2.6328125 C27.2446849,3.49740016 26.7733355,4.21223676 26.3540626,4.77734375 C26.8228149,4.70963508 27.213436,4.6471357 27.5259376,4.58984375 C27.4998958,4.80338648 27.4738544,5.12890406 27.4478126,5.56640625 C26.3280153,5.71224031 25.5780228,5.83723906 25.1978126,5.94140625 L24.9087501,5.06640625 C25.2394809,4.75390469 25.6040606,4.29818008 26.0025001,3.69921875 C25.7212487,3.72265637 25.3957311,3.75390605 25.0259376,3.79296875 L24.7368751,2.90234375 C25.1691689,2.37109109 25.6405183,1.51953711 26.1509376,0.34765625 L27.1431251,0.73828125 C26.6847894,1.55078531 26.2733352,2.24088258 25.9087501,2.80859375 C26.1040635,2.80598957 26.3254155,2.79817715 26.5728126,2.78515625 C26.7134383,2.54296754 26.8592701,2.28515762 27.0103126,2.01171875 L27.7407813,2.35546875 L27.7134376,2.09765625 L28.7876563,1.9921875 L28.7212501,0.37109375 L29.7759376,0.37109375 C29.7837501,0.899742227 29.7980729,1.40624758 29.8189063,1.890625 L31.1821876,1.7578125 C30.869686,1.52864469 30.5077104,1.28515754 30.0962501,1.02734375 L30.6040626,0.35546875 C31.0259397,0.584636563 31.4478104,0.834634063 31.8696876,1.10546875 L31.3931251,1.734375 L32.1431251,1.66015625 L32.2368751,2.59765625 L29.8696876,2.83984375 L29.9282813,3.60546875 L32.3540626,3.31640625 L32.4556251,4.25390625 L31.5142188,4.3671875 L32.2056251,4.91796875 C31.7004142,5.47005484 31.1561488,5.95182086 30.5728126,6.36328125 C30.7889595,6.70442879 30.9855721,6.875 31.1626563,6.875 C31.2564068,6.875 31.3332289,6.81184959 31.3931251,6.68554688 C31.4530212,6.55924416 31.5337495,6.22786727 31.6353126,5.69140625 C31.9946894,5.87890719 32.2993738,6.02994734 32.5493751,6.14453125 C32.3488532,6.95443113 32.1515896,7.47460822 31.9575782,7.70507812 C31.7635668,7.93554803 31.5389597,8.05078125 31.2837501,8.05078125 C30.6196842,8.05078125 30.0806271,7.67708707 29.6665626,6.9296875 C29.0441636,7.27083504 28.3827119,7.54296773 27.6821876,7.74609375 C27.6040622,7.58203043 27.5129172,7.40755301 27.4087501,7.22265625 C26.4790579,7.36849031 25.6561495,7.51432219 24.9400001,7.66015625 Z M31.4243751,4.37890625 L30.0454688,4.546875 C30.0949482,4.84635566 30.1522393,5.13671734 30.2173438,5.41796875 C30.654846,5.10807137 31.0571857,4.76172066 31.4243751,4.37890625 Z M40.9562501,3.21484375 C40.737499,3.48567844 40.4875015,3.81900844 40.2062501,4.21484375 C40.0135408,4.06380133 39.8273447,3.90755289 39.6476563,3.74609375 C39.5773435,5.41016457 39.5226565,6.41536285 39.4835938,6.76171875 C39.4445311,7.10807465 39.3156262,7.3756501 39.0968751,7.56445312 C38.878124,7.75325615 38.5721375,7.84765625 38.1789063,7.84765625 C37.6424453,7.84765625 37.13594,7.83984383 36.6593751,7.82421875 C36.6124998,7.39192492 36.5578129,6.99869969 36.4953126,6.64453125 C37.1723993,6.7018232 37.6619777,6.73046875 37.9640626,6.73046875 C38.143751,6.73046875 38.2576821,6.65039143 38.3058594,6.49023438 C38.3540368,6.33007732 38.3937499,5.67578699 38.4250001,4.52734375 L36.4953126,4.52734375 C36.4510415,5.25911824 36.3462249,5.82031055 36.1808594,6.2109375 C36.015494,6.60156445 35.756382,6.95442551 35.4035157,7.26953125 C35.0506493,7.58463699 34.6072944,7.85807176 34.0734376,8.08984375 C33.7505193,7.65754992 33.4796887,7.32682406 33.2609376,7.09765625 C33.7244816,6.91275949 34.1066392,6.70768342 34.4074219,6.48242188 C34.7082047,6.25716033 34.9243484,6.01757939 35.0558594,5.76367188 C35.1873705,5.50976436 35.2752603,5.0976591 35.3195313,4.52734375 L34.2062501,4.52734375 L34.2062501,3.90625 C34.0760411,4.00520883 33.9432299,4.10025996 33.8078126,4.19140625 C33.568228,3.85286289 33.3312512,3.558595 33.0968751,3.30859375 C34.2739643,2.48046461 35.1619762,1.49609945 35.7609376,0.35546875 L36.8078126,0.80859375 C36.263539,1.83464055 35.5799521,2.71484008 34.7570313,3.44921875 L39.3273438,3.44921875 C38.5278607,2.67838156 37.867711,1.81901516 37.3468751,0.87109375 L38.3156251,0.37109375 C38.9822951,1.52214117 39.8624946,2.47004836 40.9562501,3.21484375 Z M43.8240626,1.73828125 L45.4451563,2.32421875 C45.8904711,2.14713453 46.3071336,1.94921984 46.6951563,1.73046875 L41.4959376,1.73046875 L41.4959376,0.94921875 L44.8396876,0.94921875 C44.7693747,0.766926172 44.6964588,0.587240469 44.6209376,0.41015625 L45.8631251,0.32421875 C45.9230212,0.483073711 45.9959372,0.691404961 46.0818751,0.94921875 L49.2615626,0.94921875 L49.2615626,1.73046875 L46.7576563,1.73046875 L47.1990626,2.25390625 C46.9126028,2.39453195 46.6222411,2.5286452 46.3279688,2.65625 L47.3475001,3.04296875 L47.0818751,3.65234375 L47.5818751,3.65234375 L47.5818751,2.02734375 L48.5818751,2.02734375 L48.5818751,4.41796875 L45.8006251,4.41796875 L45.5193751,4.85546875 L48.8631251,4.85546875 L48.8631251,6.97265625 C48.8631251,7.29557453 48.8090892,7.53320236 48.7010157,7.68554688 C48.5929423,7.83789139 48.4288814,7.92968734 48.2088282,7.9609375 C47.988775,7.99218766 47.4751083,8.00390629 46.6678126,7.99609375 C46.6053123,7.68359219 46.5376046,7.41276156 46.4646876,7.18359375 L46.8826563,7.19921875 L46.6600001,6.90234375 C45.1573884,6.95442734 44.1417736,7.02994742 43.6131251,7.12890625 L43.2537501,6.35546875 C43.4594803,6.29557262 43.7185923,6.0507834 44.0310938,5.62109375 L43.0193751,5.62109375 L43.0193751,8.04296875 L41.9725001,8.04296875 L41.9725001,4.85546875 L44.5232813,4.85546875 C44.6040109,4.72005141 44.6886455,4.57421953 44.7771876,4.41796875 L42.2068751,4.41796875 L42.2068751,2.02734375 L43.2068751,2.02734375 L43.2068751,3.65234375 L46.9295313,3.65234375 L45.4256251,3.01953125 C44.844893,3.2434907 44.251149,3.44400953 43.6443751,3.62109375 C43.5349995,3.33984234 43.4360422,3.11849039 43.3475001,2.95703125 C43.7485438,2.86848914 44.1339566,2.76692766 44.5037501,2.65234375 C44.1209357,2.50390551 43.7823974,2.37890676 43.4881251,2.27734375 L43.8240626,1.73828125 Z M47.6678126,6.80078125 L47.1092188,7.203125 C47.4529706,7.21875008 47.6567446,7.19531281 47.720547,7.1328125 C47.7843494,7.07031219 47.8162501,6.98828176 47.8162501,6.88671875 L47.8162501,5.62109375 L46.6287501,5.62109375 C46.9959394,6.01953324 47.3422901,6.41275848 47.6678126,6.80078125 Z M45.7771876,5.81640625 L46.0740626,5.62109375 L45.0076563,5.62109375 C44.8618223,5.83724066 44.7120842,6.05338434 44.5584376,6.26953125 C44.9933356,6.25390617 45.5063513,6.22916684 46.0975001,6.1953125 L45.7771876,5.81640625 Z" id="1:上下线分离" fill="#7885EF" fill-rule="nonzero"></path>
    </g>
</svg>