<?xml version="1.0" encoding="UTF-8"?>
<svg width="29px" height="9px" viewBox="0 0 29 9" version="1.1" xmlns="http://www.w3.org/2000/svg" xmlns:xlink="http://www.w3.org/1999/xlink">
    <!-- Generator: Sketch 53.1 (72631) - https://sketchapp.com -->
    <title>10:入口</title>
    <desc>Created with Sketch.</desc>
    <g id="Page-1" stroke="none" stroke-width="1" fill="none" fill-rule="evenodd">
        <path d="M4.49609375,7.375 L0.71875,7.375 L0.71875,6.37109375 L1.98046875,6.37109375 L1.98046875,2.5 L0.68359375,2.79296875 L0.68359375,1.7578125 L3.2421875,1.21875 L3.2421875,6.37109375 L4.49609375,6.37109375 L4.49609375,7.375 Z M5.59828126,4.44921875 C5.59828126,3.40233852 5.79098767,2.60286734 6.17640626,2.05078125 C6.56182486,1.49869516 7.11911095,1.22265625 7.84828126,1.22265625 C9.23891322,1.22265625 9.93421876,2.2512918 9.93421876,4.30859375 C9.93421876,5.32161965 9.74541857,6.10351287 9.36781251,6.65429688 C8.99020646,7.20508088 8.444639,7.48046875 7.73109376,7.48046875 C6.30921165,7.48046875 5.59828126,6.47006219 5.59828126,4.44921875 Z M6.87562501,4.41796875 C6.87562501,5.81380906 7.17379912,6.51171875 7.77015626,6.51171875 C8.35609669,6.51171875 8.64906251,5.79297594 8.64906251,4.35546875 C8.64906251,2.9127532 8.36390912,2.19140625 7.79359376,2.19140625 C7.18161154,2.19140625 6.87562501,2.93358633 6.87562501,4.41796875 Z M10.9778125,3.6640625 C10.9778125,3.4713532 11.0520305,3.31250063 11.2004688,3.1875 C11.348907,3.06249937 11.5259886,3 11.7317188,3 C11.9400532,3 12.1158326,3.06249937 12.2590625,3.1875 C12.4022924,3.31250063 12.4739063,3.4713532 12.4739063,3.6640625 C12.4739063,3.86458434 12.4022924,4.02669209 12.2590625,4.15039062 C12.1158326,4.27408916 11.9348449,4.3359375 11.7160938,4.3359375 C11.5077594,4.3359375 11.3326309,4.27213605 11.1907032,4.14453125 C11.0487754,4.01692645 10.9778125,3.8567718 10.9778125,3.6640625 Z M10.9778125,6.80859375 C10.9778125,6.61328027 11.0520305,6.45312563 11.2004688,6.328125 C11.348907,6.20312437 11.5259886,6.140625 11.7317188,6.140625 C11.9400532,6.140625 12.1158326,6.20442645 12.2590625,6.33203125 C12.4022924,6.45963605 12.4739063,6.61848863 12.4739063,6.80859375 C12.4739063,7.00911559 12.4022924,7.17122334 12.2590625,7.29492188 C12.1158326,7.41862041 11.9348449,7.48046875 11.7160938,7.48046875 C11.5129678,7.48046875 11.3391414,7.4166673 11.1946094,7.2890625 C11.0500774,7.1614577 10.9778125,7.00130305 10.9778125,6.80859375 Z M15.2401563,1.34765625 L16.2792188,0.74609375 C16.8365132,1.18359594 17.4953608,2.17056523 18.2557813,3.70703125 C18.99016,5.20703875 19.9406713,6.37629789 21.1073438,7.21484375 C20.6646332,7.68880445 20.326095,8.07421727 20.0917188,8.37109375 C18.9667132,7.26952574 18.0292225,5.95052852 17.2792188,4.4140625 C16.6203613,6.00000793 15.6099548,7.32942172 14.2479688,8.40234375 C14.0083843,8.10025891 13.7010957,7.75911648 13.3260938,7.37890625 C14.9406852,6.21744211 16.0383305,4.76042543 16.6190625,3.0078125 C16.2857275,2.42187207 15.8260967,1.86849219 15.2401563,1.34765625 Z M22.2642188,8.21484375 L22.2642188,1.39453125 L28.9282813,1.39453125 L28.9282813,8.21484375 L27.7564063,8.21484375 L27.7564063,7.66015625 L23.4360938,7.66015625 L23.4360938,8.21484375 L22.2642188,8.21484375 Z M27.7564063,2.46484375 L23.4360938,2.46484375 L23.4360938,6.58984375 L27.7564063,6.58984375 L27.7564063,2.46484375 Z" id="10:入口" fill="#7885EF" fill-rule="nonzero"></path>
    </g>
</svg>