<?xml version="1.0" encoding="UTF-8"?>
<svg width="53px" height="9px" viewBox="0 0 53 9" version="1.1" xmlns="http://www.w3.org/2000/svg" xmlns:xlink="http://www.w3.org/1999/xlink">
    <!-- Generator: Sketch 53.1 (72631) - https://sketchapp.com -->
    <title>11:右转车道A</title>
    <desc>Created with Sketch.</desc>
    <g id="Page-1" stroke="none" stroke-width="1" fill="none" fill-rule="evenodd">
        <path d="M4.49609375,7 L0.71875,7 L0.71875,5.99609375 L1.98046875,5.99609375 L1.98046875,2.125 L0.68359375,2.41796875 L0.68359375,1.3828125 L3.2421875,0.84375 L3.2421875,5.99609375 L4.49609375,5.99609375 L4.49609375,7 Z M9.78968751,7 L6.01234376,7 L6.01234376,5.99609375 L7.27406251,5.99609375 L7.27406251,2.125 L5.97718751,2.41796875 L5.97718751,1.3828125 L8.53578126,0.84375 L8.53578126,5.99609375 L9.78968751,5.99609375 L9.78968751,7 Z M10.9778125,3.2890625 C10.9778125,3.0963532 11.0520305,2.93750063 11.2004688,2.8125 C11.348907,2.68749937 11.5259886,2.625 11.7317188,2.625 C11.9400532,2.625 12.1158326,2.68749937 12.2590625,2.8125 C12.4022924,2.93750063 12.4739063,3.0963532 12.4739063,3.2890625 C12.4739063,3.48958434 12.4022924,3.65169209 12.2590625,3.77539062 C12.1158326,3.89908916 11.9348449,3.9609375 11.7160938,3.9609375 C11.5077594,3.9609375 11.3326309,3.89713605 11.1907032,3.76953125 C11.0487754,3.64192645 10.9778125,3.4817718 10.9778125,3.2890625 Z M10.9778125,6.43359375 C10.9778125,6.23828027 11.0520305,6.07812563 11.2004688,5.953125 C11.348907,5.82812437 11.5259886,5.765625 11.7317188,5.765625 C11.9400532,5.765625 12.1158326,5.82942645 12.2590625,5.95703125 C12.4022924,6.08463605 12.4739063,6.24348863 12.4739063,6.43359375 C12.4739063,6.63411559 12.4022924,6.79622334 12.2590625,6.91992188 C12.1158326,7.04362041 11.9348449,7.10546875 11.7160938,7.10546875 C11.5129678,7.10546875 11.3391414,7.0416673 11.1946094,6.9140625 C11.0500774,6.7864577 10.9778125,6.62630305 10.9778125,6.43359375 Z M15.0135938,8.02734375 L15.0135938,5.01171875 C14.6099459,5.44661676 14.1724503,5.8528627 13.7010938,6.23046875 C13.5969266,5.71484117 13.5005734,5.30599109 13.4120313,5.00390625 C14.3287025,4.22525652 15.0656743,3.36849426 15.6229688,2.43359375 L13.4979688,2.43359375 L13.4979688,1.38671875 L16.158125,1.38671875 C16.3013549,1.05077957 16.4250516,0.707033008 16.5292188,0.35546875 L17.6854688,0.51171875 C17.5813016,0.811199414 17.4680215,1.10286316 17.345625,1.38671875 L20.9667188,1.38671875 L20.9667188,2.43359375 L16.8417188,2.43359375 C16.6203635,2.85286668 16.3768764,3.25390434 16.11125,3.63671875 L20.4042188,3.63671875 L20.4042188,8.01171875 L19.2948438,8.01171875 L19.2948438,7.54296875 L16.1229688,7.54296875 L16.1229688,8.02734375 L15.0135938,8.02734375 Z M19.2948438,4.66796875 L16.1229688,4.66796875 L16.1229688,6.51171875 L19.2948438,6.51171875 L19.2948438,4.66796875 Z M21.7954688,6.80859375 L21.7095313,5.77734375 C22.212138,5.74348941 22.7251537,5.70182316 23.2485938,5.65234375 L23.2485938,4.92578125 L21.7564063,4.92578125 L21.7564063,3.98046875 C21.9439072,3.44661191 22.1118743,2.87370098 22.2603126,2.26171875 L21.7251563,2.26171875 L21.7251563,1.33984375 L22.4634376,1.33984375 C22.5259379,1.02473801 22.584531,0.69922043 22.6392188,0.36328125 L23.6626563,0.43359375 C23.5975518,0.735678594 23.5285421,1.03775891 23.4556251,1.33984375 L24.9829688,1.33984375 L24.9829688,2.26171875 L23.2212501,2.26171875 C23.0649993,2.84245082 22.8944281,3.42317418 22.7095313,4.00390625 L23.2485938,4.00390625 L23.2485938,2.68359375 L24.1860938,2.68359375 L24.1860938,4.00390625 L25.0298438,4.00390625 L25.0298438,4.92578125 L24.1860938,4.92578125 L24.1860938,5.55859375 L25.1704688,5.44921875 C25.1340103,5.76692867 25.110573,6.09244625 25.1001563,6.42578125 L24.1860938,6.5234375 L24.1860938,8.07421875 L23.2485938,8.07421875 L23.2485938,6.6328125 L21.7954688,6.80859375 Z M25.2876563,6.55078125 L25.8423438,5.73046875 C26.2824502,5.93359477 26.7446851,6.15755086 27.2290626,6.40234375 L28.1157813,5.35546875 L25.4829688,5.35546875 L25.4829688,4.59765625 L25.6939063,3.78515625 L24.9829688,3.78515625 L24.9829688,2.91015625 L25.9087501,2.91015625 L26.0689063,2.21484375 L25.3267188,2.21484375 L25.3267188,1.33984375 L26.2564063,1.33984375 L26.4439063,0.37890625 L27.5610938,0.37890625 L27.3657813,1.33984375 L29.1860938,1.33984375 L29.1860938,2.21484375 L27.1743751,2.21484375 C27.1222915,2.45442828 27.0689066,2.6861968 27.0142188,2.91015625 L29.4673438,2.91015625 L29.4673438,3.78515625 L26.7993751,3.78515625 C26.7394789,4.02474078 26.6782816,4.2565093 26.6157813,4.48046875 L29.3267188,4.48046875 L29.3267188,5.30078125 L28.1118751,6.85546875 C28.3358345,6.97005266 28.5636968,7.08984312 28.7954688,7.21484375 L28.1939063,8.09765625 C27.2251515,7.53515344 26.2564112,7.01953359 25.2876563,6.55078125 Z M30.1710938,5.62109375 L33.6710938,5.62109375 L33.6710938,4.80078125 L30.8976563,4.80078125 L30.8976563,3.90234375 C31.2283871,3.3320284 31.5291654,2.76953402 31.8000001,2.21484375 L30.3898438,2.21484375 L30.3898438,1.24609375 L32.2453126,1.24609375 C32.3833341,0.928383828 32.5122391,0.613282812 32.6320313,0.30078125 L33.7882813,0.47265625 L33.4367188,1.24609375 L37.4210938,1.24609375 L37.4210938,2.21484375 L32.9679688,2.21484375 C32.7049467,2.73567969 32.4210953,3.2747368 32.1164063,3.83203125 L33.6710938,3.83203125 L33.6710938,2.59765625 L34.7648438,2.59765625 L34.7648438,3.83203125 L36.9992188,3.83203125 L36.9992188,4.80078125 L34.7648438,4.80078125 L34.7648438,5.62109375 L37.7335938,5.62109375 L37.7335938,6.58984375 L34.7648438,6.58984375 L34.7648438,8.07421875 L33.6710938,8.07421875 L33.6710938,6.58984375 L30.1710938,6.58984375 L30.1710938,5.62109375 Z M40.8904688,2.41796875 L42.4998438,2.41796875 L42.5975001,1.98046875 L40.5935938,1.98046875 L40.5935938,1.15234375 L41.7225001,1.15234375 L41.2810938,0.51171875 L42.2889063,0.27734375 L42.7732813,1.15234375 L43.6365626,1.15234375 C43.7954175,0.852863086 43.9347391,0.563803477 44.0545313,0.28515625 L45.1482813,0.49609375 C45.0102598,0.694011406 44.8527093,0.912759219 44.6756251,1.15234375 L45.9529688,1.15234375 L45.9529688,1.98046875 L43.6678126,1.98046875 L43.5389063,2.41796875 L45.6404688,2.41796875 L45.6404688,6.48046875 L40.8904688,6.48046875 L40.8904688,2.41796875 Z M44.6873438,3.17578125 L41.8435938,3.17578125 L41.8435938,3.60546875 L44.6873438,3.60546875 L44.6873438,3.17578125 Z M41.8435938,4.66015625 L44.6873438,4.66015625 L44.6873438,4.23046875 L41.8435938,4.23046875 L41.8435938,4.66015625 Z M44.6873438,5.72265625 L44.6873438,5.28515625 L41.8435938,5.28515625 L41.8435938,5.72265625 L44.6873438,5.72265625 Z M39.3748438,0.34765625 C39.8540129,0.941409219 40.2185926,1.41796695 40.4685938,1.77734375 C40.0988003,2.01171992 39.7889076,2.21484289 39.5389063,2.38671875 C39.1847379,1.81379922 38.8514079,1.3190125 38.5389063,0.90234375 L39.3748438,0.34765625 Z M46.2029688,6.88671875 L45.8201563,7.92578125 C44.859214,7.92578125 43.9659938,7.92057297 43.1404688,7.91015625 L41.4373438,7.87890625 C41.1274465,7.87109371 40.8214599,7.8059902 40.5193751,7.68359375 C40.2172902,7.5611973 39.9555741,7.37630332 39.7342188,7.12890625 L38.8826563,8.10546875 L38.4373438,6.89453125 L39.1795313,6.2578125 L39.1795313,4.11328125 L38.4842188,4.11328125 L38.4842188,3.08203125 L40.1560938,3.08203125 L40.1560938,6.28125 C40.4738038,6.72135637 41.0493188,6.94140625 41.8826563,6.94140625 C43.6613111,6.94140625 45.1014008,6.92317727 46.2029688,6.88671875 Z M52.6215626,7 L51.2153126,7 L50.7621876,5.61328125 L48.5629689,5.61328125 L48.1176564,7 L46.7192189,7 L48.9340626,0.94921875 L50.4496876,0.94921875 L52.6215626,7 Z M50.4575001,4.6171875 L49.7700001,2.51953125 C49.725729,2.38671809 49.6944794,2.21093859 49.6762501,1.9921875 L49.6410939,1.9921875 C49.6254688,2.16927172 49.5903129,2.33984293 49.5356251,2.50390625 L48.8442189,4.6171875 L50.4575001,4.6171875 Z" id="11:右转车道A" fill="#7885EF" fill-rule="nonzero"></path>
    </g>
</svg>