<?xml version="1.0" encoding="UTF-8"?>
<svg width="52px" height="9px" viewBox="0 0 52 9" version="1.1" xmlns="http://www.w3.org/2000/svg" xmlns:xlink="http://www.w3.org/1999/xlink">
    <!-- Generator: Sketch 53.1 (72631) - https://sketchapp.com -->
    <title>12:右转车道B</title>
    <desc>Created with Sketch.</desc>
    <g id="Page-1" stroke="none" stroke-width="1" fill="none" fill-rule="evenodd">
        <path d="M4.49609375,7.625 L0.71875,7.625 L0.71875,6.62109375 L1.98046875,6.62109375 L1.98046875,2.75 L0.68359375,3.04296875 L0.68359375,2.0078125 L3.2421875,1.46875 L3.2421875,6.62109375 L4.49609375,6.62109375 L4.49609375,7.625 Z M9.69593751,7.625 L5.75062501,7.625 L5.75062501,6.6328125 L7.48890626,4.96484375 C7.85349142,4.61588367 8.1086972,4.32291785 8.25453126,4.0859375 C8.40036533,3.84895715 8.47328126,3.60286586 8.47328126,3.34765625 C8.47328126,2.77213254 8.1646906,2.484375 7.54750001,2.484375 C7.02926826,2.484375 6.52797119,2.69270625 6.04359376,3.109375 L6.04359376,1.98828125 C6.56182552,1.64452953 7.1503613,1.47265625 7.80921876,1.47265625 C8.40557591,1.47265625 8.87822744,1.62434744 9.22718751,1.92773438 C9.57614759,2.23112131 9.75062501,2.65103898 9.75062501,3.1875 C9.75062501,3.89583687 9.32094181,4.63801695 8.46156251,5.4140625 L7.19984376,6.55078125 L7.19984376,6.57421875 L9.69593751,6.57421875 L9.69593751,7.625 Z M10.9778125,3.9140625 C10.9778125,3.7213532 11.0520305,3.56250063 11.2004688,3.4375 C11.348907,3.31249937 11.5259886,3.25 11.7317188,3.25 C11.9400532,3.25 12.1158326,3.31249937 12.2590625,3.4375 C12.4022924,3.56250063 12.4739063,3.7213532 12.4739063,3.9140625 C12.4739063,4.11458434 12.4022924,4.27669209 12.2590625,4.40039062 C12.1158326,4.52408916 11.9348449,4.5859375 11.7160938,4.5859375 C11.5077594,4.5859375 11.3326309,4.52213605 11.1907032,4.39453125 C11.0487754,4.26692645 10.9778125,4.1067718 10.9778125,3.9140625 Z M10.9778125,7.05859375 C10.9778125,6.86328027 11.0520305,6.70312563 11.2004688,6.578125 C11.348907,6.45312437 11.5259886,6.390625 11.7317188,6.390625 C11.9400532,6.390625 12.1158326,6.45442645 12.2590625,6.58203125 C12.4022924,6.70963605 12.4739063,6.86848863 12.4739063,7.05859375 C12.4739063,7.25911559 12.4022924,7.42122334 12.2590625,7.54492188 C12.1158326,7.66862041 11.9348449,7.73046875 11.7160938,7.73046875 C11.5129678,7.73046875 11.3391414,7.6666673 11.1946094,7.5390625 C11.0500774,7.4114577 10.9778125,7.25130305 10.9778125,7.05859375 Z M15.0135938,8.65234375 L15.0135938,5.63671875 C14.6099459,6.07161676 14.1724503,6.4778627 13.7010938,6.85546875 C13.5969266,6.33984117 13.5005734,5.93099109 13.4120313,5.62890625 C14.3287025,4.85025652 15.0656743,3.99349426 15.6229688,3.05859375 L13.4979688,3.05859375 L13.4979688,2.01171875 L16.158125,2.01171875 C16.3013549,1.67577957 16.4250516,1.33203301 16.5292188,0.98046875 L17.6854688,1.13671875 C17.5813016,1.43619941 17.4680215,1.72786316 17.345625,2.01171875 L20.9667188,2.01171875 L20.9667188,3.05859375 L16.8417188,3.05859375 C16.6203635,3.47786668 16.3768764,3.87890434 16.11125,4.26171875 L20.4042188,4.26171875 L20.4042188,8.63671875 L19.2948438,8.63671875 L19.2948438,8.16796875 L16.1229688,8.16796875 L16.1229688,8.65234375 L15.0135938,8.65234375 Z M19.2948438,5.29296875 L16.1229688,5.29296875 L16.1229688,7.13671875 L19.2948438,7.13671875 L19.2948438,5.29296875 Z M21.7954688,7.43359375 L21.7095313,6.40234375 C22.212138,6.36848941 22.7251537,6.32682316 23.2485938,6.27734375 L23.2485938,5.55078125 L21.7564063,5.55078125 L21.7564063,4.60546875 C21.9439072,4.07161191 22.1118743,3.49870098 22.2603126,2.88671875 L21.7251563,2.88671875 L21.7251563,1.96484375 L22.4634376,1.96484375 C22.5259379,1.64973801 22.584531,1.32422043 22.6392188,0.98828125 L23.6626563,1.05859375 C23.5975518,1.36067859 23.5285421,1.66275891 23.4556251,1.96484375 L24.9829688,1.96484375 L24.9829688,2.88671875 L23.2212501,2.88671875 C23.0649993,3.46745082 22.8944281,4.04817418 22.7095313,4.62890625 L23.2485938,4.62890625 L23.2485938,3.30859375 L24.1860938,3.30859375 L24.1860938,4.62890625 L25.0298438,4.62890625 L25.0298438,5.55078125 L24.1860938,5.55078125 L24.1860938,6.18359375 L25.1704688,6.07421875 C25.1340103,6.39192867 25.110573,6.71744625 25.1001563,7.05078125 L24.1860938,7.1484375 L24.1860938,8.69921875 L23.2485938,8.69921875 L23.2485938,7.2578125 L21.7954688,7.43359375 Z M25.2876563,7.17578125 L25.8423438,6.35546875 C26.2824502,6.55859477 26.7446851,6.78255086 27.2290626,7.02734375 L28.1157813,5.98046875 L25.4829688,5.98046875 L25.4829688,5.22265625 L25.6939063,4.41015625 L24.9829688,4.41015625 L24.9829688,3.53515625 L25.9087501,3.53515625 L26.0689063,2.83984375 L25.3267188,2.83984375 L25.3267188,1.96484375 L26.2564063,1.96484375 L26.4439063,1.00390625 L27.5610938,1.00390625 L27.3657813,1.96484375 L29.1860938,1.96484375 L29.1860938,2.83984375 L27.1743751,2.83984375 C27.1222915,3.07942828 27.0689066,3.3111968 27.0142188,3.53515625 L29.4673438,3.53515625 L29.4673438,4.41015625 L26.7993751,4.41015625 C26.7394789,4.64974078 26.6782816,4.8815093 26.6157813,5.10546875 L29.3267188,5.10546875 L29.3267188,5.92578125 L28.1118751,7.48046875 C28.3358345,7.59505266 28.5636968,7.71484312 28.7954688,7.83984375 L28.1939063,8.72265625 C27.2251515,8.16015344 26.2564112,7.64453359 25.2876563,7.17578125 Z M30.1710938,6.24609375 L33.6710938,6.24609375 L33.6710938,5.42578125 L30.8976563,5.42578125 L30.8976563,4.52734375 C31.2283871,3.9570284 31.5291654,3.39453402 31.8000001,2.83984375 L30.3898438,2.83984375 L30.3898438,1.87109375 L32.2453126,1.87109375 C32.3833341,1.55338383 32.5122391,1.23828281 32.6320313,0.92578125 L33.7882813,1.09765625 L33.4367188,1.87109375 L37.4210938,1.87109375 L37.4210938,2.83984375 L32.9679688,2.83984375 C32.7049467,3.36067969 32.4210953,3.8997368 32.1164063,4.45703125 L33.6710938,4.45703125 L33.6710938,3.22265625 L34.7648438,3.22265625 L34.7648438,4.45703125 L36.9992188,4.45703125 L36.9992188,5.42578125 L34.7648438,5.42578125 L34.7648438,6.24609375 L37.7335938,6.24609375 L37.7335938,7.21484375 L34.7648438,7.21484375 L34.7648438,8.69921875 L33.6710938,8.69921875 L33.6710938,7.21484375 L30.1710938,7.21484375 L30.1710938,6.24609375 Z M40.8904688,3.04296875 L42.4998438,3.04296875 L42.5975001,2.60546875 L40.5935938,2.60546875 L40.5935938,1.77734375 L41.7225001,1.77734375 L41.2810938,1.13671875 L42.2889063,0.90234375 L42.7732813,1.77734375 L43.6365626,1.77734375 C43.7954175,1.47786309 43.9347391,1.18880348 44.0545313,0.91015625 L45.1482813,1.12109375 C45.0102598,1.31901141 44.8527093,1.53775922 44.6756251,1.77734375 L45.9529688,1.77734375 L45.9529688,2.60546875 L43.6678126,2.60546875 L43.5389063,3.04296875 L45.6404688,3.04296875 L45.6404688,7.10546875 L40.8904688,7.10546875 L40.8904688,3.04296875 Z M44.6873438,3.80078125 L41.8435938,3.80078125 L41.8435938,4.23046875 L44.6873438,4.23046875 L44.6873438,3.80078125 Z M41.8435938,5.28515625 L44.6873438,5.28515625 L44.6873438,4.85546875 L41.8435938,4.85546875 L41.8435938,5.28515625 Z M44.6873438,6.34765625 L44.6873438,5.91015625 L41.8435938,5.91015625 L41.8435938,6.34765625 L44.6873438,6.34765625 Z M39.3748438,0.97265625 C39.8540129,1.56640922 40.2185926,2.04296695 40.4685938,2.40234375 C40.0988003,2.63671992 39.7889076,2.83984289 39.5389063,3.01171875 C39.1847379,2.43879922 38.8514079,1.9440125 38.5389063,1.52734375 L39.3748438,0.97265625 Z M46.2029688,7.51171875 L45.8201563,8.55078125 C44.859214,8.55078125 43.9659938,8.54557297 43.1404688,8.53515625 L41.4373438,8.50390625 C41.1274465,8.49609371 40.8214599,8.4309902 40.5193751,8.30859375 C40.2172902,8.1861973 39.9555741,8.00130332 39.7342188,7.75390625 L38.8826563,8.73046875 L38.4373438,7.51953125 L39.1795313,6.8828125 L39.1795313,4.73828125 L38.4842188,4.73828125 L38.4842188,3.70703125 L40.1560938,3.70703125 L40.1560938,6.90625 C40.4738038,7.34635637 41.0493188,7.56640625 41.8826563,7.56640625 C43.6613111,7.56640625 45.1014008,7.54817727 46.2029688,7.51171875 Z M47.3715626,7.625 L47.3715626,1.57421875 L49.5200001,1.57421875 C50.1788576,1.57421875 50.686665,1.6992175 51.0434376,1.94921875 C51.4002102,2.19922 51.5785939,2.5455707 51.5785939,2.98828125 C51.5785939,3.31640789 51.4679179,3.60416543 51.2465626,3.8515625 C51.0252073,4.09895957 50.7465643,4.26953078 50.4106251,4.36328125 L50.4106251,4.37890625 C50.8325022,4.43098984 51.1729936,4.58723828 51.4321095,4.84765625 C51.6912254,5.10807422 51.8207814,5.43489387 51.8207814,5.828125 C51.8207814,6.37760691 51.6254708,6.8144515 51.2348439,7.13867188 C50.8442169,7.46289225 50.3103681,7.625 49.6332814,7.625 L47.3715626,7.625 Z M48.6606251,2.53515625 L48.6606251,4.03125 L49.2739064,4.03125 C49.5681787,4.03125 49.7999472,3.9609382 49.9692189,3.8203125 C50.1384905,3.6796868 50.2231251,3.48307418 50.2231251,3.23046875 C50.2231251,2.76692477 49.8845868,2.53515625 49.2075001,2.53515625 L48.6606251,2.53515625 Z M48.6606251,5.00390625 L48.6606251,6.6640625 L49.4262501,6.6640625 C49.7517726,6.6640625 50.0063273,6.58854242 50.189922,6.4375 C50.3735166,6.28645758 50.4653126,6.07682426 50.4653126,5.80859375 C50.4653126,5.55338414 50.3741677,5.35546945 50.1918751,5.21484375 C50.0095825,5.07421805 49.7504705,5.00390625 49.4145314,5.00390625 L48.6606251,5.00390625 Z" id="12:右转车道B" fill="#7885EF" fill-rule="nonzero"></path>
    </g>
</svg>