<?xml version="1.0" encoding="UTF-8"?>
<svg width="53px" height="9px" viewBox="0 0 53 9" version="1.1" xmlns="http://www.w3.org/2000/svg" xmlns:xlink="http://www.w3.org/1999/xlink">
    <!-- Generator: Sketch 53.1 (72631) - https://sketchapp.com -->
    <title>13:左转车道A</title>
    <desc>Created with Sketch.</desc>
    <g id="Page-1" stroke="none" stroke-width="1" fill="none" fill-rule="evenodd">
        <path d="M4.49609375,7.25 L0.71875,7.25 L0.71875,6.24609375 L1.98046875,6.24609375 L1.98046875,2.375 L0.68359375,2.66796875 L0.68359375,1.6328125 L3.2421875,1.09375 L3.2421875,6.24609375 L4.49609375,6.24609375 L4.49609375,7.25 Z M5.91078126,5.93359375 C6.31442912,6.23567859 6.78577857,6.38671875 7.32484376,6.38671875 C7.6659913,6.38671875 7.93682193,6.31119867 8.13734376,6.16015625 C8.3378656,6.00911383 8.43812501,5.79427223 8.43812501,5.515625 C8.43812501,5.22916523 8.31898558,5.01041742 8.08070314,4.859375 C7.8424207,4.70833258 7.50843966,4.6328125 7.07875001,4.6328125 L6.53968751,4.6328125 L6.53968751,3.66015625 L7.03578126,3.66015625 C7.84828533,3.66015625 8.25453126,3.38672148 8.25453126,2.83984375 C8.25453126,2.32421617 7.94333646,2.06640625 7.32093751,2.06640625 C6.91468548,2.06640625 6.52015818,2.19921742 6.13734376,2.46484375 L6.13734376,1.421875 C6.55401251,1.20572809 7.04489302,1.09765625 7.61000001,1.09765625 C8.18291955,1.09765625 8.64775865,1.22981639 9.00453126,1.49414062 C9.36130388,1.75846486 9.53968751,2.12499766 9.53968751,2.59375 C9.53968751,3.38542062 9.13864986,3.88281148 8.33656251,4.0859375 L8.33656251,4.10546875 C8.75843962,4.15234398 9.09567583,4.30663932 9.34828126,4.56835938 C9.60088669,4.83007943 9.72718751,5.14843562 9.72718751,5.5234375 C9.72718751,6.09896121 9.51690316,6.54817547 9.09632814,6.87109375 C8.67575312,7.19401203 8.11521185,7.35546875 7.41468751,7.35546875 C6.79228857,7.35546875 6.2909915,7.2526052 5.91078126,7.046875 L5.91078126,5.93359375 Z M10.9778125,3.5390625 C10.9778125,3.3463532 11.0520305,3.18750063 11.2004688,3.0625 C11.348907,2.93749937 11.5259886,2.875 11.7317188,2.875 C11.9400532,2.875 12.1158326,2.93749937 12.2590625,3.0625 C12.4022924,3.18750063 12.4739063,3.3463532 12.4739063,3.5390625 C12.4739063,3.73958434 12.4022924,3.90169209 12.2590625,4.02539062 C12.1158326,4.14908916 11.9348449,4.2109375 11.7160938,4.2109375 C11.5077594,4.2109375 11.3326309,4.14713605 11.1907032,4.01953125 C11.0487754,3.89192645 10.9778125,3.7317718 10.9778125,3.5390625 Z M10.9778125,6.68359375 C10.9778125,6.48828027 11.0520305,6.32812563 11.2004688,6.203125 C11.348907,6.07812437 11.5259886,6.015625 11.7317188,6.015625 C11.9400532,6.015625 12.1158326,6.07942645 12.2590625,6.20703125 C12.4022924,6.33463605 12.4739063,6.49348863 12.4739063,6.68359375 C12.4739063,6.88411559 12.4022924,7.04622334 12.2590625,7.16992188 C12.1158326,7.29362041 11.9348449,7.35546875 11.7160938,7.35546875 C11.5129678,7.35546875 11.3391414,7.2916673 11.1946094,7.1640625 C11.0500774,7.0364577 10.9778125,6.87630305 10.9778125,6.68359375 Z M14.6698438,6.80859375 L17.2635938,6.80859375 L17.2635938,4.98046875 L15.5995313,4.98046875 C15.1411957,5.66015965 14.5708889,6.35286105 13.8885938,7.05859375 C13.7688015,6.60025813 13.6281779,6.19401219 13.4667188,5.83984375 C14.4667238,4.65754617 15.1477066,3.61588992 15.5096875,2.71484375 L13.6073438,2.71484375 L13.6073438,1.66796875 L15.8651563,1.66796875 C15.9615109,1.32161285 16.0396352,0.962241445 16.0995313,0.58984375 L17.2792188,0.69921875 C17.2036976,1.03776211 17.1242713,1.36067555 17.0409375,1.66796875 L21.0448438,1.66796875 L21.0448438,2.71484375 L16.7245313,2.71484375 C16.5422387,3.25130477 16.3716675,3.66275898 16.2128125,3.94921875 L20.5448438,3.94921875 L20.5448438,4.98046875 L18.4354688,4.98046875 L18.4354688,6.80859375 L21.0448438,6.80859375 L21.0448438,7.83984375 L14.6698438,7.83984375 L14.6698438,6.80859375 Z M21.7954688,7.05859375 L21.7095313,6.02734375 C22.212138,5.99348941 22.7251537,5.95182316 23.2485938,5.90234375 L23.2485938,5.17578125 L21.7564063,5.17578125 L21.7564063,4.23046875 C21.9439072,3.69661191 22.1118743,3.12370098 22.2603126,2.51171875 L21.7251563,2.51171875 L21.7251563,1.58984375 L22.4634376,1.58984375 C22.5259379,1.27473801 22.584531,0.94922043 22.6392188,0.61328125 L23.6626563,0.68359375 C23.5975518,0.985678594 23.5285421,1.28775891 23.4556251,1.58984375 L24.9829688,1.58984375 L24.9829688,2.51171875 L23.2212501,2.51171875 C23.0649993,3.09245082 22.8944281,3.67317418 22.7095313,4.25390625 L23.2485938,4.25390625 L23.2485938,2.93359375 L24.1860938,2.93359375 L24.1860938,4.25390625 L25.0298438,4.25390625 L25.0298438,5.17578125 L24.1860938,5.17578125 L24.1860938,5.80859375 L25.1704688,5.69921875 C25.1340103,6.01692867 25.110573,6.34244625 25.1001563,6.67578125 L24.1860938,6.7734375 L24.1860938,8.32421875 L23.2485938,8.32421875 L23.2485938,6.8828125 L21.7954688,7.05859375 Z M25.2876563,6.80078125 L25.8423438,5.98046875 C26.2824502,6.18359477 26.7446851,6.40755086 27.2290626,6.65234375 L28.1157813,5.60546875 L25.4829688,5.60546875 L25.4829688,4.84765625 L25.6939063,4.03515625 L24.9829688,4.03515625 L24.9829688,3.16015625 L25.9087501,3.16015625 L26.0689063,2.46484375 L25.3267188,2.46484375 L25.3267188,1.58984375 L26.2564063,1.58984375 L26.4439063,0.62890625 L27.5610938,0.62890625 L27.3657813,1.58984375 L29.1860938,1.58984375 L29.1860938,2.46484375 L27.1743751,2.46484375 C27.1222915,2.70442828 27.0689066,2.9361968 27.0142188,3.16015625 L29.4673438,3.16015625 L29.4673438,4.03515625 L26.7993751,4.03515625 C26.7394789,4.27474078 26.6782816,4.5065093 26.6157813,4.73046875 L29.3267188,4.73046875 L29.3267188,5.55078125 L28.1118751,7.10546875 C28.3358345,7.22005266 28.5636968,7.33984312 28.7954688,7.46484375 L28.1939063,8.34765625 C27.2251515,7.78515344 26.2564112,7.26953359 25.2876563,6.80078125 Z M30.1710938,5.87109375 L33.6710938,5.87109375 L33.6710938,5.05078125 L30.8976563,5.05078125 L30.8976563,4.15234375 C31.2283871,3.5820284 31.5291654,3.01953402 31.8000001,2.46484375 L30.3898438,2.46484375 L30.3898438,1.49609375 L32.2453126,1.49609375 C32.3833341,1.17838383 32.5122391,0.863282812 32.6320313,0.55078125 L33.7882813,0.72265625 L33.4367188,1.49609375 L37.4210938,1.49609375 L37.4210938,2.46484375 L32.9679688,2.46484375 C32.7049467,2.98567969 32.4210953,3.5247368 32.1164063,4.08203125 L33.6710938,4.08203125 L33.6710938,2.84765625 L34.7648438,2.84765625 L34.7648438,4.08203125 L36.9992188,4.08203125 L36.9992188,5.05078125 L34.7648438,5.05078125 L34.7648438,5.87109375 L37.7335938,5.87109375 L37.7335938,6.83984375 L34.7648438,6.83984375 L34.7648438,8.32421875 L33.6710938,8.32421875 L33.6710938,6.83984375 L30.1710938,6.83984375 L30.1710938,5.87109375 Z M40.8904688,2.66796875 L42.4998438,2.66796875 L42.5975001,2.23046875 L40.5935938,2.23046875 L40.5935938,1.40234375 L41.7225001,1.40234375 L41.2810938,0.76171875 L42.2889063,0.52734375 L42.7732813,1.40234375 L43.6365626,1.40234375 C43.7954175,1.10286309 43.9347391,0.813803477 44.0545313,0.53515625 L45.1482813,0.74609375 C45.0102598,0.944011406 44.8527093,1.16275922 44.6756251,1.40234375 L45.9529688,1.40234375 L45.9529688,2.23046875 L43.6678126,2.23046875 L43.5389063,2.66796875 L45.6404688,2.66796875 L45.6404688,6.73046875 L40.8904688,6.73046875 L40.8904688,2.66796875 Z M44.6873438,3.42578125 L41.8435938,3.42578125 L41.8435938,3.85546875 L44.6873438,3.85546875 L44.6873438,3.42578125 Z M41.8435938,4.91015625 L44.6873438,4.91015625 L44.6873438,4.48046875 L41.8435938,4.48046875 L41.8435938,4.91015625 Z M44.6873438,5.97265625 L44.6873438,5.53515625 L41.8435938,5.53515625 L41.8435938,5.97265625 L44.6873438,5.97265625 Z M39.3748438,0.59765625 C39.8540129,1.19140922 40.2185926,1.66796695 40.4685938,2.02734375 C40.0988003,2.26171992 39.7889076,2.46484289 39.5389063,2.63671875 C39.1847379,2.06379922 38.8514079,1.5690125 38.5389063,1.15234375 L39.3748438,0.59765625 Z M46.2029688,7.13671875 L45.8201563,8.17578125 C44.859214,8.17578125 43.9659938,8.17057297 43.1404688,8.16015625 L41.4373438,8.12890625 C41.1274465,8.12109371 40.8214599,8.0559902 40.5193751,7.93359375 C40.2172902,7.8111973 39.9555741,7.62630332 39.7342188,7.37890625 L38.8826563,8.35546875 L38.4373438,7.14453125 L39.1795313,6.5078125 L39.1795313,4.36328125 L38.4842188,4.36328125 L38.4842188,3.33203125 L40.1560938,3.33203125 L40.1560938,6.53125 C40.4738038,6.97135637 41.0493188,7.19140625 41.8826563,7.19140625 C43.6613111,7.19140625 45.1014008,7.17317727 46.2029688,7.13671875 Z M52.6215626,7.25 L51.2153126,7.25 L50.7621876,5.86328125 L48.5629689,5.86328125 L48.1176564,7.25 L46.7192189,7.25 L48.9340626,1.19921875 L50.4496876,1.19921875 L52.6215626,7.25 Z M50.4575001,4.8671875 L49.7700001,2.76953125 C49.725729,2.63671809 49.6944794,2.46093859 49.6762501,2.2421875 L49.6410939,2.2421875 C49.6254688,2.41927172 49.5903129,2.58984293 49.5356251,2.75390625 L48.8442189,4.8671875 L50.4575001,4.8671875 Z" id="13:左转车道A" fill="#7885EF" fill-rule="nonzero"></path>
    </g>
</svg>