<?xml version="1.0" encoding="UTF-8"?>
<svg width="52px" height="8px" viewBox="0 0 52 8" version="1.1" xmlns="http://www.w3.org/2000/svg" xmlns:xlink="http://www.w3.org/1999/xlink">
    <!-- Generator: Sketch 53.1 (72631) - https://sketchapp.com -->
    <title>14:左转车道B</title>
    <desc>Created with Sketch.</desc>
    <g id="Page-1" stroke="none" stroke-width="1" fill="none" fill-rule="evenodd">
        <path d="M4.49609375,6.875 L0.71875,6.875 L0.71875,5.87109375 L1.98046875,5.87109375 L1.98046875,2 L0.68359375,2.29296875 L0.68359375,1.2578125 L3.2421875,0.71875 L3.2421875,5.87109375 L4.49609375,5.87109375 L4.49609375,6.875 Z M9.99671876,5.5546875 L9.26234376,5.5546875 L9.26234376,6.875 L8.11000001,6.875 L8.11000001,5.5546875 L5.44984376,5.5546875 L5.44984376,4.75 L8.00453126,0.82421875 L9.26234376,0.82421875 L9.26234376,4.6484375 L9.99671876,4.6484375 L9.99671876,5.5546875 Z M8.11000001,4.6484375 L8.11000001,2.6640625 C8.11000001,2.49479082 8.1152083,2.30078234 8.12562501,2.08203125 L8.10218751,2.08203125 C8.08135408,2.13151066 8.05531267,2.19661418 8.02406251,2.27734375 C7.99020818,2.3606775 7.94072951,2.45312449 7.87562501,2.5546875 L6.51625001,4.6484375 L8.11000001,4.6484375 Z M10.9778125,3.1640625 C10.9778125,2.9713532 11.0520305,2.81250063 11.2004688,2.6875 C11.348907,2.56249937 11.5259886,2.5 11.7317188,2.5 C11.9400532,2.5 12.1158326,2.56249937 12.2590625,2.6875 C12.4022924,2.81250063 12.4739063,2.9713532 12.4739063,3.1640625 C12.4739063,3.36458434 12.4022924,3.52669209 12.2590625,3.65039062 C12.1158326,3.77408916 11.9348449,3.8359375 11.7160938,3.8359375 C11.5077594,3.8359375 11.3326309,3.77213605 11.1907032,3.64453125 C11.0487754,3.51692645 10.9778125,3.3567718 10.9778125,3.1640625 Z M10.9778125,6.30859375 C10.9778125,6.11328027 11.0520305,5.95312563 11.2004688,5.828125 C11.348907,5.70312437 11.5259886,5.640625 11.7317188,5.640625 C11.9400532,5.640625 12.1158326,5.70442645 12.2590625,5.83203125 C12.4022924,5.95963605 12.4739063,6.11848863 12.4739063,6.30859375 C12.4739063,6.50911559 12.4022924,6.67122334 12.2590625,6.79492188 C12.1158326,6.91862041 11.9348449,6.98046875 11.7160938,6.98046875 C11.5129678,6.98046875 11.3391414,6.9166673 11.1946094,6.7890625 C11.0500774,6.6614577 10.9778125,6.50130305 10.9778125,6.30859375 Z M14.6698438,6.43359375 L17.2635938,6.43359375 L17.2635938,4.60546875 L15.5995313,4.60546875 C15.1411957,5.28515965 14.5708889,5.97786105 13.8885938,6.68359375 C13.7688015,6.22525813 13.6281779,5.81901219 13.4667188,5.46484375 C14.4667238,4.28254617 15.1477066,3.24088992 15.5096875,2.33984375 L13.6073438,2.33984375 L13.6073438,1.29296875 L15.8651563,1.29296875 C15.9615109,0.946612852 16.0396352,0.587241445 16.0995313,0.21484375 L17.2792188,0.32421875 C17.2036976,0.662762109 17.1242713,0.985675547 17.0409375,1.29296875 L21.0448438,1.29296875 L21.0448438,2.33984375 L16.7245313,2.33984375 C16.5422387,2.87630477 16.3716675,3.28775898 16.2128125,3.57421875 L20.5448438,3.57421875 L20.5448438,4.60546875 L18.4354688,4.60546875 L18.4354688,6.43359375 L21.0448438,6.43359375 L21.0448438,7.46484375 L14.6698438,7.46484375 L14.6698438,6.43359375 Z M21.7954688,6.68359375 L21.7095313,5.65234375 C22.212138,5.61848941 22.7251537,5.57682316 23.2485938,5.52734375 L23.2485938,4.80078125 L21.7564063,4.80078125 L21.7564063,3.85546875 C21.9439072,3.32161191 22.1118743,2.74870098 22.2603126,2.13671875 L21.7251563,2.13671875 L21.7251563,1.21484375 L22.4634376,1.21484375 C22.5259379,0.899738008 22.584531,0.57422043 22.6392188,0.23828125 L23.6626563,0.30859375 C23.5975518,0.610678594 23.5285421,0.912758906 23.4556251,1.21484375 L24.9829688,1.21484375 L24.9829688,2.13671875 L23.2212501,2.13671875 C23.0649993,2.71745082 22.8944281,3.29817418 22.7095313,3.87890625 L23.2485938,3.87890625 L23.2485938,2.55859375 L24.1860938,2.55859375 L24.1860938,3.87890625 L25.0298438,3.87890625 L25.0298438,4.80078125 L24.1860938,4.80078125 L24.1860938,5.43359375 L25.1704688,5.32421875 C25.1340103,5.64192867 25.110573,5.96744625 25.1001563,6.30078125 L24.1860938,6.3984375 L24.1860938,7.94921875 L23.2485938,7.94921875 L23.2485938,6.5078125 L21.7954688,6.68359375 Z M25.2876563,6.42578125 L25.8423438,5.60546875 C26.2824502,5.80859477 26.7446851,6.03255086 27.2290626,6.27734375 L28.1157813,5.23046875 L25.4829688,5.23046875 L25.4829688,4.47265625 L25.6939063,3.66015625 L24.9829688,3.66015625 L24.9829688,2.78515625 L25.9087501,2.78515625 L26.0689063,2.08984375 L25.3267188,2.08984375 L25.3267188,1.21484375 L26.2564063,1.21484375 L26.4439063,0.25390625 L27.5610938,0.25390625 L27.3657813,1.21484375 L29.1860938,1.21484375 L29.1860938,2.08984375 L27.1743751,2.08984375 C27.1222915,2.32942828 27.0689066,2.5611968 27.0142188,2.78515625 L29.4673438,2.78515625 L29.4673438,3.66015625 L26.7993751,3.66015625 C26.7394789,3.89974078 26.6782816,4.1315093 26.6157813,4.35546875 L29.3267188,4.35546875 L29.3267188,5.17578125 L28.1118751,6.73046875 C28.3358345,6.84505266 28.5636968,6.96484312 28.7954688,7.08984375 L28.1939063,7.97265625 C27.2251515,7.41015344 26.2564112,6.89453359 25.2876563,6.42578125 Z M30.1710938,5.49609375 L33.6710938,5.49609375 L33.6710938,4.67578125 L30.8976563,4.67578125 L30.8976563,3.77734375 C31.2283871,3.2070284 31.5291654,2.64453402 31.8000001,2.08984375 L30.3898438,2.08984375 L30.3898438,1.12109375 L32.2453126,1.12109375 C32.3833341,0.803383828 32.5122391,0.488282812 32.6320313,0.17578125 L33.7882813,0.34765625 L33.4367188,1.12109375 L37.4210938,1.12109375 L37.4210938,2.08984375 L32.9679688,2.08984375 C32.7049467,2.61067969 32.4210953,3.1497368 32.1164063,3.70703125 L33.6710938,3.70703125 L33.6710938,2.47265625 L34.7648438,2.47265625 L34.7648438,3.70703125 L36.9992188,3.70703125 L36.9992188,4.67578125 L34.7648438,4.67578125 L34.7648438,5.49609375 L37.7335938,5.49609375 L37.7335938,6.46484375 L34.7648438,6.46484375 L34.7648438,7.94921875 L33.6710938,7.94921875 L33.6710938,6.46484375 L30.1710938,6.46484375 L30.1710938,5.49609375 Z M40.8904688,2.29296875 L42.4998438,2.29296875 L42.5975001,1.85546875 L40.5935938,1.85546875 L40.5935938,1.02734375 L41.7225001,1.02734375 L41.2810938,0.38671875 L42.2889063,0.15234375 L42.7732813,1.02734375 L43.6365626,1.02734375 C43.7954175,0.727863086 43.9347391,0.438803477 44.0545313,0.16015625 L45.1482813,0.37109375 C45.0102598,0.569011406 44.8527093,0.787759219 44.6756251,1.02734375 L45.9529688,1.02734375 L45.9529688,1.85546875 L43.6678126,1.85546875 L43.5389063,2.29296875 L45.6404688,2.29296875 L45.6404688,6.35546875 L40.8904688,6.35546875 L40.8904688,2.29296875 Z M44.6873438,3.05078125 L41.8435938,3.05078125 L41.8435938,3.48046875 L44.6873438,3.48046875 L44.6873438,3.05078125 Z M41.8435938,4.53515625 L44.6873438,4.53515625 L44.6873438,4.10546875 L41.8435938,4.10546875 L41.8435938,4.53515625 Z M44.6873438,5.59765625 L44.6873438,5.16015625 L41.8435938,5.16015625 L41.8435938,5.59765625 L44.6873438,5.59765625 Z M39.3748438,0.22265625 C39.8540129,0.816409219 40.2185926,1.29296695 40.4685938,1.65234375 C40.0988003,1.88671992 39.7889076,2.08984289 39.5389063,2.26171875 C39.1847379,1.68879922 38.8514079,1.1940125 38.5389063,0.77734375 L39.3748438,0.22265625 Z M46.2029688,6.76171875 L45.8201563,7.80078125 C44.859214,7.80078125 43.9659938,7.79557297 43.1404688,7.78515625 L41.4373438,7.75390625 C41.1274465,7.74609371 40.8214599,7.6809902 40.5193751,7.55859375 C40.2172902,7.4361973 39.9555741,7.25130332 39.7342188,7.00390625 L38.8826563,7.98046875 L38.4373438,6.76953125 L39.1795313,6.1328125 L39.1795313,3.98828125 L38.4842188,3.98828125 L38.4842188,2.95703125 L40.1560938,2.95703125 L40.1560938,6.15625 C40.4738038,6.59635637 41.0493188,6.81640625 41.8826563,6.81640625 C43.6613111,6.81640625 45.1014008,6.79817727 46.2029688,6.76171875 Z M47.3715626,6.875 L47.3715626,0.82421875 L49.5200001,0.82421875 C50.1788576,0.82421875 50.686665,0.9492175 51.0434376,1.19921875 C51.4002102,1.44922 51.5785939,1.7955707 51.5785939,2.23828125 C51.5785939,2.56640789 51.4679179,2.85416543 51.2465626,3.1015625 C51.0252073,3.34895957 50.7465643,3.51953078 50.4106251,3.61328125 L50.4106251,3.62890625 C50.8325022,3.68098984 51.1729936,3.83723828 51.4321095,4.09765625 C51.6912254,4.35807422 51.8207814,4.68489387 51.8207814,5.078125 C51.8207814,5.62760691 51.6254708,6.0644515 51.2348439,6.38867188 C50.8442169,6.71289225 50.3103681,6.875 49.6332814,6.875 L47.3715626,6.875 Z M48.6606251,1.78515625 L48.6606251,3.28125 L49.2739064,3.28125 C49.5681787,3.28125 49.7999472,3.2109382 49.9692189,3.0703125 C50.1384905,2.9296868 50.2231251,2.73307418 50.2231251,2.48046875 C50.2231251,2.01692477 49.8845868,1.78515625 49.2075001,1.78515625 L48.6606251,1.78515625 Z M48.6606251,4.25390625 L48.6606251,5.9140625 L49.4262501,5.9140625 C49.7517726,5.9140625 50.0063273,5.83854242 50.189922,5.6875 C50.3735166,5.53645758 50.4653126,5.32682426 50.4653126,5.05859375 C50.4653126,4.80338414 50.3741677,4.60546945 50.1918751,4.46484375 C50.0095825,4.32421805 49.7504705,4.25390625 49.4145314,4.25390625 L48.6606251,4.25390625 Z" id="14:左转车道B" fill="#7885EF" fill-rule="nonzero"></path>
    </g>
</svg>