<?xml version="1.0" encoding="UTF-8"?>
<svg width="47px" height="9px" viewBox="0 0 47 9" version="1.1" xmlns="http://www.w3.org/2000/svg" xmlns:xlink="http://www.w3.org/1999/xlink">
    <!-- Generator: Sketch 53.1 (72631) - https://sketchapp.com -->
    <title>15:普通道路</title>
    <desc>Created with Sketch.</desc>
    <g id="Page-1" stroke="none" stroke-width="1" fill="none" fill-rule="evenodd">
        <path d="M4.49609375,7.625 L0.71875,7.625 L0.71875,6.62109375 L1.98046875,6.62109375 L1.98046875,2.75 L0.68359375,3.04296875 L0.68359375,2.0078125 L3.2421875,1.46875 L3.2421875,6.62109375 L4.49609375,6.62109375 L4.49609375,7.625 Z M5.98109376,6.375 C6.40036669,6.63281379 6.83786232,6.76171875 7.29359376,6.76171875 C7.6477622,6.76171875 7.92900939,6.67448004 8.13734376,6.5 C8.34567814,6.32551996 8.44984376,6.08593902 8.44984376,5.78125 C8.44984376,5.15624688 8.01625435,4.84375 7.14906251,4.84375 C6.88864455,4.84375 6.55791869,4.86718727 6.15687501,4.9140625 L6.15687501,1.57421875 L9.45765626,1.57421875 L9.45765626,2.61328125 L7.24281251,2.61328125 L7.24281251,3.88671875 C7.39385494,3.86848949 7.56182201,3.859375 7.74671876,3.859375 C8.35349263,3.859375 8.83656072,4.02083172 9.19593751,4.34375 C9.55531431,4.66666828 9.73500001,5.10937219 9.73500001,5.671875 C9.73500001,6.30208648 9.52471566,6.80273252 9.10414064,7.17382812 C8.68356562,7.54492373 8.12432642,7.73046875 7.42640626,7.73046875 C6.84307001,7.73046875 6.361304,7.64323004 5.98109376,7.46875 L5.98109376,6.375 Z M10.9778125,3.9140625 C10.9778125,3.7213532 11.0520305,3.56250062 11.2004688,3.4375 C11.348907,3.31249938 11.5259886,3.25 11.7317188,3.25 C11.9400532,3.25 12.1158326,3.31249938 12.2590625,3.4375 C12.4022924,3.56250062 12.4739063,3.7213532 12.4739063,3.9140625 C12.4739063,4.11458434 12.4022924,4.27669209 12.2590625,4.40039062 C12.1158326,4.52408916 11.9348449,4.5859375 11.7160938,4.5859375 C11.5077594,4.5859375 11.3326309,4.52213605 11.1907032,4.39453125 C11.0487754,4.26692645 10.9778125,4.1067718 10.9778125,3.9140625 Z M10.9778125,7.05859375 C10.9778125,6.86328027 11.0520305,6.70312562 11.2004688,6.578125 C11.348907,6.45312438 11.5259886,6.390625 11.7317188,6.390625 C11.9400532,6.390625 12.1158326,6.45442645 12.2590625,6.58203125 C12.4022924,6.70963605 12.4739063,6.86848863 12.4739063,7.05859375 C12.4739063,7.25911559 12.4022924,7.42122334 12.2590625,7.54492188 C12.1158326,7.66862041 11.9348449,7.73046875 11.7160938,7.73046875 C11.5129678,7.73046875 11.3391414,7.6666673 11.1946094,7.5390625 C11.0500774,7.4114577 10.9778125,7.25130305 10.9778125,7.05859375 Z M13.3964063,3.76171875 L14.6229688,3.76171875 C14.4302595,3.50911332 14.2036993,3.24088684 13.9432813,2.95703125 L14.5839063,2.49609375 L13.7010938,2.49609375 L13.7010938,1.69140625 L15.3495313,1.69140625 C15.2375516,1.52473875 15.1099487,1.34505305 14.9667188,1.15234375 L16.0839063,0.93359375 L16.5448438,1.69140625 L17.92375,1.69140625 L18.4510938,0.92578125 L19.6151563,1.16015625 L19.1425,1.69140625 L20.7948438,1.69140625 L20.7948438,2.49609375 L19.908125,2.49609375 L20.5760938,3.00390625 C20.3599469,3.21224062 20.1099494,3.46484227 19.8260938,3.76171875 L21.0917188,3.76171875 L21.0917188,4.55859375 L13.3964063,4.55859375 L13.3964063,3.76171875 Z M16.8807813,3.76171875 L17.5917188,3.76171875 L17.5917188,2.49609375 L16.8807813,2.49609375 L16.8807813,3.76171875 Z M15.4667188,3.34765625 L14.9315625,3.76171875 L15.8182813,3.76171875 L15.8182813,2.49609375 L14.6776563,2.49609375 C14.9016157,2.73046992 15.1646339,3.01432125 15.4667188,3.34765625 Z M19.751875,2.49609375 L18.6542188,2.49609375 L18.6542188,3.76171875 L19.4667188,3.76171875 L18.9823438,3.37109375 C19.2661994,3.07421727 19.5227072,2.78255352 19.751875,2.49609375 Z M14.2948438,8.65234375 L14.2948438,5.00390625 L20.1932813,5.00390625 L20.1932813,8.65234375 L19.1307813,8.65234375 L19.1307813,8.33203125 L15.3573438,8.33203125 L15.3573438,8.65234375 L14.2948438,8.65234375 Z M19.1307813,5.80859375 L15.3573438,5.80859375 L15.3573438,6.30078125 L19.1307813,6.30078125 L19.1307813,5.80859375 Z M15.3573438,7.52734375 L19.1307813,7.52734375 L19.1307813,7.03515625 L15.3573438,7.03515625 L15.3573438,7.52734375 Z M22.7329688,0.96484375 C23.1808877,1.50651313 23.5428633,1.98307086 23.8189063,2.39453125 L22.8970313,3.00390625 C22.5480712,2.4466118 22.2121371,1.95182508 21.8892188,1.51953125 L22.7329688,0.96484375 Z M29.0220313,1.24609375 L29.0220313,2.14453125 L27.3970313,3.04296875 L29.0298438,3.04296875 L29.0298438,6.41015625 C29.0298438,6.65755332 28.9810162,6.85286387 28.8833594,6.99609375 C28.7857027,7.13932363 28.6483343,7.2330727 28.4712501,7.27734375 C28.2941658,7.3216148 27.9048468,7.33984379 27.3032813,7.33203125 C27.2564061,7.09765508 27.1886984,6.82942859 27.1001563,6.52734375 C27.3501576,6.54296883 27.5558847,6.55078125 27.7173438,6.55078125 C27.9360949,6.55078125 28.0454688,6.43619906 28.0454688,6.20703125 L28.0454688,6.07421875 L26.9907813,6.07421875 L26.9907813,7.24609375 L26.0532813,7.24609375 L26.0532813,6.07421875 L25.0298438,6.07421875 L25.0298438,7.25390625 L24.0454688,7.25390625 L24.0454688,3.04296875 L25.5298438,3.04296875 L24.6860938,2.51953125 L25.0845313,2.05859375 L23.9829688,2.05859375 L23.9829688,1.24609375 L29.0220313,1.24609375 Z M27.6704688,2.05859375 L25.3735938,2.05859375 C25.6965121,2.24349051 26.0610918,2.45833211 26.4673438,2.703125 L27.6704688,2.05859375 Z M28.0454688,3.74609375 L26.9907813,3.74609375 L26.9907813,4.22265625 L28.0454688,4.22265625 L28.0454688,3.74609375 Z M25.0298438,4.22265625 L26.0532813,4.22265625 L26.0532813,3.74609375 L25.0298438,3.74609375 L25.0298438,4.22265625 Z M26.9907813,5.38671875 L28.0454688,5.38671875 L28.0454688,4.91015625 L26.9907813,4.91015625 L26.9907813,5.38671875 Z M25.0298438,5.38671875 L26.0532813,5.38671875 L26.0532813,4.91015625 L25.0298438,4.91015625 L25.0298438,5.38671875 Z M29.4829688,7.54296875 C29.3215097,7.94401242 29.1939068,8.27994656 29.1001563,8.55078125 L24.9907813,8.51953125 C24.5037997,8.50651035 24.1040641,8.43424545 23.7915626,8.30273438 C23.479061,8.1712233 23.219949,7.98828242 23.0142188,7.75390625 L22.1626563,8.73046875 L21.7095313,7.51953125 L22.4595313,6.87890625 L22.4595313,4.73828125 L21.7642188,4.73828125 L21.7642188,3.70703125 L23.4360938,3.70703125 L23.4360938,6.90234375 C23.7459912,7.33463758 24.298069,7.55078125 25.0923438,7.55078125 L26.8618751,7.57421875 C27.6353164,7.57421875 28.5090056,7.56380219 29.4829688,7.54296875 Z M32.5304688,3.04296875 L34.1398438,3.04296875 L34.2375001,2.60546875 L32.2335938,2.60546875 L32.2335938,1.77734375 L33.3625001,1.77734375 L32.9210938,1.13671875 L33.9289063,0.90234375 L34.4132813,1.77734375 L35.2765626,1.77734375 C35.4354175,1.47786309 35.5747391,1.18880348 35.6945313,0.91015625 L36.7882813,1.12109375 C36.6502598,1.31901141 36.4927093,1.53775922 36.3156251,1.77734375 L37.5929688,1.77734375 L37.5929688,2.60546875 L35.3078126,2.60546875 L35.1789063,3.04296875 L37.2804688,3.04296875 L37.2804688,7.10546875 L32.5304688,7.10546875 L32.5304688,3.04296875 Z M36.3273438,3.80078125 L33.4835938,3.80078125 L33.4835938,4.23046875 L36.3273438,4.23046875 L36.3273438,3.80078125 Z M33.4835938,5.28515625 L36.3273438,5.28515625 L36.3273438,4.85546875 L33.4835938,4.85546875 L33.4835938,5.28515625 Z M36.3273438,6.34765625 L36.3273438,5.91015625 L33.4835938,5.91015625 L33.4835938,6.34765625 L36.3273438,6.34765625 Z M31.0148438,0.97265625 C31.4940129,1.56640922 31.8585926,2.04296695 32.1085938,2.40234375 C31.7388003,2.63671992 31.4289076,2.83984289 31.1789063,3.01171875 C30.8247379,2.43879922 30.4914079,1.9440125 30.1789063,1.52734375 L31.0148438,0.97265625 Z M37.8429688,7.51171875 L37.4601563,8.55078125 C36.499214,8.55078125 35.6059938,8.54557297 34.7804688,8.53515625 L33.0773438,8.50390625 C32.7674464,8.49609371 32.4614599,8.4309902 32.1593751,8.30859375 C31.8572902,8.1861973 31.5955741,8.00130332 31.3742188,7.75390625 L30.5226563,8.73046875 L30.0773438,7.51953125 L30.8195313,6.8828125 L30.8195313,4.73828125 L30.1242188,4.73828125 L30.1242188,3.70703125 L31.7960938,3.70703125 L31.7960938,6.90625 C32.1138037,7.34635637 32.6893188,7.56640625 33.5226563,7.56640625 C35.301311,7.56640625 36.7414008,7.54817727 37.8429688,7.51171875 Z M38.8592188,1.41796875 L41.5779688,1.41796875 L41.5779688,2.73046875 C42.0962006,2.1861952 42.4998424,1.58463871 42.7889063,0.92578125 L43.9060938,1.05859375 C43.7941141,1.28776156 43.6743236,1.50911352 43.5467188,1.72265625 L45.8748438,1.72265625 L45.8748438,2.60546875 C45.6118217,3.188805 45.2394296,3.69010207 44.7576563,4.109375 C45.1795334,4.27083414 45.6612995,4.38411426 46.2029688,4.44921875 C46.10401,4.7252618 46.0050527,5.06119594 45.9060938,5.45703125 C45.0987981,5.30598883 44.4047947,5.06770996 43.8240626,4.7421875 C43.2329138,5.05729324 42.5363062,5.29296797 41.7342188,5.44921875 C41.6196349,5.14192555 41.4868238,4.84244938 41.3357813,4.55078125 C41.9477636,4.44400988 42.4829145,4.29557387 42.9412501,4.10546875 C42.7016656,3.8815093 42.4933343,3.63281387 42.3162501,3.359375 C42.199062,3.4869798 42.0779695,3.61067648 41.9529688,3.73046875 C41.8878643,3.62369738 41.7628656,3.44010547 41.5779688,3.1796875 L41.5779688,4.10546875 L40.8904688,4.10546875 L40.8904688,5.04296875 L41.4998438,5.04296875 L41.4998438,5.94921875 L40.8904688,5.94921875 L40.8904688,7.06640625 L41.7654688,6.95703125 C41.7498438,7.08724023 41.7394272,7.43619508 41.7342188,8.00390625 L38.5623438,8.44140625 L38.4451563,7.34765625 L38.7029688,7.3203125 L38.7029688,4.60546875 L39.4842188,4.60546875 L39.4842188,7.234375 L39.9217188,7.18359375 L39.9217188,4.10546875 L38.8592188,4.10546875 L38.8592188,1.41796875 Z M39.8279688,3.23046875 L40.6092188,3.23046875 L40.6092188,2.41796875 L39.8279688,2.41796875 L39.8279688,3.23046875 Z M43.8318751,3.609375 C44.2042728,3.33854031 44.4842179,3.01953309 44.6717188,2.65234375 L42.9725001,2.65234375 C43.188647,3.0299498 43.4751025,3.34895703 43.8318751,3.609375 Z M42.0310938,8.69140625 L42.0310938,5.47265625 L45.6873438,5.47265625 L45.6873438,8.67578125 L44.7029688,8.67578125 L44.7029688,8.26953125 L43.0154688,8.26953125 L43.0154688,8.69140625 L42.0310938,8.69140625 Z M44.7029688,6.44140625 L43.0154688,6.44140625 L43.0154688,7.30078125 L44.7029688,7.30078125 L44.7029688,6.44140625 Z" id="15:普通道路" fill="#7885EF" fill-rule="nonzero"></path>
    </g>
</svg>