<?xml version="1.0" encoding="UTF-8"?>
<svg width="55px" height="9px" viewBox="0 0 55 9" version="1.1" xmlns="http://www.w3.org/2000/svg" xmlns:xlink="http://www.w3.org/1999/xlink">
    <!-- Generator: Sketch 53.1 (72631) - https://sketchapp.com -->
    <title>16:左右转车道</title>
    <desc>Created with Sketch.</desc>
    <g id="Page-1" stroke="none" stroke-width="1" fill="none" fill-rule="evenodd">
        <path d="M4.49609375,7.5 L0.71875,7.5 L0.71875,6.49609375 L1.98046875,6.49609375 L1.98046875,2.625 L0.68359375,2.91796875 L0.68359375,1.8828125 L3.2421875,1.34375 L3.2421875,6.49609375 L4.49609375,6.49609375 L4.49609375,7.5 Z M9.51625001,2.578125 C9.20895681,2.40364496 8.87432474,2.31640625 8.51234376,2.31640625 C8.0461956,2.31640625 7.67315246,2.49934713 7.39320314,2.86523438 C7.11325382,3.23112162 6.97328126,3.70442418 6.97328126,4.28515625 L6.99671876,4.28515625 C7.28578271,3.8424457 7.71416384,3.62109375 8.28187501,3.62109375 C8.78969005,3.62109375 9.19268082,3.79492014 9.49085939,4.14257812 C9.78903796,4.49023611 9.93812501,4.94270555 9.93812501,5.5 C9.93812501,6.10937805 9.74411654,6.61262822 9.35609376,7.00976562 C8.96807099,7.40690303 8.4719822,7.60546875 7.86781251,7.60546875 C7.17510072,7.60546875 6.64450707,7.35547125 6.27601564,6.85546875 C5.90752421,6.35546625 5.72328126,5.67057727 5.72328126,4.80078125 C5.72328126,3.77733863 5.96221117,2.94596674 6.44007814,2.30664062 C6.91794511,1.66731451 7.58265201,1.34765625 8.43421876,1.34765625 C8.89255439,1.34765625 9.25322787,1.4023432 9.51625001,1.51171875 L9.51625001,2.578125 Z M7.01625001,5.51171875 C7.01625001,5.82422031 7.09437423,6.08984266 7.25062501,6.30859375 C7.4068758,6.52734484 7.6126029,6.63671875 7.86781251,6.63671875 C8.1256263,6.63671875 8.32874927,6.53645934 8.47718751,6.3359375 C8.62562576,6.13541566 8.69984376,5.88411609 8.69984376,5.58203125 C8.69984376,4.90234035 8.41989865,4.5625 7.86000001,4.5625 C7.60739458,4.5625 7.40362058,4.65234285 7.24867189,4.83203125 C7.0937232,5.01171965 7.01625001,5.23827988 7.01625001,5.51171875 Z M10.9778125,3.7890625 C10.9778125,3.5963532 11.0520305,3.43750063 11.2004688,3.3125 C11.348907,3.18749937 11.5259886,3.125 11.7317188,3.125 C11.9400532,3.125 12.1158326,3.18749937 12.2590625,3.3125 C12.4022924,3.43750063 12.4739063,3.5963532 12.4739063,3.7890625 C12.4739063,3.98958434 12.4022924,4.15169209 12.2590625,4.27539062 C12.1158326,4.39908916 11.9348449,4.4609375 11.7160938,4.4609375 C11.5077594,4.4609375 11.3326309,4.39713605 11.1907032,4.26953125 C11.0487754,4.14192645 10.9778125,3.9817718 10.9778125,3.7890625 Z M10.9778125,6.93359375 C10.9778125,6.73828027 11.0520305,6.57812563 11.2004688,6.453125 C11.348907,6.32812437 11.5259886,6.265625 11.7317188,6.265625 C11.9400532,6.265625 12.1158326,6.32942645 12.2590625,6.45703125 C12.4022924,6.58463605 12.4739063,6.74348863 12.4739063,6.93359375 C12.4739063,7.13411559 12.4022924,7.29622334 12.2590625,7.41992188 C12.1158326,7.54362041 11.9348449,7.60546875 11.7160938,7.60546875 C11.5129678,7.60546875 11.3391414,7.5416673 11.1946094,7.4140625 C11.0500774,7.2864577 10.9778125,7.12630305 10.9778125,6.93359375 Z M14.6698438,7.05859375 L17.2635938,7.05859375 L17.2635938,5.23046875 L15.5995313,5.23046875 C15.1411957,5.91015965 14.5708889,6.60286105 13.8885938,7.30859375 C13.7688015,6.85025813 13.6281779,6.44401219 13.4667188,6.08984375 C14.4667238,4.90754617 15.1477066,3.86588992 15.5096875,2.96484375 L13.6073438,2.96484375 L13.6073438,1.91796875 L15.8651563,1.91796875 C15.9615109,1.57161285 16.0396352,1.21224145 16.0995313,0.83984375 L17.2792188,0.94921875 C17.2036976,1.28776211 17.1242713,1.61067555 17.0409375,1.91796875 L21.0448438,1.91796875 L21.0448438,2.96484375 L16.7245313,2.96484375 C16.5422387,3.50130477 16.3716675,3.91275898 16.2128125,4.19921875 L20.5448438,4.19921875 L20.5448438,5.23046875 L18.4354688,5.23046875 L18.4354688,7.05859375 L21.0448438,7.05859375 L21.0448438,8.08984375 L14.6698438,8.08984375 L14.6698438,7.05859375 Z M23.3735938,8.52734375 L23.3735938,5.51171875 C22.969946,5.94661676 22.5324503,6.3528627 22.0610938,6.73046875 C21.9569266,6.21484117 21.8605734,5.80599109 21.7720313,5.50390625 C22.6887026,4.72525652 23.4256744,3.86849426 23.9829688,2.93359375 L21.8579688,2.93359375 L21.8579688,1.88671875 L24.5181251,1.88671875 C24.6613549,1.55077957 24.7850516,1.20703301 24.8892188,0.85546875 L26.0454688,1.01171875 C25.9413016,1.31119941 25.8280215,1.60286316 25.7056251,1.88671875 L29.3267188,1.88671875 L29.3267188,2.93359375 L25.2017188,2.93359375 C24.9803635,3.35286668 24.7368764,3.75390434 24.4712501,4.13671875 L28.7642188,4.13671875 L28.7642188,8.51171875 L27.6548438,8.51171875 L27.6548438,8.04296875 L24.4829688,8.04296875 L24.4829688,8.52734375 L23.3735938,8.52734375 Z M27.6548438,5.16796875 L24.4829688,5.16796875 L24.4829688,7.01171875 L27.6548438,7.01171875 L27.6548438,5.16796875 Z M30.1554688,7.30859375 L30.0695313,6.27734375 C30.572138,6.24348941 31.0851537,6.20182316 31.6085938,6.15234375 L31.6085938,5.42578125 L30.1164063,5.42578125 L30.1164063,4.48046875 C30.3039073,3.94661191 30.4718743,3.37370098 30.6203126,2.76171875 L30.0851563,2.76171875 L30.0851563,1.83984375 L30.8234376,1.83984375 C30.8859379,1.52473801 30.944531,1.19922043 30.9992188,0.86328125 L32.0226563,0.93359375 C31.9575518,1.23567859 31.8885421,1.53775891 31.8156251,1.83984375 L33.3429688,1.83984375 L33.3429688,2.76171875 L31.5812501,2.76171875 C31.4249993,3.34245082 31.2544281,3.92317418 31.0695313,4.50390625 L31.6085938,4.50390625 L31.6085938,3.18359375 L32.5460938,3.18359375 L32.5460938,4.50390625 L33.3898438,4.50390625 L33.3898438,5.42578125 L32.5460938,5.42578125 L32.5460938,6.05859375 L33.5304688,5.94921875 C33.4940103,6.26692867 33.470573,6.59244625 33.4601563,6.92578125 L32.5460938,7.0234375 L32.5460938,8.57421875 L31.6085938,8.57421875 L31.6085938,7.1328125 L30.1554688,7.30859375 Z M33.6476563,7.05078125 L34.2023438,6.23046875 C34.6424502,6.43359477 35.1046851,6.65755086 35.5890626,6.90234375 L36.4757813,5.85546875 L33.8429688,5.85546875 L33.8429688,5.09765625 L34.0539063,4.28515625 L33.3429688,4.28515625 L33.3429688,3.41015625 L34.2687501,3.41015625 L34.4289063,2.71484375 L33.6867188,2.71484375 L33.6867188,1.83984375 L34.6164063,1.83984375 L34.8039063,0.87890625 L35.9210938,0.87890625 L35.7257813,1.83984375 L37.5460938,1.83984375 L37.5460938,2.71484375 L35.5343751,2.71484375 C35.4822915,2.95442828 35.4289066,3.1861968 35.3742188,3.41015625 L37.8273438,3.41015625 L37.8273438,4.28515625 L35.1593751,4.28515625 C35.0994789,4.52474078 35.0382816,4.7565093 34.9757813,4.98046875 L37.6867188,4.98046875 L37.6867188,5.80078125 L36.4718751,7.35546875 C36.6958345,7.47005266 36.9236968,7.58984312 37.1554688,7.71484375 L36.5539063,8.59765625 C35.5851515,8.03515344 34.6164112,7.51953359 33.6476563,7.05078125 Z M38.5310938,6.12109375 L42.0310938,6.12109375 L42.0310938,5.30078125 L39.2576563,5.30078125 L39.2576563,4.40234375 C39.5883872,3.8320284 39.8891654,3.26953402 40.1600001,2.71484375 L38.7498438,2.71484375 L38.7498438,1.74609375 L40.6053126,1.74609375 C40.7433341,1.42838383 40.8722391,1.11328281 40.9920313,0.80078125 L42.1482813,0.97265625 L41.7967188,1.74609375 L45.7810938,1.74609375 L45.7810938,2.71484375 L41.3279688,2.71484375 C41.0649467,3.23567969 40.7810954,3.7747368 40.4764063,4.33203125 L42.0310938,4.33203125 L42.0310938,3.09765625 L43.1248438,3.09765625 L43.1248438,4.33203125 L45.3592188,4.33203125 L45.3592188,5.30078125 L43.1248438,5.30078125 L43.1248438,6.12109375 L46.0935938,6.12109375 L46.0935938,7.08984375 L43.1248438,7.08984375 L43.1248438,8.57421875 L42.0310938,8.57421875 L42.0310938,7.08984375 L38.5310938,7.08984375 L38.5310938,6.12109375 Z M49.2504689,2.91796875 L50.8598439,2.91796875 L50.9575001,2.48046875 L48.9535939,2.48046875 L48.9535939,1.65234375 L50.0825001,1.65234375 L49.6410939,1.01171875 L50.6489064,0.77734375 L51.1332814,1.65234375 L51.9965626,1.65234375 C52.1554176,1.35286309 52.2947391,1.06380348 52.4145314,0.78515625 L53.5082814,0.99609375 C53.3702598,1.19401141 53.2127093,1.41275922 53.0356251,1.65234375 L54.3129689,1.65234375 L54.3129689,2.48046875 L52.0278126,2.48046875 L51.8989064,2.91796875 L54.0004689,2.91796875 L54.0004689,6.98046875 L49.2504689,6.98046875 L49.2504689,2.91796875 Z M53.0473439,3.67578125 L50.2035939,3.67578125 L50.2035939,4.10546875 L53.0473439,4.10546875 L53.0473439,3.67578125 Z M50.2035939,5.16015625 L53.0473439,5.16015625 L53.0473439,4.73046875 L50.2035939,4.73046875 L50.2035939,5.16015625 Z M53.0473439,6.22265625 L53.0473439,5.78515625 L50.2035939,5.78515625 L50.2035939,6.22265625 L53.0473439,6.22265625 Z M47.7348439,0.84765625 C48.2140129,1.44140922 48.5785926,1.91796695 48.8285939,2.27734375 C48.4588003,2.51171992 48.1489076,2.71484289 47.8989064,2.88671875 C47.5447379,2.31379922 47.2114079,1.8190125 46.8989064,1.40234375 L47.7348439,0.84765625 Z M54.5629689,7.38671875 L54.1801564,8.42578125 C53.219214,8.42578125 52.3259938,8.42057297 51.5004689,8.41015625 L49.7973439,8.37890625 C49.4874465,8.37109371 49.1814599,8.3059902 48.8793751,8.18359375 C48.5772903,8.0611973 48.3155741,7.87630332 48.0942189,7.62890625 L47.2426564,8.60546875 L46.7973439,7.39453125 L47.5395314,6.7578125 L47.5395314,4.61328125 L46.8442189,4.61328125 L46.8442189,3.58203125 L48.5160939,3.58203125 L48.5160939,6.78125 C48.8338038,7.22135637 49.4093189,7.44140625 50.2426564,7.44140625 C52.0213111,7.44140625 53.4614008,7.42317727 54.5629689,7.38671875 Z" id="16:左右转车道" fill="#7885EF" fill-rule="nonzero"></path>
    </g>
</svg>