<?xml version="1.0" encoding="UTF-8"?>
<svg width="55px" height="9px" viewBox="0 0 55 9" version="1.1" xmlns="http://www.w3.org/2000/svg" xmlns:xlink="http://www.w3.org/1999/xlink">
    <!-- Generator: Sketch 53.1 (72631) - https://sketchapp.com -->
    <title>17:非机动车道</title>
    <desc>Created with Sketch.</desc>
    <g id="Page-1" stroke="none" stroke-width="1" fill="none" fill-rule="evenodd">
        <path d="M4.49609375,7.125 L0.71875,7.125 L0.71875,6.12109375 L1.98046875,6.12109375 L1.98046875,2.25 L0.68359375,2.54296875 L0.68359375,1.5078125 L3.2421875,0.96875 L3.2421875,6.12109375 L4.49609375,6.12109375 L4.49609375,7.125 Z M9.87171876,1.64453125 L7.70375001,7.125 L6.37171876,7.125 L8.53968751,2.11328125 L5.69593751,2.11328125 L5.69593751,1.07421875 L9.87171876,1.07421875 L9.87171876,1.64453125 Z M10.9778125,3.4140625 C10.9778125,3.2213532 11.0520305,3.06250062 11.2004688,2.9375 C11.348907,2.81249938 11.5259886,2.75 11.7317188,2.75 C11.9400532,2.75 12.1158326,2.81249938 12.2590625,2.9375 C12.4022924,3.06250062 12.4739063,3.2213532 12.4739063,3.4140625 C12.4739063,3.61458434 12.4022924,3.77669209 12.2590625,3.90039062 C12.1158326,4.02408916 11.9348449,4.0859375 11.7160938,4.0859375 C11.5077594,4.0859375 11.3326309,4.02213605 11.1907032,3.89453125 C11.0487754,3.76692645 10.9778125,3.6067718 10.9778125,3.4140625 Z M10.9778125,6.55859375 C10.9778125,6.36328027 11.0520305,6.20312562 11.2004688,6.078125 C11.348907,5.95312438 11.5259886,5.890625 11.7317188,5.890625 C11.9400532,5.890625 12.1158326,5.95442645 12.2590625,6.08203125 C12.4022924,6.20963605 12.4739063,6.36848863 12.4739063,6.55859375 C12.4739063,6.75911559 12.4022924,6.92122334 12.2590625,7.04492188 C12.1158326,7.16862041 11.9348449,7.23046875 11.7160938,7.23046875 C11.5129678,7.23046875 11.3391414,7.1666673 11.1946094,7.0390625 C11.0500774,6.9114577 10.9778125,6.75130305 10.9778125,6.55859375 Z M13.3260938,5.63671875 L15.5604688,5.63671875 L15.5604688,4.54296875 L13.5760938,4.54296875 L13.5760938,3.55859375 L15.5604688,3.55859375 L15.5604688,2.48046875 L13.4510938,2.48046875 L13.4510938,1.48046875 L15.5604688,1.48046875 L15.5604688,0.51953125 L16.7010938,0.51953125 L16.7010938,8.12109375 L15.5604688,8.12109375 L15.5604688,6.63671875 L13.3260938,6.63671875 L13.3260938,5.63671875 Z M17.7948438,0.51953125 L18.9354688,0.51953125 L18.9354688,1.48046875 L21.0135938,1.48046875 L21.0135938,2.48046875 L18.9354688,2.48046875 L18.9354688,3.55859375 L20.8885938,3.55859375 L20.8885938,4.54296875 L18.9354688,4.54296875 L18.9354688,5.63671875 L21.1385938,5.63671875 L21.1385938,6.63671875 L18.9354688,6.63671875 L18.9354688,8.12109375 L17.7948438,8.12109375 L17.7948438,0.51953125 Z M21.6939063,5.12890625 C22.1209918,4.46223625 22.4373949,3.72266031 22.6431251,2.91015625 L21.7642188,2.91015625 L21.7642188,1.87109375 L22.6626563,1.87109375 L22.6626563,0.47265625 L23.6860938,0.47265625 L23.6860938,1.87109375 L24.5923438,1.87109375 L24.5923438,2.91015625 L23.6860938,2.91015625 L23.6860938,3.640625 C24.0168246,3.83073012 24.376196,4.04557172 24.7642188,4.28515625 L24.2564063,5.16796875 L23.6860938,4.765625 L23.6860938,8.13671875 L22.6626563,8.13671875 L22.6626563,5.390625 C22.4881763,5.78125195 22.2850533,6.15494613 22.0532813,6.51171875 C21.9699476,6.16796703 21.8501571,5.70703414 21.6939063,5.12890625 Z M28.7095313,5.08203125 C28.9543242,5.1914068 29.20953,5.29296828 29.4751563,5.38671875 C29.4204685,6.4700575 29.3683857,7.12825404 29.3189063,7.36132812 C29.2694269,7.59440221 29.1776309,7.757161 29.0435157,7.84960938 C28.9094004,7.94205775 28.7277616,7.98828125 28.4985938,7.98828125 L27.8892188,7.98828125 C27.3892163,7.98828125 27.1392188,7.67578437 27.1392188,7.05078125 L27.1392188,1.92578125 L26.0298438,1.92578125 L26.0298438,4.11328125 C26.0298438,5.26172449 25.9373968,6.09374742 25.7525001,6.609375 C25.5676033,7.12500258 25.2355754,7.64192449 24.7564063,8.16015625 C24.5116134,7.86848812 24.2381787,7.55859539 23.9360938,7.23046875 C24.3657835,6.77213312 24.6463796,6.3105492 24.7778907,5.84570312 C24.9094018,5.38085705 24.9751563,4.58203691 24.9751563,3.44921875 L24.9751563,0.82421875 L28.2564063,0.82421875 L28.2564063,6.73046875 C28.2564063,6.90755297 28.3136974,6.99609375 28.4282813,6.99609375 C28.4907816,6.99609375 28.5370051,6.97591166 28.5669532,6.93554688 C28.5969012,6.89518209 28.6255468,6.72395984 28.6528907,6.421875 C28.6802346,6.11979016 28.6991146,5.67318004 28.7095313,5.08203125 Z M33.0382813,4.40234375 L33.8703126,6.37109375 C34.2270852,5.72525719 34.4015626,4.54297734 34.3937501,2.82421875 L33.6007813,2.82421875 L33.6007813,1.79296875 L34.4171876,1.79296875 L34.4289063,0.46484375 L35.4679688,0.46484375 L35.4523438,1.79296875 L37.4992188,1.79296875 L37.4093751,6.20703125 C37.39375,6.80078422 37.3683596,7.17187426 37.3332032,7.3203125 C37.2980468,7.46875074 37.2257819,7.60091088 37.1164063,7.71679688 C37.0070308,7.83268287 36.863803,7.91666641 36.6867188,7.96875 C36.5096346,8.02083359 36.0434934,8.05078121 35.2882813,8.05859375 C35.2049476,7.66275844 35.1111985,7.27213734 35.0070313,6.88671875 C35.350783,6.90755219 35.6359364,6.91796875 35.8625001,6.91796875 C36.0135425,6.91796875 36.1294268,6.88802113 36.2101563,6.828125 C36.2908859,6.76822887 36.3384115,6.68164119 36.3527344,6.56835938 C36.3670574,6.45507756 36.3839843,6.05534197 36.4035157,5.36914062 C36.423047,4.68293928 36.4367188,3.83464047 36.4445313,2.82421875 L35.4328126,2.82421875 C35.409375,3.98568289 35.3625004,4.81705479 35.2921876,5.31835938 C35.2218747,5.81966396 35.0773449,6.32682035 34.8585938,6.83984375 C34.6398427,7.35286715 34.3559914,7.80859176 34.0070313,8.20703125 C33.7101548,7.97265508 33.3924497,7.75390727 33.0539063,7.55078125 C33.2049487,7.39713465 33.3429682,7.23437586 33.4679688,7.0625 L31.3000001,7.24609375 C30.9744776,7.28515645 30.7257822,7.3398434 30.5539063,7.41015625 L30.0695313,6.46484375 C30.3429702,6.24348848 30.6776023,5.42578832 31.0734376,4.01171875 L30.1007813,4.01171875 L30.1007813,3.01171875 L33.7101563,3.01171875 L33.7101563,4.01171875 L32.2101563,4.01171875 C31.9679676,4.75911832 31.7101577,5.48567355 31.4367188,6.19140625 C31.9106795,6.17838535 32.3390607,6.16145844 32.7218751,6.140625 C32.5343741,5.61718488 32.3507822,5.1341168 32.1710938,4.69140625 L33.0382813,4.40234375 Z M33.4367188,2.04296875 L30.4367188,2.04296875 L30.4367188,1.04296875 L33.4367188,1.04296875 L33.4367188,2.04296875 Z M38.5310938,5.74609375 L42.0310938,5.74609375 L42.0310938,4.92578125 L39.2576563,4.92578125 L39.2576563,4.02734375 C39.5883872,3.4570284 39.8891654,2.89453402 40.1600001,2.33984375 L38.7498438,2.33984375 L38.7498438,1.37109375 L40.6053126,1.37109375 C40.7433341,1.05338383 40.8722391,0.738282813 40.9920313,0.42578125 L42.1482813,0.59765625 L41.7967188,1.37109375 L45.7810938,1.37109375 L45.7810938,2.33984375 L41.3279688,2.33984375 C41.0649467,2.86067969 40.7810954,3.3997368 40.4764063,3.95703125 L42.0310938,3.95703125 L42.0310938,2.72265625 L43.1248438,2.72265625 L43.1248438,3.95703125 L45.3592188,3.95703125 L45.3592188,4.92578125 L43.1248438,4.92578125 L43.1248438,5.74609375 L46.0935938,5.74609375 L46.0935938,6.71484375 L43.1248438,6.71484375 L43.1248438,8.19921875 L42.0310938,8.19921875 L42.0310938,6.71484375 L38.5310938,6.71484375 L38.5310938,5.74609375 Z M49.2504689,2.54296875 L50.8598439,2.54296875 L50.9575001,2.10546875 L48.9535939,2.10546875 L48.9535939,1.27734375 L50.0825001,1.27734375 L49.6410939,0.63671875 L50.6489064,0.40234375 L51.1332814,1.27734375 L51.9965626,1.27734375 C52.1554176,0.977863086 52.2947391,0.688803477 52.4145314,0.41015625 L53.5082814,0.62109375 C53.3702598,0.819011406 53.2127093,1.03775922 53.0356251,1.27734375 L54.3129689,1.27734375 L54.3129689,2.10546875 L52.0278126,2.10546875 L51.8989064,2.54296875 L54.0004689,2.54296875 L54.0004689,6.60546875 L49.2504689,6.60546875 L49.2504689,2.54296875 Z M53.0473439,3.30078125 L50.2035939,3.30078125 L50.2035939,3.73046875 L53.0473439,3.73046875 L53.0473439,3.30078125 Z M50.2035939,4.78515625 L53.0473439,4.78515625 L53.0473439,4.35546875 L50.2035939,4.35546875 L50.2035939,4.78515625 Z M53.0473439,5.84765625 L53.0473439,5.41015625 L50.2035939,5.41015625 L50.2035939,5.84765625 L53.0473439,5.84765625 Z M47.7348439,0.47265625 C48.2140129,1.06640922 48.5785926,1.54296695 48.8285939,1.90234375 C48.4588003,2.13671992 48.1489076,2.33984289 47.8989064,2.51171875 C47.5447379,1.93879922 47.2114079,1.4440125 46.8989064,1.02734375 L47.7348439,0.47265625 Z M54.5629689,7.01171875 L54.1801564,8.05078125 C53.219214,8.05078125 52.3259938,8.04557297 51.5004689,8.03515625 L49.7973439,8.00390625 C49.4874465,7.99609371 49.1814599,7.9309902 48.8793751,7.80859375 C48.5772903,7.6861973 48.3155741,7.50130332 48.0942189,7.25390625 L47.2426564,8.23046875 L46.7973439,7.01953125 L47.5395314,6.3828125 L47.5395314,4.23828125 L46.8442189,4.23828125 L46.8442189,3.20703125 L48.5160939,3.20703125 L48.5160939,6.40625 C48.8338038,6.84635637 49.4093189,7.06640625 50.2426564,7.06640625 C52.0213111,7.06640625 53.4614008,7.04817727 54.5629689,7.01171875 Z" id="17:非机动车道" fill="#7885EF" fill-rule="nonzero"></path>
    </g>
</svg>