<?xml version="1.0" encoding="UTF-8"?>
<svg width="23px" height="7px" viewBox="0 0 23 7" version="1.1" xmlns="http://www.w3.org/2000/svg" xmlns:xlink="http://www.w3.org/1999/xlink">
    <!-- Generator: Sketch 53.1 (72631) - https://sketchapp.com -->
    <title>3:JCT</title>
    <desc>Created with Sketch.</desc>
    <g id="Page-1" stroke="none" stroke-width="1" fill="none" fill-rule="evenodd">
        <path d="M0.6171875,4.93359375 C1.02083535,5.23567859 1.4921848,5.38671875 2.03125,5.38671875 C2.37239754,5.38671875 2.64322816,5.31119867 2.84375,5.16015625 C3.04427184,5.00911383 3.14453125,4.79427223 3.14453125,4.515625 C3.14453125,4.22916523 3.02539182,4.01041742 2.78710938,3.859375 C2.54882693,3.70833258 2.2148459,3.6328125 1.78515625,3.6328125 L1.24609375,3.6328125 L1.24609375,2.66015625 L1.7421875,2.66015625 C2.55469156,2.66015625 2.9609375,2.38672148 2.9609375,1.83984375 C2.9609375,1.32421617 2.6497427,1.06640625 2.02734375,1.06640625 C1.62109172,1.06640625 1.22656441,1.19921742 0.84375,1.46484375 L0.84375,0.421875 C1.26041875,0.205728086 1.75129926,0.09765625 2.31640625,0.09765625 C2.88932578,0.09765625 3.35416488,0.229816387 3.7109375,0.494140625 C4.06771012,0.758464863 4.24609375,1.12499766 4.24609375,1.59375 C4.24609375,2.38542063 3.84505609,2.88281148 3.04296875,3.0859375 L3.04296875,3.10546875 C3.46484586,3.15234398 3.80208207,3.30663932 4.0546875,3.56835938 C4.30729293,3.83007943 4.43359375,4.14843562 4.43359375,4.5234375 C4.43359375,5.09896121 4.22330939,5.54817547 3.80273438,5.87109375 C3.38215936,6.19401203 2.82161809,6.35546875 2.12109375,6.35546875 C1.4986948,6.35546875 0.997397734,6.2526052 0.6171875,6.046875 L0.6171875,4.93359375 Z M5.68421876,2.5390625 C5.68421876,2.3463532 5.75843677,2.18750062 5.90687501,2.0625 C6.05531326,1.93749938 6.23239482,1.875 6.43812501,1.875 C6.64645939,1.875 6.82223888,1.93749938 6.96546876,2.0625 C7.10869865,2.18750062 7.18031251,2.3463532 7.18031251,2.5390625 C7.18031251,2.73958434 7.10869865,2.90169209 6.96546876,3.02539062 C6.82223888,3.14908916 6.64125111,3.2109375 6.42250001,3.2109375 C6.21416564,3.2109375 6.03903718,3.14713605 5.89710939,3.01953125 C5.7551816,2.89192645 5.68421876,2.7317718 5.68421876,2.5390625 Z M5.68421876,5.68359375 C5.68421876,5.48828027 5.75843677,5.32812562 5.90687501,5.203125 C6.05531326,5.07812438 6.23239482,5.015625 6.43812501,5.015625 C6.64645939,5.015625 6.82223888,5.07942645 6.96546876,5.20703125 C7.10869865,5.33463605 7.18031251,5.49348863 7.18031251,5.68359375 C7.18031251,5.88411559 7.10869865,6.04622334 6.96546876,6.16992188 C6.82223888,6.29362041 6.64125111,6.35546875 6.42250001,6.35546875 C6.219374,6.35546875 6.04554761,6.2916673 5.90101564,6.1640625 C5.75648367,6.0364577 5.68421876,5.87630305 5.68421876,5.68359375 Z M11.0598438,3.875 C11.0598438,4.67448316 10.8756008,5.28775828 10.5071094,5.71484375 C10.138618,6.14192922 9.61062847,6.35546875 8.92312503,6.35546875 C8.61843601,6.35546875 8.33588675,6.30338594 8.07546878,6.19921875 L8.07546878,4.984375 C8.29942823,5.15364668 8.55463401,5.23828125 8.84109378,5.23828125 C9.46088854,5.23828125 9.77078128,4.76823387 9.77078128,3.828125 L9.77078128,0.19921875 L11.0598438,0.19921875 L11.0598438,3.875 Z M17.0760938,6.03125 C16.6359874,6.24739691 16.0617744,6.35546875 15.3534375,6.35546875 C14.4419747,6.35546875 13.7186746,6.08268502 13.1835157,5.53710938 C12.6483567,4.99153373 12.3807813,4.26432746 12.3807813,3.35546875 C12.3807813,2.3997348 12.6796064,1.61784158 13.2772657,1.00976562 C13.8749249,0.401689668 14.6464016,0.09765625 15.5917188,0.09765625 C16.1828676,0.09765625 16.6776543,0.174478398 17.0760938,0.328125 L17.0760938,1.57421875 C16.6672376,1.33463422 16.2037006,1.21484375 15.6854688,1.21484375 C15.09432,1.21484375 14.6216685,1.40364395 14.2675,1.78125 C13.9133316,2.15885605 13.73625,2.6523407 13.73625,3.26171875 C13.73625,3.85547172 13.9042171,4.33333152 14.2401563,4.6953125 C14.5760955,5.05729348 15.030518,5.23828125 15.6034375,5.23828125 C16.1425027,5.23828125 16.6333832,5.10807422 17.0760938,4.84765625 L17.0760938,6.03125 Z M22.6821876,1.25390625 L20.9556251,1.25390625 L20.9556251,6.25 L19.6626563,6.25 L19.6626563,1.25390625 L17.9400001,1.25390625 L17.9400001,0.19921875 L22.6821876,0.19921875 L22.6821876,1.25390625 Z" id="3:JCT" fill="#7885EF" fill-rule="nonzero"></path>
    </g>
</svg>