<?xml version="1.0" encoding="UTF-8"?>
<svg width="60px" height="8px" viewBox="0 0 60 8" version="1.1" xmlns="http://www.w3.org/2000/svg" xmlns:xlink="http://www.w3.org/1999/xlink">
    <!-- Generator: Sketch 53.1 (72631) - https://sketchapp.com -->
    <title>53:服务区+JCT</title>
    <desc>Created with Sketch.</desc>
    <g id="Page-1" stroke="none" stroke-width="1" fill="none" fill-rule="evenodd">
        <path d="M0.6875,5.5 C1.10677293,5.75781379 1.54426855,5.88671875 2,5.88671875 C2.35416844,5.88671875 2.63541562,5.79948004 2.84375,5.625 C3.05208438,5.45051996 3.15625,5.21093902 3.15625,4.90625 C3.15625,4.28124688 2.72266059,3.96875 1.85546875,3.96875 C1.59505078,3.96875 1.26432492,3.99218727 0.86328125,4.0390625 L0.86328125,0.69921875 L4.1640625,0.69921875 L4.1640625,1.73828125 L1.94921875,1.73828125 L1.94921875,3.01171875 C2.10026117,2.99348949 2.26822824,2.984375 2.453125,2.984375 C3.05989887,2.984375 3.54296695,3.14583172 3.90234375,3.46875 C4.26172055,3.79166828 4.44140625,4.23437219 4.44140625,4.796875 C4.44140625,5.42708648 4.23112189,5.92773252 3.81054688,6.29882812 C3.38997186,6.66992373 2.83073266,6.85546875 2.1328125,6.85546875 C1.54947625,6.85546875 1.06771023,6.76823004 0.6875,6.59375 L0.6875,5.5 Z M5.91078126,5.43359375 C6.31442912,5.73567859 6.78577857,5.88671875 7.32484376,5.88671875 C7.6659913,5.88671875 7.93682193,5.81119867 8.13734376,5.66015625 C8.3378656,5.50911383 8.43812501,5.29427223 8.43812501,5.015625 C8.43812501,4.72916523 8.31898558,4.51041742 8.08070314,4.359375 C7.8424207,4.20833258 7.50843966,4.1328125 7.07875001,4.1328125 L6.53968751,4.1328125 L6.53968751,3.16015625 L7.03578126,3.16015625 C7.84828533,3.16015625 8.25453126,2.88672148 8.25453126,2.33984375 C8.25453126,1.82421617 7.94333646,1.56640625 7.32093751,1.56640625 C6.91468548,1.56640625 6.52015818,1.69921742 6.13734376,1.96484375 L6.13734376,0.921875 C6.55401251,0.705728086 7.04489302,0.59765625 7.61000001,0.59765625 C8.18291955,0.59765625 8.64775865,0.729816387 9.00453126,0.994140625 C9.36130388,1.25846486 9.53968751,1.62499766 9.53968751,2.09375 C9.53968751,2.88542062 9.13864986,3.38281148 8.33656251,3.5859375 L8.33656251,3.60546875 C8.75843962,3.65234398 9.09567583,3.80663932 9.34828126,4.06835938 C9.60088669,4.33007943 9.72718751,4.64843562 9.72718751,5.0234375 C9.72718751,5.59896121 9.51690316,6.04817547 9.09632814,6.37109375 C8.67575312,6.69401203 8.11521185,6.85546875 7.41468751,6.85546875 C6.79228857,6.85546875 6.2909915,6.7526052 5.91078126,6.546875 L5.91078126,5.43359375 Z M10.9778125,3.0390625 C10.9778125,2.8463532 11.0520305,2.68750062 11.2004688,2.5625 C11.348907,2.43749938 11.5259886,2.375 11.7317188,2.375 C11.9400532,2.375 12.1158326,2.43749938 12.2590625,2.5625 C12.4022924,2.68750062 12.4739063,2.8463532 12.4739063,3.0390625 C12.4739063,3.23958434 12.4022924,3.40169209 12.2590625,3.52539062 C12.1158326,3.64908916 11.9348449,3.7109375 11.7160938,3.7109375 C11.5077594,3.7109375 11.3326309,3.64713605 11.1907032,3.51953125 C11.0487754,3.39192645 10.9778125,3.2317718 10.9778125,3.0390625 Z M10.9778125,6.18359375 C10.9778125,5.98828027 11.0520305,5.82812562 11.2004688,5.703125 C11.348907,5.57812438 11.5259886,5.515625 11.7317188,5.515625 C11.9400532,5.515625 12.1158326,5.57942645 12.2590625,5.70703125 C12.4022924,5.83463605 12.4739063,5.99348863 12.4739063,6.18359375 C12.4739063,6.38411559 12.4022924,6.54622334 12.2590625,6.66992188 C12.1158326,6.79362041 11.9348449,6.85546875 11.7160938,6.85546875 C11.5129678,6.85546875 11.3391414,6.7916673 11.1946094,6.6640625 C11.0500774,6.5364577 10.9778125,6.37630305 10.9778125,6.18359375 Z M20.9120313,3.19921875 L20.9120313,4.09765625 C20.7089053,4.84245164 20.4159395,5.50390336 20.033125,6.08203125 C20.3534391,6.33463668 20.7193209,6.54296793 21.1307813,6.70703125 C20.9224469,7.00390773 20.7036991,7.35286258 20.4745313,7.75390625 C20.0656751,7.51953008 19.694585,7.24088703 19.36125,6.91796875 C19.0331234,7.25651211 18.6620334,7.55598828 18.2479688,7.81640625 C18.1099473,7.5403632 17.9536988,7.26823051 17.7792188,7 L17.7792188,7.76171875 L16.7792188,7.76171875 L16.7792188,0.40234375 L20.8104688,0.40234375 C20.8104688,1.20182691 20.7850784,1.72330607 20.7342969,1.96679688 C20.6835154,2.21028768 20.5917195,2.40169201 20.4589063,2.54101562 C20.3260931,2.68033924 20.1672406,2.76888002 19.9823438,2.80664062 C19.797447,2.84440123 19.2766189,2.85807297 18.4198438,2.84765625 C18.3729686,2.54036305 18.3052609,2.22265789 18.2167188,1.89453125 C18.6672419,1.92578141 19.0005719,1.94140625 19.2167188,1.94140625 C19.365157,1.94140625 19.4842965,1.90950553 19.5741407,1.84570312 C19.6639849,1.78190072 19.7089063,1.60807434 19.7089063,1.32421875 L17.7792188,1.32421875 L17.7792188,3.19921875 L20.9120313,3.19921875 Z M18.7089063,4.17578125 C18.8625529,4.60807508 19.0630717,4.99218582 19.3104688,5.328125 C19.5474491,4.97135238 19.7349473,4.56640852 19.8729688,4.11328125 L17.7792188,4.11328125 L17.7792188,6.6953125 C18.1047413,6.52343664 18.396405,6.32161574 18.6542188,6.08984375 C18.3313005,5.63150812 18.0604699,5.11328414 17.8417188,4.53515625 L18.7089063,4.17578125 Z M14.0604688,7.83984375 C13.8417177,7.50650875 13.6021368,7.20963672 13.3417188,6.94921875 C13.5370323,6.53775836 13.6652862,6.07682547 13.7264844,5.56640625 C13.7876826,5.05598703 13.8182813,4.22526617 13.8182813,3.07421875 L13.8182813,0.41015625 L16.3495313,0.41015625 L16.3495313,6.72265625 C16.3495313,7.01432438 16.2727091,7.2499991 16.1190625,7.4296875 C15.9654159,7.6093759 15.5422431,7.70442703 14.8495313,7.71484375 C14.7818226,7.33463352 14.6906777,6.98047039 14.5760938,6.65234375 C14.7479697,6.67838555 14.9068222,6.69140625 15.0526563,6.69140625 C15.3026575,6.69140625 15.4276563,6.54036609 15.4276563,6.23828125 L15.4276563,5.26953125 L14.7167188,5.26953125 C14.6802603,6.40755777 14.4615125,7.26432004 14.0604688,7.83984375 Z M15.4276563,1.41015625 L14.7557813,1.41015625 L14.7557813,2.41015625 L15.4276563,2.41015625 L15.4276563,1.41015625 Z M14.7479688,4.33984375 L15.4276563,4.33984375 L15.4276563,3.33984375 L14.7557813,3.33984375 C14.7557813,3.70182473 14.7531772,4.03515473 14.7479688,4.33984375 Z M28.8110938,0.75390625 L28.8110938,1.59765625 C28.3110913,2.07161695 27.7095348,2.49088359 27.0064063,2.85546875 C27.7459933,3.01953207 28.5662976,3.11067699 29.4673438,3.12890625 C29.3058847,3.51432484 29.1652611,3.86067555 29.0454688,4.16796875 C27.7121288,4.04296813 26.567609,3.80338719 25.6118751,3.44921875 C24.6040575,3.80599137 23.446517,4.07942613 22.1392188,4.26953125 C22.0298433,3.9934882 21.8892197,3.66797063 21.7173438,3.29296875 C22.6887028,3.20182246 23.5689024,3.05729266 24.3579688,2.859375 C23.9907795,2.63801973 23.666564,2.39323051 23.3853126,2.125 C23.0806235,2.37239707 22.756408,2.60286352 22.4126563,2.81640625 C22.2355721,2.57682172 22.0246367,2.31380352 21.7798438,2.02734375 C22.7902655,1.44921586 23.5428622,0.803388984 24.0376563,0.08984375 L25.2173438,0.08984375 C25.0689056,0.319011563 24.910053,0.540363516 24.7407813,0.75390625 L28.8110938,0.75390625 Z M25.6665626,2.4453125 C26.2681281,2.21354051 26.7954665,1.93880367 27.2485938,1.62109375 L24.2056251,1.62109375 C24.6327105,1.94922039 25.1196848,2.22395723 25.6665626,2.4453125 Z M24.5454688,3.87109375 L25.6626563,3.87109375 C25.6366145,4.121095 25.6014586,4.36588422 25.5571876,4.60546875 L28.8579688,4.60546875 L28.7251563,6.38671875 C28.6991145,6.68359523 28.6118758,6.92838445 28.4634376,7.12109375 C28.3149993,7.31380305 28.1118763,7.45637975 27.8540626,7.54882812 C27.5962488,7.6412765 27.0910455,7.6875 26.3384376,7.6875 C26.0780196,7.6875 25.8032828,7.68098965 25.5142188,7.66796875 C25.4673436,7.36067555 25.3840111,7.00911656 25.2642188,6.61328125 C25.8397425,6.66015648 26.3423417,6.68359375 26.7720313,6.68359375 C26.9959908,6.68359375 27.1704682,6.64973992 27.2954688,6.58203125 C27.4204694,6.51432258 27.4979426,6.41927145 27.5278907,6.296875 C27.5578387,6.17447855 27.581927,5.92578313 27.6001563,5.55078125 L25.3189063,5.55078125 C24.9204668,6.64974508 23.9621431,7.40755 22.4439063,7.82421875 C22.2407803,7.5481757 21.9959911,7.24869953 21.7095313,6.92578125 C22.907454,6.63932148 23.7017169,6.18099273 24.0923438,5.55078125 L21.9829688,5.55078125 L21.9829688,4.60546875 L24.4243751,4.60546875 C24.4738545,4.37630094 24.5142187,4.13151172 24.5454688,3.87109375 Z M31.6554688,6.41796875 L37.7257813,6.41796875 L37.7257813,7.47265625 L30.5460938,7.47265625 L30.5460938,0.53515625 L37.4835938,0.53515625 L37.4835938,1.58984375 L31.6554688,1.58984375 L31.6554688,6.41796875 Z M31.9523438,2.47265625 L32.7023438,1.70703125 L34.4328126,3.2109375 C34.8781273,2.71353918 35.2934877,2.18880484 35.6789063,1.63671875 L36.6476563,2.27734375 C36.2127583,2.86588836 35.7531275,3.42447652 35.2687501,3.953125 L37.0226563,5.57421875 L36.1007813,6.38671875 C35.5669245,5.83984102 35.0252632,5.30208598 34.4757813,4.7734375 C33.8872367,5.34896121 33.2674512,5.88411211 32.6164063,6.37890625 C32.4861973,6.21744711 32.2257833,5.93880406 31.8351563,5.54296875 C32.4862012,5.07161223 33.0955701,4.55989859 33.6632813,4.0078125 C33.1007785,3.48697656 32.5304717,2.97526293 31.9523438,2.47265625 Z M43.4021876,4.68359375 L41.7693751,4.68359375 L41.7693751,6.31640625 L40.9490626,6.31640625 L40.9490626,4.68359375 L39.3084376,4.68359375 L39.3084376,3.859375 L40.9490626,3.859375 L40.9490626,2.21875 L41.7693751,2.21875 L41.7693751,3.859375 L43.4021876,3.859375 L43.4021876,4.68359375 Z M47.8832814,4.375 C47.8832814,5.17448316 47.6990384,5.78775828 47.330547,6.21484375 C46.9620555,6.64192922 46.434066,6.85546875 45.7465626,6.85546875 C45.4418736,6.85546875 45.1593243,6.80338594 44.8989064,6.69921875 L44.8989064,5.484375 C45.1228658,5.65364668 45.3780716,5.73828125 45.6645314,5.73828125 C46.2843261,5.73828125 46.5942189,5.26823387 46.5942189,4.328125 L46.5942189,0.69921875 L47.8832814,0.69921875 L47.8832814,4.375 Z M53.8995314,6.53125 C53.459425,6.74739691 52.885212,6.85546875 52.1768751,6.85546875 C51.2654122,6.85546875 50.5421122,6.58268502 50.0069532,6.03710938 C49.4717943,5.49153373 49.2042189,4.76432746 49.2042189,3.85546875 C49.2042189,2.8997348 49.503044,2.11784158 50.1007032,1.50976562 C50.6983625,0.901689668 51.4698391,0.59765625 52.4151564,0.59765625 C53.0063052,0.59765625 53.5010919,0.674478398 53.8995314,0.828125 L53.8995314,2.07421875 C53.4906752,1.83463422 53.0271381,1.71484375 52.5089064,1.71484375 C51.9177576,1.71484375 51.4451061,1.90364395 51.0909376,2.28125 C50.7367692,2.65885605 50.5596876,3.1523407 50.5596876,3.76171875 C50.5596876,4.35547172 50.7276547,4.83333152 51.0635939,5.1953125 C51.399533,5.55729348 51.8539556,5.73828125 52.4268751,5.73828125 C52.9659403,5.73828125 53.4568208,5.60807422 53.8995314,5.34765625 L53.8995314,6.53125 Z M59.5056251,1.75390625 L57.7790626,1.75390625 L57.7790626,6.75 L56.4860939,6.75 L56.4860939,1.75390625 L54.7634376,1.75390625 L54.7634376,0.69921875 L59.5056251,0.69921875 L59.5056251,1.75390625 Z" id="53:服务区+JCT" fill="#7885EF" fill-rule="nonzero"></path>
    </g>
</svg>