<?xml version="1.0" encoding="UTF-8"?>
<svg width="61px" height="9px" viewBox="0 0 61 9" version="1.1" xmlns="http://www.w3.org/2000/svg" xmlns:xlink="http://www.w3.org/1999/xlink">
    <!-- Generator: Sketch 53.1 (72631) - https://sketchapp.com -->
    <title>56:服务区+引路</title>
    <desc>Created with Sketch.</desc>
    <g id="Page-1" stroke="none" stroke-width="1" fill="none" fill-rule="evenodd">
        <path d="M0.6875,6.125 C1.10677293,6.38281379 1.54426855,6.51171875 2,6.51171875 C2.35416844,6.51171875 2.63541562,6.42448004 2.84375,6.25 C3.05208438,6.07551996 3.15625,5.83593902 3.15625,5.53125 C3.15625,4.90624688 2.72266059,4.59375 1.85546875,4.59375 C1.59505078,4.59375 1.26432492,4.61718727 0.86328125,4.6640625 L0.86328125,1.32421875 L4.1640625,1.32421875 L4.1640625,2.36328125 L1.94921875,2.36328125 L1.94921875,3.63671875 C2.10026117,3.61848949 2.26822824,3.609375 2.453125,3.609375 C3.05989887,3.609375 3.54296695,3.77083172 3.90234375,4.09375 C4.26172055,4.41666828 4.44140625,4.85937219 4.44140625,5.421875 C4.44140625,6.05208648 4.23112189,6.55273252 3.81054688,6.92382812 C3.38997186,7.29492373 2.83073266,7.48046875 2.1328125,7.48046875 C1.54947625,7.48046875 1.06771023,7.39323004 0.6875,7.21875 L0.6875,6.125 Z M9.51625001,2.453125 C9.20895681,2.27864496 8.87432474,2.19140625 8.51234376,2.19140625 C8.0461956,2.19140625 7.67315246,2.37434713 7.39320314,2.74023438 C7.11325382,3.10612162 6.97328126,3.57942418 6.97328126,4.16015625 L6.99671876,4.16015625 C7.28578271,3.7174457 7.71416384,3.49609375 8.28187501,3.49609375 C8.78969005,3.49609375 9.19268082,3.66992014 9.49085939,4.01757812 C9.78903796,4.36523611 9.93812501,4.81770555 9.93812501,5.375 C9.93812501,5.98437805 9.74411654,6.48762822 9.35609376,6.88476562 C8.96807099,7.28190303 8.4719822,7.48046875 7.86781251,7.48046875 C7.17510072,7.48046875 6.64450707,7.23047125 6.27601564,6.73046875 C5.90752421,6.23046625 5.72328126,5.54557727 5.72328126,4.67578125 C5.72328126,3.65233863 5.96221117,2.82096674 6.44007814,2.18164062 C6.91794511,1.54231451 7.58265201,1.22265625 8.43421876,1.22265625 C8.89255439,1.22265625 9.25322787,1.2773432 9.51625001,1.38671875 L9.51625001,2.453125 Z M7.01625001,5.38671875 C7.01625001,5.69922031 7.09437423,5.96484266 7.25062501,6.18359375 C7.4068758,6.40234484 7.6126029,6.51171875 7.86781251,6.51171875 C8.1256263,6.51171875 8.32874927,6.41145934 8.47718751,6.2109375 C8.62562576,6.01041566 8.69984376,5.75911609 8.69984376,5.45703125 C8.69984376,4.77734035 8.41989865,4.4375 7.86000001,4.4375 C7.60739458,4.4375 7.40362058,4.52734285 7.24867189,4.70703125 C7.0937232,4.88671965 7.01625001,5.11327988 7.01625001,5.38671875 Z M10.9778125,3.6640625 C10.9778125,3.4713532 11.0520305,3.31250062 11.2004688,3.1875 C11.348907,3.06249938 11.5259886,3 11.7317188,3 C11.9400532,3 12.1158326,3.06249938 12.2590625,3.1875 C12.4022924,3.31250062 12.4739063,3.4713532 12.4739063,3.6640625 C12.4739063,3.86458434 12.4022924,4.02669209 12.2590625,4.15039062 C12.1158326,4.27408916 11.9348449,4.3359375 11.7160938,4.3359375 C11.5077594,4.3359375 11.3326309,4.27213605 11.1907032,4.14453125 C11.0487754,4.01692645 10.9778125,3.8567718 10.9778125,3.6640625 Z M10.9778125,6.80859375 C10.9778125,6.61328027 11.0520305,6.45312562 11.2004688,6.328125 C11.348907,6.20312438 11.5259886,6.140625 11.7317188,6.140625 C11.9400532,6.140625 12.1158326,6.20442645 12.2590625,6.33203125 C12.4022924,6.45963605 12.4739063,6.61848863 12.4739063,6.80859375 C12.4739063,7.00911559 12.4022924,7.17122334 12.2590625,7.29492188 C12.1158326,7.41862041 11.9348449,7.48046875 11.7160938,7.48046875 C11.5129678,7.48046875 11.3391414,7.4166673 11.1946094,7.2890625 C11.0500774,7.1614577 10.9778125,7.00130305 10.9778125,6.80859375 Z M20.9120313,3.82421875 L20.9120313,4.72265625 C20.7089053,5.46745164 20.4159395,6.12890336 20.033125,6.70703125 C20.3534391,6.95963668 20.7193209,7.16796793 21.1307813,7.33203125 C20.9224469,7.62890773 20.7036991,7.97786258 20.4745313,8.37890625 C20.0656751,8.14453008 19.694585,7.86588703 19.36125,7.54296875 C19.0331234,7.88151211 18.6620334,8.18098828 18.2479688,8.44140625 C18.1099473,8.1653632 17.9536988,7.89323051 17.7792188,7.625 L17.7792188,8.38671875 L16.7792188,8.38671875 L16.7792188,1.02734375 L20.8104688,1.02734375 C20.8104688,1.82682691 20.7850784,2.34830607 20.7342969,2.59179688 C20.6835154,2.83528768 20.5917195,3.02669201 20.4589063,3.16601562 C20.3260931,3.30533924 20.1672406,3.39388002 19.9823438,3.43164062 C19.797447,3.46940123 19.2766189,3.48307297 18.4198438,3.47265625 C18.3729686,3.16536305 18.3052609,2.84765789 18.2167188,2.51953125 C18.6672419,2.55078141 19.0005719,2.56640625 19.2167188,2.56640625 C19.365157,2.56640625 19.4842965,2.53450553 19.5741407,2.47070312 C19.6639849,2.40690072 19.7089063,2.23307434 19.7089063,1.94921875 L17.7792188,1.94921875 L17.7792188,3.82421875 L20.9120313,3.82421875 Z M18.7089063,4.80078125 C18.8625529,5.23307508 19.0630717,5.61718582 19.3104688,5.953125 C19.5474491,5.59635238 19.7349473,5.19140852 19.8729688,4.73828125 L17.7792188,4.73828125 L17.7792188,7.3203125 C18.1047413,7.14843664 18.396405,6.94661574 18.6542188,6.71484375 C18.3313005,6.25650812 18.0604699,5.73828414 17.8417188,5.16015625 L18.7089063,4.80078125 Z M14.0604688,8.46484375 C13.8417177,8.13150875 13.6021368,7.83463672 13.3417188,7.57421875 C13.5370323,7.16275836 13.6652862,6.70182547 13.7264844,6.19140625 C13.7876826,5.68098703 13.8182813,4.85026617 13.8182813,3.69921875 L13.8182813,1.03515625 L16.3495313,1.03515625 L16.3495313,7.34765625 C16.3495313,7.63932438 16.2727091,7.8749991 16.1190625,8.0546875 C15.9654159,8.2343759 15.5422431,8.32942703 14.8495313,8.33984375 C14.7818226,7.95963352 14.6906777,7.60547039 14.5760938,7.27734375 C14.7479697,7.30338555 14.9068222,7.31640625 15.0526563,7.31640625 C15.3026575,7.31640625 15.4276563,7.16536609 15.4276563,6.86328125 L15.4276563,5.89453125 L14.7167188,5.89453125 C14.6802603,7.03255777 14.4615125,7.88932004 14.0604688,8.46484375 Z M15.4276563,2.03515625 L14.7557813,2.03515625 L14.7557813,3.03515625 L15.4276563,3.03515625 L15.4276563,2.03515625 Z M14.7479688,4.96484375 L15.4276563,4.96484375 L15.4276563,3.96484375 L14.7557813,3.96484375 C14.7557813,4.32682473 14.7531772,4.66015473 14.7479688,4.96484375 Z M28.8110938,1.37890625 L28.8110938,2.22265625 C28.3110913,2.69661695 27.7095348,3.11588359 27.0064063,3.48046875 C27.7459933,3.64453207 28.5662976,3.73567699 29.4673438,3.75390625 C29.3058847,4.13932484 29.1652611,4.48567555 29.0454688,4.79296875 C27.7121288,4.66796813 26.567609,4.42838719 25.6118751,4.07421875 C24.6040575,4.43099137 23.446517,4.70442613 22.1392188,4.89453125 C22.0298433,4.6184882 21.8892197,4.29297063 21.7173438,3.91796875 C22.6887028,3.82682246 23.5689024,3.68229266 24.3579688,3.484375 C23.9907795,3.26301973 23.666564,3.01823051 23.3853126,2.75 C23.0806235,2.99739707 22.756408,3.22786352 22.4126563,3.44140625 C22.2355721,3.20182172 22.0246367,2.93880352 21.7798438,2.65234375 C22.7902655,2.07421586 23.5428622,1.42838898 24.0376563,0.71484375 L25.2173438,0.71484375 C25.0689056,0.944011563 24.910053,1.16536352 24.7407813,1.37890625 L28.8110938,1.37890625 Z M25.6665626,3.0703125 C26.2681281,2.83854051 26.7954665,2.56380367 27.2485938,2.24609375 L24.2056251,2.24609375 C24.6327105,2.57422039 25.1196848,2.84895723 25.6665626,3.0703125 Z M24.5454688,4.49609375 L25.6626563,4.49609375 C25.6366145,4.746095 25.6014586,4.99088422 25.5571876,5.23046875 L28.8579688,5.23046875 L28.7251563,7.01171875 C28.6991145,7.30859523 28.6118758,7.55338445 28.4634376,7.74609375 C28.3149993,7.93880305 28.1118763,8.08137975 27.8540626,8.17382812 C27.5962488,8.2662765 27.0910455,8.3125 26.3384376,8.3125 C26.0780196,8.3125 25.8032828,8.30598965 25.5142188,8.29296875 C25.4673436,7.98567555 25.3840111,7.63411656 25.2642188,7.23828125 C25.8397425,7.28515648 26.3423417,7.30859375 26.7720313,7.30859375 C26.9959908,7.30859375 27.1704682,7.27473992 27.2954688,7.20703125 C27.4204694,7.13932258 27.4979426,7.04427145 27.5278907,6.921875 C27.5578387,6.79947855 27.581927,6.55078313 27.6001563,6.17578125 L25.3189063,6.17578125 C24.9204668,7.27474508 23.9621431,8.03255 22.4439063,8.44921875 C22.2407803,8.1731757 21.9959911,7.87369953 21.7095313,7.55078125 C22.907454,7.26432148 23.7017169,6.80599273 24.0923438,6.17578125 L21.9829688,6.17578125 L21.9829688,5.23046875 L24.4243751,5.23046875 C24.4738545,5.00130094 24.5142187,4.75651172 24.5454688,4.49609375 Z M31.6554688,7.04296875 L37.7257813,7.04296875 L37.7257813,8.09765625 L30.5460938,8.09765625 L30.5460938,1.16015625 L37.4835938,1.16015625 L37.4835938,2.21484375 L31.6554688,2.21484375 L31.6554688,7.04296875 Z M31.9523438,3.09765625 L32.7023438,2.33203125 L34.4328126,3.8359375 C34.8781273,3.33853918 35.2934877,2.81380484 35.6789063,2.26171875 L36.6476563,2.90234375 C36.2127583,3.49088836 35.7531275,4.04947652 35.2687501,4.578125 L37.0226563,6.19921875 L36.1007813,7.01171875 C35.5669245,6.46484102 35.0252632,5.92708598 34.4757813,5.3984375 C33.8872367,5.97396121 33.2674512,6.50911211 32.6164063,7.00390625 C32.4861973,6.84244711 32.2257833,6.56380406 31.8351563,6.16796875 C32.4862012,5.69661223 33.0955701,5.18489859 33.6632813,4.6328125 C33.1007785,4.11197656 32.5304717,3.60026293 31.9523438,3.09765625 Z M43.4021876,5.30859375 L41.7693751,5.30859375 L41.7693751,6.94140625 L40.9490626,6.94140625 L40.9490626,5.30859375 L39.3084376,5.30859375 L39.3084376,4.484375 L40.9490626,4.484375 L40.9490626,2.84375 L41.7693751,2.84375 L41.7693751,4.484375 L43.4021876,4.484375 L43.4021876,5.30859375 Z M50.7231251,0.86328125 L51.8715626,0.86328125 L51.8715626,8.34765625 L50.7231251,8.34765625 L50.7231251,0.86328125 Z M46.4496876,4.88671875 L49.3871876,4.88671875 L49.2582814,6.90625 C49.2322396,7.25781426 49.1508602,7.54361869 49.0141407,7.76367188 C48.8774213,7.98372506 48.6879701,8.13606729 48.4457814,8.22070312 C48.2035926,8.30533896 47.4783395,8.34765625 46.2700001,8.34765625 C46.1762496,7.95182094 46.0694799,7.57422055 45.9496876,7.21484375 C46.3455229,7.23567719 46.7400502,7.24609375 47.1332814,7.24609375 C47.4509913,7.24609375 47.667786,7.22200545 47.783672,7.17382812 C47.899558,7.1256508 47.9770312,7.04427141 48.0160939,6.9296875 C48.0551565,6.81510359 48.0929166,6.47005496 48.1293751,5.89453125 L45.2075001,5.89453125 L45.4653126,3.01953125 L48.2153126,3.01953125 L48.2153126,2.12890625 L45.2387501,2.12890625 L45.2387501,1.12109375 L49.3637501,1.12109375 L49.3637501,4.02734375 L46.5121876,4.02734375 L46.4496876,4.88671875 Z M53.6690626,1.16796875 L56.3878126,1.16796875 L56.3878126,2.48046875 C56.9060444,1.9361952 57.3096862,1.33463871 57.5987501,0.67578125 L58.7159376,0.80859375 C58.6039579,1.03776156 58.4841674,1.25911352 58.3565626,1.47265625 L60.6846876,1.47265625 L60.6846876,2.35546875 C60.4216655,2.938805 60.0492734,3.44010207 59.5675001,3.859375 C59.9893772,4.02083414 60.4711432,4.13411426 61.0128126,4.19921875 C60.9138538,4.4752618 60.8148964,4.81119594 60.7159376,5.20703125 C59.9086419,5.05598883 59.2146384,4.81770996 58.6339064,4.4921875 C58.0427576,4.80729324 57.34615,5.04296797 56.5440626,5.19921875 C56.4294787,4.89192555 56.2966675,4.59244938 56.1456251,4.30078125 C56.7576073,4.19400988 57.2927582,4.04557387 57.7510939,3.85546875 C57.5115093,3.6315093 57.3031781,3.38281387 57.1260939,3.109375 C57.0089058,3.2369798 56.8878132,3.36067648 56.7628126,3.48046875 C56.6977081,3.37369738 56.5727094,3.19010547 56.3878126,2.9296875 L56.3878126,3.85546875 L55.7003126,3.85546875 L55.7003126,4.79296875 L56.3096876,4.79296875 L56.3096876,5.69921875 L55.7003126,5.69921875 L55.7003126,6.81640625 L56.5753126,6.70703125 C56.5596875,6.83724023 56.549271,7.18619508 56.5440626,7.75390625 L53.3721876,8.19140625 L53.2550001,7.09765625 L53.5128126,7.0703125 L53.5128126,4.35546875 L54.2940626,4.35546875 L54.2940626,6.984375 L54.7315626,6.93359375 L54.7315626,3.85546875 L53.6690626,3.85546875 L53.6690626,1.16796875 Z M54.6378126,2.98046875 L55.4190626,2.98046875 L55.4190626,2.16796875 L54.6378126,2.16796875 L54.6378126,2.98046875 Z M58.6417189,3.359375 C59.0141166,3.08854031 59.2940617,2.76953309 59.4815626,2.40234375 L57.7823439,2.40234375 C57.9984908,2.7799498 58.2849462,3.09895703 58.6417189,3.359375 Z M56.8409376,8.44140625 L56.8409376,5.22265625 L60.4971876,5.22265625 L60.4971876,8.42578125 L59.5128126,8.42578125 L59.5128126,8.01953125 L57.8253126,8.01953125 L57.8253126,8.44140625 L56.8409376,8.44140625 Z M59.5128126,6.19140625 L57.8253126,6.19140625 L57.8253126,7.05078125 L59.5128126,7.05078125 L59.5128126,6.19140625 Z" id="56:服务区+引路" fill="#7885EF" fill-rule="nonzero"></path>
    </g>
</svg>