<?xml version="1.0" encoding="UTF-8"?>
<svg width="83px" height="9px" viewBox="0 0 83 9" version="1.1" xmlns="http://www.w3.org/2000/svg" xmlns:xlink="http://www.w3.org/1999/xlink">
    <!-- Generator: Sketch 53.1 (72631) - https://sketchapp.com -->
    <title>58:服务区+引路+JCT</title>
    <desc>Created with Sketch.</desc>
    <g id="Page-1" stroke="none" stroke-width="1" fill="none" fill-rule="evenodd">
        <path d="M0.6875,5.75 C1.10677293,6.00781379 1.54426855,6.13671875 2,6.13671875 C2.35416844,6.13671875 2.63541562,6.04948004 2.84375,5.875 C3.05208438,5.70051996 3.15625,5.46093902 3.15625,5.15625 C3.15625,4.53124688 2.72266059,4.21875 1.85546875,4.21875 C1.59505078,4.21875 1.26432492,4.24218727 0.86328125,4.2890625 L0.86328125,0.94921875 L4.1640625,0.94921875 L4.1640625,1.98828125 L1.94921875,1.98828125 L1.94921875,3.26171875 C2.10026117,3.24348949 2.26822824,3.234375 2.453125,3.234375 C3.05989887,3.234375 3.54296695,3.39583172 3.90234375,3.71875 C4.26172055,4.04166828 4.44140625,4.48437219 4.44140625,5.046875 C4.44140625,5.67708648 4.23112189,6.17773252 3.81054688,6.54882812 C3.38997186,6.91992373 2.83073266,7.10546875 2.1328125,7.10546875 C1.54947625,7.10546875 1.06771023,7.01823004 0.6875,6.84375 L0.6875,5.75 Z M6.87562501,3.83203125 C6.17770486,3.5429673 5.82875001,3.08073234 5.82875001,2.4453125 C5.82875001,1.96614344 6.01820124,1.58007959 6.39710939,1.28710938 C6.77601753,0.99413916 7.24411181,0.84765625 7.80140626,0.84765625 C8.36390908,0.84765625 8.82614404,0.983722598 9.18812501,1.25585938 C9.55010599,1.52799615 9.73109376,1.89452895 9.73109376,2.35546875 C9.73109376,3.01693039 9.34958716,3.5078109 8.58656251,3.828125 L8.58656251,3.84375 C8.9980229,3.96614645 9.31768117,4.1653632 9.54554689,4.44140625 C9.77341261,4.7174493 9.88734376,5.03255031 9.88734376,5.38671875 C9.88734376,5.93620066 9.6861739,6.36002455 9.28382814,6.65820312 C8.88148238,6.9563817 8.34047216,7.10546875 7.66078126,7.10546875 C7.07484083,7.10546875 6.59242378,6.95768377 6.21351564,6.66210938 C5.83460749,6.36653498 5.64515626,5.96614836 5.64515626,5.4609375 C5.64515626,4.73176719 6.05530841,4.19531422 6.87562501,3.8515625 L6.87562501,3.83203125 Z M8.53968751,2.46484375 C8.53968751,2.24869684 8.47132882,2.07812562 8.33460939,1.953125 C8.19788996,1.82812438 8.01755322,1.765625 7.79359376,1.765625 C7.58265521,1.765625 7.40231847,1.83137955 7.25257814,1.96289062 C7.10283781,2.0944017 7.02796876,2.2630198 7.02796876,2.46875 C7.02796876,2.86458531 7.2805704,3.16406148 7.78578126,3.3671875 C8.28838794,3.15885313 8.53968751,2.85807488 8.53968751,2.46484375 Z M7.72718751,4.33984375 C7.13603873,4.57161574 6.84046876,4.92317473 6.84046876,5.39453125 C6.84046876,5.62630324 6.93096265,5.81640551 7.11195314,5.96484375 C7.29294363,6.11328199 7.51234248,6.1875 7.77015626,6.1875 C8.03838677,6.1875 8.25908769,6.11653717 8.43226564,5.97460938 C8.60544359,5.83268158 8.69203126,5.63802207 8.69203126,5.390625 C8.69203126,4.91145594 8.3704199,4.56119902 7.72718751,4.33984375 Z M10.9778125,3.2890625 C10.9778125,3.0963532 11.0520305,2.93750062 11.2004688,2.8125 C11.348907,2.68749938 11.5259886,2.625 11.7317188,2.625 C11.9400532,2.625 12.1158326,2.68749938 12.2590625,2.8125 C12.4022924,2.93750062 12.4739063,3.0963532 12.4739063,3.2890625 C12.4739063,3.48958434 12.4022924,3.65169209 12.2590625,3.77539062 C12.1158326,3.89908916 11.9348449,3.9609375 11.7160938,3.9609375 C11.5077594,3.9609375 11.3326309,3.89713605 11.1907032,3.76953125 C11.0487754,3.64192645 10.9778125,3.4817718 10.9778125,3.2890625 Z M10.9778125,6.43359375 C10.9778125,6.23828027 11.0520305,6.07812562 11.2004688,5.953125 C11.348907,5.82812438 11.5259886,5.765625 11.7317188,5.765625 C11.9400532,5.765625 12.1158326,5.82942645 12.2590625,5.95703125 C12.4022924,6.08463605 12.4739063,6.24348863 12.4739063,6.43359375 C12.4739063,6.63411559 12.4022924,6.79622334 12.2590625,6.91992188 C12.1158326,7.04362041 11.9348449,7.10546875 11.7160938,7.10546875 C11.5129678,7.10546875 11.3391414,7.0416673 11.1946094,6.9140625 C11.0500774,6.7864577 10.9778125,6.62630305 10.9778125,6.43359375 Z M20.9120313,3.44921875 L20.9120313,4.34765625 C20.7089053,5.09245164 20.4159395,5.75390336 20.033125,6.33203125 C20.3534391,6.58463668 20.7193209,6.79296793 21.1307813,6.95703125 C20.9224469,7.25390773 20.7036991,7.60286258 20.4745313,8.00390625 C20.0656751,7.76953008 19.694585,7.49088703 19.36125,7.16796875 C19.0331234,7.50651211 18.6620334,7.80598828 18.2479688,8.06640625 C18.1099473,7.7903632 17.9536988,7.51823051 17.7792188,7.25 L17.7792188,8.01171875 L16.7792188,8.01171875 L16.7792188,0.65234375 L20.8104688,0.65234375 C20.8104688,1.45182691 20.7850784,1.97330607 20.7342969,2.21679688 C20.6835154,2.46028768 20.5917195,2.65169201 20.4589063,2.79101562 C20.3260931,2.93033924 20.1672406,3.01888002 19.9823438,3.05664062 C19.797447,3.09440123 19.2766189,3.10807297 18.4198438,3.09765625 C18.3729686,2.79036305 18.3052609,2.47265789 18.2167188,2.14453125 C18.6672419,2.17578141 19.0005719,2.19140625 19.2167188,2.19140625 C19.365157,2.19140625 19.4842965,2.15950553 19.5741407,2.09570312 C19.6639849,2.03190072 19.7089063,1.85807434 19.7089063,1.57421875 L17.7792188,1.57421875 L17.7792188,3.44921875 L20.9120313,3.44921875 Z M18.7089063,4.42578125 C18.8625529,4.85807508 19.0630717,5.24218582 19.3104688,5.578125 C19.5474491,5.22135238 19.7349473,4.81640852 19.8729688,4.36328125 L17.7792188,4.36328125 L17.7792188,6.9453125 C18.1047413,6.77343664 18.396405,6.57161574 18.6542188,6.33984375 C18.3313005,5.88150812 18.0604699,5.36328414 17.8417188,4.78515625 L18.7089063,4.42578125 Z M14.0604688,8.08984375 C13.8417177,7.75650875 13.6021368,7.45963672 13.3417188,7.19921875 C13.5370323,6.78775836 13.6652862,6.32682547 13.7264844,5.81640625 C13.7876826,5.30598703 13.8182813,4.47526617 13.8182813,3.32421875 L13.8182813,0.66015625 L16.3495313,0.66015625 L16.3495313,6.97265625 C16.3495313,7.26432438 16.2727091,7.4999991 16.1190625,7.6796875 C15.9654159,7.8593759 15.5422431,7.95442703 14.8495313,7.96484375 C14.7818226,7.58463352 14.6906777,7.23047039 14.5760938,6.90234375 C14.7479697,6.92838555 14.9068222,6.94140625 15.0526563,6.94140625 C15.3026575,6.94140625 15.4276563,6.79036609 15.4276563,6.48828125 L15.4276563,5.51953125 L14.7167188,5.51953125 C14.6802603,6.65755777 14.4615125,7.51432004 14.0604688,8.08984375 Z M15.4276563,1.66015625 L14.7557813,1.66015625 L14.7557813,2.66015625 L15.4276563,2.66015625 L15.4276563,1.66015625 Z M14.7479688,4.58984375 L15.4276563,4.58984375 L15.4276563,3.58984375 L14.7557813,3.58984375 C14.7557813,3.95182473 14.7531772,4.28515473 14.7479688,4.58984375 Z M28.8110938,1.00390625 L28.8110938,1.84765625 C28.3110913,2.32161695 27.7095348,2.74088359 27.0064063,3.10546875 C27.7459933,3.26953207 28.5662976,3.36067699 29.4673438,3.37890625 C29.3058847,3.76432484 29.1652611,4.11067555 29.0454688,4.41796875 C27.7121288,4.29296813 26.567609,4.05338719 25.6118751,3.69921875 C24.6040575,4.05599137 23.446517,4.32942613 22.1392188,4.51953125 C22.0298433,4.2434882 21.8892197,3.91797063 21.7173438,3.54296875 C22.6887028,3.45182246 23.5689024,3.30729266 24.3579688,3.109375 C23.9907795,2.88801973 23.666564,2.64323051 23.3853126,2.375 C23.0806235,2.62239707 22.756408,2.85286352 22.4126563,3.06640625 C22.2355721,2.82682172 22.0246367,2.56380352 21.7798438,2.27734375 C22.7902655,1.69921586 23.5428622,1.05338898 24.0376563,0.33984375 L25.2173438,0.33984375 C25.0689056,0.569011563 24.910053,0.790363516 24.7407813,1.00390625 L28.8110938,1.00390625 Z M25.6665626,2.6953125 C26.2681281,2.46354051 26.7954665,2.18880367 27.2485938,1.87109375 L24.2056251,1.87109375 C24.6327105,2.19922039 25.1196848,2.47395723 25.6665626,2.6953125 Z M24.5454688,4.12109375 L25.6626563,4.12109375 C25.6366145,4.371095 25.6014586,4.61588422 25.5571876,4.85546875 L28.8579688,4.85546875 L28.7251563,6.63671875 C28.6991145,6.93359523 28.6118758,7.17838445 28.4634376,7.37109375 C28.3149993,7.56380305 28.1118763,7.70637975 27.8540626,7.79882812 C27.5962488,7.8912765 27.0910455,7.9375 26.3384376,7.9375 C26.0780196,7.9375 25.8032828,7.93098965 25.5142188,7.91796875 C25.4673436,7.61067555 25.3840111,7.25911656 25.2642188,6.86328125 C25.8397425,6.91015648 26.3423417,6.93359375 26.7720313,6.93359375 C26.9959908,6.93359375 27.1704682,6.89973992 27.2954688,6.83203125 C27.4204694,6.76432258 27.4979426,6.66927145 27.5278907,6.546875 C27.5578387,6.42447855 27.581927,6.17578313 27.6001563,5.80078125 L25.3189063,5.80078125 C24.9204668,6.89974508 23.9621431,7.65755 22.4439063,8.07421875 C22.2407803,7.7981757 21.9959911,7.49869953 21.7095313,7.17578125 C22.907454,6.88932148 23.7017169,6.43099273 24.0923438,5.80078125 L21.9829688,5.80078125 L21.9829688,4.85546875 L24.4243751,4.85546875 C24.4738545,4.62630094 24.5142187,4.38151172 24.5454688,4.12109375 Z M31.6554688,6.66796875 L37.7257813,6.66796875 L37.7257813,7.72265625 L30.5460938,7.72265625 L30.5460938,0.78515625 L37.4835938,0.78515625 L37.4835938,1.83984375 L31.6554688,1.83984375 L31.6554688,6.66796875 Z M31.9523438,2.72265625 L32.7023438,1.95703125 L34.4328126,3.4609375 C34.8781273,2.96353918 35.2934877,2.43880484 35.6789063,1.88671875 L36.6476563,2.52734375 C36.2127583,3.11588836 35.7531275,3.67447652 35.2687501,4.203125 L37.0226563,5.82421875 L36.1007813,6.63671875 C35.5669245,6.08984102 35.0252632,5.55208598 34.4757813,5.0234375 C33.8872367,5.59896121 33.2674512,6.13411211 32.6164063,6.62890625 C32.4861973,6.46744711 32.2257833,6.18880406 31.8351563,5.79296875 C32.4862012,5.32161223 33.0955701,4.80989859 33.6632813,4.2578125 C33.1007785,3.73697656 32.5304717,3.22526293 31.9523438,2.72265625 Z M43.4021876,4.93359375 L41.7693751,4.93359375 L41.7693751,6.56640625 L40.9490626,6.56640625 L40.9490626,4.93359375 L39.3084376,4.93359375 L39.3084376,4.109375 L40.9490626,4.109375 L40.9490626,2.46875 L41.7693751,2.46875 L41.7693751,4.109375 L43.4021876,4.109375 L43.4021876,4.93359375 Z M50.7231251,0.48828125 L51.8715626,0.48828125 L51.8715626,7.97265625 L50.7231251,7.97265625 L50.7231251,0.48828125 Z M46.4496876,4.51171875 L49.3871876,4.51171875 L49.2582814,6.53125 C49.2322396,6.88281426 49.1508602,7.16861869 49.0141407,7.38867188 C48.8774213,7.60872506 48.6879701,7.76106729 48.4457814,7.84570312 C48.2035926,7.93033896 47.4783395,7.97265625 46.2700001,7.97265625 C46.1762496,7.57682094 46.0694799,7.19922055 45.9496876,6.83984375 C46.3455229,6.86067719 46.7400502,6.87109375 47.1332814,6.87109375 C47.4509913,6.87109375 47.667786,6.84700545 47.783672,6.79882812 C47.899558,6.7506508 47.9770312,6.66927141 48.0160939,6.5546875 C48.0551565,6.44010359 48.0929166,6.09505496 48.1293751,5.51953125 L45.2075001,5.51953125 L45.4653126,2.64453125 L48.2153126,2.64453125 L48.2153126,1.75390625 L45.2387501,1.75390625 L45.2387501,0.74609375 L49.3637501,0.74609375 L49.3637501,3.65234375 L46.5121876,3.65234375 L46.4496876,4.51171875 Z M53.6690626,0.79296875 L56.3878126,0.79296875 L56.3878126,2.10546875 C56.9060444,1.5611952 57.3096862,0.959638711 57.5987501,0.30078125 L58.7159376,0.43359375 C58.6039579,0.662761563 58.4841674,0.884113516 58.3565626,1.09765625 L60.6846876,1.09765625 L60.6846876,1.98046875 C60.4216655,2.563805 60.0492734,3.06510207 59.5675001,3.484375 C59.9893772,3.64583414 60.4711432,3.75911426 61.0128126,3.82421875 C60.9138538,4.1002618 60.8148964,4.43619594 60.7159376,4.83203125 C59.9086419,4.68098883 59.2146384,4.44270996 58.6339064,4.1171875 C58.0427576,4.43229324 57.34615,4.66796797 56.5440626,4.82421875 C56.4294787,4.51692555 56.2966675,4.21744938 56.1456251,3.92578125 C56.7576073,3.81900988 57.2927582,3.67057387 57.7510939,3.48046875 C57.5115093,3.2565093 57.3031781,3.00781387 57.1260939,2.734375 C57.0089058,2.8619798 56.8878132,2.98567648 56.7628126,3.10546875 C56.6977081,2.99869738 56.5727094,2.81510547 56.3878126,2.5546875 L56.3878126,3.48046875 L55.7003126,3.48046875 L55.7003126,4.41796875 L56.3096876,4.41796875 L56.3096876,5.32421875 L55.7003126,5.32421875 L55.7003126,6.44140625 L56.5753126,6.33203125 C56.5596875,6.46224023 56.549271,6.81119508 56.5440626,7.37890625 L53.3721876,7.81640625 L53.2550001,6.72265625 L53.5128126,6.6953125 L53.5128126,3.98046875 L54.2940626,3.98046875 L54.2940626,6.609375 L54.7315626,6.55859375 L54.7315626,3.48046875 L53.6690626,3.48046875 L53.6690626,0.79296875 Z M54.6378126,2.60546875 L55.4190626,2.60546875 L55.4190626,1.79296875 L54.6378126,1.79296875 L54.6378126,2.60546875 Z M58.6417189,2.984375 C59.0141166,2.71354031 59.2940617,2.39453309 59.4815626,2.02734375 L57.7823439,2.02734375 C57.9984908,2.4049498 58.2849462,2.72395703 58.6417189,2.984375 Z M56.8409376,8.06640625 L56.8409376,4.84765625 L60.4971876,4.84765625 L60.4971876,8.05078125 L59.5128126,8.05078125 L59.5128126,7.64453125 L57.8253126,7.64453125 L57.8253126,8.06640625 L56.8409376,8.06640625 Z M59.5128126,5.81640625 L57.8253126,5.81640625 L57.8253126,6.67578125 L59.5128126,6.67578125 L59.5128126,5.81640625 Z M66.5720314,4.93359375 L64.9392189,4.93359375 L64.9392189,6.56640625 L64.1189064,6.56640625 L64.1189064,4.93359375 L62.4782814,4.93359375 L62.4782814,4.109375 L64.1189064,4.109375 L64.1189064,2.46875 L64.9392189,2.46875 L64.9392189,4.109375 L66.5720314,4.109375 L66.5720314,4.93359375 Z M71.0531251,4.625 C71.0531251,5.42448316 70.8688822,6.03775828 70.5003908,6.46484375 C70.1318993,6.89192922 69.6039098,7.10546875 68.9164064,7.10546875 C68.6117174,7.10546875 68.3291681,7.05338594 68.0687501,6.94921875 L68.0687501,5.734375 C68.2927096,5.90364668 68.5479154,5.98828125 68.8343751,5.98828125 C69.4541699,5.98828125 69.7640626,5.51823387 69.7640626,4.578125 L69.7640626,0.94921875 L71.0531251,0.94921875 L71.0531251,4.625 Z M77.0693752,6.78125 C76.6292688,6.99739691 76.0550558,7.10546875 75.3467189,7.10546875 C74.435256,7.10546875 73.711956,6.83268502 73.176797,6.28710938 C72.6416381,5.74153373 72.3740627,5.01432746 72.3740627,4.10546875 C72.3740627,3.1497348 72.6728878,2.36784158 73.270547,1.75976562 C73.8682063,1.15168967 74.6396829,0.84765625 75.5850002,0.84765625 C76.1761489,0.84765625 76.6709357,0.924478398 77.0693752,1.078125 L77.0693752,2.32421875 C76.6605189,2.08463422 76.1969819,1.96484375 75.6787502,1.96484375 C75.0876014,1.96484375 74.6149498,2.15364395 74.2607814,2.53125 C73.906613,2.90885605 73.7295314,3.4023407 73.7295314,4.01171875 C73.7295314,4.60547172 73.8974985,5.08333152 74.2334377,5.4453125 C74.5693768,5.80729348 75.0237994,5.98828125 75.5967189,5.98828125 C76.1357841,5.98828125 76.6266646,5.85807422 77.0693752,5.59765625 L77.0693752,6.78125 Z M82.6754689,2.00390625 L80.9489064,2.00390625 L80.9489064,7 L79.6559377,7 L79.6559377,2.00390625 L77.9332814,2.00390625 L77.9332814,0.94921875 L82.6754689,0.94921875 L82.6754689,2.00390625 Z" id="58:服务区+引路+JCT" fill="#7885EF" fill-rule="nonzero"></path>
    </g>
</svg>