<?xml version="1.0" encoding="UTF-8"?>
<svg width="25px" height="8px" viewBox="0 0 25 8" version="1.1" xmlns="http://www.w3.org/2000/svg" xmlns:xlink="http://www.w3.org/1999/xlink">
    <!-- Generator: Sketch 53.1 (72631) - https://sketchapp.com -->
    <title>6:引路</title>
    <desc>Created with Sketch.</desc>
    <g id="Page-1" stroke="none" stroke-width="1" fill="none" fill-rule="evenodd">
        <path d="M4.22265625,1.953125 C3.91536305,1.77864496 3.58073098,1.69140625 3.21875,1.69140625 C2.75260184,1.69140625 2.37955869,1.87434713 2.09960938,2.24023438 C1.81966006,2.60612162 1.6796875,3.07942418 1.6796875,3.66015625 L1.703125,3.66015625 C1.99218895,3.2174457 2.42057008,2.99609375 2.98828125,2.99609375 C3.49609629,2.99609375 3.89908705,3.16992014 4.19726562,3.51757812 C4.4954442,3.86523611 4.64453125,4.31770555 4.64453125,4.875 C4.64453125,5.48437805 4.45052277,5.98762822 4.0625,6.38476562 C3.67447723,6.78190303 3.17838844,6.98046875 2.57421875,6.98046875 C1.88150695,6.98046875 1.3509133,6.73047125 0.982421875,6.23046875 C0.613930449,5.73046625 0.4296875,5.04557727 0.4296875,4.17578125 C0.4296875,3.15233863 0.668617402,2.32096674 1.14648438,1.68164062 C1.62435135,1.04231451 2.28905824,0.72265625 3.140625,0.72265625 C3.59896063,0.72265625 3.9596341,0.777343203 4.22265625,0.88671875 L4.22265625,1.953125 Z M1.72265625,4.88671875 C1.72265625,5.19922031 1.80078047,5.46484266 1.95703125,5.68359375 C2.11328203,5.90234484 2.31900914,6.01171875 2.57421875,6.01171875 C2.83203254,6.01171875 3.03515551,5.91145934 3.18359375,5.7109375 C3.33203199,5.51041566 3.40625,5.25911609 3.40625,4.95703125 C3.40625,4.27734035 3.12630488,3.9375 2.56640625,3.9375 C2.31380082,3.9375 2.11002682,4.02734285 1.95507812,4.20703125 C1.80012943,4.38671965 1.72265625,4.61327988 1.72265625,4.88671875 Z M5.68421876,3.1640625 C5.68421876,2.9713532 5.75843677,2.81250062 5.90687501,2.6875 C6.05531326,2.56249938 6.23239482,2.5 6.43812501,2.5 C6.64645939,2.5 6.82223888,2.56249938 6.96546876,2.6875 C7.10869865,2.81250062 7.18031251,2.9713532 7.18031251,3.1640625 C7.18031251,3.36458434 7.10869865,3.52669209 6.96546876,3.65039062 C6.82223888,3.77408916 6.64125111,3.8359375 6.42250001,3.8359375 C6.21416564,3.8359375 6.03903718,3.77213605 5.89710939,3.64453125 C5.7551816,3.51692645 5.68421876,3.3567718 5.68421876,3.1640625 Z M5.68421876,6.30859375 C5.68421876,6.11328027 5.75843677,5.95312562 5.90687501,5.828125 C6.05531326,5.70312438 6.23239482,5.640625 6.43812501,5.640625 C6.64645939,5.640625 6.82223888,5.70442645 6.96546876,5.83203125 C7.10869865,5.95963605 7.18031251,6.11848863 7.18031251,6.30859375 C7.18031251,6.50911559 7.10869865,6.67122334 6.96546876,6.79492188 C6.82223888,6.91862041 6.64125111,6.98046875 6.42250001,6.98046875 C6.219374,6.98046875 6.04554761,6.9166673 5.90101564,6.7890625 C5.75648367,6.6614577 5.68421876,6.50130305 5.68421876,6.30859375 Z M13.8996875,0.36328125 L15.048125,0.36328125 L15.048125,7.84765625 L13.8996875,7.84765625 L13.8996875,0.36328125 Z M9.62625003,4.38671875 L12.56375,4.38671875 L12.4348438,6.40625 C12.408802,6.75781426 12.3274226,7.04361869 12.1907032,7.26367188 C12.0539837,7.48372506 11.8645325,7.63606729 11.6223438,7.72070312 C11.3801551,7.80533896 10.6549019,7.84765625 9.44656253,7.84765625 C9.35281206,7.45182094 9.24604229,7.07422055 9.12625003,6.71484375 C9.52208534,6.73567719 9.91661265,6.74609375 10.3098438,6.74609375 C10.6275537,6.74609375 10.8443484,6.72200545 10.9602344,6.67382812 C11.0761204,6.6256508 11.1535936,6.54427141 11.1926563,6.4296875 C11.231719,6.31510359 11.269479,5.97005496 11.3059375,5.39453125 L8.38406253,5.39453125 L8.64187503,2.51953125 L11.391875,2.51953125 L11.391875,1.62890625 L8.41531253,1.62890625 L8.41531253,0.62109375 L12.5403125,0.62109375 L12.5403125,3.52734375 L9.68875003,3.52734375 L9.62625003,4.38671875 Z M16.845625,0.66796875 L19.564375,0.66796875 L19.564375,1.98046875 C20.0826068,1.4361952 20.4862486,0.834638711 20.7753125,0.17578125 L21.8925,0.30859375 C21.7805203,0.537761563 21.6607298,0.759113516 21.533125,0.97265625 L23.86125,0.97265625 L23.86125,1.85546875 C23.5982279,2.438805 23.2258358,2.94010207 22.7440625,3.359375 C23.1659397,3.52083414 23.6477057,3.63411426 24.189375,3.69921875 C24.0904162,3.9752618 23.9914589,4.31119594 23.8925,4.70703125 C23.0852043,4.55598883 22.3912009,4.31770996 21.8104688,3.9921875 C21.21932,4.30729324 20.5227124,4.54296797 19.720625,4.69921875 C19.6060411,4.39192555 19.47323,4.09244938 19.3221875,3.80078125 C19.9341698,3.69400988 20.4693207,3.54557387 20.9276563,3.35546875 C20.6880718,3.1315093 20.4797405,2.88281387 20.3026563,2.609375 C20.1854682,2.7369798 20.0643757,2.86067648 19.939375,2.98046875 C19.8742706,2.87369738 19.7492718,2.69010547 19.564375,2.4296875 L19.564375,3.35546875 L18.876875,3.35546875 L18.876875,4.29296875 L19.48625,4.29296875 L19.48625,5.19921875 L18.876875,5.19921875 L18.876875,6.31640625 L19.751875,6.20703125 C19.73625,6.33724023 19.7258334,6.68619508 19.720625,7.25390625 L16.54875,7.69140625 L16.4315625,6.59765625 L16.689375,6.5703125 L16.689375,3.85546875 L17.470625,3.85546875 L17.470625,6.484375 L17.908125,6.43359375 L17.908125,3.35546875 L16.845625,3.35546875 L16.845625,0.66796875 Z M17.814375,2.48046875 L18.595625,2.48046875 L18.595625,1.66796875 L17.814375,1.66796875 L17.814375,2.48046875 Z M21.8182813,2.859375 C22.190679,2.58854031 22.4706241,2.26953309 22.658125,1.90234375 L20.9589063,1.90234375 C21.1750532,2.2799498 21.4615087,2.59895703 21.8182813,2.859375 Z M20.0175,7.94140625 L20.0175,4.72265625 L23.67375,4.72265625 L23.67375,7.92578125 L22.689375,7.92578125 L22.689375,7.51953125 L21.001875,7.51953125 L21.001875,7.94140625 L20.0175,7.94140625 Z M22.689375,5.69140625 L21.001875,5.69140625 L21.001875,6.55078125 L22.689375,6.55078125 L22.689375,5.69140625 Z" id="6:引路" fill="#7885EF" fill-rule="nonzero"></path>
    </g>
</svg>