<?xml version="1.0" encoding="UTF-8"?>
<svg width="25px" height="9px" viewBox="0 0 25 9" version="1.1" xmlns="http://www.w3.org/2000/svg" xmlns:xlink="http://www.w3.org/1999/xlink">
    <!-- Generator: Sketch 53.1 (72631) - https://sketchapp.com -->
    <title>7:辅路</title>
    <desc>Created with Sketch.</desc>
    <g id="Page-1" stroke="none" stroke-width="1" fill="none" fill-rule="evenodd">
        <path d="M4.578125,2.01953125 L2.41015625,7.5 L1.078125,7.5 L3.24609375,2.48828125 L0.40234375,2.48828125 L0.40234375,1.44921875 L4.578125,1.44921875 L4.578125,2.01953125 Z M5.68421876,3.7890625 C5.68421876,3.5963532 5.75843677,3.43750062 5.90687501,3.3125 C6.05531326,3.18749938 6.23239482,3.125 6.43812501,3.125 C6.64645939,3.125 6.82223888,3.18749938 6.96546876,3.3125 C7.10869865,3.43750062 7.18031251,3.5963532 7.18031251,3.7890625 C7.18031251,3.98958434 7.10869865,4.15169209 6.96546876,4.27539062 C6.82223888,4.39908916 6.64125111,4.4609375 6.42250001,4.4609375 C6.21416564,4.4609375 6.03903718,4.39713605 5.89710939,4.26953125 C5.7551816,4.14192645 5.68421876,3.9817718 5.68421876,3.7890625 Z M5.68421876,6.93359375 C5.68421876,6.73828027 5.75843677,6.57812562 5.90687501,6.453125 C6.05531326,6.32812438 6.23239482,6.265625 6.43812501,6.265625 C6.64645939,6.265625 6.82223888,6.32942645 6.96546876,6.45703125 C7.10869865,6.58463605 7.18031251,6.74348863 7.18031251,6.93359375 C7.18031251,7.13411559 7.10869865,7.29622334 6.96546876,7.41992188 C6.82223888,7.54362041 6.64125111,7.60546875 6.42250001,7.60546875 C6.219374,7.60546875 6.04554761,7.5416673 5.90101564,7.4140625 C5.75648367,7.2864577 5.68421876,7.12630305 5.68421876,6.93359375 Z M11.2121875,1.83203125 L12.93875,1.83203125 L12.93875,0.87109375 L13.9075,0.87109375 L13.9075,1.83203125 L14.6653125,1.83203125 C14.5168743,1.61588434 14.3658341,1.41536551 14.2121875,1.23046875 L14.93875,0.80859375 C15.1835429,1.07422008 15.38927,1.32161344 15.5559375,1.55078125 L15.0598438,1.83203125 L15.7825,1.83203125 L15.7825,2.69140625 L13.9075,2.69140625 L13.9075,3.24609375 L15.5559375,3.24609375 L15.5559375,7.51953125 C15.5559375,7.77734504 15.508412,7.98307215 15.4133594,8.13671875 C15.3183068,8.29036535 15.1874488,8.3893227 15.0207813,8.43359375 C14.8541138,8.4778648 14.5377107,8.49348965 14.0715625,8.48046875 C14.0455207,8.28255109 13.9960421,8.01432461 13.923125,7.67578125 C14.0481257,7.69140633 14.1744265,7.69921875 14.3020313,7.69921875 C14.5077615,7.69921875 14.610625,7.58203242 14.610625,7.34765625 L14.610625,6.84765625 L13.9075,6.84765625 L13.9075,8.43359375 L12.93875,8.43359375 L12.93875,6.84765625 L12.235625,6.84765625 L12.235625,8.54296875 L11.2746875,8.54296875 L11.2746875,3.24609375 L12.93875,3.24609375 L12.93875,2.69140625 L11.2121875,2.69140625 L11.2121875,1.83203125 Z M14.610625,4.04296875 L13.9075,4.04296875 L13.9075,4.73046875 L14.610625,4.73046875 L14.610625,4.04296875 Z M12.235625,4.73046875 L12.93875,4.73046875 L12.93875,4.04296875 L12.235625,4.04296875 L12.235625,4.73046875 Z M12.235625,6.12890625 L12.93875,6.12890625 L12.93875,5.44921875 L12.235625,5.44921875 L12.235625,6.12890625 Z M13.9075,6.12890625 L14.610625,6.12890625 L14.610625,5.44921875 L13.9075,5.44921875 L13.9075,6.12890625 Z M8.07937503,7.19140625 L8.05593753,6.20703125 C8.40489761,6.19661453 8.8918719,6.17708348 9.51687503,6.1484375 L9.51687503,5.41796875 L8.13406253,5.41796875 L8.13406253,4.48828125 C8.32416765,3.87369484 8.48953058,3.2747425 8.63015628,2.69140625 L8.07156253,2.69140625 L8.07156253,1.81640625 L8.82546878,1.81640625 C8.89578163,1.47786289 8.95697893,1.14453289 9.00906253,0.81640625 L9.96218753,0.92578125 L9.76296878,1.81640625 L11.0246875,1.81640625 L11.0246875,2.69140625 L9.55593753,2.69140625 C9.40229093,3.32161773 9.24343835,3.92317422 9.07937503,4.49609375 L9.51687503,4.49609375 L9.51687503,3.19921875 L10.43875,3.19921875 L10.43875,4.49609375 L11.048125,4.49609375 L11.048125,5.41796875 L10.43875,5.41796875 L10.43875,6.10546875 L11.06375,6.07421875 C11.0585417,6.40234539 11.0585417,6.70963398 11.06375,6.99609375 L10.43875,7.03515625 L10.43875,8.55859375 L9.51687503,8.55859375 L9.51687503,7.08984375 L8.07937503,7.19140625 Z M16.845625,1.29296875 L19.564375,1.29296875 L19.564375,2.60546875 C20.0826068,2.0611952 20.4862486,1.45963871 20.7753125,0.80078125 L21.8925,0.93359375 C21.7805203,1.16276156 21.6607298,1.38411352 21.533125,1.59765625 L23.86125,1.59765625 L23.86125,2.48046875 C23.5982279,3.063805 23.2258358,3.56510207 22.7440625,3.984375 C23.1659397,4.14583414 23.6477057,4.25911426 24.189375,4.32421875 C24.0904162,4.6002618 23.9914589,4.93619594 23.8925,5.33203125 C23.0852043,5.18098883 22.3912009,4.94270996 21.8104688,4.6171875 C21.21932,4.93229324 20.5227124,5.16796797 19.720625,5.32421875 C19.6060411,5.01692555 19.47323,4.71744938 19.3221875,4.42578125 C19.9341698,4.31900988 20.4693207,4.17057387 20.9276563,3.98046875 C20.6880718,3.7565093 20.4797405,3.50781387 20.3026563,3.234375 C20.1854682,3.3619798 20.0643757,3.48567648 19.939375,3.60546875 C19.8742706,3.49869738 19.7492718,3.31510547 19.564375,3.0546875 L19.564375,3.98046875 L18.876875,3.98046875 L18.876875,4.91796875 L19.48625,4.91796875 L19.48625,5.82421875 L18.876875,5.82421875 L18.876875,6.94140625 L19.751875,6.83203125 C19.73625,6.96224023 19.7258334,7.31119508 19.720625,7.87890625 L16.54875,8.31640625 L16.4315625,7.22265625 L16.689375,7.1953125 L16.689375,4.48046875 L17.470625,4.48046875 L17.470625,7.109375 L17.908125,7.05859375 L17.908125,3.98046875 L16.845625,3.98046875 L16.845625,1.29296875 Z M17.814375,3.10546875 L18.595625,3.10546875 L18.595625,2.29296875 L17.814375,2.29296875 L17.814375,3.10546875 Z M21.8182813,3.484375 C22.190679,3.21354031 22.4706241,2.89453309 22.658125,2.52734375 L20.9589063,2.52734375 C21.1750532,2.9049498 21.4615087,3.22395703 21.8182813,3.484375 Z M20.0175,8.56640625 L20.0175,5.34765625 L23.67375,5.34765625 L23.67375,8.55078125 L22.689375,8.55078125 L22.689375,8.14453125 L21.001875,8.14453125 L21.001875,8.56640625 L20.0175,8.56640625 Z M22.689375,6.31640625 L21.001875,6.31640625 L21.001875,7.17578125 L22.689375,7.17578125 L22.689375,6.31640625 Z" id="7:辅路" fill="#7885EF" fill-rule="nonzero"></path>
    </g>
</svg>