<?xml version="1.0" encoding="UTF-8"?>
<svg width="46px" height="9px" viewBox="0 0 46 9" version="1.1" xmlns="http://www.w3.org/2000/svg" xmlns:xlink="http://www.w3.org/1999/xlink">
    <!-- Generator: Sketch 53.1 (72631) - https://sketchapp.com -->
    <title>8:引路+JCT</title>
    <desc>Created with Sketch.</desc>
    <g id="Page-1" stroke="none" stroke-width="1" fill="none" fill-rule="evenodd">
        <path d="M1.58203125,3.95703125 C0.884111094,3.6679673 0.53515625,3.20573234 0.53515625,2.5703125 C0.53515625,2.09114344 0.72460748,1.70507959 1.10351562,1.41210938 C1.48242377,1.11913916 1.95051805,0.97265625 2.5078125,0.97265625 C3.07031531,0.97265625 3.53255027,1.1087226 3.89453125,1.38085938 C4.25651223,1.65299615 4.4375,2.01952895 4.4375,2.48046875 C4.4375,3.14193039 4.0559934,3.6328109 3.29296875,3.953125 L3.29296875,3.96875 C3.70442914,4.09114645 4.0240874,4.2903632 4.25195312,4.56640625 C4.47981885,4.8424493 4.59375,5.15755031 4.59375,5.51171875 C4.59375,6.06120066 4.39258014,6.48502455 3.99023438,6.78320312 C3.58788861,7.0813817 3.0468784,7.23046875 2.3671875,7.23046875 C1.78124707,7.23046875 1.29883002,7.08268377 0.919921875,6.78710938 C0.54101373,6.49153498 0.3515625,6.09114836 0.3515625,5.5859375 C0.3515625,4.85676719 0.761714648,4.32031422 1.58203125,3.9765625 L1.58203125,3.95703125 Z M3.24609375,2.58984375 C3.24609375,2.37369684 3.17773506,2.20312562 3.04101562,2.078125 C2.90429619,1.95312438 2.72395945,1.890625 2.5,1.890625 C2.28906145,1.890625 2.10872471,1.95637955 1.95898438,2.08789062 C1.80924404,2.2194017 1.734375,2.3880198 1.734375,2.59375 C1.734375,2.98958531 1.98697664,3.28906148 2.4921875,3.4921875 C2.99479418,3.28385313 3.24609375,2.98307488 3.24609375,2.58984375 Z M2.43359375,4.46484375 C1.84244496,4.69661574 1.546875,5.04817473 1.546875,5.51953125 C1.546875,5.75130324 1.63736889,5.94140551 1.81835938,6.08984375 C1.99934986,6.23828199 2.21874871,6.3125 2.4765625,6.3125 C2.74479301,6.3125 2.96549393,6.24153717 3.13867188,6.09960938 C3.31184982,5.95768158 3.3984375,5.76302207 3.3984375,5.515625 C3.3984375,5.03645594 3.07682613,4.68619902 2.43359375,4.46484375 Z M5.68421876,3.4140625 C5.68421876,3.2213532 5.75843677,3.06250062 5.90687501,2.9375 C6.05531326,2.81249938 6.23239482,2.75 6.43812501,2.75 C6.64645939,2.75 6.82223888,2.81249938 6.96546876,2.9375 C7.10869865,3.06250062 7.18031251,3.2213532 7.18031251,3.4140625 C7.18031251,3.61458434 7.10869865,3.77669209 6.96546876,3.90039062 C6.82223888,4.02408916 6.64125111,4.0859375 6.42250001,4.0859375 C6.21416564,4.0859375 6.03903718,4.02213605 5.89710939,3.89453125 C5.7551816,3.76692645 5.68421876,3.6067718 5.68421876,3.4140625 Z M5.68421876,6.55859375 C5.68421876,6.36328027 5.75843677,6.20312562 5.90687501,6.078125 C6.05531326,5.95312438 6.23239482,5.890625 6.43812501,5.890625 C6.64645939,5.890625 6.82223888,5.95442645 6.96546876,6.08203125 C7.10869865,6.20963605 7.18031251,6.36848863 7.18031251,6.55859375 C7.18031251,6.75911559 7.10869865,6.92122334 6.96546876,7.04492188 C6.82223888,7.16862041 6.64125111,7.23046875 6.42250001,7.23046875 C6.219374,7.23046875 6.04554761,7.1666673 5.90101564,7.0390625 C5.75648367,6.9114577 5.68421876,6.75130305 5.68421876,6.55859375 Z M13.8996875,0.61328125 L15.048125,0.61328125 L15.048125,8.09765625 L13.8996875,8.09765625 L13.8996875,0.61328125 Z M9.62625003,4.63671875 L12.56375,4.63671875 L12.4348438,6.65625 C12.408802,7.00781426 12.3274226,7.29361869 12.1907032,7.51367188 C12.0539837,7.73372506 11.8645325,7.88606729 11.6223438,7.97070312 C11.3801551,8.05533896 10.6549019,8.09765625 9.44656253,8.09765625 C9.35281206,7.70182094 9.24604229,7.32422055 9.12625003,6.96484375 C9.52208534,6.98567719 9.91661265,6.99609375 10.3098438,6.99609375 C10.6275537,6.99609375 10.8443484,6.97200545 10.9602344,6.92382812 C11.0761204,6.8756508 11.1535936,6.79427141 11.1926563,6.6796875 C11.231719,6.56510359 11.269479,6.22005496 11.3059375,5.64453125 L8.38406253,5.64453125 L8.64187503,2.76953125 L11.391875,2.76953125 L11.391875,1.87890625 L8.41531253,1.87890625 L8.41531253,0.87109375 L12.5403125,0.87109375 L12.5403125,3.77734375 L9.68875003,3.77734375 L9.62625003,4.63671875 Z M16.845625,0.91796875 L19.564375,0.91796875 L19.564375,2.23046875 C20.0826068,1.6861952 20.4862486,1.08463871 20.7753125,0.42578125 L21.8925,0.55859375 C21.7805203,0.787761562 21.6607298,1.00911352 21.533125,1.22265625 L23.86125,1.22265625 L23.86125,2.10546875 C23.5982279,2.688805 23.2258358,3.19010207 22.7440625,3.609375 C23.1659397,3.77083414 23.6477057,3.88411426 24.189375,3.94921875 C24.0904162,4.2252618 23.9914589,4.56119594 23.8925,4.95703125 C23.0852043,4.80598883 22.3912009,4.56770996 21.8104688,4.2421875 C21.21932,4.55729324 20.5227124,4.79296797 19.720625,4.94921875 C19.6060411,4.64192555 19.47323,4.34244938 19.3221875,4.05078125 C19.9341698,3.94400988 20.4693207,3.79557387 20.9276563,3.60546875 C20.6880718,3.3815093 20.4797405,3.13281387 20.3026563,2.859375 C20.1854682,2.9869798 20.0643757,3.11067648 19.939375,3.23046875 C19.8742706,3.12369738 19.7492718,2.94010547 19.564375,2.6796875 L19.564375,3.60546875 L18.876875,3.60546875 L18.876875,4.54296875 L19.48625,4.54296875 L19.48625,5.44921875 L18.876875,5.44921875 L18.876875,6.56640625 L19.751875,6.45703125 C19.73625,6.58724023 19.7258334,6.93619508 19.720625,7.50390625 L16.54875,7.94140625 L16.4315625,6.84765625 L16.689375,6.8203125 L16.689375,4.10546875 L17.470625,4.10546875 L17.470625,6.734375 L17.908125,6.68359375 L17.908125,3.60546875 L16.845625,3.60546875 L16.845625,0.91796875 Z M17.814375,2.73046875 L18.595625,2.73046875 L18.595625,1.91796875 L17.814375,1.91796875 L17.814375,2.73046875 Z M21.8182813,3.109375 C22.190679,2.83854031 22.4706241,2.51953309 22.658125,2.15234375 L20.9589063,2.15234375 C21.1750532,2.5299498 21.4615087,2.84895703 21.8182813,3.109375 Z M20.0175,8.19140625 L20.0175,4.97265625 L23.67375,4.97265625 L23.67375,8.17578125 L22.689375,8.17578125 L22.689375,7.76953125 L21.001875,7.76953125 L21.001875,8.19140625 L20.0175,8.19140625 Z M22.689375,5.94140625 L21.001875,5.94140625 L21.001875,6.80078125 L22.689375,6.80078125 L22.689375,5.94140625 Z M29.7485938,5.05859375 L28.1157813,5.05859375 L28.1157813,6.69140625 L27.2954688,6.69140625 L27.2954688,5.05859375 L25.6548438,5.05859375 L25.6548438,4.234375 L27.2954688,4.234375 L27.2954688,2.59375 L28.1157813,2.59375 L28.1157813,4.234375 L29.7485938,4.234375 L29.7485938,5.05859375 Z M34.2296876,4.75 C34.2296876,5.54948316 34.0454446,6.16275828 33.6769532,6.58984375 C33.3084618,7.01692922 32.7804723,7.23046875 32.0929688,7.23046875 C31.7882798,7.23046875 31.5057305,7.17838594 31.2453126,7.07421875 L31.2453126,5.859375 C31.469272,6.02864668 31.7244778,6.11328125 32.0109376,6.11328125 C32.6307323,6.11328125 32.9406251,5.64323387 32.9406251,4.703125 L32.9406251,1.07421875 L34.2296876,1.07421875 L34.2296876,4.75 Z M40.2459376,6.90625 C39.8058312,7.12239691 39.2316182,7.23046875 38.5232813,7.23046875 C37.6118184,7.23046875 36.8885184,6.95768502 36.3533595,6.41210938 C35.8182005,5.86653373 35.5506251,5.13932746 35.5506251,4.23046875 C35.5506251,3.2747348 35.8494502,2.49284158 36.4471095,1.88476562 C37.0447687,1.27668967 37.8162454,0.97265625 38.7615626,0.97265625 C39.3527114,0.97265625 39.8474981,1.0494784 40.2459376,1.203125 L40.2459376,2.44921875 C39.8370814,2.20963422 39.3735443,2.08984375 38.8553126,2.08984375 C38.2641638,2.08984375 37.7915123,2.27864395 37.4373438,2.65625 C37.0831754,3.03385605 36.9060938,3.5273407 36.9060938,4.13671875 C36.9060938,4.73047172 37.0740609,5.20833152 37.4100001,5.5703125 C37.7459393,5.93229348 38.2003618,6.11328125 38.7732813,6.11328125 C39.3123465,6.11328125 39.803227,5.98307422 40.2459376,5.72265625 L40.2459376,6.90625 Z M45.8520314,2.12890625 L44.1254689,2.12890625 L44.1254689,7.125 L42.8325001,7.125 L42.8325001,2.12890625 L41.1098439,2.12890625 L41.1098439,1.07421875 L45.8520314,1.07421875 L45.8520314,2.12890625 Z" id="8:引路+JCT" fill="#7885EF" fill-rule="nonzero"></path>
    </g>
</svg>