<?xml version="1.0" encoding="UTF-8"?>
<svg width="24px" height="8px" viewBox="0 0 24 8" version="1.1" xmlns="http://www.w3.org/2000/svg" xmlns:xlink="http://www.w3.org/1999/xlink">
    <!-- Generator: Sketch 53.1 (72631) - https://sketchapp.com -->
    <title>9:出口</title>
    <desc>Created with Sketch.</desc>
    <g id="Page-1" stroke="none" stroke-width="1" fill="none" fill-rule="evenodd">
        <path d="M0.6796875,5.57421875 C1.00260578,5.78255312 1.38281031,5.88671875 1.8203125,5.88671875 C2.79687988,5.88671875 3.29557281,5.25130844 3.31640625,3.98046875 L3.29296875,3.97265625 C3.02734242,4.38151246 2.61719027,4.5859375 2.0625,4.5859375 C1.55989332,4.5859375 1.146486,4.40950697 0.822265625,4.05664062 C0.498045254,3.70377428 0.3359375,3.25911727 0.3359375,2.72265625 C0.3359375,2.09244477 0.531248047,1.58073113 0.921875,1.1875 C1.31250195,0.794268867 1.82161145,0.59765625 2.44921875,0.59765625 C3.10286785,0.59765625 3.61588355,0.84635168 3.98828125,1.34375 C4.36067895,1.84114832 4.546875,2.5351518 4.546875,3.42578125 C4.546875,4.4830782 4.32226787,5.31900734 3.87304688,5.93359375 C3.42382588,6.54818016 2.77734797,6.85546875 1.93359375,6.85546875 C1.45702887,6.85546875 1.0390643,6.7786466 0.6796875,6.625 L0.6796875,5.57421875 Z M1.57421875,2.609375 C1.57421875,2.9296891 1.65169193,3.18098867 1.80664062,3.36328125 C1.96158932,3.54557383 2.17317574,3.63671875 2.44140625,3.63671875 C2.68099078,3.63671875 2.87825443,3.54948004 3.03320312,3.375 C3.18815182,3.20051996 3.265625,2.98437629 3.265625,2.7265625 C3.265625,2.41666512 3.18815182,2.14583449 3.03320312,1.9140625 C2.87825443,1.68229051 2.67057422,1.56640625 2.41015625,1.56640625 C2.15755082,1.56640625 1.95507889,1.66666566 1.80273438,1.8671875 C1.65038986,2.06770934 1.57421875,2.3151027 1.57421875,2.609375 Z M5.68421876,3.0390625 C5.68421876,2.8463532 5.75843677,2.68750062 5.90687501,2.5625 C6.05531326,2.43749938 6.23239482,2.375 6.43812501,2.375 C6.64645939,2.375 6.82223888,2.43749938 6.96546876,2.5625 C7.10869865,2.68750062 7.18031251,2.8463532 7.18031251,3.0390625 C7.18031251,3.23958434 7.10869865,3.40169209 6.96546876,3.52539062 C6.82223888,3.64908916 6.64125111,3.7109375 6.42250001,3.7109375 C6.21416564,3.7109375 6.03903718,3.64713605 5.89710939,3.51953125 C5.7551816,3.39192645 5.68421876,3.2317718 5.68421876,3.0390625 Z M5.68421876,6.18359375 C5.68421876,5.98828027 5.75843677,5.82812562 5.90687501,5.703125 C6.05531326,5.57812438 6.23239482,5.515625 6.43812501,5.515625 C6.64645939,5.515625 6.82223888,5.57942645 6.96546876,5.70703125 C7.10869865,5.83463605 7.18031251,5.99348863 7.18031251,6.18359375 C7.18031251,6.38411559 7.10869865,6.54622334 6.96546876,6.66992188 C6.82223888,6.79362041 6.64125111,6.85546875 6.42250001,6.85546875 C6.219374,6.85546875 6.04554761,6.7916673 5.90101564,6.6640625 C5.75648367,6.5364577 5.68421876,6.37630305 5.68421876,6.18359375 Z M14.0246875,2.76953125 L14.0246875,0.80859375 L15.1184375,0.80859375 L15.1184375,3.80078125 L12.516875,3.80078125 L12.516875,6.39453125 L14.3059375,6.39453125 L14.3059375,4.48046875 L15.3996875,4.48046875 L15.3996875,7.79296875 L14.3059375,7.79296875 L14.3059375,7.42578125 L8.47000003,7.42578125 L8.47000003,4.48046875 L9.56375003,4.48046875 L9.56375003,6.39453125 L11.345,6.39453125 L11.345,3.80078125 L8.75125003,3.80078125 L8.75125003,0.80859375 L9.84500003,0.80859375 L9.84500003,2.76953125 L11.345,2.76953125 L11.345,0.12890625 L12.516875,0.12890625 L12.516875,2.76953125 L14.0246875,2.76953125 Z M16.970625,7.58984375 L16.970625,0.76953125 L23.6346875,0.76953125 L23.6346875,7.58984375 L22.4628125,7.58984375 L22.4628125,7.03515625 L18.1425,7.03515625 L18.1425,7.58984375 L16.970625,7.58984375 Z M22.4628125,1.83984375 L18.1425,1.83984375 L18.1425,5.96484375 L22.4628125,5.96484375 L22.4628125,1.83984375 Z" id="9:出口" fill="#7885EF" fill-rule="nonzero"></path>
    </g>
</svg>